<svg xmlns="http://www.w3.org/2000/svg" viewBox="0 0 16 16"><path d="M6.352 3a.505.505 0 00-.477.34l-.848 2.5A.446.446 0 005 6H3.852a.505.505 0 00-.477.34l-.848 2.5A.446.446 0 002.5 9H1.352a.505.505 0 00-.477.34l-.848 2.5A.446.446 0 000 12v.5c0 .277.223.5.5.5h15c.277 0 .5-.223.5-.5V12a.446.446 0 00-.027-.16l-.848-2.5a.504.504 0 00-.473-.34H13.5a.446.446 0 00-.027-.16l-.848-2.5a.504.504 0 00-.473-.34H11a.446.446 0 00-.027-.16l-.848-2.5A.505.505 0 009.648 3zm.359 1h2.578l.684 2H6.027zm-2.5 3h2.578l.684 2H3.527zm5 0h2.582l.68 2H8.527zm-7.5 3h2.578l.684 2H1.027zm5 0h2.578l.684 2H6.027zm4.996 0h2.586l.68 2h-3.946z" fill="#03B0C3"/></svg>