<svg xmlns="http://www.w3.org/2000/svg" viewBox="0 0 16 16"><path d="M7.5 4C2.105 4 .047 8.29.047 8.29l-.102.21.102.21S2.105 13 7.5 13c5.395 0 7.453-4.29 7.453-4.29l.098-.21-.098-.21S12.895 4 7.5 4zm0 1C9.438 5 11 6.563 11 8.5c0 1.938-1.563 3.5-3.5 3.5A3.494 3.494 0 014 8.5C4 6.562 5.563 5 7.5 5zm-3.559.777A4.453 4.453 0 003 8.5c0 1.027.36 1.965.941 2.723-1.918-.953-2.699-2.47-2.824-2.723.125-.254.906-1.77 2.824-2.723zm7.118 0c1.918.953 2.699 2.47 2.824 2.723-.125.254-.906 1.77-2.824 2.723A4.453 4.453 0 0012 8.5c0-1.027-.36-1.965-.941-2.723zM7.5 7a1.5 1.5 0 100 3 1.5 1.5 0 000-3z" fill="#777"/></svg>