<svg xmlns="http://www.w3.org/2000/svg" viewBox="0 0 16 16"><path d="M5 2C2.973 2 1.305 3.527 1.055 5.484 1.02 5.644 1 5.813 1 6c0 2.285 1.746 4.348 3.414 5.879a23.636 23.636 0 003.328 2.547l.258.16.258-.16s1.664-1.012 3.332-2.547C13.254 10.348 15 8.285 15 6c0-.188-.02-.352-.05-.508C14.694 3.527 13.03 2 11 2c-1.242 0-2.27.648-3 1.54C7.27 2.647 6.242 2 5 2zm0 1c1.102 0 2.047.594 2.57 1.477l.43.726.43-.726A2.977 2.977 0 0111 3a2.98 2.98 0 012.96 2.633l.009.039c.02.094.031.2.031.328 0 1.75-1.504 3.688-3.09 5.145-1.453 1.34-2.68 2.085-2.91 2.23-.23-.145-1.457-.89-2.914-2.23C3.504 9.688 2 7.75 2 6c0-.133.012-.238.031-.328l.008-.024v-.023A2.983 2.983 0 015 3z" fill="#1F1F1F"/></svg>