<svg width="35" height="35" xmlns="http://www.w3.org/2000/svg"><path fill="none" d="M-1-1h582v402H-1z"/><g fill="#34bad9"><path d="M5.42 34.44a1.25 1.25 0 01-1.25-1.25V1.81a1.25 1.25 0 012.5 0v31.38a1.25 1.25 0 01-1.25 1.25z"/><path d="M9.34 27.41H1.5a1.25 1.25 0 010-2.5h7.84a1.25 1.25 0 010 2.5zm20.24 7.03a1.25 1.25 0 01-1.25-1.25V1.81a1.25 1.25 0 112.5 0v31.38a1.25 1.25 0 01-1.25 1.25z"/><path d="M33.5 27.361h-7.84a1.25 1.25 0 010-2.5h7.84a1.25 1.25 0 010 2.5zm-16 7.079a1.25 1.25 0 01-1.25-1.25V1.81a1.25 1.25 0 112.5 0v31.38a1.25 1.25 0 01-1.25 1.25z"/><path d="M21.42 10.09h-7.84a1.25 1.25 0 010-2.5h7.84a1.25 1.25 0 010 2.5z"/></g></svg>