<svg xmlns="http://www.w3.org/2000/svg" viewBox="0 0 16 16"><path d="M7.5.133L7.176.41S5.898 1.496 4.617 3.027C3.336 4.56 2 6.527 2 8.5 2 11.531 4.469 14 7.5 14S13 11.531 13 8.5c0-1.973-1.336-3.941-2.617-5.473C9.102 1.497 7.824.41 7.824.41zm0 1.37c.262.231 1.059.9 2.117 2.165C10.836 5.125 12 7.008 12 8.5a4.473 4.473 0 01-2.152 3.824A2.41 2.41 0 0010 11.5c0-.965-.563-1.922-1.086-2.703-.52-.785-1.039-1.375-1.039-1.375l-.375-.43-.375.43s-.523.598-1.043 1.383C5.562 9.594 5 10.547 5 11.5c0 .29.059.566.152.824A4.473 4.473 0 013 8.5c0-1.492 1.164-3.375 2.383-4.832C6.44 2.402 7.238 1.734 7.5 1.504zm0 7.075c.188.227.293.332.586.774.476.718.914 1.636.914 2.148a1.49 1.49 0 01-1.188 1.469c-.105.008-.207.031-.312.031-.105 0-.207-.023-.313-.031A1.49 1.49 0 016 11.5c0-.492.438-1.414.918-2.14.293-.442.398-.551.582-.782z" fill="#03B0C3"/></svg>