<svg xmlns="http://www.w3.org/2000/svg" viewBox="0 0 48 48"><path fill="#ff5100" d="M16.849 13.007c3.17-2.732 4.647-7.924 4.4-9.901 8.298 3.071 5.671 13.379 7.355 13.379 1.103 0 2.035-1.519 1.952-5.966 10.614 9.227 2.95 17.222 5.836 17.222C37.338 27.742 38 26 38 26c0 10.125-6.866 15.989-14.632 16C15.502 42 8 37.413 8 26.193c0 0 1.68 2.965 3.093 2.258 1.894-.946-3.205-7.721 5.756-15.444z"/><path fill="#ff5200" d="M16.846 13.083c3.173-2.754 4.656-7.873 4.429-9.906 8.249 3.097 5.605 13.336 7.318 13.35 1.112.007 2.06-1.51 1.983-5.937 10.535 9.181 2.894 17.179 5.782 17.196.949.007 1.624-1.727 1.624-1.727-.013 10.056-6.854 15.918-14.613 15.929-7.826 0-15.318-4.565-15.341-15.728 0 0 1.69 2.942 3.102 2.228 1.89-.955-3.175-7.727 5.716-15.405z"/><path fill="#ff5300" d="M16.843 13.158c3.183-2.769 4.666-7.822 4.458-9.911 8.199 3.122 5.54 13.296 7.28 13.321 1.121.016 2.086-1.502 2.015-5.907 10.456 9.135 2.837 17.135 5.727 17.171.951.013 1.64-1.712 1.64-1.712-.026 9.987-6.842 15.847-14.594 15.858-7.786 0-15.269-4.543-15.314-15.649 0 0 1.7 2.918 3.11 2.197 1.888-.966-3.124-7.712 5.678-15.368z"/><path fill="#ff5400" d="M16.84 13.233c3.19-2.788 4.675-7.771 4.488-9.917 8.15 3.148 5.474 13.254 7.242 13.292 1.129.024 2.112-1.493 2.046-5.877 10.376 9.089 2.781 17.091 5.673 17.145.954.02 1.655-1.697 1.655-1.697-.04 9.918-6.829 15.776-14.575 15.787-7.746 0-15.22-4.521-15.286-15.57 0 0 1.71 2.895 3.119 2.166 1.884-.974-3.084-7.707 5.638-15.329z"/><path fill="#f50" d="M16.837 13.309c3.197-2.807 4.685-7.72 4.517-9.922 8.1 3.174 5.409 13.213 7.205 13.263 1.138.032 2.137-1.485 2.077-5.847 10.297 9.043 2.724 17.048 5.618 17.119.956.027 1.671-1.682 1.671-1.682-.053 9.849-6.817 15.706-14.556 15.716-7.706 0-15.171-4.499-15.259-15.492 0 0 1.72 2.872 3.127 2.135 1.881-.983-3.043-7.703 5.6-15.29z"/><path fill="#ff5600" d="M16.834 13.384c3.204-2.826 4.694-7.669 4.546-9.928 8.051 3.2 5.343 13.171 7.167 13.233 1.147.039 2.163-1.476 2.108-5.817 10.218 8.997 2.668 16.998 5.564 17.093.959.032 1.687-1.667 1.687-1.667-.066 9.781-6.805 15.635-14.537 15.645-7.666 0-15.121-4.476-15.232-15.413 0 0 1.73 2.848 3.136 2.105 1.878-.991-3.004-7.698 5.561-15.251z"/><path fill="#ff5700" d="M16.831 13.459c3.211-2.844 4.704-7.618 4.576-9.933 8.001 3.225 5.278 13.129 7.13 13.204 1.156.047 2.189-1.468 2.14-5.788 10.138 8.952 2.612 16.953 5.509 17.067.961.038 1.702-1.652 1.702-1.652-.079 9.712-6.793 15.564-14.518 15.574-7.626 0-15.072-4.454-15.205-15.334 0 0 1.74 2.825 3.144 2.074 1.875-.999-2.964-7.693 5.522-15.212z"/><path fill="#ff5800" d="M16.828 13.534c3.217-2.863 4.713-7.567 4.605-9.939 7.952 3.251 5.212 13.087 7.092 13.175 1.165.055 2.215-1.459 2.171-5.758 10.059 8.906 2.556 16.908 5.455 17.041.964.044 1.718-1.637 1.718-1.637-.092 9.643-6.78 15.493-14.498 15.503-7.586 0-15.023-4.432-15.178-15.256 0 0 1.75 2.802 3.153 2.043 1.871-1.007-2.926-7.688 5.482-15.172z"/><path fill="#ff5900" d="M16.825 13.61c3.224-2.883 4.723-7.516 4.635-9.944 7.902 3.277 5.146 13.045 7.055 13.146 1.174.062 2.24-1.451 2.202-5.728 9.98 8.86 2.499 16.863 5.401 17.015.966.051 1.734-1.622 1.734-1.622-.106 9.574-6.768 15.422-14.479 15.432-7.546 0-14.974-4.41-15.151-15.177 0 0 1.76 2.778 3.161 2.012 1.866-1.017-2.888-7.687 5.442-15.134z"/><path fill="#ff5a00" d="M16.822 13.685c3.231-2.902 4.733-7.465 4.664-9.95 7.853 3.303 5.081 13.002 7.017 13.117 1.182.07 2.266-1.443 2.233-5.698 9.9 8.814 2.443 16.819 5.346 16.989.969.057 1.749-1.608 1.749-1.608-.119 9.505-6.756 15.351-14.46 15.361-7.506 0-14.924-4.388-15.124-15.098 0 0 1.771 2.755 3.17 1.982 1.865-1.025-2.847-7.683 5.405-15.095z"/><path fill="#ff5b00" d="M16.819 13.76c3.237-2.921 4.742-7.414 4.693-9.955 7.803 3.329 5.015 12.96 6.979 13.087 1.191.077 2.292-1.434 2.265-5.668 9.821 8.768 2.387 16.774 5.292 16.963.971.063 1.765-1.593 1.765-1.593-.132 9.437-6.743 15.28-14.441 15.29-7.466 0-14.875-4.365-15.097-15.02 0 0 1.781 2.731 3.178 1.951 1.862-1.032-2.809-7.679 5.366-15.055z"/><path fill="#ff5c00" d="M16.816 13.836c3.244-2.94 4.752-7.363 4.723-9.961 7.754 3.354 4.949 12.918 6.942 13.058 1.2.085 2.318-1.426 2.296-5.639 9.742 8.722 2.331 16.729 5.237 16.938.974.07 1.781-1.578 1.781-1.578-.145 9.368-6.731 15.209-14.422 15.219-7.426 0-14.826-4.343-15.07-14.941 0 0 1.791 2.708 3.187 1.92 1.858-1.041-2.771-7.677 5.326-15.016z"/><path fill="#ff5d00" d="M16.814 13.911c3.251-2.959 4.761-7.312 4.752-9.966 7.704 3.38 4.884 12.875 6.904 13.029 1.209.092 2.343-1.417 2.327-5.609 9.662 8.677 2.274 16.685 5.183 16.912.977.076 1.796-1.563 1.796-1.563-.158 9.299-6.719 15.138-14.403 15.148-7.386 0-14.777-4.321-15.042-14.862 0 0 1.801 2.685 3.195 1.889 1.855-1.051-2.733-7.676 5.288-14.978z"/><path fill="#ff5e00" d="M16.811 13.986c3.257-2.979 4.771-7.261 4.781-9.971 7.655 3.406 4.818 12.833 6.867 13 1.218.099 2.369-1.409 2.358-5.579 9.583 8.631 2.218 16.64 5.129 16.886.979.083 1.812-1.548 1.812-1.548-.172 9.23-6.707 15.068-14.384 15.077-7.347 0-14.727-4.299-15.015-14.783 0 0 1.811 2.661 3.204 1.859 1.85-1.061-2.696-7.676 5.248-14.941z"/><path fill="#ff5f00" d="M16.808 14.062c3.264-2.998 4.78-7.21 4.811-9.977 7.605 3.432 4.752 12.79 6.829 12.971 1.226.107 2.395-1.4 2.39-5.549 9.504 8.585 2.162 16.596 5.074 16.86.982.089 1.827-1.533 1.827-1.533-.185 9.161-6.694 14.997-14.365 15.006-7.307 0-14.678-4.276-14.988-14.705 0 0 1.821 2.638 3.212 1.828 1.848-1.069-2.658-7.674 5.21-14.901z"/><path fill="#ff6000" d="M16.805 14.137c3.271-3.018 4.79-7.159 4.84-9.982 7.556 3.458 4.687 12.748 6.791 12.942 1.235.114 2.421-1.392 2.421-5.519 9.424 8.539 2.106 16.551 5.02 16.834.984.095 1.843-1.518 1.843-1.518-.198 9.092-6.682 14.926-14.346 14.935-7.267 0-14.629-4.254-14.961-14.626 0 0 1.831 2.615 3.221 1.797 1.845-1.078-2.621-7.674 5.171-14.863z"/><path fill="#ff6100" d="M16.802 14.212c3.277-3.037 4.799-7.108 4.869-9.988 7.506 3.483 4.621 12.705 6.754 12.912 1.244.121 2.446-1.383 2.452-5.49 9.345 8.493 2.049 16.507 4.965 16.808.987.102 1.859-1.503 1.859-1.503-.211 9.024-6.67 14.855-14.326 14.864-7.227 0-14.58-4.232-14.934-14.547 0 0 1.841 2.591 3.229 1.766 1.842-1.084-2.584-7.671 5.132-14.822z"/><path fill="#ff6200" d="M16.799 14.288c3.284-3.057 4.809-7.057 4.899-9.993 7.457 3.509 4.555 12.662 6.716 12.883 1.253.128 2.472-1.375 2.483-5.46 9.266 8.447 1.993 16.463 4.911 16.782.989.108 1.874-1.488 1.874-1.488-.224 8.955-6.657 14.784-14.307 14.793-7.187 0-14.53-4.21-14.907-14.469 0 0 1.851 2.568 3.238 1.736 1.838-1.095-2.547-7.672 5.093-14.784z"/><path fill="#ff6300" d="M16.796 14.363c3.29-3.077 4.818-7.006 4.928-9.999 7.407 3.535 4.49 12.619 6.679 12.854 1.261.135 2.498-1.366 2.514-5.43 9.186 8.402 1.937 16.418 4.857 16.756.992.115 1.89-1.473 1.89-1.473-.238 8.886-6.645 14.713-14.288 14.722-7.147 0-14.481-4.188-14.88-14.39 0 0 1.861 2.545 3.246 1.705 1.835-1.103-2.51-7.671 5.054-14.745z"/><path fill="#ff6400" d="M16.793 14.438c3.296-3.096 4.828-6.955 4.958-10.004 7.358 3.561 4.424 12.577 6.641 12.825 1.27.142 2.523-1.358 2.546-5.4 9.107 8.356 1.881 16.374 4.802 16.73.995.121 1.906-1.458 1.906-1.458-.251 8.817-6.633 14.642-14.269 14.651-7.107 0-14.432-4.165-14.853-14.311 0 0 1.871 2.521 3.255 1.674 1.831-1.112-2.475-7.672 5.014-14.707z"/><path fill="#ff6500" d="M16.79 14.513c3.303-3.116 4.838-6.904 4.987-10.01 7.308 3.587 4.358 12.534 6.603 12.796 1.279.149 2.549-1.35 2.577-5.37 9.028 8.31 1.825 16.33 4.748 16.705.997.128 1.921-1.443 1.921-1.443-.264 8.748-6.621 14.571-14.25 14.58-7.067 0-14.382-4.143-14.826-14.233 0 0 1.88 2.495 3.263 1.644 1.827-1.125-2.437-7.673 4.977-14.669z"/><path fill="#f60" d="M16.787 14.589c3.309-3.136 4.847-6.853 5.016-10.015 7.258 3.612 4.292 12.491 6.566 12.766 1.288.156 2.575-1.341 2.608-5.341 8.948 8.264 1.768 16.285 4.693 16.679 1 .134 1.937-1.428 1.937-1.428-.277 8.68-6.608 14.5-14.231 14.509-7.027 0-14.333-4.121-14.799-14.154 0 0 1.89 2.472 3.272 1.613 1.824-1.133-2.401-7.674 4.938-14.629z"/><path fill="#ff6700" d="M16.784 14.664c3.315-3.156 4.857-6.802 5.046-10.021 7.209 3.638 4.227 12.448 6.528 12.737 1.297.163 2.601-1.333 2.639-5.311 8.869 8.218 1.712 16.241 4.639 16.653 1.002.141 1.953-1.413 1.953-1.413-.29 8.611-6.596 14.43-14.212 14.438-6.987 0-14.284-4.099-14.771-14.075 0 0 1.9 2.448 3.28 1.582 1.82-1.141-2.366-7.674 4.898-14.59z"/><path fill="#ff6800" d="M16.782 14.739c3.322-3.176 4.866-6.751 5.075-10.026 7.159 3.664 4.161 12.404 6.491 12.708 1.305.17 2.626-1.324 2.671-5.281 8.79 8.172 1.656 16.197 4.584 16.627 1.005.147 1.968-1.398 1.968-1.398-.304 8.542-6.584 14.359-14.193 14.367-6.947 0-14.235-4.077-14.744-13.996 0 0 1.91 2.425 3.289 1.551 1.815-1.151-2.332-7.676 4.859-14.552z"/><path fill="#ff6900" d="M16.779 14.815c3.328-3.196 4.876-6.7 5.104-10.031 7.11 3.69 4.095 12.361 6.453 12.679 1.314.177 2.652-1.316 2.702-5.251 8.71 8.127 1.6 16.153 4.53 16.601 1.007.154 1.984-1.383 1.984-1.383-.317 8.473-6.571 14.288-14.174 14.296-6.907 0-14.185-4.054-14.717-13.918 0 0 1.92 2.401 3.297 1.521 1.813-1.161-2.296-7.68 4.821-14.514z"/><path fill="#ff6a00" d="M16.776 14.89c3.334-3.217 4.885-6.649 5.134-10.037 7.06 3.716 4.03 12.318 6.416 12.65 1.323.184 2.678-1.307 2.733-5.221 8.631 8.081 1.544 16.109 4.476 16.575 1.01.161 1.999-1.368 1.999-1.368-.33 8.404-6.559 14.217-14.154 14.225-6.867 0-14.136-4.032-14.69-13.839 0 0 1.93 2.378 3.306 1.49 1.808-1.169-2.263-7.681 4.78-14.475z"/><path fill="#ff6b00" d="M16.773 14.965c3.34-3.237 4.895-6.598 5.163-10.042 7.011 3.741 3.964 12.275 6.378 12.621 1.332.191 2.704-1.299 2.764-5.191 8.552 8.035 1.487 16.065 4.421 16.549 1.013.167 2.015-1.353 2.015-1.353-.343 8.336-6.547 14.146-14.135 14.154-6.827 0-14.087-4.01-14.663-13.76 0 0 1.94 2.355 3.314 1.459 1.806-1.179-2.226-7.684 4.743-14.437z"/><path fill="#ff6c00" d="M16.77 15.041c3.346-3.257 4.904-6.547 5.192-10.048 6.961 3.767 3.898 12.232 6.34 12.591 1.341.197 2.729-1.29 2.796-5.162 8.472 7.989 1.431 16.021 4.367 16.523 1.015.174 2.031-1.339 2.031-1.339-.356 8.268-6.535 14.076-14.116 14.084-6.787 0-14.038-3.988-14.636-13.682 0 0 1.95 2.331 3.323 1.428 1.802-1.185-2.192-7.684 4.703-14.395z"/><path fill="#ff6d00" d="M16.767 15.116c3.352-3.278 4.914-6.496 5.222-10.053 6.912 3.793 3.833 12.188 6.303 12.562 1.349.204 2.755-1.282 2.827-5.132 8.393 7.943 1.375 15.977 4.312 16.497 1.018.18 2.046-1.324 2.046-1.324-.37 8.198-6.522 14.004-14.097 14.011-6.748 0-13.988-3.966-14.609-13.603 0 0 1.96 2.308 3.331 1.398 1.8-1.193-2.157-7.686 4.665-14.356z"/><path fill="#ff6e00" d="M16.764 15.191c3.358-3.298 4.923-6.446 5.251-10.059 6.862 3.819 3.767 12.145 6.265 12.533 1.358.211 2.781-1.273 2.858-5.102 8.314 7.897 1.319 15.933 4.258 16.472 1.02.187 2.062-1.309 2.062-1.309-.383 8.129-6.51 13.933-14.078 13.94-6.708 0-13.939-3.943-14.582-13.524 0 0 1.97 2.284 3.34 1.367 1.796-1.202-2.123-7.69 4.626-14.318z"/><path fill="#ff6f00" d="M16.761 15.267c3.364-3.319 4.933-6.395 5.281-10.064 6.813 3.845 3.702 12.101 6.228 12.504 1.367.218 2.807-1.265 2.889-5.072 8.234 7.851 1.263 15.889 4.204 16.446 1.023.194 2.078-1.294 2.078-1.294-.396 8.06-6.498 13.862-14.059 13.869-6.668 0-13.89-3.921-14.555-13.445 0 0 1.98 2.261 3.348 1.336 1.792-1.213-2.09-7.694 4.586-14.28z"/><path fill="#ff7000" d="M16.758 15.342c3.37-3.339 4.943-6.344 5.31-10.07 6.763 3.87 3.636 12.058 6.19 12.475 1.376.224 2.832-1.256 2.921-5.042 8.155 7.806 1.207 15.845 4.149 16.42 1.025.2 2.093-1.279 2.093-1.279-.409 7.991-6.485 13.791-14.04 13.798-6.628 0-13.841-3.899-14.527-13.367 0 0 1.99 2.238 3.357 1.305 1.789-1.22-2.057-7.697 4.547-14.24z"/><path fill="#ff7100" d="M16.755 15.417c3.376-3.36 4.952-6.293 5.339-10.075 6.714 3.896 3.57 12.014 6.152 12.445 1.385.231 2.858-1.248 2.952-5.013 8.075 7.76 1.15 15.801 4.095 16.394 1.028.207 2.109-1.264 2.109-1.264-.422 7.923-6.473 13.721-14.021 13.727-6.588 0-13.791-3.877-14.5-13.288 0 0 2 2.214 3.365 1.275 1.787-1.228-2.022-7.7 4.509-14.201z"/><path fill="#ff7200" d="M16.752 15.492c3.382-3.381 4.962-6.242 5.369-10.081 6.664 3.922 3.505 11.971 6.115 12.416 1.394.238 2.884-1.24 2.983-4.983 7.996 7.714 1.094 15.758 4.04 16.368 1.031.214 2.125-1.249 2.125-1.249-.436 7.854-6.461 13.65-14.002 13.656-6.548 0-13.742-3.854-14.473-13.209 0 0 2.01 2.191 3.374 1.244 1.782-1.236-1.99-7.703 4.469-14.162z"/><path fill="#ff7300" d="M16.749 15.568c3.387-3.402 4.971-6.191 5.398-10.086 6.615 3.948 3.439 11.927 6.077 12.387 1.402.244 2.91-1.231 3.014-4.953 7.917 7.668 1.038 15.714 3.986 16.342 1.033.22 2.14-1.234 2.14-1.234-.449 7.785-6.448 13.579-13.983 13.585-6.508 0-13.693-3.832-14.446-13.131 0 0 2.02 2.167 3.382 1.213 1.781-1.245-1.955-7.708 4.432-14.123z"/><path fill="#ff7400" d="M16.747 15.643c3.393-3.423 4.981-6.14 5.427-10.091 6.565 3.973 3.374 11.884 6.04 12.358 1.411.251 2.935-1.223 3.046-4.923 7.837 7.622.982 15.67 3.932 16.316 1.036.227 2.156-1.219 2.156-1.219-.463 7.716-6.438 13.507-13.965 13.514-6.468 0-13.644-3.81-14.419-13.052 0 0 2.03 2.144 3.391 1.182 1.776-1.255-1.924-7.713 4.392-14.085z"/><path fill="#ff7500" d="M16.744 15.718c3.398-3.444 4.99-6.089 5.457-10.097 6.516 3.999 3.308 11.84 6.002 12.329 1.42.258 2.961-1.214 3.077-4.893 7.758 7.576.925 15.626 3.877 16.29 1.038.234 2.171-1.204 2.171-1.204-.475 7.647-6.424 13.437-13.944 13.443-6.428 0-13.594-3.788-14.392-12.973 0 0 2.04 2.121 3.399 1.152 1.772-1.264-1.892-7.718 4.353-14.047z"/><path fill="#ff7600" d="M16.741 15.794c3.404-3.465 5-6.038 5.486-10.102 6.466 4.025 3.242 11.796 5.965 12.299 1.429.264 2.987-1.206 3.108-4.864 7.679 7.531.869 15.583 3.823 16.264 1.041.24 2.187-1.189 2.187-1.189-.488 7.579-6.412 13.366-13.925 13.372-6.388 0-13.545-3.766-14.365-12.895 0 0 2.05 2.097 3.408 1.121 1.768-1.271-1.86-7.722 4.313-14.006z"/><path fill="#f70" d="M16.738 15.869c3.409-3.486 5.009-5.987 5.516-10.108 6.417 4.051 3.177 11.753 5.927 12.27 1.438.271 3.012-1.197 3.139-4.834 7.599 7.485.813 15.539 3.768 16.239 1.043.247 2.203-1.174 2.203-1.174-.502 7.51-6.399 13.295-13.906 13.301-6.348 0-13.496-3.743-14.338-12.816 0 0 2.06 2.074 3.416 1.09 1.766-1.28-1.827-7.728 4.275-13.968z"/><path fill="#ff7800" d="M16.735 15.944c3.414-3.508 5.019-5.936 5.545-10.113 6.367 4.077 3.111 11.709 5.889 12.241 1.447.277 3.038-1.189 3.171-4.804 7.52 7.439.757 15.495 3.714 16.213 1.046.254 2.218-1.159 2.218-1.159-.515 7.441-6.387 13.224-13.887 13.23-6.308 0-13.447-3.721-14.311-12.737 0 0 2.07 2.051 3.425 1.059 1.763-1.289-1.795-7.733 4.236-13.93z"/><path fill="#ff7900" d="M16.732 16.02c3.419-3.529 5.028-5.885 5.574-10.119 6.318 4.102 3.046 11.665 5.852 12.212 1.456.284 3.064-1.18 3.202-4.774 7.441 7.393.7 15.452 3.659 16.187 1.048.26 2.234-1.144 2.234-1.144-.528 7.372-6.375 13.153-13.868 13.159-6.268 0-13.397-3.699-14.284-12.658 0 0 2.08 2.027 3.433 1.029 1.76-1.3-1.762-7.741 4.198-13.892z"/><path fill="#ff7a00" d="M16.729 16.095c3.424-3.551 5.038-5.834 5.604-10.124 6.268 4.128 2.98 11.621 5.814 12.183 1.464.29 3.09-1.172 3.233-4.744 7.361 7.347.644 15.408 3.605 16.161 1.051.267 2.25-1.129 2.25-1.129-.541 7.303-6.362 13.083-13.849 13.088-6.228 0-13.348-3.677-14.256-12.58 0 0 2.09 2.004 3.442.998 1.755-1.308-1.733-7.746 4.157-13.853z"/><path fill="#ff7b00" d="M16.726 16.17c3.429-3.572 5.048-5.783 5.633-10.13 6.219 4.154 2.915 11.577 5.777 12.154 1.473.297 3.115-1.163 3.264-4.715 7.282 7.301.588 15.365 3.551 16.135 1.054.274 2.265-1.114 2.265-1.114-.554 7.235-6.35 13.012-13.83 13.017-6.188 0-13.299-3.655-14.229-12.501 0 0 2.1 1.98 3.45.967 1.753-1.315-1.701-7.75 4.119-13.813z"/><path fill="#ff7b00" d="M16.723 16.246c3.434-3.594 5.057-5.732 5.662-10.135 6.169 4.18 2.849 11.533 5.739 12.124 1.482.303 3.141-1.155 3.295-4.685 7.203 7.256.532 15.321 3.496 16.109 1.056.281 2.281-1.099 2.281-1.099-.566 7.165-6.337 12.94-13.809 12.946-6.149 0-13.249-3.632-14.202-12.422 0 0 2.11 1.957 3.459.936 1.748-1.324-1.67-7.757 4.079-13.774z"/><path fill="#ff7c00" d="M16.72 16.321c3.439-3.616 5.067-5.681 5.692-10.141 6.119 4.206 2.784 11.489 5.701 12.095 1.491.31 3.167-1.147 3.327-4.655 7.123 7.21.475 15.278 3.442 16.083 1.059.287 2.297-1.084 2.297-1.084-.581 7.097-6.326 12.87-13.791 12.875-6.109 0-13.2-3.61-14.175-12.344 0 0 2.12 1.934 3.467.906 1.745-1.332-1.639-7.763 4.04-13.735z"/><path fill="#ff7d00" d="M16.717 16.396c3.444-3.638 5.076-5.63 5.721-10.146 6.07 4.231 2.718 11.445 5.664 12.066 1.5.316 3.193-1.138 3.358-4.625 7.044 7.164.419 15.234 3.387 16.057 1.061.294 2.312-1.07 2.312-1.07-.594 7.028-6.313 12.799-13.772 12.804-6.069 0-13.151-3.588-14.148-12.265 0 0 2.13 1.91 3.476.875 1.743-1.341-1.608-7.769 4.002-13.696z"/><path fill="#ff7e00" d="M16.715 16.471c3.448-3.66 5.086-5.579 5.75-10.152 6.02 4.257 2.653 11.401 5.626 12.037 1.509.323 3.218-1.13 3.389-4.595 6.965 7.118.363 15.191 3.333 16.031 1.064.301 2.328-1.055 2.328-1.055-.607 6.959-6.301 12.728-13.753 12.733-6.029 0-13.102-3.566-14.121-12.186 0 0 2.14 1.887 3.484.844 1.74-1.349-1.577-7.776 3.964-13.657z"/><path fill="#ff7f00" d="M16.712 16.547c3.453-3.682 5.095-5.528 5.78-10.157 5.971 4.283 2.587 11.357 5.589 12.008 1.518.329 3.244-1.121 3.42-4.566 6.885 7.072.306 15.147 3.279 16.006 1.066.308 2.343-1.04 2.343-1.04-.62 6.89-6.289 12.657-13.734 12.662-5.989 0-13.052-3.543-14.094-12.108 0 0 2.15 1.864 3.493.813 1.736-1.358-1.548-7.783 3.924-13.618z"/><path fill="#ff8000" d="M16.709 16.622c3.457-3.704 5.105-5.477 5.809-10.162 5.921 4.309 2.522 11.313 5.551 11.978 1.527.335 3.27-1.113 3.452-4.536 6.806 7.026.25 15.104 3.224 15.98 1.069.315 2.359-1.025 2.359-1.025-.634 6.822-6.276 12.586-13.715 12.591-5.949 0-13.003-3.521-14.067-12.029 0 0 2.161 1.84 3.501.783 1.733-1.367-1.517-7.791 3.886-13.58z"/><path fill="#ff8100" d="M16.706 16.697c3.461-3.727 5.114-5.426 5.839-10.168 5.872 4.335 2.456 11.269 5.513 11.949 1.536.342 3.296-1.104 3.483-4.506 6.727 6.981.194 15.061 3.17 15.954 1.071.321 2.375-1.01 2.375-1.01-.647 6.753-6.264 12.515-13.696 12.52-5.909 0-12.954-3.499-14.04-11.95 0 0 2.171 1.817 3.51.752 1.729-1.375-1.488-7.798 3.846-13.541z"/><path fill="#ff8200" d="M16.703 16.773c3.465-3.749 5.124-5.375 5.868-10.173 5.822 4.36 2.391 11.225 5.476 11.92 1.544.348 3.321-1.096 3.514-4.476 6.647 6.935.137 15.017 3.115 15.928 1.074.328 2.39-.995 2.39-.995-.66 6.684-6.252 12.445-13.677 12.449-5.869 0-12.905-3.477-14.012-11.871 0 0 2.181 1.794 3.518.721 1.727-1.385-1.457-7.807 3.808-13.503z"/><path fill="#ff8300" d="M16.7 16.848c3.469-3.772 5.133-5.324 5.897-10.179 5.773 4.386 2.325 11.181 5.438 11.891 1.553.354 3.347-1.087 3.545-4.446 6.568 6.889.081 14.974 3.061 15.902 1.076.335 2.406-.98 2.406-.98-.673 6.615-6.24 12.374-13.658 12.378-5.829 0-12.855-3.455-13.985-11.793 0 0 2.191 1.771 3.527.69 1.724-1.392-1.427-7.813 3.769-13.463z"/><path fill="#ff8400" d="M16.697 16.923c3.473-3.795 5.143-5.273 5.927-10.184 5.723 4.412 2.26 11.136 5.401 11.862 1.562.361 3.373-1.079 3.577-4.417 6.489 6.843.025 14.931 3.007 15.876 1.079.342 2.422-.965 2.422-.965-.686 6.546-6.227 12.303-13.639 12.307-5.789 0-12.806-3.432-13.958-11.714 0 0 2.201 1.747 3.535.66 1.718-1.402-1.4-7.822 3.728-13.425z"/><path fill="#ff8500" d="M16.694 16.999c3.477-3.818 5.153-5.222 5.956-10.19 5.674 4.438 2.195 11.092 5.363 11.832 1.571.367 3.398-1.07 3.608-4.387 6.409 6.797-.032 14.888 2.952 15.85 1.081.349 2.437-.95 2.437-.95-.7 6.478-6.215 12.232-13.619 12.236-5.749 0-12.757-3.41-13.931-11.635 0 0 2.211 1.724 3.544.629 1.716-1.41-1.37-7.829 3.69-13.385z"/><path fill="#ff8600" d="M16.691 17.074c3.48-3.841 5.162-5.171 5.985-10.195 5.624 4.464 2.129 11.048 5.326 11.803 1.58.373 3.424-1.062 3.639-4.357 6.33 6.751-.088 14.844 2.898 15.824 1.084.356 2.453-.935 2.453-.935-.713 6.409-6.203 12.161-13.6 12.165-5.709 0-12.708-3.388-13.904-11.557 0 0 2.221 1.701 3.552.598 1.713-1.418-1.341-7.837 3.651-13.346z"/><path fill="#ff8700" d="M16.688 17.149c3.484-3.864 5.172-5.12 6.015-10.201 5.575 4.489 2.064 11.003 5.288 11.774 1.589.38 3.45-1.053 3.67-4.327 6.251 6.705-.144 14.801 2.843 15.799 1.086.363 2.469-.92 2.469-.92-.726 6.34-6.19 12.09-13.581 12.094-5.669 0-12.658-3.366-13.877-11.478 0 0 2.231 1.677 3.561.567 1.71-1.427-1.312-7.846 3.612-13.308z"/><path fill="#f80" d="M16.685 17.225c3.487-3.887 5.181-5.069 6.044-10.206 5.525 4.515 1.998 10.959 5.25 11.745 1.598.386 3.476-1.045 3.702-4.297 6.171 6.66-.201 14.758 2.789 15.773 1.089.369 2.484-.905 2.484-.905-.739 6.271-6.178 12.019-13.562 12.023-5.629 0-12.609-3.344-13.85-11.399 0 0 2.241 1.654 3.569.537 1.708-1.438-1.283-7.857 3.574-13.271z"/><path fill="#ff8900" d="M16.682 17.3c3.49-3.911 5.191-5.018 6.074-10.212 5.476 4.541 1.933 10.915 5.213 11.716 1.607.392 3.501-1.037 3.733-4.268 6.092 6.614-.257 14.715 2.734 15.747 1.091.376 2.5-.89 2.5-.89-.752 6.202-6.166 11.948-13.543 11.952-5.59 0-12.56-3.321-13.823-11.32 0 0 2.251 1.631 3.578.506 1.703-1.445-1.255-7.864 3.534-13.231z"/><path fill="#ff8a00" d="M16.68 17.375c3.493-3.934 5.2-4.967 6.103-10.217 5.426 4.567 1.868 10.87 5.175 11.687 1.616.399 3.527-1.028 3.764-4.238 6.013 6.568-.314 14.672 2.68 15.721 1.094.383 2.515-.875 2.515-.875-.766 6.134-6.154 11.877-13.524 11.881-5.55 0-12.511-3.299-13.796-11.242 0 0 2.261 1.607 3.586.475 1.701-1.453-1.226-7.873 3.497-13.192z"/><path fill="#ff8b00" d="M16.677 17.45c3.496-3.958 5.21-4.916 6.132-10.222 5.377 4.592 1.802 10.826 5.138 11.657 1.625.405 3.553-1.02 3.795-4.208 5.933 6.522-.37 14.629 2.626 15.695 1.096.39 2.531-.86 2.531-.86-.779 6.065-6.141 11.807-13.505 11.81-5.51 0-12.461-3.277-13.768-11.163 0 0 2.272 1.584 3.595.444 1.696-1.461-1.2-7.881 3.456-13.153z"/><path fill="#ff8c00" d="M16.674 17.526c3.498-3.982 5.219-4.865 6.162-10.228 5.327 4.618 1.737 10.782 5.1 11.628 1.634.411 3.579-1.011 3.827-4.178 5.854 6.476-.427 14.586 2.571 15.669 1.099.397 2.547-.845 2.547-.845-.792 5.996-6.129 11.736-13.486 11.739-5.47 0-12.412-3.255-13.741-11.084 0 0 2.282 1.561 3.603.414 1.693-1.471-1.172-7.892 3.417-13.115z"/><path fill="#ff8d00" d="M16.671 17.601c3.5-4.006 5.229-4.814 6.191-10.233 5.278 4.644 1.672 10.737 5.062 11.599 1.643.418 3.604-1.003 3.858-4.148 5.775 6.43-.483 14.542 2.517 15.643 1.101.404 2.562-.83 2.562-.83-.805 5.927-6.117 11.665-13.467 11.668-5.43 0-12.363-3.233-13.714-11.006 0 0 2.292 1.538 3.612.383 1.691-1.48-1.143-7.901 3.379-13.076z"/><path fill="#ff8e00" d="M16.668 17.676c3.503-4.03 5.239-4.763 6.22-10.239 5.228 4.67 1.606 10.693 5.025 11.57 1.652.424 3.63-.994 3.889-4.118 5.695 6.385-.54 14.499 2.462 15.617 1.104.411 2.578-.815 2.578-.815-.818 5.858-6.104 11.594-13.447 11.597-5.39 0-12.313-3.21-13.687-10.927 0 0 2.302 1.514 3.62.352 1.687-1.488-1.116-7.91 3.34-13.037z"/><path fill="#ff8f00" d="M16.665 17.752c3.504-4.054 5.248-4.712 6.25-10.244 5.179 4.696 1.541 10.648 4.987 11.541 1.661.43 3.656-.986 3.92-4.089 5.616 6.339-.596 14.456 2.408 15.591 1.106.418 2.594-.801 2.594-.801-.832 5.789-6.092 11.523-13.428 11.526-5.35 0-12.264-3.188-13.66-10.848 0 0 2.314 1.494 3.629.322 1.686-1.493-1.09-7.92 3.3-12.998z"/><path fill="#ff9000" d="M16.662 17.827c3.506-4.079 5.258-4.661 6.279-10.25 5.129 4.721 1.476 10.604 4.95 11.511 1.67.436 3.682-.977 3.951-4.059 5.537 6.293-.653 14.413 2.354 15.566 1.109.425 2.609-.786 2.609-.786-.845 5.721-6.08 11.452-13.409 11.455-5.31 0-12.215-3.166-13.633-10.77 0 0 2.324 1.47 3.637.291 1.684-1.501-1.062-7.928 3.262-12.958z"/><path fill="#ff9100" d="M16.659 17.902c3.508-4.104 5.267-4.61 6.308-10.255 5.08 4.747 1.411 10.559 4.912 11.482 1.679.443 3.707-.969 3.983-4.029 5.457 6.247-.709 14.37 2.299 15.54 1.111.432 2.625-.771 2.625-.771-.858 5.652-6.067 11.381-13.39 11.384-5.27 0-12.166-3.144-13.606-10.691 0 0 2.334 1.447 3.646.26 1.681-1.51-1.035-7.938 3.223-12.92z"/><path fill="#ff9200" d="M16.656 17.978c3.509-4.128 5.277-4.559 6.338-10.261 5.03 4.773 1.345 10.515 4.875 11.453 1.688.449 3.733-.96 4.014-3.999 5.378 6.201-.766 14.327 2.245 15.514 1.113.439 2.641-.756 2.641-.756-.871 5.583-6.055 11.31-13.371 11.313-5.23 0-12.116-3.121-13.579-10.612 0 0 2.345 1.423 3.654.229 1.676-1.519-1.009-7.949 3.183-12.881z"/><path fill="#ff9300" d="M16.653 18.053c3.51-4.153 5.286-4.508 6.367-10.266 4.98 4.799 1.28 10.47 4.837 11.424 1.697.455 3.759-.952 4.045-3.969 5.299 6.155-.822 14.284 2.19 15.488 1.116.446 2.656-.741 2.656-.741-.884 5.514-6.043 11.239-13.352 11.242-5.19 0-12.067-3.099-13.552-10.533 0 0 2.355 1.4 3.663.199 1.675-1.529-.98-7.961 3.146-12.844z"/><path fill="#ff9400" d="M16.65 18.128c3.511-4.179 5.296-4.458 6.397-10.272 4.931 4.825 1.215 10.426 4.799 11.395 1.706.461 3.785-.944 4.076-3.94 5.219 6.11-.879 14.241 2.136 15.462 1.118.453 2.672-.726 2.672-.726-.898 5.445-6.031 11.168-13.333 11.171-5.15 0-12.018-3.077-13.525-10.455 0 0 2.365 1.377 3.671.168 1.672-1.535-.954-7.968 3.107-12.803z"/><path fill="#ff9500" d="M16.648 18.204c3.511-4.204 5.305-4.407 6.426-10.277 4.881 4.85 1.149 10.381 4.762 11.365 1.715.467 3.81-.935 4.108-3.91 5.14 6.064-.936 14.199 2.082 15.436 1.121.46 2.687-.711 2.687-.711-.911 5.377-6.018 11.098-13.314 11.1-5.11 0-11.969-3.055-13.497-10.376 0 0 2.375 1.353 3.68.137 1.666-1.545-.931-7.979 3.066-12.764z"/><path fill="#ff9600" d="M16.645 18.279c3.511-4.23 5.315-4.356 6.455-10.282 4.832 4.876 1.084 10.336 4.724 11.336 1.724.474 3.836-.927 4.139-3.88 5.06 6.018-.992 14.156 2.027 15.41 1.123.467 2.703-.696 2.703-.696-.924 5.308-6.006 11.027-13.295 11.029-5.07 0-11.919-3.033-13.47-10.297 0 0 2.385 1.33 3.688.106 1.664-1.554-.903-7.99 3.029-12.726z"/><path fill="#ff9700" d="M16.642 18.354c3.511-4.256 5.324-4.305 6.485-10.288 4.782 4.902 1.019 10.292 4.687 11.307 1.733.48 3.862-.918 4.17-3.85 4.981 5.972-1.049 14.113 1.973 15.384 1.126.474 2.719-.681 2.719-.681-.937 5.239-5.994 10.956-13.275 10.958-5.03 0-11.87-3.01-13.443-10.219 0 0 2.395 1.307 3.697.076 1.658-1.562-.88-8 2.987-12.687z"/><path fill="#ff9800" d="M16.639 18.429c3.511-4.282 5.334-4.254 6.514-10.293 4.733 4.928.954 10.247 4.649 11.278 1.742.486 3.887-.91 4.201-3.82 4.902 5.926-1.105 14.07 1.918 15.358 1.128.481 2.734-.666 2.734-.666-.95 5.17-5.981 10.885-13.256 10.887-4.991 0-11.821-2.988-13.416-10.14 0 0 2.405 1.283 3.705.045 1.658-1.571-.851-8.011 2.951-12.649z"/><path fill="#f90" d="M16.636 18.505c3.51-4.308 5.344-4.203 6.543-10.299 4.683 4.954.889 10.202 4.611 11.249 1.751.492 3.913-.901 4.233-3.791 4.822 5.88-1.162 14.027 1.864 15.333 1.13.488 2.75-.651 2.75-.651-.963 5.101-5.969 10.814-13.237 10.815-4.951 0-11.772-2.966-13.389-10.061 0 0 2.415 1.26 3.714.014 1.654-1.579-.827-8.022 2.911-12.609z"/><path fill="#ff9a00" d="M16.633 18.58c3.509-4.334 5.353-4.152 6.573-10.304 4.634 4.979.823 10.158 4.574 11.22 1.76.498 3.939-.893 4.264-3.761 4.743 5.835-1.219 13.984 1.809 15.307 1.133.495 2.766-.636 2.766-.636-.977 5.033-5.957 10.743-13.218 10.745-4.911 0-11.722-2.944-13.362-9.983 0 0 2.425 1.237 3.722-.017 1.651-1.589-.802-8.033 2.872-12.571z"/><path fill="#ff9b00" d="M16.63 18.655c3.508-4.361 5.363-4.101 6.602-10.31 4.584 5.005.758 10.113 4.536 11.19 1.769.504 3.965-.884 4.295-3.731 4.664 5.789-1.275 13.941 1.755 15.281 1.135.502 2.781-.621 2.781-.621-.99 4.964-5.945 10.672-13.199 10.674-4.871 0-11.673-2.922-13.335-9.904 0 0 2.435 1.213 3.73-.047 1.649-1.597-.775-8.043 2.835-12.532z"/><path fill="#ff9c00" d="M16.627 18.731c3.506-4.388 5.372-4.05 6.631-10.315 4.535 5.031.693 10.068 4.499 11.161 1.778.511 3.99-.876 4.326-3.701 4.584 5.743-1.332 13.898 1.701 15.255 1.138.509 2.797-.606 2.797-.606-1.003 4.895-5.932 10.601-13.18 10.603-4.831 0-11.624-2.899-13.308-9.825 0 0 2.445 1.19 3.739-.078 1.645-1.607-.751-8.056 2.795-12.494z"/><path fill="#ff9d00" d="M16.624 18.806c3.504-4.415 5.382-3.999 6.661-10.321 4.485 5.057.628 10.023 4.461 11.132 1.787.517 4.016-.867 4.358-3.671 4.505 5.697-1.389 13.856 1.646 15.229 1.14.516 2.813-.591 2.813-.591-1.016 4.826-5.92 10.53-13.161 10.532-4.791 0-11.575-2.877-13.281-9.746 0 0 2.455 1.167 3.747-.109 1.642-1.615-.726-8.066 2.756-12.455z"/><path fill="#ff9e00" d="M16.621 18.881c3.501-4.443 5.391-3.948 6.69-10.326 4.436 5.083.563 9.979 4.424 11.103 1.796.523 4.042-.859 4.389-3.642 4.426 5.651-1.446 13.813 1.592 15.203 1.142.523 2.828-.576 2.828-.576-1.03 4.757-5.908 10.46-13.142 10.461-4.751 0-11.525-2.855-13.253-9.668 0 0 2.465 1.143 3.756-.14 1.638-1.622-.703-8.076 2.716-12.415z"/><path fill="#ff9f00" d="M16.618 18.957c3.498-4.471 5.401-3.897 6.72-10.332 4.386 5.108.498 9.934 4.386 11.074 1.805.529 4.068-.85 4.42-3.612 4.346 5.605-1.502 13.77 1.537 15.177 1.145.53 2.844-.561 2.844-.561-1.043 4.688-5.895 10.389-13.123 10.39-4.711 0-11.476-2.833-13.226-9.589 0 0 2.475 1.12 3.764-.17 1.635-1.633-.677-8.089 2.678-12.377z"/><path fill="#ffa000" d="M16.615 19.032c3.495-4.499 5.41-3.846 6.749-10.337 4.337 5.134.434 9.882 4.348 11.044 1.815.532 4.093-.842 4.451-3.582 4.267 5.559-1.562 13.733 1.483 15.151 1.146.539 2.859-.546 2.859-.546-1.056 4.62-5.883 10.318-13.103 10.319-4.671 0-11.427-2.81-13.199-9.51 0 0 2.485 1.096 3.773-.201 1.632-1.641-.653-8.1 2.639-12.338z"/><path fill="#ffa100" d="M16.613 19.107c3.491-4.527 5.42-3.795 6.778-10.342 4.287 5.16.369 9.839 4.311 11.015 1.824.539 4.119-.834 4.483-3.552 4.188 5.514-1.618 13.689 1.429 15.125 1.149.546 2.875-.532 2.875-.532-1.069 4.551-5.871 10.247-13.084 10.248-4.631 0-11.377-2.788-13.172-9.432 0 0 2.496 1.073 3.781-.232 1.627-1.648-.631-8.109 2.599-12.298z"/><path fill="#ffa200" d="M16.61 19.183c3.487-4.556 5.429-3.744 6.808-10.348 4.238 5.186.303 9.795 4.273 10.986 1.833.545 4.145-.825 4.514-3.522 4.108 5.468-1.674 13.645 1.374 15.1 1.151.552 2.891-.517 2.891-.517-1.082 4.482-5.859 10.176-13.065 10.176-4.591 0-11.328-2.766-13.145-9.353 0 0 2.506 1.05 3.79-.263 1.624-1.657-.608-8.121 2.56-12.259z"/><path fill="#ffa300" d="M16.607 19.258c3.482-4.584 5.439-3.693 6.837-10.353 4.188 5.212.238 9.751 4.236 10.957 1.842.552 4.171-.817 4.545-3.493 4.029 5.422-1.731 13.602 1.32 15.074 1.154.559 2.906-.502 2.906-.502-1.096 4.413-5.846 10.105-13.046 10.105-4.551 0-11.279-2.744-13.118-9.274 0 0 2.516 1.026 3.798-.293 1.621-1.666-.583-8.133 2.522-12.221z"/><path fill="#ffa400" d="M16.604 19.333c3.477-4.614 5.449-3.642 6.866-10.359 4.139 5.237.173 9.707 4.198 10.928 1.851.559 4.196-.808 4.576-3.463 3.95 5.376-1.787 13.558 1.265 15.048 1.157.566 2.923-.487 2.923-.487-1.109 4.344-5.834 10.034-13.027 10.034-4.511 0-11.23-2.722-13.091-9.195 0 0 2.526 1.003 3.807-.324 1.618-1.674-.56-8.144 2.483-12.182z"/><path fill="orange" d="M16.601 19.408c3.471-4.643 5.458-3.591 6.896-10.364 4.089 5.263.107 9.664 4.16 10.898 1.859.565 4.222-.8 4.608-3.433 3.87 5.33-1.843 13.514 1.211 15.022 1.159.573 2.938-.472 2.938-.472-1.122 4.276-5.822 9.963-13.008 9.963-4.471 0-11.18-2.699-13.064-9.117 0 0 2.536.98 3.815-.355 1.615-1.682-.537-8.154 2.444-12.142z"/><path fill="#ffa600" d="M16.598 19.484c3.465-4.673 5.468-3.54 6.925-10.37 4.04 5.289.042 9.62 4.123 10.869 1.868.572 4.248-.791 4.639-3.403 3.791 5.284-1.9 13.471 1.157 14.996 1.161.579 2.953-.457 2.953-.457-1.135 4.207-5.809 9.892-12.989 9.892-4.431 0-11.131-2.677-13.037-9.038 0 0 2.546.956 3.824-.386 1.612-1.691-.514-8.166 2.405-12.103z"/><path fill="#ffa701" d="M16.648 19.687c3.42-4.602 5.427-3.564 6.849-10.238 4.015 5.238.092 9.512 4.1 10.743 1.848.57 4.187-.736 4.622-3.323 3.713 5.234-1.887 13.236 1.133 14.784 1.144.583 2.949-.428 2.949-.428-1.14 4.18-5.795 9.778-12.9 9.778-4.389 0-11.046-2.648-12.931-8.927.011.007 2.542.932 3.804-.402 1.594-1.69-.529-8.088 2.374-11.987z"/><path fill="#ffa802" d="M16.697 19.89c3.376-4.531 5.386-3.588 6.772-10.107 3.99 5.186.142 9.403 4.077 10.617 1.827.568 4.127-.68 4.606-3.242 3.634 5.183-1.877 13.009 1.11 14.571 1.126.589 2.944-.4 2.944-.4-1.145 4.153-5.781 9.664-12.811 9.664-4.347 0-10.96-2.619-12.825-8.816.022.015 2.538.908 3.783-.419 1.578-1.687-.542-8.006 2.344-11.868z"/><path fill="#ffa903" d="M16.747 20.093c3.332-4.46 5.345-3.612 6.695-9.976 3.965 5.135.193 9.295 4.054 10.49 1.807.566 4.067-.625 4.589-3.161 3.555 5.133-1.866 12.778 1.086 14.359 1.108.593 2.939-.371 2.939-.371-1.149 4.126-5.766 9.55-12.722 9.55-4.305 0-10.874-2.59-12.719-8.705.033.022 2.533.884 3.763-.436 1.563-1.685-.555-7.926 2.315-11.75z"/><path fill="#ffa904" d="M16.797 20.296c3.288-4.389 5.304-3.636 6.619-9.844 3.94 5.084.246 9.178 4.031 10.364 1.788.56 4.006-.57 4.573-3.081 3.477 5.082-1.855 12.547 1.063 14.146 1.09.598 2.934-.342 2.934-.342-1.154 4.099-5.752 9.436-12.634 9.436-4.263 0-10.789-2.562-12.614-8.594.044.03 2.529.859 3.743-.453 1.546-1.682-.569-7.846 2.285-11.632z"/><path fill="#ffaa05" d="M16.847 20.499c3.243-4.318 5.263-3.66 6.542-9.713 3.916 5.033.297 9.068 4.009 10.237 1.768.557 3.946-.514 4.556-3 3.398 5.031-1.844 12.315 1.039 13.934 1.073.602 2.929-.314 2.929-.314-1.159 4.072-5.738 9.322-12.545 9.322-4.221 0-10.703-2.533-12.508-8.483.055.037 2.525.835 3.723-.47 1.53-1.679-.583-7.764 2.255-11.513z"/><path fill="#ffab06" d="M16.896 20.702c3.209-4.24 5.222-3.684 6.466-9.582 3.891 4.981.347 8.957 3.986 10.111 1.748.554 3.885-.459 4.54-2.92 3.32 4.981-1.833 12.084 1.015 13.721 1.055.606 2.924-.285 2.924-.285-1.164 4.045-5.723 9.208-12.456 9.208-4.179 0-10.618-2.504-12.402-8.372.065.045 2.524.814 3.702-.486 1.518-1.673-.587-7.678 2.225-11.395z"/><path fill="#ffac07" d="M16.946 20.905c3.166-4.168 5.182-3.708 6.389-9.45 3.866 4.93.398 8.847 3.963 9.985 1.727.551 3.825-.403 4.523-2.839 3.241 4.93-1.822 11.852.992 13.509 1.037.611 2.92-.257 2.92-.257-1.169 4.018-5.709 9.094-12.367 9.094-4.137 0-10.532-2.475-12.296-8.261.076.052 2.52.79 3.682-.503 1.501-1.671-.601-7.598 2.194-11.278z"/><path fill="#ffad08" d="M16.996 21.108c3.123-4.096 5.141-3.732 6.312-9.319 3.841 4.879.449 8.737 3.94 9.858 1.707.548 3.765-.348 4.507-2.758 3.163 4.88-1.81 11.62.968 13.296 1.019.615 2.915-.228 2.915-.228-1.173 3.991-5.695 8.98-12.278 8.98-4.095 0-10.447-2.446-12.191-8.149.087.06 2.516.766 3.662-.52 1.486-1.668-.613-7.516 2.165-11.16z"/><path fill="#ffae09" d="M17.046 21.311c3.08-4.025 5.1-3.756 6.236-9.188 3.817 4.827.5 8.627 3.917 9.732 1.687.546 3.704-.293 4.49-2.678 3.084 4.829-1.799 11.388.945 13.084 1.002.619 2.91-.2 2.91-.2-1.178 3.964-5.68 8.866-12.19 8.866-4.053 0-10.361-2.417-12.085-8.038.098.067 2.513.742 3.641-.537 1.47-1.664-.625-7.434 2.136-11.041z"/><path fill="#ffae0a" d="M17.095 21.514c3.037-3.953 5.059-3.78 6.159-9.056 3.792 4.776.551 8.517 3.894 9.606 1.667.543 3.644-.237 4.474-2.597 3.006 4.778-1.788 11.156.921 12.871.984.623 2.905-.171 2.905-.171-1.183 3.937-5.666 8.752-12.101 8.752-4.011 0-10.276-2.388-11.979-7.927.109.075 2.509.718 3.621-.553 1.455-1.664-.636-7.355 2.106-10.925z"/><path fill="#ffaf0b" d="M17.145 21.717c2.993-3.881 5.018-3.805 6.083-8.925 3.767 4.725.602 8.407 3.871 9.479 1.647.54 3.583-.182 4.457-2.517 2.927 4.728-1.777 10.923.898 12.659.967.627 2.9-.142 2.9-.142-1.188 3.909-5.652 8.638-12.012 8.638-3.969 0-10.19-2.359-11.873-7.816.12.082 2.505.694 3.601-.57 1.438-1.66-.65-7.272 2.075-10.806z"/><path fill="#ffb00c" d="M17.195 21.92c2.95-3.809 4.977-3.829 6.006-8.794 3.742 4.674.653 8.298 3.849 9.353 1.627.537 3.523-.126 4.441-2.436 2.849 4.677-1.766 10.691.874 12.446.949.631 2.896-.114 2.896-.114-1.192 3.882-5.637 8.524-11.923 8.524-3.926 0-10.104-2.33-11.768-7.705.131.089 2.501.67 3.581-.587 1.421-1.656-.664-7.19 2.044-10.687z"/><path fill="#ffb10d" d="M17.244 22.123c2.907-3.737 4.937-3.853 5.929-8.662 3.718 4.622.703 8.188 3.826 9.227 1.606.534 3.462-.071 4.424-2.355 2.77 4.626-1.754 10.458.851 12.234.931.635 2.891-.085 2.891-.085-1.197 3.855-5.623 8.41-11.835 8.41-3.884 0-10.019-2.301-11.662-7.594.142.097 2.497.646 3.56-.604 1.408-1.655-.674-7.111 2.016-10.571z"/><path fill="#ffb20e" d="M17.294 22.326c2.863-3.666 4.896-3.877 5.853-8.531 3.693 4.571.754 8.078 3.803 9.1 1.586.532 3.402-.015 4.408-2.275 2.692 4.576-1.743 10.225.827 12.021.914.639 2.886-.057 2.886-.057-1.202 3.828-5.609 8.295-11.746 8.295-3.842 0-9.933-2.273-11.556-7.483.153.104 2.493.622 3.54-.621 1.391-1.649-.688-7.026 1.985-10.449z"/><path fill="#ffb30f" d="M17.344 22.529c2.82-3.594 4.855-3.901 5.776-8.4 3.668 4.52.805 7.969 3.78 8.974 1.566.529 3.342.04 4.392-2.194 2.613 4.525-1.731 9.992.804 11.809.896.642 2.881-.028 2.881-.028-1.207 3.801-5.594 8.181-11.657 8.181-3.8 0-9.848-2.244-11.451-7.372.164.112 2.489.598 3.52-.637 1.374-1.648-.701-6.947 1.955-10.333z"/><path fill="#ffb310" d="M17.394 22.732c2.776-3.523 4.814-3.925 5.7-8.268 3.643 4.469.856 7.86 3.757 8.848 1.546.526 3.281.095 4.375-2.114 2.535 4.475-1.72 9.759.78 11.596.879.646 2.876 0 2.876 0-1.211 3.774-5.58 8.067-11.568 8.067-3.758 0-9.762-2.215-11.345-7.261.174.119 2.485.574 3.499-.654 1.359-1.644-.714-6.865 1.926-10.214z"/><path fill="#ffb411" d="M17.443 22.935c2.733-3.451 4.773-3.949 5.623-8.137 3.618 4.417.906 7.75 3.734 8.721 1.526.524 3.221.151 4.359-2.033 2.456 4.424-1.708 9.525.757 11.384.861.649 2.872.029 2.872.029-1.216 3.747-5.566 7.953-11.479 7.953-3.716 0-9.677-2.186-11.239-7.15.185.127 2.482.55 3.479-.671 1.342-1.642-.728-6.784 1.894-10.096z"/><path fill="#ffb512" d="M17.493 23.139c2.689-3.38 4.732-3.973 5.546-8.006 3.594 4.366.957 7.641 3.711 8.595 1.506.521 3.16.206 4.342-1.952 2.378 4.373-1.697 9.291.733 11.171.844.653 2.867.058 2.867.058-1.221 3.72-5.551 7.839-11.391 7.839-3.674 0-9.591-2.157-11.133-7.039.196.134 2.478.526 3.459-.688 1.327-1.64-.739-6.704 1.866-9.978z"/><path fill="#ffb613" d="M17.543 23.342c2.645-3.308 4.691-3.997 5.47-7.874 3.569 4.315 1.008 7.532 3.689 8.468 1.485.519 3.1.262 4.326-1.872 2.299 4.323-1.685 9.057.71 10.959.827.656 2.862.086 2.862.086-1.226 3.693-5.537 7.725-11.302 7.725-3.632 0-9.505-2.128-11.028-6.928.207.142 2.474.501 3.439-.705 1.309-1.637-.754-6.622 1.834-9.859z"/><path fill="#ffb714" d="M17.593 23.545c2.601-3.237 4.651-4.021 5.393-7.743 3.544 4.263 1.058 7.423 3.666 8.342 1.465.516 3.04.317 4.309-1.791 2.221 4.272-1.673 8.823.686 10.746.809.66 2.857.115 2.857.115-1.231 3.666-5.523 7.611-11.213 7.611-3.59 0-9.42-2.099-10.922-6.817.218.149 2.469.477 3.418-.721 1.295-1.635-.766-6.542 1.806-9.742z"/><path fill="#ffb815" d="M17.642 23.748c2.557-3.166 4.61-4.045 5.317-7.612 3.519 4.212 1.109 7.315 3.643 8.216 1.445.514 2.979.372 4.293-1.711 2.142 4.222-1.661 8.589.663 10.534.792.663 2.852.143 2.852.143-1.235 3.639-5.508 7.497-11.124 7.497-3.548 0-9.334-2.07-10.816-6.705.229.157 2.465.453 3.398-.738 1.277-1.633-.78-6.461 1.774-9.624z"/><path fill="#ffb815" d="M17.692 23.951c2.513-3.095 4.569-4.069 5.24-7.48 3.495 4.161 1.159 7.206 3.62 8.089 1.425.511 2.919.428 4.276-1.63 2.064 4.171-1.649 8.354.639 10.321.775.666 2.848.172 2.848.172-1.24 3.612-5.494 7.383-11.036 7.383-3.506 0-9.249-2.041-10.71-6.594.24.164 2.461.429 3.378-.755 1.262-1.63-.793-6.381 1.745-9.506z"/><path fill="#ffb916" d="M17.742 24.154c2.469-3.024 4.528-4.093 5.163-7.349 3.47 4.11 1.21 7.098 3.597 7.963 1.404.509 2.858.483 4.26-1.549 1.985 4.12-1.636 8.12.616 10.109.757.669 2.843.2 2.843.2-1.245 3.585-5.48 7.269-10.947 7.269-3.464 0-9.163-2.012-10.605-6.483.251.171 2.457.405 3.357-.772 1.246-1.628-.806-6.3 1.716-9.388z"/><path fill="#ffba17" d="M17.791 24.357c2.424-2.953 4.487-4.117 5.087-7.217 3.445 4.058 1.26 6.989 3.574 7.837 1.384.507 2.798.539 4.243-1.469 1.907 4.07-1.624 7.885.592 9.896.74.672 2.838.229 2.838.229-1.25 3.558-5.465 7.155-10.858 7.155-3.421 0-9.078-1.984-10.499-6.372.262.179 2.453.38 3.337-.788 1.231-1.626-.818-6.22 1.686-9.271z"/><path fill="#ffbb18" d="M17.841 24.56c2.38-2.882 4.446-4.141 5.01-7.086 3.42 4.007 1.31 6.881 3.551 7.71 1.364.505 2.738.594 4.227-1.388 1.828 4.019-1.611 7.649.569 9.684.723.675 2.833.258 2.833.258-1.254 3.531-5.451 7.041-10.769 7.041-3.379 0-8.992-1.955-10.393-6.261.273.186 2.449.356 3.317-.805 1.213-1.624-.833-6.14 1.655-9.153z"/><path fill="#ffbc19" d="M17.891 24.763c2.335-2.811 4.405-4.165 4.934-6.955 3.396 3.956 1.361 6.773 3.529 7.584 1.344.503 2.677.65 4.21-1.308 1.75 3.968-1.598 7.414.545 9.471.706.678 2.828.286 2.828.286-1.259 3.504-5.437 6.927-10.68 6.927-3.337 0-8.906-1.926-10.287-6.15.283.194 2.445.332 3.297-.822 1.195-1.62-.848-6.057 1.624-9.033z"/><path fill="#ffbc1a" d="M17.941 24.966c2.291-2.74 4.365-4.189 4.857-6.823 3.371 3.905 1.411 6.665 3.506 7.458 1.323.501 2.617.705 4.194-1.227 1.671 3.918-1.585 7.179.522 9.259.689.681 2.824.315 2.824.315-1.264 3.477-5.422 6.813-10.592 6.813-3.295 0-8.821-1.897-10.182-6.039.294.201 2.44.307 3.276-.839 1.18-1.62-.861-5.979 1.595-8.917z"/><path fill="#ffbd1b" d="M17.99 25.169c2.246-2.67 4.324-4.213 4.78-6.692 3.346 3.853 1.461 6.558 3.483 7.331 1.303.499 2.556.76 4.177-1.146 1.593 3.867-1.572 6.943.498 9.046.673.683 2.819.343 2.819.343-1.269 3.45-5.408 6.698-10.503 6.698-3.253 0-8.735-1.868-10.076-5.928.305.209 2.436.283 3.256-.856 1.165-1.614-.874-5.896 1.566-8.796z"/><path fill="#ffbe1c" d="M18.04 25.372c2.201-2.599 4.283-4.237 4.704-6.561 3.321 3.802 1.511 6.45 3.46 7.205 1.282.497 2.496.816 4.161-1.066 1.514 3.817-1.558 6.707.475 8.834.656.686 2.814.372 2.814.372-1.273 3.423-5.394 6.584-10.414 6.584-3.211 0-8.65-1.839-9.97-5.817.316.216 2.432.258 3.236-.872 1.146-1.613-.89-5.817 1.534-8.679z"/><path fill="#ffbf1d" d="M18.09 25.575c2.156-2.529 4.242-4.262 4.627-6.429 3.296 3.751 1.561 6.343 3.437 7.079 1.262.495 2.436.871 4.144-.985 1.436 3.766-1.544 6.471.451 8.621.639.689 2.809.4 2.809.4-1.278 3.396-5.379 6.47-10.325 6.47-3.169 0-8.564-1.81-9.864-5.706.327.224 2.427.234 3.215-.889 1.131-1.611-.902-5.737 1.506-8.561z"/><path fill="#ffc01e" d="M18.14 25.778c2.111-2.458 4.201-4.286 4.551-6.298 3.272 3.7 1.611 6.236 3.414 6.952 1.241.493 2.375.927 4.128-.905 1.357 3.715-1.53 6.234.428 8.409.622.691 2.804.429 2.804.429-1.283 3.369-5.365 6.356-10.237 6.356-3.127 0-8.479-1.781-9.759-5.595.338.231 2.423.21 3.195-.906 1.114-1.608-.917-5.656 1.476-8.442z"/><path fill="#ffc11f" d="M18.189 25.981c2.066-2.388 4.16-4.31 4.474-6.167 3.247 3.648 1.661 6.129 3.391 6.826 1.221.492 2.315.982 4.111-.824 1.279 3.665-1.515 5.998.404 8.196.606.694 2.8.458 2.8.458-1.288 3.342-5.351 6.242-10.148 6.242-3.085 0-8.393-1.752-9.653-5.484.349.239 2.418.185 3.175-.923 1.098-1.606-.931-5.576 1.446-8.324z"/><path fill="#ffc120" d="M18.239 26.184c2.02-2.318 4.12-4.334 4.398-6.035 3.222 3.597 1.711 6.022 3.369 6.699 1.2.491 2.254 1.037 4.095-.743 1.2 3.614-1.501 5.761.381 7.984.589.696 2.795.486 2.795.486-1.293 3.315-5.336 6.128-10.059 6.128-3.043 0-8.308-1.723-9.547-5.373.36.246 2.414.161 3.155-.94 1.078-1.604-.949-5.496 1.413-8.206z"/><path fill="#ffc221" d="M18.289 26.387c1.975-2.248 4.079-4.358 4.321-5.904 3.197 3.546 1.761 5.915 3.346 6.573 1.18.49 2.194 1.093 4.078-.663 1.122 3.564-1.486 5.524.357 7.771.573.699 2.79.515 2.79.515-1.297 3.288-5.322 6.014-9.97 6.014-3.001 0-8.222-1.695-9.441-5.262.371.253 2.409.136 3.134-.956 1.063-1.602-.962-5.417 1.385-8.088z"/><path fill="#ffc322" d="M18.338 26.59c1.929-2.178 4.038-4.382 4.244-5.773 3.173 3.494 1.81 5.809 3.323 6.447 1.159.489 2.134 1.148 4.062-.582 1.043 3.513-1.47 5.287.334 7.559.557.701 2.785.543 2.785.543-1.302 3.261-5.307 5.9-9.881 5.9-2.959 0-8.136-1.666-9.336-5.15.382.261 2.405.111 3.114-.973 1.047-1.601-.976-5.339 1.355-7.971z"/><path fill="#ffc423" d="M18.388 26.793c1.884-2.108 3.997-4.406 4.168-5.641 3.148 3.443 1.86 5.703 3.3 6.32 1.138.488 2.073 1.204 4.045-.502.965 3.462-1.454 5.05.31 7.346.541.704 2.78.572 2.78.572-1.307 3.234-5.293 5.786-9.793 5.786-2.917 0-8.051-1.637-9.23-5.039.392.268 2.4.087 3.094-.99 1.031-1.598-.991-5.259 1.326-7.852z"/><path fill="#ffc524" d="M18.438 26.996c1.838-2.039 3.956-4.43 4.091-5.51 3.123 3.392 1.909 5.597 3.277 6.194 1.117.488 2.013 1.259 4.029-.421.886 3.412-1.438 4.813.287 7.134.525.706 2.776.6 2.776.6-1.312 3.207-5.279 5.672-9.704 5.672-2.874 0-7.965-1.608-9.124-4.928.403.276 2.395.062 3.073-1.007 1.012-1.596-1.007-5.18 1.295-7.734z"/><path fill="#ffc625" d="M18.488 27.199c1.792-1.969 3.915-4.454 4.015-5.379 3.098 3.341 1.959 5.491 3.254 6.068 1.096.487 1.952 1.314 4.012-.34.808 3.361-1.422 4.575.263 6.921.509.708 2.771.629 2.771.629-1.316 3.18-5.264 5.558-9.615 5.558-2.832 0-7.88-1.579-9.018-4.817.414.283 2.391.038 3.053-1.023.995-1.595-1.023-5.102 1.265-7.617z"/><path fill="#ffc626" d="M18.537 27.402c1.746-1.9 3.874-4.478 3.938-5.247 3.074 3.289 2.008 5.386 3.231 5.941 1.074.488 1.892 1.37 3.996-.26.729 3.31-1.405 4.338.24 6.709.493.711 2.766.658 2.766.658-1.321 3.153-5.25 5.444-9.526 5.444-2.79 0-7.794-1.55-8.913-4.706.425.291 2.386.013 3.033-1.04.978-1.593-1.038-5.024 1.235-7.499z"/><path fill="#ffc727" d="M18.587 27.605c1.699-1.831 3.834-4.502 3.861-5.116 3.049 3.238 2.057 5.281 3.209 5.815 1.053.488 1.831 1.425 3.979-.179.651 3.26-1.387 4.1.216 6.496.477.713 2.761.686 2.761.686-1.326 3.126-5.236 5.33-9.438 5.33-2.748 0-7.709-1.521-8.807-4.595.436.298 2.38-.012 3.013-1.057.959-1.592-1.054-4.945 1.206-7.38z"/><path fill="#ffc828" d="M18.637 27.808c1.651-1.764 3.793-4.526 3.785-4.985 3.024 3.187 2.105 5.176 3.186 5.689 1.031.489 1.771 1.481 3.963-.099.572 3.209-1.37 3.862.193 6.284.462.715 2.756.715 2.756.715-1.331 3.099-5.221 5.216-9.349 5.216-2.706 0-7.623-1.492-8.701-4.484.447.306 2.375-.037 2.992-1.074.942-1.589-1.075-4.87 1.175-7.262z"/><path fill="#ffc929" d="M18.687 28.011c1.606-1.693 3.752-4.55 3.708-4.853 2.999 3.136 2.154 5.071 3.163 5.562 1.009.491 1.711 1.536 3.946-.018.494 3.159-1.352 3.625.169 6.071.446.718 2.752.743 2.752.743-1.335 3.072-5.207 5.102-9.26 5.102-2.664 0-7.537-1.463-8.595-4.373.458.313 2.371-.061 2.972-1.091.925-1.586-1.089-4.789 1.145-7.143z"/><path fill="#ffc92a" d="M18.703 28.055c1.598-1.687 3.732-4.527 3.692-4.832 2.987 3.126 2.139 5.058 3.151 5.549 1.005.489 1.707 1.522 3.931-.023.492 3.144-1.347 3.609.168 6.045.447.717 2.742.744 2.742.744-1.332 3.056-5.184 5.076-9.22 5.076-2.653 0-7.51-1.458-8.563-4.356.456.312 2.362-.061 2.96-1.087.921-1.581-1.083-4.771 1.139-7.116z"/><path fill="#ffca2c" d="M18.72 28.098c1.589-1.68 3.713-4.503 3.675-4.811 2.975 3.115 2.124 5.045 3.138 5.536 1.001.486 1.703 1.508 3.916-.029.49 3.128-1.343 3.593.167 6.019.447.717 2.732.745 2.732.745-1.328 3.041-5.16 5.05-9.181 5.05-2.643 0-7.482-1.453-8.531-4.339.454.311 2.353-.061 2.949-1.083.919-1.574-1.075-4.751 1.135-7.088z"/><path fill="#ffca2d" d="M18.737 28.141c1.581-1.674 3.694-4.48 3.659-4.79 2.963 3.105 2.108 5.031 3.126 5.522.997.484 1.7 1.494 3.901-.034.488 3.113-1.339 3.577.166 5.993.448.717 2.723.746 2.723.746-1.324 3.026-5.136 5.024-9.141 5.024-2.632 0-7.454-1.447-8.499-4.322.452.309 2.344-.062 2.937-1.079.913-1.568-1.071-4.732 1.128-7.06z"/><path fill="#ffca2e" d="M18.753 28.185c1.573-1.667 3.674-4.456 3.642-4.769 2.951 3.095 2.093 5.018 3.114 5.509.993.482 1.696 1.48 3.886-.04.487 3.098-1.335 3.561.165 5.967.448.717 2.713.747 2.713.747-1.321 3.011-5.113 4.998-9.102 4.998-2.622 0-7.426-1.442-8.467-4.305.451.308 2.335-.062 2.926-1.075.91-1.562-1.064-4.713 1.123-7.032z"/><path fill="#ffcb2f" d="M18.77 28.228c1.564-1.661 3.655-4.433 3.626-4.748 2.939 3.085 2.078 5.004 3.101 5.496.99.479 1.693 1.466 3.871-.045.485 3.083-1.33 3.545.163 5.941.449.717 2.703.748 2.703.748-1.317 2.996-5.089 4.973-9.062 4.973-2.611 0-7.398-1.436-8.435-4.288.449.307 2.325-.062 2.914-1.072.908-1.556-1.057-4.695 1.119-7.005z"/><path fill="#ffcb31" d="M18.787 28.271c1.556-1.654 3.635-4.409 3.609-4.727 2.927 3.075 2.063 4.991 3.089 5.482.986.477 1.689 1.452 3.855-.051.483 3.068-1.326 3.529.162 5.915.45.717 2.694.749 2.694.749-1.313 2.98-5.066 4.947-9.022 4.947-2.601 0-7.371-1.431-8.403-4.271.447.306 2.316-.063 2.903-1.068.903-1.548-1.052-4.674 1.113-6.976z"/><path fill="#ffcb32" d="M18.803 28.315c1.547-1.647 3.616-4.385 3.593-4.706 2.914 3.065 2.049 4.975 3.077 5.469.983.473 1.685 1.438 3.84-.056.481 3.053-1.322 3.513.161 5.889.45.717 2.684.75 2.684.75-1.31 2.965-5.042 4.921-8.983 4.921-2.59 0-7.343-1.426-8.371-4.254.445.304 2.307-.063 2.891-1.064.9-1.543-1.044-4.656 1.108-6.949z"/><path fill="#fc3" d="M18.82 28.358c1.539-1.641 3.596-4.362 3.576-4.685 2.902 3.055 2.034 4.961 3.064 5.456.979.47 1.682 1.424 3.825-.062.48 3.038-1.318 3.497.16 5.863.451.717 2.674.751 2.674.751-1.306 2.95-5.019 4.895-8.943 4.895-2.58 0-7.315-1.42-8.339-4.238.443.303 2.298-.063 2.88-1.06.897-1.536-1.038-4.636 1.103-6.92z"/><path fill="#ffcc35" d="M18.837 28.401c1.53-1.634 3.577-4.338 3.56-4.664 2.89 3.045 2.019 4.947 3.052 5.443.975.467 1.678 1.41 3.81-.067.478 3.023-1.314 3.481.159 5.837.451.717 2.665.752 2.665.752-1.302 2.935-4.995 4.87-8.903 4.87-2.569 0-7.287-1.415-8.307-4.221.442.302 2.289-.063 2.868-1.057.891-1.53-1.034-4.617 1.096-6.893z"/><path fill="#ffcc36" d="M18.853 28.444c1.522-1.628 3.558-4.315 3.543-4.643 2.878 3.035 2.004 4.934 3.04 5.429.972.465 1.675 1.397 3.795-.072.476 3.007-1.309 3.466.158 5.811.452.717 2.655.753 2.655.753-1.298 2.92-4.971 4.844-8.864 4.844-2.559 0-7.259-1.409-8.275-4.204.44.301 2.28-.064 2.856-1.053.889-1.523-1.026-4.598 1.092-6.865z"/><path fill="#ffcd37" d="M18.87 28.488c1.514-1.621 3.538-4.291 3.527-4.621 2.866 3.025 1.989 4.92 3.027 5.416.968.462 1.671 1.383 3.78-.078.475 2.992-1.305 3.45.156 5.785.452.717 2.645.754 2.645.754-1.295 2.904-4.948 4.818-8.824 4.818-2.548 0-7.231-1.404-8.243-4.187.438.299 2.27-.064 2.845-1.049.885-1.518-1.02-4.58 1.087-6.838z"/><path fill="#ffcd39" d="M18.887 28.531c1.505-1.615 3.519-4.268 3.51-4.6 2.854 3.015 1.974 4.906 3.015 5.403.964.46 1.667 1.369 3.765-.083.473 2.977-1.306 3.437.155 5.759.451.718 2.636.755 2.636.755-1.291 2.889-4.924 4.792-8.785 4.792-2.538 0-7.204-1.398-8.211-4.17.436.298 2.261-.064 2.833-1.045.882-1.512-1.013-4.561 1.082-6.811z"/><path fill="#ffcd3a" d="M18.903 28.574c1.497-1.608 3.499-4.244 3.494-4.579 2.842 3.005 1.959 4.892 3.003 5.389.96.457 1.664 1.355 3.749-.089.471 2.962-1.302 3.421.154 5.733.452.718 2.626.756 2.626.756-1.287 2.874-4.901 4.767-8.745 4.767-2.527 0-7.176-1.393-8.179-4.153.434.297 2.252-.065 2.822-1.041.878-1.506-1.007-4.542 1.076-6.783z"/><path fill="#ffce3b" d="M18.92 28.618c1.488-1.602 3.48-4.221 3.478-4.558 2.83 2.995 1.944 4.879 2.991 5.376.957.455 1.66 1.341 3.734-.094.469 2.947-1.298 3.405.153 5.707.452.718 2.617.757 2.617.757-1.284 2.859-4.877 4.741-8.705 4.741-2.516 0-7.148-1.388-8.147-4.136.433.296 2.243-.065 2.81-1.038.872-1.5-1.003-4.523 1.069-6.755z"/><path fill="#ffce3c" d="M18.936 28.661c1.48-1.595 3.46-4.197 3.461-4.537 2.817 2.985 1.929 4.865 2.978 5.363.953.452 1.657 1.327 3.719-.1.468 2.932-1.294 3.39.152 5.681.453.718 2.607.758 2.607.758-1.28 2.844-4.854 4.715-8.666 4.715-2.506 0-7.12-1.382-8.115-4.119.431.294 2.234-.065 2.799-1.034.871-1.493-.995-4.504 1.065-6.727z"/><path fill="#ffce3e" d="M18.953 28.704c1.471-1.589 3.441-4.174 3.445-4.516 2.805 2.975 1.914 4.851 2.966 5.35.949.45 1.653 1.313 3.704-.105.466 2.917-1.29 3.374.151 5.655.453.718 2.597.759 2.597.759-1.276 2.828-4.83 4.689-8.626 4.689-2.495 0-7.092-1.377-8.083-4.102.429.293 2.225-.066 2.787-1.03.866-1.487-.99-4.485 1.059-6.7z"/><path fill="#ffcf3f" d="M18.97 28.748c1.463-1.582 3.422-4.15 3.428-4.495 2.793 2.965 1.899 4.837 2.954 5.336.946.447 1.649 1.299 3.689-.111.464 2.902-1.287 3.358.149 5.629.454.718 2.588.76 2.588.76-1.272 2.813-4.806 4.663-8.587 4.663-2.485 0-7.065-1.371-8.051-4.085.427.292 2.215-.066 2.776-1.026.862-1.48-.983-4.466 1.054-6.671z"/><path fill="#ffcf40" d="M18.986 28.791c1.454-1.576 3.402-4.127 3.412-4.474 2.781 2.955 1.883 4.824 2.941 5.323.942.445 1.646 1.285 3.674-.116.463 2.886-1.283 3.343.148 5.603.454.718 2.578.761 2.578.761-1.269 2.798-4.783 4.638-8.547 4.638-2.474 0-7.037-1.366-8.019-4.068.425.291 2.206-.066 2.764-1.022.86-1.475-.976-4.448 1.049-6.645z"/><path fill="#ffcf42" d="M19.003 28.834c1.446-1.569 3.383-4.103 3.395-4.453 2.769 2.945 1.868 4.81 2.929 5.31.938.442 1.642 1.271 3.658-.121.461 2.871-1.279 3.327.147 5.577.455.718 2.568.762 2.568.762-1.265 2.783-4.759 4.612-8.507 4.612-2.464 0-7.009-1.361-7.987-4.051.423.29 2.197-.066 2.753-1.019.856-1.469-.97-4.428 1.044-6.617z"/><path fill="#ffd043" d="M19.02 28.877c1.438-1.563 3.363-4.08 3.379-4.432 2.757 2.935 1.853 4.796 2.917 5.296.934.44 1.638 1.257 3.643-.127.459 2.856-1.275 3.311.146 5.551.455.718 2.559.763 2.559.763-1.261 2.767-4.736 4.586-8.468 4.586-2.453 0-6.981-1.355-7.955-4.035.422.288 2.188-.067 2.741-1.015.851-1.46-.965-4.407 1.038-6.587z"/><path fill="#ffd044" d="M19.036 28.921c1.429-1.556 3.344-4.056 3.362-4.411 2.745 2.925 1.838 4.782 2.904 5.283.93.437 1.635 1.243 3.628-.132.457 2.841-1.271 3.296.145 5.525.456.718 2.549.764 2.549.764-1.258 2.752-4.712 4.56-8.428 4.56-2.443 0-6.953-1.35-7.923-4.018.42.287 2.179-.067 2.729-1.011.849-1.455-.957-4.389 1.034-6.56z"/><path fill="#ffd045" d="M19.053 28.964c1.421-1.549 3.324-4.033 3.346-4.39 2.733 2.915 1.823 4.769 2.892 5.27.927.435 1.631 1.229 3.613-.138.456 2.826-1.267 3.28.143 5.499.456.718 2.539.765 2.539.765-1.254 2.737-4.689 4.535-8.389 4.535-2.432 0-6.925-1.344-7.891-4.001.418.286 2.169-.067 2.718-1.007.846-1.449-.95-4.371 1.029-6.533z"/><path fill="#ffd147" d="M19.07 29.007c1.412-1.543 3.305-4.009 3.329-4.368 2.721 2.905 1.808 4.755 2.88 5.257.923.432 1.628 1.215 3.598-.143.454 2.811-1.263 3.264.142 5.473.457.718 2.53.765 2.53.765-1.25 2.722-4.665 4.509-8.349 4.509-2.422 0-6.898-1.339-7.859-3.984.416.285 2.16-.068 2.706-1.004.841-1.442-.945-4.351 1.023-6.505z"/><path fill="#ffd148" d="M19.086 29.051c1.404-1.536 3.286-3.986 3.313-4.347 2.708 2.895 1.793 4.741 2.867 5.243.919.43 1.624 1.201 3.583-.149.452 2.796-1.259 3.248.141 5.447.457.718 2.52.766 2.52.766-1.247 2.707-4.641 4.483-8.309 4.483-2.411 0-6.87-1.334-7.827-3.967.414.283 2.151-.068 2.695-1 .837-1.436-.939-4.331 1.017-6.476z"/><path fill="#ffd149" d="M19.103 29.094c1.395-1.53 3.266-3.962 3.296-4.326 2.696 2.885 1.778 4.728 2.855 5.23.915.427 1.62 1.187 3.567-.154.45 2.781-1.255 3.233.14 5.421.458.718 2.51.767 2.51.767-1.243 2.691-4.618 4.457-8.27 4.457-2.401 0-6.842-1.328-7.795-3.95.413.282 2.142-.068 2.683-.996.836-1.43-.931-4.313 1.014-6.449z"/><path fill="#ffd14b" d="M19.12 29.137c1.387-1.523 3.247-3.939 3.28-4.305 2.684 2.875 1.763 4.714 2.843 5.217.912.425 1.617 1.173 3.552-.159.449 2.766-1.251 3.217.139 5.395.458.718 2.501.768 2.501.768-1.239 2.676-4.594 4.432-8.23 4.432-2.39 0-6.814-1.323-7.763-3.933.411.281 2.133-.068 2.672-.992.829-1.425-.928-4.295 1.006-6.423z"/><path fill="#ffd24c" d="M19.136 29.18c1.379-1.517 3.227-3.915 3.263-4.284 2.672 2.865 1.748 4.7 2.831 5.203.908.422 1.613 1.159 3.537-.165.447 2.75-1.247 3.201.138 5.369.458.718 2.491.769 2.491.769-1.235 2.661-4.571 4.406-8.191 4.406-2.379 0-6.786-1.317-7.731-3.916.409.28 2.124-.069 2.66-.988.827-1.417-.919-4.275 1.002-6.394z"/><path fill="#ffd24d" d="M19.153 29.224c1.37-1.51 3.208-3.892 3.247-4.263 2.66 2.855 1.733 4.686 2.818 5.19.904.42 1.61 1.145 3.522-.17.445 2.735-1.243 3.185.136 5.343.459.718 2.482.77 2.482.77-1.232 2.646-4.547 4.38-8.151 4.38-2.369 0-6.758-1.312-7.699-3.899.407.278 2.114-.069 2.649-.985.823-1.411-.914-4.256.996-6.366z"/><path fill="#ffd24e" d="M19.17 29.267c1.362-1.504 3.188-3.868 3.23-4.242 2.648 2.845 1.718 4.673 2.806 5.177.9.417 1.606 1.131 3.507-.176.444 2.72-1.239 3.17.135 5.317.459.718 2.472.771 2.472.771-1.228 2.631-4.523 4.354-8.111 4.354-2.358 0-6.731-1.307-7.667-3.882.405.277 2.105-.069 2.637-.981.819-1.405-.908-4.237.991-6.338z"/><path fill="#ffd350" d="M19.186 29.31c1.353-1.497 3.169-3.845 3.214-4.221 2.636 2.834 1.703 4.659 2.794 5.164.897.415 1.602 1.117 3.492-.181.442 2.705-1.235 3.154.134 5.291.46.718 2.462.772 2.462.772-1.224 2.615-4.5 4.328-8.072 4.328-2.348 0-6.703-1.301-7.635-3.865.404.276 2.096-.07 2.625-.977.816-1.399-.901-4.218.986-6.311z"/><path fill="#ffd351" d="M19.203 29.354c1.345-1.491 3.15-3.821 3.197-4.2 2.624 2.824 1.688 4.645 2.781 5.15.893.412 1.599 1.103 3.477-.187.44 2.69-1.232 3.138.133 5.265.46.718 2.453.773 2.453.773-1.221 2.6-4.476 4.303-8.032 4.303-2.337 0-6.675-1.296-7.603-3.848.402.275 2.087-.07 2.614-.973.812-1.393-.896-4.199.98-6.283z"/><path fill="#ffd352" d="M19.22 29.397c1.336-1.484 3.13-3.798 3.181-4.179 2.611 2.814 1.673 4.631 2.769 5.137.889.41 1.595 1.089 3.461-.192.438 2.675-1.228 3.122.132 5.239.461.718 2.443.774 2.443.774-1.217 2.585-4.453 4.277-7.993 4.277-2.327 0-6.647-1.29-7.571-3.832.4.273 2.078-.07 2.602-.969.809-1.386-.888-4.18.976-6.255z"/><path fill="#ffd454" d="M19.236 29.44c1.328-1.478 3.111-3.774 3.165-4.158 2.599 2.804 1.658 4.618 2.757 5.124.885.407 1.592 1.075 3.446-.198.437 2.66-1.224 3.107.131 5.213.461.717 2.433.775 2.433.775-1.213 2.57-4.429 4.251-7.953 4.251-2.316 0-6.619-1.285-7.539-3.815.398.272 2.069-.07 2.591-.966.804-1.378-.883-4.159.969-6.226z"/><path fill="#ffd455" d="M19.253 29.484c1.32-1.471 3.091-3.751 3.148-4.137 2.587 2.794 1.643 4.604 2.744 5.11.881.405 1.588 1.061 3.431-.203.435 2.645-1.22 3.091.129 5.187.462.717 2.424.776 2.424.776-1.209 2.555-4.406 4.225-7.913 4.225-2.306 0-6.592-1.279-7.507-3.798.396.271 2.059-.071 2.579-.962.801-1.373-.876-4.141.965-6.198z"/><path fill="#ffd456" d="M19.27 29.527c1.311-1.464 3.072-3.727 3.132-4.116 2.575 2.784 1.627 4.59 2.732 5.097.878.403 1.584 1.047 3.416-.208.433 2.629-1.216 3.075.128 5.161.462.717 2.414.777 2.414.777-1.206 2.539-4.382 4.2-7.874 4.2-2.295 0-6.564-1.274-7.475-3.781.395.27 2.05-.071 2.568-.958.797-1.368-.871-4.123.959-6.172z"/><path fill="#ffd558" d="M19.286 29.57c1.303-1.458 3.052-3.703 3.115-4.094 2.563 2.774 1.612 4.577 2.72 5.084.874.4 1.581 1.034 3.401-.214.431 2.614-1.212 3.059.127 5.135.463.717 2.404.778 2.404.778-1.202 2.524-4.358 4.174-7.834 4.174-2.285 0-6.536-1.269-7.443-3.764.393.268 2.041-.071 2.556-.954.794-1.362-.864-4.104.954-6.145z"/><path fill="#ffd559" d="M19.303 29.613c1.294-1.451 3.033-3.68 3.099-4.073 2.551 2.764 1.597 4.563 2.707 5.071.87.398 1.577 1.02 3.386-.219.43 2.599-1.208 3.044.126 5.109.463.717 2.395.779 2.395.779-1.198 2.509-4.335 4.148-7.795 4.148-2.274 0-6.508-1.263-7.411-3.747.391.267 2.032-.072 2.545-.951.789-1.355-.858-4.085.948-6.117z"/><path fill="#ffd55a" d="M19.32 29.657c1.286-1.445 3.014-3.656 3.082-4.052 2.539 2.754 1.582 4.549 2.695 5.057.866.395 1.574 1.006 3.37-.225.428 2.584-1.204 3.028.125 5.083.464.717 2.385.78 2.385.78-1.195 2.494-4.311 4.122-7.755 4.122-2.264 0-6.48-1.258-7.379-3.73.389.266 2.023-.072 2.533-.947.787-1.348-.851-4.065.944-6.088z"/><path fill="#ffd65b" d="M19.336 29.7c1.277-1.438 2.994-3.633 3.066-4.031 2.527 2.744 1.567 4.536 2.683 5.044.862.393 1.57.992 3.355-.23.426 2.569-1.2 3.012.123 5.057.464.717 2.375.781 2.375.781-1.191 2.479-4.288 4.097-7.715 4.097-2.253 0-6.452-1.252-7.347-3.713.387.265 2.014-.072 2.522-.943.783-1.344-.845-4.048.938-6.062z"/><path fill="#ffd65d" d="M19.353 29.743c1.269-1.432 2.975-3.609 3.049-4.01 2.515 2.734 1.552 4.522 2.671 5.031.859.391 1.566.978 3.34-.236.425 2.554-1.195 2.996.122 5.031.465.717 2.366.782 2.366.782-1.187 2.463-4.264 4.071-7.676 4.071-2.242 0-6.425-1.247-7.315-3.696.385.264 2.004-.072 2.51-.939.779-1.337-.839-4.028.933-6.034z"/><path fill="#ffd65e" d="M19.37 29.787c1.26-1.425 2.955-3.586 3.033-3.989 2.502 2.724 1.537 4.508 2.658 5.017.855.388 1.563.964 3.325-.241.423 2.539-1.191 2.98.121 5.005.465.717 2.356.783 2.356.783-1.183 2.448-4.241 4.045-7.636 4.045-2.232 0-6.397-1.242-7.283-3.679.384.262 1.995-.073 2.498-.935.776-1.331-.833-4.009.928-6.006z"/><path fill="#ffd75f" d="M19.386 29.83c1.252-1.419 2.936-3.562 3.016-3.968 2.49 2.714 1.522 4.495 2.646 5.004.851.386 1.559.95 3.31-.247.421 2.524-1.187 2.965.12 4.979.466.717 2.346.784 2.346.784-1.18 2.433-4.217 4.019-7.596 4.019-2.221 0-6.369-1.236-7.251-3.662.382.261 1.986-.073 2.487-.932.772-1.323-.827-3.989.922-5.977z"/><path fill="#ffd761" d="M19.403 29.873c1.244-1.412 2.916-3.539 3-3.947 2.478 2.704 1.507 4.481 2.634 4.991.847.383 1.555.936 3.295-.252.419 2.509-1.183 2.949.119 4.953.466.717 2.337.785 2.337.785-1.176 2.418-4.193 3.993-7.557 3.993-2.211 0-6.341-1.231-7.219-3.645.38.26 1.977-.073 2.475-.928.767-1.317-.821-3.97.916-5.95z"/><path fill="#ffd762" d="M19.42 29.917c1.235-1.406 2.897-3.515 2.983-3.926 2.466 2.694 1.492 4.467 2.621 4.978.843.381 1.552.922 3.279-.257.418 2.493-1.179 2.933.118 4.927.467.717 2.327.786 2.327.786-1.172 2.403-4.17 3.968-7.517 3.968-2.2 0-6.313-1.225-7.187-3.628.378.259 1.968-.074 2.464-.924.764-1.314-.814-3.954.912-5.924z"/><path fill="#ffd863" d="M19.436 29.96c1.227-1.399 2.878-3.492 2.967-3.905 2.454 2.684 1.477 4.454 2.609 4.964.839.379 1.548.908 3.264-.263.416 2.478-1.175 2.917.116 4.901.467.717 2.318.787 2.318.787-1.169 2.387-4.146 3.942-7.478 3.942-2.19 0-6.286-1.22-7.155-3.612.376.257 1.958-.074 2.452-.92.762-1.305-.807-3.932.907-5.894z"/><path fill="#ffd864" d="M19.453 30.003c1.218-1.393 2.858-3.468 2.95-3.884 2.442 2.674 1.462 4.44 2.597 4.951.836.376 1.545.894 3.249-.268.414 2.463-1.171 2.901.115 4.874.468.717 2.308.788 2.308.788-1.165 2.372-4.123 3.916-7.438 3.916-2.179 0-6.258-1.215-7.123-3.595.375.256 1.949-.074 2.441-.916.757-1.298-.802-3.913.901-5.866z"/><path fill="#ffd866" d="M19.47 30.046c1.21-1.386 2.839-3.445 2.934-3.863 2.43 2.664 1.446 4.426 2.584 4.938.832.374 1.541.88 3.234-.274.413 2.448-1.167 2.886.114 4.848.468.717 2.298.789 2.298.789-1.161 2.357-4.099 3.89-7.398 3.89-2.169 0-6.23-1.209-7.091-3.578.373.255 1.94-.074 2.429-.913.753-1.29-.796-3.892.896-5.837z"/><path fill="#ffd967" d="M19.486 30.09c1.201-1.38 2.819-3.421 2.917-3.842 2.418 2.654 1.431 4.413 2.572 4.924.828.371 1.537.866 3.219-.279.411 2.433-1.163 2.87.113 4.822.469.717 2.289.79 2.289.79-1.158 2.342-4.076 3.865-7.359 3.865-2.158 0-6.202-1.204-7.059-3.561.371.254 1.931-.075 2.418-.909.75-1.285-.789-3.874.89-5.81z"/><path fill="#ffd968" d="M19.503 30.133c1.193-1.373 2.8-3.398 2.901-3.82 2.405 2.644 1.416 4.399 2.56 4.911.824.369 1.534.852 3.204-.285.409 2.418-1.159 2.854.112 4.796.469.717 2.279.79 2.279.79-1.154 2.326-4.052 3.839-7.319 3.839-2.148 0-6.174-1.198-7.027-3.544.369.252 1.922-.075 2.406-.905.745-1.279-.784-3.855.884-5.782z"/><path fill="#ffd96a" d="M19.52 30.176c1.185-1.366 2.78-3.374 2.884-3.799 2.393 2.634 1.401 4.385 2.547 4.898.82.367 1.53.838 3.188-.29.407 2.403-1.155 2.838.111 4.77.47.717 2.269.791 2.269.791-1.15 2.311-4.028 3.813-7.28 3.813-2.137 0-6.146-1.193-6.995-3.527.367.251 1.913-.075 2.394-.901.744-1.273-.775-3.836.882-5.755z"/><path fill="#ffda6b" d="M19.536 30.22c1.176-1.36 2.761-3.351 2.868-3.778 2.381 2.624 1.386 4.372 2.535 4.885.816.364 1.527.824 3.173-.296.406 2.388-1.151 2.822.109 4.744.47.717 2.26.792 2.26.792-1.146 2.296-4.005 3.787-7.24 3.787-2.127 0-6.119-1.188-6.963-3.51.366.25 1.903-.076 2.383-.897.74-1.267-.77-3.818.875-5.727z"/><path fill="#ffda6c" d="M19.553 30.263c1.168-1.353 2.742-3.327 2.852-3.757 2.369 2.614 1.371 4.358 2.523 4.871.813.362 1.523.81 3.158-.301.404 2.372-1.147 2.807.108 4.718.471.717 2.25.793 2.25.793-1.143 2.281-3.981 3.762-7.2 3.762-2.116 0-6.091-1.182-6.931-3.493.364.249 1.894-.076 2.371-.894.735-1.26-.765-3.798.869-5.699z"/><path fill="#ffda6d" d="M19.57 30.306c1.159-1.347 2.722-3.304 2.835-3.736 2.357 2.604 1.356 4.344 2.511 4.858.809.36 1.519.796 3.143-.306.402 2.357-1.143 2.791.107 4.692.471.717 2.24.794 2.24.794-1.139 2.266-3.958 3.736-7.161 3.736-2.105 0-6.063-1.177-6.899-3.476.362.247 1.885-.076 2.36-.89.731-1.254-.758-3.779.864-5.672z"/><path fill="#ffdb6f" d="M19.586 30.35c1.151-1.34 2.703-3.28 2.819-3.715 2.345 2.594 1.341 4.331 2.498 4.845.805.357 1.516.782 3.128-.312.4 2.342-1.138 2.775.106 4.666.472.717 2.231.795 2.231.795-1.135 2.25-3.934 3.71-7.121 3.71-2.095 0-6.035-1.171-6.867-3.459.36.246 1.876-.076 2.348-.886.727-1.249-.752-3.761.858-5.644z"/><path fill="#ffdb70" d="M19.603 30.393c1.142-1.334 2.683-3.257 2.802-3.694 2.333 2.584 1.326 4.317 2.486 4.831.801.355 1.512.768 3.113-.317.399 2.327-1.134 2.759.105 4.64.472.717 2.221.796 2.221.796-1.132 2.235-3.911 3.684-7.082 3.684-2.084 0-6.007-1.166-6.835-3.442.358.245 1.867-.077 2.337-.882.724-1.242-.746-3.741.853-5.616z"/><path fill="#ffdb71" d="M19.62 30.436c1.134-1.327 2.664-3.233 2.786-3.673 2.321 2.574 1.311 4.303 2.474 4.818.797.353 1.509.754 3.098-.323.397 2.312-1.13 2.743.103 4.614.473.717 2.211.797 2.211.797-1.128 2.22-3.887 3.658-7.042 3.658-2.074 0-5.98-1.161-6.803-3.425.356.244 1.858-.077 2.325-.879.72-1.234-.74-3.721.848-5.587z"/><path fill="#ffdc73" d="M19.636 30.479c1.126-1.321 2.644-3.21 2.769-3.652 2.308 2.564 1.295 4.29 2.461 4.805.793.35 1.505.74 3.082-.328.395 2.297-1.126 2.727.102 4.588.473.717 2.202.798 2.202.798-1.124 2.205-3.863 3.633-7.002 3.633-2.063 0-5.952-1.155-6.771-3.409.355.242 1.848-.077 2.314-.875.717-1.228-.733-3.702.843-5.56z"/><path fill="#ffdc74" d="M19.653 30.523c1.117-1.314 2.625-3.186 2.753-3.631 2.296 2.554 1.28 4.276 2.449 4.791.789.348 1.501.726 3.067-.334.394 2.282-1.122 2.711.101 4.562.474.717 2.192.799 2.192.799-1.12 2.19-3.84 3.607-6.963 3.607-2.053 0-5.924-1.15-6.739-3.392.353.241 1.839-.078 2.302-.871.714-1.221-.726-3.683.838-5.531z"/><path fill="#ffdc75" d="M19.67 30.566c1.109-1.308 2.606-3.163 2.736-3.61 2.284 2.543 1.265 4.263 2.437 4.778.786.346 1.498.712 3.052-.339.392 2.267-1.118 2.696.1 4.536.474.717 2.183.8 2.183.8-1.117 2.174-3.816 3.581-6.923 3.581-2.042 0-5.896-1.144-6.707-3.375.351.24 1.83-.078 2.291-.867.708-1.215-.722-3.664.831-5.504z"/><path fill="#fd7" d="M19.686 30.609c1.1-1.301 2.586-3.139 2.72-3.589 2.272 2.533 1.25 4.249 2.424 4.765.782.343 1.494.698 3.037-.345.39 2.252-1.114 2.68.099 4.51.475.717 2.173.801 2.173.801-1.113 2.159-3.793 3.555-6.884 3.555-2.032 0-5.868-1.139-6.675-3.358.349.239 1.821-.078 2.279-.863.706-1.209-.714-3.644.827-5.476z"/><path fill="#ffdd78" d="M19.703 30.653c1.092-1.295 2.567-3.116 2.703-3.567 2.26 2.523 1.235 4.235 2.412 4.752.778.341 1.491.684 3.022-.35.388 2.236-1.109 2.664.098 4.484.475.717 2.163.802 2.163.802-1.109 2.144-3.769 3.53-6.844 3.53-2.021 0-5.84-1.133-6.643-3.341.347.238 1.812-.078 2.267-.86.703-1.205-.708-3.628.822-5.45z"/><path fill="#ffdd79" d="M19.72 30.696c1.083-1.288 2.547-3.092 2.687-3.546 2.248 2.513 1.22 4.222 2.4 4.738.774.339 1.487.67 3.007-.355.387 2.221-1.105 2.648.096 4.458.476.717 2.154.803 2.154.803-1.106 2.129-3.746 3.504-6.804 3.504-2.011 0-5.813-1.128-6.611-3.324.346.236 1.803-.079 2.256-.856.697-1.198-.704-3.608.815-5.422z"/><path fill="#ffde7a" d="M19.736 30.739c1.075-1.282 2.528-3.069 2.67-3.525 2.236 2.503 1.205 4.208 2.387 4.725.77.337 1.483.657 2.991-.361.385 2.206-1.101 2.632.095 4.432.476.717 2.144.804 2.144.804-1.102 2.114-3.722 3.478-6.765 3.478-2 0-5.785-1.123-6.579-3.307.344.235 1.793-.079 2.244-.852.697-1.191-.693-3.589.813-5.394z"/><path fill="#ffde7c" d="M19.753 30.783c1.067-1.275 2.508-3.045 2.654-3.504 2.224 2.493 1.19 4.195 2.375 4.712.766.334 1.48.643 2.976-.366.383 2.191-1.097 2.616.094 4.406.477.717 2.134.805 2.134.805-1.098 2.098-3.698 3.452-6.725 3.452-1.99 0-5.757-1.117-6.547-3.29.342.234 1.784-.079 2.233-.848.691-1.186-.689-3.571.806-5.367z"/><path fill="#ffde7d" d="M19.77 30.826c1.058-1.268 2.489-3.021 2.637-3.483 2.212 2.483 1.174 4.181 2.363 4.698.762.332 1.476.629 2.961-.372.382 2.176-1.093 2.6.093 4.38.477.717 2.125.806 2.125.806-1.095 2.083-3.675 3.427-6.686 3.427-1.979 0-5.729-1.112-6.515-3.273.34.233 1.775-.08 2.221-.844.688-1.18-.683-3.551.801-5.339z"/><path fill="#ffdf7e" d="M19.786 30.869c1.05-1.262 2.47-2.998 2.621-3.462 2.199 2.473 1.159 4.167 2.351 4.685.759.33 1.472.615 2.946-.377.38 2.161-1.088 2.585.092 4.354.478.717 2.115.807 2.115.807-1.091 2.068-3.651 3.401-6.646 3.401-1.968 0-5.701-1.106-6.483-3.256.338.231 1.766-.08 2.21-.841.683-1.173-.678-3.532.794-5.311z"/><path fill="#ffdf80" d="M19.803 30.912c1.041-1.255 2.45-2.974 2.604-3.441 2.187 2.463 1.144 4.154 2.338 4.672.755.327 1.469.601 2.931-.383.378 2.146-1.084 2.569.091 4.328.479.717 2.105.808 2.105.808-1.087 2.053-3.628 3.375-6.606 3.375-1.958 0-5.674-1.101-6.451-3.239.337.23 1.757-.08 2.198-.837.68-1.166-.671-3.512.79-5.283z"/><path fill="#ffdf81" d="M19.82 30.956c1.033-1.249 2.431-2.951 2.588-3.42 2.175 2.453 1.129 4.14 2.326 4.659.751.325 1.465.587 2.916-.388.376 2.131-1.08 2.553.089 4.302.479.717 2.096.809 2.096.809-1.083 2.038-3.604 3.349-6.567 3.349-1.947 0-5.646-1.096-6.419-3.222.335.229 1.747-.08 2.187-.833.676-1.161-.665-3.495.784-5.256z"/><path fill="#ffe082" d="M19.836 30.999c1.024-1.242 2.411-2.927 2.571-3.399 2.163 2.443 1.114 4.127 2.314 4.645.747.323 1.462.573 2.9-.393.375 2.115-1.076 2.537.088 4.276.48.717 2.086.81 2.086.81-1.08 2.022-3.581 3.323-6.527 3.323-1.937 0-5.618-1.09-6.387-3.206.333.228 1.738-.081 2.175-.829.674-1.153-.657-3.474.78-5.227z"/><path fill="#ffe083" d="M19.853 31.042c1.016-1.236 2.392-2.904 2.555-3.378 2.151 2.433 1.099 4.113 2.301 4.632.743.321 1.458.559 2.885-.399.373 2.1-1.072 2.521.087 4.25.48.716 2.076.811 2.076.811-1.076 2.007-3.557 3.298-6.488 3.298-1.926 0-5.59-1.085-6.355-3.189.331.226 1.729-.081 2.163-.826.671-1.147-.65-3.454.776-5.199z"/><path fill="#ffe085" d="M19.87 31.086c1.007-1.229 2.373-2.88 2.539-3.357 2.139 2.423 1.084 4.1 2.289 4.619.739.318 1.454.545 2.87-.404.371 2.085-1.067 2.505.086 4.224.481.716 2.067.812 2.067.812-1.072 1.992-3.533 3.272-6.448 3.272-1.916 0-5.562-1.079-6.323-3.172.329.225 1.72-.081 2.152-.822.665-1.142-.647-3.437.768-5.172z"/><path fill="#ffe186" d="M19.886 31.129c.999-1.223 2.353-2.857 2.522-3.336 2.127 2.413 1.068 4.086 2.277 4.605.735.316 1.451.531 2.855-.41.369 2.07-1.063 2.489.085 4.198.481.717 2.057.814 2.057.814-1.069 1.977-3.51 3.246-6.408 3.246-1.905 0-5.534-1.074-6.291-3.155.327.224 1.711-.082 2.14-.818.662-1.135-.64-3.417.763-5.144z"/><path fill="#ffe187" d="M19.903 31.172c.991-1.216 2.334-2.833 2.506-3.315 2.115 2.403 1.053 4.073 2.264 4.592.731.314 1.447.517 2.84-.415.368 2.055-1.059 2.473.083 4.172.482.716 2.048.814 2.048.814-1.065 1.961-3.486 3.22-6.369 3.22-1.895 0-5.507-1.069-6.259-3.138.326.223 1.702-.082 2.129-.814.658-1.128-.633-3.398.758-5.116z"/><path fill="#ffe189" d="M19.92 31.216c.982-1.21 2.314-2.81 2.489-3.293 2.102 2.393 1.038 4.059 2.252 4.579.728.312 1.444.503 2.825-.421.366 2.04-1.055 2.457.082 4.146.482.716 2.038.814 2.038.814-1.061 1.946-3.463 3.195-6.329 3.195-1.884 0-5.479-1.063-6.227-3.121.324.221 1.692-.082 2.117-.81.654-1.123-.627-3.38.753-5.089z"/><path fill="#ffe18a" d="M19.936 31.259c.974-1.203 2.295-2.786 2.473-3.272 2.09 2.383 1.023 4.046 2.24 4.566.724.309 1.44.489 2.81-.426.364 2.025-1.05 2.441.081 4.12.483.716 2.028.815 2.028.815-1.057 1.931-3.439 3.169-6.289 3.169-1.874 0-5.451-1.058-6.195-3.104.322.22 1.683-.082 2.106-.807.65-1.117-.622-3.361.746-5.061z"/><path fill="#ffe28b" d="M19.953 31.302c.965-1.197 2.275-2.763 2.456-3.251 2.078 2.373 1.008 4.032 2.227 4.552.72.307 1.436.475 2.794-.432.363 2.01-1.046 2.425.08 4.094.483.716 2.019.816 2.019.816-1.054 1.916-3.416 3.143-6.25 3.143-1.863 0-5.423-1.052-6.163-3.087.32.219 1.674-.083 2.094-.803.648-1.109-.614-3.34.743-5.032z"/><path fill="#ffe28c" d="M19.97 31.345c.957-1.19 2.256-2.739 2.44-3.23 2.066 2.363.993 4.019 2.215 4.539.716.305 1.433.461 2.779-.437.361 1.995-1.042 2.41.079 4.068.484.716 2.009.817 2.009.817-1.05 1.901-3.392 3.117-6.21 3.117-1.853 0-5.395-1.047-6.131-3.07.318.218 1.665-.083 2.083-.799.642-1.103-.61-3.321.736-5.005z"/><path fill="#ffe28e" d="M19.986 31.389c.948-1.184 2.237-2.716 2.423-3.209 2.054 2.353.977 4.005 2.203 4.526.712.303 1.429.447 2.764-.442.359 1.979-1.038 2.394.078 4.042.485.716 1.999.818 1.999.818-1.046 1.885-3.368 3.092-6.171 3.092-1.842 0-5.368-1.042-6.099-3.053.317.216 1.656-.083 2.071-.795.641-1.099-.602-3.305.732-4.979z"/><path fill="#ffe38f" d="M20.003 31.432c.94-1.177 2.217-2.692 2.407-3.188 2.042 2.343.962 3.991 2.191 4.512.708.3 1.426.433 2.749-.448.357 1.964-1.033 2.378.076 4.016.485.716 1.99.819 1.99.819-1.043 1.87-3.345 3.066-6.131 3.066-1.831 0-5.34-1.036-6.067-3.036.315.215 1.647-.084 2.06-.791.635-1.091-.597-3.284.725-4.95z"/><path fill="#ffe390" d="M20.02 31.475c.932-1.17 2.198-2.669 2.39-3.167 2.03 2.333.947 3.978 2.178 4.499.704.298 1.422.419 2.734-.453.356 1.949-1.029 2.362.075 3.99.486.716 1.98.82 1.98.82-1.039 1.855-3.321 3.04-6.091 3.04-1.821 0-5.312-1.031-6.035-3.019.313.214 1.637-.084 2.048-.788.632-1.085-.59-3.265.721-4.922z"/><path fill="#ffe392" d="M20.036 31.519c.923-1.164 2.178-2.645 2.374-3.146 2.018 2.323.932 3.965 2.166 4.486.7.296 1.418.405 2.719-.459.354 1.934-1.025 2.346.074 3.964.486.716 1.97.821 1.97.821-1.035 1.84-3.298 3.014-6.052 3.014-1.81 0-5.284-1.025-6.003-3.003.311.213 1.628-.084 2.036-.784.63-1.078-.583-3.245.716-4.893z"/><path fill="#ffe493" d="M20.053 31.562c.915-1.157 2.159-2.622 2.357-3.125 2.006 2.313.917 3.951 2.154 4.473.696.294 1.415.391 2.703-.464.352 1.919-1.021 2.33.073 3.938.487.716 1.961.822 1.961.822-1.031 1.825-3.274 2.988-6.012 2.988-1.8 0-5.256-1.02-5.971-2.986.309.212 1.619-.084 2.025-.78.625-1.072-.578-3.226.71-4.866z"/><path fill="#ffe494" d="M20.07 31.605c.906-1.151 2.139-2.598 2.341-3.104 1.993 2.303.902 3.938 2.141 4.459.693.291 1.411.377 2.688-.47.351 1.904-1.016 2.314.072 3.912.487.716 1.951.823 1.951.823-1.028 1.809-3.251 2.963-5.973 2.963-1.789 0-5.228-1.014-5.939-2.969.308.21 1.61-.085 2.013-.776.622-1.065-.571-3.207.706-4.838z"/><path fill="#ffe495" d="M20.086 31.649c.898-1.144 2.12-2.575 2.324-3.083 1.981 2.293.886 3.924 2.129 4.446.689.289 1.408.363 2.673-.475.349 1.889-1.012 2.298.071 3.886.488.716 1.941.824 1.941.824-1.024 1.794-3.227 2.937-5.933 2.937-1.779 0-5.201-1.009-5.907-2.952.306.209 1.601-.085 2.002-.773.618-1.059-.564-3.188.7-4.81z"/><path fill="#ffe597" d="M20.103 31.692c.889-1.138 2.101-2.551 2.308-3.062 1.969 2.283.871 3.911 2.117 4.433.685.287 1.404.349 2.658-.481.347 1.874-1.008 2.282.069 3.86.488.716 1.932.825 1.932.825-1.02 1.779-3.203 2.911-5.893 2.911-1.768 0-5.173-1.004-5.875-2.935.304.208 1.592-.085 1.99-.769.614-1.053-.559-3.169.694-4.782z"/><path fill="#ffe598" d="M20.12 31.735c.881-1.131 2.081-2.528 2.291-3.041 1.957 2.273.856 3.897 2.104 4.419.681.285 1.4.335 2.643-.486.345 1.858-1.003 2.266.068 3.834.489.716 1.922.826 1.922.826-1.017 1.764-3.18 2.885-5.854 2.885-1.758 0-5.145-.998-5.843-2.918.302.207 1.582-.086 1.979-.765.611-1.046-.552-3.149.69-4.754z"/><path fill="#ffe599" d="M20.136 31.778c.873-1.125 2.062-2.504 2.275-3.019 1.945 2.262.841 3.884 2.092 4.406.677.283 1.397.321 2.628-.491.344 1.843-.999 2.25.067 3.808.49.715 1.912.827 1.912.827-1.013 1.749-3.156 2.86-5.814 2.86-1.747 0-5.117-.993-5.811-2.901.3.205 1.573-.086 1.967-.761.607-1.042-.546-3.133.684-4.729z"/><path fill="#ffe69b" d="M20.153 31.822c.864-1.118 2.042-2.481 2.259-2.998 1.933 2.252.826 3.87 2.08 4.393.673.28 1.393.307 2.612-.497.342 1.828-.995 2.234.066 3.782.49.715 1.903.828 1.903.828-1.009 1.733-3.133 2.834-5.775 2.834-1.737 0-5.089-.987-5.779-2.884.298.204 1.564-.086 1.956-.757.603-1.036-.541-3.114.678-4.701z"/><path fill="#ffe69c" d="M20.17 31.865c.856-1.112 2.023-2.457 2.242-2.977 1.921 2.242.81 3.857 2.067 4.38.669.278 1.389.294 2.597-.502.34 1.813-.99 2.218.065 3.756.491.715 1.893.829 1.893.829-1.006 1.718-3.109 2.808-5.735 2.808-1.726 0-5.061-.982-5.747-2.867.297.203 1.555-.086 1.944-.754.6-1.029-.533-3.094.674-4.673z"/><path fill="#ffe69d" d="M20.186 31.908c.847-1.105 2.003-2.434 2.226-2.956 1.909 2.232.795 3.843 2.055 4.366.665.276 1.386.28 2.582-.508.338 1.798-.986 2.202.064 3.73.491.715 1.884.83 1.884.83-1.002 1.703-3.086 2.782-5.695 2.782-1.716 0-5.034-.977-5.715-2.85.295.202 1.546-.087 1.932-.75.595-1.022-.528-3.074.667-4.644z"/><path fill="#ffe79f" d="M20.203 31.952c.839-1.099 1.984-2.41 2.209-2.935 1.896 2.222.78 3.83 2.043 4.353.661.274 1.382.266 2.567-.513.337 1.783-.982 2.186.062 3.704.492.715 1.874.831 1.874.831-.998 1.688-3.062 2.757-5.656 2.757-1.705 0-5.006-.971-5.683-2.833.293.2 1.536-.087 1.921-.746.593-1.018-.521-3.057.663-4.618z"/><path fill="#ffe7a0" d="M20.219 31.995c.83-1.092 1.965-2.387 2.193-2.914 1.884 2.212.765 3.817 2.031 4.34.657.272 1.379.252 2.552-.519.335 1.768-.977 2.17.061 3.678.493.715 1.864.832 1.864.832-.994 1.673-3.038 2.731-5.616 2.731-1.694 0-4.978-.966-5.651-2.816.291.199 1.527-.087 1.909-.742.589-1.011-.515-3.038.657-4.59z"/><path fill="#ffe7a1" d="M20.236 32.038c.822-1.085 1.945-2.363 2.176-2.893 1.872 2.202.75 3.803 2.018 4.326.653.269 1.375.238 2.537-.524.333 1.753-.973 2.154.06 3.652.493.715 1.855.833 1.855.833-.991 1.657-3.015 2.705-5.577 2.705-1.684 0-4.95-.96-5.619-2.799.289.198 1.518-.088 1.898-.738.585-1.004-.509-3.018.652-4.562z"/><path fill="#ffe8a2" d="M20.253 32.082c.813-1.079 1.926-2.339 2.16-2.872 1.86 2.192.734 3.79 2.006 4.313.65.267 1.371.224 2.521-.53.332 1.737-.969 2.138.059 3.626.494.715 1.845.834 1.845.834-.987 1.642-2.991 2.679-5.537 2.679-1.673 0-4.922-.955-5.587-2.783.288.197 1.509-.088 1.886-.735.582-.996-.502-2.997.647-4.532z"/><path fill="#ffe8a4" d="M20.269 32.125c.805-1.072 1.906-2.316 2.143-2.851 1.848 2.182.719 3.776 1.994 4.3.646.265 1.368.21 2.506-.535.33 1.722-.964 2.122.058 3.6.494.715 1.835.835 1.835.835-.983 1.627-2.968 2.653-5.497 2.653-1.663 0-4.895-.95-5.555-2.766.286.195 1.5-.088 1.875-.731.578-.991-.496-2.979.641-4.505z"/><path fill="#ffe8a5" d="M20.286 32.168c.797-1.066 1.887-2.292 2.127-2.83 1.836 2.172.704 3.763 1.981 4.287.642.263 1.364.196 2.491-.54.328 1.707-.96 2.106.056 3.574.495.715 1.826.836 1.826.836-.98 1.612-2.944 2.628-5.458 2.628-1.652 0-4.867-.944-5.523-2.749.284.194 1.491-.088 1.863-.727.575-.986-.489-2.961.637-4.479z"/><path fill="#ffe9a6" d="M20.303 32.211c.788-1.059 1.867-2.269 2.11-2.809 1.824 2.162.689 3.75 1.969 4.273.638.261 1.361.182 2.476-.546.326 1.692-.956 2.09.055 3.548.496.715 1.816.837 1.816.837-.976 1.597-2.921 2.602-5.418 2.602-1.642 0-4.839-.939-5.491-2.732.282.193 1.481-.089 1.852-.723.57-.978-.484-2.941.631-4.45z"/><path fill="#ffe9a8" d="M20.319 32.255c.78-1.053 1.848-2.245 2.094-2.788 1.812 2.152.673 3.736 1.957 4.26.634.259 1.357.168 2.461-.551.325 1.677-.951 2.074.054 3.522.496.715 1.806.838 1.806.838-.972 1.581-2.897 2.576-5.379 2.576-1.631 0-4.811-.933-5.459-2.715.28.192 1.472-.089 1.84-.72.568-.972-.477-2.922.626-4.422z"/><path fill="#ffe9a9" d="M20.336 32.298c.771-1.046 1.829-2.222 2.077-2.767 1.8 2.142.658 3.723 1.944 4.247.63.257 1.353.154 2.446-.557.323 1.662-.947 2.058.053 3.496.497.714 1.797.839 1.797.839-.968 1.566-2.873 2.55-5.339 2.55-1.621 0-4.783-.928-5.427-2.698.279.19 1.463-.089 1.829-.716.563-.965-.471-2.902.62-4.394z"/><path fill="#ffeaaa" d="M20.353 32.341c.763-1.04 1.809-2.198 2.061-2.745 1.787 2.132.643 3.71 1.932 4.233.626.254 1.35.14 2.431-.562.321 1.647-.942 2.042.052 3.469.497.714 1.787.839 1.787.839-.965 1.551-2.85 2.525-5.299 2.525-1.61 0-4.755-.923-5.395-2.681.277.189 1.454-.09 1.817-.712.558-.959-.466-2.883.614-4.366z"/><path fill="#ffeaab" d="M20.369 32.385c.754-1.033 1.79-2.175 2.044-2.724 1.775 2.122.628 3.696 1.92 4.22.622.252 1.346.126 2.415-.568.319 1.632-.938 2.026.051 3.443.498.714 1.777.84 1.777.84-.961 1.536-2.826 2.499-5.26 2.499-1.6 0-4.728-.917-5.363-2.664.275.188 1.445-.09 1.805-.708.558-.953-.457-2.864.611-4.338z"/><path fill="#ffeaad" d="M20.386 32.428c.746-1.027 1.77-2.151 2.028-2.703 1.763 2.112.612 3.683 1.907 4.207.618.25 1.343.112 2.4-.573.318 1.617-.934 2.01.049 3.417.499.714 1.768.841 1.768.841-.957 1.52-2.803 2.473-5.22 2.473-1.589 0-4.7-.912-5.331-2.647.273.187 1.436-.09 1.794-.704.553-.947-.452-2.846.605-4.311z"/><path fill="#ffebae" d="M20.403 32.471c.738-1.02 1.751-2.128 2.011-2.682 1.751 2.102.597 3.67 1.895 4.194.614.248 1.339.098 2.385-.578.316 1.601-.929 1.994.048 3.391.499.714 1.758.842 1.758.842-.954 1.505-2.779 2.447-5.181 2.447-1.578 0-4.672-.906-5.299-2.63.271.185 1.426-.09 1.782-.701.55-.94-.445-2.826.601-4.283z"/><path fill="#ffebaf" d="M20.419 32.514c.729-1.014 1.731-2.104 1.995-2.661 1.739 2.092.582 3.656 1.883 4.18.61.246 1.335.084 2.37-.584.314 1.586-.925 1.978.047 3.365.5.714 1.749.843 1.749.843-.95 1.49-2.756 2.422-5.141 2.422-1.568 0-4.644-.901-5.267-2.613.27.184 1.417-.091 1.771-.697.545-.933-.44-2.807.593-4.255z"/><path fill="#ffebb1" d="M20.436 32.558c.721-1.007 1.712-2.081 1.978-2.64 1.727 2.082.567 3.643 1.871 4.167.606.244 1.332.07 2.355-.589.313 1.571-.92 1.962.046 3.339.501.714 1.739.844 1.739.844-.946 1.475-2.732 2.396-5.101 2.396-1.557 0-4.616-.896-5.235-2.596.268.183 1.408-.091 1.759-.693.541-.928-.434-2.789.588-4.228z"/><path fill="#ffecb2" d="M20.453 32.601c.712-1.001 1.693-2.057 1.962-2.619 1.715 2.072.551 3.63 1.858 4.154.602.241 1.328.056 2.34-.595.311 1.556-.916 1.946.045 3.313.501.714 1.729.845 1.729.845-.942 1.46-2.708 2.37-5.062 2.37-1.547 0-4.589-.89-5.203-2.58.266.182 1.399-.091 1.748-.689.537-.921-.428-2.768.583-4.199z"/><path fill="#ffecb3" d="M20.469 32.644c.704-.994 1.673-2.034 1.946-2.598 1.703 2.062.536 3.617 1.846 4.14.599.239 1.324.042 2.324-.6.309 1.541-.911 1.93.044 3.287.502.714 1.72.846 1.72.846-.939 1.444-2.685 2.344-5.022 2.344-1.536 0-4.561-.885-5.171-2.563.264.181 1.39-.092 1.736-.685.533-.914-.422-2.749.577-4.171z"/><path fill="#ffecb4" d="M20.486 32.688c.695-.987 1.654-2.01 1.929-2.577 1.69 2.052.521 3.603 1.834 4.127.595.237 1.321.028 2.309-.606.307 1.526-.907 1.914.042 3.261.503.713 1.71.847 1.71.847-.935 1.429-2.661 2.318-4.982 2.318-1.526 0-4.533-.879-5.139-2.546.262.179 1.381-.092 1.725-.682.53-.907-.416-2.729.572-4.142z"/><path fill="#ffedb6" d="M20.503 32.731c.687-.981 1.634-1.987 1.913-2.556 1.678 2.042.506 3.59 1.821 4.114.591.235 1.317.014 2.294-.611.306 1.511-.903 1.898.041 3.235.503.713 1.7.848 1.7.848-.931 1.414-2.638 2.293-4.943 2.293-1.515 0-4.505-.874-5.107-2.529.26.178 1.371-.092 1.713-.678.527-.902-.408-2.712.568-4.116z"/><path fill="#ffedb7" d="M20.519 32.774c.679-.974 1.615-1.963 1.896-2.535 1.666 2.032.49 3.577 1.809 4.1.587.233 1.314 0 2.279-.617.304 1.496-.898 1.882.04 3.209.504.713 1.691.849 1.691.849-.928 1.399-2.614 2.267-4.903 2.267-1.505 0-4.477-.868-5.075-2.512.259.177 1.362-.092 1.701-.674.523-.894-.402-2.691.562-4.087z"/><path fill="#ffedb8" d="M20.536 32.818c.67-.968 1.595-1.94 1.88-2.514 1.654 2.022.475 3.564 1.797 4.087.583.231 1.31-.014 2.264-.622.302 1.48-.894 1.865.039 3.183.505.713 1.681.85 1.681.85-.924 1.384-2.591 2.241-4.864 2.241-1.494 0-4.449-.863-5.043-2.495.257.176 1.353-.093 1.69-.67.519-.89-.397-2.673.556-4.06z"/><path fill="#ffeeba" d="M20.553 32.861c.662-.961 1.576-1.916 1.863-2.492 1.642 2.012.46 3.55 1.784 4.074.579.229 1.306-.028 2.249-.627.301 1.465-.889 1.849.038 3.157.505.713 1.671.851 1.671.851-.92 1.368-2.567 2.215-4.824 2.215-1.484 0-4.422-.858-5.011-2.478.255.174 1.344-.093 1.678-.666.516-.885-.39-2.656.552-4.034z"/><path fill="#feb" d="M20.569 32.904c.653-.955 1.557-1.893 1.847-2.471 1.63 2.002.445 3.537 1.772 4.061.575.227 1.303-.042 2.233-.633.299 1.45-.885 1.833.036 3.131.506.713 1.662.852 1.662.852-.917 1.353-2.543 2.19-4.784 2.19-1.473 0-4.394-.852-4.979-2.461.253.173 1.335-.093 1.667-.663.512-.878-.384-2.636.546-4.006z"/><path fill="#ffeebc" d="M20.586 32.947c.645-.948 1.537-1.869 1.83-2.45 1.618 1.992.429 3.524 1.76 4.047.571.225 1.299-.056 2.218-.638.297 1.435-.88 1.817.035 3.105.507.713 1.652.853 1.652.853-.913 1.338-2.52 2.164-4.745 2.164-1.463 0-4.366-.847-4.947-2.444.251.172 1.325-.094 1.655-.659.51-.871-.376-2.617.542-3.978z"/><path fill="#ffefbe" d="M20.603 32.991c.636-.942 1.518-1.846 1.814-2.429 1.606 1.981.414 3.511 1.747 4.034.567.222 1.296-.07 2.203-.644.295 1.42-.876 1.801.034 3.079.507.712 1.642.854 1.642.854-.909 1.323-2.496 2.138-4.705 2.138-1.452 0-4.338-.841-4.915-2.427.25.171 1.316-.094 1.644-.655.505-.865-.371-2.598.536-3.95z"/><path fill="#ffefbf" d="M20.619 33.034c.628-.935 1.498-1.822 1.797-2.408 1.594 1.971.399 3.498 1.735 4.021.563.22 1.292-.083 2.188-.649.294 1.405-.871 1.785.033 3.053.508.712 1.633.855 1.633.855-.905 1.308-2.473 2.112-4.666 2.112-1.441 0-4.31-.836-4.883-2.41.248.169 1.307-.094 1.632-.651.502-.86-.364-2.58.531-3.923z"/><path fill="#ffefc0" d="M20.636 33.077c.619-.929 1.479-1.799 1.781-2.387 1.581 1.961.383 3.485 1.723 4.007.559.218 1.288-.097 2.173-.655.292 1.39-.867 1.769.032 3.027.509.712 1.623.856 1.623.856-.902 1.292-2.449 2.087-4.626 2.087-1.431 0-4.283-.831-4.851-2.393.246.168 1.298-.094 1.621-.648.496-.852-.36-2.559.524-3.894z"/><path fill="#fff0c1" d="M20.653 33.121c.611-.922 1.459-1.775 1.764-2.366 1.569 1.951.368 3.472 1.711 3.994.555.216 1.285-.111 2.158-.66.29 1.375-.862 1.753.031 3.001.509.712 1.613.857 1.613.857-.898 1.277-2.426 2.061-4.586 2.061-1.42 0-4.255-.825-4.819-2.377.244.167 1.289-.095 1.609-.644.493-.846-.354-2.54.519-3.866z"/><path fill="#fff0c3" d="M20.669 33.164c.603-.916 1.44-1.752 1.748-2.345 1.557 1.941.353 3.458 1.698 3.981.551.214 1.281-.125 2.143-.666.288 1.36-.858 1.737.029 2.975.51.712 1.604.858 1.604.858-.894 1.262-2.402 2.035-4.547 2.035-1.41 0-4.227-.82-4.787-2.36.242.166 1.28-.095 1.598-.64.49-.839-.347-2.521.514-3.838z"/><path fill="#fff0c4" d="M20.686 33.207c.594-.909 1.421-1.728 1.731-2.324 1.545 1.931.337 3.445 1.686 3.968.547.212 1.278-.139 2.127-.671.287 1.344-.853 1.721.028 2.949.511.712 1.594.859 1.594.859-.891 1.247-2.378 2.009-4.507 2.009-1.399 0-4.199-.814-4.755-2.343.241.164 1.27-.095 1.586-.636.487-.833-.339-2.502.51-3.811z"/><path fill="#fff0c5" d="M20.703 33.251c.586-.903 1.401-1.704 1.715-2.303 1.533 1.921.322 3.432 1.674 3.954.543.21 1.274-.153 2.112-.676.285 1.329-.849 1.705.027 2.923.511.712 1.585.86 1.585.86-.887 1.232-2.355 1.983-4.468 1.983-1.389 0-4.171-.809-4.723-2.326.239.163 1.261-.096 1.574-.632.483-.828-.334-2.484.504-3.783z"/><path fill="#fff1c7" d="M20.719 33.294c.577-.896 1.382-1.681 1.698-2.282 1.521 1.911.307 3.419 1.661 3.941.539.208 1.27-.167 2.097-.682.283 1.314-.844 1.688.026 2.897.512.711 1.575.861 1.575.861-.883 1.216-2.331 1.958-4.428 1.958-1.378 0-4.143-.804-4.691-2.309.237.162 1.252-.096 1.563-.629.48-.821-.327-2.464.499-3.755z"/><path fill="#fff1c8" d="M20.736 33.337c.569-.889 1.362-1.657 1.682-2.261 1.509 1.901.291 3.406 1.649 3.928.535.206 1.267-.181 2.082-.687.282 1.299-.84 1.672.025 2.871.513.711 1.565.862 1.565.862-.879 1.201-2.308 1.932-4.388 1.932-1.368 0-4.116-.798-4.659-2.292.235.161 1.243-.096 1.551-.625.475-.815-.322-2.445.493-3.728z"/><path fill="#fff1c9" d="M20.753 33.38c.56-.883 1.343-1.634 1.665-2.24 1.497 1.891.276 3.393 1.637 3.914.532.204 1.263-.195 2.067-.693.28 1.284-.835 1.656.024 2.845.514.711 1.556.863 1.556.863-.876 1.186-2.284 1.906-4.349 1.906-1.357 0-4.088-.793-4.627-2.275.233.159 1.234-.096 1.54-.621.471-.807-.317-2.425.487-3.699z"/><path fill="#fff2ca" d="M20.769 33.424c.552-.876 1.323-1.61 1.649-2.218 1.484 1.881.261 3.38 1.624 3.901.528.202 1.26-.209 2.052-.698.278 1.269-.831 1.64.022 2.819.514.711 1.546.864 1.546.864-.872 1.171-2.26 1.88-4.309 1.88-1.347 0-4.06-.787-4.595-2.258.231.158 1.225-.097 1.528-.617.469-.803-.308-2.408.483-3.673z"/><path fill="#fff2cc" d="M20.786 33.467c.544-.87 1.304-1.587 1.633-2.197 1.472 1.871.245 3.367 1.612 3.888.524.2 1.256-.223 2.036-.704.276 1.254-.826 1.624.021 2.793.515.711 1.536.864 1.536.864-.868 1.156-2.237 1.855-4.27 1.855-1.336 0-4.032-.782-4.563-2.241.23.157 1.215-.097 1.517-.613.465-.797-.302-2.389.478-3.645z"/><path fill="#fff2cd" d="M20.803 33.51c.535-.863 1.285-1.563 1.616-2.176 1.46 1.861.23 3.354 1.6 3.875.52.197 1.252-.237 2.021-.709.275 1.239-.822 1.608.02 2.767.516.71 1.527.865 1.527.865-.865 1.14-2.213 1.829-4.23 1.829-1.326 0-4.004-.777-4.531-2.224.228.156 1.206-.097 1.505-.61.46-.79-.297-2.369.472-3.617z"/><path fill="#fff3ce" d="M20.819 33.554c.527-.857 1.265-1.54 1.6-2.155 1.448 1.851.215 3.341 1.587 3.861.516.195 1.249-.251 2.006-.715.273 1.223-.817 1.592.019 2.741.517.71 1.517.866 1.517.866-.861 1.125-2.19 1.803-4.19 1.803-1.315 0-3.977-.771-4.499-2.207.226.155 1.197-.098 1.494-.606.457-.783-.291-2.349.466-3.588z"/><path fill="#fff3d0" d="M20.836 33.597c.518-.85 1.246-1.516 1.583-2.134 1.436 1.841.199 3.328 1.575 3.848.512.193 1.245-.265 1.991-.72.271 1.208-.812 1.575.018 2.715.517.71 1.507.867 1.507.867-.857 1.11-2.166 1.777-4.151 1.777-1.304 0-3.949-.766-4.467-2.19.224.153 1.188-.098 1.482-.602.454-.777-.284-2.331.462-3.561z"/><path fill="#fff3d1" d="M20.853 33.64c.51-.844 1.226-1.493 1.567-2.113 1.424 1.831.184 3.315 1.563 3.835.508.191 1.241-.279 1.976-.725.27 1.193-.808 1.559.016 2.689.518.71 1.498.868 1.498.868-.854 1.095-2.143 1.752-4.111 1.752-1.294 0-3.921-.76-4.435-2.174.222.152 1.179-.098 1.47-.598.449-.771-.278-2.312.456-3.534z"/><path fill="#fff4d2" d="M20.869 33.684c.501-.837 1.207-1.469 1.55-2.092 1.412 1.821.168 3.302 1.551 3.821.504.189 1.238-.293 1.961-.731.268 1.178-.803 1.543.015 2.663.519.71 1.488.869 1.488.869-.85 1.079-2.119 1.726-4.072 1.726-1.283 0-3.893-.755-4.403-2.157.221.151 1.17-.098 1.459-.595.447-.764-.271-2.292.451-3.504z"/><path fill="#fff4d3" d="M20.886 33.727c.493-.831 1.187-1.446 1.534-2.071 1.4 1.811.153 3.289 1.538 3.808.5.187 1.234-.307 1.945-.736.266 1.163-.799 1.527.014 2.637.52.709 1.478.87 1.478.87-.846 1.064-2.095 1.7-4.032 1.7-1.273 0-3.865-.75-4.371-2.14.219.15 1.16-.099 1.447-.591.444-.758-.264-2.273.447-3.477z"/><path fill="#fff4d5" d="M20.903 33.77c.485-.824 1.168-1.422 1.517-2.05 1.388 1.801.138 3.277 1.526 3.795.496.185 1.231-.321 1.93-.742.264 1.148-.794 1.511.013 2.611.52.709 1.469.871 1.469.871-.842 1.049-2.072 1.674-3.992 1.674-1.262 0-3.837-.744-4.339-2.123.217.148 1.151-.099 1.436-.587.438-.751-.26-2.254.44-3.449z"/><path fill="#fff5d6" d="M20.919 33.813c.476-.818 1.149-1.399 1.501-2.029 1.375 1.791.122 3.264 1.514 3.782.492.183 1.227-.335 1.915-.747.263 1.133-.79 1.495.012 2.585.521.709 1.459.872 1.459.872-.839 1.034-2.048 1.648-3.953 1.648-1.252 0-3.81-.739-4.307-2.106.215.147 1.142-.099 1.424-.583.436-.745-.253-2.235.435-3.422z"/><path fill="#fff5d7" d="M20.936 33.857c.468-.811 1.129-1.375 1.484-2.008 1.363 1.781.107 3.251 1.501 3.768.488.181 1.223-.349 1.9-.753.261 1.118-.785 1.479.011 2.559.522.709 1.45.873 1.45.873-.835 1.019-2.025 1.623-3.913 1.623-1.241 0-3.782-.733-4.275-2.089.213.146 1.133-.1 1.413-.579.431-.739-.247-2.216.429-3.394z"/><path fill="#fff5d9" d="M20.953 33.9c.459-.805 1.11-1.352 1.468-1.987 1.351 1.771.091 3.238 1.489 3.755.484.179 1.22-.363 1.885-.758.259 1.103-.78 1.462.009 2.533.523.708 1.44.874 1.44.874-.831 1.003-2.001 1.597-3.873 1.597-1.231 0-3.754-.728-4.243-2.072.212.145 1.124-.1 1.401-.576.427-.733-.241-2.197.424-3.366z"/><path fill="#fff6da" d="M20.969 33.943c.451-.798 1.09-1.328 1.451-1.966 1.339 1.761.076 3.225 1.477 3.742.48.177 1.216-.377 1.87-.764.257 1.087-.776 1.446.008 2.507.524.708 1.43.875 1.43.875-.828.988-1.978 1.571-3.834 1.571-1.22 0-3.726-.722-4.211-2.055.21.143 1.114-.1 1.39-.572.424-.726-.234-2.177.419-3.338z"/><path fill="#fff6db" d="M20.986 33.987c.442-.791 1.071-1.305 1.435-1.944 1.327 1.751.061 3.213 1.464 3.728.476.175 1.213-.391 1.854-.769.256 1.072-.771 1.43.007 2.481.524.708 1.421.876 1.421.876-.824.973-1.954 1.545-3.794 1.545-1.21 0-3.698-.717-4.179-2.038.208.142 1.105-.1 1.378-.568.421-.721-.228-2.16.414-3.311z"/><path fill="#fff6dd" d="M21.003 34.03c.434-.785 1.051-1.281 1.418-1.923 1.315 1.741.045 3.2 1.452 3.715.472.173 1.209-.405 1.839-.774.254 1.057-.765 1.412.006 2.455.527.707 1.411.877 1.411.877-.82.958-1.93 1.52-3.755 1.52-1.199 0-3.67-.712-4.147-2.021.206.141 1.096-.101 1.367-.564.417-.716-.222-2.142.409-3.285z"/><path fill="#fff7de" d="M21.019 34.073c.425-.778 1.032-1.258 1.402-1.902 1.303 1.731.03 3.187 1.44 3.702.468.171 1.205-.419 1.824-.78.252 1.042-.76 1.396.005 2.429.527.707 1.401.878 1.401.878-.816.943-1.907 1.494-3.715 1.494-1.189 0-3.643-.706-4.115-2.004.204.14 1.087-.101 1.355-.56.413-.709-.215-2.122.403-3.257z"/><path fill="#fff7df" d="M21.036 34.117c.417-.772 1.013-1.234 1.385-1.881 1.291 1.721.013 3.177 1.427 3.689.464.17 1.202-.433 1.809-.785.251 1.027-.756 1.38.004 2.403.528.707 1.392.879 1.392.879-.813.927-1.883 1.468-3.675 1.468-1.178 0-3.615-.701-4.083-1.987.202.138 1.078-.101 1.343-.557.41-.704-.209-2.104.398-3.229z"/><path fill="#fff7e0" d="M21.053 34.16c.409-.765.993-1.211 1.369-1.86 1.278 1.711-.002 3.163 1.415 3.675.46.167 1.198-.446 1.794-.791.249 1.012-.752 1.365.002 2.377.528.706 1.382.88 1.382.88-.809.912-1.86 1.442-3.636 1.442-1.167 0-3.587-.695-4.051-1.97.201.137 1.069-.102 1.332-.553.406-.696-.203-2.083.393-3.2z"/><path fill="#fff8e2" d="M21.069 34.203c.4-.759.974-1.187 1.352-1.839 1.266 1.701-.017 3.15 1.403 3.662.456.165 1.195-.46 1.779-.796.247.997-.748 1.349.001 2.351.529.706 1.372.881 1.372.881-.805.897-1.836 1.417-3.596 1.417-1.157 0-3.559-.69-4.019-1.954.199.136 1.059-.102 1.32-.549.403-.69-.196-2.065.388-3.173z"/><path fill="#fff8e3" d="M21.086 34.246c.392-.752.954-1.164 1.336-1.818 1.254 1.69-.032 3.137 1.391 3.649.452.163 1.191-.474 1.764-.802.245.982-.744 1.333 0 2.325.529.706 1.363.882 1.363.882-.802.882-1.813 1.391-3.557 1.391-1.146 0-3.531-.685-3.987-1.937.197.135 1.05-.102 1.309-.545.398-.683-.192-2.045.381-3.145z"/></svg>