<svg xmlns="http://www.w3.org/2000/svg" width="28" height="21"><defs><filter id="a" x="0" y="0" width="28" height="21" filterUnits="userSpaceOnUse"><feOffset dy="1"/><feGaussianBlur stdDeviation="1" result="blur"/><feFlood flood-color="#094a59" flood-opacity=".302"/><feComposite operator="in" in2="blur"/><feComposite in="SourceGraphic"/></filter></defs><g data-name="GIF"><g filter="url(#a)"><text data-name="GIF" transform="translate(14 14)" fill="#fff" font-size="12" font-family="AvenirNextCyr-Heavy, Avenir Next Cyr" font-weight="800"><tspan x="-10.29" y="0">GIF</tspan></text></g><path data-name="Color Overlay" d="M8.822 14.216a4.791 4.791 0 01-3.372-1.224 4.19 4.19 0 01-1.332-3.24 4.242 4.242 0 011.326-3.246 4.618 4.618 0 013.282-1.242 5.519 5.519 0 011.884.324 3.9 3.9 0 011.464.888l-1.668 2a1.859 1.859 0 00-1.512-.684 1.741 1.741 0 00-1.278.552 1.913 1.913 0 00-.546 1.4 2.119 2.119 0 00.48 1.47 1.871 1.871 0 001.464.534 1.53 1.53 0 00.672-.12v-.648H8.318V8.736h3.9v4.644a5.883 5.883 0 01-1.542.594 7.573 7.573 0 01-1.854.242zM13.646 14V5.5h2.88V14zm7.26-6.108v.9H23.5v2.328h-2.58V14h-2.81V5.5h5.736v2.388z" fill="#fff"/></g></svg>