<svg width="58" height="58" fill="none" xmlns="http://www.w3.org/2000/svg"><path d="M21.5 18l20 11-20 11V18z" fill="#E3E2E2"/><path d="M28.879 0C21.133.033 13.86 3.08 8.406 8.58 2.952 14.081-.033 21.377 0 29.123c.033 7.746 3.08 15.017 8.58 20.47C14.051 55.02 21.295 58 28.994 58h.127c7.746-.033 15.019-3.08 20.473-8.58 5.454-5.501 8.439-12.797 8.406-20.543-.033-7.746-3.08-15.017-8.58-20.47C43.949 2.98 36.705 0 29.006 0h-.127zm.008 2h.119c7.167 0 13.913 2.776 19.006 7.826 5.122 5.078 7.958 11.849 7.988 19.06.03 7.213-2.748 14.005-7.826 19.126-5.078 5.12-11.849 7.957-19.06 7.988h-.12c-7.167 0-13.913-2.776-19.006-7.826C4.866 43.096 2.03 36.325 2 29.114 1.97 21.9 4.748 15.108 9.826 9.987 14.904 4.868 21.675 2.031 28.886 2zm-.233 3.006A23.04 23.04 0 0017.52 8.064a.998.998 0 10.998 1.73c4.125-2.376 9-3.278 13.728-2.542a1.001 1.001 0 00.309-1.977 23.126 23.126 0 00-3.9-.27zm7.91 1.35a1 1 0 00-.3 1.937c.712.262 1.42.566 2.103.908a1.002 1.002 0 001.342-.447 1 1 0 00-.447-1.342 23.025 23.025 0 00-2.307-.998.99.99 0 00-.39-.059zM20.98 16a1.002 1.002 0 00-.98 1v24a1.001 1.001 0 001.479.879l22-12a1.002 1.002 0 000-1.758l-22-12A1.003 1.003 0 0020.98 16zM22 18.686L40.912 29 22 39.316v-20.63zm16.701 27.667a1.002 1.002 0 00-.736 1.497l1.006 1.728a1 1 0 001.728-1.006l-1.008-1.728a.998.998 0 00-.99-.49zm-19.254.082a1 1 0 00-.986.499l-.994 1.736a1 1 0 001.736.992l.992-1.734a1.001 1.001 0 00-.748-1.492zm14.817 1.89a.998.998 0 00-1.096 1.252l.525 1.93a1 1 0 101.93-.526l-.525-1.93c-.11-.4-.449-.675-.834-.727zm-10.364.044a1.001 1.001 0 00-.828.733l-.51 1.933a1 1 0 101.934.512l.51-1.936A.999.999 0 0023.9 48.37zm5.184.631a.999.999 0 00-.994 1.004l.008 2a1 1 0 001 .996h.004a1 1 0 00.996-1.004l-.008-2a1 1 0 00-1-.996h-.006z" fill="#fff"/></svg>