<svg width="65" height="64" fill="none" xmlns="http://www.w3.org/2000/svg"><path d="M33.761 4.144l7.444 15.804a1.968 1.968 0 001.475 1.123l16.645 2.534a2.08 2.08 0 011.086 3.502L48.367 39.408a2.114 2.114 0 00-.564 1.817l2.843 17.37a1.98 1.98 0 01-2.843 2.165l-14.887-8.201a1.88 1.88 0 00-1.823 0l-14.888 8.2a1.98 1.98 0 01-2.842-2.163l2.843-17.37a2.114 2.114 0 00-.564-1.818L3.598 27.107a2.08 2.08 0 011.086-3.502l16.645-2.534a1.968 1.968 0 001.475-1.123l7.444-15.804a1.92 1.92 0 013.513 0z" stroke="#34BAD9" stroke-width="6"/></svg>