<svg xmlns="http://www.w3.org/2000/svg" viewBox="0 0 16 16"><path d="M10.797.977a1.508 1.508 0 00-.293.039h-.008L3.07 3.172c-.64.18-1.07.781-1.07 1.45v7.831c0 .836.66 1.559 1.5 1.559h9c.836 0 1.5-.719 1.5-1.559V5.57c0-.843-.66-1.562-1.5-1.562H3.781l6.965-2.024h.004c.102-.027.129-.007.168.028A.335.335 0 0111 2.25V3h1v-.75c0-.375-.14-.734-.418-.98a1.181 1.181 0 00-.785-.293zM3.5 5.007h9c.266 0 .5.231.5.563v6.883c0 .328-.234.559-.5.559h-9c-.266 0-.5-.23-.5-.559V5.57c0-.332.234-.562.5-.562zM11 8c-.55 0-1 .45-1 1s.45 1 1 1 1-.45 1-1-.45-1-1-1z"/></svg>