<svg xmlns="http://www.w3.org/2000/svg" width="14" height="15"><path data-name="Forma 1" d="M1.211 4.5a6.164 6.164 0 013.68-2.62.359.359 0 00.261-.22.393.393 0 00-.03-.35A2.755 2.755 0 002.774 0 2.8 2.8 0 00.599 4.53a.351.351 0 00.313.14.367.367 0 00.299-.17zM11.226 0a2.766 2.766 0 00-2.342 1.3.393.393 0 00-.031.35.4.4 0 00.263.23 6.127 6.127 0 013.7 2.59.347.347 0 00.3.17.372.372 0 00.312-.14A2.8 2.8 0 0011.226 0zm1.907 8.56a6.159 6.159 0 00-5.184-6.08 7.051 7.051 0 00-.927-.08 6.189 6.189 0 00-.969.09 6.1 6.1 0 00-4.394 3.12 6.17 6.17 0 001.313 7.55l-.515.73a.709.709 0 00.164.98.669.669 0 00.4.13.7.7 0 00.566-.3l.515-.73a6.053 6.053 0 005.837 0l.515.73a.676.676 0 00.566.3.669.669 0 00.4-.13.709.709 0 00.164-.98l-.515-.73a6.159 6.159 0 002.064-4.6zM7.022 13a4.439 4.439 0 01-.679-8.82 5.046 5.046 0 01.679-.05 4.5 4.5 0 01.64.05 4.388 4.388 0 013.227 2.26A4.446 4.446 0 017.022 13zm2.466-3.4L7.809 8.56a.805.805 0 00-.291-.49l.077-2.13a.487.487 0 10-.974-.03l-.078 2.12a.821.821 0 00.468 1.49.717.717 0 00.354-.09l1.611 1.01a.476.476 0 00.256.07.484.484 0 00.415-.23.5.5 0 00-.159-.68z" fill="#dec890" fill-rule="evenodd"/></svg>