<svg xmlns="http://www.w3.org/2000/svg" width="20" height="20"><defs><filter id="a" x="366" y="595" width="20" height="20" filterUnits="userSpaceOnUse"><feFlood result="flood"/><feComposite result="composite" operator="in" in2="SourceGraphic"/><feBlend result="blend" in2="SourceGraphic"/></filter></defs><path d="M386 605.251a3.969 3.969 0 00-3.246-3.585 7.2 7.2 0 00-7.183-6.666h-.039a2.692 2.692 0 00-1.874.754.782.782 0 101.086 1.125 1.134 1.134 0 11.788 1.949h-.041a6.09 6.09 0 01-1.821-.285 5.4 5.4 0 00-1.582-.264h-.157a3.668 3.668 0 00-3.4 5.064 2.911 2.911 0 00-2.532 2.88 3.075 3.075 0 002.78 2.894l.034.007a.037.037 0 010 .011l1.042 5.234a.783.783 0 00.768.629H381.5a.782.782 0 00.769-.633l1-5.156a.8.8 0 00.01-.229q.261-.072.512-.151a.782.782 0 10-.469-1.491 23.729 23.729 0 01-6.91.886 44.017 44.017 0 01-7.35-.644.238.238 0 00-.037-.006 1.543 1.543 0 01-1.457-1.351 1.346 1.346 0 011.345-1.343 3.68 3.68 0 011.556.466c1.243.562 3.121 1.409 7.57 1.409a.781.781 0 100-1.562 15 15 0 01-6.528-1.093.8.8 0 00-.272-.163 2.106 2.106 0 01.695-4.095h.157a3.941 3.941 0 011.156.2 7.607 7.607 0 002.288.344.755.755 0 00.083 0 2.7 2.7 0 002.617-2.693 2.632 2.632 0 00-.046-.489 5.636 5.636 0 012.992 4.417c-.71.041-1.35.135-1.973.226a14.94 14.94 0 01-4.928.073.782.782 0 10-.23 1.546 16.525 16.525 0 002.446.192 19.047 19.047 0 002.939-.265 16.292 16.292 0 012.478-.231h.128a2.415 2.415 0 012.4 2.21.783.783 0 00.78.72h.062a.782.782 0 00.717-.841zm-15.538 4.132a51.74 51.74 0 001.689.195l.433 3.859h-1.315zm6.4.407q.84-.009 1.633-.057l-.415 3.7h-1.218v-3.643zm3.99 3.647h-1.2l.431-3.845q.807-.095 1.557-.234zm-5.555-3.66v3.66h-1.14l-.418-3.732.157.01q.714.044 1.404.062zm7.032-4.249a.781.781 0 01-.635.9l-.665.118a.914.914 0 01-.137.011.781.781 0 01-.135-1.55l.665-.117a.782.782 0 01.907.638z" transform="translate(-366 -595)" fill="#e91c23" fill-rule="evenodd" filter="url(#a)"/></svg>