<svg xmlns="http://www.w3.org/2000/svg" width="20" height="20"><defs><filter id="a" x="367" y="694" width="20" height="20" filterUnits="userSpaceOnUse"><feFlood result="flood"/><feComposite result="composite" operator="in" in2="SourceGraphic"/><feBlend result="blend" in2="SourceGraphic"/></filter></defs><path d="M369.942 703.291a.782.782 0 00-1.105 0 6.273 6.273 0 108.872 8.871.782.782 0 000-1.105zm2.448 9.063a4.657 4.657 0 01-1.85-.79l1.846-1.845zm-3.745-3.744h2.635l-1.845 1.845a4.647 4.647 0 01-.79-1.849zm.79-3.616l2.059 2.058h-2.883a4.658 4.658 0 01.824-2.054zm4.517 7.394v-2.882l2.058 2.059a4.661 4.661 0 01-2.054.823zM386.219 694h-4a2.344 2.344 0 00-2.327 2.065l-.127 1.06h-7.176a.782.782 0 00-.781.789c0 .093.027 2.313.3 5.03l.012.119a.607.607 0 00.019.105.778.778 0 001.276.448 4.231 4.231 0 012.374-.944 6.262 6.262 0 012.078.611c.355.145.727.3 1.114.432l-.668 5.583a.781.781 0 00.683.868.754.754 0 00.094.006.782.782 0 00.775-.689l.643-5.38a5.362 5.362 0 00.744.053 5.1 5.1 0 002.452-.637 19.562 19.562 0 01-1.722 6.875 5.5 5.5 0 00-.678 2.043h-1.64a.782.782 0 000 1.563h2.382a.782.782 0 00.782-.781v-.148a3.877 3.877 0 01.513-1.906c2.3-4.047 2.225-12.893 2.221-13.268a.781.781 0 00-.781-.772h-3.438l.1-.874a.782.782 0 01.776-.689h4a.781.781 0 100-1.562zm-7.769 7.836a7.274 7.274 0 00-2.669-.727 5.036 5.036 0 00-2.225.57 64.67 64.67 0 01-.17-2.992h6.188l-.411 3.434c-.239-.091-.477-.189-.713-.285zm5.536-3.149c-.01.638-.038 1.622-.114 2.773a3.617 3.617 0 01-3.186 1.091l.462-3.864h2.838zm0 0" transform="translate(-367 -694)" fill="#e91c23" fill-rule="evenodd" filter="url(#a)"/></svg>