<svg xmlns="http://www.w3.org/2000/svg" width="20" height="20"><defs><filter id="a" x="367" y="245" width="20" height="20" filterUnits="userSpaceOnUse"><feFlood result="flood"/><feComposite result="composite" operator="in" in2="SourceGraphic"/><feBlend result="blend" in2="SourceGraphic"/></filter></defs><path d="M377 265a10.026 10.026 0 118.306-4.449.781.781 0 11-1.3-.868 8.382 8.382 0 10-2.642 2.539.781.781 0 01.809 1.337A9.979 9.979 0 01377 265zm3.594-4.869a1.5 1.5 0 00.551-1.7l-.666-2.037 1.746-1.26a1.534 1.534 0 00.558-1.72 1.511 1.511 0 00-1.457-1.066h-2.17l-.661-2.032a1.533 1.533 0 00-2.913 0l-.66 2.03h-2.17a1.512 1.512 0 00-1.457 1.066 1.534 1.534 0 00.558 1.72l1.746 1.26-.666 2.037a1.531 1.531 0 002.355 1.71l1.751-1.265 1.751 1.265a1.512 1.512 0 001.8-.005zm-5.657-6.225a1.516 1.516 0 001.456-1.033l.646-1.987.646 1.989a1.517 1.517 0 001.456 1.031h2.108l-1.706 1.232a1.519 1.519 0 00-.558 1.71l.642 1.965-1.69-1.22a1.535 1.535 0 00-1.8 0l-1.691 1.22.643-1.965a1.519 1.519 0 00-.558-1.71l-1.706-1.232h2.108zm6.392 0zm0 0" transform="translate(-367 -245)" fill="#ed1c24" fill-rule="evenodd" filter="url(#a)"/></svg>