<svg xmlns="http://www.w3.org/2000/svg" width="21" height="28"><defs><filter id="a" x="1010" y="172" width="21" height="28" filterUnits="userSpaceOnUse"><feFlood result="flood"/><feComposite result="composite" operator="in" in2="SourceGraphic"/><feBlend result="blend" in2="SourceGraphic"/></filter></defs><path d="M1031 172h-7.01l-.25.33a17.953 17.953 0 00-2.67 6.85h-2.6l-.76 1.624h-2.13v-1.458H1010v13.307h5.58V191.2h2.3l.86 1.625h2.32a18.061 18.061 0 002.68 6.85l.25.33h7.01v-6.791l-2.69-1.324a2.766 2.766 0 00.73-1.885 2.8 2.8 0 00-.84-2 2.8 2.8 0 000-4 2.8 2.8 0 00.84-2 2.765 2.765 0 00-.73-1.885l2.69-1.325V172zm-4.82 11.179v1.641a1.18 1.18 0 110 2.36v1.64a1.18 1.18 0 110 2.359h-6.43l-.86-1.624h-3.31v-7.11h3.19l.77-1.625h6.64a1.18 1.18 0 110 2.359zm3.15 15.18h-4.47a18.424 18.424 0 01-2.09-5.539h3.41c.09 0 .18 0 .27-.013l2.88 1.416v4.136zm-17.66-7.346v-10.026h2.24v10.026h-2.24zm17.66-13.236l-2.88 1.416a2.711 2.711 0 00-.27-.013h-3.4a24.111 24.111 0 01.79-2.778 15.5 15.5 0 011.29-2.762h4.47v4.137zm0 0" transform="translate(-1010 -172)" fill="#dec890" fill-rule="evenodd" filter="url(#a)"/></svg>