<svg xmlns="http://www.w3.org/2000/svg" width="20" height="20"><defs><filter id="a" x="366" y="395" width="20" height="20" filterUnits="userSpaceOnUse"><feFlood result="flood"/><feComposite result="composite" operator="in" in2="SourceGraphic"/><feBlend result="blend" in2="SourceGraphic"/></filter></defs><path d="M375.583 399.288a.78.78 0 00.781-.779 1.658 1.658 0 01.488-.545 2.858 2.858 0 001.221-2.184.782.782 0 00-1.563 0 1.452 1.452 0 01-.7 1.02 2.312 2.312 0 00-1.012 1.709.781.781 0 00.785.779zm9.636 8.077a.781.781 0 00-.782.78v.032a.43.43 0 01-.429.429.808.808 0 00-.185.023 1.727 1.727 0 01-.683-.472 2.5 2.5 0 00-1.8-.752 2.5 2.5 0 00-1.792.742 1.406 1.406 0 01-.862.5h-.033a1.366 1.366 0 01-.834-.5 2.5 2.5 0 00-1.8-.752 2.5 2.5 0 00-1.793.742 1.4 1.4 0 01-.861.5h-.034a1.367 1.367 0 01-.833-.5 2.506 2.506 0 00-1.8-.752 2.5 2.5 0 00-1.793.742 1.516 1.516 0 01-.812.5.755.755 0 00-.083 0 .43.43 0 01-.43-.429 2.874 2.874 0 01.542-1.693 10.245 10.245 0 014.509-3.575 5.478 5.478 0 00-.443.762.778.778 0 00.369 1.039.781.781 0 001.041-.369 3.824 3.824 0 011.678-1.75v1.415a.781.781 0 001.562 0v-1.373a3.828 3.828 0 011.6 1.708.781.781 0 001.411-.67 5.351 5.351 0 00-.408-.71 11.076 11.076 0 013.7 2.6.78.78 0 001.123-1.083 11.208 11.208 0 00-8.209-3.747h-.078a11.252 11.252 0 00-9.132 4.851 4.4 4.4 0 00-.829 2.6 1.992 1.992 0 001.826 1.981l.844 2.565a3.14 3.14 0 003 2.238h8.656a3.126 3.126 0 003.019-2.316l.737-2.476a.743.743 0 00.258-.071 1.991 1.991 0 001.662-1.96v-.032a.781.781 0 00-.799-.767zm-3.377 4.887a.217.217 0 01-.007.024 1.561 1.561 0 01-1.511 1.164h-8.656a1.568 1.568 0 01-1.5-1.125c0-.009 0-.018-.008-.027l-.822-2.5a4.008 4.008 0 00.663-.548.946.946 0 01.68-.278.956.956 0 01.687.284 2.764 2.764 0 001.95.964h.034a2.809 2.809 0 001.974-.97.946.946 0 01.68-.278.956.956 0 01.687.284 2.764 2.764 0 001.951.964h.033a2.805 2.805 0 001.974-.97.948.948 0 01.68-.278.952.952 0 01.687.284 4.071 4.071 0 00.568.486zm-2.082-12.964a.78.78 0 00.781-.779 1.652 1.652 0 01.489-.545 2.857 2.857 0 001.22-2.184.782.782 0 00-1.563 0 1.449 1.449 0 01-.7 1.02 2.314 2.314 0 00-1.011 1.709.779.779 0 00.784.779zm-8.391 0a.78.78 0 00.781-.779 1.652 1.652 0 01.489-.545 2.86 2.86 0 001.22-2.184.782.782 0 00-1.563 0 1.452 1.452 0 01-.7 1.02 2.312 2.312 0 00-1.012 1.709.781.781 0 00.785.779z" transform="translate(-366 -395)" fill="#dec890" fill-rule="evenodd" filter="url(#a)"/></svg>