<svg xmlns="http://www.w3.org/2000/svg" width="17.031" height="17"><defs><filter id="a" x="368" y="346" width="17.031" height="17" filterUnits="userSpaceOnUse"><feFlood result="flood"/><feComposite result="composite" operator="in" in2="SourceGraphic"/><feBlend result="blend" in2="SourceGraphic"/></filter></defs><path d="M380.935 359.373l2.888-.962a1.619 1.619 0 00.232-.1 1.753 1.753 0 00.783-2.356 24.35 24.35 0 00-9.79-9.77 1.751 1.751 0 00-2.457 1.013l-4.5 13.487a1.756 1.756 0 002.225 2.22l8.919-2.969q-.461-.787-.975-1.526l-8.5 2.83 4.5-13.487a22.623 22.623 0 019.008 8.989l-3.276 1.091q.496.751.943 1.54zm-9.036-9.1a24.021 24.021 0 015.023 3.813 23.533 23.533 0 013.707 4.763l1.531-.862a23.4 23.4 0 00-4-5.142 25.766 25.766 0 00-5.388-4.093zm3.779 3.813a1.756 1.756 0 11-2.486 0 1.752 1.752 0 012.486.002zm-2.487 3.724l1.243 1.24-1.243 1.242-1.244-1.242z" transform="translate(-368 -346)" fill="#ed1c24" fill-rule="evenodd" filter="url(#a)"/></svg>