<svg xmlns="http://www.w3.org/2000/svg" width="26" height="20"><path data-name="Forma 1" d="M24.168 5.3h-.711v7.635a2.087 2.087 0 01-2.131 2.264H7.4v.364a2.487 2.487 0 002.483 2.111H20.53l4.074 2.338-.592-2.338h.156a1.89 1.89 0 001.824-2.111V7.112A1.655 1.655 0 0024.168 5.3zM19.246-.005H3.067C1.644-.005.005 1.23.005 2.419v9.57c0 1.1 1.388 1.886 2.719 2.008L1.859 17.2l5.552-3.187h11.835c1.423 0 2.737-.842 2.737-2.03v-9.57A2.768 2.768 0 0019.246-.01zM5.535 8.073A1.427 1.427 0 117 6.642a1.444 1.444 0 01-1.464 1.426zm5.459 0a1.427 1.427 0 111.462-1.426 1.444 1.444 0 01-1.461 1.421zm5.46 0a1.427 1.427 0 111.461-1.426 1.444 1.444 0 01-1.461 1.421z" fill="#ee2a2a" fill-rule="evenodd"/></svg>