<svg xmlns="http://www.w3.org/2000/svg" width="22" height="22.031"><defs><filter id="a" x="1224" y="85" width="22" height="22.031" filterUnits="userSpaceOnUse"><feFlood result="flood"/><feComposite result="composite" operator="in" in2="SourceGraphic"/><feBlend result="blend" in2="SourceGraphic"/></filter></defs><path d="M1242.33 100.7V96a11.717 11.717 0 00-3.47-8.439 12.407 12.407 0 00-3.5-2.486.914.914 0 00-.72 0 12.407 12.407 0 00-3.5 2.486 11.717 11.717 0 00-3.47 8.439v4.7a5.307 5.307 0 00-3.67 5.379.917.917 0 00.92.917h3.66a.868.868 0 00.41-.1 12.853 12.853 0 014.41-1.2 10.613 10.613 0 00.97 1.044.915.915 0 001.26 0 10.716 10.716 0 00.97-1.043 12.853 12.853 0 014.41 1.2.868.868 0 00.41.1h3.66a.917.917 0 00.92-.917 5.307 5.307 0 00-3.67-5.379zm-14.66 1.932v2.531h-1.75a3.412 3.412 0 011.75-2.531zm7.33 2.12a4.1 4.1 0 01-.92-1.423.92.92 0 011.84 0 3.968 3.968 0 01-.92 1.422zm0-6.922a2.749 2.749 0 112.75-2.749 2.745 2.745 0 01-2.75 2.749zm.92 2.908v-1.165a4.583 4.583 0 10-1.84 0v1.167a2.76 2.76 0 00-1.83 2.592 1.838 1.838 0 00.12.654 15.246 15.246 0 00-2.87.711V96a9.758 9.758 0 012.89-7.095 2.716 2.716 0 015.22 0A9.758 9.758 0 011240.5 96v8.7a15.172 15.172 0 00-2.87-.712 1.833 1.833 0 00.12-.653 2.759 2.759 0 00-1.83-2.592zm6.41 4.425v-2.531a3.41 3.41 0 011.75 2.531h-1.75zm0 0l-5.5-11a.915.915 0 11-.91-.917.915.915 0 01.91.917zm0 0" transform="translate(-1224 -85)" fill="#dec890" fill-rule="evenodd" filter="url(#a)"/></svg>