<svg xmlns="http://www.w3.org/2000/svg" width="23" height="18"><defs><filter id="a" x="365" y="497" width="23" height="18" filterUnits="userSpaceOnUse"><feFlood result="flood"/><feComposite result="composite" operator="in" in2="SourceGraphic"/><feBlend result="blend" in2="SourceGraphic"/></filter></defs><path d="M385.112 512.974c.325-1.478 1.149-5.946 1.149-5.946 1.8-1.446 2.271-3.95 1.1-5.5a3.19 3.19 0 00-2.156-1.218 4.507 4.507 0 00-3.248.924 5.579 5.579 0 00-10.815-.055 4.52 4.52 0 00-3.3-.964 3.2 3.2 0 00-2.158 1.219 3.763 3.763 0 00-.579 3.073 4.479 4.479 0 001.7 2.521s.827 4.467 1.152 5.946A2.707 2.707 0 00370.5 515h12.07a2.707 2.707 0 002.542-2.026zm-8.573-14.439a4.126 4.126 0 014.086 4 3.655 3.655 0 00-3.4.715 4.792 4.792 0 00-.565.521 7.772 7.772 0 00-.961-.693 4.479 4.479 0 00-3.24-.625 4.126 4.126 0 014.08-3.918zm-7.971 7.931a3.47 3.47 0 01-1.992-2.3 2.236 2.236 0 01.3-1.794 1.691 1.691 0 011.154-.63 3.03 3.03 0 012.218.685 3.316 3.316 0 011.07 1.417.761.761 0 00.55.475.749.749 0 00.691-.21c.539-.547 1.894.057 2.449.341a10.205 10.205 0 01.834.631 2.9 2.9 0 00-.161 1.389h-1.793l-5.46-2.775a.451.451 0 00-.609.206.464.464 0 00.2.618l3.84 1.951h-3.3zm15.07 6.162a1.218 1.218 0 01-1.068.837H370.5a1.218 1.218 0 01-1.067-.837l-.954-4.628h16.111zm-2.55-6.162l2.717-1.489a.463.463 0 00.183-.623.451.451 0 00-.615-.187l-4.195 2.3h-1.934a1.93 1.93 0 01.9-2 1.879 1.879 0 012.329-.264.751.751 0 00.692.209.761.761 0 00.55-.474 3.313 3.313 0 011.07-1.418 3.03 3.03 0 012.219-.685 1.7 1.7 0 011.152.631c.678.895.267 2.377-.917 3.3a3.267 3.267 0 01-1.622.7h-2.531zm-4.549-5.358a.458.458 0 00.453-.461v-.768a.454.454 0 10-.907 0v.768a.458.458 0 00.454.461zm1.515.578a.443.443 0 00.226.062.452.452 0 00.393-.231l.378-.666a.462.462 0 00-.167-.628.449.449 0 00-.619.169l-.378.665a.464.464 0 00.167.629zm-3.65-.169a.453.453 0 00.394.231.443.443 0 00.226-.062.465.465 0 00.167-.629l-.378-.665a.45.45 0 00-.62-.169.465.465 0 00-.167.629z" transform="translate(-365 -497)" fill="#e91c23" fill-rule="evenodd" filter="url(#a)"/></svg>