<svg xmlns="http://www.w3.org/2000/svg" width="20" height="22"><defs><filter id="a" x="367" y="744" width="20" height="22" filterUnits="userSpaceOnUse"><feFlood result="flood"/><feComposite result="composite" operator="in" in2="SourceGraphic"/><feBlend result="blend" in2="SourceGraphic"/></filter></defs><path d="M374.643 748.419v-2.738h-2.407V744h-1.415v1.681h-2.407v2.738A1.611 1.611 0 00367 749.99V766h9.057v-16.01a1.611 1.611 0 00-1.414-1.571zm-1.415-1.377v1.358h-3.4v-1.361h3.4zm-4.814 17.6V749.99a.235.235 0 01.236-.227h5.757a.235.235 0 01.236.227v2.3h-3.822v8.528h3.822v3.822h-6.229zm6.229-10.989v5.807h-2.407v-5.81h2.407zm0 0l10.943-5.231v-2.738h-2.407V744h-1.415v1.681h-2.407v2.738a1.611 1.611 0 00-1.414 1.571V766H387v-16.01a1.611 1.611 0 00-1.414-1.571zm-1.415-1.377V748.4h-3.4v-1.361h3.4zm-4.814 17.6V749.99a.235.235 0 01.236-.227h5.757a.235.235 0 01.236.227v2.3h-3.822v8.528h3.822v3.822h-6.229zm6.229-10.989v5.807h-2.407V753.65h2.407zm0 0" transform="translate(-367 -744)" fill="#e91c23" fill-rule="evenodd" filter="url(#a)"/></svg>