<svg xmlns="http://www.w3.org/2000/svg" width="17" height="20"><defs><filter id="a" x="368" y="645" width="17" height="20" filterUnits="userSpaceOnUse"><feFlood result="flood"/><feComposite result="composite" operator="in" in2="SourceGraphic"/><feBlend result="blend" in2="SourceGraphic"/></filter></defs><path d="M384.807 651.753a.788.788 0 00-.594-.269h-.249l.677-4.387a.782.782 0 00-.664-.886.785.785 0 00-.893.659l-.713 4.619a3.225 3.225 0 00-1.228.314l.368-3.775a.787.787 0 00-1.569-.124l-.562 5.782a4.024 4.024 0 01-.913.847v-8.752a.787.787 0 00-1.574 0v9.35a3.306 3.306 0 01-.4.025 3.34 3.34 0 01-.631-.061l-.178-7.809a.787.787 0 00-1.573.036l.174 7.057a4.236 4.236 0 01-.9-.932l-.934-7.457a.787.787 0 00-1.562.195l.692 5.523a3.1 3.1 0 00-1.157-.224h-.054l-.387-2.622a.786.786 0 00-.893-.663.785.785 0 00-.665.885l.354 2.4a.789.789 0 00-.59.272.781.781 0 00-.181.627l1.536 10.038v.022a3.125 3.125 0 003.1 2.557h.056a3.155 3.155 0 00.444-.038 21.86 21.86 0 013.341-.313h.015a22.191 22.191 0 013.373.313 3.165 3.165 0 00.434.038h.061a3.117 3.117 0 003.088-2.555.787.787 0 00-1.549-.278 1.553 1.553 0 01-1.54 1.27h-.031a1.59 1.59 0 01-.217-.019 23.65 23.65 0 00-3.619-.333h-.016a23.348 23.348 0 00-3.585.333 1.707 1.707 0 01-.224.019h-.027a1.56 1.56 0 01-1.545-1.262l-1.4-9.129h.73a1.572 1.572 0 011.363.81 5.544 5.544 0 004.7 2.862 5.09 5.09 0 002.746-.819 5.625 5.625 0 001.894-2.038 1.593 1.593 0 011.406-.815h.76l-.841 5.876a.787.787 0 001.558.22l.969-6.767a.776.776 0 00-.185-.622zm0 0" transform="translate(-368 -645)" fill="#e91c23" fill-rule="evenodd" filter="url(#a)"/></svg>