<svg xmlns="http://www.w3.org/2000/svg" width="20" height="20"><defs><filter id="a" x="366" y="544" width="20" height="20" filterUnits="userSpaceOnUse"><feFlood result="flood"/><feComposite result="composite" operator="in" in2="SourceGraphic"/><feBlend result="blend" in2="SourceGraphic"/></filter></defs><path d="M385.219 550.523h-1.561l2.224-3.533a.782.782 0 00-1.327-.826l-2.741 4.359h-15.033a.781.781 0 00-.781.781v5.078a6.612 6.612 0 003.233 6.055h-1.671a.782.782 0 000 1.563h16.875a.782.782 0 100-1.563h-1.682l.1-.062a.781.781 0 00-.825-1.327 11.5 11.5 0 01-6.043 1.34 11.367 11.367 0 01-6.084-1.372 5.064 5.064 0 01-2.344-4.634v-.967a3.951 3.951 0 011.724.529 4.7 4.7 0 002.339.634 5.388 5.388 0 002.5-.657 4 4 0 011.875-.515 3.911 3.911 0 012.036.538 4.7 4.7 0 002.339.634 5.388 5.388 0 002.5-.657 4.32 4.32 0 011.562-.5v.962a6.321 6.321 0 01-.391 2.3.781.781 0 101.456.567 7.88 7.88 0 00.5-2.862V551.3a.781.781 0 00-.781-.781zM376 553.844a5.476 5.476 0 00-2.543.664 3.919 3.919 0 01-1.832.508 3.205 3.205 0 01-1.634-.466 5.476 5.476 0 00-2.429-.7v-1.765h13.269l-1.676 2.666c-.136-.061-.271-.129-.414-.2a5.455 5.455 0 00-2.741-.706zm6.207.664a4.56 4.56 0 01-1.356.473l1.823-2.895h1.763v1.767a5.651 5.651 0 00-2.23.655zm-13.16-6.993a2.311 2.311 0 011.041-1.719 1.474 1.474 0 00.717-1.015.781.781 0 111.562 0 2.854 2.854 0 01-1.256 2.2 1.846 1.846 0 00-.5.538.781.781 0 11-1.562 0zm4.18 0a2.317 2.317 0 011.017-1.713 1.474 1.474 0 00.7-1.021.782.782 0 011.563 0 2.863 2.863 0 01-1.228 2.19 1.74 1.74 0 00-.491.544.781.781 0 11-1.562 0zm4.179 0a2.315 2.315 0 011.018-1.713 1.474 1.474 0 00.7-1.021.781.781 0 111.562 0 2.863 2.863 0 01-1.227 2.19 1.728 1.728 0 00-.491.544.782.782 0 11-1.563 0zM376.2 558.3a.781.781 0 11-.781-.782.781.781 0 01.781.782zm3.946.586a.781.781 0 11-.782.781.781.781 0 01.782-.781zm-7.539-.508a.781.781 0 11-.782.781.781.781 0 01.782-.781zm0 0" transform="translate(-366 -544)" fill="#e91c23" fill-rule="evenodd" filter="url(#a)"/></svg>