<svg xmlns="http://www.w3.org/2000/svg" width="21" height="21"><defs><filter id="a" x="366" y="296" width="21" height="21" filterUnits="userSpaceOnUse"><feFlood result="flood"/><feComposite result="composite" operator="in" in2="SourceGraphic"/><feBlend result="blend" in2="SourceGraphic"/></filter></defs><path d="M384.1 307.293a10.626 10.626 0 00-2.242-.967 3.789 3.789 0 001.207-2.3l.03-.263a2.012 2.012 0 00.484-.157 1.958 1.958 0 001.129-1.77v-.026c0-1.636-1.032-3.139-2.9-4.234a14 14 0 00-12.893 0c-1.873 1.095-2.9 2.6-2.9 4.234v.028a1.958 1.958 0 001.129 1.768 2.019 2.019 0 00.5.161c.007.07.013.141.021.211a3.77 3.77 0 003.518 3.337c-1.854 1.094-2.874 2.589-2.874 4.216v.028a1.975 1.975 0 001.593 1.921q.007.094.018.189a3.761 3.761 0 003.75 3.335h7.855a3.761 3.761 0 002.138-.664.821.821 0 00-.931-1.352 2.114 2.114 0 01-1.207.375h-7.855a2.122 2.122 0 01-2.119-1.876 6.326 6.326 0 01-.034-.413c.914-.73 3.515-1.279 6.061-1.279 2.648 0 5.328.553 6.234 1.285a1.946 1.946 0 001.227.438 1.977 1.977 0 001.961-1.965v-.026c0-1.636-1.032-3.139-2.9-4.234zm-5.753 2.872l1.831-2.565a11.344 11.344 0 011.712.469l-1.622 2.252a21.794 21.794 0 00-1.921-.156zm-.694-2.8q.337 0 .668.017L376.443 310a.856.856 0 00-.1.186 20.262 20.262 0 00-2.108.239l2.073-3c.436-.043.884-.066 1.339-.066zm5.414-5.555v.016a.317.317 0 01-.189.3.308.308 0 01-.338-.039 7.17 7.17 0 00-2.775-1.162l1.336-1.857a3.451 3.451 0 011.966 2.745zm-3.474-3.457l-1.621 2.251a21.847 21.847 0 00-1.922-.156l1.831-2.565a11.344 11.344 0 011.712.47zm-3.569-.692l-1.873 2.624a.856.856 0 00-.1.186 20.157 20.157 0 00-2.118.241l2.054-3a13.331 13.331 0 011.369-.07c.224 0 .447.006.667.017zm-4.333.5l-2.183 3.188a5.1 5.1 0 00-1.335.733.306.306 0 01-.338.038.315.315 0 01-.189-.3v-.017c0-1.547 1.657-2.929 4.045-3.647zm-2.4 5.633a6.777 6.777 0 01-.037-.474c.948-.714 3.512-1.248 6.023-1.248 2.622 0 5.277.542 6.207 1.266a6.445 6.445 0 01-.044.471 2.156 2.156 0 01-2.13 1.873h-7.888a2.133 2.133 0 01-2.131-1.888zm4.723 4.081l-2.207 3.195a5.1 5.1 0 00-1.335.732.3.3 0 01-.338.039.316.316 0 01-.189-.3v-.017c0-1.552 1.669-2.939 4.07-3.654zm11.352 3.67a.316.316 0 01-.19.3.3.3 0 01-.337-.039 7.2 7.2 0 00-2.775-1.162l1.336-1.856a3.449 3.449 0 011.966 2.745v.016zm0 0" transform="translate(-366 -296)" fill="#ed1c24" fill-rule="evenodd" filter="url(#a)"/></svg>