<svg xmlns="http://www.w3.org/2000/svg" width="23.969" height="24"><defs><filter id="a" x="364.031" y="444" width="23.969" height="24" filterUnits="userSpaceOnUse"><feFlood result="flood"/><feComposite result="composite" operator="in" in2="SourceGraphic"/><feBlend result="blend" in2="SourceGraphic"/></filter></defs><path d="M387.683 456.82l-3.972-2.62a3.523 3.523 0 00-2.849-3.062 3.03 3.03 0 00-.067-.291l1.5-4.516a.7.7 0 00-1.335-.443l-1.114 3.363a3.5 3.5 0 00-2.234-.978l.493-3.47a.7.7 0 10-1.392-.2l-.521 3.661h-1.6a33.9 33.9 0 00-6.305 5.934l-3.972 2.62a.7.7 0 10.774 1.173l3.306-2.179 1.28 11.56a.7.7 0 00.686.625h11.262a.7.7 0 00.7-.626l1.28-11.56 3.306 2.179a.7.7 0 10.774-1.173zm-6.6 8.945l-1.778-1.778a.7.7 0 00-.5-.206h-5.624a.7.7 0 00-.5.206l-1.778 1.778-1.025-9.258 1.4 1.4a.707.707 0 00.5.206h8.437a.7.7 0 00.5-.206l1.4-1.4zm-1.16.829h-7.854l1.406-1.406h5.042zm1.406-11.3l-1.406 1.406h-7.854l-1.406-1.406h10.666zm.874-1.406h-2.421l.466-1.406a2.114 2.114 0 011.955 1.406zm-2.9-3.023l-1 3.023h-1.493l.6-4.219a2.113 2.113 0 011.9 1.2zm-7.526 1.616h1.407a.7.7 0 000-1.406h-.582a2.112 2.112 0 011.988-1.406h1.395l-.6 4.219h-5.6a2.112 2.112 0 011.988-1.407zm0 0" transform="translate(-364.031 -444)" fill="#ed1c24" fill-rule="evenodd" filter="url(#a)"/></svg>