<?xml version="1.0" encoding="utf-8"?>
<!-- Generator: Adobe Illustrator 23.1.0, SVG Export Plug-In . SVG Version: 6.00 Build 0)  -->
<svg version="1.1" id="OBJECTS" xmlns="http://www.w3.org/2000/svg" xmlns:xlink="http://www.w3.org/1999/xlink" x="0px" y="0px"
	 viewBox="0 0 500 500" style="enable-background:new 0 0 500 500;" xml:space="preserve">
<style type="text/css">
	.st0{opacity:0.1;}
	.st1{fill:url(#SVGID_1_);}
	.st2{fill:url(#SVGID_2_);}
	.st3{fill:url(#SVGID_3_);}
	.st4{fill:url(#SVGID_4_);}
	.st5{fill:url(#SVGID_5_);}
	.st6{fill:url(#SVGID_6_);}
	.st7{fill:url(#SVGID_7_);}
	.st8{fill:url(#SVGID_8_);}
	.st9{fill:url(#SVGID_9_);}
	.st10{fill:url(#SVGID_10_);}
	.st11{fill:url(#SVGID_11_);}
	.st12{fill:url(#SVGID_12_);}
	.st13{fill:url(#SVGID_13_);}
	.st14{fill:url(#SVGID_14_);}
	.st15{fill:url(#SVGID_15_);}
	.st16{fill:url(#SVGID_16_);}
	.st17{fill:url(#SVGID_17_);}
	.st18{fill:url(#SVGID_18_);}
	.st19{fill:url(#SVGID_19_);}
	.st20{fill:url(#SVGID_20_);}
	.st21{fill:url(#SVGID_21_);}
	.st22{fill:url(#SVGID_22_);}
	.st23{fill:url(#SVGID_23_);}
	.st24{fill:url(#SVGID_24_);}
	.st25{fill:url(#SVGID_25_);}
	.st26{fill:url(#SVGID_26_);}
	.st27{fill:url(#SVGID_27_);}
	.st28{fill:url(#SVGID_28_);}
	.st29{fill:url(#SVGID_29_);}
	.st30{fill:url(#SVGID_30_);}
	.st31{fill:url(#SVGID_31_);}
	.st32{fill:url(#SVGID_32_);}
	.st33{fill:url(#SVGID_33_);}
	.st34{fill:url(#SVGID_34_);}
	.st35{fill:url(#SVGID_35_);}
	.st36{fill:url(#SVGID_36_);}
	.st37{fill:url(#SVGID_37_);}
	.st38{fill:url(#SVGID_38_);}
	.st39{fill:url(#SVGID_39_);}
	.st40{fill:url(#SVGID_40_);}
	.st41{fill:url(#SVGID_41_);}
	.st42{fill:url(#SVGID_42_);}
	.st43{fill:url(#SVGID_43_);}
	.st44{fill:url(#SVGID_44_);}
	.st45{fill:url(#SVGID_45_);}
	.st46{fill:url(#SVGID_46_);}
	.st47{fill:url(#SVGID_47_);}
	.st48{fill:url(#SVGID_48_);}
	.st49{fill:url(#SVGID_49_);}
	.st50{fill:url(#SVGID_50_);}
	.st51{fill:url(#SVGID_51_);}
	.st52{fill:url(#SVGID_52_);}
	.st53{fill:url(#SVGID_53_);}
	.st54{fill:url(#SVGID_54_);}
	.st55{fill:url(#SVGID_55_);}
	.st56{fill:url(#SVGID_56_);}
	.st57{fill:url(#SVGID_57_);}
	.st58{fill:url(#SVGID_58_);}
	.st59{fill:url(#SVGID_59_);}
	.st60{fill:url(#SVGID_60_);}
	.st61{fill:url(#SVGID_61_);}
	.st62{fill:url(#SVGID_62_);}
	.st63{fill:url(#SVGID_63_);}
	.st64{fill:url(#SVGID_64_);}
	.st65{fill:url(#SVGID_65_);}
	.st66{fill:url(#SVGID_66_);}
	.st67{fill:url(#SVGID_67_);}
	.st68{fill:url(#SVGID_68_);}
	.st69{fill:url(#SVGID_69_);}
	.st70{fill:url(#SVGID_70_);}
	.st71{fill:url(#SVGID_71_);}
	.st72{fill:url(#SVGID_72_);}
	.st73{fill:url(#SVGID_73_);}
	.st74{fill:url(#SVGID_74_);}
	.st75{fill:url(#SVGID_75_);}
	.st76{fill:url(#SVGID_76_);}
	.st77{fill:url(#SVGID_77_);}
	.st78{fill:url(#SVGID_78_);}
	.st79{fill:url(#SVGID_79_);}
	.st80{fill:url(#SVGID_80_);}
	.st81{opacity:0.5;}
	.st82{fill:#043D37;}
	.st83{opacity:0.57;}
	.st84{fill:#FFAC00;}
	.st85{fill:#FFFFFF;}
	.st86{fill:url(#SVGID_81_);}
	.st87{fill:#F9FBFC;}
	.st88{fill:#9BD3DD;}
	.st89{fill:url(#SVGID_82_);}
	.st90{fill:#FCBDA9;}
	.st91{opacity:0.37;fill:url(#SVGID_83_);}
	.st92{fill:url(#SVGID_84_);}
	.st93{fill:#322F49;}
	.st94{fill:url(#SVGID_85_);}
	.st95{fill:url(#SVGID_86_);}
	.st96{fill:#CFDAE4;}
	.st97{opacity:0.53;}
	.st98{opacity:0.37;}
	.st99{fill:url(#SVGID_87_);}
	.st100{fill:#FF3D9D;}
	.st101{fill:#FF7C40;}
	.st102{opacity:0.2;}
	.st103{fill:#0C6056;}
	.st104{fill:#148C7A;}
	.st105{fill:#FA8A00;}
	.st106{fill:#FBF578;}
</style>
<g>
	<g>
		<g class="st0">
			<ellipse cx="84.5" cy="294.3" rx="28.4" ry="10.7"/>
			<path d="M106.2,293.8c0,3.7-9.7,6.6-21.7,6.6c-12,0-21.7-3-21.7-6.6c0-3.7,9.7-6.6,21.7-6.6C96.5,287.2,106.2,290.2,106.2,293.8z
				"/>
			<path d="M84.5,288.6c11.2,0,20.4,2.6,21.5,5.9c0.1-0.2,0.1-0.5,0.1-0.7c0-3.7-9.7-6.6-21.7-6.6c-12,0-21.7,3-21.7,6.6
				c0,0.2,0,0.5,0.1,0.7C64.1,291.2,73.3,288.6,84.5,288.6z"/>
			<path d="M56.1,303.2c0,5.9,12.7,10.7,28.4,10.7c15.7,0,28.4-4.8,28.4-10.7v-8.9c0,5.9-12.7,10.7-28.4,10.7
				c-15.7,0-28.4-4.8-28.4-10.7V303.2z"/>
			<path d="M74.3,304.2c-10.6-1.5-18.2-5.4-18.2-10v8.9c0,4.5,7.6,8.4,18.2,10V304.2z"/>
			<rect x="81.1" y="304.9" width="3.5" height="8.9"/>
			<path d="M96.9,295.2C96.9,295.2,96.9,295.2,96.9,295.2c0-0.1,0-0.3,0-0.4c-0.2-1-1.2-1.7-2.8-2.2c0-0.4,0-1.1,0-1.4
				c0-0.1,0-0.2,0-0.3c-0.2-1.7-3.8-2.6-7.2-2.6l-1.3,0l0-0.5c0-0.3-0.3-0.6-0.6-0.6h-3c-0.3,0-0.6,0.2-0.6,0.6l0,0.5l-0.9,0
				c-3.6,0-7.4,0.9-7.7,2.7c0,0.1,0,0.2,0,0.4c0,0,0,0,0,0.1v1.6c0,0.3,0,0.7,0.4,1.2c0.2,0.2,0.5,0.4,0.8,0.6h-1.3c0,0,0,0,0,0
				c-0.1,0-0.1,0-0.2,0c0,0,0,0,0,0c0,0-0.1,0-0.1,0.1c0,0,0,0-0.1,0.1c0,0,0,0-0.1,0.1c0,0,0,0.1-0.1,0.2c0,0,0,0,0,0l0,0
				c0,0.1,0,0.2,0,0.4c0,0,0,0,0,0.1v1.6c0,0.3,0,0.7,0.4,1.2c0.9,1,3.3,1.7,6.1,1.7l2.4,0v1c0,0.3,0.3,0.6,0.6,0.6h3.5
				c0.3,0,0.6-0.3,0.6-0.6v-1l3.4,0c3.5,0,7.4-0.9,7.8-2.8c0-0.1,0-0.1,0-0.2h0C96.9,297,96.9,296.6,96.9,295.2z M78.8,296.4l3,0
				l0.1-2.9h-1.6c-4,0-7.1-1.1-6.8-2.4c0.2-1.3,3.4-2.2,7.1-2.2l1.4,0l0-1h3l0,1l1.9,0c3.5,0,6.4,0.9,6.6,2.1h0h-3.1
				c0-0.2-0.3-0.5-0.6-0.6c-0.6-0.3-1.7-0.5-2.9-0.5l-1.9,0l0,2.6h3.6c3.9,0,7.3,1.1,7.6,2.5c0.3,1.5-3,2.7-7.2,2.7l-3.9,0l0,1.6
				h-3.5l0.1-1.6l-3,0c-3.5,0-6.1-1-5.9-2.3H76C76,295.9,77.2,296.4,78.8,296.4z"/>
			<path d="M72.7,295.4c-0.2,1.2,2.4,2.2,5.9,2.3l3,0l-0.1,1.6h3.5l0-1.6l3.9,0c4.3,0,7.5-1.2,7.2-2.7c-0.2-1.4-3.6-2.5-7.6-2.5
				h-3.6l0-2.6l1.9,0c1.2,0,2.2,0.2,2.9,0.5c0.4,0.2,0.6,0.4,0.6,0.6h3.1h0c-0.2-1.2-3.1-2.1-6.6-2.1l-1.9,0l0-1h-3l0,1l-1.4,0
				c-3.7,0-6.9,1-7.1,2.2c-0.2,1.3,2.8,2.4,6.8,2.4h1.6l-0.1,2.9l-3,0c-1.6,0-2.8-0.5-2.7-1H72.7z M91.1,293.8
				c1.1,0.3,1.9,0.7,1.9,1.2c0.1,0.8-1.7,1.5-4,1.5l-3.9,0l0-2.9h3.7C89.6,293.5,90.4,293.6,91.1,293.8z M76.6,291.1
				c0-0.4,0.5-0.7,1.2-0.9c0.4-0.1,0.8-0.2,1.2-0.3c0.5-0.1,1-0.1,1.5-0.1l1.5,0l-0.1,2.6h-1.5C78.2,292.4,76.5,291.8,76.6,291.1z"
				/>
			<path d="M81.9,292.4l0.1-2.6l-1.5,0c-0.5,0-1,0-1.5,0.1c-0.5,0.1-0.9,0.2-1.2,0.3c-0.7,0.2-1.2,0.5-1.2,0.9
				c-0.1,0.7,1.6,1.3,3.8,1.3H81.9z"/>
			<path d="M85.1,296.4l3.9,0c2.3,0,4.1-0.7,4-1.5c-0.1-0.5-0.8-0.9-1.9-1.2c-0.7-0.2-1.4-0.2-2.3-0.2h-3.7L85.1,296.4z"/>
		</g>
		<g>
			<g>
				<g>
					<linearGradient id="SVGID_1_" gradientUnits="userSpaceOnUse" x1="84.5288" y1="279.7373" x2="84.5288" y2="305.6179">
						<stop  offset="0" style="stop-color:#FCD224"/>
						<stop  offset="1" style="stop-color:#FFA340"/>
					</linearGradient>
					<ellipse class="st1" cx="84.5" cy="293.3" rx="28.4" ry="10.7"/>
					<linearGradient id="SVGID_2_" gradientUnits="userSpaceOnUse" x1="84.5287" y1="286.1451" x2="84.5287" y2="299.3669">
						<stop  offset="0" style="stop-color:#FFA340"/>
						<stop  offset="1" style="stop-color:#FCD224"/>
					</linearGradient>
					<path class="st2" d="M106.2,292.8c0,3.7-9.7,6.6-21.7,6.6c-12,0-21.7-3-21.7-6.6c0-3.7,9.7-6.6,21.7-6.6
						C96.5,286.2,106.2,289.2,106.2,292.8z"/>
					<linearGradient id="SVGID_3_" gradientUnits="userSpaceOnUse" x1="84.5287" y1="284.9436" x2="84.5287" y2="297.1177">
						<stop  offset="0" style="stop-color:#FFA340"/>
						<stop  offset="1" style="stop-color:#FCD224;stop-opacity:0"/>
					</linearGradient>
					<path class="st3" d="M84.5,287.6c11.2,0,20.4,2.6,21.5,5.9c0.1-0.2,0.1-0.5,0.1-0.7c0-3.7-9.7-6.6-21.7-6.6
						c-12,0-21.7,3-21.7,6.6c0,0.2,0,0.5,0.1,0.7C64.1,290.2,73.3,287.6,84.5,287.6z"/>
					<linearGradient id="SVGID_4_" gradientUnits="userSpaceOnUse" x1="84.5288" y1="312.8882" x2="84.5288" y2="293.2595">
						<stop  offset="0" style="stop-color:#FFA340"/>
						<stop  offset="0" style="stop-color:#FFA43F"/>
						<stop  offset="1" style="stop-color:#FCD224"/>
					</linearGradient>
					<path class="st4" d="M56.1,302.2c0,5.9,12.7,10.7,28.4,10.7c15.7,0,28.4-4.8,28.4-10.7v-8.9c0,5.9-12.7,10.7-28.4,10.7
						c-15.7,0-28.4-4.8-28.4-10.7V302.2z"/>
					<linearGradient id="SVGID_5_" gradientUnits="userSpaceOnUse" x1="65.1794" y1="312.5768" x2="65.1794" y2="298.9471">
						<stop  offset="0" style="stop-color:#FFA340"/>
						<stop  offset="1" style="stop-color:#FCD224;stop-opacity:0"/>
					</linearGradient>
					<path class="st5" d="M74.3,303.2c-10.6-1.5-18.2-5.4-18.2-10v8.9c0,4.5,7.6,8.4,18.2,10V303.2z"/>
					<linearGradient id="SVGID_6_" gradientUnits="userSpaceOnUse" x1="82.7927" y1="318.1833" x2="82.7927" y2="302.5532">
						<stop  offset="0" style="stop-color:#FFA340"/>
						<stop  offset="1" style="stop-color:#FCD224;stop-opacity:0"/>
					</linearGradient>
					<rect x="81.1" y="303.9" class="st6" width="3.5" height="8.9"/>
				</g>
				<g>
					<g>
						<linearGradient id="SVGID_7_" gradientUnits="userSpaceOnUse" x1="84.4959" y1="303.8997" x2="84.4959" y2="279.1976">
							<stop  offset="0" style="stop-color:#FFA340"/>
							<stop  offset="1" style="stop-color:#FCD224;stop-opacity:0"/>
						</linearGradient>
						<path class="st7" d="M96.9,294.2C96.9,294.2,96.9,294.2,96.9,294.2c0-0.1,0-0.3,0-0.4c-0.2-1-1.2-1.7-2.8-2.2
							c0-0.4,0-1.1,0-1.4c0-0.1,0-0.2,0-0.3c-0.2-1.7-3.8-2.6-7.2-2.6l-1.3,0l0-0.5c0-0.3-0.3-0.6-0.6-0.6h-3
							c-0.3,0-0.6,0.2-0.6,0.6l0,0.5l-0.9,0c-3.6,0-7.4,0.9-7.7,2.7c0,0.1,0,0.2,0,0.4c0,0,0,0,0,0.1v1.6c0,0.3,0,0.7,0.4,1.2
							c0.2,0.2,0.5,0.4,0.8,0.6h-1.3c0,0,0,0,0,0c-0.1,0-0.1,0-0.2,0c0,0,0,0,0,0c0,0-0.1,0-0.1,0.1c0,0,0,0-0.1,0.1
							c0,0,0,0-0.1,0.1c0,0,0,0.1-0.1,0.2c0,0,0,0,0,0l0,0c0,0.1,0,0.2,0,0.4c0,0,0,0,0,0.1v1.6c0,0.3,0,0.7,0.4,1.2
							c0.9,1,3.3,1.7,6.1,1.7l2.4,0v1c0,0.3,0.3,0.6,0.6,0.6h3.5c0.3,0,0.6-0.3,0.6-0.6v-1l3.4,0c3.5,0,7.4-0.9,7.8-2.8
							c0-0.1,0-0.1,0-0.2h0C96.9,296,96.9,295.6,96.9,294.2z M78.8,295.4l3,0l0.1-2.9h-1.6c-4,0-7.1-1.1-6.8-2.4
							c0.2-1.3,3.4-2.2,7.1-2.2l1.4,0l0-1h3l0,1l1.9,0c3.5,0,6.4,0.9,6.6,2.1h0h-3.1c0-0.2-0.3-0.5-0.6-0.6
							c-0.6-0.3-1.7-0.5-2.9-0.5l-1.9,0l0,2.6h3.6c3.9,0,7.3,1.1,7.6,2.5c0.3,1.5-3,2.7-7.2,2.7l-3.9,0l0,1.6h-3.5l0.1-1.6l-3,0
							c-3.5,0-6.1-1-5.9-2.3H76C76,294.9,77.2,295.4,78.8,295.4z"/>
						<linearGradient id="SVGID_8_" gradientUnits="userSpaceOnUse" x1="84.4991" y1="279.3435" x2="84.4991" y2="303.4754">
							<stop  offset="0" style="stop-color:#FFA340"/>
							<stop  offset="1" style="stop-color:#FCD224"/>
						</linearGradient>
						<path class="st8" d="M72.7,294.4c-0.2,1.2,2.4,2.2,5.9,2.3l3,0l-0.1,1.6h3.5l0-1.6l3.9,0c4.3,0,7.5-1.2,7.2-2.7
							c-0.2-1.4-3.6-2.5-7.6-2.5h-3.6l0-2.6l1.9,0c1.2,0,2.2,0.2,2.9,0.5c0.4,0.2,0.6,0.4,0.6,0.6h3.1h0c-0.2-1.2-3.1-2.1-6.6-2.1
							l-1.9,0l0-1h-3l0,1l-1.4,0c-3.7,0-6.9,1-7.1,2.2c-0.2,1.3,2.8,2.4,6.8,2.4h1.6l-0.1,2.9l-3,0c-1.6,0-2.8-0.5-2.7-1H72.7z
							 M91.1,292.8c1.1,0.3,1.9,0.7,1.9,1.2c0.1,0.8-1.7,1.5-4,1.5l-3.9,0l0-2.9h3.7C89.6,292.5,90.4,292.6,91.1,292.8z M76.6,290.1
							c0-0.4,0.5-0.7,1.2-0.9c0.4-0.1,0.8-0.2,1.2-0.3c0.5-0.1,1-0.1,1.5-0.1l1.5,0l-0.1,2.6h-1.5C78.2,291.4,76.5,290.8,76.6,290.1
							z"/>
						<linearGradient id="SVGID_9_" gradientUnits="userSpaceOnUse" x1="79.2744" y1="288.281" x2="79.2744" y2="302.1868">
							<stop  offset="0" style="stop-color:#FFA340"/>
							<stop  offset="1" style="stop-color:#FCD224;stop-opacity:0"/>
						</linearGradient>
						<path class="st9" d="M81.9,291.4l0.1-2.6l-1.5,0c-0.5,0-1,0-1.5,0.1c-0.5,0.1-0.9,0.2-1.2,0.3c-0.7,0.2-1.2,0.5-1.2,0.9
							c-0.1,0.7,1.6,1.3,3.8,1.3H81.9z"/>
						<linearGradient id="SVGID_10_" gradientUnits="userSpaceOnUse" x1="89.0352" y1="288.2807" x2="89.0352" y2="302.1874">
							<stop  offset="0" style="stop-color:#FFA340"/>
							<stop  offset="1" style="stop-color:#FCD224;stop-opacity:0"/>
						</linearGradient>
						<path class="st10" d="M85.1,295.4l3.9,0c2.3,0,4.1-0.7,4-1.5c-0.1-0.5-0.8-0.9-1.9-1.2c-0.7-0.2-1.4-0.2-2.3-0.2h-3.7
							L85.1,295.4z"/>
					</g>
				</g>
			</g>
		</g>
	</g>
	<g>
		<g class="st0">
			<ellipse cx="83.4" cy="282.9" rx="28.4" ry="10.7"/>
			<path d="M105.1,282.5c0,3.7-9.7,6.6-21.7,6.6c-12,0-21.7-3-21.7-6.6c0-3.7,9.7-6.6,21.7-6.6C95.4,275.8,105.1,278.8,105.1,282.5z
				"/>
			<path d="M83.4,277.2c11.2,0,20.4,2.6,21.5,5.9c0.1-0.2,0.1-0.5,0.1-0.7c0-3.7-9.7-6.6-21.7-6.6c-12,0-21.7,3-21.7,6.6
				c0,0.2,0,0.5,0.1,0.7C63,279.8,72.2,277.2,83.4,277.2z"/>
			<path d="M54.9,291.8c0,5.9,12.7,10.7,28.4,10.7c15.7,0,28.4-4.8,28.4-10.7v-8.9c0,5.9-12.7,10.7-28.4,10.7
				c-15.7,0-28.4-4.8-28.4-10.7V291.8z"/>
			<path d="M73.1,292.9c-10.6-1.5-18.2-5.4-18.2-10v8.9c0,4.5,7.6,8.4,18.2,10V292.9z"/>
			<rect x="79.9" y="293.6" width="3.5" height="8.9"/>
			<path d="M95.7,283.9C95.7,283.9,95.7,283.9,95.7,283.9c0-0.1,0-0.3,0-0.4c-0.2-1-1.2-1.7-2.8-2.2c0-0.4,0-1.1,0-1.4
				c0-0.1,0-0.2,0-0.3c-0.2-1.7-3.8-2.6-7.2-2.6l-1.3,0l0-0.5c0-0.3-0.3-0.6-0.6-0.6h-3c-0.3,0-0.6,0.2-0.6,0.6l0,0.5l-0.9,0
				c-3.6,0-7.4,0.9-7.7,2.7c0,0.1,0,0.2,0,0.4c0,0,0,0,0,0.1v1.6c0,0.3,0,0.7,0.4,1.2c0.2,0.2,0.5,0.4,0.8,0.6h-1.3c0,0,0,0,0,0
				c-0.1,0-0.1,0-0.2,0c0,0,0,0,0,0c0,0-0.1,0-0.1,0.1c0,0,0,0-0.1,0.1c0,0,0,0-0.1,0.1c0,0,0,0.1-0.1,0.2c0,0,0,0,0,0l0,0
				c0,0.1,0,0.2,0,0.4c0,0,0,0,0,0.1v1.6c0,0.3,0,0.7,0.4,1.2c0.9,1,3.3,1.7,6.1,1.7l2.4,0v1c0,0.3,0.3,0.6,0.6,0.6H84
				c0.3,0,0.6-0.3,0.6-0.6v-1l3.4,0c3.5,0,7.4-0.9,7.8-2.8c0-0.1,0-0.1,0-0.2h0C95.7,285.7,95.7,285.3,95.7,283.9z M77.6,285l3,0
				l0.1-2.9h-1.6c-4,0-7.1-1.1-6.8-2.4c0.2-1.3,3.4-2.2,7.1-2.2l1.4,0l0-1h3l0,1l1.9,0c3.5,0,6.4,0.9,6.6,2.1h0h-3.1
				c0-0.2-0.3-0.5-0.6-0.6c-0.6-0.3-1.7-0.5-2.9-0.5l-1.9,0l0,2.6h3.6c3.9,0,7.3,1.1,7.6,2.5c0.3,1.5-3,2.7-7.2,2.7l-3.9,0l0,1.6
				h-3.5l0.1-1.6l-3,0c-3.5,0-6.1-1-5.9-2.3h3.3C74.8,284.6,76,285,77.6,285z"/>
			<path d="M71.6,284c-0.2,1.2,2.4,2.2,5.9,2.3l3,0l-0.1,1.6H84l0-1.6l3.9,0c4.3,0,7.5-1.2,7.2-2.7c-0.2-1.4-3.6-2.5-7.6-2.5h-3.6
				l0-2.6l1.9,0c1.2,0,2.2,0.2,2.9,0.5c0.4,0.2,0.6,0.4,0.6,0.6h3.1h0c-0.2-1.2-3.1-2.1-6.6-2.1l-1.9,0l0-1h-3l0,1l-1.4,0
				c-3.7,0-6.9,1-7.1,2.2c-0.2,1.3,2.8,2.4,6.8,2.4h1.6l-0.1,2.9l-3,0c-1.6,0-2.8-0.5-2.7-1H71.6z M89.9,282.4
				c1.1,0.3,1.9,0.7,1.9,1.2c0.1,0.8-1.7,1.5-4,1.5l-3.9,0l0-2.9h3.7C88.5,282.2,89.3,282.2,89.9,282.4z M75.4,279.7
				c0-0.4,0.5-0.7,1.2-0.9c0.4-0.1,0.8-0.2,1.2-0.3c0.5-0.1,1-0.1,1.5-0.1l1.5,0l-0.1,2.6h-1.5C77,281.1,75.3,280.5,75.4,279.7z"/>
			<path d="M80.8,281.1l0.1-2.6l-1.5,0c-0.5,0-1,0-1.5,0.1c-0.5,0.1-0.9,0.2-1.2,0.3c-0.7,0.2-1.2,0.5-1.2,0.9
				c-0.1,0.7,1.6,1.3,3.8,1.3H80.8z"/>
			<path d="M84,285l3.9,0c2.3,0,4.1-0.7,4-1.5c-0.1-0.5-0.8-0.9-1.9-1.2c-0.7-0.2-1.4-0.2-2.3-0.2h-3.7L84,285z"/>
		</g>
		<g>
			<g>
				<g>
					<linearGradient id="SVGID_11_" gradientUnits="userSpaceOnUse" x1="83.391" y1="268.3752" x2="83.391" y2="294.2557">
						<stop  offset="0" style="stop-color:#FCD224"/>
						<stop  offset="1" style="stop-color:#FFA340"/>
					</linearGradient>
					<ellipse class="st11" cx="83.4" cy="281.9" rx="28.4" ry="10.7"/>
					<linearGradient id="SVGID_12_" gradientUnits="userSpaceOnUse" x1="83.3908" y1="274.783" x2="83.3908" y2="288.0048">
						<stop  offset="0" style="stop-color:#FFA340"/>
						<stop  offset="1" style="stop-color:#FCD224"/>
					</linearGradient>
					<path class="st12" d="M105.1,281.5c0,3.7-9.7,6.6-21.7,6.6c-12,0-21.7-3-21.7-6.6c0-3.7,9.7-6.6,21.7-6.6
						C95.4,274.8,105.1,277.8,105.1,281.5z"/>
					<linearGradient id="SVGID_13_" gradientUnits="userSpaceOnUse" x1="83.3908" y1="273.5815" x2="83.3908" y2="285.7556">
						<stop  offset="0" style="stop-color:#FFA340"/>
						<stop  offset="1" style="stop-color:#FCD224;stop-opacity:0"/>
					</linearGradient>
					<path class="st13" d="M83.4,276.2c11.2,0,20.4,2.6,21.5,5.9c0.1-0.2,0.1-0.5,0.1-0.7c0-3.7-9.7-6.6-21.7-6.6
						c-12,0-21.7,3-21.7,6.6c0,0.2,0,0.5,0.1,0.7C63,278.8,72.2,276.2,83.4,276.2z"/>
					<linearGradient id="SVGID_14_" gradientUnits="userSpaceOnUse" x1="83.391" y1="301.5262" x2="83.391" y2="281.8975">
						<stop  offset="0" style="stop-color:#FFA340"/>
						<stop  offset="0" style="stop-color:#FFA43F"/>
						<stop  offset="1" style="stop-color:#FCD224"/>
					</linearGradient>
					<path class="st14" d="M54.9,290.8c0,5.9,12.7,10.7,28.4,10.7c15.7,0,28.4-4.8,28.4-10.7v-8.9c0,5.9-12.7,10.7-28.4,10.7
						c-15.7,0-28.4-4.8-28.4-10.7V290.8z"/>
					<linearGradient id="SVGID_15_" gradientUnits="userSpaceOnUse" x1="64.0416" y1="301.2146" x2="64.0416" y2="287.585">
						<stop  offset="0" style="stop-color:#FFA340"/>
						<stop  offset="1" style="stop-color:#FCD224;stop-opacity:0"/>
					</linearGradient>
					<path class="st15" d="M73.1,291.9c-10.6-1.5-18.2-5.4-18.2-10v8.9c0,4.5,7.6,8.4,18.2,10V291.9z"/>
					<linearGradient id="SVGID_16_" gradientUnits="userSpaceOnUse" x1="81.6549" y1="306.8213" x2="81.6549" y2="291.191">
						<stop  offset="0" style="stop-color:#FFA340"/>
						<stop  offset="1" style="stop-color:#FCD224;stop-opacity:0"/>
					</linearGradient>
					<rect x="79.9" y="292.6" class="st16" width="3.5" height="8.9"/>
				</g>
				<g>
					<g>
						<linearGradient id="SVGID_17_" gradientUnits="userSpaceOnUse" x1="83.3581" y1="292.5375" x2="83.3581" y2="267.8355">
							<stop  offset="0" style="stop-color:#FFA340"/>
							<stop  offset="1" style="stop-color:#FCD224;stop-opacity:0"/>
						</linearGradient>
						<path class="st17" d="M95.7,282.9C95.7,282.9,95.7,282.9,95.7,282.9c0-0.1,0-0.3,0-0.4c-0.2-1-1.2-1.7-2.8-2.2
							c0-0.4,0-1.1,0-1.4c0-0.1,0-0.2,0-0.3c-0.2-1.7-3.8-2.6-7.2-2.6l-1.3,0l0-0.5c0-0.3-0.3-0.6-0.6-0.6h-3
							c-0.3,0-0.6,0.2-0.6,0.6l0,0.5l-0.9,0c-3.6,0-7.4,0.9-7.7,2.7c0,0.1,0,0.2,0,0.4c0,0,0,0,0,0.1v1.6c0,0.3,0,0.7,0.4,1.2
							c0.2,0.2,0.5,0.4,0.8,0.6h-1.3c0,0,0,0,0,0c-0.1,0-0.1,0-0.2,0c0,0,0,0,0,0c0,0-0.1,0-0.1,0.1c0,0,0,0-0.1,0.1
							c0,0,0,0-0.1,0.1c0,0,0,0.1-0.1,0.2c0,0,0,0,0,0l0,0c0,0.1,0,0.2,0,0.4c0,0,0,0,0,0.1v1.6c0,0.3,0,0.7,0.4,1.2
							c0.9,1,3.3,1.7,6.1,1.7l2.4,0v1c0,0.3,0.3,0.6,0.6,0.6H84c0.3,0,0.6-0.3,0.6-0.6v-1l3.4,0c3.5,0,7.4-0.9,7.8-2.8
							c0-0.1,0-0.1,0-0.2h0C95.7,284.7,95.7,284.3,95.7,282.9z M77.6,284l3,0l0.1-2.9h-1.6c-4,0-7.1-1.1-6.8-2.4
							c0.2-1.3,3.4-2.2,7.1-2.2l1.4,0l0-1h3l0,1l1.9,0c3.5,0,6.4,0.9,6.6,2.1h0h-3.1c0-0.2-0.3-0.5-0.6-0.6
							c-0.6-0.3-1.7-0.5-2.9-0.5l-1.9,0l0,2.6h3.6c3.9,0,7.3,1.1,7.6,2.5c0.3,1.5-3,2.7-7.2,2.7l-3.9,0l0,1.6h-3.5l0.1-1.6l-3,0
							c-3.5,0-6.1-1-5.9-2.3h3.3C74.8,283.6,76,284,77.6,284z"/>
						<linearGradient id="SVGID_18_" gradientUnits="userSpaceOnUse" x1="83.3613" y1="267.9813" x2="83.3613" y2="292.1132">
							<stop  offset="0" style="stop-color:#FFA340"/>
							<stop  offset="1" style="stop-color:#FCD224"/>
						</linearGradient>
						<path class="st18" d="M71.6,283c-0.2,1.2,2.4,2.2,5.9,2.3l3,0l-0.1,1.6H84l0-1.6l3.9,0c4.3,0,7.5-1.2,7.2-2.7
							c-0.2-1.4-3.6-2.5-7.6-2.5h-3.6l0-2.6l1.9,0c1.2,0,2.2,0.2,2.9,0.5c0.4,0.2,0.6,0.4,0.6,0.6h3.1h0c-0.2-1.2-3.1-2.1-6.6-2.1
							l-1.9,0l0-1h-3l0,1l-1.4,0c-3.7,0-6.9,1-7.1,2.2c-0.2,1.3,2.8,2.4,6.8,2.4h1.6l-0.1,2.9l-3,0c-1.6,0-2.8-0.5-2.7-1H71.6z
							 M89.9,281.4c1.1,0.3,1.9,0.7,1.9,1.2c0.1,0.8-1.7,1.5-4,1.5l-3.9,0l0-2.9h3.7C88.5,281.2,89.3,281.2,89.9,281.4z M75.4,278.7
							c0-0.4,0.5-0.7,1.2-0.9c0.4-0.1,0.8-0.2,1.2-0.3c0.5-0.1,1-0.1,1.5-0.1l1.5,0l-0.1,2.6h-1.5C77,280.1,75.3,279.5,75.4,278.7z"
							/>
						<linearGradient id="SVGID_19_" gradientUnits="userSpaceOnUse" x1="78.1366" y1="276.9188" x2="78.1366" y2="290.8252">
							<stop  offset="0" style="stop-color:#FFA340"/>
							<stop  offset="1" style="stop-color:#FCD224;stop-opacity:0"/>
						</linearGradient>
						<path class="st19" d="M80.8,280.1l0.1-2.6l-1.5,0c-0.5,0-1,0-1.5,0.1c-0.5,0.1-0.9,0.2-1.2,0.3c-0.7,0.2-1.2,0.5-1.2,0.9
							c-0.1,0.7,1.6,1.3,3.8,1.3H80.8z"/>
						<linearGradient id="SVGID_20_" gradientUnits="userSpaceOnUse" x1="87.8974" y1="276.9188" x2="87.8974" y2="290.825">
							<stop  offset="0" style="stop-color:#FFA340"/>
							<stop  offset="1" style="stop-color:#FCD224;stop-opacity:0"/>
						</linearGradient>
						<path class="st20" d="M84,284l3.9,0c2.3,0,4.1-0.7,4-1.5c-0.1-0.5-0.8-0.9-1.9-1.2c-0.7-0.2-1.4-0.2-2.3-0.2h-3.7L84,284z"/>
					</g>
				</g>
			</g>
		</g>
	</g>
	<g>
		<g class="st0">
			<ellipse cx="90.2" cy="272.2" rx="28.4" ry="10.7"/>
			<path d="M111.9,271.7c0,3.7-9.7,6.6-21.7,6.6c-12,0-21.7-3-21.7-6.6c0-3.7,9.7-6.6,21.7-6.6C102.2,265.1,111.9,268.1,111.9,271.7
				z"/>
			<path d="M90.2,266.5c11.2,0,20.4,2.6,21.5,5.9c0.1-0.2,0.1-0.5,0.1-0.7c0-3.7-9.7-6.6-21.7-6.6c-12,0-21.7,3-21.7,6.6
				c0,0.2,0,0.5,0.1,0.7C69.8,269.1,79,266.5,90.2,266.5z"/>
			<path d="M61.8,281.1c0,5.9,12.7,10.7,28.4,10.7c15.7,0,28.4-4.8,28.4-10.7v-8.9c0,5.9-12.7,10.7-28.4,10.7
				c-15.7,0-28.4-4.8-28.4-10.7V281.1z"/>
			<path d="M80,282.1c-10.6-1.5-18.2-5.4-18.2-10v8.9c0,4.5,7.6,8.4,18.2,10V282.1z"/>
			<rect x="86.7" y="282.9" width="3.5" height="8.9"/>
			<path d="M102.6,273.1C102.6,273.1,102.6,273.1,102.6,273.1c0-0.1,0-0.3,0-0.4c-0.2-1-1.2-1.7-2.8-2.2c0-0.4,0-1.1,0-1.4
				c0-0.1,0-0.2,0-0.3c-0.2-1.7-3.8-2.6-7.2-2.6l-1.3,0l0-0.5c0-0.3-0.3-0.6-0.6-0.6h-3c-0.3,0-0.6,0.2-0.6,0.6l0,0.5l-0.9,0
				c-3.6,0-7.4,0.9-7.7,2.7c0,0.1,0,0.2,0,0.4c0,0,0,0,0,0.1v1.6c0,0.3,0,0.7,0.4,1.2c0.2,0.2,0.5,0.4,0.8,0.6h-1.3c0,0,0,0,0,0
				c-0.1,0-0.1,0-0.2,0c0,0,0,0,0,0c0,0-0.1,0-0.1,0.1c0,0,0,0-0.1,0.1c0,0,0,0-0.1,0.1c0,0,0,0.1-0.1,0.2c0,0,0,0,0,0l0,0
				c0,0.1,0,0.2,0,0.4c0,0,0,0,0,0.1v1.6c0,0.3,0,0.7,0.4,1.2c0.9,1,3.3,1.7,6.1,1.7l2.4,0v1c0,0.3,0.3,0.6,0.6,0.6h3.5
				c0.3,0,0.6-0.3,0.6-0.6v-1l3.4,0c3.5,0,7.4-0.9,7.8-2.8c0-0.1,0-0.1,0-0.2h0C102.6,275,102.6,274.6,102.6,273.1z M84.5,274.3l3,0
				l0.1-2.9H86c-4,0-7.1-1.1-6.8-2.4c0.2-1.3,3.4-2.2,7.1-2.2l1.4,0l0-1h3l0,1l1.9,0c3.5,0,6.4,0.9,6.6,2.1h0h-3.1
				c0-0.2-0.3-0.5-0.6-0.6c-0.6-0.3-1.7-0.5-2.9-0.5l-1.9,0l0,2.6h3.6c3.9,0,7.3,1.1,7.6,2.5c0.3,1.5-3,2.7-7.2,2.7l-3.9,0l0,1.6
				h-3.5l0.1-1.6l-3,0c-3.5,0-6.1-1-5.9-2.3h3.3C81.6,273.8,82.9,274.3,84.5,274.3z"/>
			<path d="M78.4,273.3c-0.2,1.2,2.4,2.2,5.9,2.3l3,0l-0.1,1.6h3.5l0-1.6l3.9,0c4.3,0,7.5-1.2,7.2-2.7c-0.2-1.4-3.6-2.5-7.6-2.5
				h-3.6l0-2.6l1.9,0c1.2,0,2.2,0.2,2.9,0.5c0.4,0.2,0.6,0.4,0.6,0.6h3.1h0c-0.2-1.2-3.1-2.1-6.6-2.1l-1.9,0l0-1h-3l0,1l-1.4,0
				c-3.7,0-6.9,1-7.1,2.2c-0.2,1.3,2.8,2.4,6.8,2.4h1.6l-0.1,2.9l-3,0c-1.6,0-2.8-0.5-2.7-1H78.4z M96.8,271.7
				c1.1,0.3,1.9,0.7,1.9,1.2c0.1,0.8-1.7,1.5-4,1.5l-3.9,0l0-2.9h3.7C95.3,271.4,96.1,271.5,96.8,271.7z M82.2,269
				c0-0.4,0.5-0.7,1.2-0.9c0.4-0.1,0.8-0.2,1.2-0.3c0.5-0.1,1-0.1,1.5-0.1l1.5,0l-0.1,2.6H86C83.9,270.3,82.2,269.7,82.2,269z"/>
			<path d="M87.6,270.3l0.1-2.6l-1.5,0c-0.5,0-1,0-1.5,0.1c-0.5,0.1-0.9,0.2-1.2,0.3c-0.7,0.2-1.2,0.5-1.2,0.9
				c-0.1,0.7,1.6,1.3,3.8,1.3H87.6z"/>
			<path d="M90.8,274.3l3.9,0c2.3,0,4.1-0.7,4-1.5c-0.1-0.5-0.8-0.9-1.9-1.2c-0.7-0.2-1.4-0.2-2.3-0.2h-3.7L90.8,274.3z"/>
		</g>
		<g>
			<g>
				<g>
					<linearGradient id="SVGID_21_" gradientUnits="userSpaceOnUse" x1="90.2179" y1="257.6574" x2="90.2179" y2="283.5381">
						<stop  offset="0" style="stop-color:#FCD224"/>
						<stop  offset="1" style="stop-color:#FFA340"/>
					</linearGradient>
					<ellipse class="st21" cx="90.2" cy="271.2" rx="28.4" ry="10.7"/>
					<linearGradient id="SVGID_22_" gradientUnits="userSpaceOnUse" x1="90.2178" y1="264.0653" x2="90.2178" y2="277.287">
						<stop  offset="0" style="stop-color:#FFA340"/>
						<stop  offset="1" style="stop-color:#FCD224"/>
					</linearGradient>
					<path class="st22" d="M111.9,270.7c0,3.7-9.7,6.6-21.7,6.6c-12,0-21.7-3-21.7-6.6c0-3.7,9.7-6.6,21.7-6.6
						C102.2,264.1,111.9,267.1,111.9,270.7z"/>
					<linearGradient id="SVGID_23_" gradientUnits="userSpaceOnUse" x1="90.2178" y1="262.8638" x2="90.2178" y2="275.0379">
						<stop  offset="0" style="stop-color:#FFA340"/>
						<stop  offset="1" style="stop-color:#FCD224;stop-opacity:0"/>
					</linearGradient>
					<path class="st23" d="M90.2,265.5c11.2,0,20.4,2.6,21.5,5.9c0.1-0.2,0.1-0.5,0.1-0.7c0-3.7-9.7-6.6-21.7-6.6
						c-12,0-21.7,3-21.7,6.6c0,0.2,0,0.5,0.1,0.7C69.8,268.1,79,265.5,90.2,265.5z"/>
					<linearGradient id="SVGID_24_" gradientUnits="userSpaceOnUse" x1="90.2179" y1="290.8085" x2="90.2179" y2="271.1798">
						<stop  offset="0" style="stop-color:#FFA340"/>
						<stop  offset="0" style="stop-color:#FFA43F"/>
						<stop  offset="1" style="stop-color:#FCD224"/>
					</linearGradient>
					<path class="st24" d="M61.8,280.1c0,5.9,12.7,10.7,28.4,10.7c15.7,0,28.4-4.8,28.4-10.7v-8.9c0,5.9-12.7,10.7-28.4,10.7
						c-15.7,0-28.4-4.8-28.4-10.7V280.1z"/>
					<linearGradient id="SVGID_25_" gradientUnits="userSpaceOnUse" x1="70.8686" y1="290.4969" x2="70.8686" y2="276.8673">
						<stop  offset="0" style="stop-color:#FFA340"/>
						<stop  offset="1" style="stop-color:#FCD224;stop-opacity:0"/>
					</linearGradient>
					<path class="st25" d="M80,281.1c-10.6-1.5-18.2-5.4-18.2-10v8.9c0,4.5,7.6,8.4,18.2,10V281.1z"/>
					<linearGradient id="SVGID_26_" gradientUnits="userSpaceOnUse" x1="88.4819" y1="296.1036" x2="88.4819" y2="280.4733">
						<stop  offset="0" style="stop-color:#FFA340"/>
						<stop  offset="1" style="stop-color:#FCD224;stop-opacity:0"/>
					</linearGradient>
					<rect x="86.7" y="281.9" class="st26" width="3.5" height="8.9"/>
				</g>
				<g>
					<g>
						<linearGradient id="SVGID_27_" gradientUnits="userSpaceOnUse" x1="90.1851" y1="281.8198" x2="90.1851" y2="257.1178">
							<stop  offset="0" style="stop-color:#FFA340"/>
							<stop  offset="1" style="stop-color:#FCD224;stop-opacity:0"/>
						</linearGradient>
						<path class="st27" d="M102.6,272.1C102.6,272.1,102.6,272.1,102.6,272.1c0-0.1,0-0.3,0-0.4c-0.2-1-1.2-1.7-2.8-2.2
							c0-0.4,0-1.1,0-1.4c0-0.1,0-0.2,0-0.3c-0.2-1.7-3.8-2.6-7.2-2.6l-1.3,0l0-0.5c0-0.3-0.3-0.6-0.6-0.6h-3
							c-0.3,0-0.6,0.2-0.6,0.6l0,0.5l-0.9,0c-3.6,0-7.4,0.9-7.7,2.7c0,0.1,0,0.2,0,0.4c0,0,0,0,0,0.1v1.6c0,0.3,0,0.7,0.4,1.2
							c0.2,0.2,0.5,0.4,0.8,0.6h-1.3c0,0,0,0,0,0c-0.1,0-0.1,0-0.2,0c0,0,0,0,0,0c0,0-0.1,0-0.1,0.1c0,0,0,0-0.1,0.1
							c0,0,0,0-0.1,0.1c0,0,0,0.1-0.1,0.2c0,0,0,0,0,0l0,0c0,0.1,0,0.2,0,0.4c0,0,0,0,0,0.1v1.6c0,0.3,0,0.7,0.4,1.2
							c0.9,1,3.3,1.7,6.1,1.7l2.4,0v1c0,0.3,0.3,0.6,0.6,0.6h3.5c0.3,0,0.6-0.3,0.6-0.6v-1l3.4,0c3.5,0,7.4-0.9,7.8-2.8
							c0-0.1,0-0.1,0-0.2h0C102.6,274,102.6,273.6,102.6,272.1z M84.5,273.3l3,0l0.1-2.9H86c-4,0-7.1-1.1-6.8-2.4
							c0.2-1.3,3.4-2.2,7.1-2.2l1.4,0l0-1h3l0,1l1.9,0c3.5,0,6.4,0.9,6.6,2.1h0h-3.1c0-0.2-0.3-0.5-0.6-0.6
							c-0.6-0.3-1.7-0.5-2.9-0.5l-1.9,0l0,2.6h3.6c3.9,0,7.3,1.1,7.6,2.5c0.3,1.5-3,2.7-7.2,2.7l-3.9,0l0,1.6h-3.5l0.1-1.6l-3,0
							c-3.5,0-6.1-1-5.9-2.3h3.3C81.6,272.8,82.9,273.3,84.5,273.3z"/>
						<linearGradient id="SVGID_28_" gradientUnits="userSpaceOnUse" x1="90.1882" y1="257.2636" x2="90.1882" y2="281.3955">
							<stop  offset="0" style="stop-color:#FFA340"/>
							<stop  offset="1" style="stop-color:#FCD224"/>
						</linearGradient>
						<path class="st28" d="M78.4,272.3c-0.2,1.2,2.4,2.2,5.9,2.3l3,0l-0.1,1.6h3.5l0-1.6l3.9,0c4.3,0,7.5-1.2,7.2-2.7
							c-0.2-1.4-3.6-2.5-7.6-2.5h-3.6l0-2.6l1.9,0c1.2,0,2.2,0.2,2.9,0.5c0.4,0.2,0.6,0.4,0.6,0.6h3.1h0c-0.2-1.2-3.1-2.1-6.6-2.1
							l-1.9,0l0-1h-3l0,1l-1.4,0c-3.7,0-6.9,1-7.1,2.2c-0.2,1.3,2.8,2.4,6.8,2.4h1.6l-0.1,2.9l-3,0c-1.6,0-2.8-0.5-2.7-1H78.4z
							 M96.8,270.7c1.1,0.3,1.9,0.7,1.9,1.2c0.1,0.8-1.7,1.5-4,1.5l-3.9,0l0-2.9h3.7C95.3,270.4,96.1,270.5,96.8,270.7z M82.2,268
							c0-0.4,0.5-0.7,1.2-0.9c0.4-0.1,0.8-0.2,1.2-0.3c0.5-0.1,1-0.1,1.5-0.1l1.5,0l-0.1,2.6H86C83.9,269.3,82.2,268.7,82.2,268z"/>
						<linearGradient id="SVGID_29_" gradientUnits="userSpaceOnUse" x1="84.9636" y1="266.2011" x2="84.9636" y2="280.1069">
							<stop  offset="0" style="stop-color:#FFA340"/>
							<stop  offset="1" style="stop-color:#FCD224;stop-opacity:0"/>
						</linearGradient>
						<path class="st29" d="M87.6,269.3l0.1-2.6l-1.5,0c-0.5,0-1,0-1.5,0.1c-0.5,0.1-0.9,0.2-1.2,0.3c-0.7,0.2-1.2,0.5-1.2,0.9
							c-0.1,0.7,1.6,1.3,3.8,1.3H87.6z"/>
						<linearGradient id="SVGID_30_" gradientUnits="userSpaceOnUse" x1="94.7244" y1="266.2011" x2="94.7244" y2="280.1073">
							<stop  offset="0" style="stop-color:#FFA340"/>
							<stop  offset="1" style="stop-color:#FCD224;stop-opacity:0"/>
						</linearGradient>
						<path class="st30" d="M90.8,273.3l3.9,0c2.3,0,4.1-0.7,4-1.5c-0.1-0.5-0.8-0.9-1.9-1.2c-0.7-0.2-1.4-0.2-2.3-0.2h-3.7
							L90.8,273.3z"/>
					</g>
				</g>
			</g>
		</g>
	</g>
	<g>
		<g class="st0">
			<ellipse cx="84.5" cy="260.8" rx="28.4" ry="10.7"/>
			<path d="M106.2,260.4c0,3.7-9.7,6.6-21.7,6.6c-12,0-21.7-3-21.7-6.6c0-3.7,9.7-6.6,21.7-6.6C96.5,253.7,106.2,256.7,106.2,260.4z
				"/>
			<path d="M84.5,255.1c11.2,0,20.4,2.6,21.5,5.9c0.1-0.2,0.1-0.5,0.1-0.7c0-3.7-9.7-6.6-21.7-6.6c-12,0-21.7,3-21.7,6.6
				c0,0.2,0,0.5,0.1,0.7C64.1,257.8,73.3,255.1,84.5,255.1z"/>
			<path d="M56.1,269.8c0,5.9,12.7,10.7,28.4,10.7c15.7,0,28.4-4.8,28.4-10.7v-8.9c0,5.9-12.7,10.7-28.4,10.7
				c-15.7,0-28.4-4.8-28.4-10.7V269.8z"/>
			<path d="M74.3,270.8c-10.6-1.5-18.2-5.4-18.2-10v8.9c0,4.5,7.6,8.4,18.2,10V270.8z"/>
			<rect x="81.1" y="271.5" width="3.5" height="8.9"/>
			<path d="M96.9,261.8C96.9,261.8,96.9,261.8,96.9,261.8c0-0.1,0-0.3,0-0.4c-0.2-1-1.2-1.7-2.8-2.2c0-0.4,0-1.1,0-1.4
				c0-0.1,0-0.2,0-0.3c-0.2-1.7-3.8-2.6-7.2-2.6l-1.3,0l0-0.5c0-0.3-0.3-0.6-0.6-0.6h-3c-0.3,0-0.6,0.2-0.6,0.6l0,0.5l-0.9,0
				c-3.6,0-7.4,0.9-7.7,2.7c0,0.1,0,0.2,0,0.4c0,0,0,0,0,0.1v1.6c0,0.3,0,0.7,0.4,1.2c0.2,0.2,0.5,0.4,0.8,0.6h-1.3c0,0,0,0,0,0
				c-0.1,0-0.1,0-0.2,0c0,0,0,0,0,0c0,0-0.1,0-0.1,0.1c0,0,0,0-0.1,0.1c0,0,0,0-0.1,0.1c0,0,0,0.1-0.1,0.2c0,0,0,0,0,0l0,0
				c0,0.1,0,0.2,0,0.4c0,0,0,0,0,0.1v1.6c0,0.3,0,0.7,0.4,1.2c0.9,1,3.3,1.7,6.1,1.7l2.4,0v1c0,0.3,0.3,0.6,0.6,0.6h3.5
				c0.3,0,0.6-0.3,0.6-0.6v-1l3.4,0c3.5,0,7.4-0.9,7.8-2.8c0-0.1,0-0.1,0-0.2h0C96.9,263.6,96.9,263.2,96.9,261.8z M78.8,262.9l3,0
				l0.1-2.9h-1.6c-4,0-7.1-1.1-6.8-2.4c0.2-1.3,3.4-2.2,7.1-2.2l1.4,0l0-1h3l0,1l1.9,0c3.5,0,6.4,0.9,6.6,2.1h0h-3.1
				c0-0.2-0.3-0.5-0.6-0.6c-0.6-0.3-1.7-0.5-2.9-0.5l-1.9,0l0,2.6h3.6c3.9,0,7.3,1.1,7.6,2.5c0.3,1.5-3,2.7-7.2,2.7l-3.9,0l0,1.6
				h-3.5l0.1-1.6l-3,0c-3.5,0-6.1-1-5.9-2.3H76C76,262.5,77.2,262.9,78.8,262.9z"/>
			<path d="M72.7,261.9c-0.2,1.2,2.4,2.2,5.9,2.3l3,0l-0.1,1.6h3.5l0-1.6l3.9,0c4.3,0,7.5-1.2,7.2-2.7c-0.2-1.4-3.6-2.5-7.6-2.5
				h-3.6l0-2.6l1.9,0c1.2,0,2.2,0.2,2.9,0.5c0.4,0.2,0.6,0.4,0.6,0.6h3.1h0c-0.2-1.2-3.1-2.1-6.6-2.1l-1.9,0l0-1h-3l0,1l-1.4,0
				c-3.7,0-6.9,1-7.1,2.2c-0.2,1.3,2.8,2.4,6.8,2.4h1.6l-0.1,2.9l-3,0c-1.6,0-2.8-0.5-2.7-1H72.7z M91.1,260.3
				c1.1,0.3,1.9,0.7,1.9,1.2c0.1,0.8-1.7,1.5-4,1.5l-3.9,0l0-2.9h3.7C89.6,260.1,90.4,260.2,91.1,260.3z M76.6,257.7
				c0-0.4,0.5-0.7,1.2-0.9c0.4-0.1,0.8-0.2,1.2-0.3c0.5-0.1,1-0.1,1.5-0.1l1.5,0l-0.1,2.6h-1.5C78.2,259,76.5,258.4,76.6,257.7z"/>
			<path d="M81.9,259l0.1-2.6l-1.5,0c-0.5,0-1,0-1.5,0.1c-0.5,0.1-0.9,0.2-1.2,0.3c-0.7,0.2-1.2,0.5-1.2,0.9
				c-0.1,0.7,1.6,1.3,3.8,1.3H81.9z"/>
			<path d="M85.1,263l3.9,0c2.3,0,4.1-0.7,4-1.5c-0.1-0.5-0.8-0.9-1.9-1.2c-0.7-0.2-1.4-0.2-2.3-0.2h-3.7L85.1,263z"/>
		</g>
		<g>
			<g>
				<g>
					<linearGradient id="SVGID_31_" gradientUnits="userSpaceOnUse" x1="84.5288" y1="246.2954" x2="84.5288" y2="272.176">
						<stop  offset="0" style="stop-color:#FCD224"/>
						<stop  offset="1" style="stop-color:#FFA340"/>
					</linearGradient>
					<ellipse class="st31" cx="84.5" cy="259.8" rx="28.4" ry="10.7"/>
					<linearGradient id="SVGID_32_" gradientUnits="userSpaceOnUse" x1="84.5287" y1="252.7031" x2="84.5287" y2="265.925">
						<stop  offset="0" style="stop-color:#FFA340"/>
						<stop  offset="1" style="stop-color:#FCD224"/>
					</linearGradient>
					<path class="st32" d="M106.2,259.4c0,3.7-9.7,6.6-21.7,6.6c-12,0-21.7-3-21.7-6.6c0-3.7,9.7-6.6,21.7-6.6
						C96.5,252.7,106.2,255.7,106.2,259.4z"/>
					<linearGradient id="SVGID_33_" gradientUnits="userSpaceOnUse" x1="84.5287" y1="251.5017" x2="84.5287" y2="263.6758">
						<stop  offset="0" style="stop-color:#FFA340"/>
						<stop  offset="1" style="stop-color:#FCD224;stop-opacity:0"/>
					</linearGradient>
					<path class="st33" d="M84.5,254.1c11.2,0,20.4,2.6,21.5,5.9c0.1-0.2,0.1-0.5,0.1-0.7c0-3.7-9.7-6.6-21.7-6.6
						c-12,0-21.7,3-21.7,6.6c0,0.2,0,0.5,0.1,0.7C64.1,256.8,73.3,254.1,84.5,254.1z"/>
					<linearGradient id="SVGID_34_" gradientUnits="userSpaceOnUse" x1="84.5288" y1="279.4464" x2="84.5288" y2="259.8176">
						<stop  offset="0" style="stop-color:#FFA340"/>
						<stop  offset="0" style="stop-color:#FFA43F"/>
						<stop  offset="1" style="stop-color:#FCD224"/>
					</linearGradient>
					<path class="st34" d="M56.1,268.8c0,5.9,12.7,10.7,28.4,10.7c15.7,0,28.4-4.8,28.4-10.7v-8.9c0,5.9-12.7,10.7-28.4,10.7
						c-15.7,0-28.4-4.8-28.4-10.7V268.8z"/>
					<linearGradient id="SVGID_35_" gradientUnits="userSpaceOnUse" x1="65.1794" y1="279.1348" x2="65.1794" y2="265.5052">
						<stop  offset="0" style="stop-color:#FFA340"/>
						<stop  offset="1" style="stop-color:#FCD224;stop-opacity:0"/>
					</linearGradient>
					<path class="st35" d="M74.3,269.8c-10.6-1.5-18.2-5.4-18.2-10v8.9c0,4.5,7.6,8.4,18.2,10V269.8z"/>
					<linearGradient id="SVGID_36_" gradientUnits="userSpaceOnUse" x1="82.7927" y1="284.7414" x2="82.7927" y2="269.1113">
						<stop  offset="0" style="stop-color:#FFA340"/>
						<stop  offset="1" style="stop-color:#FCD224;stop-opacity:0"/>
					</linearGradient>
					<rect x="81.1" y="270.5" class="st36" width="3.5" height="8.9"/>
				</g>
				<g>
					<g>
						<linearGradient id="SVGID_37_" gradientUnits="userSpaceOnUse" x1="84.4959" y1="270.4576" x2="84.4959" y2="245.7556">
							<stop  offset="0" style="stop-color:#FFA340"/>
							<stop  offset="1" style="stop-color:#FCD224;stop-opacity:0"/>
						</linearGradient>
						<path class="st37" d="M96.9,260.8C96.9,260.8,96.9,260.8,96.9,260.8c0-0.1,0-0.3,0-0.4c-0.2-1-1.2-1.7-2.8-2.2
							c0-0.4,0-1.1,0-1.4c0-0.1,0-0.2,0-0.3c-0.2-1.7-3.8-2.6-7.2-2.6l-1.3,0l0-0.5c0-0.3-0.3-0.6-0.6-0.6h-3
							c-0.3,0-0.6,0.2-0.6,0.6l0,0.5l-0.9,0c-3.6,0-7.4,0.9-7.7,2.7c0,0.1,0,0.2,0,0.4c0,0,0,0,0,0.1v1.6c0,0.3,0,0.7,0.4,1.2
							c0.2,0.2,0.5,0.4,0.8,0.6h-1.3c0,0,0,0,0,0c-0.1,0-0.1,0-0.2,0c0,0,0,0,0,0c0,0-0.1,0-0.1,0.1c0,0,0,0-0.1,0.1
							c0,0,0,0-0.1,0.1c0,0,0,0.1-0.1,0.2c0,0,0,0,0,0l0,0c0,0.1,0,0.2,0,0.4c0,0,0,0,0,0.1v1.6c0,0.3,0,0.7,0.4,1.2
							c0.9,1,3.3,1.7,6.1,1.7l2.4,0v1c0,0.3,0.3,0.6,0.6,0.6h3.5c0.3,0,0.6-0.3,0.6-0.6v-1l3.4,0c3.5,0,7.4-0.9,7.8-2.8
							c0-0.1,0-0.1,0-0.2h0C96.9,262.6,96.9,262.2,96.9,260.8z M78.8,261.9l3,0l0.1-2.9h-1.6c-4,0-7.1-1.1-6.8-2.4
							c0.2-1.3,3.4-2.2,7.1-2.2l1.4,0l0-1h3l0,1l1.9,0c3.5,0,6.4,0.9,6.6,2.1h0h-3.1c0-0.2-0.3-0.5-0.6-0.6
							c-0.6-0.3-1.7-0.5-2.9-0.5l-1.9,0l0,2.6h3.6c3.9,0,7.3,1.1,7.6,2.5c0.3,1.5-3,2.7-7.2,2.7l-3.9,0l0,1.6h-3.5l0.1-1.6l-3,0
							c-3.5,0-6.1-1-5.9-2.3H76C76,261.5,77.2,261.9,78.8,261.9z"/>
						<linearGradient id="SVGID_38_" gradientUnits="userSpaceOnUse" x1="84.4991" y1="245.9017" x2="84.4991" y2="270.0333">
							<stop  offset="0" style="stop-color:#FFA340"/>
							<stop  offset="1" style="stop-color:#FCD224"/>
						</linearGradient>
						<path class="st38" d="M72.7,260.9c-0.2,1.2,2.4,2.2,5.9,2.3l3,0l-0.1,1.6h3.5l0-1.6l3.9,0c4.3,0,7.5-1.2,7.2-2.7
							c-0.2-1.4-3.6-2.5-7.6-2.5h-3.6l0-2.6l1.9,0c1.2,0,2.2,0.2,2.9,0.5c0.4,0.2,0.6,0.4,0.6,0.6h3.1h0c-0.2-1.2-3.1-2.1-6.6-2.1
							l-1.9,0l0-1h-3l0,1l-1.4,0c-3.7,0-6.9,1-7.1,2.2c-0.2,1.3,2.8,2.4,6.8,2.4h1.6l-0.1,2.9l-3,0c-1.6,0-2.8-0.5-2.7-1H72.7z
							 M91.1,259.3c1.1,0.3,1.9,0.7,1.9,1.2c0.1,0.8-1.7,1.5-4,1.5l-3.9,0l0-2.9h3.7C89.6,259.1,90.4,259.2,91.1,259.3z M76.6,256.7
							c0-0.4,0.5-0.7,1.2-0.9c0.4-0.1,0.8-0.2,1.2-0.3c0.5-0.1,1-0.1,1.5-0.1l1.5,0l-0.1,2.6h-1.5C78.2,258,76.5,257.4,76.6,256.7z"
							/>
						<linearGradient id="SVGID_39_" gradientUnits="userSpaceOnUse" x1="79.2744" y1="254.8389" x2="79.2744" y2="268.7454">
							<stop  offset="0" style="stop-color:#FFA340"/>
							<stop  offset="1" style="stop-color:#FCD224;stop-opacity:0"/>
						</linearGradient>
						<path class="st39" d="M81.9,258l0.1-2.6l-1.5,0c-0.5,0-1,0-1.5,0.1c-0.5,0.1-0.9,0.2-1.2,0.3c-0.7,0.2-1.2,0.5-1.2,0.9
							c-0.1,0.7,1.6,1.3,3.8,1.3H81.9z"/>
						<linearGradient id="SVGID_40_" gradientUnits="userSpaceOnUse" x1="89.0352" y1="254.8388" x2="89.0352" y2="268.7455">
							<stop  offset="0" style="stop-color:#FFA340"/>
							<stop  offset="1" style="stop-color:#FCD224;stop-opacity:0"/>
						</linearGradient>
						<path class="st40" d="M85.1,262l3.9,0c2.3,0,4.1-0.7,4-1.5c-0.1-0.5-0.8-0.9-1.9-1.2c-0.7-0.2-1.4-0.2-2.3-0.2h-3.7L85.1,262z
							"/>
					</g>
				</g>
			</g>
		</g>
	</g>
</g>
<g>
	<g>
		<g class="st0">
			<ellipse cx="176.5" cy="389.1" rx="28.4" ry="10.7"/>
			<path d="M198.2,388.7c0,3.7-9.7,6.6-21.7,6.6c-12,0-21.7-3-21.7-6.6c0-3.7,9.7-6.6,21.7-6.6C188.5,382,198.2,385,198.2,388.7z"/>
			<path d="M176.5,383.4c11.2,0,20.4,2.6,21.5,5.9c0.1-0.2,0.1-0.5,0.1-0.7c0-3.7-9.7-6.6-21.7-6.6c-12,0-21.7,3-21.7,6.6
				c0,0.2,0,0.5,0.1,0.7C156.1,386,165.3,383.4,176.5,383.4z"/>
			<path d="M148.1,398c0,5.9,12.7,10.7,28.4,10.7c15.7,0,28.4-4.8,28.4-10.7v-8.9c0,5.9-12.7,10.7-28.4,10.7
				c-15.7,0-28.4-4.8-28.4-10.7V398z"/>
			<path d="M166.3,399.1c-10.6-1.5-18.2-5.4-18.2-10v8.9c0,4.5,7.6,8.4,18.2,10V399.1z"/>
			<rect x="173.1" y="399.8" width="3.5" height="8.9"/>
			<path d="M188.9,390.1C188.9,390.1,188.9,390.1,188.9,390.1c0-0.1,0-0.3,0-0.4c-0.2-1-1.2-1.7-2.8-2.2c0-0.4,0-1.1,0-1.4
				c0-0.1,0-0.2,0-0.3c-0.2-1.7-3.8-2.6-7.2-2.6l-1.3,0l0-0.5c0-0.3-0.3-0.6-0.6-0.6h-3c-0.3,0-0.6,0.2-0.6,0.6l0,0.5l-0.9,0
				c-3.6,0-7.4,0.9-7.7,2.7c0,0.1,0,0.2,0,0.4c0,0,0,0,0,0.1v1.6c0,0.3,0,0.7,0.4,1.2c0.2,0.2,0.5,0.4,0.8,0.6h-1.3c0,0,0,0,0,0
				c-0.1,0-0.1,0-0.2,0c0,0,0,0,0,0c0,0-0.1,0-0.1,0.1c0,0,0,0-0.1,0.1c0,0,0,0-0.1,0.1c0,0,0,0.1-0.1,0.2c0,0,0,0,0,0l0,0
				c0,0.1,0,0.2,0,0.4c0,0,0,0,0,0.1v1.6c0,0.3,0,0.7,0.4,1.2c0.9,1,3.3,1.7,6.1,1.7l2.4,0v1c0,0.3,0.3,0.6,0.6,0.6h3.5
				c0.3,0,0.6-0.3,0.6-0.6v-1l3.4,0c3.5,0,7.4-0.9,7.8-2.8c0-0.1,0-0.1,0-0.2h0C188.9,391.9,188.9,391.5,188.9,390.1z M170.8,391.2
				l3,0l0.1-2.9h-1.6c-4,0-7.1-1.1-6.8-2.4c0.2-1.3,3.4-2.2,7.1-2.2l1.4,0l0-1h3l0,1l1.9,0c3.5,0,6.4,0.9,6.6,2.1h0h-3.1
				c0-0.2-0.3-0.5-0.6-0.6c-0.6-0.3-1.7-0.5-2.9-0.5l-1.9,0l0,2.6h3.6c3.9,0,7.3,1.1,7.6,2.5c0.3,1.5-3,2.7-7.2,2.7l-3.9,0l0,1.6
				h-3.5l0.1-1.6l-3,0c-3.5,0-6.1-1-5.9-2.3h3.3C168,390.8,169.2,391.2,170.8,391.2z"/>
			<path d="M164.7,390.2c-0.2,1.2,2.4,2.2,5.9,2.3l3,0l-0.1,1.6h3.5l0-1.6l3.9,0c4.3,0,7.5-1.2,7.2-2.7c-0.2-1.4-3.6-2.5-7.6-2.5
				h-3.6l0-2.6l1.9,0c1.2,0,2.2,0.2,2.9,0.5c0.4,0.2,0.6,0.4,0.6,0.6h3.1h0c-0.2-1.2-3.1-2.1-6.6-2.1l-1.9,0l0-1h-3l0,1l-1.4,0
				c-3.7,0-6.9,1-7.1,2.2c-0.2,1.3,2.8,2.4,6.8,2.4h1.6l-0.1,2.9l-3,0c-1.6,0-2.8-0.5-2.7-1H164.7z M183.1,388.6
				c1.1,0.3,1.9,0.7,1.9,1.2c0.1,0.8-1.7,1.5-4,1.5l-3.9,0l0-2.9h3.7C181.6,388.4,182.4,388.4,183.1,388.6z M168.6,385.9
				c0-0.4,0.5-0.7,1.2-0.9c0.4-0.1,0.8-0.2,1.2-0.3c0.5-0.1,1-0.1,1.5-0.1l1.5,0l-0.1,2.6h-1.5C170.2,387.3,168.5,386.7,168.6,385.9
				z"/>
			<path d="M173.9,387.3l0.1-2.6l-1.5,0c-0.5,0-1,0-1.5,0.1c-0.5,0.1-0.9,0.2-1.2,0.3c-0.7,0.2-1.2,0.5-1.2,0.9
				c-0.1,0.7,1.6,1.3,3.8,1.3H173.9z"/>
			<path d="M177.1,391.2l3.9,0c2.3,0,4.1-0.7,4-1.5c-0.1-0.5-0.8-0.9-1.9-1.2c-0.7-0.2-1.4-0.2-2.3-0.2h-3.7L177.1,391.2z"/>
		</g>
		<g>
			<g>
				<g>
					<linearGradient id="SVGID_41_" gradientUnits="userSpaceOnUse" x1="176.5309" y1="374.5721" x2="176.5309" y2="400.4527">
						<stop  offset="0" style="stop-color:#FCD224"/>
						<stop  offset="1" style="stop-color:#FFA340"/>
					</linearGradient>
					<ellipse class="st41" cx="176.5" cy="388.1" rx="28.4" ry="10.7"/>
					<linearGradient id="SVGID_42_" gradientUnits="userSpaceOnUse" x1="176.5307" y1="380.9799" x2="176.5307" y2="394.2017">
						<stop  offset="0" style="stop-color:#FFA340"/>
						<stop  offset="1" style="stop-color:#FCD224"/>
					</linearGradient>
					<path class="st42" d="M198.2,387.7c0,3.7-9.7,6.6-21.7,6.6c-12,0-21.7-3-21.7-6.6c0-3.7,9.7-6.6,21.7-6.6
						C188.5,381,198.2,384,198.2,387.7z"/>
					<linearGradient id="SVGID_43_" gradientUnits="userSpaceOnUse" x1="176.5307" y1="379.7784" x2="176.5307" y2="391.9525">
						<stop  offset="0" style="stop-color:#FFA340"/>
						<stop  offset="1" style="stop-color:#FCD224;stop-opacity:0"/>
					</linearGradient>
					<path class="st43" d="M176.5,382.4c11.2,0,20.4,2.6,21.5,5.9c0.1-0.2,0.1-0.5,0.1-0.7c0-3.7-9.7-6.6-21.7-6.6
						c-12,0-21.7,3-21.7,6.6c0,0.2,0,0.5,0.1,0.7C156.1,385,165.3,382.4,176.5,382.4z"/>
					<linearGradient id="SVGID_44_" gradientUnits="userSpaceOnUse" x1="176.5309" y1="407.723" x2="176.5309" y2="388.0943">
						<stop  offset="0" style="stop-color:#FFA340"/>
						<stop  offset="0" style="stop-color:#FFA43F"/>
						<stop  offset="1" style="stop-color:#FCD224"/>
					</linearGradient>
					<path class="st44" d="M148.1,397c0,5.9,12.7,10.7,28.4,10.7c15.7,0,28.4-4.8,28.4-10.7v-8.9c0,5.9-12.7,10.7-28.4,10.7
						c-15.7,0-28.4-4.8-28.4-10.7V397z"/>
					<linearGradient id="SVGID_45_" gradientUnits="userSpaceOnUse" x1="157.1815" y1="407.4116" x2="157.1815" y2="393.7819">
						<stop  offset="0" style="stop-color:#FFA340"/>
						<stop  offset="1" style="stop-color:#FCD224;stop-opacity:0"/>
					</linearGradient>
					<path class="st45" d="M166.3,398.1c-10.6-1.5-18.2-5.4-18.2-10v8.9c0,4.5,7.6,8.4,18.2,10V398.1z"/>
					<linearGradient id="SVGID_46_" gradientUnits="userSpaceOnUse" x1="174.7948" y1="413.018" x2="174.7948" y2="397.3879">
						<stop  offset="0" style="stop-color:#FFA340"/>
						<stop  offset="1" style="stop-color:#FCD224;stop-opacity:0"/>
					</linearGradient>
					<rect x="173.1" y="398.8" class="st46" width="3.5" height="8.9"/>
				</g>
				<g>
					<g>
						<linearGradient id="SVGID_47_" gradientUnits="userSpaceOnUse" x1="176.498" y1="398.7344" x2="176.498" y2="374.0324">
							<stop  offset="0" style="stop-color:#FFA340"/>
							<stop  offset="1" style="stop-color:#FCD224;stop-opacity:0"/>
						</linearGradient>
						<path class="st47" d="M188.9,389.1C188.9,389.1,188.9,389.1,188.9,389.1c0-0.1,0-0.3,0-0.4c-0.2-1-1.2-1.7-2.8-2.2
							c0-0.4,0-1.1,0-1.4c0-0.1,0-0.2,0-0.3c-0.2-1.7-3.8-2.6-7.2-2.6l-1.3,0l0-0.5c0-0.3-0.3-0.6-0.6-0.6h-3
							c-0.3,0-0.6,0.2-0.6,0.6l0,0.5l-0.9,0c-3.6,0-7.4,0.9-7.7,2.7c0,0.1,0,0.2,0,0.4c0,0,0,0,0,0.1v1.6c0,0.3,0,0.7,0.4,1.2
							c0.2,0.2,0.5,0.4,0.8,0.6h-1.3c0,0,0,0,0,0c-0.1,0-0.1,0-0.2,0c0,0,0,0,0,0c0,0-0.1,0-0.1,0.1c0,0,0,0-0.1,0.1
							c0,0,0,0-0.1,0.1c0,0,0,0.1-0.1,0.2c0,0,0,0,0,0l0,0c0,0.1,0,0.2,0,0.4c0,0,0,0,0,0.1v1.6c0,0.3,0,0.7,0.4,1.2
							c0.9,1,3.3,1.7,6.1,1.7l2.4,0v1c0,0.3,0.3,0.6,0.6,0.6h3.5c0.3,0,0.6-0.3,0.6-0.6v-1l3.4,0c3.5,0,7.4-0.9,7.8-2.8
							c0-0.1,0-0.1,0-0.2h0C188.9,390.9,188.9,390.5,188.9,389.1z M170.8,390.2l3,0l0.1-2.9h-1.6c-4,0-7.1-1.1-6.8-2.4
							c0.2-1.3,3.4-2.2,7.1-2.2l1.4,0l0-1h3l0,1l1.9,0c3.5,0,6.4,0.9,6.6,2.1h0h-3.1c0-0.2-0.3-0.5-0.6-0.6
							c-0.6-0.3-1.7-0.5-2.9-0.5l-1.9,0l0,2.6h3.6c3.9,0,7.3,1.1,7.6,2.5c0.3,1.5-3,2.7-7.2,2.7l-3.9,0l0,1.6h-3.5l0.1-1.6l-3,0
							c-3.5,0-6.1-1-5.9-2.3h3.3C168,389.8,169.2,390.2,170.8,390.2z"/>
						<linearGradient id="SVGID_48_" gradientUnits="userSpaceOnUse" x1="176.5011" y1="374.1783" x2="176.5011" y2="398.3102">
							<stop  offset="0" style="stop-color:#FFA340"/>
							<stop  offset="1" style="stop-color:#FCD224"/>
						</linearGradient>
						<path class="st48" d="M164.7,389.2c-0.2,1.2,2.4,2.2,5.9,2.3l3,0l-0.1,1.6h3.5l0-1.6l3.9,0c4.3,0,7.5-1.2,7.2-2.7
							c-0.2-1.4-3.6-2.5-7.6-2.5h-3.6l0-2.6l1.9,0c1.2,0,2.2,0.2,2.9,0.5c0.4,0.2,0.6,0.4,0.6,0.6h3.1h0c-0.2-1.2-3.1-2.1-6.6-2.1
							l-1.9,0l0-1h-3l0,1l-1.4,0c-3.7,0-6.9,1-7.1,2.2c-0.2,1.3,2.8,2.4,6.8,2.4h1.6l-0.1,2.9l-3,0c-1.6,0-2.8-0.5-2.7-1H164.7z
							 M183.1,387.6c1.1,0.3,1.9,0.7,1.9,1.2c0.1,0.8-1.7,1.5-4,1.5l-3.9,0l0-2.9h3.7C181.6,387.4,182.4,387.4,183.1,387.6z
							 M168.6,384.9c0-0.4,0.5-0.7,1.2-0.9c0.4-0.1,0.8-0.2,1.2-0.3c0.5-0.1,1-0.1,1.5-0.1l1.5,0l-0.1,2.6h-1.5
							C170.2,386.3,168.5,385.7,168.6,384.9z"/>
						<linearGradient id="SVGID_49_" gradientUnits="userSpaceOnUse" x1="171.2765" y1="383.1158" x2="171.2765" y2="397.0216">
							<stop  offset="0" style="stop-color:#FFA340"/>
							<stop  offset="1" style="stop-color:#FCD224;stop-opacity:0"/>
						</linearGradient>
						<path class="st49" d="M173.9,386.3l0.1-2.6l-1.5,0c-0.5,0-1,0-1.5,0.1c-0.5,0.1-0.9,0.2-1.2,0.3c-0.7,0.2-1.2,0.5-1.2,0.9
							c-0.1,0.7,1.6,1.3,3.8,1.3H173.9z"/>
						<linearGradient id="SVGID_50_" gradientUnits="userSpaceOnUse" x1="181.0373" y1="383.1155" x2="181.0373" y2="397.0222">
							<stop  offset="0" style="stop-color:#FFA340"/>
							<stop  offset="1" style="stop-color:#FCD224;stop-opacity:0"/>
						</linearGradient>
						<path class="st50" d="M177.1,390.2l3.9,0c2.3,0,4.1-0.7,4-1.5c-0.1-0.5-0.8-0.9-1.9-1.2c-0.7-0.2-1.4-0.2-2.3-0.2h-3.7
							L177.1,390.2z"/>
					</g>
				</g>
			</g>
		</g>
	</g>
	<g>
		<g class="st0">
			<ellipse cx="175.4" cy="377.7" rx="28.4" ry="10.7"/>
			<path d="M197.1,377.3c0,3.7-9.7,6.6-21.7,6.6c-12,0-21.7-3-21.7-6.6c0-3.7,9.7-6.6,21.7-6.6C187.4,370.7,197.1,373.6,197.1,377.3
				z"/>
			<path d="M175.4,372.1c11.2,0,20.4,2.6,21.5,5.9c0.1-0.2,0.1-0.5,0.1-0.7c0-3.7-9.7-6.6-21.7-6.6c-12,0-21.7,3-21.7,6.6
				c0,0.2,0,0.5,0.1,0.7C155,374.7,164.2,372.1,175.4,372.1z"/>
			<path d="M146.9,386.7c0,5.9,12.7,10.7,28.4,10.7c15.7,0,28.4-4.8,28.4-10.7v-8.9c0,5.9-12.7,10.7-28.4,10.7
				c-15.7,0-28.4-4.8-28.4-10.7V386.7z"/>
			<path d="M165.1,387.7c-10.6-1.5-18.2-5.4-18.2-10v8.9c0,4.5,7.6,8.4,18.2,10V387.7z"/>
			<rect x="171.9" y="388.4" width="3.5" height="8.9"/>
			<path d="M187.7,378.7C187.7,378.7,187.7,378.7,187.7,378.7c0-0.1,0-0.3,0-0.4c-0.2-1-1.2-1.7-2.8-2.2c0-0.4,0-1.1,0-1.4
				c0-0.1,0-0.2,0-0.3c-0.2-1.7-3.8-2.6-7.2-2.6l-1.3,0l0-0.5c0-0.3-0.3-0.6-0.6-0.6h-3c-0.3,0-0.6,0.2-0.6,0.6l0,0.5l-0.9,0
				c-3.6,0-7.4,0.9-7.7,2.7c0,0.1,0,0.2,0,0.4c0,0,0,0,0,0.1v1.6c0,0.3,0,0.7,0.4,1.2c0.2,0.2,0.5,0.4,0.8,0.6h-1.3c0,0,0,0,0,0
				c-0.1,0-0.1,0-0.2,0c0,0,0,0,0,0c0,0-0.1,0-0.1,0.1c0,0,0,0-0.1,0.1c0,0,0,0-0.1,0.1c0,0,0,0.1-0.1,0.2c0,0,0,0,0,0l0,0
				c0,0.1,0,0.2,0,0.4c0,0,0,0,0,0.1v1.6c0,0.3,0,0.7,0.4,1.2c0.9,1,3.3,1.7,6.1,1.7l2.4,0v1c0,0.3,0.3,0.6,0.6,0.6h3.5
				c0.3,0,0.6-0.3,0.6-0.6v-1l3.4,0c3.5,0,7.4-0.9,7.8-2.8c0-0.1,0-0.1,0-0.2h0C187.7,380.5,187.7,380.1,187.7,378.7z M169.6,379.9
				l3,0l0.1-2.9h-1.6c-4,0-7.1-1.1-6.8-2.4c0.2-1.3,3.4-2.2,7.1-2.2l1.4,0l0-1h3l0,1l1.9,0c3.5,0,6.4,0.9,6.6,2.1h0h-3.1
				c0-0.2-0.3-0.5-0.6-0.6c-0.6-0.3-1.7-0.5-2.9-0.5l-1.9,0l0,2.6h3.6c3.9,0,7.3,1.1,7.6,2.5c0.3,1.5-3,2.7-7.2,2.7l-3.9,0l0,1.6
				h-3.5l0.1-1.6l-3,0c-3.5,0-6.1-1-5.9-2.3h3.3C166.8,379.4,168,379.9,169.6,379.9z"/>
			<path d="M163.6,378.8c-0.2,1.2,2.4,2.2,5.9,2.3l3,0l-0.1,1.6h3.5l0-1.6l3.9,0c4.3,0,7.5-1.2,7.2-2.7c-0.2-1.4-3.6-2.5-7.6-2.5
				h-3.6l0-2.6l1.9,0c1.2,0,2.2,0.2,2.9,0.5c0.4,0.2,0.6,0.4,0.6,0.6h3.1h0c-0.2-1.2-3.1-2.1-6.6-2.1l-1.9,0l0-1h-3l0,1l-1.4,0
				c-3.7,0-6.9,1-7.1,2.2c-0.2,1.3,2.8,2.4,6.8,2.4h1.6l-0.1,2.9l-3,0c-1.6,0-2.8-0.5-2.7-1H163.6z M181.9,377.2
				c1.1,0.3,1.9,0.7,1.9,1.2c0.1,0.8-1.7,1.5-4,1.5l-3.9,0l0-2.9h3.7C180.5,377,181.3,377.1,181.9,377.2z M167.4,374.6
				c0-0.4,0.5-0.7,1.2-0.9c0.4-0.1,0.8-0.2,1.2-0.3c0.5-0.1,1-0.1,1.5-0.1l1.5,0l-0.1,2.6h-1.5C169,375.9,167.3,375.3,167.4,374.6z"
				/>
			<path d="M172.8,375.9l0.1-2.6l-1.5,0c-0.5,0-1,0-1.5,0.1c-0.5,0.1-0.9,0.2-1.2,0.3c-0.7,0.2-1.2,0.5-1.2,0.9
				c-0.1,0.7,1.6,1.3,3.8,1.3H172.8z"/>
			<path d="M176,379.9l3.9,0c2.3,0,4.1-0.7,4-1.5c-0.1-0.5-0.8-0.9-1.9-1.2c-0.7-0.2-1.4-0.2-2.3-0.2h-3.7L176,379.9z"/>
		</g>
		<g>
			<g>
				<g>
					<linearGradient id="SVGID_51_" gradientUnits="userSpaceOnUse" x1="175.393" y1="363.21" x2="175.393" y2="389.0905">
						<stop  offset="0" style="stop-color:#FCD224"/>
						<stop  offset="1" style="stop-color:#FFA340"/>
					</linearGradient>
					<ellipse class="st51" cx="175.4" cy="376.7" rx="28.4" ry="10.7"/>
					<linearGradient id="SVGID_52_" gradientUnits="userSpaceOnUse" x1="175.3929" y1="369.6177" x2="175.3929" y2="382.8396">
						<stop  offset="0" style="stop-color:#FFA340"/>
						<stop  offset="1" style="stop-color:#FCD224"/>
					</linearGradient>
					<path class="st52" d="M197.1,376.3c0,3.7-9.7,6.6-21.7,6.6c-12,0-21.7-3-21.7-6.6c0-3.7,9.7-6.6,21.7-6.6
						C187.4,369.7,197.1,372.6,197.1,376.3z"/>
					<linearGradient id="SVGID_53_" gradientUnits="userSpaceOnUse" x1="175.3929" y1="368.4162" x2="175.3929" y2="380.5904">
						<stop  offset="0" style="stop-color:#FFA340"/>
						<stop  offset="1" style="stop-color:#FCD224;stop-opacity:0"/>
					</linearGradient>
					<path class="st53" d="M175.4,371.1c11.2,0,20.4,2.6,21.5,5.9c0.1-0.2,0.1-0.5,0.1-0.7c0-3.7-9.7-6.6-21.7-6.6
						c-12,0-21.7,3-21.7,6.6c0,0.2,0,0.5,0.1,0.7C155,373.7,164.2,371.1,175.4,371.1z"/>
					<linearGradient id="SVGID_54_" gradientUnits="userSpaceOnUse" x1="175.393" y1="396.361" x2="175.393" y2="376.7323">
						<stop  offset="0" style="stop-color:#FFA340"/>
						<stop  offset="0" style="stop-color:#FFA43F"/>
						<stop  offset="1" style="stop-color:#FCD224"/>
					</linearGradient>
					<path class="st54" d="M146.9,385.7c0,5.9,12.7,10.7,28.4,10.7c15.7,0,28.4-4.8,28.4-10.7v-8.9c0,5.9-12.7,10.7-28.4,10.7
						c-15.7,0-28.4-4.8-28.4-10.7V385.7z"/>
					<linearGradient id="SVGID_55_" gradientUnits="userSpaceOnUse" x1="156.0436" y1="396.0494" x2="156.0436" y2="382.4198">
						<stop  offset="0" style="stop-color:#FFA340"/>
						<stop  offset="1" style="stop-color:#FCD224;stop-opacity:0"/>
					</linearGradient>
					<path class="st55" d="M165.1,386.7c-10.6-1.5-18.2-5.4-18.2-10v8.9c0,4.5,7.6,8.4,18.2,10V386.7z"/>
					<linearGradient id="SVGID_56_" gradientUnits="userSpaceOnUse" x1="173.657" y1="401.6561" x2="173.657" y2="386.0258">
						<stop  offset="0" style="stop-color:#FFA340"/>
						<stop  offset="1" style="stop-color:#FCD224;stop-opacity:0"/>
					</linearGradient>
					<rect x="171.9" y="387.4" class="st56" width="3.5" height="8.9"/>
				</g>
				<g>
					<g>
						<linearGradient id="SVGID_57_" gradientUnits="userSpaceOnUse" x1="175.3602" y1="387.3723" x2="175.3602" y2="362.6703">
							<stop  offset="0" style="stop-color:#FFA340"/>
							<stop  offset="1" style="stop-color:#FCD224;stop-opacity:0"/>
						</linearGradient>
						<path class="st57" d="M187.7,377.7C187.7,377.7,187.7,377.7,187.7,377.7c0-0.1,0-0.3,0-0.4c-0.2-1-1.2-1.7-2.8-2.2
							c0-0.4,0-1.1,0-1.4c0-0.1,0-0.2,0-0.3c-0.2-1.7-3.8-2.6-7.2-2.6l-1.3,0l0-0.5c0-0.3-0.3-0.6-0.6-0.6h-3
							c-0.3,0-0.6,0.2-0.6,0.6l0,0.5l-0.9,0c-3.6,0-7.4,0.9-7.7,2.7c0,0.1,0,0.2,0,0.4c0,0,0,0,0,0.1v1.6c0,0.3,0,0.7,0.4,1.2
							c0.2,0.2,0.5,0.4,0.8,0.6h-1.3c0,0,0,0,0,0c-0.1,0-0.1,0-0.2,0c0,0,0,0,0,0c0,0-0.1,0-0.1,0.1c0,0,0,0-0.1,0.1
							c0,0,0,0-0.1,0.1c0,0,0,0.1-0.1,0.2c0,0,0,0,0,0l0,0c0,0.1,0,0.2,0,0.4c0,0,0,0,0,0.1v1.6c0,0.3,0,0.7,0.4,1.2
							c0.9,1,3.3,1.7,6.1,1.7l2.4,0v1c0,0.3,0.3,0.6,0.6,0.6h3.5c0.3,0,0.6-0.3,0.6-0.6v-1l3.4,0c3.5,0,7.4-0.9,7.8-2.8
							c0-0.1,0-0.1,0-0.2h0C187.7,379.5,187.7,379.1,187.7,377.7z M169.6,378.9l3,0l0.1-2.9h-1.6c-4,0-7.1-1.1-6.8-2.4
							c0.2-1.3,3.4-2.2,7.1-2.2l1.4,0l0-1h3l0,1l1.9,0c3.5,0,6.4,0.9,6.6,2.1h0h-3.1c0-0.2-0.3-0.5-0.6-0.6
							c-0.6-0.3-1.7-0.5-2.9-0.5l-1.9,0l0,2.6h3.6c3.9,0,7.3,1.1,7.6,2.5c0.3,1.5-3,2.7-7.2,2.7l-3.9,0l0,1.6h-3.5l0.1-1.6l-3,0
							c-3.5,0-6.1-1-5.9-2.3h3.3C166.8,378.4,168,378.9,169.6,378.9z"/>
						<linearGradient id="SVGID_58_" gradientUnits="userSpaceOnUse" x1="175.3633" y1="362.8161" x2="175.3633" y2="386.948">
							<stop  offset="0" style="stop-color:#FFA340"/>
							<stop  offset="1" style="stop-color:#FCD224"/>
						</linearGradient>
						<path class="st58" d="M163.6,377.8c-0.2,1.2,2.4,2.2,5.9,2.3l3,0l-0.1,1.6h3.5l0-1.6l3.9,0c4.3,0,7.5-1.2,7.2-2.7
							c-0.2-1.4-3.6-2.5-7.6-2.5h-3.6l0-2.6l1.9,0c1.2,0,2.2,0.2,2.9,0.5c0.4,0.2,0.6,0.4,0.6,0.6h3.1h0c-0.2-1.2-3.1-2.1-6.6-2.1
							l-1.9,0l0-1h-3l0,1l-1.4,0c-3.7,0-6.9,1-7.1,2.2c-0.2,1.3,2.8,2.4,6.8,2.4h1.6l-0.1,2.9l-3,0c-1.6,0-2.8-0.5-2.7-1H163.6z
							 M181.9,376.2c1.1,0.3,1.9,0.7,1.9,1.2c0.1,0.8-1.7,1.5-4,1.5l-3.9,0l0-2.9h3.7C180.5,376,181.3,376.1,181.9,376.2z
							 M167.4,373.6c0-0.4,0.5-0.7,1.2-0.9c0.4-0.1,0.8-0.2,1.2-0.3c0.5-0.1,1-0.1,1.5-0.1l1.5,0l-0.1,2.6h-1.5
							C169,374.9,167.3,374.3,167.4,373.6z"/>
						<linearGradient id="SVGID_59_" gradientUnits="userSpaceOnUse" x1="170.1386" y1="371.7536" x2="170.1386" y2="385.66">
							<stop  offset="0" style="stop-color:#FFA340"/>
							<stop  offset="1" style="stop-color:#FCD224;stop-opacity:0"/>
						</linearGradient>
						<path class="st59" d="M172.8,374.9l0.1-2.6l-1.5,0c-0.5,0-1,0-1.5,0.1c-0.5,0.1-0.9,0.2-1.2,0.3c-0.7,0.2-1.2,0.5-1.2,0.9
							c-0.1,0.7,1.6,1.3,3.8,1.3H172.8z"/>
						<linearGradient id="SVGID_60_" gradientUnits="userSpaceOnUse" x1="179.8994" y1="371.7536" x2="179.8994" y2="385.6598">
							<stop  offset="0" style="stop-color:#FFA340"/>
							<stop  offset="1" style="stop-color:#FCD224;stop-opacity:0"/>
						</linearGradient>
						<path class="st60" d="M176,378.9l3.9,0c2.3,0,4.1-0.7,4-1.5c-0.1-0.5-0.8-0.9-1.9-1.2c-0.7-0.2-1.4-0.2-2.3-0.2h-3.7
							L176,378.9z"/>
					</g>
				</g>
			</g>
		</g>
	</g>
	<g>
		<g class="st0">
			<ellipse cx="182.2" cy="367" rx="28.4" ry="10.7"/>
			<path d="M203.9,366.6c0,3.7-9.7,6.6-21.7,6.6c-12,0-21.7-3-21.7-6.6c0-3.7,9.7-6.6,21.7-6.6C194.2,359.9,203.9,362.9,203.9,366.6
				z"/>
			<path d="M182.2,361.3c11.2,0,20.4,2.6,21.5,5.9c0.1-0.2,0.1-0.5,0.1-0.7c0-3.7-9.7-6.6-21.7-6.6c-12,0-21.7,3-21.7,6.6
				c0,0.2,0,0.5,0.1,0.7C161.8,363.9,171,361.3,182.2,361.3z"/>
			<path d="M153.8,376c0,5.9,12.7,10.7,28.4,10.7c15.7,0,28.4-4.8,28.4-10.7V367c0,5.9-12.7,10.7-28.4,10.7
				c-15.7,0-28.4-4.8-28.4-10.7V376z"/>
			<path d="M172,377c-10.6-1.5-18.2-5.4-18.2-10v8.9c0,4.5,7.6,8.4,18.2,10V377z"/>
			<rect x="178.7" y="377.7" width="3.5" height="8.9"/>
			<path d="M194.6,368C194.6,368,194.6,368,194.6,368c0-0.1,0-0.3,0-0.4c-0.2-1-1.2-1.7-2.8-2.2c0-0.4,0-1.1,0-1.4
				c0-0.1,0-0.2,0-0.3c-0.2-1.7-3.8-2.6-7.2-2.6l-1.3,0l0-0.5c0-0.3-0.3-0.6-0.6-0.6h-3c-0.3,0-0.6,0.2-0.6,0.6l0,0.5l-0.9,0
				c-3.6,0-7.4,0.9-7.7,2.7c0,0.1,0,0.2,0,0.4c0,0,0,0,0,0.1v1.6c0,0.3,0,0.7,0.4,1.2c0.2,0.2,0.5,0.4,0.8,0.6h-1.3c0,0,0,0,0,0
				c-0.1,0-0.1,0-0.2,0c0,0,0,0,0,0c0,0-0.1,0-0.1,0.1c0,0,0,0-0.1,0.1c0,0,0,0-0.1,0.1c0,0,0,0.1-0.1,0.2c0,0,0,0,0,0l0,0
				c0,0.1,0,0.2,0,0.4c0,0,0,0,0,0.1v1.6c0,0.3,0,0.7,0.4,1.2c0.9,1,3.3,1.7,6.1,1.7l2.4,0v1c0,0.3,0.3,0.6,0.6,0.6h3.5
				c0.3,0,0.6-0.3,0.6-0.6v-1l3.4,0c3.5,0,7.4-0.9,7.8-2.8c0-0.1,0-0.1,0-0.2h0C194.6,369.8,194.6,369.4,194.6,368z M176.5,369.1
				l3,0l0.1-2.9H178c-4,0-7.1-1.1-6.8-2.4c0.2-1.3,3.4-2.2,7.1-2.2l1.4,0l0-1h3l0,1l1.9,0c3.5,0,6.4,0.9,6.6,2.1h0h-3.1
				c0-0.2-0.3-0.5-0.6-0.6c-0.6-0.3-1.7-0.5-2.9-0.5l-1.9,0l0,2.6h3.6c3.9,0,7.3,1.1,7.6,2.5c0.3,1.5-3,2.7-7.2,2.7l-3.9,0l0,1.6
				h-3.5l0.1-1.6l-3,0c-3.5,0-6.1-1-5.9-2.3h3.3C173.6,368.7,174.9,369.1,176.5,369.1z"/>
			<path d="M170.4,368.1c-0.2,1.2,2.4,2.2,5.9,2.3l3,0l-0.1,1.6h3.5l0-1.6l3.9,0c4.3,0,7.5-1.2,7.2-2.7c-0.2-1.4-3.6-2.5-7.6-2.5
				h-3.6l0-2.6l1.9,0c1.2,0,2.2,0.2,2.9,0.5c0.4,0.2,0.6,0.4,0.6,0.6h3.1h0c-0.2-1.2-3.1-2.1-6.6-2.1l-1.9,0l0-1h-3l0,1l-1.4,0
				c-3.7,0-6.9,1-7.1,2.2c-0.2,1.3,2.8,2.4,6.8,2.4h1.6l-0.1,2.9l-3,0c-1.6,0-2.8-0.5-2.7-1H170.4z M188.8,366.5
				c1.1,0.3,1.9,0.7,1.9,1.2c0.1,0.8-1.7,1.5-4,1.5l-3.9,0l0-2.9h3.7C187.3,366.3,188.1,366.4,188.8,366.5z M174.2,363.9
				c0-0.4,0.5-0.7,1.2-0.9c0.4-0.1,0.8-0.2,1.2-0.3c0.5-0.1,1-0.1,1.5-0.1l1.5,0l-0.1,2.6H178C175.9,365.2,174.2,364.6,174.2,363.9z
				"/>
			<path d="M179.6,365.2l0.1-2.6l-1.5,0c-0.5,0-1,0-1.5,0.1c-0.5,0.1-0.9,0.2-1.2,0.3c-0.7,0.2-1.2,0.5-1.2,0.9
				c-0.1,0.7,1.6,1.3,3.8,1.3H179.6z"/>
			<path d="M182.8,369.2l3.9,0c2.3,0,4.1-0.7,4-1.5c-0.1-0.5-0.8-0.9-1.9-1.2c-0.7-0.2-1.4-0.2-2.3-0.2h-3.7L182.8,369.2z"/>
		</g>
		<g>
			<g>
				<g>
					<linearGradient id="SVGID_61_" gradientUnits="userSpaceOnUse" x1="182.22" y1="352.4922" x2="182.22" y2="378.3728">
						<stop  offset="0" style="stop-color:#FCD224"/>
						<stop  offset="1" style="stop-color:#FFA340"/>
					</linearGradient>
					<ellipse class="st61" cx="182.2" cy="366" rx="28.4" ry="10.7"/>
					<linearGradient id="SVGID_62_" gradientUnits="userSpaceOnUse" x1="182.2199" y1="358.9001" x2="182.2199" y2="372.1218">
						<stop  offset="0" style="stop-color:#FFA340"/>
						<stop  offset="1" style="stop-color:#FCD224"/>
					</linearGradient>
					<path class="st62" d="M203.9,365.6c0,3.7-9.7,6.6-21.7,6.6c-12,0-21.7-3-21.7-6.6c0-3.7,9.7-6.6,21.7-6.6
						C194.2,358.9,203.9,361.9,203.9,365.6z"/>
					<linearGradient id="SVGID_63_" gradientUnits="userSpaceOnUse" x1="182.2199" y1="357.6985" x2="182.2199" y2="369.8727">
						<stop  offset="0" style="stop-color:#FFA340"/>
						<stop  offset="1" style="stop-color:#FCD224;stop-opacity:0"/>
					</linearGradient>
					<path class="st63" d="M182.2,360.3c11.2,0,20.4,2.6,21.5,5.9c0.1-0.2,0.1-0.5,0.1-0.7c0-3.7-9.7-6.6-21.7-6.6
						c-12,0-21.7,3-21.7,6.6c0,0.2,0,0.5,0.1,0.7C161.8,362.9,171,360.3,182.2,360.3z"/>
					<linearGradient id="SVGID_64_" gradientUnits="userSpaceOnUse" x1="182.22" y1="385.6433" x2="182.22" y2="366.0146">
						<stop  offset="0" style="stop-color:#FFA340"/>
						<stop  offset="0" style="stop-color:#FFA43F"/>
						<stop  offset="1" style="stop-color:#FCD224"/>
					</linearGradient>
					<path class="st64" d="M153.8,375c0,5.9,12.7,10.7,28.4,10.7c15.7,0,28.4-4.8,28.4-10.7V366c0,5.9-12.7,10.7-28.4,10.7
						c-15.7,0-28.4-4.8-28.4-10.7V375z"/>
					<linearGradient id="SVGID_65_" gradientUnits="userSpaceOnUse" x1="162.8706" y1="385.3317" x2="162.8706" y2="371.7021">
						<stop  offset="0" style="stop-color:#FFA340"/>
						<stop  offset="1" style="stop-color:#FCD224;stop-opacity:0"/>
					</linearGradient>
					<path class="st65" d="M172,376c-10.6-1.5-18.2-5.4-18.2-10v8.9c0,4.5,7.6,8.4,18.2,10V376z"/>
					<linearGradient id="SVGID_66_" gradientUnits="userSpaceOnUse" x1="180.484" y1="390.9384" x2="180.484" y2="375.3081">
						<stop  offset="0" style="stop-color:#FFA340"/>
						<stop  offset="1" style="stop-color:#FCD224;stop-opacity:0"/>
					</linearGradient>
					<rect x="178.7" y="376.7" class="st66" width="3.5" height="8.9"/>
				</g>
				<g>
					<g>
						<linearGradient id="SVGID_67_" gradientUnits="userSpaceOnUse" x1="182.1872" y1="376.6546" x2="182.1872" y2="351.9526">
							<stop  offset="0" style="stop-color:#FFA340"/>
							<stop  offset="1" style="stop-color:#FCD224;stop-opacity:0"/>
						</linearGradient>
						<path class="st67" d="M194.6,367C194.6,367,194.6,367,194.6,367c0-0.1,0-0.3,0-0.4c-0.2-1-1.2-1.7-2.8-2.2c0-0.4,0-1.1,0-1.4
							c0-0.1,0-0.2,0-0.3c-0.2-1.7-3.8-2.6-7.2-2.6l-1.3,0l0-0.5c0-0.3-0.3-0.6-0.6-0.6h-3c-0.3,0-0.6,0.2-0.6,0.6l0,0.5l-0.9,0
							c-3.6,0-7.4,0.9-7.7,2.7c0,0.1,0,0.2,0,0.4c0,0,0,0,0,0.1v1.6c0,0.3,0,0.7,0.4,1.2c0.2,0.2,0.5,0.4,0.8,0.6h-1.3c0,0,0,0,0,0
							c-0.1,0-0.1,0-0.2,0c0,0,0,0,0,0c0,0-0.1,0-0.1,0.1c0,0,0,0-0.1,0.1c0,0,0,0-0.1,0.1c0,0,0,0.1-0.1,0.2c0,0,0,0,0,0l0,0
							c0,0.1,0,0.2,0,0.4c0,0,0,0,0,0.1v1.6c0,0.3,0,0.7,0.4,1.2c0.9,1,3.3,1.7,6.1,1.7l2.4,0v1c0,0.3,0.3,0.6,0.6,0.6h3.5
							c0.3,0,0.6-0.3,0.6-0.6v-1l3.4,0c3.5,0,7.4-0.9,7.8-2.8c0-0.1,0-0.1,0-0.2h0C194.6,368.8,194.6,368.4,194.6,367z M176.5,368.1
							l3,0l0.1-2.9H178c-4,0-7.1-1.1-6.8-2.4c0.2-1.3,3.4-2.2,7.1-2.2l1.4,0l0-1h3l0,1l1.9,0c3.5,0,6.4,0.9,6.6,2.1h0h-3.1
							c0-0.2-0.3-0.5-0.6-0.6c-0.6-0.3-1.7-0.5-2.9-0.5l-1.9,0l0,2.6h3.6c3.9,0,7.3,1.1,7.6,2.5c0.3,1.5-3,2.7-7.2,2.7l-3.9,0l0,1.6
							h-3.5l0.1-1.6l-3,0c-3.5,0-6.1-1-5.9-2.3h3.3C173.6,367.7,174.9,368.1,176.5,368.1z"/>
						<linearGradient id="SVGID_68_" gradientUnits="userSpaceOnUse" x1="182.1903" y1="352.0984" x2="182.1903" y2="376.2303">
							<stop  offset="0" style="stop-color:#FFA340"/>
							<stop  offset="1" style="stop-color:#FCD224"/>
						</linearGradient>
						<path class="st68" d="M170.4,367.1c-0.2,1.2,2.4,2.2,5.9,2.3l3,0l-0.1,1.6h3.5l0-1.6l3.9,0c4.3,0,7.5-1.2,7.2-2.7
							c-0.2-1.4-3.6-2.5-7.6-2.5h-3.6l0-2.6l1.9,0c1.2,0,2.2,0.2,2.9,0.5c0.4,0.2,0.6,0.4,0.6,0.6h3.1h0c-0.2-1.2-3.1-2.1-6.6-2.1
							l-1.9,0l0-1h-3l0,1l-1.4,0c-3.7,0-6.9,1-7.1,2.2c-0.2,1.3,2.8,2.4,6.8,2.4h1.6l-0.1,2.9l-3,0c-1.6,0-2.8-0.5-2.7-1H170.4z
							 M188.8,365.5c1.1,0.3,1.9,0.7,1.9,1.2c0.1,0.8-1.7,1.5-4,1.5l-3.9,0l0-2.9h3.7C187.3,365.3,188.1,365.4,188.8,365.5z
							 M174.2,362.9c0-0.4,0.5-0.7,1.2-0.9c0.4-0.1,0.8-0.2,1.2-0.3c0.5-0.1,1-0.1,1.5-0.1l1.5,0l-0.1,2.6H178
							C175.9,364.2,174.2,363.6,174.2,362.9z"/>
						<linearGradient id="SVGID_69_" gradientUnits="userSpaceOnUse" x1="176.9656" y1="361.0359" x2="176.9656" y2="374.9417">
							<stop  offset="0" style="stop-color:#FFA340"/>
							<stop  offset="1" style="stop-color:#FCD224;stop-opacity:0"/>
						</linearGradient>
						<path class="st69" d="M179.6,364.2l0.1-2.6l-1.5,0c-0.5,0-1,0-1.5,0.1c-0.5,0.1-0.9,0.2-1.2,0.3c-0.7,0.2-1.2,0.5-1.2,0.9
							c-0.1,0.7,1.6,1.3,3.8,1.3H179.6z"/>
						<linearGradient id="SVGID_70_" gradientUnits="userSpaceOnUse" x1="186.7264" y1="361.0359" x2="186.7264" y2="374.9421">
							<stop  offset="0" style="stop-color:#FFA340"/>
							<stop  offset="1" style="stop-color:#FCD224;stop-opacity:0"/>
						</linearGradient>
						<path class="st70" d="M182.8,368.2l3.9,0c2.3,0,4.1-0.7,4-1.5c-0.1-0.5-0.8-0.9-1.9-1.2c-0.7-0.2-1.4-0.2-2.3-0.2h-3.7
							L182.8,368.2z"/>
					</g>
				</g>
			</g>
		</g>
	</g>
	<g>
		<g class="st0">
			<ellipse cx="176.5" cy="355.7" rx="28.4" ry="10.7"/>
			<path d="M198.2,355.2c0,3.7-9.7,6.6-21.7,6.6c-12,0-21.7-3-21.7-6.6c0-3.7,9.7-6.6,21.7-6.6C188.5,348.6,198.2,351.6,198.2,355.2
				z"/>
			<path d="M176.5,350c11.2,0,20.4,2.6,21.5,5.9c0.1-0.2,0.1-0.5,0.1-0.7c0-3.7-9.7-6.6-21.7-6.6c-12,0-21.7,3-21.7,6.6
				c0,0.2,0,0.5,0.1,0.7C156.1,352.6,165.3,350,176.5,350z"/>
			<path d="M148.1,364.6c0,5.9,12.7,10.7,28.4,10.7c15.7,0,28.4-4.8,28.4-10.7v-8.9c0,5.9-12.7,10.7-28.4,10.7
				c-15.7,0-28.4-4.8-28.4-10.7V364.6z"/>
			<path d="M166.3,365.6c-10.6-1.5-18.2-5.4-18.2-10v8.9c0,4.5,7.6,8.4,18.2,10V365.6z"/>
			<rect x="173.1" y="366.3" width="3.5" height="8.9"/>
			<path d="M188.9,356.6C188.9,356.6,188.9,356.6,188.9,356.6c0-0.1,0-0.3,0-0.4c-0.2-1-1.2-1.7-2.8-2.2c0-0.4,0-1.1,0-1.4
				c0-0.1,0-0.2,0-0.3c-0.2-1.7-3.8-2.6-7.2-2.6l-1.3,0l0-0.5c0-0.3-0.3-0.6-0.6-0.6h-3c-0.3,0-0.6,0.2-0.6,0.6l0,0.5l-0.9,0
				c-3.6,0-7.4,0.9-7.7,2.7c0,0.1,0,0.2,0,0.4c0,0,0,0,0,0.1v1.6c0,0.3,0,0.7,0.4,1.2c0.2,0.2,0.5,0.4,0.8,0.6h-1.3c0,0,0,0,0,0
				c-0.1,0-0.1,0-0.2,0c0,0,0,0,0,0c0,0-0.1,0-0.1,0.1c0,0,0,0-0.1,0.1c0,0,0,0-0.1,0.1c0,0,0,0.1-0.1,0.2c0,0,0,0,0,0l0,0
				c0,0.1,0,0.2,0,0.4c0,0,0,0,0,0.1v1.6c0,0.3,0,0.7,0.4,1.2c0.9,1,3.3,1.7,6.1,1.7l2.4,0v1c0,0.3,0.3,0.6,0.6,0.6h3.5
				c0.3,0,0.6-0.3,0.6-0.6v-1l3.4,0c3.5,0,7.4-0.9,7.8-2.8c0-0.1,0-0.1,0-0.2h0C188.9,358.4,188.9,358,188.9,356.6z M170.8,357.8
				l3,0l0.1-2.9h-1.6c-4,0-7.1-1.1-6.8-2.4c0.2-1.3,3.4-2.2,7.1-2.2l1.4,0l0-1h3l0,1l1.9,0c3.5,0,6.4,0.9,6.6,2.1h0h-3.1
				c0-0.2-0.3-0.5-0.6-0.6c-0.6-0.3-1.7-0.5-2.9-0.5l-1.9,0l0,2.6h3.6c3.9,0,7.3,1.1,7.6,2.5c0.3,1.5-3,2.7-7.2,2.7l-3.9,0l0,1.6
				h-3.5l0.1-1.6l-3,0c-3.5,0-6.1-1-5.9-2.3h3.3C168,357.3,169.2,357.8,170.8,357.8z"/>
			<path d="M164.7,356.8c-0.2,1.2,2.4,2.2,5.9,2.3l3,0l-0.1,1.6h3.5l0-1.6l3.9,0c4.3,0,7.5-1.2,7.2-2.7c-0.2-1.4-3.6-2.5-7.6-2.5
				h-3.6l0-2.6l1.9,0c1.2,0,2.2,0.2,2.9,0.5c0.4,0.2,0.6,0.4,0.6,0.6h3.1h0c-0.2-1.2-3.1-2.1-6.6-2.1l-1.9,0l0-1h-3l0,1l-1.4,0
				c-3.7,0-6.9,1-7.1,2.2c-0.2,1.3,2.8,2.4,6.8,2.4h1.6l-0.1,2.9l-3,0c-1.6,0-2.8-0.5-2.7-1H164.7z M183.1,355.1
				c1.1,0.3,1.9,0.7,1.9,1.2c0.1,0.8-1.7,1.5-4,1.5l-3.9,0l0-2.9h3.7C181.6,354.9,182.4,355,183.1,355.1z M168.6,352.5
				c0-0.4,0.5-0.7,1.2-0.9c0.4-0.1,0.8-0.2,1.2-0.3c0.5-0.1,1-0.1,1.5-0.1l1.5,0l-0.1,2.6h-1.5C170.2,353.8,168.5,353.2,168.6,352.5
				z"/>
			<path d="M173.9,353.8l0.1-2.6l-1.5,0c-0.5,0-1,0-1.5,0.1c-0.5,0.1-0.9,0.2-1.2,0.3c-0.7,0.2-1.2,0.5-1.2,0.9
				c-0.1,0.7,1.6,1.3,3.8,1.3H173.9z"/>
			<path d="M177.1,357.8l3.9,0c2.3,0,4.1-0.7,4-1.5c-0.1-0.5-0.8-0.9-1.9-1.2c-0.7-0.2-1.4-0.2-2.3-0.2h-3.7L177.1,357.8z"/>
		</g>
		<g>
			<g>
				<g>
					<linearGradient id="SVGID_71_" gradientUnits="userSpaceOnUse" x1="176.5309" y1="341.1302" x2="176.5309" y2="367.0108">
						<stop  offset="0" style="stop-color:#FCD224"/>
						<stop  offset="1" style="stop-color:#FFA340"/>
					</linearGradient>
					<ellipse class="st71" cx="176.5" cy="354.7" rx="28.4" ry="10.7"/>
					<linearGradient id="SVGID_72_" gradientUnits="userSpaceOnUse" x1="176.5307" y1="347.5379" x2="176.5307" y2="360.7598">
						<stop  offset="0" style="stop-color:#FFA340"/>
						<stop  offset="1" style="stop-color:#FCD224"/>
					</linearGradient>
					<path class="st72" d="M198.2,354.2c0,3.7-9.7,6.6-21.7,6.6c-12,0-21.7-3-21.7-6.6c0-3.7,9.7-6.6,21.7-6.6
						C188.5,347.6,198.2,350.6,198.2,354.2z"/>
					<linearGradient id="SVGID_73_" gradientUnits="userSpaceOnUse" x1="176.5307" y1="346.3365" x2="176.5307" y2="358.5107">
						<stop  offset="0" style="stop-color:#FFA340"/>
						<stop  offset="1" style="stop-color:#FCD224;stop-opacity:0"/>
					</linearGradient>
					<path class="st73" d="M176.5,349c11.2,0,20.4,2.6,21.5,5.9c0.1-0.2,0.1-0.5,0.1-0.7c0-3.7-9.7-6.6-21.7-6.6
						c-12,0-21.7,3-21.7,6.6c0,0.2,0,0.5,0.1,0.7C156.1,351.6,165.3,349,176.5,349z"/>
					<linearGradient id="SVGID_74_" gradientUnits="userSpaceOnUse" x1="176.5309" y1="374.2812" x2="176.5309" y2="354.6524">
						<stop  offset="0" style="stop-color:#FFA340"/>
						<stop  offset="0" style="stop-color:#FFA43F"/>
						<stop  offset="1" style="stop-color:#FCD224"/>
					</linearGradient>
					<path class="st74" d="M148.1,363.6c0,5.9,12.7,10.7,28.4,10.7c15.7,0,28.4-4.8,28.4-10.7v-8.9c0,5.9-12.7,10.7-28.4,10.7
						c-15.7,0-28.4-4.8-28.4-10.7V363.6z"/>
					<linearGradient id="SVGID_75_" gradientUnits="userSpaceOnUse" x1="157.1815" y1="373.9696" x2="157.1815" y2="360.34">
						<stop  offset="0" style="stop-color:#FFA340"/>
						<stop  offset="1" style="stop-color:#FCD224;stop-opacity:0"/>
					</linearGradient>
					<path class="st75" d="M166.3,364.6c-10.6-1.5-18.2-5.4-18.2-10v8.9c0,4.5,7.6,8.4,18.2,10V364.6z"/>
					<linearGradient id="SVGID_76_" gradientUnits="userSpaceOnUse" x1="174.7948" y1="379.5761" x2="174.7948" y2="363.946">
						<stop  offset="0" style="stop-color:#FFA340"/>
						<stop  offset="1" style="stop-color:#FCD224;stop-opacity:0"/>
					</linearGradient>
					<rect x="173.1" y="365.3" class="st76" width="3.5" height="8.9"/>
				</g>
				<g>
					<g>
						<linearGradient id="SVGID_77_" gradientUnits="userSpaceOnUse" x1="176.498" y1="365.2924" x2="176.498" y2="340.5904">
							<stop  offset="0" style="stop-color:#FFA340"/>
							<stop  offset="1" style="stop-color:#FCD224;stop-opacity:0"/>
						</linearGradient>
						<path class="st77" d="M188.9,355.6C188.9,355.6,188.9,355.6,188.9,355.6c0-0.1,0-0.3,0-0.4c-0.2-1-1.2-1.7-2.8-2.2
							c0-0.4,0-1.1,0-1.4c0-0.1,0-0.2,0-0.3c-0.2-1.7-3.8-2.6-7.2-2.6l-1.3,0l0-0.5c0-0.3-0.3-0.6-0.6-0.6h-3
							c-0.3,0-0.6,0.2-0.6,0.6l0,0.5l-0.9,0c-3.6,0-7.4,0.9-7.7,2.7c0,0.1,0,0.2,0,0.4c0,0,0,0,0,0.1v1.6c0,0.3,0,0.7,0.4,1.2
							c0.2,0.2,0.5,0.4,0.8,0.6h-1.3c0,0,0,0,0,0c-0.1,0-0.1,0-0.2,0c0,0,0,0,0,0c0,0-0.1,0-0.1,0.1c0,0,0,0-0.1,0.1
							c0,0,0,0-0.1,0.1c0,0,0,0.1-0.1,0.2c0,0,0,0,0,0l0,0c0,0.1,0,0.2,0,0.4c0,0,0,0,0,0.1v1.6c0,0.3,0,0.7,0.4,1.2
							c0.9,1,3.3,1.7,6.1,1.7l2.4,0v1c0,0.3,0.3,0.6,0.6,0.6h3.5c0.3,0,0.6-0.3,0.6-0.6v-1l3.4,0c3.5,0,7.4-0.9,7.8-2.8
							c0-0.1,0-0.1,0-0.2h0C188.9,357.4,188.9,357,188.9,355.6z M170.8,356.8l3,0l0.1-2.9h-1.6c-4,0-7.1-1.1-6.8-2.4
							c0.2-1.3,3.4-2.2,7.1-2.2l1.4,0l0-1h3l0,1l1.9,0c3.5,0,6.4,0.9,6.6,2.1h0h-3.1c0-0.2-0.3-0.5-0.6-0.6
							c-0.6-0.3-1.7-0.5-2.9-0.5l-1.9,0l0,2.6h3.6c3.9,0,7.3,1.1,7.6,2.5c0.3,1.5-3,2.7-7.2,2.7l-3.9,0l0,1.6h-3.5l0.1-1.6l-3,0
							c-3.5,0-6.1-1-5.9-2.3h3.3C168,356.3,169.2,356.8,170.8,356.8z"/>
						<linearGradient id="SVGID_78_" gradientUnits="userSpaceOnUse" x1="176.5011" y1="340.7364" x2="176.5011" y2="364.8681">
							<stop  offset="0" style="stop-color:#FFA340"/>
							<stop  offset="1" style="stop-color:#FCD224"/>
						</linearGradient>
						<path class="st78" d="M164.7,355.8c-0.2,1.2,2.4,2.2,5.9,2.3l3,0l-0.1,1.6h3.5l0-1.6l3.9,0c4.3,0,7.5-1.2,7.2-2.7
							c-0.2-1.4-3.6-2.5-7.6-2.5h-3.6l0-2.6l1.9,0c1.2,0,2.2,0.2,2.9,0.5c0.4,0.2,0.6,0.4,0.6,0.6h3.1h0c-0.2-1.2-3.1-2.1-6.6-2.1
							l-1.9,0l0-1h-3l0,1l-1.4,0c-3.7,0-6.9,1-7.1,2.2c-0.2,1.3,2.8,2.4,6.8,2.4h1.6l-0.1,2.9l-3,0c-1.6,0-2.8-0.5-2.7-1H164.7z
							 M183.1,354.1c1.1,0.3,1.9,0.7,1.9,1.2c0.1,0.8-1.7,1.5-4,1.5l-3.9,0l0-2.9h3.7C181.6,353.9,182.4,354,183.1,354.1z
							 M168.6,351.5c0-0.4,0.5-0.7,1.2-0.9c0.4-0.1,0.8-0.2,1.2-0.3c0.5-0.1,1-0.1,1.5-0.1l1.5,0l-0.1,2.6h-1.5
							C170.2,352.8,168.5,352.2,168.6,351.5z"/>
						<linearGradient id="SVGID_79_" gradientUnits="userSpaceOnUse" x1="171.2765" y1="349.6737" x2="171.2765" y2="363.5802">
							<stop  offset="0" style="stop-color:#FFA340"/>
							<stop  offset="1" style="stop-color:#FCD224;stop-opacity:0"/>
						</linearGradient>
						<path class="st79" d="M173.9,352.8l0.1-2.6l-1.5,0c-0.5,0-1,0-1.5,0.1c-0.5,0.1-0.9,0.2-1.2,0.3c-0.7,0.2-1.2,0.5-1.2,0.9
							c-0.1,0.7,1.6,1.3,3.8,1.3H173.9z"/>
						<linearGradient id="SVGID_80_" gradientUnits="userSpaceOnUse" x1="181.0373" y1="349.6736" x2="181.0373" y2="363.5804">
							<stop  offset="0" style="stop-color:#FFA340"/>
							<stop  offset="1" style="stop-color:#FCD224;stop-opacity:0"/>
						</linearGradient>
						<path class="st80" d="M177.1,356.8l3.9,0c2.3,0,4.1-0.7,4-1.5c-0.1-0.5-0.8-0.9-1.9-1.2c-0.7-0.2-1.4-0.2-2.3-0.2h-3.7
							L177.1,356.8z"/>
					</g>
				</g>
			</g>
		</g>
	</g>
</g>
<g class="st81">
	<path class="st82" d="M399.9,286.2c1.5,0.9,2.7,2.9,2.7,4.6c0,1.7-1.2,2.4-2.7,1.5l-24.3-14c-1.5-0.9-2.7-2.9-2.7-4.6
		c0-1.7,1.2-2.4,2.7-1.5L399.9,286.2z"/>
</g>
<g>
	<g>
		<g class="st83">
			<path class="st84" d="M82.8,83.2c-1.6,0.9-2.9,3.2-2.9,5.1l0.2,69c0,4.4,3.1,6.2,6.9,4l41.1-23.7c1.6-0.9,2.9-3.2,2.9-5.1
				l-0.2-69c0-4.4-3.1-6.2-6.9-4L82.8,83.2z"/>
		</g>
		<g>
			<g>
				<g>
					<path class="st85" d="M89.1,108.2c-0.5,0.3-0.9,1-0.9,1.5l0,3.7c0,0.6,0.4,0.8,0.9,0.5l33.5-19.4c0.5-0.3,0.9-1,0.9-1.5l0-3.7
						c0-0.6-0.4-0.8-0.9-0.5L89.1,108.2z"/>
				</g>
				<g>
					<path class="st85" d="M89.1,116.1c-0.5,0.3-0.9,1-0.9,1.5l0,3.7c0,0.6,0.4,0.8,0.9,0.5l33.5-19.4c0.5-0.3,0.9-0.9,0.9-1.5
						l0-3.7c0-0.6-0.4-0.8-0.9-0.5L89.1,116.1z"/>
				</g>
			</g>
			<path class="st85" d="M102.2,122.1c-1.1,0.7-2.1,2.3-2.1,3.6l0,0.8c0,1.3,0.9,1.8,2.1,1.2l10.8-6.3c1.1-0.7,2.1-2.3,2.1-3.6
				l0-0.8c0-1.3-0.9-1.8-2.1-1.2L102.2,122.1z"/>
		</g>
	</g>
</g>
<path class="st85" d="M244.9,18.5c-0.1-0.1-0.2-0.1-0.3-0.2c-0.1-0.1-0.3-0.2-0.4-0.2c-0.1-0.1-0.3-0.1-0.4-0.2
	c-0.1-0.1-0.3-0.1-0.4-0.2c-0.1-0.1-0.3-0.1-0.4-0.2c0,0-0.1,0-0.1,0c0,0,0,0,0,0c-0.1,0-0.2-0.1-0.3-0.1c-0.1,0-0.3-0.1-0.4-0.1
	c-0.1,0-0.3-0.1-0.4-0.1c-0.2,0-0.3-0.1-0.5-0.1c-0.1,0-0.2,0-0.3,0c0,0,0,0,0,0c0,0-0.1,0-0.1,0c-0.2,0-0.3,0-0.5,0
	c-0.2,0-0.4,0-0.5,0c-0.2,0-0.4,0-0.6,0.1c0,0,0,0,0,0c0,0,0,0,0,0c-0.2,0-0.5,0.1-0.7,0.2c-0.3,0.1-0.6,0.2-0.8,0.4l-6.9,4
	c0.5-0.3,1-0.5,1.5-0.6c0,0,0,0,0,0c0.5-0.1,1.1-0.1,1.7-0.1c0,0,0,0,0,0c0.6,0.1,1.2,0.2,1.9,0.4c0,0,0,0,0,0
	c0.7,0.2,1.4,0.5,2.1,1l191.6,110.6l6.9-4L244.9,18.5z"/>
<path class="st82" d="M446.8,146.5c0-0.2,0-0.3,0-0.5c0-0.2,0-0.3,0-0.5c0-0.2,0-0.3-0.1-0.5c0-0.2,0-0.3-0.1-0.5c0,0,0,0,0,0
	c0,0,0,0,0,0c0-0.2-0.1-0.3-0.1-0.5c0-0.2-0.1-0.4-0.1-0.5c0-0.2-0.1-0.4-0.1-0.5c0-0.2-0.1-0.4-0.1-0.5c0-0.1-0.1-0.3-0.1-0.4
	c0,0,0,0,0,0c0,0,0-0.1,0-0.1c-0.1-0.2-0.1-0.4-0.2-0.5c-0.1-0.2-0.1-0.4-0.2-0.5c-0.1-0.2-0.1-0.3-0.2-0.5
	c-0.1-0.2-0.1-0.3-0.2-0.5c-0.1-0.1-0.1-0.3-0.2-0.4c0,0,0,0,0,0c0,0,0-0.1,0-0.1c-0.1-0.2-0.2-0.3-0.2-0.5
	c-0.1-0.2-0.2-0.4-0.3-0.5c-0.1-0.2-0.2-0.4-0.3-0.6c-0.1-0.2-0.2-0.4-0.4-0.7c0,0,0-0.1-0.1-0.1c0,0-0.1-0.1-0.1-0.1
	c-0.2-0.4-0.5-0.8-0.8-1.2c-0.2-0.3-0.4-0.6-0.7-0.9c-0.2-0.2-0.3-0.4-0.5-0.6c-0.1-0.2-0.3-0.3-0.4-0.5c-0.1-0.2-0.3-0.3-0.4-0.5
	c-0.1-0.2-0.3-0.3-0.4-0.4c0,0-0.1-0.1-0.1-0.1c0,0,0,0,0,0c-0.1-0.1-0.2-0.2-0.3-0.3c-0.1-0.1-0.3-0.3-0.4-0.4
	c-0.2-0.1-0.3-0.3-0.5-0.4c-0.2-0.1-0.3-0.3-0.5-0.4c-0.1-0.1-0.2-0.1-0.2-0.2c0,0,0,0-0.1,0c-0.1,0-0.1-0.1-0.2-0.1
	c-0.2-0.1-0.3-0.2-0.5-0.3c-0.1-0.1-0.3-0.2-0.5-0.3c-0.1-0.1-0.3-0.2-0.4-0.3c-0.1-0.1-0.3-0.2-0.4-0.3c0,0-0.1,0-0.1-0.1l-6.9,4
	c0.7,0.4,1.4,0.9,2.1,1.4c0,0,0,0,0.1,0c0.7,0.5,1.3,1.1,1.9,1.8c0,0,0,0,0,0c1.2,1.3,2.3,2.8,3.2,4.4c0,0,0,0.1,0.1,0.1
	c0.4,0.8,0.9,1.6,1.2,2.4c0,0,0,0,0,0c0.4,0.8,0.7,1.7,0.9,2.5c0,0,0,0,0,0c0.3,0.9,0.5,1.7,0.6,2.6c0,0,0,0,0,0
	c0.1,0.9,0.2,1.7,0.2,2.5l-0.4,130.9c0,0.8-0.1,1.5-0.2,2.2c0,0,0,0,0,0.1c-0.1,0.7-0.3,1.3-0.6,1.8c0,0,0,0,0,0
	c-0.2,0.5-0.5,0.8-0.8,1.2c-0.1,0.1-0.2,0.2-0.3,0.4c-0.3,0.4-0.7,0.7-1.1,0.9l6.9-4c0.4-0.2,0.8-0.6,1.1-0.9
	c0.1-0.1,0.2-0.2,0.3-0.4c0.1-0.2,0.3-0.3,0.4-0.5c0.1-0.2,0.3-0.5,0.4-0.7c0,0,0,0,0,0c0,0,0,0,0,0c0.1-0.2,0.2-0.3,0.2-0.5
	c0.1-0.2,0.1-0.4,0.2-0.5c0.1-0.2,0.1-0.3,0.1-0.5c0-0.1,0-0.2,0-0.2c0,0,0,0,0-0.1c0-0.1,0-0.1,0-0.2c0-0.2,0.1-0.3,0.1-0.5
	c0-0.2,0-0.3,0.1-0.5c0-0.2,0-0.3,0-0.5c0-0.2,0-0.3,0-0.5c0,0,0,0,0,0l0.4-130.9C446.8,146.8,446.8,146.7,446.8,146.5z"/>
<g>
	<linearGradient id="SVGID_81_" gradientUnits="userSpaceOnUse" x1="227.2572" y1="155.1271" x2="439.9462" y2="155.1271">
		<stop  offset="0" style="stop-color:#033149"/>
		<stop  offset="1" style="stop-color:#033149"/>
	</linearGradient>
	<path class="st86" d="M429.6,133.1c5.7,3.3,10.3,11.3,10.3,17.9l-0.4,130.9c0,6.6-4.7,9.2-10.4,5.9L237.6,177.2
		c-5.7-3.3-10.3-11.3-10.3-17.9l0.4-130.9c0-6.6,4.7-9.2,10.4-5.9L429.6,133.1z"/>
</g>
<g>
	<path class="st87" d="M417.8,132.8c5.3,3,9.5,10.4,9.5,16.4l-0.3,120.4c0,6-4.3,8.5-9.5,5.4l-167.1-96.4c-5.3-3-9.5-10.4-9.5-16.4
		l0.3-120.4c0-6,4.3-8.5,9.5-5.4L417.8,132.8z"/>
</g>
<path class="st87" d="M432.7,237.4L432.7,237.4c-0.8,0-1.4-0.6-1.4-1.4v-42c0-0.8,0.6-1.4,1.4-1.4l0,0c0.8,0,1.4,0.6,1.4,1.4v42
	C434.1,236.8,433.4,237.4,432.7,237.4z"/>
<g>
	<path class="st85" d="M233.8,103.1c1.6,0.9,3,3.2,3,5.1c0,1.9-1.3,2.6-3,1.7c-1.6-0.9-3-3.2-3-5.1S232.1,102.2,233.8,103.1z"/>
</g>
<g>
	<path class="st84" d="M348.7,120.9c0.5,1.7,0.9,3.5,1.1,5.2c0.1,1,0.2,2,0.2,3c0,0.3,0,0.6,0,0.9c0,0,0,0.1,0,0.1
		c0,0.3,0,0.5-0.1,0.8c0,0.1,0,0.1,0,0.2c0,0.3-0.1,0.5-0.1,0.8c-0.1,0.3-0.1,0.6-0.1,0.8c-0.1,0.3-0.1,0.6-0.2,0.8c0,0,0,0.1,0,0.1
		c-0.1,0.2-0.1,0.5-0.2,0.7c0,0,0,0.1,0,0.1c-0.1,0.2-0.2,0.4-0.2,0.7c-0.1,0.3-0.2,0.5-0.3,0.7c-0.1,0.3-0.2,0.5-0.3,0.7
		c0,0,0,0.1-0.1,0.1c-0.1,0.2-0.2,0.4-0.3,0.5c0,0,0,0.1-0.1,0.1c-0.1,0.2-0.2,0.4-0.4,0.5c-0.1,0.2-0.3,0.3-0.4,0.5
		c0,0,0,0-0.1,0.1c-0.1,0.1-0.3,0.3-0.4,0.4c0,0-0.1,0.1-0.1,0.1c-0.1,0.1-0.3,0.3-0.4,0.4c0,0,0,0-0.1,0.1
		c-0.1,0.1-0.3,0.2-0.5,0.3c-0.2,0.1-0.4,0.2-0.5,0.3c0,0-0.1,0-0.1,0.1c-0.2,0.1-0.3,0.2-0.5,0.3c0,0-0.1,0-0.1,0
		c-0.2,0.1-0.3,0.2-0.5,0.2c-0.1,0.1-0.2,0.1-0.3,0.1c-0.1-6.4-4.5-14.1-10.1-17.3c-5.6-3.2-10.1-0.6-10.2,5.8c0,0,0.2,0.3,0.5,0.7
		c-0.1-0.2-0.3-0.4-0.4-0.6c-0.2-0.4-0.4-0.6-0.6-0.9c0,0-0.1-0.1-0.1-0.1c-0.2-0.3-0.4-0.5-0.5-0.8c0-0.1-0.1-0.1-0.1-0.2
		c-0.2-0.3-0.3-0.6-0.5-0.9c-0.2-0.3-0.3-0.6-0.5-0.9c0-0.1-0.1-0.1-0.1-0.2c-0.2-0.3-0.3-0.6-0.5-0.9c0-0.1-0.1-0.1-0.1-0.2
		c-0.1-0.3-0.3-0.6-0.4-0.8c-0.2-0.4-0.3-0.7-0.4-1c0-0.1-0.1-0.1-0.1-0.2c-0.1-0.3-0.3-0.6-0.4-0.9c-0.2-0.4-0.3-0.7-0.4-1
		c0,0,0-0.1-0.1-0.1c-0.1-0.3-0.2-0.6-0.3-0.9c0-0.1,0-0.1-0.1-0.2c-0.2-0.6-0.4-1.2-0.6-1.9c0-0.1,0-0.1,0-0.2
		c-0.1-0.3-0.2-0.6-0.2-0.9c0-0.1,0-0.1,0-0.2c-0.1-0.3-0.1-0.6-0.2-0.9c-0.1-0.4-0.1-0.7-0.2-1c0-0.1,0-0.1,0-0.2
		c0-0.3-0.1-0.6-0.1-0.9c0-0.4-0.1-0.7-0.1-0.9c0-0.1,0-0.1,0-0.2c0-0.3,0-0.6-0.1-0.9c0-0.1,0-0.1,0-0.2c0-0.3,0-0.6,0-0.9
		c0-1,0.1-1.9,0.2-2.8c0.2-1.5,0.6-2.8,1.1-3.9c0.1-0.2,0.2-0.4,0.3-0.7c2.7-4.8,8.4-6,15-2.2c5.9,3.4,11.1,10,14,17
		c0.2,0.5,0.4,0.9,0.6,1.4C348.3,119.5,348.5,120.2,348.7,120.9z M333.7,121.4c3.4,2,6.2,0.4,6.2-3.5c0-3.9-2.7-8.7-6.2-10.7
		c-3.4-2-6.2-0.4-6.2,3.5C327.6,114.6,330.3,119.4,333.7,121.4"/>
	<g>
		<g>
			<path class="st88" d="M374.7,173.3c1.3,0.7,2.3,2.5,2.3,4l0,9.7c0,1.5-1,2.1-2.3,1.3l-89-51.4c-1.3-0.7-2.3-2.5-2.3-4l0-9.7
				c0-1.5,1-2.1,2.3-1.3L374.7,173.3z"/>
		</g>
		<g>
			<path class="st88" d="M374.7,194.5c1.3,0.7,2.3,2.5,2.3,4l0,9.7c0,1.5-1,2.1-2.3,1.3l-89-51.4c-1.3-0.7-2.3-2.5-2.3-4l0-9.7
				c0-1.5,1-2.1,2.3-1.3L374.7,194.5z"/>
		</g>
	</g>
</g>
<path class="st82" d="M335,198.8c2.4,1.4,4.3,4.7,4.3,7.5l0,1.8c0,2.7-1.9,3.9-4.3,2.5l-22.6-13.1c-2.4-1.4-4.3-4.7-4.3-7.5l0-1.8
	c0-2.7,2-3.8,4.3-2.5L335,198.8z"/>
<g>
	
		<linearGradient id="SVGID_82_" gradientUnits="userSpaceOnUse" x1="509.6349" y1="229.3059" x2="540.1656" y2="202.6947" gradientTransform="matrix(-1 0 0 1 779.0993 0)">
		<stop  offset="0" style="stop-color:#1AE5FF"/>
		<stop  offset="0.2589" style="stop-color:#64E8F9"/>
		<stop  offset="0.7043" style="stop-color:#EAEEEE"/>
	</linearGradient>
	<path class="st89" d="M256.5,200.5c0,0-8.1,4.6-9.3,25.9c1,3.9,7.2,6,12,2.9C264,226.2,259,204.1,256.5,200.5z"/>
	<path class="st90" d="M297.5,223.4c0,0,18.5-8.2,20.9-9.6c2.5-1.4,4.3-6.5,5.3-7.6c0.9-1.1,5.1-3.6,5-2.5c-0.2,1.1-2.3,3.1-2.3,3.1
		s1.6,2.6,1.9,4.3c0.3,1.7-2,5.1-3.3,6.1c-1.2,0.9-4.2,1.2-4.2,1.2s-15,10.1-17.5,10.2C300.8,228.9,297.2,227.5,297.5,223.4z"/>
	
		<linearGradient id="SVGID_83_" gradientUnits="userSpaceOnUse" x1="143.928" y1="328.7661" x2="218.5569" y2="328.7661" gradientTransform="matrix(1 0 0 1 94.1842 0)">
		<stop  offset="0" style="stop-color:#2B6044"/>
		<stop  offset="1" style="stop-color:#8BD6B5"/>
	</linearGradient>
	<ellipse class="st91" cx="275.4" cy="328.8" rx="37.3" ry="22.2"/>
	<path d="M260,324c0,0-0.5,3.5,0.2,5c0.6,1.3,3.2,2.2,5,1c1.8-1.3,4.8-4.5,4.8-4.5s5.1-2.7,5.6-4.2c0.5-1.4-1.3-2.7-2.7-2.4
		c-1.4,0.3-5.6,2.9-7.5,2.9S260.6,322.2,260,324z"/>
	<path class="st82" d="M254.7,249.1c0,0,4.5,73.8,5,76c0.6,2.1,6.4,3.4,7.4,0c0.7-2.2,2.4-70.5,2.4-70.5L254.7,249.1z"/>
	<path d="M274.7,328.4c-0.3,0.2-0.4,0.5-0.4,0.9c0,1,0,3.3,0.6,4.2c0.8,1.2,3.1,2.4,5.6,1c2.1-1.1,8.4-5.9,9.7-6.9
		c0.8-0.6,1.1-1.4,1.3-2c0.1-0.5-0.1-1.1-0.7-1.3c-0.9-0.4-2.4-0.9-3.8-0.4c-2.1,0.7-4.8,3-7.6,2.9
		C277.3,326.5,275.5,327.7,274.7,328.4z"/>
	<path class="st82" d="M284.6,249.9c-0.3-3.1-4-4.1-7.4-3c-6.5-0.3-16.4-0.1-16.8,4.9c-0.5,7.4,3,12.7,6.3,16.3
		c2.5,2.7,4.1,7.7,4.8,10.2c0.6,19.6,1.9,47.2,2.7,49.8c1.3,4.3,7.7,4.1,8-0.1C283.6,314.1,284.6,249.9,284.6,249.9z"/>
	
		<linearGradient id="SVGID_84_" gradientUnits="userSpaceOnUse" x1="513.2657" y1="299.3661" x2="506.3894" y2="155.7901" gradientTransform="matrix(-1 0 0 1 779.0993 0)">
		<stop  offset="0" style="stop-color:#1AE5FF"/>
		<stop  offset="0.2589" style="stop-color:#64E8F9"/>
		<stop  offset="0.7043" style="stop-color:#EAEEEE"/>
	</linearGradient>
	<path class="st92" d="M284.6,252.3c-0.8,3.8-11.6,5.7-17.9,4.7c-6.3-1-13.1-4.1-12.9-11.4c0,0-1-29.2-1-35c0-5.8,3.6-10,3.6-10
		s3.5-4,14.6-1.8c0,0,9.1,2,13.2,8.7c0,0,2.9,7.4,1.9,22.7C285.4,245.4,284.6,252.3,284.6,252.3z"/>
	<path class="st93" d="M262.5,190.6c0,0,1,5.6,0,8.2c-0.2,1.3,5.4,5.6,10.4,4.5c2.9-0.6,2.7-2.1,2.7-2.1s-2.4-4-2.1-7.8
		C273.9,189.5,265.9,189.8,262.5,190.6z"/>
	<g>
		<path class="st90" d="M281.2,179.3c0,7.3-5.9,13.2-13.2,13.2c-7.3,0-13.2-5.9-13.2-13.2c0-7.3,5.9-13.2,13.2-13.2
			C275.3,166.1,281.2,172.1,281.2,179.3z"/>
		<path class="st90" d="M281.2,180.2c0,0,0.2,13.2-2.7,15.9c-2.9,2.7-7.3-2.5-14.4-4.2c-7.1-1.8,5.7-15.5,5.7-15.5L281.2,180.2z"/>
	</g>
	<g>
		
			<linearGradient id="SVGID_85_" gradientUnits="userSpaceOnUse" x1="491.6181" y1="296.7835" x2="484.7417" y2="153.2078" gradientTransform="matrix(-1 0 0 1 779.0993 0)">
			<stop  offset="0" style="stop-color:#1AE5FF"/>
			<stop  offset="0.2589" style="stop-color:#64E8F9"/>
			<stop  offset="0.7043" style="stop-color:#EAEEEE"/>
		</linearGradient>
		<path class="st94" d="M280.1,204.3c0,0,2.9-0.8,6.2,3.9c3.3,4.7,8,10.9,10.3,12c2.3,1,5.4-1,6.6-1c1.2,0,4.5,5.8,3.3,8.7
			c-1.2,2.9-9.3,4.3-11.3,4.3c-2.1,0-15.5-8-17.3-12.6C276,215,273.1,204.5,280.1,204.3z"/>
		
			<linearGradient id="SVGID_86_" gradientUnits="userSpaceOnUse" x1="475.7688" y1="244.9525" x2="472.1932" y2="217.7228" gradientTransform="matrix(-1 0 0 1 779.0993 0)">
			<stop  offset="0" style="stop-color:#1AE5FF"/>
			<stop  offset="0.2589" style="stop-color:#64E8F9"/>
			<stop  offset="0.7043" style="stop-color:#EAEEEE"/>
		</linearGradient>
		<path class="st95" d="M301.4,219.8c0,0,0.8-2.3,3.7-2.5c2.9-0.2,6.2,5.4,6,8.5c-0.2,3.1-4.7,4.7-5.8,3.9
			C304.3,228.9,306.3,226.8,301.4,219.8z"/>
	</g>
	<path class="st93" d="M275.9,168.2c0,0,4.7,1,6.2,8.3c-0.6,3.1-5,0.6-6.6,4.7c-1.7,4.1-2.7,5.4-2.7,5.4l-1-0.4c0,0,0-3.3-1.4-3.3
		c-1.4,0-1.9,3.9-1,5.6c0.8,1.7,2.7,2.5,2.7,2.5s-2.1,3.5-3.1,3.9c-1,0.4-4.7-0.4-6.2-1c-1.4-0.6-4.1-3.5-6.2-6.8
		c-2.1-3.3-3.9-9.1-2.7-13c1.2-3.9,4.1-5,4.1-5s1.7-2.3,4.5-3.3C265.4,164.7,270.8,164.3,275.9,168.2z"/>
	<path class="st96" d="M278.2,201.5l-3.4-1.9c0,0-8.8-0.8-12-2.9l-1.7,2.3c0,0,2.2,4.3,7.8,4.8c5.6,0.6,8.3-1.7,8.3-1.7L278.2,201.5
		z"/>
</g>
<g class="st81">
	<g>
		<g>
			<path class="st82" d="M421.3,98.9l0,3.7c0,2.2-2.4,3.5-4.2,2.4l-17.4-10.1c-0.9-0.5-1.4-1.4-1.4-2.4l0-3.7c0-2.2,2.4-3.5,4.2-2.4
				l17.4,10.1C420.7,96.9,421.3,97.8,421.3,98.9z"/>
		</g>
		<g>
			<path class="st82" d="M476.2,148.9l0,3.7c0,2.2-2.4,3.5-4.2,2.4l-72.3-41.8c-0.9-0.5-1.4-1.4-1.4-2.4l0-3.7
				c0-2.2,2.4-3.5,4.2-2.4l72.3,41.8C475.6,146.9,476.2,147.8,476.2,148.9z"/>
		</g>
		<g class="st97">
			<path class="st82" d="M446.2,168.3l0,3.7c0,2.2-2.4,3.5-4.2,2.4l-42.5-24.5c-0.9-0.5-1.4-1.4-1.4-2.4l0-3.7
				c0-2.2,2.4-3.5,4.2-2.4l42.5,24.5C445.7,166.3,446.3,167.3,446.2,168.3z"/>
		</g>
		<g>
			<path class="st82" d="M464.9,160.7l0,3.7c0,2.2-2.4,3.5-4.2,2.4l-61.1-35.3c-0.9-0.5-1.4-1.4-1.4-2.4l0-3.7
				c0-2.2,2.4-3.5,4.2-2.4l61.1,35.3C464.4,158.8,464.9,159.7,464.9,160.7z"/>
		</g>
	</g>
</g>
<g class="st81">
	<g>
		<path class="st82" d="M111.1,22.6l0,1.9c0,1.1,1.2,1.8,2.2,1.3l8.9-5.2c0.4-0.3,0.7-0.7,0.7-1.3l0-1.9c0-1.1-1.2-1.8-2.2-1.3
			l-8.9,5.2C111.4,21.6,111.1,22.1,111.1,22.6z"/>
	</g>
	<g>
		<path class="st82" d="M82.8,48.3l0,1.9c0,1.1,1.2,1.8,2.2,1.3L122.2,30c0.4-0.3,0.7-0.7,0.7-1.3l0-1.9c0-1.1-1.2-1.8-2.2-1.3
			L83.5,47.1C83.1,47.3,82.8,47.8,82.8,48.3z"/>
	</g>
	<g class="st97">
		<path class="st82" d="M98.2,58.3l0,1.9c0,1.1,1.2,1.8,2.2,1.3l21.9-12.6c0.5-0.3,0.7-0.7,0.7-1.3l0-1.9c0-1.1-1.2-1.8-2.2-1.3
			L98.9,57.1C98.5,57.3,98.2,57.8,98.2,58.3z"/>
	</g>
	<g>
		<path class="st82" d="M88.6,54.4l0,1.9c0,1.1,1.2,1.8,2.2,1.3l31.4-18.2c0.5-0.3,0.7-0.7,0.7-1.3l0-1.9c0-1.1-1.2-1.8-2.2-1.3
			L89.3,53.2C88.9,53.4,88.6,53.9,88.6,54.4z"/>
	</g>
</g>
<g>
	<g>
		<path class="st84" d="M280.6,139.2c0,8.3-6.7,15-15,15c-8.3,0-15-6.7-15-15c0-8.3,6.7-15,15-15C273.9,124.2,280.6,131,280.6,139.2
			z"/>
		<polygon class="st85" points="264.3,146.1 258.1,141.6 260.3,138.4 263.6,140.8 270.2,132.4 273.2,134.8 		"/>
	</g>
</g>
<g class="st81">
	<path class="st82" d="M246,72.8c3.5,2,6.4,7,6.4,11.1c0,4.1-2.9,5.7-6.4,3.7l-58.2-33.6c-3.5-2-6.4-7-6.4-11.1
		c0-4.1,2.9-5.7,6.4-3.7L246,72.8z"/>
</g>
<g class="st81">
	<path class="st82" d="M466.9,250.9c2.5,1.4,4.4,4.9,4.4,7.7c0,2.8-2,4-4.5,2.6l-40.5-23.4c-2.5-1.4-4.4-4.9-4.4-7.7
		c0-2.8,2-4,4.5-2.5L466.9,250.9z"/>
</g>
<g class="st81">
	<g>
		<g>
			<path class="st82" d="M84.9,332.6l0,3.7c0,2.2-2.4,3.5-4.2,2.4l-17.4-10.1c-0.9-0.5-1.4-1.4-1.4-2.4l0-3.7c0-2.2,2.4-3.5,4.2-2.4
				l17.4,10.1C84.4,330.6,84.9,331.6,84.9,332.6z"/>
		</g>
		<g>
			<path class="st82" d="M139.8,382.6l0,3.7c0,2.2-2.4,3.5-4.2,2.4L63.3,347c-0.9-0.5-1.4-1.4-1.4-2.4l0-3.7c0-2.2,2.4-3.5,4.2-2.4
				l72.3,41.8C139.3,380.6,139.9,381.6,139.8,382.6z"/>
		</g>
		<g class="st97">
			<path class="st82" d="M109.9,402l0,3.7c0,2.2-2.4,3.5-4.2,2.4l-42.5-24.5c-0.9-0.5-1.4-1.4-1.4-2.4l0-3.7c0-2.2,2.4-3.5,4.2-2.4
				l42.5,24.5C109.4,400.1,109.9,401,109.9,402z"/>
		</g>
		<g>
			<path class="st82" d="M128.6,394.4l0,3.7c0,2.2-2.4,3.5-4.2,2.4l-61.1-35.3c-0.9-0.5-1.4-1.4-1.4-2.4l0-3.7
				c0-2.2,2.4-3.5,4.2-2.4l61.1,35.3C128,392.5,128.6,393.4,128.6,394.4z"/>
		</g>
	</g>
</g>
<g class="st81">
	<path class="st82" d="M214.3,452.5c2.5,1.4,4.4,4.9,4.4,7.7c0,2.8-2,4-4.5,2.6l-40.5-23.4c-2.5-1.4-4.4-4.9-4.4-7.7
		c0-2.8,2-4,4.5-2.5L214.3,452.5z"/>
</g>
<g>
	<path class="st85" d="M167.7,158.8c1.5,0.9,1.5,2.3,0,3.1L118,190.8c-1.5,0.9-3.9,0.9-5.4,0l-30.7-17.7c-1.5-0.9-1.5-2.3,0-3.1
		l49.7-28.9c1.5-0.9,3.9-0.9,5.4,0L167.7,158.8z"/>
</g>
<g>
	<g class="st98">
		<linearGradient id="SVGID_87_" gradientUnits="userSpaceOnUse" x1="119.6194" y1="252.194" x2="204.8554" y2="252.194">
			<stop  offset="0" style="stop-color:#2B6044"/>
			<stop  offset="1" style="stop-color:#8BD6B5"/>
		</linearGradient>
		<path class="st99" d="M132.2,234.7c-16.7,9.6-16.8,25.3-0.2,34.9c16.6,9.6,43.6,9.6,60.3,0c16.7-9.6,16.8-25.3,0.2-34.9
			C175.9,225.1,148.9,225.1,132.2,234.7z"/>
	</g>
	<g>
		<path d="M152.5,256.7c0,0-7.7,2-10.7,2c-3,0,0,3,5,3.3c5,0.3,9.7,0.7,10.7-0.7c1-1.3-0.2-5.1-0.2-5.1L152.5,256.7z"/>
		<path d="M173.9,249.7c0,0-7.7,2-10.7,2c-3,0,0,3,5,3.3c5,0.3,9.7,0.7,10.7-0.7c1-1.3-0.2-5.1-0.2-5.1L173.9,249.7z"/>
		<path class="st82" d="M175.5,166.8c0,0,2.8,76.3,3.2,84.3c0,0-2.2,1.8-4.9,0.9c0,0-9-50.1-10.3-63c-1.3-12.9-3.6-17.4-3.6-17.4
			L175.5,166.8z"/>
		<path class="st82" d="M147,171.3c0,0-2.7,44.1,5.3,86.8c0,0,2.7,1.3,4.9-1.8c0,0,4.9-74.8,6.2-85.4
			C164.8,160.2,150.6,169.1,147,171.3z"/>
		<path class="st82" d="M159.1,205.1c0,0,4.5-12.5,8.5-19.1c4-6.7,3.1-16.5,3.1-16.5l-15.1,1.3L159.1,205.1z"/>
		<path class="st90" d="M143.6,127.7l-13.2-6.4c0,0-4-4-5-4.8c-1-0.8-7.6-2.4-8.8-2.2c-1.2,0.2-3.4,2-2.8,2.4
			c0.6,0.4,6.2,3.4,6.4,4.6c0.2,1.2-2,2.8-1.2,3.6c0.8,0.8,2.6-0.8,3.8-0.8c1.2,0,4.6,1.6,4.6,1.6l12.8,7.4L143.6,127.7z"/>
		<g>
			<path class="st100" d="M171.9,114.9c0,0-2.4-2.7-6.5,2.4c-4,5.1-7.3,12.7-12.9,12c-5.6-0.7-14.7-5.1-14.7-5.1s-4,2.7-3.3,6.7
				c0,0,12.9,9.6,21.6,9.1c8.7-0.4,18-9.3,20-15.6C178.1,118.2,171.9,114.9,171.9,114.9z"/>
		</g>
		<path class="st84" d="M145.1,171.2c0.8,4,12.2,6,18.8,4.9c6.6-1.1,13.8-4.3,13.6-12c0,0,1-30.8,1-36.9c0-6.1-3.8-10.5-3.8-10.5
			s-3.7-4.3-15.4-1.9c0,0-9.5,2.1-13.9,9.1c0,0-3,7.7-2,23.9C144.3,164,145.1,171.2,145.1,171.2z"/>
		<path class="st101" d="M168.4,106.2c0,0-1,5.9,0,8.6c0.2,1.3-5.7,5.9-10.9,4.7c-3-0.7-2.9-2.2-2.9-2.2s2.5-4.2,2.2-8.2
			C156.4,105.1,164.9,105.4,168.4,106.2z"/>
		<g>
			<path class="st90" d="M148.7,94.4c0,7.7,6.2,13.9,13.9,13.9c7.7,0,13.9-6.2,13.9-13.9c0-7.7-6.2-13.9-13.9-13.9
				C154.9,80.5,148.7,86.7,148.7,94.4z"/>
			<path class="st90" d="M148.7,95.3c0,0-0.2,13.9,2.9,16.7c3,2.8,7.7-2.6,15.1-4.4c7.4-1.9-6-16.4-6-16.4L148.7,95.3z"/>
		</g>
		<g>
			<path class="st90" d="M131.5,140.8c0,0-19.4-8.7-22.1-10.1c-2.6-1.5-4.6-6.9-5.6-8c-1-1.1-5.4-3.8-5.2-2.6
				c0.2,1.1,2.5,3.3,2.5,3.3s-1.6,2.8-2,4.6c-0.3,1.8,2.1,5.4,3.4,6.4c1.3,1,4.4,1.3,4.4,1.3s15.8,10.6,18.5,10.8
				C128.1,146.5,131.8,145.1,131.5,140.8z"/>
			<path class="st90" d="M148.8,123.2c0,0-2.4-2.7-6.5,2.4s-7.3,12.7-12.9,12c-5.6-0.7-14.7-5.1-14.7-5.1s-4,2.7-3.3,6.7
				c0,0,12.9,9.6,21.6,9.1c8.7-0.4,18-9.3,20-15.6C155.1,126.6,148.8,123.2,148.8,123.2z"/>
		</g>
		<g>
			<path class="st93" d="M154.3,82.7c0,0-5,1.1-6.5,8.7c0.7,3.3,5.2,0.7,7,5c1.7,4.3,2.8,5.6,2.8,5.6l1.1-0.4c0,0,0-3.5,1.5-3.5
				s2,4.1,1.1,5.9c-0.9,1.7-2.8,2.6-2.8,2.6s2.2,3.7,3.3,4.1c1.1,0.4,5-0.4,6.5-1.1c1.5-0.7,4.3-3.7,6.5-7.2
				c2.2-3.5,4.1-9.6,2.8-13.7c-1.3-4.1-4.3-5.2-4.3-5.2s-1.7-2.4-4.8-3.5C165.4,79,159.7,78.5,154.3,82.7z"/>
			<path class="st93" d="M153.2,91.8c0,0,3.3,4,1.7,9.7c-1.7,5.7,0.7,5.7,3,13c2.3,7.3-4.3,16,2,26.7c6.3,10.7,23.4,9.3,31-1.3
				c7.7-10.7-4.3-18.4-4.7-28c-0.3-9.7,7.3-15.4-1.3-22c-8.7-6.7-12.3-14-23-11C151.2,81.8,148.5,87.2,153.2,91.8z"/>
		</g>
	</g>
</g>
<g>
	<g class="st102">
		
			<image style="overflow:visible;" width="239" height="166" xlink:href="2566AB27.png"  transform="matrix(1 0 0 1 217.257 354.7244)">
		</image>
	</g>
	<polygon class="st82" points="360.2,433.3 378.4,422.7 378.4,317.3 360.1,306.9 341.9,317.5 341.9,422.9 	"/>
	<polygon class="st103" points="360.2,433.3 360.1,306.9 341.9,317.5 341.9,422.9 	"/>
	<polygon class="st104" points="360.2,327.9 378.4,317.3 360.1,306.9 341.9,317.5 	"/>
	<polygon class="st82" points="330.3,450.2 348.6,439.6 348.6,364.6 330.3,354.2 312,364.8 312,439.8 	"/>
	<polygon class="st103" points="330.3,450.2 330.3,354.2 312,364.8 312,439.8 	"/>
	<polygon class="st104" points="330.3,375.2 348.6,364.6 330.3,354.2 312,364.8 	"/>
	<polygon class="st84" points="301.6,467.1 319.9,456.5 319.9,404.5 301.5,394.1 283.3,404.7 283.3,456.7 	"/>
	<polygon class="st105" points="301.6,467.1 301.5,394.1 283.3,404.7 283.3,456.7 	"/>
	<polygon class="st106" points="301.6,415.1 319.9,404.5 301.5,394.1 283.3,404.7 	"/>
	<polygon class="st82" points="274.1,483.3 292.4,472.7 292.4,367.2 274.1,356.8 255.8,367.4 255.8,472.9 	"/>
	<polygon class="st103" points="274.1,483.3 274.1,356.8 255.8,367.4 255.8,472.9 	"/>
	<polygon class="st104" points="274.1,377.8 292.4,367.2 274.1,356.8 255.8,367.4 	"/>
</g>
</svg>