<svg version="1.1" id="Layer_1" xmlns="http://www.w3.org/2000/svg" xmlns:xlink="http://www.w3.org/1999/xlink" x="0" y="0" viewBox="240 170 205 220" xml:space="preserve"><style></style><defs><path id="SVGID_2_7" d="M437.6 390.6H53.9c-2.9 0-5.4-2.4-5.4-5.4V120.3c0-2.9 2.4-5.4 5.4-5.4h383.7c2.9 0 5.4 2.4 5.4 5.4v264.9c-.1 2.9-2.5 5.4-5.4 5.4z"/></defs><clipPath id="SVGID_3_7"><use xlink:href="#SVGID_2_7" overflow="visible"/></clipPath><g opacity=".4" clip-path="url(#SVGID_3_7)"><linearGradient id="SVGID_4_7" gradientUnits="userSpaceOnUse" x1="316.928" y1="1400.207" x2="270.892" y2="1426.317" gradientTransform="rotate(-5.569 -11328.995 634.368) scale(1.00002)"><stop offset="0" stop-color="#2bb1e9"/><stop offset="1" stop-color="#2295d1"/></linearGradient><path d="M240.4 171.2c56.3 5.2 112.6 10.2 169.1 15.2 20.2 13.1 40.5 26.5 61.1 39.7L361.4 411.8c-40.2-80.2-80.6-160.4-121-240.6z" fill="url(#SVGID_4_7)"/><linearGradient id="SVGID_5_7" gradientUnits="userSpaceOnUse" x1="362.795" y1="1242.643" x2="269.02" y2="1380.011" gradientTransform="rotate(-5.569 -11328.995 634.368) scale(1.00002)"><stop offset="0" stop-color="#33beff"/><stop offset="1" stop-color="#6deefe"/></linearGradient><path d="M240.4 171.2c40.3 36 80.4 71.9 120.9 108.1 16.1-31 32.2-61.9 48.3-92.9-56.6-4.9-112.8-10-169.2-15.2z" fill="url(#SVGID_5_7)"/><linearGradient id="SVGID_6_7" gradientUnits="userSpaceOnUse" x1="407.811" y1="1358.967" x2="366.585" y2="1378.893" gradientTransform="rotate(-5.569 -11328.995 634.368) scale(1.00002)"><stop offset="0" stop-color="#33beff"/><stop offset="1" stop-color="#6deefe"/></linearGradient><path d="M361.3 279.3c36.5-17.7 72.7-35.3 109.2-53.2-20.2-13.1-40.5-26.5-61.1-39.7-15.9 31.1-32.2 62-48.1 92.9z" fill="url(#SVGID_6_7)"/><linearGradient id="SVGID_7_7" gradientUnits="userSpaceOnUse" x1="418.136" y1="1331.143" x2="365.419" y2="1492.335" gradientTransform="rotate(-5.569 -11328.995 634.368) scale(1.00002)"><stop offset="0" stop-color="#36abea"/><stop offset="1" stop-color="#48cff2"/></linearGradient><path d="M361.3 279.3c.1 44.1.1 88.2.3 132.3 36.4-61.9 72.6-123.8 109-185.7-36.6 18.1-72.8 35.8-109.3 53.4z" fill="url(#SVGID_7_7)"/><path d="M470.5 226.1c-.2-.1-.2-.1-.5-.4-37.1 17.2-74 34.3-111.1 51.5.6.7 1.4 1.2 2.1 2 36.8-17.5 73-35.2 109.5-53.1z" fill="#6cedfd"/><path d="M361.3 279.3c-70.7-62.5-105.9-93.9-105.5-94.4s36.1 29.8 107.2 91c-.6 1.3-1.2 2.5-1.7 3.4z" fill="#83f6ff"/><linearGradient id="SVGID_8_7" gradientUnits="userSpaceOnUse" x1="414.857" y1="1311.494" x2="395.594" y2="1402.735" gradientTransform="rotate(-5.569 -11328.995 634.368) scale(1.00002)"><stop offset="0" stop-color="#6cedfd"/><stop offset="1" stop-color="#b1f5fd"/></linearGradient><path d="M409.5 186.4c-16.1 31-32.2 61.9-48.3 92.9 36.5-17.7 72.7-35.3 109.2-53.2-20.3-13.1-40.6-26.3-60.9-39.7z" fill="url(#SVGID_8_7)"/><path d="M361.4 411.6c-.6-88.3-.7-132.3-.3-132.3.4 0 1.4 42.4 3.2 127.5-.9 1.6-1.9 3.3-2.9 4.8z" fill="#71d4ff"/></g></svg>