<svg width="30" height="31" fill="none" xmlns="http://www.w3.org/2000/svg"><path d="M26.51 22.498l-5.63-2.91a1.853 1.853 0 00-2.308.507l-2.056 2.657c-2.025-1.076-3.543-2.12-5.314-3.89-1.898-1.898-2.91-3.448-3.922-5.41l2.625-2.055a1.853 1.853 0 00.506-2.309L7.501 3.49c-.506-.98-1.77-1.297-2.688-.696L1.24 5.198C.417 5.768-.058 6.716.006 7.696c.063 1.013.19 2.31.442 3.195 1.044 4.017 3.543 8.16 7.085 11.67 3.51 3.512 7.654 6.01 11.671 7.085.886.222 2.182.348 3.226.443 1.012.064 1.993-.41 2.53-1.265l2.34-3.637c.507-.949.159-2.182-.79-2.689z" fill="#57CCCC"/><path d="M15.123 11.808c.696.19 1.392.57 1.93 1.139.57.57.949 1.233 1.138 1.93.159.568.696.948 1.297.916h.127c.822-.031 1.423-.822 1.202-1.613-.317-1.138-.918-2.245-1.835-3.13a7.078 7.078 0 00-3.131-1.835c-.79-.222-1.582.38-1.613 1.202v.126c-.063.57.316 1.107.886 1.265z" fill="#57CCCC"/><path d="M15.504 7.254a8.965 8.965 0 014.744 2.467c1.36 1.36 2.183 3.005 2.467 4.744a1.333 1.333 0 001.36 1.075h.095a1.27 1.27 0 001.202-1.518 11.881 11.881 0 00-3.226-6.23c-1.771-1.772-3.922-2.847-6.23-3.226-.76-.127-1.487.442-1.519 1.201v.095c0 .696.474 1.265 1.107 1.392z" fill="#57CCCC"/><path d="M29.99 13.832a16.173 16.173 0 00-4.586-9.235A16.172 16.172 0 0016.168.01c-.759-.095-1.455.443-1.486 1.233v.127a1.313 1.313 0 001.138 1.36c2.815.38 5.504 1.676 7.654 3.827a13.615 13.615 0 013.827 7.654c.095.664.665 1.17 1.36 1.139h.127c.727-.064 1.297-.76 1.202-1.519z" fill="#57CCCC"/></svg>