<svg width="18" height="18" fill="none" xmlns="http://www.w3.org/2000/svg"><path d="M15.856 13.457l-3.367-1.74a1.108 1.108 0 00-1.381.302l-1.23 1.589C8.668 12.965 7.76 12.34 6.7 11.28c-1.135-1.135-1.74-2.062-2.346-3.235l1.57-1.23c.417-.321.549-.907.303-1.38l-1.74-3.349a1.124 1.124 0 00-1.608-.416L.74 3.11c-.492.34-.775.908-.738 1.494.038.606.114 1.381.265 1.91.624 2.403 2.119 4.882 4.238 6.981 2.1 2.1 4.578 3.595 6.98 4.238.53.132 1.305.208 1.93.265a1.661 1.661 0 001.513-.757l1.4-2.176c.302-.567.094-1.305-.473-1.607z" fill="#A997BF"/><path d="M9.046 7.063c.416.113.832.34 1.154.68.34.341.567.739.68 1.155.095.34.417.567.776.548h.076c.492-.019.851-.492.719-.964a4.132 4.132 0 00-1.097-1.873A4.233 4.233 0 009.48 5.512c-.473-.133-.946.227-.965.718v.076c-.038.34.19.662.53.757z" fill="#A997BF"/><path d="M9.273 4.339c1.04.189 2.043.68 2.837 1.475a5.173 5.173 0 011.476 2.838.797.797 0 00.813.643h.057a.76.76 0 00.719-.908 7.106 7.106 0 00-1.93-3.727A6.783 6.783 0 009.52 2.73c-.454-.075-.89.266-.908.72v.056c0 .417.283.757.662.833z" fill="#A997BF"/><path d="M17.937 8.273A9.673 9.673 0 009.67.006a.778.778 0 00-.89.738V.82a.785.785 0 00.682.813 7.97 7.97 0 014.578 2.29A8.143 8.143 0 0116.329 8.5c.056.398.397.7.813.681h.076a.815.815 0 00.719-.908z" fill="#A997BF"/></svg>