<svg width="40" height="55" fill="none" xmlns="http://www.w3.org/2000/svg"><path fill="#57CCCC" d="M0 0h40v34H0z"/><circle cx="18" cy="36" r="14" fill="#fff"/><path fill-rule="evenodd" clip-rule="evenodd" d="M25.811 15.865a19.994 19.994 0 018.333 5.002A19.995 19.995 0 0120.014 55h-.02A19.993 19.993 0 01.096 36.954a20.004 20.004 0 017.221-17.42 19.993 19.993 0 0118.494-3.67zm-1.54 29.017a10.718 10.718 0 003.569-2.504h.006a10.804 10.804 0 00-7.26-18.22c-.187-.015-.385-.015-.587-.015A10.809 10.809 0 009.206 35.106c.026 1.913.56 3.785 1.546 5.424a.428.428 0 01.04.352l-1.479 4.387a.454.454 0 00.568.575l4.57-1.464a.427.427 0 01.333.033 10.825 10.825 0 009.486.47zm1.787-7.211h.008c.605.52.762 1.2.43 1.91a3.496 3.496 0 01-2.336 2.023c-.15.042-.304.063-.46.063a2.29 2.29 0 01-.892-.203c-4.403-1.867-7.515-4.98-9.247-9.254a2.803 2.803 0 01-.227-1.158c.002-1.367 1.202-2.64 2.568-2.715a1.54 1.54 0 011.185.437 8.545 8.545 0 011.898 2.575c.348.718.199 1.363-.44 1.898-.059.047-.117.09-.178.134l-.067.05c-.349.254-.391.384-.222.776a4.79 4.79 0 001.905 2.24 4.02 4.02 0 001.016.506c.145.05.215.016.325-.118l.049-.066c.75-1.02 1.659-1.208 2.709-.56.695.436 1.355.925 1.976 1.462z" fill="#57CCCC"/></svg>