<svg width="56" height="56" xmlns="http://www.w3.org/2000/svg"><path d="M26.585 6.48c-2.828.764-4.689 3.58-4.211 6.407.525 3.09 3.472 5.25 6.49 4.75a5.776 5.776 0 004.772-4.761c.669-3.95-3.173-7.433-7.05-6.396zm.525 14.664a2.83 2.83 0 00-1.109 1.074c-.179.31-.215 1.038-.262 5.822l-.06 5.465-4.582 2.66c-3.233 1.862-4.677 2.768-4.891 3.043-.442.584-.502 1.718-.12 2.398.382.68 1.074 1.074 1.885 1.074.752 0 .406.167 5.715-2.888l4.32-2.493 4.33 2.493c2.375 1.372 4.487 2.59 4.702 2.697.477.238 1.491.25 1.933.024.43-.227 1.062-.954 1.157-1.336.155-.585-.012-1.563-.334-1.98-.214-.275-1.635-1.159-4.904-3.055l-4.605-2.66-.036-5.453c-.036-6.121 0-5.847-.967-6.622-.55-.454-1.587-.573-2.171-.263zM5.098 38.396c-1.36.263-2.924 1.349-3.7 2.578-.775 1.216-1.05 3.09-.667 4.522.764 2.875 3.746 4.7 6.658 4.092 4.45-.943 6.06-6.55 2.78-9.7-1.325-1.265-3.282-1.838-5.071-1.492zm43.382.06a5.721 5.721 0 00-4.153 3.902c-.322 1.062-.262 2.673.131 3.699.597 1.515 2.017 2.875 3.556 3.376.942.31 2.589.31 3.531 0 1.539-.501 2.96-1.862 3.555-3.376.394-1.026.454-2.637.132-3.7-.609-1.98-2.172-3.424-4.212-3.913-.93-.215-1.61-.215-2.54.012z"/></svg>