<svg width="42" height="42" xmlns="http://www.w3.org/2000/svg"><path d="M19.633.46c-1.937.225-3.223.514-4.63 1.036-4.872 1.817-8.61 5.749-9.318 9.8-.088.506-.12 1.262-.12 2.629v1.921H.967l-.274.274-.273.273v14.341l.273.274.274.273h2.83c3.095 0 3.183-.016 3.368-.474.056-.136.097-3.417.105-9.695l.024-9.486.225-.724c.522-1.688 1.254-2.854 2.75-4.341 1.213-1.214 2.146-1.905 3.6-2.653 3.843-1.994 8.152-2.315 12.164-.916 1.214.418 2.91 1.286 3.89 1.985 1.914 1.36 3.602 3.377 4.262 5.097.554 1.439.514.418.538 13.168.016 7.187 0 11.729-.048 12.043a3.375 3.375 0 01-1.52 2.339c-.619.386-1.109.49-2.403.49h-1.15v-.442c0-.249-.049-.57-.113-.723-.225-.53-.185-.523-4.333-.523-3.28 0-3.787.016-4.156.137-.523.168-1.142.715-1.431 1.262-.193.37-.218.498-.218 1.214 0 .683.024.852.185 1.15.25.465.707.916 1.19 1.149l.394.192 3.875.024c3.433.016 3.907.008 4.132-.104.314-.17.474-.547.474-1.126v-.442h1.03c1.366-.008 2.146-.153 2.974-.563 1.205-.595 2.146-1.68 2.596-2.974.169-.483.185-.692.217-2.798l.032-2.267h4.567l.258-.233.265-.233.024-7.211.016-7.21-.273-.274-.274-.273h-4.599v-1.922c0-2.082-.087-2.862-.45-3.939-.626-1.873-2.05-3.899-3.802-5.41C29.786 2.5 26.764 1.11 23.572.603c-.74-.112-3.368-.208-3.939-.144z"/><path d="M19.674 4.045a11.912 11.912 0 00-7.115 3.44c-1.68 1.689-2.7 3.513-3.272 5.869-.2.804-.209.973-.24 3.754-.041 3.264.007 3.843.49 5.764.362 1.407.731 2.404 1.495 3.948 2.668 5.45 6.953 8.408 11.174 7.725 3.159-.514 6.214-2.966 8.4-6.76.95-1.64 1.68-3.57 2.107-5.556l.225-1.037v-3.416c0-3.28-.008-3.449-.185-4.253-.498-2.202-1.495-4.124-2.958-5.7-2.58-2.781-6.375-4.204-10.121-3.778z"/></svg>