<svg width="42" height="42" viewBox="0 0 42 42" fill="none" xmlns="http://www.w3.org/2000/svg">
<path d="M18.8925 0.478392C16.9601 0.688391 14.4602 1.35031 12.6643 2.13781C8.11615 4.13323 4.19881 8.02999 2.22397 12.5148C1.70947 13.6702 0.995047 15.7391 1.07905 15.8231C1.14205 15.8756 7.47523 17.6295 7.50673 17.598C7.51723 17.5875 7.67473 17.136 7.85323 16.5896C9.41815 11.9053 13.3779 8.40757 18.3142 7.37857C19.6271 7.10557 22.4524 7.10557 23.7233 7.37857C25.9607 7.86157 28.1766 8.93299 29.92 10.3824L30.1825 10.5924L28.9221 10.5294C27.7667 10.4664 27.6197 10.4769 27.2207 10.6764C25.7503 11.4328 25.4668 13.5753 26.6957 14.6572C26.9057 14.8462 27.2627 15.0457 27.4731 15.0982C27.6936 15.1612 30.1619 15.4342 32.9663 15.6967C38.47 16.2217 38.5855 16.2217 39.289 15.7072C39.73 15.3817 40.108 14.6988 40.171 14.1003C40.213 13.7433 39.9715 11.8944 39.383 8.07157C38.911 5.03665 38.4805 2.41081 38.428 2.24281C38.365 2.06431 38.176 1.74931 38.008 1.53889C37.031 0.362471 35.0776 0.467472 34.2267 1.74889C33.8277 2.35831 33.7647 2.88331 33.9432 4.02823C34.0272 4.54273 34.0797 4.98415 34.0692 5.00515C34.0587 5.02615 33.6702 4.75315 33.2183 4.41715C30.4454 2.33731 27.1791 1.02481 23.6398 0.562391C22.5683 0.415392 19.869 0.373392 18.8925 0.478392Z" fill="#000"/>
<path d="M34.1954 25.2131C33.124 28.6369 30.4876 31.7247 27.2528 33.3526C23.8814 35.0436 19.8272 35.3166 16.3714 34.0671C14.88 33.5206 13.2836 32.6071 12.0652 31.5987L11.8027 31.3887L13.0631 31.4517C14.2185 31.5147 14.3655 31.5042 14.7645 31.3047C16.2454 30.5487 16.5079 28.3954 15.258 27.303C15.069 27.1245 14.7225 26.9355 14.5121 26.883C13.9241 26.715 4.09313 25.8011 3.63113 25.8536C2.73821 25.9691 1.92971 26.883 1.81421 27.8805C1.77221 28.2375 2.01371 30.0863 2.60213 33.9091C3.07463 36.9445 3.50555 39.5703 3.55805 39.7383C3.62105 39.9168 3.81005 40.2318 3.97805 40.4418C4.88147 41.5342 6.58289 41.5447 7.55939 40.4628C8.12639 39.8223 8.24189 39.2759 8.05289 38.026C7.95839 37.4691 7.90589 36.9966 7.91639 36.9756C7.92689 36.9546 8.31539 37.2276 8.76731 37.5636C16.0144 42.9832 26.2234 42.9097 33.4705 37.3851C36.8838 34.7907 39.6251 30.8314 40.7175 26.9031L40.9275 26.1467L40.602 26.0417C40.413 25.9787 39.0371 25.6007 37.5352 25.1908C36.0333 24.7813 34.7309 24.4243 34.6364 24.3924C34.4999 24.3516 34.4058 24.5306 34.1954 25.2131Z" fill="#000"/>
</svg>
