<svg width="42" height="42" xmlns="http://www.w3.org/2000/svg"><path d="M.658 2.183L.42 2.41v9.738l.238.228.229.239h19.35v3.049H.888l-.229.238-.238.228v9.738l.238.229.229.238h19.35v3.049H.888l-.229.238-.238.229v9.737l.238.23.229.237h40.226l.229-.238.238-.229V29.85l-.238-.228-.23-.238h-19.35v-3.049h19.35l.23-.238.238-.23V16.13l-.238-.228-.23-.238h-19.35v-3.049h19.35l.23-.239.238-.228V2.412l-.238-.229-.23-.238H.888l-.229.238zm14.768 3.049c.315.304.315.742 0 1.047l-.228.239H3.936l-.229-.239a.743.743 0 01-.238-.524c0-.18.086-.38.238-.524l.229-.238h11.262l.228.239zm18.475-.124c.82.247 1.581 1.295 1.581 2.172 0 1.181-1.105 2.286-2.286 2.286-.6 0-1.086-.219-1.572-.714-.972-.962-.972-2.182 0-3.144.666-.676 1.38-.857 2.277-.6zM15.426 8.28c.315.305.315.743 0 1.048l-.228.238H3.936l-.229-.238a.743.743 0 01-.238-.524c0-.181.086-.38.238-.524l.229-.238h11.262l.228.238zm0 10.672c.315.305.315.743 0 1.048l-.228.238H3.936L3.707 20a.743.743 0 01-.238-.525c0-.18.086-.38.238-.524l.229-.238h11.262l.228.239zm18.475-.124c.82.248 1.581 1.296 1.581 2.172 0 1.181-1.105 2.287-2.286 2.287-1.182 0-2.287-1.105-2.287-2.287 0-.6.22-1.086.715-1.572.666-.677 1.38-.858 2.277-.6zM15.426 22c.315.305.315.743 0 1.048l-.228.239H3.936l-.229-.239a.743.743 0 01-.238-.524c0-.18.086-.38.238-.524l.229-.238h11.262l.228.238zm0 10.671c.315.305.315.743 0 1.048l-.228.238H3.936l-.229-.238a.743.743 0 01-.238-.524c0-.18.086-.38.238-.524l.229-.238h11.262l.228.238zm18.475-.123c.82.248 1.581 1.296 1.581 2.172 0 1.182-1.105 2.287-2.286 2.287-1.182 0-2.287-1.105-2.287-2.287 0-.6.22-1.086.715-1.572.666-.677 1.38-.858 2.277-.6zM15.426 35.72c.315.305.315.743 0 1.048l-.228.238H3.936l-.229-.238a.743.743 0 01-.238-.525c0-.18.086-.38.238-.524l.229-.238h11.262l.228.239z"/><path d="M32.671 6.756a.743.743 0 00-.238.524c0 .181.086.381.238.524a.743.743 0 00.524.239.744.744 0 00.525-.239.743.743 0 00.238-.524.744.744 0 00-.238-.524.743.743 0 00-.525-.238.744.744 0 00-.524.238zm0 13.72c-.476.467-.142 1.286.525 1.286.39 0 .762-.371.762-.762a.744.744 0 00-.238-.524.743.743 0 00-.524-.238.744.744 0 00-.525.238zm0 13.72c-.476.467-.142 1.286.525 1.286.39 0 .762-.371.762-.762 0-.39-.372-.762-.762-.762a.743.743 0 00-.525.238z"/></svg>