<svg width="42" height="42" viewBox="0 0 42 42" fill="none" xmlns="http://www.w3.org/2000/svg">
<path d="M39.9923 40.6728H2.00752C1.12972 40.6728 0.419922 39.963 0.419922 39.0852V2.91479C0.419922 2.03699 1.12972 1.32719 2.00752 1.32719C2.88532 1.32719 3.59512 2.03699 3.59512 2.91479V37.4976H39.9923C40.8701 37.4976 41.5799 38.2074 41.5799 39.0852C41.5799 39.963 40.8701 40.6728 39.9923 40.6728Z" fill="#000"/>
<path d="M12.2681 3.45659H6.2915V10.4412H12.2639C13.0913 10.4412 13.7633 9.7692 13.7633 8.94179V4.95599C13.7675 4.12859 13.0955 3.45659 12.2681 3.45659Z" fill="#000"/>
<path d="M29.3539 20.2104H6.2959V27.195H29.3539C30.1813 27.195 30.8533 26.523 30.8533 25.6956V21.7098C30.8533 20.8824 30.1813 20.2104 29.3539 20.2104Z" fill="#000"/>
<path d="M36.8801 28.5894H6.2915V35.574H36.8801C37.7075 35.574 38.3795 34.902 38.3795 34.0746V30.0888C38.3795 29.2614 37.7075 28.5894 36.8801 28.5894Z" fill="#000"/>
<path d="M22.1927 11.8314H6.2915V18.816H22.1927C23.0201 18.816 23.6921 18.144 23.6921 17.3166V13.3308C23.6921 12.5034 23.0201 11.8314 22.1927 11.8314Z" fill="#000"/>
</svg>
