<svg width="36" height="36" xmlns="http://www.w3.org/2000/svg"><path d="M1.898.481C1.38.667 1 .944.767 1.31.346 1.978.36 1.668.36 9.185c0 7.51-.014 7.235.4 7.855.11.159 3.331 3.462 7.166 7.338 3.827 3.876 7.807 7.91 8.841 8.96 2.187 2.227 2.29 2.295 3.214 2.289.428 0 .627-.042.896-.166.283-.131 1.642-1.455 7.387-7.2 5.744-5.745 7.069-7.103 7.2-7.386.124-.269.165-.47.165-.896.014-1 .531-.421-7.862-8.69C16.843.537 17.03.716 16.657.544l-.331-.152L9.29.378C2.67.364 2.236.371 1.898.481zM22.705 12.33c4.228 4.152 7.704 7.586 7.717 7.628.035.096-10.345 10.476-10.455 10.455-.048-.014-3.483-3.47-7.641-7.676l-7.552-7.655V4.77h10.241l7.69 7.559z"/><path d="M8.519 7.102c-.752.269-1.228.773-1.449 1.524-.282.994.242 2.09 1.214 2.552.318.152.483.18.939.172.655 0 1.082-.172 1.517-.613.448-.449.614-.863.614-1.552.007-.538-.014-.62-.228-1.02-.13-.242-.331-.518-.448-.614-.587-.497-1.497-.683-2.16-.449zm13.324 8.793a4.572 4.572 0 00-.483.207c-.11.055-1.345 1.248-2.73 2.649-2.821 2.834-2.787 2.786-2.787 3.717 0 1.572 1.641 2.607 3.11 1.966.49-.214 5.186-4.904 5.456-5.435a2.246 2.246 0 00-.242-2.331c-.503-.662-1.58-1.014-2.324-.773z"/></svg>