<svg width="42" height="42" xmlns="http://www.w3.org/2000/svg"><path d="M19.387.288c-5.96.504-11.335 3.483-14.9 8.233C2.443 11.257 1.2 14.245.616 17.858c-.122.723-.138 1.974-.163 10.206L.42 37.442l.17.22c.488.616 2.355 1.104 4.304 1.112.511.008 1.153.048 1.413.105.446.09.495.122.552.357.122.463.78.918 1.77 1.226 1.096.333 2.07.455 3.735.455 1.73 0 2.68-.122 3.792-.479.47-.146.812-.203 1.347-.203.69 0 .707 0 .707.195 0 .463.852.877 2.354 1.153.942.17 3.882.244 5.318.122 2.874-.236 5.237-.763 6.56-1.445.545-.293.95-.666.95-.885 0-.066.009-.114.025-.114.008 0 .463-.09 1.007-.195.755-.146 1.072-.179 1.299-.122.658.154 2.143.179 2.931.04 1.462-.25 2.193-.633 2.525-1.29.106-.212.244-.382.3-.382.106 0 .114-1.258.09-9.321-.024-10.157-.008-9.654-.512-11.903C39.41 8.708 33.401 2.667 25.874.816 23.966.345 21.27.126 19.387.288zm12.706 11.416c1.494.438 2.371 1.964 1.997 3.442-.251.982-.877 1.68-1.818 2.038-.641.235-1.583.195-2.208-.098-.845-.397-1.446-1.193-1.616-2.151-.374-2.054 1.623-3.832 3.645-3.231zm-11.594.69c.917.195 1.68.804 2.062 1.64.203.43.235.61.235 1.194 0 .585-.032.763-.235 1.194-.252.552-.795 1.12-1.315 1.388-1.43.73-3.232.098-3.922-1.364-.178-.382-.211-.56-.211-1.218 0-.658.032-.836.211-1.218.455-.966 1.478-1.64 2.566-1.697.097-.008.374.032.609.081z"/></svg>