<svg width="939" height="680" fill="none" xmlns="http://www.w3.org/2000/svg"><path d="M734.333 225.528l7.052-22.435-23.33.727c-1.97 0-16.297-.404-30.197-10.421 1.036.101 2.072.243 3.129.243 14.306 0 28.146-8.563 33.693-20.801l10.039-22.113c-12.579.162-24.081-1.413-24.081-1.413-.102-.02-9.165-1.171-19.651-11.813-7.519-7.634-16.826-11.673-26.906-11.673-4.41 0-8.352.788-11.746 1.859.528-1.798 1.036-3.616 1.321-5.494 3.211-20.698-10.201-36.49-10.201-36.47l-17.538-21.588-10.872 25.365c-.04.08-2.785 6.017-7.702 8.925-1.483-7.451-5.121-15.832-12.904-23.85-14.673-15.105-32.536-17.345-41.883-17.345-4.329 0-7.418.464-8.17.585l-21.176 4.14c1.22-4.706 3.821-12.884 8.576-20.256l11.686-18.093-29.407 3.332-9.368-19.77-18.127 9.29L469.805 0l-16.724 16.458-18.189-9.289-9.348 19.77-29.385-3.332L407.865 41.7c4.755 7.372 7.356 15.53 8.555 20.235l-20.199-3.958-.692-.121c-1.016-.161-4.084-.625-8.434-.625-9.347 0-27.21 2.261-41.842 17.346-7.804 7.996-11.441 16.398-12.945 23.85-4.877-2.868-7.6-8.725-7.6-8.725l-10.893-25.505-17.822 21.729c-2.174 2.807-12.924 17.649-9.999 36.309.306 1.858.794 3.675 1.322 5.472-3.373-1.07-7.317-1.857-11.726-1.857-10.079 0-19.387 4.039-26.926 11.672-10.446 10.602-19.468 11.793-19.387 11.793 0 0-9.532 1.697-24.285 1.434l9.979 22.113c5.547 12.258 19.407 20.799 33.693 20.799 1.077 0 2.113-.141 3.17-.242-13.86 10.016-28.186 10.42-29.913 10.441l-23.777-.767 7.194 22.415c3.617 11.551 15.708 30.695 38.875 32.755-2.52 10.5-8.108 22.253-20.382 27.322l-17.7 7.25 9.652 16.701c5.446 9.007 18.229 19.548 36.437 19.548 3.942-.021 7.742-.404 11.401-1.171a123.824 123.824 0 003.495 12.318c5.426 16.033.751 27.222.691 27.343l-8.739 18.194 19.509 5.11c.244.081 6.137 1.675 13.514 1.675 3.354 0 6.544-.342 9.552-1.049a43.547 43.547 0 006.543-2.08 58.543 58.543 0 009.166 12.277c12.497 12.743 30.197 19.205 52.633 19.205h.081l16.014-.201-33.084 13.651 25.117 12.056c9.125 4.422 19.957 9.652 30.97 13.651l-3.129 8.522 8.657 3.917c.773.344 17.416 7.755 45.095 9.33 0 0 6.685.303 10.363.303 3.679 0 10.283-.323 10.283-.323 27.495-1.615 44.017-8.947 44.79-9.31l8.676-3.938-3.17-8.542c11.34-4.12 22.558-9.552 31.296-13.792l24.65-11.894-32.982-13.672 16.075.202c22.455 0 40.176-6.463 52.653-19.225a59.334 59.334 0 009.166-12.257 43.565 43.565 0 006.563 2.079c2.987.707 6.178 1.05 9.531 1.05 7.255 0 13.209-1.595 13.372-1.635l19.59-5.15-8.536-17.852c-.202-.464-4.876-11.631.55-27.686a127.28 127.28 0 003.475-12.318 56.135 56.135 0 0011.482 1.171c23.186 0 34.303-16.216 36.457-19.73l9.551-16.518-17.7-7.229c-12.295-5.069-17.863-16.843-20.362-27.323 22.841-1.939 35.115-21.083 38.854-32.715zM417.965 69.67l-.244.06.202-.263.042.203z" fill="#fff"/><path d="M469.826 68.68c-18.737.02-32.779 6.119-35.847 13.288l35.847 14.054 35.848-14.054c-3.048-7.17-17.091-13.268-35.848-13.289zm.365 372.076h-.711c-11.36.081-26.988-2.242-34.527-4.422l-9.063 24.374c5.974 2.12 26.215 6.159 43.955 6.159 17.7 0 37.962-4.059 43.916-6.159l-9.043-24.374c-7.561 2.201-23.168 4.503-34.527 4.422zm68.587-24.231c-6.748 3.796-21.805 9.491-30.564 12.137l7.356 20.133c13.555-3.675 24.732-7.977 33.978-12.581l-15.262-5.048 4.492-14.641zm-137.885 0l4.512 14.641-15.282 5.048c9.226 4.604 20.464 8.906 33.957 12.581l7.357-20.133c-8.718-2.646-23.797-8.36-30.544-12.137zm68.936-371.148c14.123 0 27.983 3.351 38.631 9.249.976-3.252 2.337-7.19 4.187-11.309l-4.024.484-4.227.444-1.789-3.816-5.384-11.31-9.816 5.09-3.82 1.939-3.049-2.99-10.669-10.5-10.648 10.5-3.049 2.99-3.82-1.939-9.876-5.09-5.324 11.31-1.83 3.816-4.227-.444-4.023-.484c1.849 4.14 3.191 8.057 4.186 11.309 10.669-5.898 24.488-9.25 38.571-9.25zM685.46 176.074c1.828.626 3.698.908 5.547.908 7.986 0 15.709-5.129 18.371-11.005 0 0-14.652-.889-30.401-16.781-5.02-5.15-10.324-6.685-14.876-6.685-7.072 0-12.376 3.716-12.376 3.716 19.021 10.057 22.902 26.212 33.735 29.847zm-436.818.908c1.849 0 3.719-.282 5.507-.908 10.873-3.635 14.774-19.79 33.795-29.847 0 0-5.324-3.716-12.356-3.716-4.571 0-9.876 1.535-14.916 6.685-15.729 15.892-30.381 16.781-30.381 16.781 2.622 5.876 10.364 11.005 18.351 11.005z" fill="#fff"/><path d="M690.621 241.724c.326.02.611.02.955.02 19.937 0 26.703-21.224 26.703-21.224h-.386c-3.658 0-33.307-.848-54.259-27.323-13.798-17.407-25.097-32.714-47.431-38.732l-2.195-.384-.487-2.221c-.61-3.393 1.727-6.563 7.032-9.996 30.807-20.053 9.896-45.619 9.896-45.619s-8.799 20.457-28.492 20.457c-.467 0-.974-.02-1.462-.02-2.236-.121-4.39-.202-6.564-.666l-3.638-.708s5.609-15.165-7.925-29.099c-10.202-10.521-22.619-12.299-29.792-12.299-3.617 0-5.914.465-5.914.465 6.808 8.845 11.726 23.506 3.861 32.553-6.787 7.775-23.37 8.158-23.37 19.75 0 4.907 4.613 10.642 12.905 15.792 24.935 15.609 49.686 36.309 59.969 64.055 12.864 34.614-1.626 57.574-22.313 70.741 0 0 6.483 5.936 15.892 6.684 1.91.182 3.779.263 5.527.263 19.855 0 30.117-9.249 30.117-9.249s-1.687 12.782-12.03 24.656c-9.531 10.966-22.05 17.408-41.132 17.69 0 0-.609 8.806 7.844 16.418 5.407 4.806 17.904 6.382 17.904 6.382s-23.391 4.704-25.971 39.035c-1.403 18.599-6.179 25.061-6.179 25.061h.427c54.28 0 52.877-46.265 52.877-46.265s3.781 13.692 18.921 17.266c1.828.485 3.779.667 5.649.667 4.877 0 9.104-1.131 9.104-1.131s-7.926-16.62-.061-39.864c6.523-19.285 5.466-33.582 5.466-33.582s7.317 10.985 25.444 11.087h.182c15.1 0 21.683-11.37 21.683-11.37-36.192-14.923-32.615-63.106-32.615-63.106s4.694 3.472 13.858 3.816zm-10.892 50.323c-14.713-7.208-24.02-26.353-26.276-33.259-2.438 37.965-21.093 64.319-42.899 89.682-11.319 13.146-15.262 25.929-15.262 25.929s2.175-14.479 11.97-26.273c20.342-24.293 39.667-54.523 41.111-89.479.995-24.395-5.325-44.185-15.181-60.482 5.507 16.983 4.736 37.783-13.981 57.19 0 0 37.25-44.366-14.834-89.844-20.851-17.307-43.652-27.989-55.397-35.562 42.431 13.753 63.139-1.393 63.139-1.393-13.555 11.673-31.093 11.47-41.964 9.794 2.946 1.434 6.014 2.928 9.327 4.685 35.766 19.305 67.916 51.071 73.402 95.074v-.343c8.332 43.195 26.845 54.281 26.845 54.281zM337.816 340.11s12.498-1.555 17.904-6.382c8.433-7.612 7.844-16.418 7.844-16.418-19.103-.262-31.6-6.724-41.193-17.669-10.262-11.874-11.969-24.657-11.969-24.657s10.262 9.248 30.096 9.248a58.78 58.78 0 005.549-.262c9.408-.747 15.911-6.685 15.911-6.685-20.687-13.166-35.197-36.146-22.354-70.76 10.304-27.726 35.035-48.446 59.97-64.055 8.291-5.15 12.904-10.865 12.904-15.792 0-11.592-16.562-11.975-23.349-19.75-7.865-9.047-2.927-23.729 3.86-32.553 0 0-2.255-.465-5.893-.465-7.152 0-19.57 1.778-29.771 12.3-13.575 13.933-7.946 29.098-7.946 29.098l-3.638.708c-2.174.464-4.348.545-6.563.666-.508 0-.956.02-1.444.02-19.732 0-28.49-20.436-28.49-20.436s-20.912 25.566 9.877 45.618c5.303 3.433 7.619 6.604 7.01 9.996l-.488 2.222-2.235.383c-22.293 6.018-33.612 21.326-47.41 38.733-20.912 26.434-50.521 27.302-54.219 27.302h-.407s6.767 21.224 26.703 21.224c.325 0 .609 0 .955-.02 9.166-.323 13.881-3.816 13.881-3.816s3.535 48.162-32.617 63.106c0 0 6.584 11.37 21.683 11.37h.182c18.148-.102 25.444-11.087 25.444-11.087s-1.057 14.297 5.445 33.582c7.865 23.244-.019 39.864-.019 39.864s4.227 1.131 9.083 1.131c1.89 0 3.821-.182 5.63-.667 15.119-3.574 18.919-17.266 18.919-17.266s-1.382 46.265 52.898 46.265h.386s-4.755-6.462-6.137-25.061c-2.602-34.331-25.992-39.035-25.992-39.035zm-8.718 8.36c-21.805-25.363-40.44-51.717-42.899-89.682-2.256 6.887-11.523 26.051-26.235 33.259 0 0 18.492-11.086 26.804-54.281v.343c5.507-43.983 37.636-75.769 73.423-95.074 3.271-1.776 6.38-3.272 9.307-4.685-10.873 1.676-28.41 1.879-41.964-9.794 0 0 20.708 15.146 63.118 1.393-11.746 7.573-34.526 18.255-55.376 35.562-52.105 45.478-14.835 89.844-14.835 89.844-18.737-19.426-19.489-40.207-13.981-57.19-9.877 16.317-16.177 36.087-15.161 60.482 1.423 34.956 20.749 65.186 41.051 89.479 9.815 11.774 12.03 26.273 12.03 26.273s-3.984-12.783-15.282-25.929zm100.596-177.507c.894.95 1.767 1.98 2.601 3.009.204.243.386.465.589.748a81.992 81.992 0 012.317 3.231c.162.222.325.485.508.747.915 1.373 1.768 2.787 2.622 4.241 7.824 13.43 20.362 21.446 31.478 21.467 11.137-.021 23.634-8.037 31.499-21.467.873-1.494 1.747-2.948 2.662-4.302.142-.201.285-.383.406-.585a57.189 57.189 0 012.439-3.373c.183-.242.346-.444.508-.645a57.503 57.503 0 012.682-3.09c.163-.162.285-.303.427-.424 3.983-4.059 8.739-7.149 14.957-8.866l-2.764-1.595h-.163l-11.013-6.361-11.319-6.442-30.24 16.358-.081-.062-.061.062-30.259-16.358-11.299 6.422-11.035 6.361h-.121l-2.805 1.595c6.238 1.717 10.974 4.766 14.977 8.825.183.162.305.344.488.504zm27.882-1.312h25.584v8.725c-3.008-3.656-8.86-2.909-8.86-2.909v12.581s.224 6.18 2.398 8.866h-12.66c2.214-2.667 2.418-8.866 2.418-8.866v-12.581s-5.832-.747-8.88 2.909v-8.725z" fill="#fff"/><path d="M467.202 152.727v-51.071L434.483 90.63l8.638 49.495 24.081 12.602zm-7.032-38.531v8.199l-1.585-.727c-.082-.061-2.398-.585-6.462-3.776-6.707-5.17-6.828-9.936-6.828-9.936l14.875 6.24zm36.378 25.929l8.597-49.495-32.698 11.026v51.071l24.101-12.602zm-17.07-25.929l14.875-6.219s-.121 4.765-6.848 9.935c-4.044 3.19-6.381 3.716-6.462 3.776l-1.585.727v-8.219h.02zm-58.551 156.931c3.19 1.152 7.052 1.394 9.023 1.394.081-.242.183-.545.285-.909.183-.585.345-1.151.467-1.797.548-2.827.752-6.038.792-8.098-1.341-.828-3.231-2.302-4.288-4.503-1.219-2.545-2.946-3.716-5.487-3.716-3.291 0-6.827 1.959-8.331 2.887-1.199 7.049 4.023 13.45 7.539 14.742zm72.372-27.104c-6.077 6.563-17.965 17.993-18.555 18.579l-.711.726-37.574-.585c-.021 3.696-.631 6.846-1.22 9.148-.101.384-.203.788-.304 1.192l44.707 7.977c4.654-3.231 17.457-12.521 22.415-16.155-3.618-5.251-3.962-11.471-3.149-15.854-2.358-1.514-4.167-3.21-5.609-5.028z" fill="#fff"/><path d="M498.394 199.115c-8.657 8.541-16.968 11.692-24.385 12.419a39.048 39.048 0 01-4.085.222h-.184c-1.382 0-2.763-.081-4.104-.222a32.454 32.454 0 01-4.024-.626c-.488 1.919-1.098 5.937.651 9.734 1.565 3.453 4.755 6.018 9.409 7.714l1.564.605.021 1.677c0 .505.365 11.369 12.294 14.378 1.951-1.999 3.719-3.797 5.02-5.291-2.439-5.695-1.159-11.51 2.377-14.358-.163.606-1.706 14.863 9.795 20.153l1.89.889-.569 2c-.183.605-4.023 14.398 9.897 19.527l2.459.93-1.097 2.382c-.244.525-5.711 13.046 7.152 20.154h27.902V269.39c-9.916-1.212-14.123-9.127-15.2-14.741-4.614-.788-8.189-2.767-10.628-5.998-5.853-7.653-.813-14.661-.752-15.045-.021.061 0 7.533 4.633 12.137 2.296 2.221 5.02 3.938 9.145 4.322l2.032.182.183 2.059c.041.444 1.158 10.542 10.608 12.137l-.021-44.953c0-6.966 2.053-13.973 4.512-20.436h-56.495v.061zm-75.086 20.595l-.751 28.635 3.271.485 8.007-27.464-4.065-8.441-6.462 6.785zm88.28 131.324c.244 0 .528.041.793.102 4.978 1.413 6.239 19.265 14.977 20.861a11.13 11.13 0 002.337.222c2.52 0 4.023-1.071 5.649-2.97 0 0-4.39-6.866-7.681-11.49-4.37-6.058-7.763-13.388-15.893-13.388-.182 0-.426 0-.629.02-2.683.141-4.328 1.433-4.328 1.433-3.293-2.06-6.362-2.766-9.145-2.766-5.101 0-9.064 2.322-11.035 2.322h-.082l-18.167-1.776c-2.845-.263-5.08-3.111-5.893-4.221a7.803 7.803 0 01-.306-.485c0-.485 0-.989-.04-1.434-.61-14.762-12.111-21.082-16.197-21.183 0 0 .488-2.808-.629-3.878l-4.004 4.827-13.148-6.563 9.368 10.884-7.946 8.866c-.995 1.009-.873 2.382-.467 2.948l3.435 3.009 4.348-2.626c.224-.162.61-.201 1.097-.201 1.2 0 3.008.302 4.634.302 1.768 0 3.312-.383 3.496-2.039-.549 5.473-5.65 14.984-2.297 22.455l2.48 5.635-16.055-2.302-7.519 12.621c-2.316 4.201-2.683 8.744-.447 11.208l2.805 3.494s3.942-4.16 4.836-6.887l-1.28-1.393c-1.078-1.171-1.016-2.221-.365-3.494l4.713-7.774 18.961 4.442.995-1.696c1.281-2.12 3.13-2.766 5.163-2.766.832 0 1.686.101 2.58.242 3.516.686 9.308 1.615 15.099 1.615 6.361 0 12.661-1.13 16.014-4.867 6.868 10.118 20.789 11.733 19.692 16.862l-3.658 17.327c2.418-.101 4.755-.262 6.97-.565l3.475-18.034c.386-1.959.752-4.604.752-4.604-1.341-1.353-4.593-4.221-6.422-7.694-2.459-4.685-1.117-7.128-3.414-13.227.082.04.772-1.374 2.378-1.374zm-70.924-25.323c-.934-.019-1.605-.807-1.564-1.737.082-.888.833-1.594 1.748-1.514.935.04 1.605.848 1.565 1.736-.082.889-.854 1.575-1.749 1.515z" fill="#fff"/><path d="M414.772 367.432s6.28-2.565 6.849-4.402l-.833-2.081c-.59-1.353-.508-2.827.63-3.635l6.787-4.665 11.34 2.161s-2.053-2.544-1.849-5.957l-10.811-2.282-10.202 6.179c-4.369 3.252-4.694 8.562-3.252 11.714l1.341 2.968zm80.147 29.361c2.032-.081 4.267-.122 6.727-.122 0 0 5.832-16.942 6.157-17.488-3.272-1.433-10.059-5.007-12.681-6.644 1.728 2.566 5.934 5.513 5.101 7.776l-5.304 16.478z" fill="#fff"/><path d="M550.44 296.31H389.228v60.259c0 24.637 17.944 40.065 44.423 40.065 22.131 0 27.963.847 36.194 8.966 5.669-5.614 10.364-7.715 19.996-8.502l.224-.929 5.08-15.61c-.284-.343-8.596-9.734-8.596-9.734-3.292 1.091-6.056 1.273-10.709 1.273-4.776 0-10.162-.545-15.994-1.636a7.078 7.078 0 00-1.687-.182c-.711 0-.772.061-.955.404l-1.016 1.656-1.849 3.03-3.475-.788-15.465-3.614-2.113 3.472.325.364 1.889 2.06-.832 2.686c-1.138 3.513-4.837 7.612-5.955 8.744l-3.861 4.119-3.515-4.422-2.643-3.292c-2.783-3.089-3.434-7.835-1.869-12.803a.234.234 0 01-.163.061l-4.369 1.797-1.971-4.241-1.382-3.009c-2.378-5.291-1.504-13.025 4.897-17.69l12.458-6.987 11.848 2.322c.284-1.13.711-5.169 1.056-6.199-.224-.021-.447-.081-.67-.081l-6.829 2.524-6.584-4.524s-2.58-2.463-.244-4.927l6.381-9.592-16.155-20.154 24.833 10.137 1.645-2.039 3.354-3.978 3.8 3.594c1.078 1.03 1.687 2.303 1.991 3.575 6.849 2.645 19.103 10.46 20.18 23.162l-3.841 1.535v.101c.874 1.03 1.605 1.454 1.83 1.494l17.72 1.738c.447-.081 1.016-.284 1.646-.466 2.195-.746 5.507-1.817 9.43-1.817 3.19 0 6.279.727 9.245 2.101 1.098-.404 2.439-.707 3.984-.808l.853-.021c9.49 0 14.205 7.048 17.985 12.662.63.969 1.26 1.899 1.911 2.807 3.312 4.645 7.64 11.45 7.823 11.734l1.951 3.028-2.398 2.767c-1.849 2.12-4.613 4.604-9.368 4.604a17.13 17.13 0 01-3.211-.323c-1.017-.182-1.93-.485-2.825-.848a84.92 84.92 0 01-.508 2.989l-3.11 16.114c18.596-4.543 30.403-18.497 30.403-38.449l.019-60.279zm-161.211-4.846h125.365c-6.26-6.421-6.179-14.559-4.573-19.85-1.829-.868-3.333-1.919-4.674-3.05-4.898 3.595-19.855 14.419-23.756 17.125l-.833.565-49.2-8.845h-.996c-1.178 0-2.906-.04-4.795-.262-.529 2.201-2.439 3.716-4.634 3.716-.244 0-.528-.02-.792-.081-1.28-.223-2.399-.868-3.15-1.939a4.63 4.63 0 01-.854-3.594l.183-1.05c-5.08-3.555-9.754-11.491-7.681-19.851l.203-.889.711-.505c.101-.081.955-.645 2.215-1.373l-3.576-.545c-1.342-.242-2.236-1.475-2.032-2.787.223-1.333 1.483-2.282 2.804-2.019l8.515 1.333.772-29.807 12.68-13.329 7.906 16.54-8.352 28.675 7.519 1.171a2.435 2.435 0 012.032 2.787c-.204 1.192-1.219 2.019-2.418 2.019-.123 0-.265 0-.386-.019l-6.118-.99c.082.182.204.283.285.485.651 1.332 2.093 2.302 2.947 2.706l37.513.585a792.649 792.649 0 009.572-9.43c-9.226-3.474-12.578-11.39-13.148-16.64-5.162-2.182-8.718-5.452-10.689-9.713-2.399-5.271-1.544-10.541-.915-13.107-4.999-1.817-10.262-5.129-15.627-10.42h-56.494c2.418 6.462 4.471 13.469 4.471 20.437v71.951z" fill="#FFDD2D"/><path d="M440.863 322.459c-.915-.081-1.688.626-1.748 1.515-.061.928.629 1.716 1.565 1.736.894.081 1.686-.606 1.767-1.514 0-.889-.65-1.716-1.584-1.737zm109.353 109.269l-9.287-3.534 2.56-9.532 2.825-10.399s-16.46 8.864-39.648 15.529c-6.584 1.878-11.563 2.726-11.563 2.726v7.068s-12.397 2.141-24.934 2.141h-.712c-12.539 0-24.934-2.141-24.934-2.141v-7.068s-5-.848-11.563-2.726c-23.188-6.665-39.628-15.529-39.628-15.529l2.784 10.399 2.622 9.532-9.308 3.534-10.324 3.837c11.848 5.675 28.248 13.954 43.266 18.033l-3.536 9.612s19.041 8.623 50.764 8.704v.021h.447v-.021c31.762-.081 50.783-8.704 50.783-8.704l-3.556-9.612c15.018-4.079 31.458-12.358 43.245-18.033l-10.303-3.837zm-160.095 4.483l15.282-5.049-4.511-14.64c6.726 3.796 21.825 9.491 30.563 12.136l-7.377 20.134c-13.493-3.695-24.731-7.997-33.957-12.581zm79.723 30.655c-17.741 0-38.003-4.06-43.957-6.16l9.064-24.374c7.519 2.181 23.167 4.504 34.526 4.423h.712c11.36.081 26.967-2.242 34.526-4.423l9.044 24.374c-5.955 2.121-26.196 6.16-43.915 6.16zm45.723-18.074l-7.356-20.134c8.759-2.645 23.817-8.34 30.563-12.136l-4.49 14.64 15.261 5.049c-9.247 4.584-20.423 8.886-33.978 12.581zM469.823 51.274c18.9 0 34.02 6.219 42.371 12.863 0 0 2.48-14.842 10.954-27.948l-15.221 1.716-7.966-16.822-15.302 7.835-14.836-14.58-14.794 14.58-15.322-7.835-7.946 16.822-15.221-1.716c8.474 13.106 10.954 27.948 10.954 27.948 8.372-6.644 23.451-12.863 42.329-12.863zM431.07 43.8l4.227.445 1.829-3.817 5.325-11.309 9.876 5.07 3.82 1.938 3.049-2.988 10.648-10.501 10.669 10.5 3.048 2.989 3.82-1.939 9.816-5.069 5.385 11.31 1.789 3.816 4.227-.445 4.023-.485a94.692 94.692 0 00-4.186 11.31c-10.649-5.897-24.508-9.25-38.631-9.25-14.064 0-27.903 3.353-38.591 9.25-.996-3.252-2.337-7.19-4.187-11.31l4.044.485zm260.482 204.427c24.447 0 32.616-24.718 32.962-25.768l2.723-8.703-9.165.282h-.041c-3.231 0-30.197-.707-49.321-24.859l-1.809-2.242c-12.497-15.791-24.345-30.795-45.52-37.641.61-.546 1.484-1.232 2.683-1.999 11.237-7.351 17.781-16.277 19.427-26.636 2.398-15.591-7.6-28.01-8.048-28.515l-6.807-8.36-4.247 9.915c-.284.626-7.438 16.499-22.476 16.499h-1.118c-1.036-.061-2.011-.102-2.987-.182.528-7.088-.773-18.054-10.77-28.332-12.011-12.38-26.764-14.237-34.487-14.237-4.125 0-6.869.505-7.153.545l-10.283 2.02 6.34 8.3c4.98 6.401 9.491 18.214 4.146 24.394-1.707 1.958-5.222 3.554-8.596 5.149-6.93 3.171-16.379 7.573-16.379 18.802 0 7.269 5.67 14.862 15.953 21.324 30.441 19.023 49.219 38.873 57.327 60.785 12.539 33.704-3.821 52.928-19.712 63.046l-7.133 4.564 6.239 5.694c.833.727 8.474 7.412 19.752 8.38 2.134.142 4.187.263 6.097.263 7.235 0 13.393-1.131 18.392-2.645a46.518 46.518 0 01-5.203 7.31c-9.084 10.46-20.26 15.226-36.336 15.469l-5.974.101-.467 5.957c-.061 1.191-.509 12.238 10.018 21.628 1.605 1.454 3.556 2.645 5.589 3.635-7.133 6.381-14.388 17.488-15.79 36.531-1.179 15.892-4.999 21.769-5.04 21.83l-6.605 10.016 11.93.162c19.711 0 34.81-5.412 45.276-16.116 6.177-6.34 9.714-13.489 11.807-19.83 3.434 2.908 7.865 5.453 13.636 6.806 2.195.504 4.593.788 7.174.788 5.568 0 10.221-1.172 10.75-1.293l7.621-2.019-3.374-7.069c-.244-.565-6.604-14.741.244-34.976 2.947-8.744 4.45-16.579 5.182-22.678 4.796 2.484 11.217 4.544 19.529 4.564 18.858 0 27.171-13.995 27.556-14.58l3.719-6.422-6.889-2.827c-22.476-9.269-27.454-34.169-28.45-47.658 2.032.383 4.348.747 6.97.828h1.138zm17.822 52.788s-6.584 11.368-21.683 11.368h-.183c-18.127-.1-25.443-11.086-25.443-11.086s1.057 14.298-5.487 33.582c-7.864 23.245.061 39.864.061 39.864s-4.226 1.131-9.104 1.131c-1.869 0-3.82-.182-5.649-.667-15.14-3.574-18.919-17.266-18.919-17.266s1.401 46.266-52.878 46.266h-.426s4.775-6.462 6.197-25.062c2.581-34.33 25.972-39.035 25.972-39.035s-12.478-1.555-17.884-6.381c-8.453-7.614-7.864-16.418-7.864-16.418 19.102-.263 31.601-6.725 41.131-17.69 10.324-11.874 12.031-24.657 12.031-24.657s-10.263 9.249-30.118 9.249c-1.747 0-3.617-.081-5.526-.263-9.389-.747-15.892-6.684-15.892-6.684 20.667-13.167 35.176-36.147 22.313-70.761-10.303-27.726-35.055-48.446-59.969-64.056-8.292-5.148-12.905-10.864-12.905-15.79 0-11.593 16.582-11.956 23.39-19.751 7.845-9.046 2.927-23.728-3.881-32.553 0 0 2.297-.465 5.914-.465 7.173 0 19.59 1.797 29.792 12.3 13.554 13.933 7.925 29.099 7.925 29.099l3.638.707c2.174.464 4.328.545 6.564.645.488 0 .974.021 1.462.021 19.692 0 28.491-20.457 28.491-20.457s20.932 25.586-9.876 45.619c-5.304 3.433-7.64 6.604-7.031 9.996l.487 2.221 2.195.384c22.334 6.018 33.633 21.325 47.432 38.733 20.952 26.474 50.601 27.322 54.259 27.322h.386s-6.767 21.224-26.703 21.224c-.326 0-.61 0-.955-.02-9.166-.323-13.86-3.817-13.86-3.817s-3.597 48.204 32.596 63.148z" fill="#000"/><path d="M648.616 151.961c9.124 4.825 14.428 11.288 19.082 17.023 4.572 5.594 8.921 10.986 15.708 13.227 2.418.828 4.98 1.212 7.581 1.212 10.202 0 20.443-6.2 24.325-14.783l3.902-8.602-9.45-.566c-.447-.019-12.6-1.111-26.134-14.862-5.569-5.635-12.294-8.603-19.55-8.603-8.86 0-15.424 4.402-16.155 4.846l-8.698 6.079 9.389 5.029zm15.485-9.452c4.552 0 9.856 1.535 14.875 6.685 15.749 15.892 30.401 16.781 30.401 16.781-2.662 5.857-10.383 11.005-18.371 11.005a17.16 17.16 0 01-5.547-.908c-10.831-3.635-14.713-19.79-33.755-29.847 0 0 5.324-3.716 12.397-3.716zm-11.216 95.257v.322c-5.486-43.982-37.636-75.747-73.402-95.074-3.313-1.756-6.361-3.25-9.327-4.684 10.892 1.676 28.429 1.878 41.964-9.794 0 0-20.708 15.145-63.14 1.393 11.746 7.573 34.567 18.256 55.397 35.562 52.085 45.477 14.814 89.844 14.814 89.844 18.717-19.407 19.489-40.207 13.981-57.19 9.857 16.296 16.157 36.087 15.181 60.481-1.442 34.956-20.768 65.187-41.111 89.481-9.774 11.792-11.969 26.272-11.969 26.272s3.942-12.783 15.261-25.929c21.806-25.364 40.44-51.717 42.879-89.683 2.256 6.887 11.544 26.051 26.276 33.261.041.02-18.472-11.067-26.804-54.262zM375.308 400.508c-.021-.06-3.8-5.937-5.019-21.829-1.424-19.044-8.658-30.15-15.811-36.532 2.073-.969 3.983-2.161 5.588-3.635 10.507-9.39 10.06-20.436 9.999-21.628l-.406-5.958-6.016-.1c-16.034-.263-27.231-5.029-36.315-15.469-2.113-2.463-3.821-4.907-5.203-7.31 5 1.514 11.117 2.645 18.371 2.645 1.951 0 3.963-.121 6.097-.262 11.278-.97 18.92-7.633 19.773-8.381l6.239-5.694-7.133-4.565c-15.952-10.137-32.251-29.361-19.733-63.046 8.109-21.91 26.866-41.761 57.348-60.784C413.37 141.498 419 133.905 419 126.635c0-11.227-9.43-15.65-16.359-18.8-3.373-1.596-6.889-3.191-8.597-5.15-5.364-6.16-.833-17.993 4.126-24.395l6.381-8.3-10.323-2.02c-.305-.039-3.008-.544-7.154-.544-7.722 0-22.435 1.858-34.466 14.237-10.018 10.299-11.339 21.265-10.831 28.332-.976.081-1.95.122-2.967.182h-1.097c-15.079 0-22.212-15.873-22.496-16.5l-4.248-9.914-6.869 8.36c-.386.505-10.425 12.945-7.986 28.514 1.626 10.36 8.169 19.286 19.407 26.637a19.58 19.58 0 012.683 1.999c-21.156 6.845-32.982 21.87-45.481 37.662l-1.808 2.242c-19.102 24.151-46.13 24.858-49.361 24.858l-9.206-.282 2.804 8.704c.325 1.049 8.474 25.767 32.942 25.767l1.178-.04c2.581-.081 4.898-.424 6.971-.828-1.017 13.469-5.995 38.369-28.492 47.658l-6.868 2.827 3.719 6.422c.366.585 8.698 14.58 27.597 14.58 8.25-.021 14.671-2.08 19.488-4.564.732 6.099 2.235 13.934 5.182 22.678 6.848 20.235.468 34.411.224 34.976l-3.373 7.069 7.64 2.019c.508.12 5.203 1.293 10.75 1.293 2.601 0 5-.284 7.154-.788 5.791-1.353 10.262-3.898 13.656-6.806 2.073 6.341 5.63 13.49 11.786 19.83 10.487 10.704 25.565 16.115 45.278 16.115l11.949-.161-6.625-9.996zm-5.772 3.695c-54.279 0-52.897-46.265-52.897-46.265s-3.78 13.692-18.92 17.267c-1.809.484-3.739.666-5.628.666-4.878 0-9.085-1.13-9.085-1.13s7.886-16.621.021-39.864c-6.503-19.286-5.447-33.583-5.447-33.583s-7.295 10.986-25.442 11.087h-.183c-15.099 0-21.684-11.37-21.684-11.37 36.173-14.923 32.617-63.106 32.617-63.106s-4.694 3.473-13.88 3.816c-.325.02-.63.02-.955.02-19.956 0-26.703-21.224-26.703-21.224h.406c3.679 0 33.288-.847 54.24-27.322 13.798-17.407 25.117-32.694 47.411-38.733l2.235-.383.487-2.221c.61-3.392-1.707-6.563-7.01-9.997-30.809-20.053-9.877-45.618-9.877-45.618S318 116.68 337.733 116.68c.487 0 .935-.019 1.443-.019 2.215-.122 4.41-.203 6.563-.667l3.638-.707s-5.629-15.166 7.946-29.1c10.202-10.52 22.619-12.298 29.771-12.298 3.638 0 5.894.465 5.894.465-6.788 8.845-11.705 23.506-3.861 32.552 6.787 7.776 23.349 8.159 23.349 19.75 0 4.908-4.613 10.643-12.904 15.792-24.935 15.61-49.687 36.329-59.97 64.056-12.843 34.613 1.647 57.573 22.355 70.76 0 0-6.504 5.938-15.912 6.684-1.911.182-3.76.263-5.549.263-19.834 0-30.096-9.249-30.096-9.249s1.707 12.783 11.969 24.657c9.593 10.966 22.09 17.428 41.193 17.69 0 0 .61 8.805-7.844 16.418-5.426 4.806-17.904 6.381-17.904 6.381s23.411 4.706 25.971 39.036c1.403 18.598 6.137 25.06 6.137 25.06h-.386z" fill="#000"/><path d="M248.641 183.445c2.621 0 5.182-.383 7.601-1.211 6.827-2.242 11.156-7.634 15.728-13.227 4.674-5.735 9.937-12.197 19.062-17.024l9.388-5.008-8.717-6.079c-.732-.464-7.276-4.846-16.116-4.846-7.275 0-14.021 2.949-19.57 8.603-13.533 13.732-25.665 14.843-26.113 14.863l-9.449.545 3.881 8.622c3.902 8.543 14.123 14.762 24.305 14.762zm12.031-34.228c5.04-5.15 10.343-6.684 14.915-6.684 7.031 0 12.357 3.715 12.357 3.715-19.022 10.077-22.924 26.212-33.796 29.847-1.788.626-3.658.909-5.507.909-7.987 0-15.709-5.129-18.351-11.006 0-.02 14.632-.909 30.382-16.781zm30.625 109.43c-1.017-24.395 5.283-44.185 15.159-60.481-5.507 16.982-4.755 37.783 13.982 57.189 0 0-37.27-44.367 14.835-89.843 20.85-17.307 43.651-27.99 55.376-35.563-42.41 13.753-63.118-1.393-63.118-1.393 13.533 11.672 31.072 11.471 41.964 9.774-2.947 1.434-6.035 2.928-9.308 4.686-35.806 19.325-67.935 51.09-73.442 95.073v-.343c-8.312 43.195-26.805 54.282-26.805 54.282 14.714-7.21 23.98-26.354 26.236-33.261 2.459 37.966 21.093 64.319 42.899 89.683 11.319 13.146 15.302 25.929 15.302 25.929s-2.215-14.479-12.031-26.272c-20.301-24.253-39.627-54.504-41.049-89.46zm166.275-88.996v8.725c3.029-3.656 8.882-2.908 8.882-2.908v12.58s-.204 6.18-2.419 8.866h12.661c-2.175-2.665-2.398-8.866-2.398-8.866v-12.58s5.852-.748 8.86 2.908v-8.725h-25.586zm-5.449-51.738c4.044 3.192 6.381 3.716 6.462 3.777l1.585.727v-8.219l-14.876-6.22c0 .02.142 4.766 6.829 9.935zm35.383 0c6.727-5.169 6.849-9.935 6.849-9.935l-14.876 6.22v8.219l1.565-.727c.102-.061 2.418-.585 6.462-3.777z" fill="#000"/><path d="M514.309 84.452c0-12.46-21.115-23.667-44.424-23.667h-.142c-23.309 0-44.423 11.208-44.423 23.667l.467 3.07 9.307 53.09-9.347 5.392-24.183 14.035h.081s-5.446 2.767-7.966 4.483c-9.206 6.361-11.157 15.63-5.812 19.467 1.321-7.552 7.335-15.469 18.594-15.469 8.109 0 14.286 4.161 19.286 10.401a50.5 50.5 0 013.637 5.068c1.402 2.282 2.804 4.281 4.207 6.22h-62.286c4.572 9.147 8.92 18.841 8.92 29.362v136.997c0 33.159 25.667 48.991 53.427 48.991 21.459 0 24.345-.969 36.192 10.744 11.787-11.734 14.673-10.744 36.152-10.744 27.781 0 53.406-15.832 53.406-48.991V219.571c0-10.521 4.349-20.215 8.941-29.362h-62.305c1.382-1.918 2.783-3.938 4.186-6.22a57.667 57.667 0 013.617-5.068c5.04-6.261 11.197-10.401 19.306-10.401 11.257 0 17.252 7.896 18.594 15.469 5.345-3.837 3.415-13.106-5.853-19.467-2.479-1.716-7.925-4.483-7.925-4.483h.081l-24.183-14.035-9.307-5.392 9.307-53.09.448-3.07zm-79.824 6.18l32.718 11.026v51.071l-24.081-12.621-8.637-49.476zm6.767 108.483c5.365 5.31 10.628 8.603 15.628 10.42-.651 2.564-1.505 7.855.913 13.126 1.972 4.24 5.549 7.512 10.69 9.693.569 5.251 3.902 13.147 13.148 16.64-4.044 4.059-7.987 7.876-9.592 9.431l-37.493-.586c-.854-.424-2.297-1.373-2.947-2.726-.082-.182-.203-.283-.265-.485l6.118.989c.142.021.264.021.386.021 1.179 0 2.215-.808 2.418-2.019a2.434 2.434 0 00-2.032-2.787l-7.519-1.171 8.352-28.656-7.905-16.539-12.68 13.328-.773 29.807-8.515-1.333c-1.321-.263-2.581.707-2.804 2.019-.203 1.313.69 2.545 2.032 2.787l3.577.545c-1.281.727-2.114 1.293-2.216 1.374l-.731.504-.203.889c-2.073 8.36 2.621 16.296 7.682 19.85l-.184 1.051c-.203 1.293.082 2.545.853 3.595.732 1.07 1.87 1.716 3.131 1.938.263.04.548.06.792.06 2.195 0 4.105-1.514 4.653-3.715a41.38 41.38 0 004.796.263h.997l49.198 8.824.833-.545c3.923-2.726 18.859-13.55 23.756-17.125 1.342 1.152 2.845 2.201 4.675 3.07-1.586 5.291-1.688 13.429 4.592 19.851H389.228v-71.912c0-6.967-2.053-13.974-4.471-20.436h56.495v-.04zm60.802 65.792c-4.978 3.635-17.781 12.925-22.415 16.156l-44.707-7.977c.102-.404.202-.788.304-1.192a38.621 38.621 0 001.22-9.148l37.575.606.711-.726c.569-.566 12.478-11.996 18.553-18.58a23.13 23.13 0 005.61 5.029c-.813 4.362-.468 10.581 3.149 15.832zm-74.844-7.694c1.056 2.201 2.967 3.676 4.287 4.503-.04 2.06-.243 5.271-.792 8.098a16.6 16.6 0 01-.468 1.798c-.102.363-.202.666-.284.908-1.971 0-5.853-.242-9.023-1.393-3.515-1.293-8.759-7.694-7.54-14.742 1.525-.929 5.04-2.888 8.332-2.888 2.541-.019 4.269 1.171 5.488 3.716zm-4.654-8.865l.752-28.615 6.462-6.805 4.065 8.441-8.007 27.463-3.272-.484zm79.092 148.346c-2.439 0-4.694.041-6.727.121l5.324-16.458c.834-2.282-3.373-5.21-5.099-7.775 2.62 1.636 9.408 5.21 12.68 6.644-.346.525-6.178 17.468-6.178 17.468zm16.705-18.7l-3.475 18.013c-2.216.303-4.573.465-6.991.566l3.658-17.327c1.097-5.149-12.824-6.744-19.692-16.862-3.353 3.757-9.673 4.867-16.014 4.867-5.791 0-11.583-.929-15.099-1.615-.894-.142-1.747-.243-2.58-.243-2.033 0-3.882.626-5.162 2.767l-1.017 1.697-18.959-4.443-4.715 7.753c-.671 1.253-.711 2.323.365 3.494l1.281 1.394c-.874 2.747-4.816 6.886-4.816 6.886l-2.825-3.493c-2.235-2.484-1.87-7.008.467-11.208l7.519-12.621 16.055 2.301-2.5-5.654c-3.353-7.471 1.748-16.983 2.296-22.455-.182 1.656-1.707 2.019-3.495 2.019-1.625 0-3.434-.303-4.633-.303-.467 0-.874.04-1.098.201l-4.349 2.626-3.434-3.009c-.406-.585-.549-1.938.468-2.948l7.946-8.845-9.389-10.885 13.148 6.564 4.004-4.827c1.096 1.07.629 3.876.629 3.876 4.105.102 15.607 6.423 16.217 21.164.041.445.041.949.041 1.434 0 0 .102.182.304.485.813 1.111 3.048 3.958 5.893 4.22l18.169 1.778h.081c1.991 0 5.954-2.323 11.034-2.323 2.764 0 5.853.707 9.145 2.767 0 0 1.646-1.292 4.329-1.433.203-.021.426-.021.63-.021 8.149 0 11.522 7.31 15.891 13.389 3.293 4.624 7.681 11.49 7.681 11.49-1.625 1.918-3.129 2.969-5.649 2.969-.69 0-1.484-.061-2.337-.222-8.738-1.596-9.998-19.448-14.977-20.861a2.739 2.739 0 00-.792-.101c-1.606 0-2.317 1.413-2.317 1.413 2.276 6.079.955 8.543 3.394 13.228 1.829 3.473 5.08 6.34 6.421 7.693 0 .041-.365 2.666-.751 4.645zm-97.565-17.044l.833 2.08c-.549 1.818-6.849 4.403-6.849 4.403l-1.361-2.948c-1.443-3.15-1.138-8.462 3.252-11.713l10.201-6.18 10.811 2.282c-.203 3.413 1.849 5.958 1.849 5.958l-11.34-2.161-6.787 4.665c-1.138.787-1.219 2.262-.609 3.614zm99.271 34.067l3.11-16.114c.162-.949.366-2.06.508-2.988.874.363 1.808.665 2.825.848 1.157.221 2.235.323 3.21.323 4.755 0 7.519-2.485 9.368-4.605l2.399-2.767-1.951-3.028c-.183-.304-4.492-7.089-7.824-11.734a61.843 61.843 0 01-1.911-2.806c-3.779-5.614-8.515-12.662-18.004-12.662l-.854.02c-1.564.101-2.906.404-3.983.808-2.988-1.393-6.056-2.1-9.246-2.1-3.923 0-7.235 1.07-9.43 1.818-.63.181-1.199.383-1.646.464l-17.741-1.737c-.223-.04-.955-.464-1.828-1.514v-.081l3.84-1.535c-1.076-12.702-13.352-20.518-20.2-23.163-.304-1.272-.914-2.544-1.991-3.574l-3.821-3.594-3.353 3.998-1.645 2.039-24.834-10.137 16.156 20.153-6.381 9.593c-2.337 2.463.244 4.927.244 4.927l6.583 4.503 6.829-2.524c.244 0 .448.061.671.081-.325 1.03-.752 5.069-1.036 6.2l-11.848-2.323-12.458 6.987c-6.401 4.665-7.275 12.4-4.897 17.69l1.382 3.009 1.971 4.241 4.348-1.797a.39.39 0 00.163-.081c-1.564 4.968-.934 9.693 1.87 12.804l2.642 3.311 3.515 4.423 3.861-4.12c1.138-1.131 4.817-5.23 5.955-8.744l.833-2.686-1.89-2.06-.304-.363 2.112-3.473 15.465 3.614 3.475.788 1.849-3.029 1.017-1.656c.183-.343.244-.404.955-.404.549 0 1.097.061 1.687.182 5.832 1.09 11.218 1.635 15.993 1.635 4.633 0 7.397-.181 10.71-1.272 0 0 8.311 9.371 8.596 9.734l-5.08 15.589-.225.949c-9.632.768-14.327 2.868-19.995 8.503-8.232-8.118-14.064-8.967-36.194-8.967-26.48 0-44.424-15.428-44.424-40.065v-60.239h161.192l.042 60.239c.02 19.993-11.787 33.926-30.382 38.469zm34.853-195.902c-2.46 6.462-4.513 13.469-4.513 20.437l.021 44.951c-9.449-1.575-10.567-11.692-10.608-12.136l-.182-2.06-2.032-.182c-4.106-.384-6.829-2.12-9.126-4.342-4.632-4.604-4.653-12.076-4.632-12.136-.061.383-5.101 7.39.751 15.044 2.459 3.231 6.015 5.21 10.628 5.998 1.078 5.614 5.284 13.53 15.201 14.741v22.012h-27.881c-12.864-7.109-7.417-19.629-7.154-20.153l1.098-2.383-2.459-.929c-13.921-5.129-10.1-18.942-9.897-19.528l.569-2.019-1.889-.889c-11.503-5.291-9.938-19.568-9.796-20.153-3.535 2.847-4.816 8.663-2.378 14.358-1.32 1.494-3.088 3.311-5.019 5.291-11.908-3.01-12.274-13.894-12.274-14.399l-.021-1.677-1.564-.605c-4.654-1.716-7.844-4.282-9.409-7.735-1.768-3.817-1.138-7.815-.651-9.734a28.79 28.79 0 004.024.626c1.342.143 2.724.223 4.106.223h.182c1.382 0 2.743-.08 4.085-.223 7.417-.726 15.728-3.896 24.385-12.418h56.435v.02zm-43.448-45.438l11.014 6.362h.163l2.763 1.596c-6.219 1.716-10.974 4.806-14.957 8.864-.142.122-.284.284-.426.425a49.12 49.12 0 00-2.683 3.09c-.162.201-.325.423-.508.646a50.796 50.796 0 00-2.418 3.372 6.14 6.14 0 01-.407.585c-.914 1.353-1.788 2.808-2.662 4.302-7.844 13.429-20.362 21.446-31.499 21.467-11.115-.021-23.633-8.038-31.477-21.467-.855-1.454-1.708-2.868-2.622-4.24-.184-.263-.346-.526-.509-.748a81.176 81.176 0 00-2.337-3.231 11.452 11.452 0 00-.589-.747 76.587 76.587 0 00-2.601-3.009c-.183-.142-.305-.323-.487-.485-4.004-4.059-8.739-7.129-14.978-8.824l2.804-1.596h.123l11.013-6.362 11.32-6.441 30.239 16.357.061-.06.081.06 30.239-16.357 11.34 6.441zm-14.917-13.55l-24.102 12.622v-51.091l32.698-11.026-8.596 49.495zm-26.722-44.083l-35.848-14.076c3.048-7.169 17.11-13.267 35.848-13.287 18.756.02 32.819 6.118 35.846 13.287l-35.846 14.076zM64.483 676.196v-63.215h37.314v-23.004H0v23.004h37.313v63.215h27.17zm74.451-36.045v-50.174H112.67v86.219h23.186l45.282-50.174v50.174h26.265v-86.219h-23.186l-45.283 50.174zm156.828 3.985v32.06h26.264v-86.219h-26.264v31.516h-42.205v-31.516h-26.263v86.219h26.263v-32.06h42.205zm99.408 32.06c5.977 0 11.411-.543 16.483-1.993 13.585-3.804 22.461-14.853 22.461-29.887 0-14.309-7.609-24.271-19.744-28.8-5.796-2.173-12.679-2.355-19.2-2.355h-26.989v-23.184h-26.264v86.219h53.253zm-4.528-42.747c3.622 0 7.063 0 10.143 1.087 4.347 1.448 6.883 5.071 6.883 9.418 0 4.529-2.536 8.333-6.702 10.144-2.898 1.267-5.796 1.267-10.324 1.267h-22.461v-21.916h22.461zm90.563 10.143l31.336 32.604H547.5l-43.653-44.921 42.022-41.298h-32.965L481.205 622.4h-7.245v-32.423h-26.265v86.219h26.265v-32.604h7.245zm120.338-55.97c-35.321 0-56.514 19.924-56.514 45.645 0 25.722 21.193 45.646 56.514 45.646 35.139 0 56.332-19.924 56.332-45.646 0-25.721-21.193-45.645-56.332-45.645zm0 70.28c-17.57 0-28.801-10.506-28.801-24.635 0-14.128 11.231-24.453 28.801-24.453 17.388 0 28.8 10.325 28.8 24.453 0 14.129-11.412 24.635-28.8 24.635zm143.801-72.816H719.08v8.694c-32.966.725-52.71 14.672-52.71 39.306 0 24.634 19.744 37.495 52.71 38.22V680h26.264v-8.694c33.147-.725 52.89-13.586 52.89-38.22s-19.743-38.581-52.89-39.306v-8.694zM719.08 652.83c-18.113-.725-26.084-8.151-26.084-19.744s7.971-19.925 26.084-20.649v40.393zm26.264-40.393c18.295.724 26.083 9.056 26.083 20.649 0 11.593-7.788 19.019-26.083 19.744v-40.393zm140.272-27.351h-26.265v8.694c-32.965.725-52.709 14.672-52.709 39.306 0 24.634 19.744 37.495 52.709 38.22V680h26.265v-8.694c33.143-.725 52.891-13.586 52.891-38.22s-19.748-38.581-52.891-39.306v-8.694zm-26.265 67.744c-18.113-.725-26.083-8.151-26.083-19.744s7.97-19.925 26.083-20.649v40.393zm26.265-40.393c18.296.724 26.083 9.056 26.083 20.649 0 11.593-7.787 19.019-26.083 19.744v-40.393z" fill="#000"/></svg>