<svg xmlns="http://www.w3.org/2000/svg" width="1091" height="949"><defs><linearGradient id="a" x1="1374.5" y1="949" x2="1374.5" y2="-4.125" gradientUnits="userSpaceOnUse"><stop offset="0" stop-color="#01547e"/><stop offset="1" stop-color="#399f7e"/></linearGradient></defs><path data-name="Прямоугольник 7 копия 8" d="M1273.24-4.133c-35.26.372-19.46.656 50.08 1.11 36.9.2 88.84.464 174.96.725 87.66.274 209.5.55 421.72 1.087V949H835.531a298 298 0 01-5.175-33.875q-.8-8.508-1.132-17.05-.165-4.27-.213-8.551-.025-2.139-.02-4.281t.038-4.284c.545-91.458 44.443-185.043 123.43-281.1 24.226-30.049 51.121-60.36 78.721-90.922 78.35-86.053 159.21-174.383 203.19-262.235a450.719 450.719 0 0024.05-55.849 366.44 366.44 0 0020.65-106.734c1.25-29.7-1.13-59.117-5.83-88.247zm-130.68 572.776" transform="translate(-829)" fill-rule="evenodd" fill="url(#a)"/></svg>