<svg xmlns="http://www.w3.org/2000/svg" xmlns:xlink="http://www.w3.org/1999/xlink" viewBox="0 0 232.29 73.86"><defs><style>.cls-1{fill:url(#Безымянный_градиент_10);}.cls-2{fill:url(#Безымянный_градиент_10-2);}.cls-3{fill:url(#Безымянный_градиент_10-3);}.cls-4{fill:url(#Безымянный_градиент_10-4);}.cls-5{fill:#fff;}.cls-6{fill:url(#Безымянный_градиент_10-5);}.cls-7{fill:url(#Безымянный_градиент_10-6);}</style><linearGradient id="Безымянный_градиент_10" x1="378.49" y1="297.64" x2="334.91" y2="297.64" gradientUnits="userSpaceOnUse"><stop offset="0" stop-color="#50b4ee"/><stop offset="1" stop-color="#315e9b"/></linearGradient><linearGradient id="Безымянный_градиент_10-2" x1="341.78" y1="297.64" x2="304.8" y2="297.64" xlink:href="#Безымянный_градиент_10"/><linearGradient id="Безымянный_градиент_10-3" x1="360.01" y1="297.64" x2="339.84" y2="297.64" xlink:href="#Безымянный_градиент_10"/><linearGradient id="Безымянный_градиент_10-4" x1="341.27" y1="297.64" x2="325.07" y2="297.64" xlink:href="#Безымянный_градиент_10"/><linearGradient id="Безымянный_градиент_10-5" x1="516.47" y1="296.3" x2="484.2" y2="296.3" xlink:href="#Безымянный_градиент_10"/><linearGradient id="Безымянный_градиент_10-6" x1="537.05" y1="296.3" x2="514.31" y2="296.3" xlink:href="#Безымянный_градиент_10"/></defs><title>ObviON 2</title><g id="Слой_1" data-name="Слой 1"><path class="cls-1" d="M341.56,260.71a35.36,35.36,0,0,0-6.65.61,36.89,36.89,0,0,1,30,31.66c.05.29.09.6.12.9.11,1.13.17,2.29.17,3.45a2.49,2.49,0,0,1,0,.31A36.91,36.91,0,0,1,334.91,334a35.37,35.37,0,0,0,6.65.61,36.93,36.93,0,1,0,0-73.86Z" transform="translate(-304.8 -260.71)"/><path class="cls-2" d="M341.78,328.46a31.33,31.33,0,0,1,0-61.64,30.6,30.6,0,0,0-5.64-.52,31.34,31.34,0,0,0,0,62.68A30.6,30.6,0,0,0,341.78,328.46Z" transform="translate(-304.8 -260.71)"/><path class="cls-3" d="M360,297.64a16.2,16.2,0,0,0-16.21-16.21,16.45,16.45,0,0,0-4,.49,16.22,16.22,0,0,1,0,31.44,16.44,16.44,0,0,0,4,.49A16.21,16.21,0,0,0,360,297.64Z" transform="translate(-304.8 -260.71)"/><path class="cls-4" d="M341.27,285a13.43,13.43,0,0,0-3.19-.39,13,13,0,1,0,0,26,13.42,13.42,0,0,0,3.19-.39,13,13,0,0,1,0-25.24Z" transform="translate(-304.8 -260.71)"/><path class="cls-5" d="M393.21,296.3c0-7.53,5.65-12.95,13.58-12.95s13.54,5.39,13.54,12.95-5.63,12.95-13.54,12.95S393.21,303.83,393.21,296.3Zm20,0a6.49,6.49,0,1,0-6.47,6.63A6.32,6.32,0,0,0,413.25,296.3Z" transform="translate(-304.8 -260.71)"/><path class="cls-5" d="M442.13,295.61a6.48,6.48,0,0,1,3.78,6c0,4-3.45,7-8,7H423.79V284h13.9c4.37,0,7.56,2.67,7.56,6.31a6.28,6.28,0,0,1-3.12,5.32Zm-3.33-4.2a2.08,2.08,0,0,0-2.3-2.15h-6.2v4.29h6.2a2.08,2.08,0,0,0,2.3-2.15Zm.39,9.39a2.22,2.22,0,0,0-2.43-2.23h-6.46V303h6.46A2.22,2.22,0,0,0,439.2,300.8Z" transform="translate(-304.8 -260.71)"/><path class="cls-5" d="M471.68,284l-9.43,24.65h-6.32L446.29,284H454l5,13.93L464,284Z" transform="translate(-304.8 -260.71)"/><path class="cls-5" d="M474.16,284l6.88,3v21.65h-6.88Z" transform="translate(-304.8 -260.71)"/><path class="cls-6" d="M484.52,296.3c0-7.53,5.65-12.95,13.58-12.95s13.54,5.39,13.54,12.95S506,309.25,498.1,309.25,484.52,303.83,484.52,296.3Zm20,0a6.49,6.49,0,1,0-6.47,6.63A6.32,6.32,0,0,0,504.56,296.3Z" transform="translate(-304.8 -260.71)"/><path class="cls-7" d="M537.09,284v24.65h-5.62l-9.79-13.37v13.37H515.1V284H521l9.46,12.93V284Z" transform="translate(-304.8 -260.71)"/><polygon class="cls-5" points="176.24 21.2 169.35 18.2 169.35 13.32 176.24 13.32 176.24 21.2"/></g></svg>