<svg viewBox="0 0 132 297" fill="none" xmlns="http://www.w3.org/2000/svg"><path d="M89.04 321.033l24.919-9.404a1.866 1.866 0 003.342-1.471 1.86 1.86 0 00-1.398-1.428l-.265-34.963a1.863 1.863 0 10-1.597-3.285l-20.925-21.118a1.86 1.86 0 00-1.064-2.896l3.267-43.182c.07-.007.143-.018.215-.029a1.863 1.863 0 00.801-3.264l12.169-20.252a1.863 1.863 0 001.841-3.206l18.52-33.84a1.864 1.864 0 002.47-2.133 1.863 1.863 0 00-3.174-.899l-20.896-14.694a1.862 1.862 0 00-1.645-2.699l-8.237-60.5-.276.039h.005a1.863 1.863 0 001.44-2.21 1.863 1.863 0 00-2.81-1.197L82.17 43.838a1.86 1.86 0 00.341-1.51 1.87 1.87 0 00-.85-1.204l9.165-21.492a1.863 1.863 0 002.297-2.188 1.863 1.863 0 00-3.303-.752L65.157 2.97a1.863 1.863 0 10-3.6-.524L4.21 15.25a1.86 1.86 0 00-2.138-1.191 1.863 1.863 0 00-1.44 2.21A1.863 1.863 0 003.55 17.39l19.63 19.602a1.862 1.862 0 001.608 2.968l7.234 34.293a1.865 1.865 0 00.312 3.583l-.924 27.686a1.863 1.863 0 00.296 3.714L6.04 179.977a1.863 1.863 0 00-2.197 2.21 1.863 1.863 0 003.153.925l50.337 36.696a1.857 1.857 0 00.41 2.255L43.259 244.11a1.864 1.864 0 10-1.318 3.475l-3.419 23.766a1.782 1.782 0 00-.376.043 1.863 1.863 0 00-1.44 2.209 1.863 1.863 0 002.21 1.44c.063-.012.126-.031.19-.049l19.237 38.695a1.863 1.863 0 102.807 2.19l24.207 5.299a1.86 1.86 0 002.234 2.042 1.862 1.862 0 001.449-2.187zm24.742-11.268l-16.259-5.632 17.241-30.354c.109.024.214.04.326.046l.024 3.286.243 31.576a1.841 1.841 0 00-1.575 1.078zm-9.941-185.011l-3.086 1.662-22.33-11.041 25.333 8.427a1.812 1.812 0 00.083.952zM94.864 60.14l-18.042 6.053a1.87 1.87 0 00-.972-.887l3.116-13.261 16.001 7.288a1.95 1.95 0 00-.103.807zm-5.279-41.57L74.63 27.86 64.389 3.9a1.94 1.94 0 00.504-.45l24.662 13.72a1.875 1.875 0 00.03 1.4zM47.812 255.524l22.301 38.353a2.255 2.255 0 00-.212.197l-29.69-20.046a1.86 1.86 0 00-.6-2.324l8.2-16.18zm66.433 18.054l-17.25 30.373-23.886-8.275a1.878 1.878 0 00-.072-.959l40.823-21.434c.113.118.244.213.385.295zM71.66 297.159a2.18 2.18 0 00.356-.112l13.966 22.494-18.165-17.879 2.748-4.606c.336.139.715.184 1.095.103zm-4.245 4.109l-26.567-26.149 28.748 19.411a1.852 1.852 0 00-.145 1.189c.093.432.326.796.645 1.06l-2.68 4.489zM48.11 254.939l2.697-5.319c.302.101.638.127.972.056.026-.005.049-.014.075-.019l7.769 18.55 9.776 23.344-21.289-36.612zm-.33-.566l-4.137-7.112a1.89 1.89 0 00.573-.774l5.318 1.22a1.88 1.88 0 00.78 1.665l-2.535 5.001zm-4.058-9.959l14.484-22.046c.01.002.016.007.022.012L51.622 246a1.886 1.886 0 00-.617.024 1.87 1.87 0 00-1.352 1.145l-5.318-1.219a1.788 1.788 0 00-.036-.53 1.838 1.838 0 00-.578-1.006zm63.659-66.717l-30.557-.675c-.008-.049-.013-.102-.025-.154a1.994 1.994 0 00-.138-.409l20.657-13.757 10.568 14.002c-.26.269-.439.615-.505.993zM62.734 4.05l-8 34.724a1.86 1.86 0 00-1.696.819l-19.543-9.268L62.247 3.762c.146.123.312.22.487.288zM3.99 16.946l28.539 13.535-6.68 6.17a1.86 1.86 0 00-2.278-.042L3.946 17.013a.267.267 0 01.043-.067zm22.424 21.835c.033-.08.06-.166.08-.25l26.236 2.223a1.854 1.854 0 00.737 1.369l-5.584 8.963-21.469-12.305zM48.07 51.824L73.43 66.36a1.83 1.83 0 00-.123.79l-38.881 8.204a1.879 1.879 0 00-.539-.771l14.182-22.76zm-6.432 57.352l31.249 4.737a1.874 1.874 0 00.487 1.21l-9.547 13.278-30.512-20.23a1.86 1.86 0 00.096-.243l8.227 1.248zm16.965 109.676a1.097 1.097 0 00-.1.025l-17.74-40.778c.234-.146.432-.343.578-.571l28.495 12.876-10.473 28.45a1.82 1.82 0 00-.76-.002zm20.066-82.33a1.854 1.854 0 00-1.11.978l-13.27-8.8 9.513-13.237c.261.152.556.242.864.257l4.003 20.802zm-52.45-99.47l6.84-6.318 19.745 9.361c-.011.034-.016.067-.024.103l-26.24-2.215a2.082 2.082 0 00-.034-.267 1.875 1.875 0 00-.289-.665zM41.31 175.45l20.887-19.716 11.621 20.061a1.861 1.861 0 00-.674 1.144l-.712-.016-30.798-.641c-.008-.049-.014-.102-.025-.148a1.983 1.983 0 00-.299-.684zm21.294-20.101l16.155-15.248c.092.026.185.042.277.053l-3.126 26.753-.994 8.486c-.109.002-.22.014-.329.038a2.133 2.133 0 00-.302.091L62.603 155.35zm-.282-.489l-6.689-11.548c.404-.334.655-.835.672-1.37l9.488-1.064 12.052-1.346c.107.124.233.231.373.323L62.32 154.861zm1.643-25.714l13.428 8.901a1.806 1.806 0 00.129.968l-11.743 1.314-9.535 1.068a1.858 1.858 0 00-.48-.836l8.2-11.415zm10.119 49.742l-4.049 10.999-28.46-12.859c.02-.064.03-.13.043-.199l31.51.657c.008.049.014.102.025.148a1.85 1.85 0 00.93 1.254zm-33.333-3.96l13.255-31.237a1.844 1.844 0 001.157-.093l6.75 11.65-20.98 19.806c-.059-.047-.119-.085-.182-.126zm13.306-34.873c-.13.028-.252.068-.37.122l-20.812-31.409a2.93 2.93 0 00.138-.139l30.495 20.217-8.185 11.39a1.837 1.837 0 00-1.266-.181zm-5.7-88.699l5.591-8.972c.316.116.667.15 1.025.077.193-.041.372-.11.533-.204L73.81 65.75c-.04.043-.08.085-.113.133L48.355 51.357zm27.923 63.567l23.885 11.808-19.428 10.449a1.87 1.87 0 00-1.526-.749l-3.997-20.77a1.86 1.86 0 001.066-.738zm24.485 12.107l26.97 13.338a2.48 2.48 0 00-.055.2l-46.582-2.45a2.418 2.418 0 00-.03-.206 1.463 1.463 0 00-.073-.246l19.77-10.636zm-21.137 13.091c.181-.04.351-.105.508-.186l16.853 22.33-20.632 13.739a1.864 1.864 0 00-.895-.548l4.132-35.326a.072.072 0 01.034-.009zm-4.265 38.958c.213-.046.405-.125.582-.232l17.776 21.38c-.07.087-.135.18-.192.277l-22.995-10.39 4.062-11.036c.247.05.504.056.767.001zm18.073 23.076L60.49 219.574a1.831 1.831 0 00-.61-.531l10.46-28.413 22.989 10.385a1.864 1.864 0 00-.008.794c.028.124.064.238.114.347zM57.66 219.37L7.324 182.673c.14-.265.217-.565.214-.877L38 177.071a1.863 1.863 0 002.165 1.271c.032-.006.066-.016.1-.026l17.74 40.778a1.835 1.835 0 00-.344.276zM7.267 180.852l29.909-24.487 2.12 18.353a1.865 1.865 0 00-1.385 1.811l-30.463 4.725a1.868 1.868 0 00-.181-.402zm30.416-24.897l15.507-12.692c.095.087.2.161.307.226l-13.25 31.231a1.826 1.826 0 00-.406-.057l-2.158-18.708zm-.077-.649l-5.328-46.182c.045-.017.093-.037.138-.059l20.805 31.404a1.86 1.86 0 00-.38 2.368l-15.235 12.469zm-4.44-48.982l16.12-14.935 23.841 21.547a1.787 1.787 0 00-.179.425l-5.933-.901-33.525-5.079a1.875 1.875 0 00-.324-1.057zm16.526-15.31l24.306-22.521c.248.2.55.334.871.385l-.526 43.16a1.85 1.85 0 00-.873.466l-23.778-21.49zm-.407-.367L34.227 77.038c.218-.33.335-.73.308-1.147l38.882-8.203c.054.145.124.281.208.402l-24.34 22.557zm-16.723-16.5l-7.234-34.293c.328-.124.607-.33.815-.594l21.446 12.293-14.174 22.745a1.807 1.807 0 00-.853-.151zM4.318 15.789L61.676 2.986c.05.136.116.264.197.383l-28.914 26.71L4.232 16.454c.07-.21.098-.438.086-.666zm69.844 12.364l-18.15 11.275a1.869 1.869 0 00-.74-.528l8-34.725c.176.014.354.004.533-.033.032-.006.06-.015.086-.02l10.271 24.031zm.216.51l5.32 12.451a1.873 1.873 0 00-.857 1.252l-22.419-2.074c-.001-.011-.005-.026-.004-.04a2.132 2.132 0 00-.111-.357l18.071-11.231zM80.18 44.5l-1.59 6.773-22.21-10.118c.029-.1.047-.202.063-.307l22.38 2.069a1.863 1.863 0 001.358 1.583zm-1.719 7.313l-3.14 13.37a1.868 1.868 0 00-1.066.23L56.006 41.849a1.67 1.67 0 00.15-.198l22.306 10.163zm-3.4 60.209c-.057-.009-.114-.018-.17-.021l.387-31.776.138-11.336c.043-.008.09-.013.133-.02a1.869 1.869 0 001.452-2.152l18-6.04c.143.356.39.651.697.852L75.06 112.02zm30.919 13.924a1.84 1.84 0 00.965-.541l19.492 13.708-25.079-12.4 2.743-1.475a1.86 1.86 0 001.879.708zm21.842 15.785l-30.377 20.228-16.874-22.357c.25-.257.427-.582.496-.937l46.584 2.447a1.81 1.81 0 00.171.619zm.56.692l-18.519 33.84a1.86 1.86 0 00-1.539.11l-10.547-13.975 30.347-20.21c.08.086.165.165.258.235zm-20.351 37.028l-12.169 20.251a1.855 1.855 0 00-1.736.163l-17.765-21.367c.231-.26.389-.58.447-.928l30.556.675c.009.049.014.102.026.154.095.429.328.793.641 1.052zm-39.002 49.351l-8.456-7.141a1.865 1.865 0 00.175-1.601l32.978-17.432c.007.011.017.018.027.032L69.03 228.801zm-.38.397l-16.191 17.126a2.048 2.048 0 00-.308-.173l6.602-23.623c.2.023.41.022.617-.024.326-.067.613-.218.845-.425l8.436 7.119zm.422.356l20.964 17.708a1.937 1.937 0 00-.273.706l-7.823-.079-28.704-.291c-.008-.044-.012-.084-.023-.13a1.843 1.843 0 00-.36-.767l16.219-17.147zm21.576 20.319l-4.69 10.843-32.744-12.459.021-.105 28.873.294 7.652.08c.005.046.013.09.021.139.108.519.436.95.867 1.208zm-4.907 11.343l-13.984 32.316a1.844 1.844 0 00-.865-.023l-.075.02-12.565-30.001-5.899-14.08c.28-.169.503-.404.659-.683l32.729 12.451zm.512.196l27.071 10.301a1.85 1.85 0 00.204 1.125l-40.748 21.394a1.851 1.851 0 00-.52-.485l13.993-32.335zm10.467 43.025l-8.684 15.288a1.833 1.833 0 00-1.365-.112l-14.19-22.857c.185-.155.335-.347.448-.56l23.79 8.241zm-35.45 10.904a1.862 1.862 0 00-.033-.512 1.879 1.879 0 00-.645-1.06l6.938-11.626 18.293 18.005a1.994 1.994 0 00-.319.493l-24.233-5.3zM39.6 274.753c.019-.011.034-.03.054-.041l27.472 27.04-7.003 11.74a1.87 1.87 0 00-1.287-.05l-19.237-38.689zm2.887-27.084a2.08 2.08 0 00.38-.04c.106-.02.205-.057.304-.094l4.313 7.42-8.36 16.498c-.019-.004-.038-.014-.056-.018l3.42-23.766zM31.872 110.39l5.232 45.326-30.183 24.707a1.85 1.85 0 00-.366-.259l25.317-69.774zm1.015-32.532a1.92 1.92 0 00.973-.412l15.02 13.577-16.086 14.905a1.857 1.857 0 00-.833-.381l.926-27.69zm48.259-36.959a1.873 1.873 0 00-.857-.021c-.032.006-.06.015-.086.02l-5.355-12.526 15.028-9.338c.128.152.28.28.447.383L81.146 40.9zm14.172 17.849l-.086.106-16.137-7.35 1.632-6.936a1.88 1.88 0 00.335-.038c.265-.058.504-.169.709-.317l13.547 14.535zm1.517 3.087l8.241 60.496a1.874 1.874 0 00-1.144.946l-27.346-9.096c.04-.228.042-.467-.01-.706a1.863 1.863 0 00-.99-1.28l20.608-50.431c.216.063.443.086.674.07h-.033zM91.507 246.41a1.85 1.85 0 00-1.114.443l-20.949-17.695 24.72-26.145c.187.113.387.195.6.24l-3.257 43.157zm22.151 24.46a2.166 2.166 0 00-.183.311L86.47 260.906l4.683-10.828c.266.067.547.075.832.018.283-.059.532-.183.748-.344l20.925 21.118zm.048 40.267l-24.85 9.379a1.835 1.835 0 00-.37-.479l8.758-15.42 16.385 5.674c-.029.206-.024.418.023.637.011.072.03.141.054.209z" fill="#D5A744"/></svg>