<svg viewBox="0 0 159 365" fill="none" xmlns="http://www.w3.org/2000/svg"><path d="M74.22-21.025l-30.916 8.072a2.237 2.237 0 00-2.176-1.122 2.235 2.235 0 00-.51 4.335L36.52 32.004a2.233 2.233 0 00-1.898 2.44 2.235 2.235 0 003.389 1.68L60.305 63.96a2.233 2.233 0 00.903 3.59l-9.35 51.102c-.085 0-.173.003-.26.007a2.235 2.235 0 00-1.368 3.793l-17.075 22.623a2.22 2.22 0 00-1.301-.26 2.234 2.234 0 00-1.3 3.853L4.185 186.699a2.234 2.234 0 00-3.217 2.232 2.235 2.235 0 003.674 1.473l23.073 20.169a2.235 2.235 0 001.62 3.428l2.187 73.215.334-.011h-.007a2.236 2.236 0 00-1.997 2.454 2.235 2.235 0 003.203 1.783l14.35 19.089a2.234 2.234 0 00-.597 1.758c.067.636.394 1.181.861 1.543l-13.647 24.483a2.235 2.235 0 00-3.016 2.32 2.236 2.236 0 003.846 1.315l27.688 19.483a2.236 2.236 0 104.23 1.079l70.029-8.029a2.234 2.234 0 002.401 1.691 2.235 2.235 0 001.997-2.454 2.234 2.234 0 00-3.339-1.709l-20.943-25.864a2.233 2.233 0 00-1.543-3.744l-4.3-41.824a2.238 2.238 0 00.081-4.314l4.599-32.913a2.235 2.235 0 002.204-2.464 2.242 2.242 0 00-2.088-2.004l39.553-81.15c.285.088.587.123.904.095a2.237 2.237 0 10-1.649-3.955L99.26 103.739a2.228 2.228 0 00-.204-2.742l20.064-24.472c.4.239.879.358 1.378.31a2.236 2.236 0 00.633-4.29l7.08-27.92c.148.014.302.014.453-.004a2.235 2.235 0 001.997-2.454 2.235 2.235 0 00-2.454-1.997c-.077.007-.154.021-.232.035L109.913-8.386a2.234 2.234 0 001.146-2.186 2.234 2.234 0 00-4.218-.78l-28.21-9.38a2.23 2.23 0 00-2.407-2.718 2.233 2.233 0 00-2.004 2.426zM43.28-10.707l18.685 8.771L37.563 32.1a2.356 2.356 0 00-.383-.095l.387-3.924 3.698-37.7a2.21 2.21 0 002.014-1.086zM31.772 211.262l3.892-1.592 25.245 15.992-29.158-13.254c.077-.267.109-.552.077-.843a2.302 2.302 0 00-.056-.303zm2.549 78.218l22.288-4.943a2.24 2.24 0 001.048 1.181l-5.393 15.427-18.168-10.716a2.34 2.34 0 00.225-.949zm1.047 50.258l19.016-9.193 9.19 29.875a2.36 2.36 0 00-.658.475L35.23 341.412a2.25 2.25 0 00.14-1.674zM115.13 62.332l-21.76-48.57a2.86 2.86 0 00.277-.208l32.888 27.664a2.225 2.225 0 00.422 2.848L115.13 62.333zM38.157 32.404L62.573-1.65l27.45 12.888a2.25 2.25 0 00-.085.872c.01.095.028.19.05.281l-51.41 20.414a2.073 2.073 0 00-.422-.4zM91.938 9.652a2.56 2.56 0 00-.44.088L77.68-18.86 97.092 4.766l-3.86 5.147a2.22 2.22 0 00-1.294-.26zm5.583-4.367l28.392 34.551-31.844-26.788c.25-.405.376-.89.323-1.4a2.254 2.254 0 00-.636-1.346l3.765-5.017zm17.181 57.708l-3.889 6.005a2.232 2.232 0 00-1.153-.19l-.091.014-6.926-23.111-8.715-29.084 20.774 46.366zm.323.718l4.036 9.006a2.268 2.268 0 00-.781.851l-6.191-2.127a2.256 2.256 0 00-.72-2.085l3.656-5.645zm3.582 12.392l-20.063 24.472a.07.07 0 01-.025-.018l10.864-27.344c.235.053.485.078.738.05a2.24 2.24 0 001.758-1.196l6.19 2.127a2.15 2.15 0 00-.024.636c.046.496.256.932.562 1.273zm-84.37 71.552l36.369 4.665c.003.06.003.123.01.187.022.175.057.344.113.506l-26.38 13.802-10.84-18.038c.345-.289.602-.679.728-1.122zm31.331 212.797l13.929-40.415a2.228 2.228 0 002.127-.763l22.144 13.525-37.655 28.057a2.04 2.04 0 00-.545-.404zm71.71-7.966l-32.336-19.751 8.747-6.517a2.228 2.228 0 002.714.337l20.935 25.857a.281.281 0 01-.06.074zm-23.993-28.88a2.062 2.062 0 00-.127.288l-31.018-5.966a2.504 2.504 0 00-.007-.324 2.222 2.222 0 00-.7-1.402l7.795-9.988 24.057 17.392zm-24.187-18.295l-28.42-20.545a2.2 2.2 0 00.246-.929l47.421-4.876c.099.38.289.718.545.988l-19.792 25.362zm14.916-67.608l-36.681-9.598a2.24 2.24 0 00-.429-1.504l13.067-14.636 33.845 27.988a2.416 2.416 0 00-.145.277l-9.657-2.527zM97.626 104.72c.04-.004.081-.011.123-.018l16.014 50.888a2.224 2.224 0 00-.763.608l-32.368-18.959 16.087-32.618c.282.092.588.13.907.099zM63.29 200.403a2.222 2.222 0 001.448-1.027l14.72 12.174-13.022 14.59a2.27 2.27 0 00-.998-.415l-2.148-25.322zm50.009 125.291l-8.958 6.672-22.373-13.661c.018-.039.028-.078.042-.12l31.022 5.956c-.004.109-.004.214.007.323.035.302.123.58.26.83zm-.524-167.014l-27.407 20.882-11.331-25.4a2.23 2.23 0 00.95-1.279l.847.109 36.66 4.654c.003.06.003.123.01.18.035.309.134.597.271.854zm-27.942 21.29l-21.198 16.151a2.098 2.098 0 00-.324-.099l7.108-31.52 2.258-9.999a2.112 2.112 0 00.77-.073l11.386 25.54zm.275.619l6.52 14.621a2.236 2.236 0 00-.973 1.551l-11.454.07-14.547.084a2.116 2.116 0 00-.404-.432l20.858-15.894zM79.9 211.058l-14.895-12.315a2.17 2.17 0 00-.032-1.17l14.175-.085 11.51-.07c.063.401.228.763.467 1.058L79.9 211.058zm-5.79-60.619l6.219-12.61 32.329 18.935c-.032.074-.053.151-.077.232l-37.508-4.764c-.003-.059-.003-.123-.01-.179a2.222 2.222 0 00-.953-1.614zm39.265 8.934l-19.757 35.591a2.201 2.201 0 00-1.392-.035l-6.582-14.751 27.531-20.978c.063.064.13.116.2.173zm-20.278 39.922a2.18 2.18 0 00.457-.098l20.862 40.098c-.064.05-.123.095-.183.148l-33.827-27.97 11.204-12.554c.422.288.942.436 1.487.376zm-4.401 106.536l-7.805 9.998a2.23 2.23 0 00-1.212-.221 2.152 2.152 0 00-.661.175l-18.872-30.339c.053-.046.105-.091.151-.144l28.399 20.531zm-25.284-79.36L36.41 209.367l24.496-10.012a2.242 2.242 0 001.727 1.086l2.144 25.284a2.223 2.223 0 00-1.364.746zm-27.681-17.536L5.24 189.617c.035-.077.063-.155.091-.232l55.261 8.806c0 .085.004.166.011.25.01.102.028.204.056.302l-24.928 10.192zM62.6 195.987a2.497 2.497 0 00-.63.158l-17.285-28.768 26.349-13.784c.253.344.597.612.998.766l-9.39 41.621a.09.09 0 01-.042.007zm10.009-45.938c-.26.028-.5.099-.725.204L53.38 122.501c.094-.095.182-.197.263-.306l26.12 15.3-6.24 12.653a2.265 2.265 0 00-.913-.099zm-18.647-29.812l41.501-16.618c.166.285.394.528.661.71L80.06 136.905l-26.113-15.293c.098-.295.144-.615.109-.946a2.115 2.115 0 00-.092-.429zm44.852-16.017l55.416 50.136a2.194 2.194 0 00-.366 1.019l-36.938 1.79a2.235 2.235 0 00-2.422-1.79 2.032 2.032 0 00-.123.018l-16.014-50.888c.166-.081.313-.172.447-.285zm55.254 52.315l-38.773 25.436-.211-22.163a2.238 2.238 0 001.881-1.986l36.938-1.789c.035.176.091.344.165.502zm-39.431 25.861l-20.102 13.183a2.312 2.312 0 00-.337-.309l19.75-35.585c.155.057.31.099.478.12l.211 22.591zm.011.784l.524 55.767A1.632 1.632 0 00115 239l-20.854-40.091a2.233 2.233 0 00.752-2.778l19.751-12.951zm-.89 58.995L92.64 257.956l-25.72-28.715c.11-.151.2-.313.268-.485l6.964 1.824 39.353 10.294a2.254 2.254 0 00.253 1.301zM92.11 258.353L60.27 282.15a2.227 2.227 0 00-.992-.57l6.078-51.422a2.219 2.219 0 001.1-.446l25.654 28.641zm.439.489l16.245 18.137a2.234 2.234 0 00-.513 1.328l-47.421 4.877a2.193 2.193 0 00-.197-.507l31.886-23.835zm17.866 21.796l4.3 41.825a2.232 2.232 0 00-1.048.605l-24.032-17.374 19.782-25.344c.298.172.639.274.998.288zm26.325 73.187l-70.045 8.03a2.093 2.093 0 00-.186-.482l37.866-28.212 32.551 19.88c-.109.243-.172.51-.186.784zm-81.762-23.572l23.076-11.158c.208.306.492.556.816.724l-13.929 40.415a2.275 2.275 0 00-.64-.028c-.038.004-.073.011-.105.014l-9.218-29.967zm-.193-.636l-4.774-15.525a2.247 2.247 0 001.18-1.385l26.484 5.305c0 .014.003.032 0 .049.017.152.045.299.087.44l-22.977 11.116zm-4.922-19.624l2.753-7.878 25.217 14.874a3.058 3.058 0 00-.113.359l-26.437-5.295a2.236 2.236 0 00-1.42-2.06zm2.974-8.507l5.435-15.553a2.245 2.245 0 001.301-.141l18.794 30.417c-.074.067-.14.14-.204.218l-25.326-14.941zM64.5 230.088c.067.018.134.035.2.046l-4.475 37.859-1.596 13.507c-.052.003-.109.003-.161.007a2.241 2.241 0 00-2.004 2.383l-22.236 4.933a2.2 2.2 0 00-.724-1.104L64.5 230.088zm-35.127-20.517a2.208 2.208 0 00-1.22.524L6.63 191.28l28.353 17.961-3.46 1.413a2.23 2.23 0 00-2.151-1.083zM5.308 187.982l38.794-20.295 17.307 28.803c-.33.274-.583.64-.71 1.055l-55.265-8.803a2.115 2.115 0 00-.127-.76zm-.58-.896l26.366-38.032a2.234 2.234 0 001.85.064l10.817 18.003-38.756 20.278a2.33 2.33 0 00-.277-.313zm28.954-41.603l17.075-22.623a2.236 2.236 0 002.092.024l18.495 27.735c-.31.281-.538.643-.65 1.051l-36.369-4.665c-.003-.06-.003-.123-.01-.187a2.272 2.272 0 00-.633-1.335zm52.761-53.95l9.187 9.587a2.236 2.236 0 00-.412 1.888L53.675 119.64c-.007-.014-.018-.025-.028-.043l32.797-28.064zm.503-.426l21.48-18.386c.106.091.222.172.345.246l-10.86 27.348a2.24 2.24 0 00-.738-.05c-.397.039-.76.183-1.062.401l-9.165-9.559zm-.457-.478L63.715 66.857c.19-.24.33-.513.415-.809l9.324 1.083 34.206 3.973c.003.052.003.102.01.158.036.352.155.675.334.96L86.489 90.629zM63.315 63.665l6.964-12.343 37.49 18.998-.039.123-34.407-3.997-9.119-1.062a2.49 2.49 0 00-.007-.169 2.225 2.225 0 00-.882-1.55zm7.287-12.913l20.763-36.787c.32.123.668.176 1.03.137.032-.003.06-.01.092-.014l11.2 37.378 5.26 17.542a2.205 2.205 0 00-.872.732L70.602 50.752zm-.587-.299L39.022 34.746c.06-.243.08-.496.053-.756a2.232 2.232 0 00-.155-.612l51.313-20.376c.144.25.334.468.56.643L70.014 50.453zM62.963-2.196l12.29-17.142a2.197 2.197 0 001.614.306l14.041 29.06a2.278 2.278 0 00-.604.612L62.963-2.196zm43.667-8.532a2.245 2.245 0 00-.025.615c.056.528.288.992.637 1.347L97.496 4.227l-19.55-23.79c.173-.158.324-.344.443-.548l28.241 9.383zm20.728 51.159c-.025.01-.046.031-.071.042L97.929 4.744l9.836-13.12a2.244 2.244 0 001.53.221l18.063 48.585zm-6.866 31.945a2.491 2.491 0 00-.457 0c-.13.011-.253.043-.376.074l-4.209-9.397 12.059-18.625c.021.007.042.02.063.028l-7.08 27.92zm-4.676 165.112l-.517-54.733 39.128-25.664c.12.133.254.253.405.355l-39.016 80.042zm-5.319 38.682a2.289 2.289 0 00-1.213.369l-16.203-18.094 21.072-15.75c.26.26.587.453.946.559l-4.602 32.916zm-62.24 37.996c.317.12.661.169 1.02.134.039-.004.074-.011.105-.014l4.806 15.619-19.107 9.243a2.238 2.238 0 00-.485-.513l13.661-24.469zm-14.652-23.083l.116-.116 18.323 10.807-2.823 8.068c-.13-.01-.264-.01-.405.004a2.27 2.27 0 00-.886.288l-14.325-19.051zm-1.42-3.874l-2.19-73.212a2.243 2.243 0 001.483-.984l31.474 14.305a2.18 2.18 0 00-.077.844 2.235 2.235 0 001.02 1.652l-30.955 57.56a2.336 2.336 0 00-.794-.169l.038.004zM61.851 67.687a2.213 2.213 0 001.385-.387l22.756 23.755L53.2 119.123a2.298 2.298 0 00-.685-.362l9.337-51.074zM38.516 35.709a2.48 2.48 0 00.257-.348L69.692 51.03l-6.954 12.325a2.28 2.28 0 00-.991-.126 2.274 2.274 0 00-.935.316L38.516 35.71zm5.027-48.044l30.831-8.05c.096.228.222.44.38.619L62.358-2.476l-18.828-8.84c.06-.243.08-.496.053-.763a1.256 1.256 0 00-.039-.257z" fill="#D5A744"/></svg>