<svg viewBox="0 0 66 162" fill="none" xmlns="http://www.w3.org/2000/svg"><path d="M28.952 1.216L16.182 4.89a.93.93 0 10-1.084 1.363l-1.276 17.398a.93.93 0 10.662 1.698l9.555 11.344a.93.93 0 00.413 1.483l-3.364 21.342a.93.93 0 00-.638 1.597l-6.866 9.58a.93.93 0 00-1.045 1.52L1.967 88.3a.929.929 0 00-1.314.96.93.93 0 001.542.576l9.8 8.148a.93.93 0 00.709 1.409l1.66 30.417.14-.008H14.5a.93.93 0 10.544 1.749l6.163 7.79a.928.928 0 00.143 1.369l-5.423 10.319a.93.93 0 10.382 1.503l11.713 7.816a.93.93 0 101.77.406l29.032-4.058a.93.93 0 10.415-1.038l-8.973-10.538a.927.927 0 00-.68-1.541l-2.217-17.345a.93.93 0 00-.01-1.794l1.574-13.731a.929.929 0 00.002-1.859l15.612-34.145a.93.93 0 10-.35-1.597L40.644 52.83a.928.928 0 00-.113-1.138l8.09-10.38a.93.93 0 10.795-1.675l2.658-11.681a.93.93 0 10-.143-1.835L43.92 6.105a.93.93 0 10-1.307-1.202L30.79 1.293A.926.926 0 0029.76.186a.929.929 0 00-.808 1.03zM16.194 5.824l7.859 3.455-9.796 14.4a.979.979 0 00-.16-.035l.12-1.635 1.15-15.713a.92.92 0 00.826-.472zM13.69 98.228l1.601-.702 10.66 6.39-12.258-5.211a.908.908 0 00-.003-.477zm1.862 32.494l9.216-2.284a.934.934 0 00.448.48l-2.084 6.469-7.663-4.268a.976.976 0 00.083-.397zm.952 20.884l7.811-4.017 4.128 12.327a.951.951 0 00-.269.204l-11.711-7.816a.938.938 0 00.04-.698zM46.817 35.453l-9.546-19.97c.04-.028.077-.058.113-.09l13.958 11.165a.923.923 0 00.204 1.18l-4.73 7.715zM14.507 23.8L24.31 9.391l11.544 5.077a.936.936 0 00-.002.48l-21.164 9.015a.864.864 0 00-.18-.163zm22.127-10.01a1.066 1.066 0 00-.182.04l-6.04-11.748 8.314 9.623-1.552 2.18a.923.923 0 00-.54-.095zm2.276-1.873L51.069 25.99 37.554 15.179a.923.923 0 00-.158-1.139l1.514-2.124zm7.735 23.816L45.09 38.27a.929.929 0 00-.481-.067l-.038.007-3.116-9.538-3.922-12.003 9.112 19.064zm.142.295l1.77 3.704a.942.942 0 00-.315.361l-2.596-.82a.937.937 0 00-.321-.86l1.462-2.385zm1.617 5.116l-8.09 10.38c-.005-.001-.008-.004-.011-.007l4.236-11.48a.931.931 0 001.026-.502l2.596.82a.89.89 0 00-.004.265.917.917 0 00.247.524zM14.06 71.757l15.169 1.567.006.077c.01.073.027.143.052.21l-10.826 6.008-4.692-7.388a.948.948 0 00.291-.474zm15.21 88.151l5.377-16.945a.932.932 0 00.876-.339l9.346 5.395-15.367 12.052a.866.866 0 00-.231-.163zm29.734-4.048l-13.647-7.879 3.57-2.8a.93.93 0 001.131.113l8.97 10.535c-.007.013-.016.022-.024.031zM48.73 144.099a.905.905 0 00-.05.121l-12.956-2.162a.925.925 0 00-.312-.71l3.138-4.233 10.18 6.984zm-10.244-7.358l-12.026-8.25a.91.91 0 00.093-.388l19.665-2.514a.937.937 0 00.237.405l-7.969 10.747zm5.508-28.262l-15.349-3.613a.93.93 0 00-.194-.621l5.283-6.22 14.358 11.289a.975.975 0 00-.057.117l-4.04-.952zm-4.02-55.223l.05-.009 7.18 20.993a.924.924 0 00-.31.26l-13.652-7.55 6.353-13.726a.923.923 0 00.378.032zM26.68 93.389a.924.924 0 00.591-.441l6.245 4.91-5.264 6.2a.937.937 0 00-.42-.162L26.68 93.389zm22.078 51.578l-3.656 2.866-9.442-5.45c.007-.016.01-.032.016-.05l12.959 2.158a.933.933 0 00.123.476zm-1.932-69.432l-11.181 8.963-4.972-10.444a.93.93 0 00.382-.541l.353.036 15.29 1.56c.002.024.003.05.006.074a.993.993 0 00.122.352zm-11.399 9.138l-8.648 6.933a.893.893 0 00-.135-.038l2.631-13.178.836-4.18a.898.898 0 00.32-.038l4.996 10.501zm.12.255l2.862 6.012a.93.93 0 00-.39.654l-4.76.147-6.048.185a.895.895 0 00-.172-.176l8.508-6.822zm-1.852 12.721l-6.319-4.967a.905.905 0 00-.025-.486l5.892-.181 4.785-.147c.03.166.103.315.205.435l-4.538 5.346zm-3.03-25.143l2.457-5.307 13.636 7.54c-.013.031-.02.064-.03.098L31.086 73.24c-.002-.025-.003-.05-.006-.074a.923.923 0 00-.413-.661zm16.418 3.31l-7.85 15.001a.92.92 0 00-.579 0l-2.887-6.066 11.23-9.004c.027.026.056.047.086.07zm-8.021 16.807a.915.915 0 00.189-.046l9.085 16.458c-.026.021-.05.04-.075.063l-14.35-11.281 4.529-5.335a.916.916 0 00.622.141zm-.737 44.339l-3.142 4.237a.928.928 0 00-.78 0l-8.157-12.42c.021-.02.043-.039.061-.062l12.018 8.245zM27 104.226l-11.403-6.833 10.082-4.415c.157.25.427.416.729.434l1.151 10.49a.93.93 0 00-.56.324zM15.31 97.22L2.437 89.5c.013-.032.024-.065.035-.097l23.066 3.094a.729.729 0 00.033.229L15.31 97.22zm11.039-5.66a1.025 1.025 0 00-.26.073L18.607 79.85l10.813-6.002c.11.141.255.249.423.309l-3.477 17.4c-.005.004-.011.004-.017.004zm3.69-19.201a.94.94 0 00-.3.092l-7.978-11.348a1.15 1.15 0 00.106-.13l11.017 6.093-2.464 5.324a.943.943 0 00-.381-.031zM21.98 60.156l17.084-7.335c.072.116.17.215.282.288l-6.345 13.708-11.014-6.09a.93.93 0 00-.007-.571zm18.483-7.12l23.555 20.276a.915.915 0 00-.142.427l-15.339 1.123a.93.93 0 00-1.076-.71l-7.18-20.993a.89.89 0 00.182-.123zm23.51 21.183l-15.86 10.973-.315-9.212a.93.93 0 00.762-.845l15.339-1.123a.922.922 0 00.074.207zM47.845 85.376l-8.223 5.687a.963.963 0 00-.143-.125l7.846-14.997c.065.022.13.038.2.045l.32 9.39zm.012.326l.79 23.18a.974.974 0 00-.07.024l-9.083-16.454a.928.928 0 00.285-1.163l8.078-5.587zm.236 24.537l-8.618 6.778-10.988-11.675a.908.908 0 00.106-.204l2.914.687 16.467 3.875a.931.931 0 00.119.539zm-8.835 6.948l-12.994 10.221a.93.93 0 00-.418-.227l2-21.441a.93.93 0 00.453-.197l10.96 11.644zm.188.199l6.94 7.374a.93.93 0 00-.2.557l-19.665 2.515a.912.912 0 00-.088-.209l13.013-10.237zm7.652 8.879l2.217 17.345a.93.93 0 00-.43.262l-10.17-6.977 7.965-10.74a.906.906 0 00.418.11zm11.696 30.158l-29.04 4.057a.862.862 0 00-.082-.198l15.454-12.119 13.737 7.932a.912.912 0 00-.07.328zm-34.236-8.961l9.48-4.876c.09.125.21.225.347.292l-5.376 16.946a.949.949 0 00-.267-.005l-.044.007-4.14-12.364zm-.087-.263l-2.144-6.405a.937.937 0 00.477-.588l11.065 1.933c0 .006.002.013 0 .021.01.062.023.124.042.182l-9.44 4.857zm-2.247-8.108l1.063-3.304 10.637 5.925a1.248 1.248 0 00-.043.151l-11.046-1.93a.928.928 0 00-.612-.842zm1.149-3.568l2.1-6.522a.932.932 0 00.54-.072l8.126 12.453a.857.857 0 00-.083.093l-10.683-5.952zm4.115-29.804a.833.833 0 00.084.017L26.1 121.522l-.525 5.632-.067.005a.932.932 0 00-.809 1.011l-9.194 2.279a.914.914 0 00-.312-.451l12.295-24.279zm-14.815-8.17a.919.919 0 00-.502.23l-9.14-7.6 11.971 7.176-1.423.623a.927.927 0 00-.906-.428zM2.447 88.822l15.92-8.837 7.492 11.798a.923.923 0 00-.285.446L2.507 89.135a.88.88 0 00-.06-.314zm-.25-.367l10.571-16.083a.929.929 0 00.77.008l4.682 7.374L2.315 88.58a.978.978 0 00-.119-.127zm11.61-17.594l6.867-9.581a.928.928 0 00.87-.011l7.974 11.34a.924.924 0 00-.26.444L14.09 71.486c-.002-.025-.002-.051-.006-.077a.945.945 0 00-.277-.55zM35.19 47.888l3.917 3.892a.93.93 0 00-.151.789L21.854 59.91c-.003-.006-.007-.01-.012-.017L35.19 47.888zm.204-.182l8.742-7.865c.045.037.094.07.146.099l-4.234 11.482a.933.933 0 00-.308-.013.902.902 0 00-.437.177l-3.909-3.88zm-.195-.194l-9.712-9.65a.968.968 0 00.164-.34l3.887.354 14.263 1.3c.002.023.002.043.006.066a.917.917 0 00.149.396l-8.757 7.874zm-9.911-10.973l2.768-5.203 15.782 7.514-.015.051-14.346-1.309-3.802-.347c0-.024-.003-.046-.005-.07a.926.926 0 00-.383-.636zm2.897-5.443l8.255-15.508c.134.048.28.066.43.046.013-.001.024-.005.037-.006l5.04 15.425 2.367 7.24a.92.92 0 00-.355.312l-15.774-7.51zm-.247-.119L14.89 24.765a.902.902 0 00-.057-.567l21.125-8.999a.924.924 0 00.24.262l-8.261 15.516zM24.465 9.16L29.4 1.907a.914.914 0 00.674.111l6.136 11.938a.946.946 0 00-.245.26l-11.5-5.056zm18.068-3.995a.937.937 0 00.274.81l-3.918 5.501-8.373-9.69a.993.993 0 00.179-.232l11.838 3.61zm9.142 21.057c-.01.004-.018.013-.028.018L39.074 11.687l3.955-5.556a.932.932 0 00.638.076l8.008 20.015zM49.15 39.574a1.029 1.029 0 00-.19.005c-.054.005-.105.02-.156.034l-1.846-3.863 4.822-7.868.027.011-2.657 11.681zm-.25 68.695l-.776-22.75 16.005-11.072a.906.906 0 00.171.143l-15.4 33.68zm-1.814 16.137a.946.946 0 00-.5.166l-6.922-7.357 8.599-6.764c.11.105.249.182.399.223l-1.576 13.732zM21.6 140.842a.918.918 0 00.425.045l.044-.007 2.158 6.445-7.85 4.039a.925.925 0 00-.206-.209l5.429-10.313zm-6.33-9.446l.048-.05 7.729 4.305-1.091 3.384a.956.956 0 00-.168.005.955.955 0 00-.366.129l-6.151-7.773zm-.63-1.597l-1.662-30.416a.934.934 0 00.607-.424l13.233 5.624a.929.929 0 00.417 1.028l-12.28 24.249a.999.999 0 00-.332-.062l.016.001zm10.082-91.573a.921.921 0 00.572-.175l9.705 9.643L21.652 59.7a.954.954 0 00-.29-.143l3.359-21.33zM14.69 25.171c.037-.047.073-.096.102-.148l13.016 6.198-2.764 5.195a.948.948 0 00-.414-.042.945.945 0 00-.385.141L14.69 25.171zm1.596-20.027l12.736-3.663c.042.094.097.18.164.253L24.211 9.05l-7.92-3.482a.916.916 0 00-.004-.424z" fill="#fff"/></svg>