<svg viewBox="0 0 168 414" fill="none" xmlns="http://www.w3.org/2000/svg"><path d="M92.909 411.198l32.758-9.155a2.38 2.38 0 002.337 1.154 2.38 2.38 0 00.463-4.623l3.602-44.505a2.377 2.377 0 001.976-2.631 2.38 2.38 0 00-3.638-1.727l-24.238-29.221a2.377 2.377 0 00-1.027-3.804l9.021-54.561c.089-.002.183-.007.276-.013a2.379 2.379 0 002.081-2.648 2.385 2.385 0 00-.694-1.414l17.761-24.39c.412.214.889.314 1.389.253a2.38 2.38 0 001.314-4.125l27.37-40.959a2.38 2.38 0 003.383-2.435 2.38 2.38 0 00-3.937-1.501l-24.925-21.046a2.376 2.376 0 00-1.788-3.618l-3.663-77.887-.355.017h.008a2.38 2.38 0 002.08-2.648 2.38 2.38 0 00-3.441-1.839L115.4 57.816a2.38 2.38 0 00.604-1.882 2.39 2.39 0 00-.945-1.627L129.138 28a2.38 2.38 0 003.168-2.525 2.38 2.38 0 00-2.648-2.08 2.414 2.414 0 00-1.47.751L98.363 3.914a2.38 2.38 0 10-4.521-1.072l-74.39 9.824a2.376 2.376 0 00-2.587-1.756 2.38 2.38 0 00-2.08 2.649 2.38 2.38 0 003.585 1.757l22.762 27.147a2.378 2.378 0 001.71 3.957l5.34 44.437a2.382 2.382 0 00-.008 4.593l-4.293 35.115a2.38 2.38 0 00-2.301 2.663 2.386 2.386 0 002.259 2.095l-40.62 87.093a2.492 2.492 0 00-.963-.084 2.379 2.379 0 00-2.08 2.648 2.379 2.379 0 002.648 2.08 2.401 2.401 0 001.26-.549l59.896 52.351a2.374 2.374 0 00.267 2.915L43.34 308.19a2.402 2.402 0 00-1.472-.305 2.38 2.38 0 00-2.08 2.649 2.369 2.369 0 001.484 1.928l-7.026 29.847a2.233 2.233 0 00-.483.012 2.379 2.379 0 00-2.08 2.648 2.379 2.379 0 002.648 2.08c.082-.009.164-.025.246-.041l20.112 51.389a2.38 2.38 0 103.324 3.103l30.195 9.468a2.38 2.38 0 002.613 2.849 2.378 2.378 0 002.089-2.619zm32.743-11.546l-20.047-8.995 25.351-36.67c.135.043.267.074.409.094l-.34 4.183-3.249 40.195a2.351 2.351 0 00-2.124 1.193zm8.198-236.464l-4.113 1.766-27.162-16.561 31.277 13.575a2.307 2.307 0 00-.002 1.22zm-4.139-83.205l-23.633 5.668a2.387 2.387 0 00-1.137-1.239l5.459-16.517 19.533 11.074a2.478 2.478 0 00-.222 1.014zm-2.032-53.474l-20.072 10.132-10.326-31.63c.26-.132.496-.308.691-.517l29.826 20.232a2.39 2.39 0 00-.119 1.783zM47.845 323.223l24.048 51.299a2.89 2.89 0 00-.292.226l-35.51-28.844a2.37 2.37 0 00-.501-3.023l12.255-19.658zm82.473 30.449l-25.366 36.693-29.451-13.217c.085-.294.11-.608.074-.93a2.68 2.68 0 00-.058-.298l54.344-22.666c.13.162.286.298.457.418zM73.491 378.87c.16-.021.317-.054.466-.101l15.23 30.187-21.093-24.791 4.015-5.548a2.36 2.36 0 001.382.253zm-5.863 4.75L36.78 347.363l34.382 27.932a2.361 2.361 0 00-.319 1.495 2.4 2.4 0 00.702 1.421l-3.916 5.409zM48.29 322.511l4.03-6.462a2.37 2.37 0 001.23.181c.034-.004.063-.012.097-.016l7.793 24.472 9.807 30.797-22.957-48.972zm-.357-.757l-4.46-9.513a2.42 2.42 0 00.815-.92l6.628 2.151a2.4 2.4 0 00.805 2.206l-3.788 6.076zm-4.039-13.125l20.908-26.412c.011.003.02.011.027.018l-11.064 29.302a2.373 2.373 0 00-2.636 1.265l-6.628-2.151c.038-.221.045-.45.015-.677a2.349 2.349 0 00-.622-1.345zm88.494-77.696l-38.794-4.302c-.005-.063-.006-.131-.014-.198a2.585 2.585 0 00-.13-.537l27.827-15.171 11.866 19.001a2.436 2.436 0 00-.755 1.207zM95.159 5.013L81.07 48.283a2.376 2.376 0 00-2.25.85l-23.816-13.99L94.57 4.593c.172.173.373.316.588.42zM18.979 14.8l34.777 20.432-9.19 7.097a2.375 2.375 0 00-2.895-.31L18.916 14.88a.343.343 0 01.063-.08zm26.064 30.302c.051-.098.094-.204.13-.31l33.123 5.785c-.002.116 0 .228.013.344.074.594.356 1.11.77 1.48l-8.113 10.773-25.923-18.072zm26.078 19.03l30.623 21.35c-.152.302-.236.64-.245.992l-50.384 6.055a2.4 2.4 0 00-.598-1.042l20.604-27.354zm-14.643 72.232l39.217 9.546c-.01.138-.01.284.01.43.053.441.225.834.474 1.163l-13.642 15.816-36.533-29.171a2.38 2.38 0 00.149-.299l10.325 2.515zm9.224 141.424a2.458 2.458 0 00-.13.021l-17.973-53.87c.316-.159.589-.388.801-.662l34.797 19.59-16.528 35.01a2.353 2.353 0 00-.967-.089zm34.801-102.467c-.66.15-1.203.567-1.523 1.119l-15.889-12.689 13.594-15.766c.314.223.68.37 1.07.423l2.748 26.913zM44.99 42.879l9.413-7.265 24.062 14.133c-.018.041-.029.082-.043.127l-33.126-5.772c.002-.116 0-.228-.014-.344a2.395 2.395 0 00-.292-.879zm3.604 177.753l28.79-22.727 12.524 26.828a2.38 2.38 0 00-.987 1.38l-.904-.101-39.104-4.285c-.005-.064-.006-.131-.015-.191a2.532 2.532 0 00-.304-.904zm29.352-23.17l22.268-17.577c.113.043.23.075.346.099l-6.99 33.679-2.22 10.682a2.398 2.398 0 00-.423.011 2.948 2.948 0 00-.396.082l-12.585-26.976zm-.303-.654l-7.208-15.443a2.38 2.38 0 001.008-1.668l12.19-.284 15.482-.355c.123.17.271.321.438.453l-21.91 17.297zm4.986-32.525l16.078 12.836a2.308 2.308 0 00.055 1.245l-15.085.349-12.25.284a2.374 2.374 0 00-.517-1.117l11.719-13.597zm7.268 64.414l-6.39 13.535-34.754-19.563c.032-.079.053-.162.078-.249l40.008 4.386c.005.064.006.131.015.191a2.362 2.362 0 001.043 1.7zm-41.955-8.791l20.38-38.243a2.358 2.358 0 001.482.012l7.274 15.581-28.92 22.829a2.33 2.33 0 00-.216-.179zm20.854-42.862a2.313 2.313 0 00-.484.113l-22.935-42.299c.066-.053.129-.103.191-.16l36.514 29.153-11.696 13.566a2.342 2.342 0 00-1.59-.373zm2.742-113.472l8.124-10.784a2.38 2.38 0 001.295.213c.25-.03.485-.098.7-.199l20.64 31.948c-.055.05-.111.099-.158.156L71.538 63.572zm28.359 84.006l29.052 17.711-25.89 11.104a2.385 2.385 0 00-1.857-1.125l-2.744-26.872a2.362 2.362 0 001.439-.818zm29.782 18.159l32.805 20.005c-.036.083-.064.166-.093.249l-58.978-8.365a1.967 1.967 0 00-.081-.587l26.347-11.302zm-28.362 14.271c.235-.03.459-.094.667-.179l18.923 30.303-27.793 15.153a2.385 2.385 0 00-1.077-.798l9.235-44.47c.015-.008.03-.008.045-.009zm-9.815 49.077c.276-.035.53-.114.767-.23l20.203 29.2a3.006 3.006 0 00-.275.33l-28.08-15.807 6.41-13.581c.309.092.635.128.975.088zm20.39 31.39L68.023 278.92a2.35 2.35 0 00-.716-.744l16.506-34.964 28.073 15.8a2.394 2.394 0 00-.099 1.009c.022.16.054.309.105.454zm-47.445 17.866L4.55 225.99c.208-.321.34-.694.37-1.091l39.283-2.579a2.38 2.38 0 002.741 1.84l17.972 53.87c-.174.089-.33.189-.47.311zM4.681 223.667l40.805-27.779.628 23.585a2.383 2.383 0 00-1.965 2.148l-39.283 2.578a2.369 2.369 0 00-.185-.532zm41.497-28.244l21.155-14.398c.11.122.236.228.365.323l-20.373 38.235a2.343 2.343 0 00-.51-.119l-.637-24.041zm-.026-.834l-1.575-59.346c.06-.016.123-.036.183-.06l22.927 42.291a2.377 2.377 0 00-.75 2.97l-20.785 14.145zm-.13-62.807l22.19-17.182 27.899 30.094a2.293 2.293 0 00-.276.521L88.39 143.4l-42.073-10.238a2.248 2.248 0 00-.009-.502 2.378 2.378 0 00-.284-.878zm22.748-17.615l33.455-25.909c.293.283.663.487 1.066.588l-5.532 54.842c-.44.06-.838.236-1.163.496L68.77 114.167zm-.477-.512L50.672 94.647a2.38 2.38 0 00.522-1.423l50.385-6.055c.051.19.126.372.218.535l-33.503 25.951zM48.881 90.782l-5.34-44.438c.433-.12.81-.35 1.104-.663l25.896 18.054L49.948 91.07a2.308 2.308 0 00-1.068-.288zM19.526 13.365l74.405-9.824c.048.179.118.35.207.51L54.351 34.768 19.343 14.203c.111-.26.174-.546.184-.838zm87.453 23.597L82.622 49.26a2.387 2.387 0 00-.881-.756l14.088-43.27c.221.037.45.045.681.018.041-.004.079-.012.112-.017l10.358 31.727zm.217.674l5.365 16.437a2.393 2.393 0 00-1.232 1.496l-28.284-5.164c0-.015-.004-.033 0-.052a2.724 2.724 0 00-.102-.466l24.253-12.25zm5.597 20.797l-2.786 8.436-27.111-15.372c.046-.124.081-.252.113-.384l28.235 5.153a2.378 2.378 0 001.549 2.167zm-3.011 9.11l-5.501 16.652a2.394 2.394 0 00-1.382.173l-20.558-32.03c.077-.073.147-.153.213-.236l27.228 15.44zm-11.109 76.205a2.045 2.045 0 00-.214-.045l4.073-40.378 1.452-14.405c.056-.004.116-.005.172-.01a2.386 2.386 0 002.09-2.574l23.577-5.655c.142.47.423.872.791 1.162l-31.94 61.905zm37.763 21.196a2.356 2.356 0 001.289-.58l23.25 19.634-30.505-18.6 3.656-1.567a2.374 2.374 0 002.31 1.113zm26.006 22.539l-40.92 22.309-18.947-30.34c.347-.298.61-.692.737-1.136l58.982 8.361a2.283 2.283 0 00.148.806zm.634.944l-27.37 40.96a2.374 2.374 0 00-1.969-.034l-11.842-18.964 40.88-22.29c.091.118.191.229.301.328zm-30.059 44.809l-17.761 24.39a2.374 2.374 0 00-2.227.012l-20.191-29.182c.324-.305.56-.695.673-1.131l38.794 4.302c.005.064.006.131.014.198.074.557.329 1.046.698 1.411zM77.845 291.62l-9.952-10.037a2.38 2.38 0 00.403-2.016l43.914-18.461c.008.015.019.026.031.045L77.845 291.62zm-.527.462l-22.527 19.961a2.597 2.597 0 00-.371-.255l11.06-29.306a2.4 2.4 0 00.786.039 2.32 2.32 0 001.123-.446l9.93 10.007zm.495.5l24.673 24.887a2.497 2.497 0 00-.427.868l-9.942-.982-36.48-3.605c-.005-.056-.006-.108-.015-.168a2.35 2.35 0 00-.373-1.015l22.564-19.985zm25.158 28.277l-7.187 13.265-40.25-19.537c.015-.045.025-.087.04-.132l36.693 3.627 9.726.964c.001.06.006.116.011.179.078.673.448 1.258.967 1.634zm-7.521 13.877l-21.428 39.533a2.342 2.342 0 00-1.1-.127c-.033.004-.063.012-.096.016L60.223 334.58l-5.918-18.576c.375-.182.685-.457.915-.794l40.23 19.526zm.63.307l33.274 16.153a2.363 2.363 0 00.134 1.454l-54.244 22.623a2.375 2.375 0 00-.606-.674l21.442-39.556zm8.467 55.909l-12.77 18.469a2.339 2.339 0 00-1.722-.296L74.58 378.451c.252-.176.465-.404.633-.662l29.334 13.163zm-46.322 9.878c.034-.211.042-.432.015-.656a2.397 2.397 0 00-.702-1.421l10.136-14.008 21.242 24.965a2.56 2.56 0 00-.462.591l-30.229-9.471zM35.23 346.757c.026-.012.049-.035.075-.046l31.9 37.492-10.231 14.144a2.385 2.385 0 00-1.632-.208L35.23 346.757zm6.725-34.127c.158.012.323.009.487-.008.138-.014.269-.05.399-.086l4.65 9.925-12.494 20.044c-.023-.007-.046-.021-.068-.028l7.026-29.847zm1.965-175.823l1.549 58.247L4.29 223.083a2.321 2.321 0 00-.437-.371l40.066-85.905zm4.956-41.268c.075-.001.146-.006.22-.015a2.45 2.45 0 001.064-.4l17.576 18.964-22.14 17.147a2.378 2.378 0 00-1.018-.578l4.298-35.118zm65.552-41.577a2.396 2.396 0 00-1.088-.123c-.041.004-.078.012-.112.017l-5.4-16.538 20.168-10.185c.146.207.325.387.526.537l-14.094 26.292zm16.017 24.302l-.122.125-19.699-11.168 2.857-8.639c.139.01.281.007.431-.01.343-.044.659-.158.937-.324l15.596 20.016zm1.582 4.097l3.667 77.883a2.392 2.392 0 00-1.561 1.075l-33.762-14.651c.078-.286.106-.59.067-.9a2.379 2.379 0 00-1.115-1.74l31.897-61.829c.267.104.552.16.848.165l-.041-.003zm-27.573 234.191a2.35 2.35 0 00-1.467.437L78.333 292.12l34.392-30.472c.223.164.469.291.736.373l-9.007 54.531zm25.422 33.61a2.527 2.527 0 00-.267.375l-33.195-16.113 7.176-13.246a2.43 2.43 0 001.058.117c.366-.044.697-.173.989-.354l24.239 29.221zm-4.475 51.227l-32.668 9.131a2.357 2.357 0 00-.416-.652l12.878-18.628 20.203 9.063c-.06.26-.077.53-.043.813.006.094.022.183.046.273z" fill="#fff"/></svg>