<svg viewBox="0 0 108 183" fill="none" xmlns="http://www.w3.org/2000/svg"><path d="M47.252-80.604l-20.946 6.025a1.526 1.526 0 10-1.777 2.236l-2.093 28.534a1.525 1.525 0 101.086 2.785l15.672 18.606a1.523 1.523 0 00.677 2.432l-5.517 35.004a4.429 4.429 0 00-.177.01 1.525 1.525 0 00-.869 2.61L22.046 33.35a1.525 1.525 0 00-1.713 2.494L2.992 62.222A1.524 1.524 0 00.837 63.8a1.525 1.525 0 002.53.942L19.44 78.106a1.524 1.524 0 001.163 2.31l2.723 49.889.228-.013h-.005a1.525 1.525 0 00-1.32 1.707 1.524 1.524 0 002.214 1.161l10.107 12.776a1.525 1.525 0 00-.378 1.209c.056.432.288.798.613 1.037l-8.894 16.925a1.525 1.525 0 10-.31 2.953c.375-.05.701-.231.937-.488l19.209 12.819a1.525 1.525 0 102.902.665l47.618-6.655c.196.725.9 1.214 1.666 1.113a1.525 1.525 0 001.32-1.707 1.524 1.524 0 00-2.306-1.109l-14.716-17.284a1.523 1.523 0 00-1.115-2.527l-3.636-28.448a1.526 1.526 0 00-.018-2.942l2.582-22.521a1.525 1.525 0 00.004-3.049l25.605-56.002a1.524 1.524 0 001.938-1.657 1.525 1.525 0 00-2.511-.962L66.428 4.05a1.522 1.522 0 00-.185-1.866L79.512-14.84a1.525 1.525 0 101.304-2.748l4.358-19.158a1.525 1.525 0 001.63-1.717 1.525 1.525 0 00-1.707-1.32c-.053.006-.105.017-.158.027l-13.135-32.83a1.524 1.524 0 10-2.145-1.972l-19.394-5.921a1.522 1.522 0 00-1.688-1.813 1.523 1.523 0 00-1.325 1.688zm-20.925 7.557l12.89 5.667L23.15-43.762a1.602 1.602 0 00-.263-.058l.197-2.682 1.888-25.77a1.508 1.508 0 001.355-.775zm-4.11 151.555l2.628-1.152 17.484 10.48-20.106-8.547a1.488 1.488 0 00-.005-.781zm3.056 53.293l15.115-3.745c.143.346.407.625.734.787l-3.417 10.61-12.57-7.001a1.6 1.6 0 00.138-.651zm1.56 34.254l12.812-6.589 6.77 20.217a1.58 1.58 0 00-.44.335l-19.21-12.82a1.532 1.532 0 00.068-1.143zM76.552-24.451L60.895-57.205c.066-.045.127-.095.186-.146l22.892 18.31a1.52 1.52 0 00.336 1.935l-7.757 12.655zM23.56-43.563l16.076-23.633L58.57-58.87a1.537 1.537 0 00-.004.787L23.854-43.297a1.413 1.413 0 00-.294-.266zm36.29-16.42a1.747 1.747 0 00-.298.067l-9.905-19.27 13.635 15.784-2.545 3.574a1.514 1.514 0 00-.887-.155zm3.734-3.072l19.942 23.082-22.166-17.73c.164-.28.242-.613.197-.96a1.537 1.537 0 00-.456-.908l2.483-3.484zM76.27-23.993l-2.55 4.16a1.524 1.524 0 00-.79-.11l-.062.011-5.112-15.643-6.432-19.686L76.27-23.993zm.232.483l2.904 6.074c-.222.15-.4.356-.518.594l-4.257-1.347a1.537 1.537 0 00-.527-1.41l2.398-3.91zm2.652 8.39L65.885 1.906a.043.043 0 01-.017-.012l6.948-18.829a1.528 1.528 0 001.683-.823l4.257 1.346a1.459 1.459 0 00-.006.434c.04.337.19.631.405.858zM22.827 35.093l24.879 2.57c.003.04.004.083.01.126.017.12.044.234.085.344l-17.757 9.855L22.35 35.87c.23-.202.399-.472.477-.777zm24.947 144.579l8.818-27.793a1.52 1.52 0 001.438-.556l15.328 8.849-25.205 19.767a1.37 1.37 0 00-.379-.267zm48.766-6.639l-22.383-12.924 5.855-4.591a1.523 1.523 0 001.856.184L96.58 172.98a.223.223 0 01-.04.052zm-16.848-19.29a1.382 1.382 0 00-.081.199l-21.252-3.546a1.513 1.513 0 00-.511-1.165l5.147-6.942 16.697 11.454zm-16.801-12.068l-19.725-13.531c.096-.194.148-.412.152-.637l32.254-4.123c.074.257.209.484.388.664l-13.07 17.627zm9.033-46.353L46.75 89.394a1.53 1.53 0 00-.318-1.019l8.664-10.2 23.55 18.515a1.486 1.486 0 00-.094.192l-6.628-1.56zM65.33 4.747a.9.9 0 00.083-.014L77.19 39.164a1.516 1.516 0 00-.51.428L54.29 27.208 64.71 4.696c.194.057.403.078.62.051zM43.526 70.572c.423-.1.768-.37.97-.725l10.243 8.054-8.634 10.168a1.547 1.547 0 00-.688-.266l-1.89-17.231zm36.21 84.594l-5.995 4.701-15.486-8.939c.011-.027.018-.054.026-.083l21.254 3.539c0 .074.001.146.01.221.03.205.094.393.192.561zM76.569 41.288L58.23 55.989l-8.154-17.13c.31-.206.534-.526.626-.888l.58.06 25.077 2.557c.003.04.004.084.01.122.03.21.101.405.199.578zM57.873 56.276l-14.184 11.37a1.456 1.456 0 00-.222-.061l4.317-21.614 1.37-6.856a1.467 1.467 0 00.524-.063l8.195 17.224zm.197.417l4.693 9.861a1.525 1.525 0 00-.638 1.074l-7.809.24-9.918.303a1.462 1.462 0 00-.283-.288l13.955-11.19zm-3.037 20.865l-10.365-8.147a1.482 1.482 0 00-.04-.797l9.663-.297 7.848-.241c.05.272.168.516.336.714l-7.442 8.768zM50.064 36.32l4.029-8.704 22.364 12.367c-.02.051-.034.104-.05.16l-25.656-2.617c-.003-.04-.004-.084-.01-.122a1.513 1.513 0 00-.677-1.084zm26.926 5.43L64.116 66.353a1.51 1.51 0 00-.95 0l-4.736-9.949 18.42-14.768c.044.042.09.077.14.114zM63.834 69.315c.108-.015.21-.039.31-.075l14.9 26.992c-.042.035-.082.067-.122.104L55.385 77.833l7.429-8.75c.292.19.65.282 1.02.232zm-1.208 72.721l-5.153 6.949a1.527 1.527 0 00-.831-.131 1.48 1.48 0 00-.448.131l-13.379-20.37c.035-.033.07-.065.1-.101l19.711 13.522zM44.05 88.346l-18.702-11.21 16.535-7.24c.258.41.7.681 1.196.712l1.888 17.205c-.373.062-.692.26-.918.532zM24.878 76.853L3.761 64.194c.023-.053.04-.106.059-.16l37.83 5.075a1.3 1.3 0 00.055.376l-16.827 7.369zm18.104-9.281c-.15.02-.293.062-.426.118L30.284 48.365l17.736-9.843c.178.23.417.407.693.506l-5.702 28.539c-.01.005-.02.005-.029.006zm6.052-31.494a1.545 1.545 0 00-.49.151L35.456 17.618c.063-.067.121-.138.175-.213L53.7 27.398l-4.042 8.733a1.545 1.545 0 00-.625-.052zM35.817 16.064l28.02-12.03c.117.19.277.353.462.473L53.892 26.99l-18.064-9.988a1.52 1.52 0 00.058-.647 1.442 1.442 0 00-.07-.29zM66.132 4.387l38.632 33.254a1.501 1.501 0 00-.233.702l-25.157 1.842a1.524 1.524 0 00-1.766-1.166L65.832 4.59c.111-.058.21-.123.3-.202zM104.69 39.13L78.679 57.127l-.517-15.108a1.527 1.527 0 001.249-1.386l25.158-1.843c.027.12.068.234.121.34zm-26.452 18.3l-13.486 9.328a1.593 1.593 0 00-.235-.206l12.868-24.597c.107.036.213.062.328.073l.525 15.402zm.02.534l1.296 38.019a1.12 1.12 0 00-.116.039L64.542 69.034a1.522 1.522 0 00.466-1.907l13.25-9.164zm.387 40.243L64.51 109.323 46.488 90.175c.072-.105.132-.216.174-.335l4.78 1.127 27.008 6.357a1.526 1.526 0 00.195.883zm-14.49 11.397l-21.312 16.763a1.517 1.517 0 00-.685-.371l3.279-35.168c.282-.04.536-.154.743-.323l17.975 19.099zm.308.326l11.383 12.094c-.2.254-.322.574-.328.915l-32.254 4.123a1.505 1.505 0 00-.143-.342l21.342-16.79zm12.55 14.562l3.635 28.448a1.534 1.534 0 00-.704.43l-16.68-11.443 13.063-17.615c.207.113.44.177.686.18zm19.182 49.463l-47.627 6.655a1.437 1.437 0 00-.136-.326l25.346-19.875 22.531 13.008c-.07.168-.109.351-.114.538zm-56.15-14.697l15.548-7.997c.147.205.345.37.568.48l-8.817 27.793a1.555 1.555 0 00-.437-.008c-.026.003-.05.008-.071.011l-6.79-20.279zm-.142-.431l-3.517-10.506a1.53 1.53 0 00.782-.964l18.148 3.172c0 .009.003.021 0 .033.015.103.037.203.068.298l-15.481 7.967zm-3.687-13.298l1.745-5.419 17.446 9.718c-.03.08-.051.162-.071.247l-18.117-3.165a1.523 1.523 0 00-1.003-1.381zm1.885-5.852l3.444-10.697a1.514 1.514 0 00.885-.118l13.328 20.425c-.05.047-.094.098-.135.152L38.1 139.676zm6.75-48.882c.046.01.092.022.137.028l-2.414 25.891-.861 9.237c-.036.004-.074.005-.11.008a1.529 1.529 0 00-1.327 1.659l-15.08 3.738a1.505 1.505 0 00-.512-.741l20.167-39.82zm-24.299-13.4c-.318.04-.6.179-.823.379L4.736 65.305l19.636 11.77-2.335 1.022a1.52 1.52 0 00-1.485-.702zM3.779 63.079l26.112-14.492 12.287 19.35c-.22.192-.387.445-.466.73L3.877 63.594a1.442 1.442 0 00-.1-.516zm-.41-.601L20.708 36.1a1.523 1.523 0 001.262.013l7.68 12.094-26.087 14.48a1.606 1.606 0 00-.194-.21zM22.412 33.62l11.263-15.714a1.522 1.522 0 001.427-.018l13.078 18.6a1.515 1.515 0 00-.425.728l-24.879-2.569c-.003-.04-.004-.083-.01-.126a1.55 1.55 0 00-.454-.9zm35.07-37.676l6.425 6.382a1.527 1.527 0 00-.248 1.295L35.61 15.66c-.005-.01-.012-.016-.02-.028l21.892-19.69zm.336-.299l14.337-12.9c.074.061.154.114.24.163L65.45 1.738a1.53 1.53 0 00-.505-.02 1.48 1.48 0 00-.717.29l-6.41-6.363zm-.32-.318L41.568-20.5c.126-.166.217-.356.27-.558l6.375.58 23.393 2.134c.003.036.004.07.01.108.03.239.116.457.243.649L57.498-4.673zM41.24-22.67l4.541-8.534 25.885 12.323c-.01.03-.016.056-.025.085l-23.529-2.146-6.236-.57c-.001-.04-.005-.075-.008-.116a1.518 1.518 0 00-.628-1.042zm4.752-8.928l13.54-25.434a1.5 1.5 0 00.704.076l.062-.011 8.267 25.299 3.882 11.873c-.24.12-.437.297-.583.514L45.993-31.598zm-.405-.194L24.189-41.98a1.478 1.478 0 00-.092-.93l34.647-14.76c.102.169.236.314.392.43L45.588-31.79zm-5.695-35.782l8.092-11.896a1.5 1.5 0 001.105.181l10.064 19.58a1.53 1.53 0 00-.402.427l-18.86-8.293zm29.632-6.554a1.55 1.55 0 00-.006.42c.047.359.213.671.456.908l-6.426 9.024L49.817-79.67c.115-.111.215-.24.293-.382l19.415 5.923zM84.52-39.592c-.017.008-.03.023-.047.03L63.853-63.43l6.486-9.112a1.529 1.529 0 001.047.125L84.52-39.592zm-4.144 21.9a1.513 1.513 0 00-.567.064l-3.028-6.337 7.91-12.904c.014.005.028.014.043.019l-4.358 19.158zm-.409 112.668l-1.274-37.314 26.25-18.159c.084.09.177.169.282.236L79.968 94.976zm-2.975 26.467a1.568 1.568 0 00-.82.272l-11.355-12.066 14.104-11.094c.182.173.408.299.654.365l-2.583 22.523zM35.19 148.4c.218.076.453.104.697.074.027-.003.05-.008.072-.011l3.54 10.57-12.873 6.624a1.53 1.53 0 00-.34-.342L35.19 148.4zm-10.38-15.493l.077-.081 12.676 7.06-1.789 5.549a1.518 1.518 0 00-.875.221l-10.09-12.749zm-1.034-2.618L21.05 80.403c.425-.088.78-.348.995-.697l21.703 9.225a1.524 1.524 0 00.684 1.686L24.296 130.39a1.56 1.56 0 00-.545-.102l.027.002zM40.312-19.903a1.51 1.51 0 00.938-.287L57.167-4.375l-21.89 19.692a1.564 1.564 0 00-.473-.235l5.508-34.985zM23.86-41.316c.063-.075.121-.156.17-.241l21.347 10.164-4.534 8.522a1.554 1.554 0 00-.678-.07 1.55 1.55 0 00-.633.232L23.86-41.316zm2.62-32.845l20.888-6.009c.069.154.158.296.27.416l-8.162 11.998-12.989-5.71c.037-.166.047-.34.023-.52a.852.852 0 00-.03-.175z" fill="#fff"/></svg>