<svg viewBox="0 0 223 563" fill="none" xmlns="http://www.w3.org/2000/svg"><path d="M94.91 4.012L50.49 16.788a3.235 3.235 0 00-3.187-1.544 3.233 3.233 0 00-.582 6.287l-4.437 60.51a3.23 3.23 0 00-2.658 3.596 3.233 3.233 0 003.62 2.8 3.289 3.289 0 001.34-.49l33.235 39.456a3.235 3.235 0 00-.746 2.506 3.23 3.23 0 002.181 2.653L67.56 206.793a9.965 9.965 0 00-.376.019 3.233 3.233 0 00-2.8 3.62 3.24 3.24 0 00.958 1.915L41.457 245.67a3.23 3.23 0 00-1.89-.33 3.233 3.233 0 00-1.744 5.619l-36.77 55.937a3.233 3.233 0 00-4.572 3.343 3.233 3.233 0 005.365 1.999L35.93 340.58a3.23 3.23 0 002.467 4.898l5.776 105.797.482-.028-.01.001a3.233 3.233 0 00-2.8 3.619 3.233 3.233 0 004.695 2.463l21.433 27.093a3.233 3.233 0 00-.801 2.563c.12.918.611 1.694 1.3 2.201l-18.86 35.891a3.233 3.233 0 00-4.279 3.463 3.235 3.235 0 003.62 2.8 3.284 3.284 0 001.988-1.036l40.735 27.185a3.233 3.233 0 106.154 1.41l100.982-14.112a3.228 3.228 0 003.533 2.36 3.234 3.234 0 002.8-3.62 3.233 3.233 0 00-3.62-2.8 3.292 3.292 0 00-1.271.449l-31.207-36.654a3.23 3.23 0 00-2.366-5.359l-7.71-60.328a3.236 3.236 0 00-.037-6.24l5.474-47.759a3.234 3.234 0 003.1-3.642 3.243 3.243 0 00-3.092-2.823l54.3-118.761c.415.117.854.157 1.31.105a3.232 3.232 0 002.8-3.619 3.233 3.233 0 00-3.62-2.8 3.254 3.254 0 00-1.705.759l-81.925-70.521a3.264 3.264 0 00.476-2.138 3.227 3.227 0 00-.869-1.82l28.139-36.104a3.26 3.26 0 002.004.398 3.233 3.233 0 002.8-3.62 3.22 3.22 0 00-2.038-2.605l9.242-40.628c.214.015.438.01.656-.02a3.233 3.233 0 002.799-3.62 3.232 3.232 0 00-3.619-2.8c-.112.012-.223.035-.335.058l-27.855-69.622a3.233 3.233 0 10-4.549-4.181L101.3 4.276a3.24 3.24 0 00.041-1.043 3.234 3.234 0 00-3.62-2.8 3.23 3.23 0 00-2.811 3.58zM50.536 20.038L77.87 32.053 43.8 82.141a3.4 3.4 0 00-.558-.123l.419-5.688 4.002-54.65a3.199 3.199 0 002.874-1.643zM41.822 341.43l5.57-2.442 37.078 22.225-42.638-18.125c.102-.389.138-.802.082-1.223a3.322 3.322 0 00-.092-.435zM48.3 454.449l32.055-7.944a3.245 3.245 0 001.557 1.671l-7.248 22.5-26.656-14.847a3.38 3.38 0 00.292-1.38zm3.31 72.639l27.17-13.972 14.355 42.873a3.382 3.382 0 00-.934.71l-40.735-27.186a3.25 3.25 0 00.143-2.425zm105.435-403.996l-33.202-69.46c.14-.095.27-.2.394-.31l48.546 38.83a3.227 3.227 0 00.712 4.103l-16.45 26.837zM44.668 82.562L78.76 32.445l40.154 17.657a3.265 3.265 0 00-.091 1.263c.019.137.048.274.081.405l-73.61 31.357a3 3 0 00-.625-.565zm76.959-34.822c-.218.031-.43.077-.632.143L99.99 7.02l28.915 33.47-5.398 7.58a3.209 3.209 0 00-1.88-.33zm7.917-6.513l42.29 48.95-47.005-37.602a3.21 3.21 0 00.418-2.035 3.259 3.259 0 00-.968-1.924l5.265-7.39zm26.905 82.836l-5.408 8.822a3.232 3.232 0 00-1.675-.233c-.045.006-.086.017-.131.023l-10.841-33.173-13.64-41.747 31.695 66.308zm.493 1.026l6.158 12.88a3.281 3.281 0 00-1.098 1.258l-9.029-2.854a3.26 3.26 0 00-1.116-2.989l5.085-8.295zm5.623 17.792l-28.139 36.104c-.016-.004-.026-.014-.037-.024l14.733-39.929a3.234 3.234 0 003.568-1.747l9.029 2.855a3.088 3.088 0 00-.013.921c.084.715.404 1.338.859 1.82zM43.115 249.363l52.758 5.448c.007.086.009.177.021.269.037.253.094.496.181.728l-37.656 20.9-16.317-25.697a3.303 3.303 0 001.013-1.648zm52.903 306.601l18.699-58.94a3.23 3.23 0 003.049-1.179l32.505 18.766-53.45 41.918a2.943 2.943 0 00-.803-.565zm103.414-14.08l-47.465-27.406 12.415-9.738a3.228 3.228 0 002.636.861c.477-.063.92-.226 1.301-.47l31.197 36.644c-.024.046-.054.077-.084.109zm-35.728-40.907a3.109 3.109 0 00-.172.422l-45.067-7.52a3.642 3.642 0 00-.022-.467 3.214 3.214 0 00-1.062-2.004l10.914-14.721 35.409 24.29zm-35.629-25.592l-41.83-28.695c.203-.412.314-.872.322-1.351l68.401-8.744c.156.546.442 1.027.823 1.409l-27.716 37.381zm19.157-98.298l-53.387-12.569a3.248 3.248 0 00-.674-2.161l18.374-21.63 49.941 39.264a3.253 3.253 0 00-.199.406l-14.055-3.31zm-13.985-192.075c.056-.007.116-.018.177-.03l24.973 73.016a3.218 3.218 0 00-1.081.906l-47.483-26.261 22.099-47.741c.41.122.853.167 1.315.11zM87.01 324.602a3.212 3.212 0 002.058-1.536l21.72 17.08-18.31 21.562a3.265 3.265 0 00-1.458-.564l-4.01-36.542zm76.789 179.395l-12.715 9.968-32.841-18.956c.025-.057.038-.113.057-.175l45.072 7.505c-.001.157.002.31.022.467.061.436.198.835.405 1.191zm-6.72-241.495l-38.887 31.176-17.292-36.326a3.232 3.232 0 001.327-1.884l1.229.127 53.18 5.422c.007.086.009.178.021.259.062.446.215.859.422 1.226zm-39.645 31.784l-30.079 24.112a3.16 3.16 0 00-.471-.131l9.154-45.835 2.907-14.538c.188.01.381.006.574-.02a3.62 3.62 0 00.536-.115l17.379 36.527zm.418.885l9.953 20.911a3.233 3.233 0 00-1.353 2.277l-16.561.51-21.033.641a3.098 3.098 0 00-.6-.61l29.594-23.729zm-6.441 44.247l-21.98-17.277a3.132 3.132 0 00-.087-1.691l20.495-.628 16.641-.513c.106.577.358 1.095.714 1.514l-15.783 18.595zm-10.537-87.452l8.543-18.458 47.426 26.227c-.043.108-.071.221-.104.338l-54.408-5.549c-.007-.086-.01-.178-.022-.259a3.21 3.21 0 00-1.435-2.299zm57.099 11.516l-27.3 52.173a3.197 3.197 0 00-2.014-.001l-10.044-21.097 39.062-31.317c.094.089.192.163.296.242zm-27.898 58.455c.229-.031.446-.083.658-.159l31.598 57.24c-.089.074-.174.142-.259.22L112.158 340l15.754-18.554c.62.402 1.378.597 2.163.491zm-2.561 154.215l-10.929 14.737a3.223 3.223 0 00-1.762-.277 3.14 3.14 0 00-.949.277L85.501 447.69c.075-.068.15-.136.214-.213l41.799 28.675zM88.119 362.294l-39.66-23.768 35.067-15.354a3.244 3.244 0 002.535 1.51l4.003 36.485c-.79.132-1.466.55-1.945 1.127zm-40.656-24.37L2.682 311.078c.048-.113.086-.226.124-.339l80.226 10.762c.003.122.01.239.024.36.019.147.048.294.092.436l-35.685 15.627zm38.393-19.682a3.54 3.54 0 00-.905.251L58.928 277.51l37.61-20.874c.379.489.886.863 1.471 1.072L85.916 318.23c-.02.011-.04.011-.06.012zm12.833-66.787c-.375.05-.718.16-1.04.321l-27.752-39.471c.134-.14.258-.291.37-.451l38.319 21.191-8.572 18.52a3.273 3.273 0 00-1.325-.11zm-28.028-42.444l59.42-25.513c.249.406.588.748.981 1.003l-22.07 47.68-38.308-21.182c.132-.431.187-.895.124-1.372a3.039 3.039 0 00-.147-.616zm64.286-24.763l81.925 70.52c-.279.44-.454.948-.492 1.488l-53.351 3.906a3.232 3.232 0 00-3.744-2.471l-24.973-73.016c.236-.122.446-.26.635-.427zm81.769 73.678l-55.16 38.165-1.097-32.04a3.236 3.236 0 002.649-2.939l53.351-3.907c.058.253.145.495.257.721zM160.62 296.73l-28.598 19.782a3.42 3.42 0 00-.499-.436l27.29-52.162c.226.075.451.131.696.155l1.111 32.661zm.043 1.133l2.749 80.625c-.081.023-.167.05-.247.083l-31.588-57.231a3.229 3.229 0 00.988-4.043l28.098-19.434zm.821 85.343l-29.975 23.574-38.218-40.605c.152-.223.279-.46.369-.711l10.136 2.389 57.275 13.481c-.02.219-.014.453.017.681.051.426.193.829.396 1.191zm-30.729 24.168l-45.194 35.549a3.223 3.223 0 00-1.454-.789l6.954-74.577a3.21 3.21 0 001.576-.685l38.118 40.502zm.653.691l24.14 25.647a3.237 3.237 0 00-.695 1.94l-68.4 8.744a3.172 3.172 0 00-.303-.725l45.258-35.606zm26.614 30.881l7.711 60.328a3.247 3.247 0 00-1.494.912l-35.372-24.266 27.701-37.355c.438.238.935.374 1.454.381zm40.68 104.894L97.7 557.952a3.04 3.04 0 00-.286-.69l53.749-42.149 47.781 27.587a3.172 3.172 0 00-.242 1.14zM79.628 512.672l32.971-16.959c.311.435.732.785 1.205 1.018l-18.698 58.94a3.296 3.296 0 00-.927-.018c-.055.007-.106.018-.152.024l-14.4-43.005zm-.302-.913l-7.458-22.279a3.252 3.252 0 001.658-2.045l38.486 6.725c0 .021.006.046.001.072.031.218.077.43.143.632l-32.83 16.895zm-7.818-28.202l3.699-11.491 36.997 20.609c-.062.17-.109.344-.15.523l-38.419-6.712a3.233 3.233 0 00-2.127-2.929zm3.997-12.408l7.304-22.685a3.218 3.218 0 001.876-.25l28.264 43.314a2.74 2.74 0 00-.287.322l-37.157-20.701zm14.314-103.663c.097.023.194.046.29.059l-5.119 54.907-1.826 19.589c-.076.007-.157.009-.233.016a3.242 3.242 0 00-2.813 3.518l-31.979 7.926a3.183 3.183 0 00-1.086-1.57l42.766-84.445zm-51.53-28.414a3.186 3.186 0 00-1.745.801l-31.795-26.44 41.642 24.96-4.952 2.168a3.223 3.223 0 00-3.15-1.489zM2.72 308.711l55.375-30.733 26.055 41.033a3.217 3.217 0 00-.989 1.551l-80.23-10.757a3.075 3.075 0 00-.21-1.094zm-.87-1.275l36.77-55.938a3.22 3.22 0 002.676.026l16.285 25.648-55.319 30.706a3.406 3.406 0 00-.413-.442zm40.384-61.195l23.884-33.324a3.221 3.221 0 003.026-.039l27.735 39.446a3.206 3.206 0 00-.903 1.543l-52.758-5.448c-.007-.086-.01-.177-.022-.269a3.286 3.286 0 00-.962-1.909zm74.371-79.899l13.626 13.535a3.235 3.235 0 00-.528 2.745l-59.48 25.535c-.011-.021-.027-.035-.043-.06l46.425-41.755zm.711-.633l30.406-27.355c.155.128.326.241.507.344l-14.728 39.934a3.232 3.232 0 00-1.069-.045 3.146 3.146 0 00-1.521.617l-13.595-13.495zm-.678-.675l-33.78-33.563a3.37 3.37 0 00.57-1.184l13.52 1.233 49.608 4.523c.007.076.008.147.02.228.064.507.248.971.518 1.376l-30.456 27.387zm-34.474-38.165l9.63-18.098 54.891 26.134c-.019.062-.033.118-.051.18l-49.898-4.552-13.225-1.21c-.002-.081-.009-.157-.016-.244a3.219 3.219 0 00-1.331-2.21zm10.077-18.933l28.711-53.938c.467.167.973.23 1.495.162.045-.006.086-.017.132-.024l17.531 53.651 8.231 25.18a3.192 3.192 0 00-1.234 1.089l-54.866-26.12zm-.86-.411L46.003 85.917c.078-.353.1-.72.05-1.095a3.227 3.227 0 00-.246-.879l73.475-31.297c.217.356.5.664.831.91l-28.73 53.969zM79.305 31.642l17.16-25.227a3.18 3.18 0 002.345.385l21.342 41.521c-.34.242-.627.555-.853.906L79.304 31.643zm62.84-13.897a3.268 3.268 0 00-.013.89c.1.761.452 1.424.968 1.925l-13.628 19.138-29.12-33.704a3.48 3.48 0 00.621-.809l41.172 12.56zm31.801 73.239c-.035.016-.065.047-.1.064l-43.73-50.619 13.755-19.323a3.244 3.244 0 001.881.33 2.69 2.69 0 00.339-.065l27.855 69.613zm-8.788 46.441a3.671 3.671 0 00-.661.016c-.188.02-.365.07-.542.121l-6.42-13.439 16.772-27.364c.031.01.062.029.093.038l-9.242 40.628zm-.867 238.93l-2.701-79.13 55.666-38.508c.177.189.375.357.597.499L164.29 376.355zm-6.31 56.127c-.102.002-.199.01-.3.023a3.33 3.33 0 00-1.441.554l-24.077-25.588 29.909-23.527c.386.367.866.635 1.388.774l-5.479 47.764zm-88.647 57.167a3.24 3.24 0 001.48.157c.055-.007.106-.018.151-.024l7.508 22.415-27.3 14.048a3.25 3.25 0 00-.72-.725l18.881-35.871zM47.32 456.792l.164-.172 26.882 14.974-3.794 11.768a3.216 3.216 0 00-.585.019 3.294 3.294 0 00-1.27.449L47.32 456.792zm-2.192-5.551L39.347 345.45a3.249 3.249 0 002.11-1.477l46.026 19.562c-.103.39-.138.803-.082 1.223a3.23 3.23 0 001.533 2.353l-42.707 84.342a3.346 3.346 0 00-1.155-.216l.056.004zm35.064-318.504a3.19 3.19 0 001.99-.609l33.755 33.539-46.42 41.759a3.322 3.322 0 00-1.004-.499l11.68-74.19zM45.305 87.328c.133-.16.256-.332.358-.512l45.271 21.554-9.615 18.072a3.293 3.293 0 00-1.438-.147 3.297 3.297 0 00-1.341.49L45.305 87.328zm5.554-69.654L95.156 4.932c.146.327.336.627.571.881L78.42 31.257 50.875 19.15c.078-.353.1-.72.05-1.105a1.819 1.819 0 00-.066-.37z" fill="#fff"/></svg>