<svg width="237" height="40" fill="none" xmlns="http://www.w3.org/2000/svg"><g clip-path="url(#clip0)"><path d="M20.154.003a1.03 1.03 0 00-1.042 1.042v6.802c0 .363.205.71.521.9l7.797 4.513a1.035 1.035 0 001.041 0l5.887-3.409a1.037 1.037 0 000-1.799L20.675.145a1.08 1.08 0 00-.521-.142z" fill="#fff"/><path d="M9.296 13.26l7.796-4.498c.332-.19.52-.536.52-.9V1.046c0-.805-.867-1.31-1.561-.9L2.367 8.052a1.037 1.037 0 000 1.8l5.887 3.408c.332.174.726.174 1.042 0z" fill="url(#paint0_linear)"/><path d="M7.986 24.497v-9.075c0-.363-.205-.71-.521-.9L1.562 11.13a1.037 1.037 0 00-1.562.9v15.876c0 .805.868 1.31 1.562.9l5.887-3.41a1 1 0 00.537-.899z" fill="url(#paint1_linear)"/><path d="M29.26 25.381l5.887 3.409c.694.395 1.562-.095 1.562-.9V12.045c0-.805-.868-1.31-1.562-.9l-5.887 3.41c-.331.189-.52.536-.52.899v9.027c0 .363.189.71.52.9z" fill="url(#paint2_linear)"/><path d="M27.508 26.69l-7.875 4.562c-.331.19-.52.537-.52.9v6.802c0 .804.867 1.31 1.562.9l13.777-7.955a1.037 1.037 0 000-1.8l-5.886-3.408a1.139 1.139 0 00-1.058 0z" fill="url(#paint3_linear)"/><path d="M17.092 31.252l-7.86-4.545c-.33-.19-.71-.19-1.041 0l-5.887 3.409a1.037 1.037 0 000 1.799l13.762 7.938c.695.395 1.563-.095 1.563-.9v-6.802a1.076 1.076 0 00-.537-.9z" fill="url(#paint4_linear)"/><path d="M59.957 24.355h5.492v3.488h-9.39V12.708h3.898v11.647zm14.583.079v3.393h-7.687v-3.393h1.926v-8.365H67.01v-3.377h7.37v3.377h-1.767v8.365h1.925zm9.358-11.931c3.046.031 6.234 1.61 6.96 5.366h-3.803c-.632-1.294-1.626-1.815-3.157-1.815-2.446 0-3.756 1.91-3.756 4.213 0 2.51 1.468 4.151 3.756 4.151 1.547 0 2.557-.41 3.236-1.862h-3.22V19.21h7.15c.078 1.515.078 2.967-.427 4.435-1.089 3.156-3.945 4.372-6.739 4.372-3.835 0-7.749-2.573-7.765-7.75.016-5.176 3.914-7.764 7.765-7.764zm19.681 3.661h-5.603v2.146h5.145v3.441h-5.145v2.667h5.792v3.44h-9.643V12.725h9.438c.016 1.089.016 2.272.016 3.44zm16.303 11.095v.568h-4.325l-2.588-4.45h-2.02v4.45h-3.867V12.692h6.645c5.949.032 7.023 7.181 3.203 9.77l2.952 4.797zm-6.155-11.095c-.9-.031-1.863 0-2.778 0v3.788h2.778c2.083-.016 2.193-3.788 0-3.788zm18.417 4.214v7.433h-3.992V12.63h1.404l7.655 7.48v-7.417h3.945v15.151h-1.373l-7.639-7.465zm22.316-4.214h-5.602v2.146h5.145v3.441h-5.145v2.667h5.792v3.44h-9.643V12.725h9.438c.015 1.089.015 2.272.015 3.44zm2.036 0v-3.456h11.237v3.456h-3.693v11.679h-3.835V16.164h-3.709zm23.295-3.235l2.572 8.049h.064l.678-2.573 1.926-5.713h3.835v.568l-5.256 14.693h-2.225l-2.415-7.275h-.063l-2.415 7.291h-2.146l-5.303-14.709v-.584h3.914l1.957 5.713.679 2.573h.063l2.525-8.049c.584.016 1.01.016 1.61.016zm10.416 7.354c0-10.463 15.53-10.463 15.53 0 0 10.48-15.53 10.48-15.53 0zm11.569 0c0-5.445-7.592-5.445-7.592 0 0 5.492 7.592 5.492 7.592 0zm19.664 6.976v.568h-4.324l-2.588-4.45h-2.005v4.45h-3.866V12.692h6.644c5.95.032 7.023 7.181 3.204 9.77l2.935 4.797zm-6.171-11.095c-.899-.031-1.862 0-2.777 0v3.788h2.777c2.099-.016 2.21-3.788 0-3.788zm8.523 11.663v-15.12h3.945v5.73h.284c3.867 0 3.678-2.888 3.678-5.73h3.977c0 3.094.079 5.95-2.92 7.86l4.104 6.66v.6h-4.293l-3.33-5.855c-.521.079-.995.079-1.5.079v5.776h-3.945z" fill="#fff"/></g><defs><linearGradient id="paint0_linear" x1="9.228" y1="4.18" x2="28.354" y2="35.338" gradientUnits="userSpaceOnUse"><stop offset=".254" stop-color="#CAAD6E"/><stop offset=".407" stop-color="#C5A86A"/><stop offset=".593" stop-color="#B7995E"/><stop offset=".795" stop-color="#9F814A"/><stop offset="1" stop-color="#80602F"/></linearGradient><linearGradient id="paint1_linear" x1="-2.373" y1="11.302" x2="16.753" y2="42.459" gradientUnits="userSpaceOnUse"><stop offset=".254" stop-color="#CAAD6E"/><stop offset=".407" stop-color="#C5A86A"/><stop offset=".593" stop-color="#B7995E"/><stop offset=".795" stop-color="#9F814A"/><stop offset="1" stop-color="#80602F"/></linearGradient><linearGradient id="paint2_linear" x1="20.015" y1="-2.442" x2="39.142" y2="28.716" gradientUnits="userSpaceOnUse"><stop offset=".254" stop-color="#CAAD6E"/><stop offset=".407" stop-color="#C5A86A"/><stop offset=".593" stop-color="#B7995E"/><stop offset=".795" stop-color="#9F814A"/><stop offset="1" stop-color="#80602F"/></linearGradient><linearGradient id="paint3_linear" x1="8.436" y1="4.666" x2="27.562" y2="35.824" gradientUnits="userSpaceOnUse"><stop offset=".254" stop-color="#CAAD6E"/><stop offset=".407" stop-color="#C5A86A"/><stop offset=".593" stop-color="#B7995E"/><stop offset=".795" stop-color="#9F814A"/><stop offset="1" stop-color="#80602F"/></linearGradient><linearGradient id="paint4_linear" x1="-2.648" y1="11.47" x2="16.478" y2="42.628" gradientUnits="userSpaceOnUse"><stop offset=".254" stop-color="#CAAD6E"/><stop offset=".407" stop-color="#C5A86A"/><stop offset=".593" stop-color="#B7995E"/><stop offset=".795" stop-color="#9F814A"/><stop offset="1" stop-color="#80602F"/></linearGradient><clipPath id="clip0"><path fill="#fff" d="M0 0h236.859v40H0z"/></clipPath></defs></svg>