<svg fill="none" xmlns="http://www.w3.org/2000/svg" viewBox="0 0 497 900"><path d="M269.09 1061.38l97.544-26.03a7.078 7.078 0 006.895 3.51 7.068 7.068 0 006.268-7.79c-.305-2.82-2.227-5.05-4.731-5.92l12.237-131.963c3.719-.564 6.377-3.967 5.957-7.741a7.063 7.063 0 00-7.788-6.268 7.18 7.18 0 00-2.949 1.016l-70.922-87.57a7.064 7.064 0 001.737-5.442 7.055 7.055 0 00-4.653-5.884l28.673-161.624c.266-.001.544-.014.821-.027a7.062 7.062 0 006.268-7.787 7.066 7.066 0 00-2.012-4.221l53.564-71.772a7.047 7.047 0 004.115.8 7.063 7.063 0 006.267-7.787 7.012 7.012 0 00-2.223-4.409l82.658-120.616a7.063 7.063 0 0010.126-7.109 7.063 7.063 0 00-7.788-6.267 6.975 6.975 0 00-3.845 1.676l-73.246-63.331a7.063 7.063 0 001.064-4.538c-.363-3.364-3.02-5.904-6.244-6.265l-8.161-231.294-1.055.039h.022a7.062 7.062 0 006.267-7.788 7.062 7.062 0 00-7.787-6.267 7.274 7.274 0 00-2.362.69l-45.669-60.07a7.06 7.06 0 001.858-5.564 7.086 7.086 0 00-2.748-4.862l42.702-77.588a7.063 7.063 0 009.491-7.383 7.062 7.062 0 00-7.787-6.267 7.157 7.157 0 00-4.387 2.178l-87.819-61.086a7.063 7.063 0 00-7.087-10.17 7.054 7.054 0 00-6.295 6.832L64.936-124.01c-.84-3.373-4.064-5.699-7.616-5.302a7.062 7.062 0 00-6.268 7.787 7.063 7.063 0 007.788 6.268 7.18 7.18 0 002.794-.926l66.612 81.362a7.037 7.037 0 00-1.803 5.508c.375 3.53 3.299 6.158 6.743 6.295l14.301 132.077c-3.339.873-5.632 4.063-5.246 7.604a7.045 7.045 0 005.064 6.027l-13.966 104.07a6.536 6.536 0 00-.655.037 7.062 7.062 0 00-6.267 7.788c.374 3.485 3.243 6.103 6.632 6.295L9.463 497.96a7.394 7.394 0 00-2.857-.285 7.063 7.063 0 00-6.267 7.788 7.063 7.063 0 007.787 6.267 7.115 7.115 0 003.758-1.587l175.95 157.461a7.117 7.117 0 00-1.13 4.65c.164 1.554.838 2.928 1.821 4.011l-62.973 77.665a7.122 7.122 0 00-4.36-.954 7.062 7.062 0 00-6.267 7.788 7.032 7.032 0 004.341 5.775l-21.894 88.339a6.873 6.873 0 00-1.432.019 7.063 7.063 0 00-6.268 7.788 7.063 7.063 0 007.788 6.267c.244-.024.488-.069.732-.115l57.904 153.223a7.063 7.063 0 00-3.584 6.93 7.062 7.062 0 007.787 6.27 7.08 7.08 0 005.556-3.88l89.29 29.16a6.992 6.992 0 00-.133 2.27 7.062 7.062 0 007.788 6.27 7.054 7.054 0 006.29-7.7zm97.584-33.13l-59.189-27.39 76.518-107.955c.4.131.79.229 1.212.293l-1.155 12.403-11.04 119.189a5.548 5.548 0 00-1 .02 7 7 0 00-5.346 3.44zm32.559-701.534l-12.27 5.099-80.039-50.098 92.356 41.378a6.882 6.882 0 00-.23 2.667c.035.322.103.632.183.954zm-9.392-247.095L319.502 95.62a7.086 7.086 0 00-3.33-3.714l16.775-48.834 57.589 33.546a7.403 7.403 0 00-.695 3.003zm-4.17-158.78l-59.925 29.372-29.547-94.237a7.35 7.35 0 002.069-1.511l87.819 61.086a7.106 7.106 0 00-.701 3.903c.058.477.15.943.285 1.387zM138.402 798.704l69.588 153.094a8.81 8.81 0 00-.874.66l-104.387-86.845a7.044 7.044 0 00-1.382-8.99l37.055-57.919zm243.718 93.245l-76.561 108.019-86.951-40.252a7.109 7.109 0 00.252-2.756 7.889 7.889 0 00-.16-.888l162.08-65.382c.381.486.838.895 1.34 1.259zm-169.539 72.81c.478-.058.944-.15 1.387-.285l44.155 90.126-61.742-74.313 12.108-16.328a7.015 7.015 0 004.092.8zm-17.564 13.891l-90.298-108.682 101.073 84.097a7.012 7.012 0 00-.998 4.427 7.121 7.121 0 002.034 4.243l-11.811 15.915zm-55.271-182.041l12.182-19.039a7.059 7.059 0 003.647.58c.1-.012.188-.034.288-.046l22.278 72.905 28.034 91.746-66.429-146.146zm-1.035-2.261l-12.906-28.389a7.167 7.167 0 002.452-2.702l19.597 6.615a6.799 6.799 0 00-.067 2.011 7.118 7.118 0 002.38 4.563l-11.456 17.902zm-11.53-39.094l62.973-77.665c.034.011.056.033.078.055l-33.855 86.583c-.745-.162-1.534-.236-2.334-.143a7.076 7.076 0 00-5.533 3.807l-19.597-6.614a6.799 6.799 0 00.067-2.011c-.153-1.566-.827-2.939-1.799-4.012zm265.353-227.521l-114.991-14.118c-.012-.189-.013-.389-.036-.589a7.649 7.649 0 00-.364-1.597l83.117-44.061 34.554 56.809a7.21 7.21 0 00-2.28 3.556zM289.901-144.09L246.583-16.156a7.215 7.215 0 00-2.022-.078 7.054 7.054 0 00-4.686 2.525l-70.199-42.353 118.496-89.296a6.447 6.447 0 001.729 1.268zM63.459-117.693l102.508 61.85-27.525 20.745a7.049 7.049 0 00-5.721-1.991 6.952 6.952 0 00-2.86.97l-66.59-81.34c.055-.1.121-.167.188-.234zm76.305 90.84c.154-.289.286-.6.395-.912l98.107 18.32a7.75 7.75 0 00.027 1.021 7.028 7.028 0 002.235 4.42l-24.455 31.69-76.309-54.538zm76.735 57.392l90.147 64.428a6.932 6.932 0 00-.761 2.937l-149.751 16.218a7.124 7.124 0 00-1.738-3.112l62.103-80.47zM170.525 244.41l116.063 29.697c-.031.411-.039.844.018 1.277a7.09 7.09 0 001.363 3.469l-41.037 46.466-107.414-87.851c.165-.278.319-.568.45-.88l30.557 7.822zm22.458 420.067a5.568 5.568 0 00-.389.058l-51.467-160.512a7.026 7.026 0 002.4-1.935l102.595 59.351-50.272 103.334a7.007 7.007 0 00-2.867-.296zm106.853-302.91a7.022 7.022 0 00-4.559 3.269l-46.716-38.215 40.894-46.32a7.157 7.157 0 003.161 1.293l7.22 79.973zM139.684-33.45l28.189-21.236 70.924 42.782c-.055.123-.088.245-.132.379l-98.117-18.286a7.926 7.926 0 00-.028-1.022 7.112 7.112 0 00-.836-2.617zm4.512 527.692l86.24-66.45 36.235 80.061a7.065 7.065 0 00-2.978 4.059l-2.678-.329-115.913-14.08c-.012-.189-.013-.389-.036-.566a7.571 7.571 0 00-.87-2.695zm87.921-67.747l66.704-51.392c.334.131.679.229 1.024.305l-21.921 99.715-6.96 31.629a6.77 6.77 0 00-1.256.018 8.541 8.541 0 00-1.176.229l-36.415-80.504zm-.877-1.95l-20.855-46.086a7.07 7.07 0 003.05-4.916l36.188-.418 45.963-.515a6.75 6.75 0 001.285 1.359l-65.631 50.576zm15.929-96.361l47.275 38.656a6.851 6.851 0 00-.154 2.389c.047.444.139.888.274 1.309l-44.785.509-36.366.419a7.045 7.045 0 00-1.496-3.335l35.252-39.947zm19.332 191.433l-19.434 39.951-102.472-59.274c.099-.234.164-.479.241-.735l118.591 14.41c.012.189.013.389.036.566a7.012 7.012 0 003.038 5.082zm-124.216-27.553l61.817-112.794a6.996 6.996 0 003.09.361 7.171 7.171 0 001.309-.274l21.046 46.496-86.626 66.752c-.201-.199-.413-.364-.636-.541zm63.387-126.488c-.5.059-.977.161-1.443.319l-66.6-126.339c.2-.157.388-.302.576-.47l107.358 87.796-35.186 39.857a6.963 6.963 0 00-4.705-1.163zm12.084-336.688l24.489-31.724a7.06 7.06 0 003.836.68 6.818 6.818 0 002.085-.567l60.146 95.538c-.166.145-.332.29-.475.458l-90.081-64.385zm81.246 250.317l85.612 53.578-77.229 32.054a7.084 7.084 0 00-5.472-3.403l-7.208-79.851a7.025 7.025 0 004.297-2.378zm87.763 54.932l96.669 60.516c-.11.245-.197.49-.285.735l-174.755-26.88a9.445 9.445 0 00-.038-.788 5.533 5.533 0 00-.183-.955l78.592-32.628zm-84.676 41.37a7.81 7.81 0 001.986-.51l55.109 90.599-83.018 44.005a7.076 7.076 0 00-3.167-2.404l28.957-131.667a.284.284 0 01.133-.023zm-30.838 145.318a7.167 7.167 0 002.284-.657l58.947 87.369a8.672 8.672 0 00-.828.971l-82.793-47.895 19.5-40.084c.913.284 1.88.401 2.89.296zm59.426 93.875l-130.844 53.217a6.957 6.957 0 00-2.101-2.232l50.206-103.201 82.771 47.873a7.055 7.055 0 00-.328 2.99c.058.477.149.921.296 1.353zm-141.44 51.375L13.286 508.614a6.957 6.957 0 001.138-3.228l116.679-6.285a7.062 7.062 0 007.684 5.612c.122-.012.256-.035.389-.058l51.467 160.513a6.749 6.749 0 00-1.406.907zM13.76 501.724l122.073-81.028 1.046 70.02a7.072 7.072 0 00-5.909 6.308L14.29 503.31a7.015 7.015 0 00-.53-1.586zm124.143-82.384l63.289-41.998c.324.365.693.685 1.072.972l-61.795 112.771a6.871 6.871 0 00-1.513-.369l-1.053-71.376zm-.047-2.477l-2.609-176.195c.178-.045.366-.102.544-.169l66.577 126.317a7.053 7.053 0 00-2.964 6.548c.094.799.309 1.542.635 2.24l-62.183 41.259zm1.801-186.416l66.455-50.224 81.757 90.289a6.865 6.865 0 00-.836 1.537l-22.036-5.646-124.518-31.85a6.626 6.626 0 00-.008-1.489 7.065 7.065 0 00-.814-2.617zm68.126-51.488l100.197-75.734a7.041 7.041 0 003.142 1.782l-18.326 162.579a7.013 7.013 0 00-3.469 1.429l-81.544-90.056zm-1.397-1.537l-51.64-57.028a7.063 7.063 0 001.599-4.207l149.751-16.218a6.87 6.87 0 00.631 1.596l-100.341 75.857zm-56.823-68.563l-14.3-132.077a7.082 7.082 0 003.299-1.928l76.231 54.484-62.07 80.415a6.851 6.851 0 00-3.16-.894zM65.135-121.934l221.176-26.569c.136.533.339 1.043.597 1.519l-119.16 89.788L64.56-119.454a6.92 6.92 0 00.575-2.48zm258.739 73.08l-72.721 35.65a7.094 7.094 0 00-2.589-2.274l43.318-127.934a7.213 7.213 0 002.022.078c.122-.012.233-.035.333-.046l29.637 94.525zm.622 2.007l15.35 48.97a7.102 7.102 0 00-3.709 4.397L252.371-9.789c0-.044-.011-.1-.001-.155a8.047 8.047 0 00-.285-1.387l72.411-35.516zm15.887 61.92l-8.563 24.94-79.931-46.567c.142-.367.251-.745.349-1.135L335.86 8.588c.001.222.013.433.037.655.292 2.72 2.092 4.898 4.486 5.83zm-9.252 26.931L314.224 91.24a6.955 6.955 0 00-2.044-.078 7.064 7.064 0 00-2.063.544L250.214-4.079a6.25 6.25 0 00.64-.692l80.277 46.775zm-35.624 225.789c-.211-.054-.422-.108-.633-.141l13.492-119.697 4.812-42.703c.167-.012.344-.013.511-.025 3.808-.41 6.567-3.779 6.291-7.566l70.172-15.964a6.96 6.96 0 002.308 3.475l-96.953 182.621zm111.341 64.225a6.978 6.978 0 003.846-1.676l68.324 59.081-89.892-56.265 10.906-4.524a7.044 7.044 0 006.816 3.384zm76.403 67.802l-122.228 64.789-55.177-90.711a7.024 7.024 0 002.226-3.344l174.766 26.869c.001.266.014.522.038.788a6.64 6.64 0 00.375 1.609zm1.848 2.822l-82.658 120.616a7.062 7.062 0 00-3.859-.679 7.793 7.793 0 00-1.985.511l-34.487-56.699 122.106-64.733c.269.354.559.686.883.984zm-90.773 131.946l-53.564 71.771a7.05 7.05 0 00-6.609-.042l-58.913-87.313a7.017 7.017 0 002.037-3.333l114.99 14.118c.013.189.014.389.037.589a7.182 7.182 0 002.022 4.21zM228.542 705.952l-29.188-30.134a7.076 7.076 0 001.427-5.062 6.022 6.022 0 00-.16-.91l130.977-53.262c.022.044.056.077.089.133l-103.145 89.235zm-1.581 1.352l-67.554 58.462a7.719 7.719 0 00-1.093-.772l33.844-86.594c.745.163 1.535.237 2.334.143a6.86 6.86 0 003.348-1.284l29.121 30.045zm1.452 1.503l72.364 74.722a7.327 7.327 0 00-1.297 2.562l-29.477-3.262-108.147-11.967c-.012-.166-.013-.322-.036-.499a6.967 6.967 0 00-1.072-3.027l67.665-58.529zm73.685 84.801l-21.794 39.119-118.779-59.386c.044-.133.076-.256.12-.389l108.781 12.041 28.832 3.199c.001.177.013.344.025.533.211 1.998 1.287 3.747 2.815 4.883zm-22.806 40.924L214.318 951.12a6.949 6.949 0 00-3.257-.416c-.1.012-.188.034-.288.046l-36.029-117.907-16.918-55.338a6.964 6.964 0 002.742-2.326l118.724 59.353zm1.86.934l98.196 49.1a6.851 6.851 0 00-.154 2.389c.081.677.24 1.32.499 1.93l-161.782 65.259a7.036 7.036 0 00-1.777-2.023l65.018-116.655zm23.183 166.234l-38.54 54.37a6.893 6.893 0 00-4.504-1.03c-.2.02-.411.06-.599.09l-44.862-91.577a7.199 7.199 0 001.9-1.943l86.605 40.09zm-137.825 27.7c.108-.62.138-1.28.068-1.94a7.138 7.138 0 00-2.034-4.25l30.569-41.217 62.178 74.837a7.398 7.398 0 00-1.391 1.74l-89.39-29.17zm-66.367-161.285c.078-.033.144-.1.222-.134l93.373 112.387-30.856 41.622a7.09 7.09 0 00-4.092-.8c-.244.02-.488.07-.743.13l-57.904-153.205zm21.147-101.054c.467.042.956.039 1.444-.008.411-.036.799-.138 1.188-.24l13.457 29.62-37.782 59.055c-.066-.021-.133-.066-.2-.087l21.893-88.34zm11.949-521.772l2.57 172.93-123.192 81.756a6.872 6.872 0 00-1.283-1.115l121.905-253.571zm16.145-122.311c.222-.001.433-.013.655-.036a7.283 7.283 0 003.171-1.151l51.506 56.895-66.312 50.124a7.033 7.033 0 00-2.997-1.75l13.977-104.082zM345.388 1.86a7.105 7.105 0 00-3.224-.405c-.122.012-.233.035-.333.047l-15.452-49.27 60.213-29.53c.426.62.951 1.161 1.542 1.614L345.388 1.86zm46.692 72.683l-.365.37-58.079-33.833 8.782-25.54c.411.03.833.028 1.277-.019a7.162 7.162 0 002.794-.926l45.591 59.948zm4.554 12.217l8.172 231.284a7.095 7.095 0 00-4.67 3.135l-99.694-44.659c.24-.846.335-1.746.23-2.667a7.06 7.06 0 00-3.249-5.204l96.82-182.398c.79.318 1.635.491 2.513.52l-.122-.01zM306.65 780.876a6.117 6.117 0 00-1.111.028 6.998 6.998 0 00-3.259 1.217l-72.308-74.666 103.134-89.246a7.243 7.243 0 002.173 1.132L306.65 780.876zm74.281 100.637a7.797 7.797 0 00-.805 1.105l-97.962-48.979 21.761-39.063c.979.35 2.035.488 3.134.383a7.184 7.184 0 002.95-1.016l70.922 87.57zM365.868 1033.4l-97.278 25.96a6.92 6.92 0 00-1.21-1.94l38.87-54.85 59.645 27.61a6.947 6.947 0 00-.153 2.41c.012.28.058.54.126.81z" fill="#fff"/></svg>