<svg width="139" height="46" viewBox="0 0 139 46" fill="none" xmlns="http://www.w3.org/2000/svg">
<path d="M0.00747811 45.0957C-0.00535028 45.1709 -0.00164035 45.248 0.0183503 45.3216C0.0383409 45.3953 0.0741332 45.4637 0.123235 45.5221C0.172337 45.5804 0.233566 45.6274 0.302672 45.6598C0.371777 45.6921 0.447099 45.709 0.523391 45.7092H9.05687C9.17987 45.709 9.29888 45.6656 9.39316 45.5866C9.48745 45.5076 9.55102 45.398 9.57279 45.277L11.325 35.205L12.6822 27.3037L14.8063 15.0519C14.8179 14.9846 14.8145 14.9156 14.7964 14.8497C14.7783 14.7838 14.746 14.7228 14.7016 14.6709C14.6572 14.6189 14.6019 14.5774 14.5397 14.5493C14.4775 14.5212 14.4098 14.5071 14.3415 14.5081H5.71506C5.60433 14.5065 5.49666 14.5445 5.41145 14.6152C5.32624 14.6859 5.26908 14.7848 5.25027 14.8939L0.00747811 45.0957Z" fill="white"/>
<path fill-rule="evenodd" clip-rule="evenodd" d="M35.8147 2.68855C36.6446 3.22368 37.4226 3.83521 38.1386 4.51516C41.0761 7.33177 42.568 10.9509 42.6145 15.3726C42.6192 16.014 42.5959 16.6693 42.5401 17.3433C42.381 19.3724 41.9205 21.3666 41.1737 23.26C40.0431 26.0717 38.1993 28.5403 35.824 30.4224C34.2065 31.7113 32.4007 32.7443 30.4696 33.4853C30.4668 33.4864 30.4639 33.4875 30.461 33.4885L28.3687 45.3282C28.3489 45.4364 28.2913 45.5342 28.2062 45.604C28.121 45.6737 28.0139 45.7111 27.9039 45.7093H19.2495C19.1801 45.7094 19.1116 45.694 19.0489 45.6642C18.9862 45.6344 18.931 45.591 18.8873 45.537C18.8436 45.4831 18.8126 45.42 18.7964 45.3525C18.7803 45.285 18.7795 45.2147 18.7941 45.1469L20.5477 35.2469C20.5457 35.2469 20.5438 35.2469 20.5418 35.2469L21.8386 27.8103C21.8661 27.6615 21.9413 27.5257 22.0528 27.4234C22.1643 27.3211 22.3061 27.2579 22.4567 27.2432C24.8239 27.0443 27.0833 26.1663 28.9637 24.7148C31.1761 22.9548 32.5039 20.4961 32.947 17.3386C33.3064 14.4632 32.7688 12.1532 31.3341 10.4087C29.9863 8.75402 27.9923 7.8384 25.3616 7.61995C25.3034 7.61535 25.2457 7.60924 25.1879 7.60311C25.0702 7.59065 24.9518 7.57812 24.8271 7.57812H18.7059L12.8775 7.55487H3.93963C3.91351 7.55312 3.88875 7.54261 3.86935 7.52504C3.84996 7.50746 3.83706 7.48385 3.83276 7.45803C3.82845 7.43221 3.833 7.4057 3.84564 7.38279C3.85829 7.35987 3.87831 7.3419 3.90244 7.33178L20.5046 1.08505C23.1542 0.129322 25.9887 -0.201537 28.7871 0.118285C30.0277 0.285056 31.2474 0.581026 32.4264 1.00138C33.6154 1.43533 34.7519 2.00126 35.8147 2.68855Z" fill="url(#paint0_linear)"/>
<path d="M58.115 28.9446L56.9792 35.4189H53.2814L56.4744 17.0435L62.9108 17.0561C64.8964 17.0561 66.4572 17.6072 67.593 18.7094C68.7289 19.8116 69.2253 21.2503 69.0822 23.0256C68.9476 24.8261 68.1946 26.2648 66.8232 27.3418C65.4602 28.4187 63.7185 28.9572 61.5983 28.9572L58.115 28.9446ZM58.6325 25.8778L61.7119 25.903C62.7047 25.903 63.5292 25.6464 64.1855 25.1332C64.8417 24.62 65.233 23.9258 65.3592 23.0508C65.4854 22.1758 65.3424 21.4775 64.9301 20.9558C64.5262 20.4342 63.9247 20.1565 63.1254 20.1229L59.6421 20.1102L58.6325 25.8778Z" fill="white"/>
<path d="M77.1089 35.4189C76.9995 35.0739 76.9532 34.6617 76.97 34.1821C75.9436 35.2086 74.7825 35.705 73.4868 35.6713C72.292 35.6545 71.2992 35.2675 70.5084 34.5102C69.7259 33.7446 69.3599 32.8022 69.4104 31.6832C69.4693 30.194 70.0919 29.054 71.2782 28.2631C72.4729 27.4638 74.0715 27.0641 76.074 27.0641L77.7399 27.0894L77.9166 26.269C77.9671 25.9914 77.9797 25.7264 77.9544 25.4739C77.9124 25.0785 77.7609 24.7714 77.5001 24.5527C77.2477 24.3255 76.9111 24.2077 76.4905 24.1993C75.9352 24.1825 75.464 24.3213 75.077 24.6158C74.6899 24.9018 74.4417 25.3183 74.3324 25.8652L70.7608 25.8778C70.8197 24.5737 71.417 23.5178 72.5529 22.7101C73.6971 21.8939 75.1064 21.4943 76.7807 21.5111C78.3289 21.5448 79.5404 22.0075 80.4154 22.8994C81.2905 23.7828 81.6565 24.9229 81.5134 26.3195L80.4659 32.8569L80.4028 33.6647C80.386 34.262 80.4575 34.7668 80.6174 35.1791L80.6047 35.4189H77.1089ZM74.3702 32.9074C75.3967 32.9411 76.2927 32.4952 77.0584 31.5696L77.5001 29.2096L76.2633 29.197C74.9508 29.2307 74.0042 29.6303 73.4237 30.3959C73.2133 30.6736 73.0829 31.0143 73.0325 31.4182C72.9651 31.8725 73.0577 32.2343 73.3101 32.5036C73.5709 32.7644 73.9243 32.899 74.3702 32.9074Z" fill="white"/>
<path d="M88.379 30.2193L92.2787 21.7635H96.2415L88.2528 37.476C87.6806 38.6792 87.0075 39.5626 86.2335 40.1263C85.4678 40.6901 84.5802 40.9719 83.5706 40.9719C83.1751 40.9719 82.603 40.8836 81.8542 40.7069L82.1192 37.9304L82.6114 37.9556C83.7725 37.9893 84.6223 37.5644 85.1608 36.6809L85.9432 35.2296L83.7094 21.7635H87.3946L88.379 30.2193Z" fill="white"/>
<path d="M103.41 28.6922H100.406L99.2326 35.4189H95.5348L98.7278 17.0435L104.811 17.0561C106.847 17.0561 108.412 17.5357 109.506 18.4948C110.608 19.454 111.096 20.7875 110.97 22.4955C110.793 25.0196 109.447 26.7739 106.931 27.7583L109.518 35.217V35.4189H105.581L103.41 28.6922ZM100.936 25.6254L103.688 25.6506C104.664 25.6338 105.467 25.373 106.098 24.8682C106.738 24.3549 107.12 23.6608 107.247 22.7858C107.364 21.9697 107.234 21.3302 106.855 20.8675C106.477 20.4047 105.875 20.1565 105.051 20.1229L101.896 20.1102L100.936 25.6254Z" fill="white"/>
<path d="M119.337 35.4189C119.228 35.0739 119.181 34.6617 119.198 34.1821C118.172 35.2086 117.011 35.705 115.715 35.6713C114.52 35.6545 113.527 35.2675 112.737 34.5102C111.954 33.7446 111.588 32.8022 111.639 31.6832C111.697 30.194 112.32 29.054 113.506 28.2631C114.701 27.4638 116.3 27.0641 118.302 27.0641L119.968 27.0894L120.145 26.269C120.195 25.9914 120.208 25.7264 120.183 25.4739C120.141 25.0785 119.989 24.7714 119.728 24.5527C119.476 24.3255 119.139 24.2077 118.719 24.1993C118.163 24.1825 117.692 24.3213 117.305 24.6158C116.918 24.9018 116.67 25.3183 116.561 25.8652L112.989 25.8778C113.048 24.5737 113.645 23.5178 114.781 22.7101C115.925 21.8939 117.335 21.4943 119.009 21.5111C120.557 21.5448 121.769 22.0075 122.644 22.8994C123.519 23.7828 123.885 24.9229 123.742 26.3195L122.694 32.8569L122.631 33.6647C122.614 34.262 122.686 34.7668 122.846 35.1791L122.833 35.4189H119.337ZM116.598 32.9074C117.625 32.9411 118.521 32.4952 119.287 31.5696L119.728 29.2096L118.491 29.197C117.179 29.2307 116.232 29.6303 115.652 30.3959C115.442 30.6736 115.311 31.0143 115.261 31.4182C115.193 31.8725 115.286 32.2343 115.538 32.5036C115.799 32.7644 116.152 32.899 116.598 32.9074Z" fill="white"/>
<path d="M130.607 30.2193L134.507 21.7635H138.47L130.481 37.476C129.909 38.6792 129.236 39.5626 128.462 40.1263C127.696 40.6901 126.808 40.9719 125.799 40.9719C125.403 40.9719 124.831 40.8836 124.082 40.7069L124.347 37.9304L124.84 37.9556C126.001 37.9893 126.85 37.5644 127.389 36.6809L128.171 35.2296L125.938 21.7635H129.623L130.607 30.2193Z" fill="white"/>
<defs>
<linearGradient id="paint0_linear" x1="70.4697" y1="16.7537" x2="-5.30759" y2="19.4757" gradientUnits="userSpaceOnUse">
<stop offset="0.05" stop-color="white"/>
<stop offset="0.54" stop-color="white"/>
</linearGradient>
</defs>
</svg>
