<svg width="90" height="30" viewBox="0 0 90 30" fill="none" xmlns="http://www.w3.org/2000/svg">
<path d="M12.5113 29.7093H18.1363C18.2078 29.7105 18.2774 29.6862 18.3327 29.6409C18.3881 29.5955 18.4255 29.532 18.4384 29.4616L19.8008 21.7522C17.7393 22.5185 15.5564 22.9064 13.3571 22.8971L12.2152 29.3438C12.2058 29.3879 12.2063 29.4336 12.2168 29.4775C12.2273 29.5213 12.2474 29.5623 12.2758 29.5974C12.3042 29.6324 12.3401 29.6607 12.3809 29.6801C12.4216 29.6994 12.4662 29.7094 12.5113 29.7093Z" fill="#142832"/>
<path d="M0.00486048 29.3105C-0.00347747 29.3594 -0.00106616 29.4095 0.011927 29.4573C0.0249201 29.5052 0.0481838 29.5496 0.080098 29.5876C0.112012 29.6255 0.151809 29.6561 0.196725 29.6771C0.241641 29.6981 0.290597 29.7091 0.340184 29.7092H5.88662C5.96656 29.7091 6.04392 29.6809 6.1052 29.6295C6.16647 29.5782 6.20779 29.507 6.22194 29.4283L7.36083 22.8819L8.24295 17.7463L9.62351 9.78317C9.63106 9.73943 9.62888 9.69455 9.61712 9.65174C9.60536 9.60894 9.58431 9.56926 9.55546 9.53551C9.52662 9.50176 9.49069 9.47479 9.45024 9.4565C9.40979 9.43822 9.36581 9.42907 9.32142 9.42972H3.71457C3.6426 9.42867 3.57262 9.45336 3.51724 9.49933C3.46185 9.5453 3.4247 9.60953 3.41247 9.68046L0.00486048 29.3105Z" fill="#142832"/>
<path d="M24.7888 2.93468C24.3234 2.49274 23.8177 2.09527 23.2783 1.74746C22.5875 1.30074 21.8488 0.932908 21.076 0.650856C20.3097 0.377644 19.5169 0.185275 18.7106 0.0768806C16.8918 -0.130991 15.0494 0.084054 13.3273 0.70524L2.53656 4.76538C2.52087 4.77195 2.50786 4.78363 2.49964 4.79853C2.49142 4.81342 2.48847 4.83065 2.49126 4.84743C2.49406 4.86422 2.50244 4.87956 2.51505 4.89099C2.52765 4.90241 2.54375 4.90924 2.56072 4.91037H8.36998L12.1582 4.92548H16.1368C16.2576 4.92548 16.3694 4.94361 16.4842 4.95267C18.1941 5.09466 19.49 5.68978 20.3661 6.76523C21.2986 7.89909 21.648 9.40049 21.4144 11.2694C21.1264 13.3217 20.2634 14.9197 18.8254 16.0637C17.6032 17.0071 16.1347 17.5778 14.5961 17.7071C14.4982 17.7166 14.4061 17.7577 14.3336 17.8241C14.2611 17.8906 14.2122 17.9789 14.1943 18.0756L13.3515 22.9091C15.5538 22.9194 17.7399 22.5315 19.8042 21.7642C21.0593 21.2826 22.233 20.6111 23.2843 19.7734C24.8282 18.5501 26.0266 16.9456 26.7614 15.1181C27.2468 13.8875 27.5462 12.5913 27.6496 11.2725C27.6858 10.8344 27.7009 10.4085 27.6979 9.99159C27.6677 7.11767 26.698 4.76537 24.7888 2.93468Z" fill="#142832"/>
<path d="M37.7725 18.8129L37.0343 23.021H34.6309L36.7062 11.0776L40.8896 11.0858C42.1802 11.0858 43.1946 11.444 43.9329 12.1604C44.6711 12.8768 44.9938 13.8119 44.9008 14.9658C44.8133 16.1361 44.3239 17.0712 43.4325 17.7712C42.5466 18.4711 41.4146 18.8211 40.0365 18.8211L37.7725 18.8129ZM38.1089 16.8196L40.1104 16.836C40.7556 16.836 41.2916 16.6692 41.7181 16.3357C42.1447 16.0021 42.3989 15.5509 42.481 14.9822C42.563 14.4135 42.47 13.9596 42.2021 13.6205C41.9396 13.2815 41.5486 13.101 41.0291 13.0791L38.7651 13.0709L38.1089 16.8196Z" fill="#142832"/>
<path d="M50.1178 23.021C50.0467 22.7968 50.0166 22.5288 50.0276 22.2171C49.3604 22.8843 48.6058 23.2069 47.7636 23.185C46.9871 23.1741 46.3418 22.9225 45.8277 22.4304C45.3192 21.9327 45.0813 21.3202 45.1141 20.5929C45.1524 19.625 45.557 18.884 46.3281 18.37C47.1046 17.8504 48.1437 17.5907 49.4452 17.5907L50.528 17.6071L50.6428 17.0739C50.6756 16.8934 50.6838 16.7212 50.6674 16.5571C50.6401 16.3001 50.5416 16.1005 50.3721 15.9583C50.208 15.8107 49.9893 15.7341 49.7159 15.7286C49.355 15.7177 49.0487 15.8079 48.7972 15.9993C48.5456 16.1853 48.3843 16.456 48.3132 16.8114L45.9918 16.8196C46.0301 15.972 46.4183 15.2857 47.1566 14.7607C47.9003 14.2303 48.8163 13.9705 49.9045 13.9814C50.9108 14.0033 51.6982 14.3041 52.267 14.8838C52.8357 15.458 53.0736 16.1989 52.9806 17.1067L52.2998 21.3558L52.2588 21.8808C52.2478 22.269 52.2943 22.5972 52.3982 22.8651L52.39 23.021H50.1178ZM48.3378 21.3886C49.005 21.4105 49.5874 21.1206 50.085 20.5191L50.3721 18.9852L49.5682 18.977C48.7151 18.9988 48.0999 19.2586 47.7226 19.7562C47.5859 19.9367 47.5011 20.1582 47.4683 20.4207C47.4246 20.716 47.4847 20.9511 47.6488 21.1261C47.8183 21.2956 48.048 21.3831 48.3378 21.3886Z" fill="#142832"/>
<path d="M57.443 19.6414L59.9776 14.1455H62.5533L57.3609 24.358C56.9891 25.14 56.5516 25.7142 56.0485 26.0806C55.5508 26.447 54.9739 26.6302 54.3177 26.6302C54.0606 26.6302 53.6888 26.5728 53.2021 26.458L53.3743 24.6533L53.6943 24.6697C54.4489 24.6916 55.0012 24.4155 55.3512 23.8413L55.8598 22.8979L54.4079 14.1455H56.8031L57.443 19.6414Z" fill="#142832"/>
<path d="M67.2125 18.6489H65.2603L64.4974 23.021H62.094L64.1693 11.0776L68.123 11.0858C69.4464 11.0858 70.4636 11.3975 71.1745 12.021C71.8909 12.6444 72.2081 13.5111 72.126 14.6213C72.0112 16.2618 71.1362 17.402 69.5011 18.0418L71.1827 22.8897V23.021H68.6234L67.2125 18.6489ZM65.6048 16.6556L67.393 16.672C68.0273 16.661 68.5496 16.4915 68.9597 16.1634C69.3753 15.8298 69.6242 15.3787 69.7062 14.8099C69.7828 14.2795 69.698 13.8639 69.4519 13.5631C69.2058 13.2623 68.8148 13.101 68.2789 13.0791L66.2282 13.0709L65.6048 16.6556Z" fill="#142832"/>
<path d="M77.5645 23.021C77.4934 22.7968 77.4633 22.5288 77.4743 22.2171C76.8071 22.8843 76.0525 23.2069 75.2103 23.185C74.4338 23.1741 73.7885 22.9225 73.2744 22.4304C72.7659 21.9327 72.528 21.3202 72.5608 20.5929C72.5991 19.625 73.0037 18.884 73.7748 18.37C74.5513 17.8504 75.5904 17.5907 76.8919 17.5907L77.9747 17.6071L78.0895 17.0739C78.1223 16.8934 78.1305 16.7212 78.1141 16.5571C78.0868 16.3001 77.9883 16.1005 77.8188 15.9583C77.6547 15.8107 77.436 15.7341 77.1626 15.7286C76.8016 15.7177 76.4954 15.8079 76.2439 15.9993C75.9923 16.1853 75.831 16.456 75.7599 16.8114L73.4385 16.8196C73.4768 15.972 73.865 15.2857 74.6033 14.7607C75.347 14.2303 76.263 13.9705 77.3512 13.9814C78.3575 14.0033 79.1449 14.3041 79.7137 14.8838C80.2824 15.458 80.5203 16.1989 80.4273 17.1067L79.7465 21.3558L79.7055 21.8808C79.6945 22.269 79.741 22.5972 79.8449 22.8651L79.8367 23.021H77.5645ZM75.7845 21.3886C76.4517 21.4105 77.0341 21.1206 77.5317 20.5191L77.8188 18.9852L77.0149 18.977C76.1618 18.9988 75.5466 19.2586 75.1693 19.7562C75.0326 19.9367 74.9478 20.1582 74.915 20.4207C74.8712 20.716 74.9314 20.9511 75.0955 21.1261C75.265 21.2956 75.4947 21.3831 75.7845 21.3886Z" fill="#142832"/>
<path d="M84.8896 19.6414L87.4243 14.1455H90L84.8076 24.358C84.4358 25.14 83.9983 25.7142 83.4952 26.0806C82.9975 26.447 82.4206 26.6302 81.7644 26.6302C81.5073 26.6302 81.1355 26.5728 80.6488 26.458L80.821 24.6533L81.141 24.6697C81.8956 24.6916 82.4479 24.4155 82.7979 23.8413L83.3065 22.8979L81.8546 14.1455H84.2498L84.8896 19.6414Z" fill="#142832"/>
</svg>
