<svg width="131" height="131" fill="none" xmlns="http://www.w3.org/2000/svg"><path d="M16.203 37.039L65.5 8.577l49.296 28.462V93.96L65.5 122.423 16.203 93.961V37.04z" fill="url(#1)" stroke="#005FA7"/><g opacity=".11" clip-path="url(#clip0_40_1074)"><path d="M62.237 21.104c0 .267 2.388 30.379 2.536 32.1l.178 1.868.876-.015c.741-.015.875-.059.934-.311.104-.445.4-4.213 1.558-18.913.563-7.298 1.067-13.631 1.112-14.062L69.52 21h-3.634c-2.003 0-3.65.044-3.65.104z" fill="url(#paint1_radial_40_1074)"/><path d="M54.048 22.38c-1.869.504-3.382.964-3.382 1.023 0 .119 9.702 27.56 10.784 30.483.371 1.008.697 1.824.742 1.824.044 0 .43-.104.846-.223l.786-.237-.282-1.661c-.238-1.424-5.607-30.616-5.845-31.743-.044-.223-.133-.401-.178-.386-.059.015-1.616.43-3.47.92z" fill="url(#paint2_radial_40_1074)"/><path d="M73.807 21.727c0 .089-1.098 6.082-2.448 13.335-2.744 14.789-3.634 19.714-3.634 19.966 0 .207 1.498.712 1.661.563.06-.059.312-.667.564-1.364C71.077 51.2 80.778 23.744 80.778 23.58c0-.089-1.438-.549-3.218-1.023-1.78-.475-3.353-.89-3.486-.935-.149-.03-.267.015-.267.104z" fill="url(#paint3_radial_40_1074)"/><path d="M43.34 26.696c-1.618.934-2.997 1.75-3.071 1.824-.09.09 3.56 5.533 9.226 13.78 5.147 7.492 9.568 13.9 9.82 14.226.252.326.474.623.49.652.044.045 1.394-.89 1.394-.964 0-.192-14.641-30.927-14.804-31.09-.06-.06-1.439.652-3.056 1.572z" fill="url(#paint4_radial_40_1074)"/><path d="M84.516 26.073c-.237.52-3.248 6.838-6.704 14.062-5.948 12.475-7.328 15.412-7.447 15.827-.03.104.253.386.623.638l.668.445.326-.356c1.039-1.202 19.224-27.842 19.09-27.976-.103-.089-2.847-1.69-6.022-3.515-.059-.03-.296.356-.534.875z" fill="url(#paint5_radial_40_1074)"/><path d="M34.068 33.816l-2.566 2.566 11.555 9.864C56.927 58.083 57.817 58.84 58.04 58.93c.193.074 1.068-.816 1.083-1.098 0-.104-.52-.8-1.142-1.557-1.024-1.217-20.752-24.386-21.168-24.846-.133-.149-.756.4-2.744 2.388z" fill="url(#paint6_radial_40_1074)"/><path d="M86.34 41.262c-11.732 13.75-13.868 16.273-13.868 16.45.015.075.237.416.519.727l.519.579 1.142-.935c1.498-1.216 24.327-20.692 24.816-21.152l.371-.356-2.522-2.522c-1.379-1.394-2.55-2.521-2.595-2.521-.045 0-3.813 4.375-8.381 9.73z" fill="url(#paint7_radial_40_1074)"/><path d="M26.978 43.057c-1.157 1.988-1.736 3.115-1.617 3.19.237.133 25.929 12.385 28.91 13.78 1.365.652 2.551 1.171 2.626 1.171.148 0 .741-1.068.741-1.305 0-.074-1.29-1.038-2.848-2.136-5.28-3.694-25.602-17.622-25.825-17.696-.148-.074-.682.727-1.987 2.996z" fill="url(#paint8_radial_40_1074)"/><path d="M93.757 45.935c-11.822 8.128-19.075 13.142-19.476 13.454l-.341.267.341.741c.237.505.415.727.564.683.563-.178 30.972-14.626 31.135-14.804.059-.06-3.382-6.111-3.53-6.2-.045-.03-3.96 2.61-8.693 5.859z" fill="url(#paint9_radial_40_1074)"/><path d="M23.507 50.251c0 .03-.43 1.573-.935 3.457-.519 1.869-.89 3.456-.845 3.515.089.089 30.779 5.8 33.553 6.245l1.29.207.09-.756c.044-.415.029-.786-.03-.845-.149-.134-2.062-.816-18.646-6.69A3264.15 3264.15 0 0123.64 50.28c-.074-.044-.118-.06-.133-.03z" fill="url(#paint10_radial_40_1074)"/><path d="M96.947 54.167c-16.984 6.038-21.049 7.476-21.553 7.699l-.49.208.149.815c.133.757.178.801.534.742 8.573-1.498 33.745-6.2 33.879-6.304.089-.074-.148-1.187-.564-2.76-1.008-3.767-1.142-4.197-1.246-4.182-.059 0-4.88 1.706-10.71 3.782z" fill="url(#paint11_radial_40_1074)"/><path d="M21 65.278v3.663l.934-.103c.505-.045 7.699-.623 15.976-1.261a5706.2 5706.2 0 0016.91-1.35l1.854-.178-.044-.786c-.045-.653-.104-.801-.327-.801-.148 0-.92-.06-1.72-.149-.816-.074-8.277-.682-16.599-1.335a3621.683 3621.683 0 01-16.05-1.26L21 61.613v3.664z" fill="url(#paint12_radial_40_1074)"/><path d="M96.576 62.682c-18.082 1.439-20.41 1.631-20.945 1.72-.445.09-.46.134-.52.846-.029.43-.058.786-.044.8.045.09 3.798.401 18.023 1.529 8.366.652 15.59 1.216 16.064 1.275l.846.09v-7.3l-.401.015c-.237.015-6.081.475-13.023 1.024z" fill="url(#paint13_radial_40_1074)"/><path d="M54.597 67.31c-11.11 2.032-32.603 6.052-32.678 6.111-.074.089 1.573 6.467 1.75 6.764.075.133 4.57-1.394 14.849-5.043 20.218-7.165 18.868-6.646 18.764-7.061-.311-1.246-.222-1.216-2.685-.771z" fill="url(#paint14_radial_40_1074)"/><path d="M74.548 67.666a16.07 16.07 0 00-.297.727c0 .088 12.164 4.435 31.314 11.199l2.017.712.934-3.486c.505-1.914.905-3.486.876-3.516-.119-.104-33.91-6.319-34.354-6.319-.104 0-.312.312-.49.683z" fill="url(#paint15_radial_40_1074)"/><path d="M55.918 69.92c-10.369 4.85-30.453 14.522-30.423 14.656.089.445 3.456 6.126 3.604 6.081.178-.059 27.204-18.645 28.673-19.698l.905-.668-.46-.608c-.252-.341-.46-.623-.475-.608-.014 0-.845.385-1.824.845z" fill="url(#paint16_radial_40_1074)"/><path d="M73.45 69.713c-.207.282-.385.578-.385.667 0 .208 1.661 1.365 16.287 11.422 10.724 7.372 12.846 8.766 13.009 8.603.4-.43 3.486-5.978 3.382-6.067-.223-.192-31.655-15.13-31.833-15.13-.044 0-.237.223-.46.505z" fill="url(#paint17_radial_40_1074)"/><path d="M57.905 72.13c-1.424 1.187-25.543 21.731-25.928 22.087-.193.178.118.55 2.299 2.73 1.38 1.394 2.566 2.521 2.61 2.521.075 0 19.224-22.353 22.369-26.106.578-.697 1.038-1.335 1.038-1.41 0-.088-.237-.34-.504-.563l-.49-.415-1.394 1.156z" fill="url(#paint18_radial_40_1074)"/><path d="M71.73 71.567l-.504.43.548.712c1.01 1.305 22.532 26.463 22.636 26.463.237 0 5.118-5.044 4.984-5.162-.356-.312-24.594-20.99-25.662-21.88-.652-.548-1.246-.993-1.335-.993-.074 0-.385.192-.667.43z" fill="url(#paint19_radial_40_1074)"/><path d="M60.056 73.762c-.578.801-5.088 7.358-10.057 14.581a4598.24 4598.24 0 01-9.285 13.499l-.253.385 3.13 1.81c3.086 1.78 3.145 1.81 3.308 1.468.4-.756 14.107-29.518 14.744-30.957l.712-1.557-.46-.193c-.252-.104-.533-.252-.637-.341-.119-.104-.445.252-1.202 1.305z" fill="url(#paint20_radial_40_1074)"/><path d="M69.772 72.783c-.311.163-.564.341-.564.415 0 .342 15.205 32.248 15.398 32.322.074.015 1.513-.756 3.204-1.72l3.055-1.766-9.211-13.409C71.448 73.777 70.544 72.472 70.41 72.487a9.923 9.923 0 00-.638.296z" fill="url(#paint21_radial_40_1074)"/><path d="M62.548 74.548c-.623 1.647-11.54 32.5-11.614 32.767-.03.163.786.445 3.426 1.172 1.899.519 3.471.92 3.486.89.06-.074 6.17-33.286 6.379-34.621l.192-1.201-.697-.134-.697-.148-.475 1.275z" fill="url(#paint22_radial_40_1074)"/><path d="M67.68 73.466c-.741.118-1.082-2.092 3.501 22.62 1.335 7.165 2.463 13.054 2.507 13.098.06.06 6.779-1.661 6.912-1.78.03-.029-9.344-26.581-11.332-32.084-.52-1.41-.772-1.958-.95-1.944-.118.015-.415.06-.637.09z" fill="url(#paint23_radial_40_1074)"/><path d="M65.13 73.985a62.08 62.08 0 00-.223 2.047c-.148 1.602-2.67 33.612-2.67 33.849 0 .074 1.646.119 3.649.119h3.634l-.089-.786c-.044-.416-.608-7.58-1.26-15.901-1.217-15.472-1.425-18.127-1.573-19.106-.09-.534-.104-.549-.742-.549-.549 0-.652.045-.727.327z" fill="url(#paint24_radial_40_1074)"/></g><defs><radialGradient id="1" cx="0" cy="0" r="1" gradientUnits="userSpaceOnUse" gradientTransform="rotate(90 0 65.5) scale(57.5)"><stop stop-color="#005FA7"/><stop offset=".49" stop-color="#005FA7" stop-opacity=".95"/><stop offset=".75" stop-color="#003A7C" stop-opacity=".7"/><stop offset="1" stop-color="#003A7C" stop-opacity="0"/></radialGradient><radialGradient xmlns="http://www.w3.org/2000/svg" id="2" cx="0" cy="0" r="1" gradientUnits="userSpaceOnUse" gradientTransform="rotate(90 0 65.5) scale(57.5)"><stop stop-color="#1C3CC6"/><stop offset=".438" stop-color="#1C3CC6" stop-opacity=".95"/><stop offset=".74" stop-color="#0E0D57" stop-opacity=".7"/><stop offset="1" stop-color="#0E0D57" stop-opacity="0"/></radialGradient><radialGradient xmlns="http://www.w3.org/2000/svg" id="3" cx="0" cy="0" r="1" gradientUnits="userSpaceOnUse" gradientTransform="rotate(90 0 65.5) scale(57.5)"><stop stop-color="#A830B2"/><stop offset=".49" stop-color="#A830B2" stop-opacity=".95"/><stop offset=".75" stop-color="#880C66" stop-opacity=".7"/><stop offset="1" stop-color="#880C66" stop-opacity="0"/></radialGradient><radialGradient xmlns="http://www.w3.org/2000/svg" id="4" cx="0" cy="0" r="1" gradientUnits="userSpaceOnUse" gradientTransform="rotate(90 0 65.5) scale(57.5)"><stop stop-color="#7336B9"/><stop offset=".49" stop-color="#7336B9" stop-opacity=".95"/><stop offset=".75" stop-color="#35104D" stop-opacity=".7"/><stop offset="1" stop-color="#35104D" stop-opacity="0"/></radialGradient><radialGradient xmlns="http://www.w3.org/2000/svg" id="5" cx="0" cy="0" r="1" gradientUnits="userSpaceOnUse" gradientTransform="rotate(90 0 65.5) scale(57.5)"><stop stop-color="#D88A00"/><stop offset=".49" stop-color="#D88A00" stop-opacity=".95"/><stop offset=".719" stop-color="#E37100" stop-opacity=".7"/><stop offset="1" stop-color="#E37100" stop-opacity=".01"/></radialGradient><radialGradient xmlns="http://www.w3.org/2000/svg" id="6" cx="0" cy="0" r="1" gradientUnits="userSpaceOnUse" gradientTransform="rotate(90 0 65.5) scale(57.5)"><stop stop-color="#DD3C23"/><stop offset=".49" stop-color="#DD3C23" stop-opacity=".95"/><stop offset=".75" stop-color="#860D0F" stop-opacity=".7"/><stop offset="1" stop-color="#860D0F" stop-opacity=".01"/></radialGradient><radialGradient xmlns="http://www.w3.org/2000/svg" id="7" cx="0" cy="0" r="1" gradientUnits="userSpaceOnUse" gradientTransform="rotate(90 0 65.5) scale(57.5)"><stop stop-color="#A92A2B" stop-opacity=".97"/><stop offset=".49" stop-color="#581617" stop-opacity=".97"/><stop offset=".75" stop-color="#461213" stop-opacity=".76"/><stop offset="1" stop-color="#350E0E" stop-opacity=".01"/></radialGradient><radialGradient id="paint1_radial_40_1074" cx="0" cy="0" r="1" gradientUnits="userSpaceOnUse" gradientTransform="matrix(0 -17.0361 3.64158 0 65.878 38.036)"><stop stop-color="#fff"/><stop offset="1" stop-color="#fff" stop-opacity="0"/></radialGradient><radialGradient id="paint2_radial_40_1074" cx="0" cy="0" r="1" gradientUnits="userSpaceOnUse" gradientTransform="matrix(0 -17.1255 6.57858 0 57.245 38.584)"><stop stop-color="#fff"/><stop offset="1" stop-color="#fff" stop-opacity="0"/></radialGradient><radialGradient id="paint3_radial_40_1074" cx="0" cy="0" r="1" gradientUnits="userSpaceOnUse" gradientTransform="matrix(0 -17.0022 6.52667 0 74.252 38.616)"><stop stop-color="#fff"/><stop offset="1" stop-color="#fff" stop-opacity="0"/></radialGradient><radialGradient id="paint4_radial_40_1074" cx="0" cy="0" r="1" gradientUnits="userSpaceOnUse" gradientTransform="matrix(0 -16.0299 10.4657 0 50.733 41.15)"><stop stop-color="#fff"/><stop offset="1" stop-color="#fff" stop-opacity="0"/></radialGradient><radialGradient id="paint5_radial_40_1074" cx="0" cy="0" r="1" gradientUnits="userSpaceOnUse" gradientTransform="matrix(0 -15.9244 10.3551 0 80.718 41.12)"><stop stop-color="#fff"/><stop offset="1" stop-color="#fff" stop-opacity="0"/></radialGradient><radialGradient id="paint6_radial_40_1074" cx="0" cy="0" r="1" gradientUnits="userSpaceOnUse" gradientTransform="matrix(0 -13.7641 13.8098 0 45.312 45.17)"><stop stop-color="#fff"/><stop offset="1" stop-color="#fff" stop-opacity="0"/></radialGradient><radialGradient id="paint7_radial_40_1074" cx="0" cy="0" r="1" gradientUnits="userSpaceOnUse" gradientTransform="matrix(0 -13.7431 13.6838 0 86.155 45.275)"><stop stop-color="#fff"/><stop offset="1" stop-color="#fff" stop-opacity="0"/></radialGradient><radialGradient id="paint8_radial_40_1074" cx="0" cy="0" r="1" gradientUnits="userSpaceOnUse" gradientTransform="matrix(0 -10.5711 16.1463 0 41.492 50.627)"><stop stop-color="#fff"/><stop offset="1" stop-color="#fff" stop-opacity="0"/></radialGradient><radialGradient id="paint9_radial_40_1074" cx="0" cy="0" r="1" gradientUnits="userSpaceOnUse" gradientTransform="matrix(0 -10.5049 16.0204 0 89.96 50.58)"><stop stop-color="#fff"/><stop offset="1" stop-color="#fff" stop-opacity="0"/></radialGradient><radialGradient id="paint10_radial_40_1074" cx="0" cy="0" r="1" gradientUnits="userSpaceOnUse" gradientTransform="matrix(0 -6.7198 17.481 0 39.204 56.956)"><stop stop-color="#fff"/><stop offset="1" stop-color="#fff" stop-opacity="0"/></radialGradient><radialGradient id="paint11_radial_40_1074" cx="0" cy="0" r="1" gradientUnits="userSpaceOnUse" gradientTransform="matrix(0 -6.63247 17.2901 0 92.194 57.017)"><stop stop-color="#fff"/><stop offset="1" stop-color="#fff" stop-opacity="0"/></radialGradient><radialGradient id="paint12_radial_40_1074" cx="0" cy="0" r="1" gradientUnits="userSpaceOnUse" gradientTransform="matrix(0 -3.66383 17.8371 0 38.837 65.278)"><stop stop-color="#fff"/><stop offset="1" stop-color="#fff" stop-opacity="0"/></radialGradient><radialGradient id="paint13_radial_40_1074" cx="0" cy="0" r="1" gradientUnits="userSpaceOnUse" gradientTransform="matrix(0 -3.649 17.4682 0 92.532 65.292)"><stop stop-color="#fff"/><stop offset="1" stop-color="#fff" stop-opacity="0"/></radialGradient><radialGradient id="paint14_radial_40_1074" cx="0" cy="0" r="1" gradientUnits="userSpaceOnUse" gradientTransform="matrix(0 -6.58177 17.7097 0 39.627 73.611)"><stop stop-color="#fff"/><stop offset="1" stop-color="#fff" stop-opacity="0"/></radialGradient><radialGradient id="paint15_radial_40_1074" cx="0" cy="0" r="1" gradientUnits="userSpaceOnUse" gradientTransform="matrix(0 -6.66017 17.5709 0 91.822 73.644)"><stop stop-color="#fff"/><stop offset="1" stop-color="#fff" stop-opacity="0"/></radialGradient><radialGradient id="paint16_radial_40_1074" cx="0" cy="0" r="1" gradientUnits="userSpaceOnUse" gradientTransform="matrix(0 -10.7917 16.5911 0 42.086 79.866)"><stop stop-color="#fff"/><stop offset="1" stop-color="#fff" stop-opacity="0"/></radialGradient><radialGradient id="paint17_radial_40_1074" cx="0" cy="0" r="1" gradientUnits="userSpaceOnUse" gradientTransform="matrix(0 -10.6045 16.3402 0 89.405 79.813)"><stop stop-color="#fff"/><stop offset="1" stop-color="#fff" stop-opacity="0"/></radialGradient><radialGradient id="paint18_radial_40_1074" cx="0" cy="0" r="1" gradientUnits="userSpaceOnUse" gradientTransform="matrix(0 -14.2474 14.1825 0 46.11 85.221)"><stop stop-color="#fff"/><stop offset="1" stop-color="#fff" stop-opacity="0"/></radialGradient><radialGradient id="paint19_radial_40_1074" cx="0" cy="0" r="1" gradientUnits="userSpaceOnUse" gradientTransform="matrix(0 -14.0175 14.0856 0 85.311 85.154)"><stop stop-color="#fff"/><stop offset="1" stop-color="#fff" stop-opacity="0"/></radialGradient><radialGradient id="paint20_radial_40_1074" cx="0" cy="0" r="1" gradientUnits="userSpaceOnUse" gradientTransform="matrix(0 -16.6178 10.947 0 51.408 89.057)"><stop stop-color="#fff"/><stop offset="1" stop-color="#fff" stop-opacity="0"/></radialGradient><radialGradient id="paint21_radial_40_1074" cx="0" cy="0" r="1" gradientUnits="userSpaceOnUse" gradientTransform="matrix(0 -16.5171 10.8283 0 80.037 89.003)"><stop stop-color="#fff"/><stop offset="1" stop-color="#fff" stop-opacity="0"/></radialGradient><radialGradient id="paint22_radial_40_1074" cx="0" cy="0" r="1" gradientUnits="userSpaceOnUse" gradientTransform="matrix(0 -18.0529 6.74214 0 57.675 91.326)"><stop stop-color="#fff"/><stop offset="1" stop-color="#fff" stop-opacity="0"/></radialGradient><radialGradient id="paint23_radial_40_1074" cx="0" cy="0" r="1" gradientUnits="userSpaceOnUse" gradientTransform="matrix(0 -17.9047 6.68041 0 73.92 91.28)"><stop stop-color="#fff"/><stop offset="1" stop-color="#fff" stop-opacity="0"/></radialGradient><radialGradient id="paint24_radial_40_1074" cx="0" cy="0" r="1" gradientUnits="userSpaceOnUse" gradientTransform="matrix(0 -18.1708 3.64158 0 65.878 91.83)"><stop stop-color="#fff"/><stop offset="1" stop-color="#fff" stop-opacity="0"/></radialGradient><clipPath id="clip0_40_1074"><path fill="#fff" transform="translate(21 21)" d="M0 0h89v89H0z"/></clipPath></defs></svg>