<svg version="1.1" id="Layer_1" xmlns="http://www.w3.org/2000/svg" x="0" y="0" viewBox="47 83 694 657" xml:space="preserve"><style>.st3_18{fill:#5bc5dd}</style><linearGradient id="SVGID_1_18" gradientUnits="userSpaceOnUse" x1="393.742" y1="1411.238" x2="393.742" y2="906.145" gradientTransform="translate(0 -708)"><stop offset="0" stop-color="#e6f1f8"/><stop offset="1" stop-color="#e6f1f8"/></linearGradient><path d="M124.2 576.3c-27.1-44.2-43-94.4-57.1-137.1-13.5-43-23.9-78.4-19.2-100.7 4.1-23 25.1-32.8 55.7-40.2 30.1-8 68.5-14.3 100.1-41.1 70.2-44.5 118.4-125.3 195.6-156.2 73.3-35.3 179.4-13.8 254.7 44.5 149.6 113.7 81.9 267-24.6 450.2-53.9 90-125.5 156.1-236.1 141.6-108-11.1-217.7-72.4-269.1-161" fill-rule="evenodd" clip-rule="evenodd" fill="url(#SVGID_1_18)"/><linearGradient id="SVGID_2_18" gradientUnits="userSpaceOnUse" x1="925.188" y1="-267.608" x2="1459.032" y2="-267.608" gradientTransform="matrix(1 .00818 .00818 -1 -769.348 117.813)"><stop offset="0" stop-color="#4aa3dc"/><stop offset="1" stop-color="#3364a0"/></linearGradient><path d="M666.6 318.5c11.7 40 14.2 82.9 16.5 119.5 2 36.7 3 66.8-4.5 84-7.3 17.7-24.6 22.1-48.4 22.8-23.6 1.3-52.9-.2-81.1 15.9-59.8 23.8-110.3 80.3-172.6 91.9-60.5 15.8-134.5-19.4-179-78.9-88.9-116.6-10.9-227.9 101.3-356.6C355 154.3 420 113.4 498.4 143.8c77.6 27.2 146.9 95 168.2 174.7" fill-rule="evenodd" clip-rule="evenodd" fill="url(#SVGID_2_18)"/><path d="M548.6 164.2c52.4 7.2 100.6 21.4 133.8 37 33.6 15.9 52 33.3 54.8 51 3.2 17.8-9.2 35.7-27.7 56.4-18.2 20.8-42.5 44.5-53.1 77.2-29.1 63.2-23.1 137.1-50.8 190.6-24.3 54.1-82.3 87.6-160.1 87.3-152.6 0-272.5-122-274.7-274.7.8-75.6 29.3-145.1 98.1-185.5 66.5-41.6 173.3-54.2 279.7-39.3" fill-rule="evenodd" clip-rule="evenodd" fill="#1f2c3d"/><path class="st3_18" d="M356.9 614.1c-.5-1.3-.5-2.3 0-3 .3-.4.8-.7 1.3-.3.7.3.9 1.1.5 1.6s-1 1.1-1.8 1.7zM212.2 464.7c-.1-.1-.5-.4-.7-.7-.3-.8.4-1.7 1.2-1.8.4 0 1.1.5 1.1.9-.1.8-.7 1.4-1.6 1.6zM398 435.2c-.7-1.2-.4-1.9.2-2.4.4-.4.8-.5 1.3-.3.5.4.7 1.2.1 1.6-.6.4-1.1.7-1.6 1.1zm136.1-96.6c-.3-.4-.5-.9-.5-1.3s.3-.9.7-1.2c.3-.1.8-.1 1.1 0 .3.1.3.7.3 1.1-.4.8-.6 1.4-1.6 1.4zM409.4 483.2c0-1.2-.1-1.7 0-2.3.1-.3.5-.5.9-.7.3-.1.7 0 .8.1.1.1.3.5.3.8 0 1.1-.8 1.4-2 2.1zm207-95.7c-.8 0-1.6.1-2.8.1.3-.7.3-1.2.5-1.3 1.1-.4 1.8.3 2.3 1.2zm-144.5 95.1c.1-.7 0-1.3.3-2 .1-.3.8-.4 1.3-.5.1.4.5 1.1.4 1.3-.3.5-.9 1.1-1.3 1.4-.3 0-.4-.1-.7-.2zM357.7 337.2c.3-1.5.4-2.2.6-3 1.2-.1 1.5.7 1.7 1.6-.6.3-1.1.7-2.3 1.4zm-68.9 44.6c-.5-1.5-.1-2 .5-2.4.3-.1.7-.1.8 0 .1.1.4.7.3.8l-1.6 1.6zm147.3 43.9c0-.4-.1-.8 0-.9.1-.5.5-.9 1.1-.8.1 0 .4.1.4.4.3.7-.1.9-.5 1.2-.2 0-.5 0-1 .1zm-157.4 105c-.1-.1-.1-.1-.1-.3 0-1.3.1-1.9.9-1.8.3 0 .7.3.7.5.3.9-.4 1.3-1.1 1.6h-.4zm421.1-296.8c-.1.7-1.3 1-1.7.5-.1-.1-.1-.4-.1-.5.3-.7.9-.8 1.6-.5.1.2.1.4.2.5zM577 326.1c-.4-.1-.7-.3-1.2-.4.7-.9 1.1-1.7 2.5-1.2-.6.7-1 1.2-1.3 1.6zm-.1.1c.1.1.4.1.5.3.3.3.5.7.5.9-.1.3-.5.5-.9.7-.4.1-.8-.1-1.1-.1-.2-1.1.6-1.4 1-1.8zm-42.3 223.9c-.3-.5-.5-.8-.5-.9.1-.4.5-.7.8-1.1.3.3.7.7.7.8-.2.4-.6.8-1 1.2zM494 198.6c.4-.4.7-.8 1.1-1.2.1-.1.7.1.8.3.1.3.1.7 0 .8-.4.3-.9.4-1.3.7-.3-.2-.5-.3-.6-.6zm-81.1 296.5c.1.1.3.3.4.5.1.7.3 1.2-.5 1.5-.1 0-.4 0-.5-.1-.5-.5-.3-1.1.3-1.6-.1-.3 0-.3.3-.3zm34.9-46.8c.4.3.8.5.7.7-.1.4-.3.7-.5.9-.1.1-.5-.1-.8-.3.2-.4.4-.8.6-1.3zm69.6-44.9c.1.4.3.7.3.9-.1.4-.3.7-.5.9 0 0-.4 0-.5-.1-.4-.4-.4-.9 0-1.3 0-.1.3-.3.7-.4zm19.6-68.9c.3.4.8.7.7.9 0 .3-.4.5-.7.8-.1-.3-.5-.5-.5-.9 0-.1.3-.4.5-.8zm-34.2 39.8c.3.5.5.9.8 1.5 0 0-.3.3-.4.3-.5 0-1.1-.7-.9-1.2-.2-.4.1-.4.5-.6zm-10.9-15c.5 0 1.1-.1 1.6-.1 0 0 .1.4.1.5-.1.5-1.1.7-1.5.4-.1-.1-.1-.2-.2-.8zm2.5-15.4c.5 0 1.1-.1 1.6-.1 0 0 .1.4.1.5-.1.5-1.1.7-1.5.4-.1 0-.1-.3-.2-.8zm86.3-12.6c-.9.1-1.5-.1-1.7-1.3 1 0 1.7.2 1.7 1.3zm-50.1 89.3c-.1-.3-.3-.7-.1-.9.1-.3.5-.5.9-.7 0 0 .4.3.4.4 0 .3-.1.7-.3.8-.2.3-.6.3-.9.4 0-.1 0 0 0 0zM228.3 526.4c.3 0 .4 0 .5.1l.8.8c-.3.1-.4.4-.7.5-.3-.3-.5-.7-.7-.9-.1-.1-.1-.2.1-.5zM612.6 342c0 .8-.4.9-.9 1.1-.1 0-.4-.1-.5-.3-.3-.4.3-1.1.8-1.1.2-.1.5.2.6.3zm21.1-127.3c.3.4.5.5.7.8-.3.3-.5.5-.9.7-.1 0-.4-.3-.5-.5.2-.3.4-.6.7-1zm-126.6-43.8c-.4.1-.9.3-1.3.4 0 0-.3-.3-.3-.5 0-.5.7-.8 1.2-.7.1.1.1.4.4.8zm7.8 380.3c-.3-.5-.5-.8-.5-.9.1-.3.5-.5.8-.8.1.3.5.5.4.7.1.3-.3.6-.7 1zm-224-182.1c-.7.3-1.1.4-1.5.7-.1-.1-.3-.4-.3-.5l.8-.8c.4-.2.6.2 1 .6zM635 326.2c-.4.1-.9.3-1.3.4 0 0-.3-.4-.1-.5.1-.5.8-.8 1.2-.5 0-.1 0 .2.2.6zm-96.5 190.7c-.3.3-.5.5-.8.5-.1 0-.5-.4-.5-.5 0-.3.4-.5.5-.5.2 0 .4.4.8.5zM558 325.2c-1.2.4-1.6.8-1.9.6-.3-.1-.4-.5-.7-.8.4-.1.7-.3 1.1-.3.5.1.8.2 1.5.5zm-234.2 40.1l.5.5c-.3.3-.4.5-.7.8-.1-.1-.5-.4-.5-.5.2-.5.4-.6.7-.8zm-79.3 166.6c.4-.3.7-.5.9-.8.1.3.4.4.4.7 0 .3-.3.5-.5.7-.1-.1-.4-.4-.8-.6zm145.6-9.9c-.3.1-.4.4-.7.5-.1-.3-.3-.4-.5-.7.3-.1.4-.4.7-.4.1.1.3.4.5.6zm-60.3-272.8c-.3-.3-.4-.4-.7-.5.1-.3.4-.5.5-.5.1 0 .4.3.7.4-.1.1-.2.3-.5.6zm172.3 204.7c-.7.4-.9.7-1.2.7-.1 0-.4-.4-.4-.5 0-.3.4-.4.5-.5.5-.1.7 0 1.1.3zm96-154.4c.4-.3.5-.5.8-.5.1 0 .4.3.7.5-.3.1-.4.4-.7.5-.1-.1-.4-.4-.8-.5zM372.5 472.9c-.4-.4-.7-.5-.7-.8 0-.3.3-.5.4-.7.1-.1.7.1.7.3 0 .4-.1.6-.4 1.2zm22.7 73.2c-.3.3-.5.5-.8.5-.1 0-.4-.3-.5-.5.3-.1.4-.5.7-.5.1-.1.4.3.6.5zM268.3 438.4c-.3.1-.7.4-.9.5l-.3-.4c.3-.3.5-.5.8-.7.2 0 .2.3.4.6zm103.3-80.3c-.3-.3-.4-.4-.7-.4l.8-.8c.1.1.5.4.5.5-.1.3-.4.4-.6.7zm139.3 114.7c-.3-.4-.5-.7-.4-.9.1-.3.4-.5.7-.8.1.3.4.4.4.7-.1.3-.3.5-.7 1zm45.3-.5c-.3-.5-.4-.8-.4-1.1 0-.3.3-.5.5-.7.1 0 .5.3.5.4.1.4-.2.7-.6 1.4zm38.5-215.5c-.3.1-.5.4-.7.4-.1 0-.3-.4-.4-.7.3-.1.5-.3.8-.3 0 .1.1.5.3.6zm-49.5 47.3c.3-.9.8-1.1 1.7-.5-.6.3-1.1.4-1.7.5zm2.8 292.7c-.1-.4-.4-.7-.3-.8.1-.3.4-.4.7-.5.1.3.4.5.4.7-.1.2-.5.3-.8.6z"/><path class="st3_18" d="M580.5 331.3c.3 0 .4-.1.7-.1.3.1.7.4.9.5-.1.1-.3.5-.3.4-.4-.1-.7-.1-1.1-.4 0 .1 0-.3-.2-.4zm-2.8-40.4c-.3.1-.5.1-.8.3 0 0-.1-.3-.3-.5.3-.1.5-.3.8-.3.1-.1.1.2.3.5zm-56.3 151.9c.4.3.7.4.7.5.1.4-.4.8-.8.7-.1 0-.4-.3-.3-.4.2-.4.3-.7.4-.8zM250 426.7c-.1-.3-.4-.4-.4-.5.1-.3.4-.4.5-.7.1.1.5.5.4.5.1.4-.2.5-.5.7zm360.2-44.5l-.4.4c-.1-.1-.3-.4-.4-.5.1-.1.4-.3.5-.1.2-.2.3 0 .3.2zM396.6 488.3c-.3-.1-.4-.3-.5-.4.1-.3.4-.4.5-.5l.4.3c0 .2-.1.5-.4.6zm-4.3-92.1c-.3.1-.5.3-.8.3 0-.1-.1-.4-.1-.5.1-.1.3-.3.5-.3.2-.1.3.2.4.5zM582.4 300c-.5.1-.8.3-1.2.3-.1 0-.3-.5-.3-.7.1-.3.5-.4.7-.4.2 0 .4.3.8.8zm-90.5 179c.3.1.3.3.4.4l-.7.7c-.1-.1-.3-.4-.3-.4.2-.3.3-.4.6-.7zm20.6-78.1c.3.1.5.3.7.4.1.1-.1.5-.3.7h-.3c-.1-.3-.3-.4-.3-.7.1 0 .2-.3.2-.4zm-94.9 71.8c-.5.3-.8.4-1.2.4-.1 0-.4-.3-.4-.3 0-.1.1-.4.3-.4.3-.1.5 0 1.3.3zm-9.7 146c-.1-.3-.4-.5-.4-.5.1-.3.4-.4.7-.5.1.1.3.4.3.5-.1.2-.4.3-.6.5zm126.2-276.1c-.5.3-.8.5-1.2.5-.1 0-.4-.5-.4-.7.1-.3.4-.4.7-.4s.5.3.9.6zm-60.4-38.7c.1.3.4.4.4.5 0 .5-.4.7-.8.5-.1 0-.3-.4-.1-.5-.1-.1.2-.2.5-.5zm-100 148.7c-.3.1-.4.4-.7.5 0 0-.3-.1-.4-.3l.5-.5c.2-.1.5.2.6.3zm-24.4-271.5c-.3-.1-.4-.3-.5-.4.1-.1.3-.4.4-.4.1 0 .4.1.5.1-.1.2-.3.5-.4.7zm150 229.7c.1.4.4.8.4.9-.3.3-.7.4-.9.5l-.3-.4c.3-.3.5-.6.8-1zm-231.8 17.9c-.1.1-.4.3-.7.5-.1-.3-.3-.4-.4-.7.3-.1.4-.3.7-.4.3.2.3.3.4.6zm428-106c-.3.1-.5.3-.8.3-.1 0-.3-.3-.3-.4.3-.1.4-.3.7-.4.1 0 .3.2.4.5zM553.9 507c0 .1.3.4.1.5s-.3.1-.4.3c0-.1-.1-.4-.1-.5 0-.2.3-.2.4-.3zm-22.1-81.6c-.1.5 0 .9-.3 1.2-.1.3-.5-.3-.4-.7.1-.1.4-.2.7-.5zm77.3-35.3c-.1-.1-.3-.3-.3-.4.3-.1.4-.3.7-.4 0 .1.1.4.1.5-.3.2-.4.3-.5.3zM498 439c0-.1-.1-.4-.1-.5.1-.1.3-.1.5-.3 0 .1.1.4.1.5 0 .2-.2.2-.5.3zm67.9-56.3c-.3 0-.5.1-.8.1-.1 0-.1-.3-.1-.5.3-.1.5-.1.8-.3-.1.2 0 .5.1.7zm-26.7-20.2c0 .3 0 .4-.1.5-.1.3-.4.4-.7.5 0 0-.4-.3-.3-.4.1-.3.3-.5.5-.7.2.1.5.1.6.1zm48.8 151l.4.4c-.1.1-.4.3-.5.4-.1-.1-.3-.4-.1-.5-.2-.2.1-.2.2-.3zm2.7-271.4c-.3.1-.5.1-.8.1l-.1-.4c.3-.1.5-.3.7-.4-.1.1 0 .4.2.7zm1.6-54.2c-.3-.1-.4-.3-.5-.3.1-.3.3-.5.5-.7 0 0 .3.1.5.3-.2.3-.4.4-.5.7zM700.8 268c.3.1.4.1.7.3-.1.3-.1.5-.4.7l-.5-.1c0-.4.1-.6.2-.9zm-88.9 69v-.5l.3-.1c.1.1.1.3.3.4-.3.1-.5.2-.6.2zm-37.9-4.2c-.1.1-.1.4-.3.5-.1.1-.3.1-.4.1v-.8c0-.1.3-.3.4-.3.1.3.2.4.3.5zm37.1 58c.1.1.1.3.3.5-.1 0-.4.1-.5.1-.1 0-.1-.3-.1-.4-.1-.1.1-.2.3-.2zm-136-111l.3.3c-.1.1-.3.1-.5.3 0 0-.1-.1-.3-.1l.5-.5zm-18.6 222.8c-.1.1-.1.4-.3.5-.1 0-.4-.1-.5-.1.1-.1.1-.4.3-.5.1-.1.4.1.5.1zm122.1-318.8c.1-.1.3-.3.4-.3.1 0 .3.1.4.3-.1.1-.3.3-.4.3-.2 0-.3-.2-.4-.3zm-175 412.4c.1.1.3.3.3.4-.1.1-.3.1-.5.3 0 0-.1-.1-.3-.1.2-.3.3-.4.5-.6zm189-311.6c-.3-.1-.4-.1-.7-.3.3-.3.4-.5.7-.7.1.1.4.3.3.4-.1.4-.2.5-.3.6zM393.7 426.1l-.4.4c-.1-.1-.1-.3-.3-.5 0 0 .1-.1.3-.1.1 0 .3.1.4.2zm127.2 168.1c.1 0 .3-.1.4-.1 0 .1.1.3.1.3-.1.1-.3.1-.4.1-.1-.2-.1-.2-.1-.3zM259 493.7c-.3.1-.5.1-.8.3 0-.1-.1-.4 0-.5.1-.1.3-.3.5-.3.1.1.2.2.3.5zm253.5.9h-.5c0-.1.1-.3.1-.3h.5c-.1.1-.1.1-.1.3zm-97.5-2.4c-.1.1-.3.3-.3.4-.1-.1-.1-.3-.3-.4l.1-.3c.2 0 .4.1.5.3zm76.9 91.2l-.4.4c-.1-.1-.3-.4-.4-.5.1-.1.4-.1.5-.3.2 0 .3.2.3.4zm59.7-291.6c-.1.1-.4.1-.5.3 0-.1-.3-.4-.1-.5.1-.1.4-.1.5-.1-.1-.1.1.2.1.3zM428.3 488.6c.3.3.3.4.4.5-.3.1-.4.3-.7.5 0-.1-.1-.3-.1-.3.1-.2.3-.3.4-.7zm92.9-132.7c-.1.1-.3.3-.4.3-.1-.1-.1-.3-.3-.4 0 0 .1-.1.3-.1.2 0 .3 0 .4.2zm29.1 94.4c-.1.1-.4.1-.5.3 0-.1-.1-.4-.1-.5.1 0 .4-.1.5-.1-.1-.1-.1.2.1.3zm-270.9 35.3c.1.1.3.1.4.3-.1.1-.3.3-.5.3 0 0-.3-.1-.1-.1-.1-.2 0-.3.2-.5zm113.7 88.3c0 .1.3.4.1.5-.1.1-.4.1-.5.3 0-.1-.1-.4-.1-.4.1-.3.4-.3.5-.4zm46.4-.3c-.1 0-.4.1-.5.1-.1 0-.3-.4-.1-.4.1-.1.3-.1.5-.3.1.3.1.5.1.6zm72-175.7c.1.1.3.3.3.4 0 .1-.3.3-.4.3 0-.1-.1-.1-.1-.3-.1-.1 0-.2.2-.4zM516 422c.3.1.4.3.5.3-.1.3-.3.4-.4.5-.1 0-.3-.1-.5-.3.2 0 .3-.3.4-.5zm-74.9 150.3c-.3.1-.4.1-.7.3 0-.1-.1-.4-.1-.5.1-.1.4-.3.5-.4.2.1.2.3.3.6zm134.4-.4c-.3 0-.5.1-.7.1-.1 0-.1-.3-.3-.5.3-.1.5-.1.7-.3.2.2.3.3.3.7zM204.8 298.3h-.8c0-.1 0-.4.1-.5s.4-.1.5-.1c.1.2.1.3.2.6zm304.3 133.4c.1.3.3.3.4.4-.3.1-.4.3-.7.4l-.1-.1c.1-.3.2-.4.4-.7zM248.2 554.1c-.1.1-.3.1-.4.3 0-.1-.1-.3-.1-.4.1 0 .3-.1.5-.1v.2zm214.7 1.3c-.1 0-.4.1-.5.1 0-.1-.1-.4-.1-.4.1-.1.3-.1.5-.3.1.3.1.4.1.6zM212 446.1c-.1.1-.3.3-.4.3 0-.1-.1-.3-.1-.4 0 0 .1-.1.3-.1-.1.1 0 .2.2.2zm161.4-1.2h-.5c0-.1.1-.3.1-.3h.5s-.1.2-.1.3zM558 235.4l.4.4c-.3.1-.4.3-.7.4l-.3-.1c.3-.1.5-.4.6-.7zM449.2 374.6c-.1.1-.3.1-.5.3 0-.1-.1-.4-.1-.4.1-.1.3-.1.4-.3.2 0 .2.2.2.4zm-175.3 28.2c-.3.3-.4.5-.5.5-.1 0-.4-.1-.5-.1.3-.3.4-.5.7-.8-.1-.1.1.1.3.4zm308.7-94.9c-.1.1-.1.4-.3.5-.1-.1-.4-.1-.5-.3 0-.1.1-.4.1-.5.4.1.5.1.7.3zM366.7 472.2c-.1-.3-.3-.4-.3-.5.1-.1.4-.3.5-.4 0 0 .1.1.1.3.1 0-.2.3-.3.6zm213.9-161.8c-.1.1-.1.3-.3.4-.1-.1-.1-.3-.3-.4.1-.1.3-.3.4-.3.2.1.2.3.2.3zm-240.3 64c-.3.1-.4.3-.7.4-.1 0-.3-.3-.3-.3l.5-.5c.2 0 .4.1.5.4zm121.8 1.4c.3-.4.4-1.1.7-1.2.3-.1 1.1.3 1.2.5.1.4-.3 1.2-.5 1.2-.5 0-1-.4-1.4-.5zm0-5.3c.1-.3.1-.5.4-.7.1-.1.5.1.5.3 0 .1-.1.5-.3.7-.2 0-.4-.2-.6-.3zm54.8 38.5c-.1.1-.4.1-.5.3 0-.1-.1-.4-.1-.5.1 0 .4-.1.5-.1 0-.1.1.1.1.3zm65.2-93.6c-.3-.5 1.1-1.8 1.7-1.6.4.1.7 1.2.1 1.7-.6.6-1.7.3-1.8-.1zm-327.4-72.5c-.1-.1-.3-.1-.4-.3.1-.1.3-.3.4-.3 0 0 .1.1.3.1-.2.1-.2.4-.3.5zm23.9 1.1c-.5.3-.8.4-1.2.4-.1 0-.4-.3-.4-.3 0-.1.1-.4.3-.4.3-.1.5.2 1.3.3zm58.9 71.7h-.8c0-.1 0-.4.1-.4.1-.1.3-.1.5-.3 0 .3 0 .4.2.7zm95.4 60.5l.4-.4c.1.1.1.3.3.4l-.1.3c-.2-.1-.3-.3-.6-.3zM577.4 319c-.1.1-.1.4-.3.5-.1 0-.4-.1-.5-.1.1-.1.1-.4.3-.4.2-.3.3-.2.5 0zM292.8 540.1c-.3.1-.5.1-.7.3 0-.1-.1-.4-.1-.5l.4-.4c.2 0 .3.3.4.6zm222.6-124.8c-.1-.1-.3-.3-.3-.4.3-.1.4-.3.7-.4 0 .1.3.4.1.5-.1.3-.3.3-.5.3zm-66.9-94.2c-.1-.1-.1-.3-.3-.5.3-.1.5-.3.7-.3 0 .1.1.4 0 .5 0 .2-.3.2-.4.3zm126.9-74.5c-.1.1-.1.4-.3.4-.1 0-.3-.1-.5-.1.1-.1.1-.4.3-.4.1-.1.4.1.5.1zm-89 215.4v-.5s.1-.1.3-.1c.1.1.1.3.3.3-.3.2-.4.3-.6.3zm-190.1-33.4c-.1.1-.1.4-.3.5-.1 0-.4-.1-.5-.1.1-.1.1-.4.3-.5.1 0 .2.1.5.1zm302.9-172.9c-.1 0-.4 0-.5.1v-.3c.1 0 .4 0 .5-.1v.3zm-65.6 205.1c.1.1.4.1.4.3s-.1.4-.1.5c-.1-.1-.4-.1-.5-.3.1-.2.1-.4.2-.5zm-156.1 58.4c-.1.1-.1.4-.3.5-.1 0-.4-.1-.5-.3.1-.1.1-.4.3-.5.2 0 .4.3.5.3zm151.4-1.7c-.1.1-.1.4-.3.5-.1 0-.3-.1-.5-.1.1-.1.1-.4.3-.5s.2-.1.5.1zm-11.7-57.8c-.1.1-.3.1-.4.3 0-.1-.1-.4-.1-.5 0-.1.3-.1.4-.3 0 .3 0 .4.1.5zm-81.1-134.1l.3.3c-.1.1-.3.1-.4.3 0 0-.1-.1-.3-.1.2-.2.3-.3.4-.5zm37.7 107.3c-.1-.1-.3-.1-.4-.3.1-.1.3-.3.4-.3 0 0 .1.1.3.1-.2.2-.3.3-.3.5zm-187.1-52c-.3.1-.4.4-.5.4-.1 0-.3-.1-.4-.3l.5-.5c0 .1.1.2.4.4zM270 457.2c.1 0 .1.1.3.1l-.4.4-.1-.1c0-.3.1-.3.2-.4zm295.8 56.5c-.1.3-.3.5-.4.8 0 0-.3 0-.4-.1 0-.1 0-.3.1-.3.1-.2.4-.3.7-.4zm-140.5-58.8c-.1.1-.1.4-.3.5-.1 0-.3-.1-.5-.1.1-.1.1-.4.3-.5.1-.2.3-.1.5.1zM557 269.1c-.3.1-.4.4-.7.4-.1 0-.3-.4-.4-.5.3-.1.5-.3.8-.3.1-.1.2.1.3.4zM249.2 329c-.1-.1-.3-.1-.4-.3 0-.1.1-.1.1-.3h.4c.1.2-.1.5-.1.6zm134.7 1.2c-.1 0-.3.1-.4.1v-.3c.1 0 .3-.1.4-.1v.3zm114.7 123.7c-.1.3-.3.5-.3.5-.3 0-.4-.1-.7-.3.1-.1.1-.4.3-.4.1.1.4.2.7.2zM346.7 614.5h-.3c0-.1.1-.3.1-.4l.1.1c.2 0 .2.1.1.3zm153.6-170c0 .1.1.4.1.4-.1.1-.3.1-.5.3 0-.1-.1-.4-.1-.5 0-.2.3-.2.5-.2zm55.8 67.9s-.1.1-.1.3l-.3-.3c.1 0 .1-.1.3-.1l.1.1zM490.8 334c-.1-.1-.3-.1-.3-.3 0 0 0-.3.1-.3h.4c.1.2-.1.5-.2.6zm133-57.2v-.4l.3-.1c.1.1.1.3.3.3-.4.1-.5.1-.6.2zM231.7 508.7c-.1.1-.3.1-.5.3 0-.1-.1-.4-.1-.5.1-.1.3-.3.4-.3.1.1.2.2.2.5zm294-121c-.1.1-.1.4-.3.4-.1 0-.4-.1-.5-.1.1-.1.1-.4.3-.4.1 0 .4.1.5.1zm27.2 32.7c0-.1-.1-.4-.1-.5 0-.1.3-.1.5-.3 0 .1.1.4.1.5-.1.2-.2.2-.5.3zm-229.6 9.7c-.1.1-.3.3-.3.4-.1-.1-.1-.3-.3-.4l.4-.4c0 .2 0 .2.2.4zm93.7 8.4c0 .1.1.1.1.3-.1.1-.3.1-.4.3l-.1-.1c.2-.4.3-.4.4-.5zm169.2-101.3c-.1.3-.3.5-.4.5-.3 0-.5-.1-.7-.3.1-.1.1-.4.3-.4.2 0 .5.2.8.2zM347 451.5v.3h-.3v-.4c.1-.1.3.1.3.1zm251.3 6.5c.1 0 .1 0 .3-.1 0 .1 0 .3.1.3h-.3c-.1-.1-.1-.2-.1-.2zm-24.8 3.3c-.1 0-.1 0-.3-.1.1-.1.1-.3.3-.3 0 .1.1.1.1.3 0-.1-.1-.1-.1.1zM397.3 174.4c0 .1-.1.1-.1.3 0-.1-.1-.1-.1-.3 0-.1.1-.1.1-.3 0 0 .1.1.1.3zm47.3 292.7h.2l-.2.3zm-147.9-.8c-.1 0-.3.1-.4.1 0 0 0-.1-.1-.3.3.2.4.2.5.2zm14.9 0c.1 0 .1.1.3.1-.1.1-.3.1-.4.3 0-.1-.1-.1-.1-.3.1 0 .2-.1.2-.1zm144.7 5.5c-.1 0-.3.1-.4.1v-.5s.1-.1.3-.1c-.1.3-.1.4.1.5zm117.6 1.8v.3c-.1 0-.1 0-.3.1v-.4c.2-.1.2 0 .3 0zm-302.1-1.4l-.1.1v-.4c-.1.1-.1.3.1.3zm282.9 2.6c-.1.1-.3.3-.4.3-.1 0-.3-.1-.4-.3.1-.1.3-.3.4-.3.1 0 .3.1.4.3zm-11.7 1.7c0 .1 0 .3-.1.3s-.1 0-.3-.1c0-.1 0-.3.1-.3.2.1.3.1.3.1zm-38.8.4l.3-.2v.3zm-3.5 1.4c.1 0 .3 0 .3.1s0 .1-.1.3c-.1 0-.3 0-.3-.1 0 0 .1-.2.1-.3zm22.9 3.9c0 .1 0 .1-.1.3-.1-.1-.3-.1-.3-.3 0 0 .1-.1.1-.3l.3.3zm-135.7-.6l.3-.1v.2zm-99.4 5c-.1 0-.3-.1-.3-.1.1-.1.1-.3.3-.5.1 0 .3.1.3.1-.2.3-.2.4-.3.5zM444.4 201h-.1s0-.1-.1-.3h.4c-.2.1-.2.3-.2.3zm172.4 1.5v-.1l.3.1zM480.4 488.6s0 .1-.1.1-.1 0-.3-.1c0 0 0-.1.1-.1 0 .1.1.1.3.1zm-8.1 3.8c0-.1-.1-.1-.1-.3.1 0 .3-.1.3-.1v.3c-.1.1-.2.1-.2.1zm52.4 7.2h-.2l.1-.3zm-19.3 5v.3c-.1 0-.1 0-.3.1v-.4h.3zm-177.2 3.3c-.1 0-.1 0-.3.1 0-.1.1-.3.1-.4.2.2.2.2.2.3zm43.7 8.3c-.1.1-.1.3-.3.4l-.1-.1c0-.1.1-.3.3-.4-.1 0 .1.1.1.1zm15.4 6.5c0-.1-.1-.1-.1-.3.1 0 .3-.1.3-.1v.3c.1 0 0 .1-.2.1zm97.6-294.4c.1 0 .1 0 .3.1-.1.1-.3.1-.3.3l-.1-.1c0-.1.1-.1.1-.3zm-43.8 1.1c-.1.1-.4.1-.5.1 0 0-.1-.1-.1-.3.1-.1.4-.1.5-.3 0 .3 0 .5.1.5zM519.9 534h.1v.3h-.4c.2-.2.3-.2.3-.3zm140.5-298.3c-.1 0-.1.1-.3.1l-.1-.1c.1 0 .1-.1.3-.1l.1.1zm-62.3 1.4s0-.1.1-.1h.3s0 .1-.1.1h-.3zm-152.8.6s0-.1.1-.1h.3s0 .1-.1.1c-.1.1-.1 0-.3 0zm8.5 306.9v.1h-.1zm-20.1 1.1v.2l-.3-.2zm-173.8 5.4l-.3.3c0-.1-.1-.3-.1-.5 0 0 .1-.1.1-.3 0 .2.1.3.3.5zm85-306.4c0-.1-.1-.1-.1-.3.1-.1.3-.1.5-.1 0 0 .1.1.1.3-.2 0-.3 0-.5.1zm-8.3 308.1c-.1 0-.1 0-.3-.1.1-.1.1-.3.3-.3 0 .1.1.1.1.3 0-.1-.1-.1-.1.1zm188.8 2c-.1 0-.1.1-.3.1l-.1-.1c.2-.1.3 0 .4 0zm-143-305.4c0-.1-.1-.1-.1-.3.1-.1.3-.1.5-.3 0 0 .1.1.1.3-.1.1-.2.1-.5.3zm-60.8 305.7c0 .1 0 .1-.1.3l-.3-.3.1-.1c.2 0 .3 0 .3.1zm362.3-301.5c-.1.1-.3.3-.4.3-.1 0-.3-.1-.4-.3l.1-.1c.3-.2.4-.1.7.1zm-303.6-.7c.1-.1.3-.1.5-.3 0 0 .1.1.1.3-.1.1-.3.1-.5.3 0 0 0-.3-.1-.3zM350 565.3c-.1 0-.1.1-.3.1 0-.1-.1-.3-.1-.5 0 0 .1-.1.3-.1 0 .3.1.4.1.5zm103.9.9c0-.1-.1-.1-.1-.3.1 0 .1-.1.3-.1v.3c-.1.1-.1.1-.2.1zm-179.3 1c0-.1-.1-.3-.1-.4 0 0 .1 0 .1-.1v.5zm124.7-303.4c0 .1-.1.1-.1.3-.1-.1-.3-.1-.4-.3.1 0 .1-.1.3-.1s0 .1.2.1zm71.9 304.4c0 .1-.1.1-.1.3-.1-.1-.3-.1-.3-.3.1 0 .1-.1.3-.1 0-.1.1.1.1.1zm23.8 6c0 .1-.1.1-.1.3v-.4l.1.1zm-19.3 4.1c-.1 0-.3.1-.4.1v-.5s.1-.1.3-.1c-.1.1-.1.3.1.5zm110.3 1.3c0 .1 0 .1-.1.3l-.3-.3.1-.1c.2-.1.4-.1.3.1zm-146.7.9c0 .1 0 .1-.1.3-.1 0-.1 0-.3-.1 0-.1 0-.3.1-.3s.2 0 .3.1zm122.4 6c0 .1.1.4.1.5 0 0-.1.1-.3.1 0-.1-.1-.4-.1-.5.2.1.3.1.3-.1zm-112.5 6.4l.1-.3.1.3zm97.5 3.3l-.1.1v-.4c.1.2.1.3.1.3zm-148-.3c0-.1-.1-.3 0-.3h.1c0 .1 0 .2-.1.3zm31.6.4c0-.1-.1-.1-.1-.3.1 0 .3-.1.4-.1 0 .1.1.3 0 .3 0 .1-.1.1-.3.1zm85.2-.1s0 .1-.1.1c0-.1-.1-.1-.1-.3.1.2.2.2.2.2zm154.6-315c-.1.1-.3.1-.4.1 0 0-.1-.1-.1-.3.1 0 .3-.1.4-.1 0 .1.1.3.1.3zM506.8 611.9l.3.2h-.3zm15.7 3.1c0 .1-.1.1-.1.3-.1-.1-.1-.3-.3-.4l.1-.1c.2 0 .3 0 .3.2zm48-325.9c.1 0 .1 0 .3-.1v.4h-.3v-.3zm-57.2 339.7c.1 0 .3 0 .3.1s0 .1-.1.3c-.1 0-.1 0-.3-.1.1-.2.1-.2.1-.3zm89.5-334.3c.1 0 .1-.1.3-.1 0 .1 0 .3.1.4h-.3c-.1-.2-.1-.3-.1-.3zM437.6 629.8h.1v.3h-.3c.1-.1.2-.2.2-.3zm-41.9 3.5l-.3-.2h.3zm70.5.8l-.1.1c-.1-.1-.1-.3-.1-.5l.1-.1c0 .3.1.4.1.5zm-14.7-336.8c-.1 0-.1 0-.3-.1l.3-.3s.1.1.3.1c-.2.1-.2.3-.3.3zm-8.1 338.5s-.1.1-.1 0c0 0-.1-.1-.1-.3.1 0 .3 0 .4-.1-.2.3-.2.4-.2.4zM294.9 297.3c0-.1-.1-.3-.1-.4h.5l.1.3c-.2 0-.3.1-.5.1zm405.3 4.6c.1 0 .3.1.5.1-.1.1-.1.3-.3.4-.1 0-.3-.1-.5-.1.1-.1.1-.2.3-.4zm-144.5-.2c-.1 0-.1.1-.3.1 0-.1-.1-.3-.1-.3h.3c0 .1 0 .2.1.2zm99.5 1.1c-.1 0-.1 0-.3-.1l.3-.3c0 .1.1.1.1.3.1-.1-.1-.1-.1.1zm-64.6 14.9c-.1.1-.3.4-.3.4-.1 0-.4-.1-.5-.3.1-.1.1-.3.3-.3.1.1.2.1.5.2zm57.7 5.5c.1 0 .3-.1.4-.1 0 0 .1.1.1.3-.1 0-.3.1-.5.1.1 0 .1-.1 0-.3zm-65.5.6c.1.1.1.3 0 .4s-.4 0-.4-.1c-.1-.2.3-.3.4-.3zm16.6-2.7c.3.1.3.7 0 .8-.3.3-1.1-.1-1.1-.4.1-.3.9-.6 1.1-.4zm7-12v.3c-.1 0-.3 0-.3-.1.1-.2.3-.3.3-.2zm-6 3c-.1 0-.1-.1-.1-.1 0-.1.3-.1.3-.1 0 .1 0 .2-.2.2zm-68.6 13v.2l-.1-.1zm35.1 1.9v.1c-.1 0-.1 0-.3.1v-.4c.2.2.2.2.3.2zm75.3.4c.3-.1.8.1.8.4 0 .1-.7.4-.8.1-.2-.1-.2-.3 0-.5zm44.1 1.6c.1 0 .1 0 .1.1s0 .1-.1.3c-.1 0-.1 0-.1-.1 0-.2.1-.3.1-.3zm-117.2 7.5l.3.2-.3-.1zm25.9 2.9s0-.1.1-.1h.3s0 .1-.1.1h-.3zm-72.3.4c.1 0 .1 0 .3-.1v.4h-.3v-.3zm68.1 5.2c-.1 0-.1 0-.3.1 0-.1 0-.3-.1-.3h.3c.1.1.1.1.1.2zm-90.8 2.3c0 .1-.1.3-.1.3-.1-.1-.3-.3-.3-.5 0 .1.2.1.4.2zm66.7.9c-.1-.1-.3-.1-.4-.3.1 0 .1-.1.3-.1.1 0 .3.1.4.1l-.3.3zm-206-.7l.1-.1.1.1zm170.2 8.6c0-.1-.1-.1-.1-.3.1 0 .3-.1.5-.1l.1.1c-.1.2-.4.2-.5.3zm27 4.6c-.1 0-.1 0-.3-.1.1-.1.1-.3.3-.3 0 .1.1.1.1.3 0-.1 0 .1-.1.1zm9.3 1.1c-.1 0-.1.1-.3.1 0-.1-.1-.1-.1-.3h.3c.1.1.1.2.1.2zm-27.9.7l.4-.4c-.1.1-.2.3-.4.4-.1 0 0 0 0 0zm95 10.6c-.1.1-.3.3-.4.3-.1 0-.1-.1-.3-.3l.1-.1c.2 0 .4.1.6.1zm17.6 0c0 .1.1.1.1.3-.1.1-.3.1-.5.3l-.1-.1c.2-.4.3-.5.5-.5zm-93.9 5.6c.1-.1.3-.1.5-.3 0 0 .1.1.1.3-.1.1-.3.1-.5.3 0 0 0-.2-.1-.3zm54 6.8c.1 0 .3-.1.5-.1l.1.1c-.1 0-.3.1-.5.1.1.2.1 0-.1-.1zm-3.4 2.8c-.1-.1-.1-.3-.3-.4.1 0 .3-.1.5-.1 0 0 .1.1.1.3-.1 0-.2 0-.3.2zm.6 4.1l.2.1-.2.1zm-167.8.7c-.1 0-.1 0-.3-.1l.3-.3.1.1c0 .2-.1.3-.1.3zm70.2 1.8c0 .1.1.1.1.3 0 .1-.1.1-.1.3-.1-.3 0-.5 0-.6zm60.3 14.7l.3.3c-.1.1-.3.1-.5.3 0 0-.1-.1-.3-.1.1-.4.4-.4.5-.5zM402 412.3c-.1 0-.1.1-.3.1 0-.1-.1-.3-.1-.4h.3c0 .1 0 .3.1.3zm53.8 2.9c-.1 0-.3.1-.3.1v-.1c0-.1 0 0 .3 0zm88.9 3.5l.1-.1.2.3zm-24.3 1.4s0-.1.1-.1h.3s0 .1-.1.1c0 .2-.1 0-.3 0zm46.5 1.1c0-.1-.1-.3-.1-.4 0 0 .1 0 .3-.1-.2.2-.2.4-.2.5zm-151.3 4.4c-.1.1-.1.3-.3.5-.1-.1-.3-.1-.3-.1 0-.1.1-.3.3-.5.1 0 .3 0 .3.1zm149.7 3.5c0 .1.1.1.1.3-.1.1-.3.1-.5.3 0 0-.1-.1-.1-.3.2-.1.3-.3.5-.3zm-110.4 4.3c0 .1 0 .1.1.3h-.3s0-.1-.1-.1c0-.1.1-.2.3-.2zm13.6 2.6c0 .1-.1.1-.1.3-.1-.1-.1-.3-.3-.3.1 0 .1-.1.3-.1-.1-.2-.1 0 .1.1zm1.4 7.7c-.1 0-.1.1-.3.1 0-.1-.1-.3-.1-.4h.3c.1.2.1.3.1.3zm40.4.5c-.1 0-.1.1-.3.1 0-.1 0-.3-.1-.4h.3c.1.1.1.3.1.3zm-85.6 1.1c-.1-.1-.3-.3-.3-.4 0-.1.1-.3.3-.3l.1.1c0 .2 0 .4-.1.6zM582.1 191l-.2-.2h.3zm-254.5 17.4c-.1 0-.1.1-.3.1l-.1-.1c.1 0 .1-.1.3-.1 0-.2.1-.1.1.1zm352 34.8v.3l-.2-.2zm-298 1.5c-.1 0-.1.1-.3.1-.1 0-.1-.1-.1-.1.1 0 .1-.1.3-.1 0 0 0 .1.1.1zm295.3 23.9l-.2.1v-.2zm-388.1 4.8v-.1h-.2zm-.2-.1l-.3.3s0-.1.1-.1c.1-.1.2-.1.2-.2zm340 13.9l.1-.2v.3zm-406 4.7v.2h-.1zm314.4 2.9v-.2h.1zm48.6 2.2l-.2-.1h.3zm66.2 3l.2-.2-.1.3zm-61.8 2.5v.3h-.1zm37.4 3l-.3.1.2-.3zM522.2 480.1l.1.1h-.2zm-7.4-80.2l-.2.2v-.3zm-120.7 23c-.1.1-.1.1-.3.1l-.1-.1h.4zM413 206.8c1.2.7 1.2 1.3 1 2.1-.1.5-.4.9-1.1.9-.7 0-1.1-.7-.9-1.3.2-.5.6-1 1-1.7zm-27.4 28.4c.3.4.5.5.5.8.1.5.1 1.1-.5 1.2h-.5c-.5-.4-.4-.8-.1-1.3 0-.2.2-.3.6-.7zm35.7-23c0-.1.1-.4.1-.5.1.1.3.1.4.3 0 0 0 .3-.1.3 0-.1-.3-.1-.4-.1zm-26.4 2c-.1 0-.3-.1-.3-.1 0-.1.1-.3.1-.4 0 0 .3 0 .3.1 0 0 0 .3-.1.4zm26.8 14.2c0-.1.1-.1.1-.3.1.1.3.1.4.3-.1 0-.1.1-.3.1-.1-.1-.1-.1-.2-.1zm-47.2 26.1l.3-.3.1.1c0 .2-.1.2-.4.2zm28.5-30.1v-.5h.3v.5h-.3zm-37.3 14.2l-.1-.1c0-.1.1-.1.1-.1l.1.1-.1.1zm19.1-26c.1 0 .4.1.4.1 0 .1 0 .3-.1.4-.1 0-.3 0-.3-.1v-.4zm37.9 2.5c0-.1 0-.3.1-.3h.3c-.1.2-.3.2-.4.3zm-44.5 122c.1-1.3.7-1.7 1.3-1.8.5-.1 1.1 0 1.2.5.3.5-.1 1.3-.8 1.5-.3-.1-.9-.2-1.7-.2zm37.6 12.1c.3-.4.3-.7.5-.9.4-.3.9-.5 1.3-.1.1.1.3.4.3.5-.1.7-.7.7-1.1.7-.4 0-.5-.1-1-.2zm-36.4-22.1c-.1 0-.4 0-.5.1v-.5s.3-.1.3 0c.1.2.2.3.2.4zm13.4 22.9v.3h-.4v-.3h.4zm1-30.2h-.3v-.4c.1 0 .3 0 .3.1v.3zm44.1 30.8c-.1 0-.3 0-.3-.1v-.1c.2 0 .2 0 .3.2zm-39.5-12.3c-.1.1-.3.1-.5.3 0-.1-.1-.3-.1-.3.1-.1.3-.1.4-.3 0 0 0 .2.2.3zm29.2 27.3v.3c-.1 0-.1 0-.3-.1v-.3c.1-.1.1.1.3.1zm-31.9-5.9c0-.1-.1-.4 0-.4 0-.1.3-.1.4-.1 0 .1.1.3 0 .3-.1.1-.3.2-.4.2zm-14.3-35.1c-.1 0-.3.1-.3 0v-.3c0 .2.2.3.3.3zm67.8 157.5c-.1 0-.1.1-.3.1 0-.1-.1-.1-.1-.3l.1-.1c.1.2.3.2.3.3zm59.3-84.1h-.2v-.1zM271 393.3l.1.3-.1-.2zm-25 54.1c0 .1.1.1.1.3h-.4c.2-.1.2-.3.3-.3zM520.6 395h-.2v-.2zm103.3-.9l-.1-.1c.1 0 .1-.1.1-.1l.1.1-.1.1zM485.5 495.3l-.1-.1.1-.1.1.1c0-.1 0-.1-.1.1zm25.3 4.1c0 .1.1.1.1.3-.1 0-.1.1-.3.1-.1 0-.1-.1-.1-.1l.3-.3zm36.6 13.9h-.3l.1-.2zm18.4.4zm-172.4.2c-.1 0-.1.1-.3.1 0-.1-.1-.1-.1-.3 0-.1.1-.1.1-.1l.3.3zm57.2-132.2l-.1.1-.1-.1.1-.1c0-.1 0 .1.1.1zm80 38.8l-.1.1h.1zm-1.7 99.4v.1h-.1zm9 5.2c-.1.1-.1.3-.3.3l-.1-.1c.1-.2.2-.2.4-.2zm116-144.8h-.2v-.2zM500.7 528.9v-.3.3zm0 0l-.1.1.1-.1zm9 4.9l.3-.2-.2.3zm-129.4.6c.1.1.1.1.1.3l-.1.1v-.4zM211.8 367.9l-.1-.2h.2zm366.3-4.3c0 .1.1.1.1.3-.1 0-.1.1-.3.1l-.1-.1c.2-.3.3-.3.3-.3zM347.7 556l.1-.1-.2.1zm-.1 0zm-81.7 1.5l.1.2-.2-.1zm326.4 4.8v-.2h.1zM333.8 441.5l-.1-.2h.2zm185.9-14.3c-.1 0-.1.1-.3.1l-.1-.1c.1 0 .1-.1.3-.1 0-.2.1-.1.1.1zm-323.9-68.7c-.1 0-.3.1-.4.1.1-.1.1-.3.3-.4l.1.3zm86.3 212l.1-.2v.3zm72.4.8l.1-.1h-.1z"/><path class="st3_18" d="M195.7 358.4l.4-.4c.4.4.1.5-.1.7l-.3-.3zm158.8 212.8l-.2.3.2-.2zm-98.2-215.6c-.1 0-.1.1-.3.1-.1 0-.1-.1-.1-.3.1 0 .1-.1.3-.1 0 0 .1.1.1.3zm18.9 233.6l-.1.2v-.2zm222.9 1.8l-.1.2v-.2zM310.7 351.5l-.3.1v-.2zm-12.1 240.6l-.1.1c0-.1-.1-.1-.1-.3l.1-.1c0 .1.1.1.1.3zm261.1 3.3l.2-.1v.2zm-13.5-245.8l-.1.1v-.1zm-175.3 92.8v-.2h.1zm4.3 169.1h.1v.1zm15.8.1h.1v.2zm14.5-143.2v.1h-.1zm176-127.8l-.1-.3.2.2zm-36.2 276.8l-.1.1-.1-.1.1-.1s0 .1.1.1zm-.4 4.4h.3l-.2.1zm58.7-286.9l.1-.1v.3zm-127.7 99.9v.2h-.1zm29.9-29.8l-.1-.2.1.1zM370.6 638l.1.1h-.1zm122.1 1.1l-.3.3c-.1-.1-.1-.1-.1-.3 0-.1.1-.1.3-.3-.1.2.1.2.1.3zm-101.6-308zm0 0l.1-.1-.1.1zM500 424.2v.3h-.1zm12.5-23.3l-.1-.1.1.1zm148-77.2l.3.6h-.6zM356.9 614.1c-.5-1.3-.5-2.3 0-3 .3-.4.8-.7 1.3-.3.7.3.9 1.1.5 1.6s-1 1.1-1.8 1.7zM212.2 464.7c-.1-.1-.5-.4-.7-.7-.3-.8.4-1.7 1.2-1.8.4 0 1.1.5 1.1.9-.1.8-.7 1.4-1.6 1.6zM398 435.2c-.7-1.2-.4-1.9.2-2.4.4-.4.8-.5 1.3-.3.5.4.7 1.2.1 1.6-.6.4-1.1.7-1.6 1.1zm136.1-96.6c-.3-.4-.5-.9-.5-1.3s.3-.9.7-1.2c.3-.1.8-.1 1.1 0 .3.1.3.7.3 1.1-.4.8-.6 1.4-1.6 1.4zM409.4 483.2c0-1.2-.1-1.7 0-2.3.1-.3.5-.5.9-.7.3-.1.7 0 .8.1.1.1.3.5.3.8 0 1.1-.8 1.4-2 2.1zm207-95.7c-.8 0-1.6.1-2.8.1.3-.7.3-1.2.5-1.3 1.1-.4 1.8.3 2.3 1.2zm-144.5 95.1c.1-.7 0-1.3.3-2 .1-.3.8-.4 1.3-.5.1.4.5 1.1.4 1.3-.3.5-.9 1.1-1.3 1.4-.3 0-.4-.1-.7-.2zM357.7 337.2c.3-1.5.4-2.2.6-3 1.2-.1 1.5.7 1.7 1.6-.6.3-1.1.7-2.3 1.4zm-68.9 44.6c-.5-1.5-.1-2 .5-2.4.3-.1.7-.1.8 0 .1.1.4.7.3.8l-1.6 1.6zm147.3 43.9c0-.4-.1-.8 0-.9.1-.5.5-.9 1.1-.8.1 0 .4.1.4.4.3.7-.1.9-.5 1.2-.2 0-.5 0-1 .1zm-157.4 105c-.1-.1-.1-.1-.1-.3 0-1.3.1-1.9.9-1.8.3 0 .7.3.7.5.3.9-.4 1.3-1.1 1.6h-.4zm421.1-296.8c-.1.7-1.3 1-1.7.5-.1-.1-.1-.4-.1-.5.3-.7.9-.8 1.6-.5.1.2.1.4.2.5zM577 326.1c-.4-.1-.7-.3-1.2-.4.7-.9 1.1-1.7 2.5-1.2-.6.7-1 1.2-1.3 1.6zm-.1.1c.1.1.4.1.5.3.3.3.5.7.5.9-.1.3-.5.5-.9.7-.4.1-.8-.1-1.1-.1-.2-1.1.6-1.4 1-1.8zm-42.3 223.9c-.3-.5-.5-.8-.5-.9.1-.4.5-.7.8-1.1.3.3.7.7.7.8-.2.4-.6.8-1 1.2zM494 198.6c.4-.4.7-.8 1.1-1.2.1-.1.7.1.8.3.1.3.1.7 0 .8-.4.3-.9.4-1.3.7-.3-.2-.5-.3-.6-.6zm-81.1 296.5c.1.1.3.3.4.5.1.7.3 1.2-.5 1.5-.1 0-.4 0-.5-.1-.5-.5-.3-1.1.3-1.6-.1-.3 0-.3.3-.3zm34.9-46.8c.4.3.8.5.7.7-.1.4-.3.7-.5.9-.1.1-.5-.1-.8-.3.2-.4.4-.8.6-1.3zm69.6-44.9c.1.4.3.7.3.9-.1.4-.3.7-.5.9 0 0-.4 0-.5-.1-.4-.4-.4-.9 0-1.3 0-.1.3-.3.7-.4zm19.6-68.9c.3.4.8.7.7.9 0 .3-.4.5-.7.8-.1-.3-.5-.5-.5-.9 0-.1.3-.4.5-.8zm-34.2 39.8c.3.5.5.9.8 1.5 0 0-.3.3-.4.3-.5 0-1.1-.7-.9-1.2-.2-.4.1-.4.5-.6zm-10.9-15c.5 0 1.1-.1 1.6-.1 0 0 .1.4.1.5-.1.5-1.1.7-1.5.4-.1-.1-.1-.2-.2-.8zm2.5-15.4c.5 0 1.1-.1 1.6-.1 0 0 .1.4.1.5-.1.5-1.1.7-1.5.4-.1 0-.1-.3-.2-.8zm86.3-12.6c-.9.1-1.5-.1-1.7-1.3 1 0 1.7.2 1.7 1.3zm-50.1 89.3c-.1-.3-.3-.7-.1-.9.1-.3.5-.5.9-.7 0 0 .4.3.4.4 0 .3-.1.7-.3.8-.2.3-.6.3-.9.4 0-.1 0 0 0 0zM228.3 526.4c.3 0 .4 0 .5.1l.8.8c-.3.1-.4.4-.7.5-.3-.3-.5-.7-.7-.9-.1-.1-.1-.2.1-.5zM612.6 342c0 .8-.4.9-.9 1.1-.1 0-.4-.1-.5-.3-.3-.4.3-1.1.8-1.1.2-.1.5.2.6.3zm21.1-127.3c.3.4.5.5.7.8-.3.3-.5.5-.9.7-.1 0-.4-.3-.5-.5.2-.3.4-.6.7-1zm-126.6-43.8c-.4.1-.9.3-1.3.4 0 0-.3-.3-.3-.5 0-.5.7-.8 1.2-.7.1.1.1.4.4.8zm7.8 380.3c-.3-.5-.5-.8-.5-.9.1-.3.5-.5.8-.8.1.3.5.5.4.7.1.3-.3.6-.7 1zm-224-182.1c-.7.3-1.1.4-1.5.7-.1-.1-.3-.4-.3-.5l.8-.8c.4-.2.6.2 1 .6zM635 326.2c-.4.1-.9.3-1.3.4 0 0-.3-.4-.1-.5.1-.5.8-.8 1.2-.5 0-.1 0 .2.2.6zm-96.5 190.7c-.3.3-.5.5-.8.5-.1 0-.5-.4-.5-.5 0-.3.4-.5.5-.5.2 0 .4.4.8.5zM558 325.2c-1.2.4-1.6.8-1.9.6-.3-.1-.4-.5-.7-.8.4-.1.7-.3 1.1-.3.5.1.8.2 1.5.5zm-234.2 40.1l.5.5c-.3.3-.4.5-.7.8-.1-.1-.5-.4-.5-.5.2-.5.4-.6.7-.8zm-79.3 166.6c.4-.3.7-.5.9-.8.1.3.4.4.4.7 0 .3-.3.5-.5.7-.1-.1-.4-.4-.8-.6zm145.6-9.9c-.3.1-.4.4-.7.5-.1-.3-.3-.4-.5-.7.3-.1.4-.4.7-.4.1.1.3.4.5.6zm-60.3-272.8c-.3-.3-.4-.4-.7-.5.1-.3.4-.5.5-.5.1 0 .4.3.7.4-.1.1-.2.3-.5.6zm172.3 204.7c-.7.4-.9.7-1.2.7-.1 0-.4-.4-.4-.5 0-.3.4-.4.5-.5.5-.1.7 0 1.1.3zm96-154.4c.4-.3.5-.5.8-.5.1 0 .4.3.7.5-.3.1-.4.4-.7.5-.1-.1-.4-.4-.8-.5zM372.5 472.9c-.4-.4-.7-.5-.7-.8 0-.3.3-.5.4-.7.1-.1.7.1.7.3 0 .4-.1.6-.4 1.2zm22.7 73.2c-.3.3-.5.5-.8.5-.1 0-.4-.3-.5-.5.3-.1.4-.5.7-.5.1-.1.4.3.6.5zM268.3 438.4c-.3.1-.7.4-.9.5l-.3-.4c.3-.3.5-.5.8-.7.2 0 .2.3.4.6zm103.3-80.3c-.3-.3-.4-.4-.7-.4l.8-.8c.1.1.5.4.5.5-.1.3-.4.4-.6.7zm139.3 114.7c-.3-.4-.5-.7-.4-.9.1-.3.4-.5.7-.8.1.3.4.4.4.7-.1.3-.3.5-.7 1zm45.3-.5c-.3-.5-.4-.8-.4-1.1 0-.3.3-.5.5-.7.1 0 .5.3.5.4.1.4-.2.7-.6 1.4zm38.5-215.5c-.3.1-.5.4-.7.4-.1 0-.3-.4-.4-.7.3-.1.5-.3.8-.3 0 .1.1.5.3.6zm-49.5 47.3c.3-.9.8-1.1 1.7-.5-.6.3-1.1.4-1.7.5zm2.8 292.7c-.1-.4-.4-.7-.3-.8.1-.3.4-.4.7-.5.1.3.4.5.4.7-.1.2-.5.3-.8.6z"/><path class="st3_18" d="M580.5 331.3c.3 0 .4-.1.7-.1.3.1.7.4.9.5-.1.1-.3.5-.3.4-.4-.1-.7-.1-1.1-.4 0 .1 0-.3-.2-.4zm-2.8-40.4c-.3.1-.5.1-.8.3 0 0-.1-.3-.3-.5.3-.1.5-.3.8-.3.1-.1.1.2.3.5zm-56.3 151.9c.4.3.7.4.7.5.1.4-.4.8-.8.7-.1 0-.4-.3-.3-.4.2-.4.3-.7.4-.8zM250 426.7c-.1-.3-.4-.4-.4-.5.1-.3.4-.4.5-.7.1.1.5.5.4.5.1.4-.2.5-.5.7zm360.2-44.5l-.4.4c-.1-.1-.3-.4-.4-.5.1-.1.4-.3.5-.1.2-.2.3 0 .3.2zM396.6 488.3c-.3-.1-.4-.3-.5-.4.1-.3.4-.4.5-.5l.4.3c0 .2-.1.5-.4.6zm-4.3-92.1c-.3.1-.5.3-.8.3 0-.1-.1-.4-.1-.5.1-.1.3-.3.5-.3.2-.1.3.2.4.5zM582.4 300c-.5.1-.8.3-1.2.3-.1 0-.3-.5-.3-.7.1-.3.5-.4.7-.4.2 0 .4.3.8.8zm-90.5 179c.3.1.3.3.4.4l-.7.7c-.1-.1-.3-.4-.3-.4.2-.3.3-.4.6-.7zm20.6-78.1c.3.1.5.3.7.4.1.1-.1.5-.3.7h-.3c-.1-.3-.3-.4-.3-.7.1 0 .2-.3.2-.4zm-94.9 71.8c-.5.3-.8.4-1.2.4-.1 0-.4-.3-.4-.3 0-.1.1-.4.3-.4.3-.1.5 0 1.3.3zm-9.7 146c-.1-.3-.4-.5-.4-.5.1-.3.4-.4.7-.5.1.1.3.4.3.5-.1.2-.4.3-.6.5zm126.2-276.1c-.5.3-.8.5-1.2.5-.1 0-.4-.5-.4-.7.1-.3.4-.4.7-.4s.5.3.9.6zm-60.4-38.7c.1.3.4.4.4.5 0 .5-.4.7-.8.5-.1 0-.3-.4-.1-.5-.1-.1.2-.2.5-.5zm-100 148.7c-.3.1-.4.4-.7.5 0 0-.3-.1-.4-.3l.5-.5c.2-.1.5.2.6.3zm-24.4-271.5c-.3-.1-.4-.3-.5-.4.1-.1.3-.4.4-.4.1 0 .4.1.5.1-.1.2-.3.5-.4.7zm150 229.7c.1.4.4.8.4.9-.3.3-.7.4-.9.5l-.3-.4c.3-.3.5-.6.8-1zm-231.8 17.9c-.1.1-.4.3-.7.5-.1-.3-.3-.4-.4-.7.3-.1.4-.3.7-.4.3.2.3.3.4.6zm428-106c-.3.1-.5.3-.8.3-.1 0-.3-.3-.3-.4.3-.1.4-.3.7-.4.1 0 .3.2.4.5zM553.9 507c0 .1.3.4.1.5s-.3.1-.4.3c0-.1-.1-.4-.1-.5 0-.2.3-.2.4-.3zm-22.1-81.6c-.1.5 0 .9-.3 1.2-.1.3-.5-.3-.4-.7.1-.1.4-.2.7-.5zm77.3-35.3c-.1-.1-.3-.3-.3-.4.3-.1.4-.3.7-.4 0 .1.1.4.1.5-.3.2-.4.3-.5.3zM498 439c0-.1-.1-.4-.1-.5.1-.1.3-.1.5-.3 0 .1.1.4.1.5 0 .2-.2.2-.5.3zm67.9-56.3c-.3 0-.5.1-.8.1-.1 0-.1-.3-.1-.5.3-.1.5-.1.8-.3-.1.2 0 .5.1.7zm-26.7-20.2c0 .3 0 .4-.1.5-.1.3-.4.4-.7.5 0 0-.4-.3-.3-.4.1-.3.3-.5.5-.7.2.1.5.1.6.1zm48.8 151l.4.4c-.1.1-.4.3-.5.4-.1-.1-.3-.4-.1-.5-.2-.2.1-.2.2-.3zm2.7-271.4c-.3.1-.5.1-.8.1l-.1-.4c.3-.1.5-.3.7-.4-.1.1 0 .4.2.7zm1.6-54.2c-.3-.1-.4-.3-.5-.3.1-.3.3-.5.5-.7 0 0 .3.1.5.3-.2.3-.4.4-.5.7zM700.8 268c.3.1.4.1.7.3-.1.3-.1.5-.4.7l-.5-.1c0-.4.1-.6.2-.9zm-88.9 69v-.5l.3-.1c.1.1.1.3.3.4-.3.1-.5.2-.6.2zm-37.9-4.2c-.1.1-.1.4-.3.5-.1.1-.3.1-.4.1v-.8c0-.1.3-.3.4-.3.1.3.2.4.3.5zm37.1 58c.1.1.1.3.3.5-.1 0-.4.1-.5.1-.1 0-.1-.3-.1-.4-.1-.1.1-.2.3-.2zm-136-111l.3.3c-.1.1-.3.1-.5.3 0 0-.1-.1-.3-.1l.5-.5zm-18.6 222.8c-.1.1-.1.4-.3.5-.1 0-.4-.1-.5-.1.1-.1.1-.4.3-.5.1-.1.4.1.5.1zm122.1-318.8c.1-.1.3-.3.4-.3.1 0 .3.1.4.3-.1.1-.3.3-.4.3-.2 0-.3-.2-.4-.3zm-175 412.4c.1.1.3.3.3.4-.1.1-.3.1-.5.3 0 0-.1-.1-.3-.1.2-.3.3-.4.5-.6zm189-311.6c-.3-.1-.4-.1-.7-.3.3-.3.4-.5.7-.7.1.1.4.3.3.4-.1.4-.2.5-.3.6zM393.7 426.1l-.4.4c-.1-.1-.1-.3-.3-.5 0 0 .1-.1.3-.1.1 0 .3.1.4.2zm127.2 168.1c.1 0 .3-.1.4-.1 0 .1.1.3.1.3-.1.1-.3.1-.4.1-.1-.2-.1-.2-.1-.3zM259 493.7c-.3.1-.5.1-.8.3 0-.1-.1-.4 0-.5.1-.1.3-.3.5-.3.1.1.2.2.3.5zm253.5.9h-.5c0-.1.1-.3.1-.3h.5c-.1.1-.1.1-.1.3zm-97.5-2.4c-.1.1-.3.3-.3.4-.1-.1-.1-.3-.3-.4l.1-.3c.2 0 .4.1.5.3zm76.9 91.2l-.4.4c-.1-.1-.3-.4-.4-.5.1-.1.4-.1.5-.3.2 0 .3.2.3.4zm59.7-291.6c-.1.1-.4.1-.5.3 0-.1-.3-.4-.1-.5.1-.1.4-.1.5-.1-.1-.1.1.2.1.3zM428.3 488.6c.3.3.3.4.4.5-.3.1-.4.3-.7.5 0-.1-.1-.3-.1-.3.1-.2.3-.3.4-.7zm92.9-132.7c-.1.1-.3.3-.4.3-.1-.1-.1-.3-.3-.4 0 0 .1-.1.3-.1.2 0 .3 0 .4.2zm29.1 94.4c-.1.1-.4.1-.5.3 0-.1-.1-.4-.1-.5.1 0 .4-.1.5-.1-.1-.1-.1.2.1.3zm-270.9 35.3c.1.1.3.1.4.3-.1.1-.3.3-.5.3 0 0-.3-.1-.1-.1-.1-.2 0-.3.2-.5zm113.7 88.3c0 .1.3.4.1.5-.1.1-.4.1-.5.3 0-.1-.1-.4-.1-.4.1-.3.4-.3.5-.4zm46.4-.3c-.1 0-.4.1-.5.1-.1 0-.3-.4-.1-.4.1-.1.3-.1.5-.3.1.3.1.5.1.6zm72-175.7c.1.1.3.3.3.4 0 .1-.3.3-.4.3 0-.1-.1-.1-.1-.3-.1-.1 0-.2.2-.4zM516 422c.3.1.4.3.5.3-.1.3-.3.4-.4.5-.1 0-.3-.1-.5-.3.2 0 .3-.3.4-.5zm-74.9 150.3c-.3.1-.4.1-.7.3 0-.1-.1-.4-.1-.5.1-.1.4-.3.5-.4.2.1.2.3.3.6zm134.4-.4c-.3 0-.5.1-.7.1-.1 0-.1-.3-.3-.5.3-.1.5-.1.7-.3.2.2.3.3.3.7zM204.8 298.3h-.8c0-.1 0-.4.1-.5s.4-.1.5-.1c.1.2.1.3.2.6zm304.3 133.4c.1.3.3.3.4.4-.3.1-.4.3-.7.4l-.1-.1c.1-.3.2-.4.4-.7zM248.2 554.1c-.1.1-.3.1-.4.3 0-.1-.1-.3-.1-.4.1 0 .3-.1.5-.1v.2zm214.7 1.3c-.1 0-.4.1-.5.1 0-.1-.1-.4-.1-.4.1-.1.3-.1.5-.3.1.3.1.4.1.6zM212 446.1c-.1.1-.3.3-.4.3 0-.1-.1-.3-.1-.4 0 0 .1-.1.3-.1-.1.1 0 .2.2.2zm161.4-1.2h-.5c0-.1.1-.3.1-.3h.5s-.1.2-.1.3zM558 235.4l.4.4c-.3.1-.4.3-.7.4l-.3-.1c.3-.1.5-.4.6-.7zM449.2 374.6c-.1.1-.3.1-.5.3 0-.1-.1-.4-.1-.4.1-.1.3-.1.4-.3.2 0 .2.2.2.4zm-175.3 28.2c-.3.3-.4.5-.5.5-.1 0-.4-.1-.5-.1.3-.3.4-.5.7-.8-.1-.1.1.1.3.4zm308.7-94.9c-.1.1-.1.4-.3.5-.1-.1-.4-.1-.5-.3 0-.1.1-.4.1-.5.4.1.5.1.7.3zM366.7 472.2c-.1-.3-.3-.4-.3-.5.1-.1.4-.3.5-.4 0 0 .1.1.1.3.1 0-.2.3-.3.6zm213.9-161.8c-.1.1-.1.3-.3.4-.1-.1-.1-.3-.3-.4.1-.1.3-.3.4-.3.2.1.2.3.2.3zm-240.3 64c-.3.1-.4.3-.7.4-.1 0-.3-.3-.3-.3l.5-.5c.2 0 .4.1.5.4zm121.8 1.4c.3-.4.4-1.1.7-1.2.3-.1 1.1.3 1.2.5.1.4-.3 1.2-.5 1.2-.5 0-1-.4-1.4-.5zm0-5.3c.1-.3.1-.5.4-.7.1-.1.5.1.5.3 0 .1-.1.5-.3.7-.2 0-.4-.2-.6-.3zm54.8 38.5c-.1.1-.4.1-.5.3 0-.1-.1-.4-.1-.5.1 0 .4-.1.5-.1 0-.1.1.1.1.3zm65.2-93.6c-.3-.5 1.1-1.8 1.7-1.6.4.1.7 1.2.1 1.7-.6.6-1.7.3-1.8-.1zm-327.4-72.5c-.1-.1-.3-.1-.4-.3.1-.1.3-.3.4-.3 0 0 .1.1.3.1-.2.1-.2.4-.3.5zm23.9 1.1c-.5.3-.8.4-1.2.4-.1 0-.4-.3-.4-.3 0-.1.1-.4.3-.4.3-.1.5.2 1.3.3zm58.9 71.7h-.8c0-.1 0-.4.1-.4.1-.1.3-.1.5-.3 0 .3 0 .4.2.7zm95.4 60.5l.4-.4c.1.1.1.3.3.4l-.1.3c-.2-.1-.3-.3-.6-.3zM577.4 319c-.1.1-.1.4-.3.5-.1 0-.4-.1-.5-.1.1-.1.1-.4.3-.4.2-.3.3-.2.5 0zM292.8 540.1c-.3.1-.5.1-.7.3 0-.1-.1-.4-.1-.5l.4-.4c.2 0 .3.3.4.6zm222.6-124.8c-.1-.1-.3-.3-.3-.4.3-.1.4-.3.7-.4 0 .1.3.4.1.5-.1.3-.3.3-.5.3zm-66.9-94.2c-.1-.1-.1-.3-.3-.5.3-.1.5-.3.7-.3 0 .1.1.4 0 .5 0 .2-.3.2-.4.3zm126.9-74.5c-.1.1-.1.4-.3.4-.1 0-.3-.1-.5-.1.1-.1.1-.4.3-.4.1-.1.4.1.5.1zm-89 215.4v-.5s.1-.1.3-.1c.1.1.1.3.3.3-.3.2-.4.3-.6.3zm-190.1-33.4c-.1.1-.1.4-.3.5-.1 0-.4-.1-.5-.1.1-.1.1-.4.3-.5.1 0 .2.1.5.1zm302.9-172.9c-.1 0-.4 0-.5.1v-.3c.1 0 .4 0 .5-.1v.3zm-65.6 205.1c.1.1.4.1.4.3s-.1.4-.1.5c-.1-.1-.4-.1-.5-.3.1-.2.1-.4.2-.5zm-156.1 58.4c-.1.1-.1.4-.3.5-.1 0-.4-.1-.5-.3.1-.1.1-.4.3-.5.2 0 .4.3.5.3zm151.4-1.7c-.1.1-.1.4-.3.5-.1 0-.3-.1-.5-.1.1-.1.1-.4.3-.5s.2-.1.5.1zm-11.7-57.8c-.1.1-.3.1-.4.3 0-.1-.1-.4-.1-.5 0-.1.3-.1.4-.3 0 .3 0 .4.1.5zm-81.1-134.1l.3.3c-.1.1-.3.1-.4.3 0 0-.1-.1-.3-.1.2-.2.3-.3.4-.5zm37.7 107.3c-.1-.1-.3-.1-.4-.3.1-.1.3-.3.4-.3 0 0 .1.1.3.1-.2.2-.3.3-.3.5zm-187.1-52c-.3.1-.4.4-.5.4-.1 0-.3-.1-.4-.3l.5-.5c0 .1.1.2.4.4zM270 457.2c.1 0 .1.1.3.1l-.4.4-.1-.1c0-.3.1-.3.2-.4zm295.8 56.5c-.1.3-.3.5-.4.8 0 0-.3 0-.4-.1 0-.1 0-.3.1-.3.1-.2.4-.3.7-.4zm-140.5-58.8c-.1.1-.1.4-.3.5-.1 0-.3-.1-.5-.1.1-.1.1-.4.3-.5.1-.2.3-.1.5.1zM557 269.1c-.3.1-.4.4-.7.4-.1 0-.3-.4-.4-.5.3-.1.5-.3.8-.3.1-.1.2.1.3.4zM249.2 329c-.1-.1-.3-.1-.4-.3 0-.1.1-.1.1-.3h.4c.1.2-.1.5-.1.6zm134.7 1.2c-.1 0-.3.1-.4.1v-.3c.1 0 .3-.1.4-.1v.3zm114.7 123.7c-.1.3-.3.5-.3.5-.3 0-.4-.1-.7-.3.1-.1.1-.4.3-.4.1.1.4.2.7.2zM346.7 614.5h-.3c0-.1.1-.3.1-.4l.1.1c.2 0 .2.1.1.3zm153.6-170c0 .1.1.4.1.4-.1.1-.3.1-.5.3 0-.1-.1-.4-.1-.5 0-.2.3-.2.5-.2zm55.8 67.9s-.1.1-.1.3l-.3-.3c.1 0 .1-.1.3-.1l.1.1zM490.8 334c-.1-.1-.3-.1-.3-.3 0 0 0-.3.1-.3h.4c.1.2-.1.5-.2.6zm133-57.2v-.4l.3-.1c.1.1.1.3.3.3-.4.1-.5.1-.6.2zM231.7 508.7c-.1.1-.3.1-.5.3 0-.1-.1-.4-.1-.5.1-.1.3-.3.4-.3.1.1.2.2.2.5zm294-121c-.1.1-.1.4-.3.4-.1 0-.4-.1-.5-.1.1-.1.1-.4.3-.4.1 0 .4.1.5.1zm27.2 32.7c0-.1-.1-.4-.1-.5 0-.1.3-.1.5-.3 0 .1.1.4.1.5-.1.2-.2.2-.5.3zm-229.6 9.7c-.1.1-.3.3-.3.4-.1-.1-.1-.3-.3-.4l.4-.4c0 .2 0 .2.2.4zm93.7 8.4c0 .1.1.1.1.3-.1.1-.3.1-.4.3l-.1-.1c.2-.4.3-.4.4-.5zm169.2-101.3c-.1.3-.3.5-.4.5-.3 0-.5-.1-.7-.3.1-.1.1-.4.3-.4.2 0 .5.2.8.2zM347 451.5v.3h-.3v-.4c.1-.1.3.1.3.1zm251.3 6.5c.1 0 .1 0 .3-.1 0 .1 0 .3.1.3h-.3c-.1-.1-.1-.2-.1-.2zm-24.8 3.3c-.1 0-.1 0-.3-.1.1-.1.1-.3.3-.3 0 .1.1.1.1.3 0-.1-.1-.1-.1.1zM397.3 174.4c0 .1-.1.1-.1.3 0-.1-.1-.1-.1-.3 0-.1.1-.1.1-.3 0 0 .1.1.1.3zm47.3 292.7h.2l-.2.3zm-147.9-.8c-.1 0-.3.1-.4.1 0 0 0-.1-.1-.3.3.2.4.2.5.2zm14.9 0c.1 0 .1.1.3.1-.1.1-.3.1-.4.3 0-.1-.1-.1-.1-.3.1 0 .2-.1.2-.1zm144.7 5.5c-.1 0-.3.1-.4.1v-.5s.1-.1.3-.1c-.1.3-.1.4.1.5zm117.6 1.8v.3c-.1 0-.1 0-.3.1v-.4c.2-.1.2 0 .3 0zm-302.1-1.4l-.1.1v-.4c-.1.1-.1.3.1.3zm282.9 2.6c-.1.1-.3.3-.4.3-.1 0-.3-.1-.4-.3.1-.1.3-.3.4-.3.1 0 .3.1.4.3zm-11.7 1.7c0 .1 0 .3-.1.3s-.1 0-.3-.1c0-.1 0-.3.1-.3.2.1.3.1.3.1zm-38.8.4l.3-.2v.3zm-3.5 1.4c.1 0 .3 0 .3.1s0 .1-.1.3c-.1 0-.3 0-.3-.1 0 0 .1-.2.1-.3zm22.9 3.9c0 .1 0 .1-.1.3-.1-.1-.3-.1-.3-.3 0 0 .1-.1.1-.3l.3.3zm-135.7-.6l.3-.1v.2zm-99.4 5c-.1 0-.3-.1-.3-.1.1-.1.1-.3.3-.5.1 0 .3.1.3.1-.2.3-.2.4-.3.5zM444.4 201h-.1s0-.1-.1-.3h.4c-.2.1-.2.3-.2.3zm172.4 1.5v-.1l.3.1zM480.4 488.6s0 .1-.1.1-.1 0-.3-.1c0 0 0-.1.1-.1 0 .1.1.1.3.1zm-8.1 3.8c0-.1-.1-.1-.1-.3.1 0 .3-.1.3-.1v.3c-.1.1-.2.1-.2.1zm52.4 7.2h-.2l.1-.3zm-19.3 5v.3c-.1 0-.1 0-.3.1v-.4h.3zm-177.2 3.3c-.1 0-.1 0-.3.1 0-.1.1-.3.1-.4.2.2.2.2.2.3zm43.7 8.3c-.1.1-.1.3-.3.4l-.1-.1c0-.1.1-.3.3-.4-.1 0 .1.1.1.1zm15.4 6.5c0-.1-.1-.1-.1-.3.1 0 .3-.1.3-.1v.3c.1 0 0 .1-.2.1zm97.6-294.4c.1 0 .1 0 .3.1-.1.1-.3.1-.3.3l-.1-.1c0-.1.1-.1.1-.3zm-43.8 1.1c-.1.1-.4.1-.5.1 0 0-.1-.1-.1-.3.1-.1.4-.1.5-.3 0 .3 0 .5.1.5zM519.9 534h.1v.3h-.4c.2-.2.3-.2.3-.3zm140.5-298.3c-.1 0-.1.1-.3.1l-.1-.1c.1 0 .1-.1.3-.1l.1.1zm-62.3 1.4s0-.1.1-.1h.3s0 .1-.1.1h-.3zm-152.8.6s0-.1.1-.1h.3s0 .1-.1.1c-.1.1-.1 0-.3 0zm8.5 306.9v.1h-.1zm-20.1 1.1v.2l-.3-.2zm-173.8 5.4l-.3.3c0-.1-.1-.3-.1-.5 0 0 .1-.1.1-.3 0 .2.1.3.3.5zm85-306.4c0-.1-.1-.1-.1-.3.1-.1.3-.1.5-.1 0 0 .1.1.1.3-.2 0-.3 0-.5.1zm-8.3 308.1c-.1 0-.1 0-.3-.1.1-.1.1-.3.3-.3 0 .1.1.1.1.3 0-.1-.1-.1-.1.1zm188.8 2c-.1 0-.1.1-.3.1l-.1-.1c.2-.1.3 0 .4 0zm-143-305.4c0-.1-.1-.1-.1-.3.1-.1.3-.1.5-.3 0 0 .1.1.1.3-.1.1-.2.1-.5.3zm-60.8 305.7c0 .1 0 .1-.1.3l-.3-.3.1-.1c.2 0 .3 0 .3.1zm362.3-301.5c-.1.1-.3.3-.4.3-.1 0-.3-.1-.4-.3l.1-.1c.3-.2.4-.1.7.1zm-303.6-.7c.1-.1.3-.1.5-.3 0 0 .1.1.1.3-.1.1-.3.1-.5.3 0 0 0-.3-.1-.3zM350 565.3c-.1 0-.1.1-.3.1 0-.1-.1-.3-.1-.5 0 0 .1-.1.3-.1 0 .3.1.4.1.5zm103.9.9c0-.1-.1-.1-.1-.3.1 0 .1-.1.3-.1v.3c-.1.1-.1.1-.2.1zm-179.3 1c0-.1-.1-.3-.1-.4 0 0 .1 0 .1-.1v.5zm124.7-303.4c0 .1-.1.1-.1.3-.1-.1-.3-.1-.4-.3.1 0 .1-.1.3-.1s0 .1.2.1zm71.9 304.4c0 .1-.1.1-.1.3-.1-.1-.3-.1-.3-.3.1 0 .1-.1.3-.1 0-.1.1.1.1.1zm23.8 6c0 .1-.1.1-.1.3v-.4l.1.1zm-19.3 4.1c-.1 0-.3.1-.4.1v-.5s.1-.1.3-.1c-.1.1-.1.3.1.5zm110.3 1.3c0 .1 0 .1-.1.3l-.3-.3.1-.1c.2-.1.4-.1.3.1zm-146.7.9c0 .1 0 .1-.1.3-.1 0-.1 0-.3-.1 0-.1 0-.3.1-.3s.2 0 .3.1zm122.4 6c0 .1.1.4.1.5 0 0-.1.1-.3.1 0-.1-.1-.4-.1-.5.2.1.3.1.3-.1zm-112.5 6.4l.1-.3.1.3zm97.5 3.3l-.1.1v-.4c.1.2.1.3.1.3zm-148-.3c0-.1-.1-.3 0-.3h.1c0 .1 0 .2-.1.3zm31.6.4c0-.1-.1-.1-.1-.3.1 0 .3-.1.4-.1 0 .1.1.3 0 .3 0 .1-.1.1-.3.1zm85.2-.1s0 .1-.1.1c0-.1-.1-.1-.1-.3.1.2.2.2.2.2zm154.6-315c-.1.1-.3.1-.4.1 0 0-.1-.1-.1-.3.1 0 .3-.1.4-.1 0 .1.1.3.1.3zM506.8 611.9l.3.2h-.3zm15.7 3.1c0 .1-.1.1-.1.3-.1-.1-.1-.3-.3-.4l.1-.1c.2 0 .3 0 .3.2zm48-325.9c.1 0 .1 0 .3-.1v.4h-.3v-.3zm-57.2 339.7c.1 0 .3 0 .3.1s0 .1-.1.3c-.1 0-.1 0-.3-.1.1-.2.1-.2.1-.3zm89.5-334.3c.1 0 .1-.1.3-.1 0 .1 0 .3.1.4h-.3c-.1-.2-.1-.3-.1-.3zM437.6 629.8h.1v.3h-.3c.1-.1.2-.2.2-.3zm-41.9 3.5l-.3-.2h.3zm70.5.8l-.1.1c-.1-.1-.1-.3-.1-.5l.1-.1c0 .3.1.4.1.5zm-14.7-336.8c-.1 0-.1 0-.3-.1l.3-.3s.1.1.3.1c-.2.1-.2.3-.3.3zm-8.1 338.5s-.1.1-.1 0c0 0-.1-.1-.1-.3.1 0 .3 0 .4-.1-.2.3-.2.4-.2.4zM294.9 297.3c0-.1-.1-.3-.1-.4h.5l.1.3c-.2 0-.3.1-.5.1zm405.3 4.6c.1 0 .3.1.5.1-.1.1-.1.3-.3.4-.1 0-.3-.1-.5-.1.1-.1.1-.2.3-.4zm-144.5-.2c-.1 0-.1.1-.3.1 0-.1-.1-.3-.1-.3h.3c0 .1 0 .2.1.2zm99.5 1.1c-.1 0-.1 0-.3-.1l.3-.3c0 .1.1.1.1.3.1-.1-.1-.1-.1.1zm-64.6 14.9c-.1.1-.3.4-.3.4-.1 0-.4-.1-.5-.3.1-.1.1-.3.3-.3.1.1.2.1.5.2zm57.7 5.5c.1 0 .3-.1.4-.1 0 0 .1.1.1.3-.1 0-.3.1-.5.1.1 0 .1-.1 0-.3zm-65.5.6c.1.1.1.3 0 .4s-.4 0-.4-.1c-.1-.2.3-.3.4-.3zm16.6-2.7c.3.1.3.7 0 .8-.3.3-1.1-.1-1.1-.4.1-.3.9-.6 1.1-.4zm7-12v.3c-.1 0-.3 0-.3-.1.1-.2.3-.3.3-.2zm-6 3c-.1 0-.1-.1-.1-.1 0-.1.3-.1.3-.1 0 .1 0 .2-.2.2zm-68.6 13v.2l-.1-.1zm35.1 1.9v.1c-.1 0-.1 0-.3.1v-.4c.2.2.2.2.3.2zm75.3.4c.3-.1.8.1.8.4 0 .1-.7.4-.8.1-.2-.1-.2-.3 0-.5zm44.1 1.6c.1 0 .1 0 .1.1s0 .1-.1.3c-.1 0-.1 0-.1-.1 0-.2.1-.3.1-.3zm-117.2 7.5l.3.2-.3-.1zm25.9 2.9s0-.1.1-.1h.3s0 .1-.1.1h-.3zm-72.3.4c.1 0 .1 0 .3-.1v.4h-.3v-.3zm68.1 5.2c-.1 0-.1 0-.3.1 0-.1 0-.3-.1-.3h.3c.1.1.1.1.1.2zm-90.8 2.3c0 .1-.1.3-.1.3-.1-.1-.3-.3-.3-.5 0 .1.2.1.4.2zm66.7.9c-.1-.1-.3-.1-.4-.3.1 0 .1-.1.3-.1.1 0 .3.1.4.1l-.3.3zm-206-.7l.1-.1.1.1zm170.2 8.6c0-.1-.1-.1-.1-.3.1 0 .3-.1.5-.1l.1.1c-.1.2-.4.2-.5.3zm27 4.6c-.1 0-.1 0-.3-.1.1-.1.1-.3.3-.3 0 .1.1.1.1.3 0-.1 0 .1-.1.1zm9.3 1.1c-.1 0-.1.1-.3.1 0-.1-.1-.1-.1-.3h.3c.1.1.1.2.1.2zm-27.9.7l.4-.4c-.1.1-.2.3-.4.4-.1 0 0 0 0 0zm95 10.6c-.1.1-.3.3-.4.3-.1 0-.1-.1-.3-.3l.1-.1c.2 0 .4.1.6.1zm17.6 0c0 .1.1.1.1.3-.1.1-.3.1-.5.3l-.1-.1c.2-.4.3-.5.5-.5zm-93.9 5.6c.1-.1.3-.1.5-.3 0 0 .1.1.1.3-.1.1-.3.1-.5.3 0 0 0-.2-.1-.3zm54 6.8c.1 0 .3-.1.5-.1l.1.1c-.1 0-.3.1-.5.1.1.2.1 0-.1-.1zm-3.4 2.8c-.1-.1-.1-.3-.3-.4.1 0 .3-.1.5-.1 0 0 .1.1.1.3-.1 0-.2 0-.3.2zm.6 4.1l.2.1-.2.1zm-167.8.7c-.1 0-.1 0-.3-.1l.3-.3.1.1c0 .2-.1.3-.1.3zm70.2 1.8c0 .1.1.1.1.3 0 .1-.1.1-.1.3-.1-.3 0-.5 0-.6zm60.3 14.7l.3.3c-.1.1-.3.1-.5.3 0 0-.1-.1-.3-.1.1-.4.4-.4.5-.5zM402 412.3c-.1 0-.1.1-.3.1 0-.1-.1-.3-.1-.4h.3c0 .1 0 .3.1.3zm53.8 2.9c-.1 0-.3.1-.3.1v-.1c0-.1 0 0 .3 0zm88.9 3.5l.1-.1.2.3zm-24.3 1.4s0-.1.1-.1h.3s0 .1-.1.1c0 .2-.1 0-.3 0zm46.5 1.1c0-.1-.1-.3-.1-.4 0 0 .1 0 .3-.1-.2.2-.2.4-.2.5zm-151.3 4.4c-.1.1-.1.3-.3.5-.1-.1-.3-.1-.3-.1 0-.1.1-.3.3-.5.1 0 .3 0 .3.1zm149.7 3.5c0 .1.1.1.1.3-.1.1-.3.1-.5.3 0 0-.1-.1-.1-.3.2-.1.3-.3.5-.3zm-110.4 4.3c0 .1 0 .1.1.3h-.3s0-.1-.1-.1c0-.1.1-.2.3-.2zm13.6 2.6c0 .1-.1.1-.1.3-.1-.1-.1-.3-.3-.3.1 0 .1-.1.3-.1-.1-.2-.1 0 .1.1zm1.4 7.7c-.1 0-.1.1-.3.1 0-.1-.1-.3-.1-.4h.3c.1.2.1.3.1.3zm40.4.5c-.1 0-.1.1-.3.1 0-.1 0-.3-.1-.4h.3c.1.1.1.3.1.3zm-85.6 1.1c-.1-.1-.3-.3-.3-.4 0-.1.1-.3.3-.3l.1.1c0 .2 0 .4-.1.6zM582.1 191l-.2-.2h.3zm-254.5 17.4c-.1 0-.1.1-.3.1l-.1-.1c.1 0 .1-.1.3-.1 0-.2.1-.1.1.1zm352 34.8v.3l-.2-.2zm-298 1.5c-.1 0-.1.1-.3.1-.1 0-.1-.1-.1-.1.1 0 .1-.1.3-.1 0 0 0 .1.1.1zm295.3 23.9l-.2.1v-.2zm-388.1 4.8v-.1h-.2zm-.2-.1l-.3.3s0-.1.1-.1c.1-.1.2-.1.2-.2zm340 13.9l.1-.2v.3zm-406 4.7v.2h-.1zm314.4 2.9v-.2h.1zm48.6 2.2l-.2-.1h.3zm66.2 3l.2-.2-.1.3zm-61.8 2.5v.3h-.1zm37.4 3l-.3.1.2-.3zM522.2 480.1l.1.1h-.2zm-7.4-80.2l-.2.2v-.3zm-120.7 23c-.1.1-.1.1-.3.1l-.1-.1h.4zM413 206.8c1.2.7 1.2 1.3 1 2.1-.1.5-.4.9-1.1.9-.7 0-1.1-.7-.9-1.3.2-.5.6-1 1-1.7zm-27.4 28.4c.3.4.5.5.5.8.1.5.1 1.1-.5 1.2h-.5c-.5-.4-.4-.8-.1-1.3 0-.2.2-.3.6-.7zm35.7-23c0-.1.1-.4.1-.5.1.1.3.1.4.3 0 0 0 .3-.1.3 0-.1-.3-.1-.4-.1zm-26.4 2c-.1 0-.3-.1-.3-.1 0-.1.1-.3.1-.4 0 0 .3 0 .3.1 0 0 0 .3-.1.4zm26.8 14.2c0-.1.1-.1.1-.3.1.1.3.1.4.3-.1 0-.1.1-.3.1-.1-.1-.1-.1-.2-.1zm-47.2 26.1l.3-.3.1.1c0 .2-.1.2-.4.2zm28.5-30.1v-.5h.3v.5h-.3zm-37.3 14.2l-.1-.1c0-.1.1-.1.1-.1l.1.1-.1.1zm19.1-26c.1 0 .4.1.4.1 0 .1 0 .3-.1.4-.1 0-.3 0-.3-.1v-.4zm37.9 2.5c0-.1 0-.3.1-.3h.3c-.1.2-.3.2-.4.3zm-44.5 122c.1-1.3.7-1.7 1.3-1.8.5-.1 1.1 0 1.2.5.3.5-.1 1.3-.8 1.5-.3-.1-.9-.2-1.7-.2zm37.6 12.1c.3-.4.3-.7.5-.9.4-.3.9-.5 1.3-.1.1.1.3.4.3.5-.1.7-.7.7-1.1.7-.4 0-.5-.1-1-.2zm-36.4-22.1c-.1 0-.4 0-.5.1v-.5s.3-.1.3 0c.1.2.2.3.2.4zm13.4 22.9v.3h-.4v-.3h.4zm1-30.2h-.3v-.4c.1 0 .3 0 .3.1v.3zm44.1 30.8c-.1 0-.3 0-.3-.1v-.1c.2 0 .2 0 .3.2zm-39.5-12.3c-.1.1-.3.1-.5.3 0-.1-.1-.3-.1-.3.1-.1.3-.1.4-.3 0 0 0 .2.2.3zm29.2 27.3v.3c-.1 0-.1 0-.3-.1v-.3c.1-.1.1.1.3.1zm-31.9-5.9c0-.1-.1-.4 0-.4 0-.1.3-.1.4-.1 0 .1.1.3 0 .3-.1.1-.3.2-.4.2zm-14.3-35.1c-.1 0-.3.1-.3 0v-.3c0 .2.2.3.3.3zm67.8 157.5c-.1 0-.1.1-.3.1 0-.1-.1-.1-.1-.3l.1-.1c.1.2.3.2.3.3zm59.3-84.1h-.2v-.1zM271 393.3l.1.3-.1-.2zm-25 54.1c0 .1.1.1.1.3h-.4c.2-.1.2-.3.3-.3zM520.6 395h-.2v-.2zm103.3-.9l-.1-.1c.1 0 .1-.1.1-.1l.1.1-.1.1zM485.5 495.3l-.1-.1.1-.1.1.1c0-.1 0-.1-.1.1zm25.3 4.1c0 .1.1.1.1.3-.1 0-.1.1-.3.1-.1 0-.1-.1-.1-.1l.3-.3zm36.6 13.9h-.3l.1-.2zm18.4.4zm-172.4.2c-.1 0-.1.1-.3.1 0-.1-.1-.1-.1-.3 0-.1.1-.1.1-.1l.3.3zm57.2-132.2l-.1.1-.1-.1.1-.1c0-.1 0 .1.1.1zm80 38.8l-.1.1h.1zm-1.7 99.4v.1h-.1zm9 5.2c-.1.1-.1.3-.3.3l-.1-.1c.1-.2.2-.2.4-.2zm116-144.8h-.2v-.2zM500.7 528.9v-.3.3zm0 0l-.1.1.1-.1zm9 4.9l.3-.2-.2.3zm-129.4.6c.1.1.1.1.1.3l-.1.1v-.4zM211.8 367.9l-.1-.2h.2zm366.3-4.3c0 .1.1.1.1.3-.1 0-.1.1-.3.1l-.1-.1c.2-.3.3-.3.3-.3zM347.7 556l.1-.1-.2.1zm-.1 0zm-81.7 1.5l.1.2-.2-.1zm326.4 4.8v-.2h.1zM333.8 441.5l-.1-.2h.2zm185.9-14.3c-.1 0-.1.1-.3.1l-.1-.1c.1 0 .1-.1.3-.1 0-.2.1-.1.1.1zm-323.9-68.7c-.1 0-.3.1-.4.1.1-.1.1-.3.3-.4l.1.3zm86.3 212l.1-.2v.3zm72.4.8l.1-.1h-.1z"/><path class="st3_18" d="M195.7 358.4l.4-.4c.4.4.1.5-.1.7l-.3-.3zm158.8 212.8l-.2.3.2-.2zm-98.2-215.6c-.1 0-.1.1-.3.1-.1 0-.1-.1-.1-.3.1 0 .1-.1.3-.1 0 0 .1.1.1.3zm18.9 233.6l-.1.2v-.2zm222.9 1.8l-.1.2v-.2zM310.7 351.5l-.3.1v-.2zm-12.1 240.6l-.1.1c0-.1-.1-.1-.1-.3l.1-.1c0 .1.1.1.1.3zm261.1 3.3l.2-.1v.2zm-13.5-245.8l-.1.1v-.1zm-175.3 92.8v-.2h.1zm4.3 169.1h.1v.1zm15.8.1h.1v.2zm14.5-143.2v.1h-.1zm176-127.8l-.1-.3.2.2zm-36.2 276.8l-.1.1-.1-.1.1-.1s0 .1.1.1zm-.4 4.4h.3l-.2.1zm58.7-286.9l.1-.1v.3zm-127.7 99.9v.2h-.1zm29.9-29.8l-.1-.2.1.1zM370.6 638l.1.1h-.1zm122.1 1.1l-.3.3c-.1-.1-.1-.1-.1-.3 0-.1.1-.1.3-.3-.1.2.1.2.1.3zm-101.6-308zm0 0l.1-.1-.1.1zM500 424.2v.3h-.1zm12.5-23.3l-.1-.1.1.1zm148-77.2l.3.6h-.6z"/><g><linearGradient id="SVGID_3_18" gradientUnits="userSpaceOnUse" x1="462.507" y1="171.969" x2="462.507" y2="587.041" gradientTransform="matrix(1 0 0 -1 0 803.775)"><stop offset="0" stop-color="#1e5c80"/><stop offset="1" stop-color="#457fc7"/></linearGradient><path d="M670.1 424.2c0 25.5-4.6 50-13.1 72.6-29.4 78.8-105.4 135-194.5 135-114.6 0-207.5-92.9-207.5-207.5s92.9-207.5 207.5-207.5c25.2 0 49.3 4.5 71.6 12.7 79.4 29 136 105.3 136 194.7z" fill-rule="evenodd" clip-rule="evenodd" fill="url(#SVGID_3_18)"/><linearGradient id="SVGID_4_18" gradientUnits="userSpaceOnUse" x1="565.966" y1="467.724" x2="565.966" y2="555.579" gradientTransform="matrix(1 0 0 -1 0 803.775)"><stop offset="0" stop-color="#00a7f6"/><stop offset="1" stop-color="#00bffa"/></linearGradient><path d="M657.1 352c8.9 23.9 13.1 48.5 13.1 72.6l-207.6-.3c-.2-69.2-.5-138.4-.7-207.6 84.4-.4 164 51.4 195.2 135.3z" fill-rule="evenodd" clip-rule="evenodd" fill="url(#SVGID_4_18)"/><linearGradient id="SVGID_5_18" gradientUnits="userSpaceOnUse" x1="566.275" y1="348.662" x2="566.275" y2="546.348" gradientTransform="matrix(1 0 0 -1 0 803.775)"><stop offset="0" stop-color="#52e4f3"/><stop offset="1" stop-color="#80f4e0"/></linearGradient><path d="M670.1 424.2c0 25.5-4.6 50-13.1 72.6-64.8-24.2-129.7-48.4-194.5-72.6 23.9-64.9 47.7-129.9 71.6-194.9 79.4 29.2 136 105.5 136 194.9z" fill-rule="evenodd" clip-rule="evenodd" fill="url(#SVGID_5_18)"/><circle cx="462.5" cy="424.3" r="82.7" fill-rule="evenodd" clip-rule="evenodd" fill="#fff"/><path d="M488 247.1c.6-.1 1.1-.2 1.5-.2 2.2 0 4.1.6 5.5 1.6 1.5 1.1 2.2 2.6 2.2 4.8 0 1.3-.2 2.5-.7 3.4-.5 1-1.2 1.7-2 2.3-.8.5-1.7.9-2.6 1.2-1 .3-1.9.4-2.9.4-2.1 0-4.1-.6-5.7-1.7-1.7-1.1-2.8-2.6-3.1-4.5l6.2-1.6c.1.6.4 1.1.8 1.5.5.4 1 .6 1.6.6 1.2 0 1.9-.5 1.9-1.5 0-1.1-1.2-1.7-3.5-1.7-1.5 0-3.2.2-5.2.6l.7-12.2h13.6v5.6h-7.9l-.4 1.4zm25.5 12.1c-.7.7-1.5 1-2.5 1s-1.8-.3-2.5-1-1-1.5-1-2.5.3-1.8 1-2.5 1.5-1 2.5-1 1.8.3 2.5 1 1 1.5 1 2.5-.3 1.8-1 2.5zm-1.7-3.2c-.2-.2-.5-.3-.7-.3-.3 0-.6.1-.7.3-.2.2-.3.5-.3.8 0 .3.1.5.3.7.2.2.5.3.7.3.3 0 .5-.1.7-.3.2-.2.3-.5.3-.7 0-.3-.1-.6-.3-.8zm-9.8 3.7l7.5-12.9 1.7 1-7.5 12.9-1.7-1zm.3-5.7c-1 0-1.8-.3-2.5-1s-1-1.5-1-2.5.3-1.8 1-2.5 1.5-1 2.5-1 1.8.3 2.5 1 1 1.5 1 2.5-.3 1.7-1 2.5c-.7.7-1.5 1-2.5 1zm.8-4.2c-.2-.2-.5-.3-.7-.3-.3 0-.5.1-.7.3-.2.2-.3.5-.3.7 0 .3.1.5.3.7.2.2.5.3.7.3.3 0 .5-.1.7-.3.2-.2.3-.5.3-.7s-.1-.5-.3-.7zM599.3 365h-16.2v-5.2l7.9-6.3c.7-.6 1.1-1.1 1.1-1.7 0-.4-.1-.7-.4-1-.3-.3-.6-.4-1.1-.4-.6 0-1 .2-1.4.6-.3.5-.6 1-.6 1.7l-6.4-.7c.2-2.4 1.2-4.3 2.9-5.6 1.7-1.3 3.7-1.9 6-1.9 1 0 2 .1 2.9.4.9.2 1.8.6 2.5 1.1.8.5 1.4 1.2 1.9 2s.7 1.9.7 3c0 1-.2 2-.6 2.8-.4.8-.8 1.5-1.4 2-.5.5-1.1 1-2 1.6l-2.9 2.1h6.9v5.6h.2zm10.6-12.9c.6-.1 1.1-.2 1.5-.2 2.3 0 4.1.6 5.5 1.6 1.5 1.1 2.2 2.6 2.2 4.8 0 1.3-.3 2.5-.7 3.4-.5 1-1.2 1.7-2 2.3-.8.5-1.7.9-2.6 1.2s-1.9.4-2.9.4c-2.1 0-4.1-.6-5.7-1.7-1.7-1.1-2.8-2.6-3.1-4.5l6.2-1.6c.1.6.4 1.1.8 1.5.5.4 1 .6 1.6.6 1.2 0 1.9-.5 1.9-1.5 0-1.1-1.2-1.7-3.5-1.7-1.5 0-3.2.2-5.2.6l.7-12.2h13.6v5.6H610l-.1 1.4zm25.6 12.1c-.7.7-1.5 1-2.5 1s-1.8-.3-2.5-1-1.1-1.5-1.1-2.5.3-1.8 1.1-2.5c.7-.7 1.5-1 2.5-1s1.8.3 2.5 1 1 1.5 1 2.5-.4 1.9-1 2.5zm-1.8-3.2c-.2-.2-.5-.3-.7-.3s-.6.1-.7.3c-.2.2-.3.5-.3.8 0 .3.1.5.3.7.2.2.5.3.7.3s.5-.1.7-.3c.2-.2.3-.5.3-.7.1-.3-.1-.6-.3-.8zm-9.7 3.7l7.5-12.9 1.7 1-7.5 12.9-1.7-1zm.3-5.7c-1 0-1.8-.3-2.5-1s-1-1.5-1-2.5.3-1.8 1-2.5 1.5-1 2.5-1 1.8.3 2.5 1 1 1.5 1 2.5-.3 1.8-1 2.5-1.6 1-2.5 1zm.7-4.2c-.2-.2-.5-.3-.7-.3s-.6.1-.7.3c-.2.2-.3.5-.3.7s.1.5.3.7.5.3.7.3.5-.1.7-.3c.2-.2.3-.5.3-.7 0-.2-.1-.4-.3-.7zm-78.7 207.8h-7.8l7.6-14.4h-8.6v-5.6h15.9v4.8l-7.1 15.2zm27-7.2c-.2.9-.4 1.9-.8 2.8-.4 1-1 1.8-1.6 2.5-.6.7-1.5 1.3-2.6 1.7-1.1.5-2.4.7-3.8.7s-2.6-.2-3.7-.7c-1.1-.5-1.9-1.1-2.6-1.7-.6-.7-1.2-1.6-1.6-2.5-.4-1-.7-1.9-.8-2.8-.2-.9-.2-1.9-.2-2.8 0-1 .1-1.9.2-2.8.2-.9.5-1.8.8-2.8s1-1.8 1.6-2.5c.7-.7 1.5-1.2 2.6-1.7s2.3-.7 3.7-.7c1.4 0 2.6.2 3.8.7 1.1.5 2 1 2.6 1.7.6.7 1.2 1.5 1.6 2.5s.7 1.9.8 2.8c.2.9.2 1.9.2 2.8 0 .9-.1 1.9-.2 2.8zm-8.7-7.5c-1.4 0-2 1.6-2 4.7 0 3.2.7 4.8 2 4.8 1.4 0 2-1.6 2-4.8 0-3.2-.7-4.7-2-4.7zm24.8 13.9c-.7.7-1.5 1-2.5 1s-1.8-.3-2.5-1-1-1.5-1-2.4c0-1 .3-1.8 1-2.5s1.5-1 2.5-1 1.8.3 2.5 1 1 1.5 1 2.5c0 .9-.3 1.8-1 2.4zm-1.8-3.2c-.2-.2-.5-.3-.7-.3s-.6.1-.7.3c-.2.2-.3.5-.3.8 0 .3.1.5.3.7.2.2.5.3.7.3s.5-.1.7-.3c.2-.2.3-.5.3-.7.1-.3 0-.6-.3-.8zm-9.7 3.8l7.5-12.9 1.7 1-7.5 12.9-1.7-1zm.3-5.7c-1 0-1.8-.3-2.5-1s-1-1.5-1-2.5.3-1.8 1-2.5 1.5-1 2.5-1 1.8.3 2.5 1 1 1.5 1 2.5-.3 1.8-1 2.5c-.7.6-1.6 1-2.5 1zm.7-4.2c-.2-.2-.5-.3-.7-.3s-.5.1-.7.3c-.2.2-.3.5-.3.8 0 .3.1.5.3.7s.5.3.7.3.5-.1.7-.3c.2-.2.3-.5.3-.7s-.1-.7-.3-.8z" fill="#fff"/><linearGradient id="SVGID_6_18" gradientUnits="userSpaceOnUse" x1="450.867" y1="381.568" x2="431.267" y2="370.451" gradientTransform="matrix(1 0 0 -1 0 803.775)"><stop offset="0" stop-color="#2bb1e9"/><stop offset="1" stop-color="#2295d1"/></linearGradient><path d="M414.2 377.8c23.7 4.5 47.3 8.9 71 13.4 8 6.4 16.2 12.9 24.2 19.3-18 24.7-35.9 49.4-53.9 74.1-13.7-35.5-27.5-71.1-41.3-106.8z" fill="url(#SVGID_6_18)"/><linearGradient id="SVGID_7_18" gradientUnits="userSpaceOnUse" x1="470.409" y1="448.656" x2="430.482" y2="390.17" gradientTransform="matrix(1 0 0 -1 0 803.775)"><stop offset="0" stop-color="#33beff"/><stop offset="1" stop-color="#6deefe"/></linearGradient><path d="M414.2 377.8c15.6 16.9 31.1 33.9 46.7 50.8 8.1-12.4 16.2-24.9 24.3-37.4-23.7-4.4-47.4-8.9-71-13.4z" fill="url(#SVGID_7_18)"/><linearGradient id="SVGID_8_18" gradientUnits="userSpaceOnUse" x1="489.567" y1="399.114" x2="472.014" y2="390.63" gradientTransform="matrix(1 0 0 -1 0 803.775)"><stop offset="0" stop-color="#33beff"/><stop offset="1" stop-color="#6deefe"/></linearGradient><path d="M460.9 428.7c16.2-6 32.3-12 48.5-18.1-8-6.4-16.1-12.9-24.2-19.3-8.1 12.4-16.2 24.9-24.3 37.4z" fill="url(#SVGID_8_18)"/><linearGradient id="SVGID_9_18" gradientUnits="userSpaceOnUse" x1="493.938" y1="410.996" x2="471.493" y2="342.366" gradientTransform="matrix(1 0 0 -1 0 803.775)"><stop offset="0" stop-color="#36abea"/><stop offset="1" stop-color="#48cff2"/></linearGradient><path d="M460.9 428.7c-1.8 18.7-3.6 37.4-5.3 56 18-24.7 35.9-49.4 53.9-74.1-16.3 6-32.4 12-48.6 18.1z" fill="url(#SVGID_9_18)"/><path d="M509.4 410.6c-.1-.1-.1-.1-.2-.1-16.4 5.7-32.8 11.5-49.1 17.3.3.3.6.6.8.9 16.2-6.1 32.3-12.1 48.5-18.1z" fill="#6cedfd"/><path d="M460.9 428.7c-27.3-29.4-41-44.2-40.8-44.3.2-.2 14.1 14.2 41.6 43-.2.3-.5.8-.8 1.3z" fill="#83f6ff"/><linearGradient id="SVGID_10_18" gradientUnits="userSpaceOnUse" x1="492.562" y1="419.356" x2="484.361" y2="380.509" gradientTransform="matrix(1 0 0 -1 0 803.775)"><stop offset="0" stop-color="#6cedfd"/><stop offset="1" stop-color="#b1f5fd"/></linearGradient><path d="M485.2 391.3c-8.1 12.4-16.2 24.9-24.3 37.4 16.2-6 32.3-12 48.5-18.1-8.1-6.4-16.1-12.9-24.2-19.3z" fill="url(#SVGID_10_18)"/><path d="M455.6 484.7c3.4-37.4 5.2-56.1 5.3-56 .2 0-1.1 18.1-4 54.1-.4.6-.9 1.3-1.3 1.9z" fill="#71d4ff"/></g></svg>