<svg xmlns="http://www.w3.org/2000/svg" id="layer_1" x="0" y="0" enable-background="new 0 0 400 400" version="1.1" viewBox="0 0 400 400" xml:space="preserve"><style>.st0{fill:#22567d}.st1{fill:#131f49}.st4{fill:#fff7cc}.st5{fill:#89d8dd}.st6{opacity:.65;fill:#fff}.st9{fill:#146b87}.st10{fill:#00ebaa}.st12{fill:#e2f0d5}.st13{opacity:.85;fill:#fff7cc}.st16{fill:#aae0ed}.st20{fill:#aeb1a4}.st23{opacity:.25;fill:#146b87}.st29{fill:#73d2d9}.st30{fill:#66c2cc}.st36{opacity:.3;fill:#004d5c}.st38{fill:#c29ce3}</style><path d="M79.1 284.4s0-.1 0 0c4.3-12.2 9.6-22.7 15.5-31.3 0 11.6.2 23.3.6 34.9l28 39.1c.7-.5 1.4-.9 2.2-.9.9 0 1.8.4 2.5 1.1l9.9-11.9-1.6-4.3 6.1-6.5 4.9 24.8-3.6 1-1.3-3.6-12.2 5.9c0 3.5-2 6.4-4.5 6.4s-4.5-2.9-4.5-6.4c0-.6.1-1.2.2-1.7l-25.2-24c1.7 32.4 5 63.8 10.5 91.2-15.3-9.3-28.4-23.5-39.4-42.8.3-27.5 4.9-51.4 11.9-71z" class="st0"/><path d="M119.8 299.1l11.8 22 5.9-1.2-7.9-28.2z" class="st1"/><path d="M122.4 303.9l-20 17 2.9 4.3 24.1-8.2zm-73.3-35.2l53.3 52.2-3.1 3.3-48.6-32.5z" class="st1"/><linearGradient id="SVGID_1_" x1="109.31" x2="97.33" y1="334.57" y2="315.61" gradientUnits="userSpaceOnUse"><stop offset="0" stop-color="#fd1013"/><stop offset=".48" stop-color="#ea23bd"/><stop offset=".68" stop-color="#3f3ccf"/><stop offset=".74" stop-color="#4159cd"/><stop offset=".86" stop-color="#45a4c6"/><stop offset=".86" stop-color="#45a7c6"/></linearGradient><path fill="url(#SVGID_1_)" d="M109.7 323.6c0-4-3.3-7.3-7.3-7.3s-7.3 3.3-7.3 7.3 3.3 7.3 7.3 7.3 7.3-3.2 7.3-7.3z"/><circle cx="102.4" cy="323.6" r="2.5" class="st1"/><linearGradient id="SVGID_2_" x1="9.68" x2="78.25" y1="256.62" y2="373.14" gradientUnits="userSpaceOnUse"><stop offset=".23" stop-color="#fbd1ed"/><stop offset=".59" stop-color="#cdc5f7"/><stop offset=".77" stop-color="#bad6f2"/><stop offset="1" stop-color="#a7e8ed"/></linearGradient><path fill="url(#SVGID_2_)" d="M52.4 233.2c0 57.8 5.4 116.6 19.1 164.8-24.8-10.5-46.1-26.8-63.9-48.7 1.7-50.2 19.9-90.3 44.8-116.1z"/><path d="M51 270.1a1045 1045 0 01-.8-31.3c-24.5 27.6-38.7 66.3-40.3 109.7 1.1 1.3 2.2 2.5 3.3 3.8C24.4 324 34.3 296 51 270.1z" class="st4"/><path d="M56 330.4c-1.4 17.1-5.8 33.8-11.4 50.1 7.5 5.2 15.3 9.8 23.6 13.6C63 375 59 353.6 56 330.4z" class="st5"/><path d="M15.6 358.5c9.4-2.7 17.3-6.6 23.2-11.3l.4-.4-.2-.5c-6.9-23.1-8.5-49.3-4.6-75.8l.1-.8-.8-.1c-2.3-.4-4.7-.2-7 .4-.3.7-.7 1.4-1 2.1 2.2-.8 4.6-1.2 6.9-1-3.7 26.2-2.2 52.2 4.6 75.1-5.8 4.6-13.7 8.3-23 10.9.6.5 1 .9 1.4 1.4z" class="st6"/><path d="M14.7 357.5c9.1-2.7 16.8-6.5 22.4-11.1l.4-.4-.2-.5c-6.9-23.1-8.5-49.3-4.6-75.8l.1-.8-.8-.1c-1.6-.2-3.2-.3-4.7-.1-.3.6-.6 1.3-.9 1.9 1.5-.3 3-.4 4.6-.3-3.7 26.2-2.2 52.2 4.6 75.1-5.6 4.5-13.2 8.1-22.2 10.7.5.5.9.9 1.3 1.4z" class="st0"/><path d="M278.7 299.1l-11.8 22-5.8-1.2 7.8-28.2z" class="st1"/><path d="M276.1 303.9l20.1 17-2.9 4.3-24.2-8.2z" class="st1"/><path d="M349.4 268.7l-53.2 52.2 3.1 3.3 48.5-32.5z" class="st1"/><linearGradient id="SVGID_3_" x1="68.5" x2="56.51" y1="334.57" y2="315.61" gradientTransform="matrix(-1 0 0 1 357.73 0)" gradientUnits="userSpaceOnUse"><stop offset="0" stop-color="#fd1013"/><stop offset=".48" stop-color="#ea23bd"/><stop offset=".68" stop-color="#3f3ccf"/><stop offset=".74" stop-color="#4159cd"/><stop offset=".86" stop-color="#45a4c6"/><stop offset=".86" stop-color="#45a7c6"/></linearGradient><path fill="url(#SVGID_3_)" d="M288.8 323.6c0-4 3.3-7.3 7.3-7.3s7.3 3.3 7.3 7.3-3.3 7.3-7.3 7.3-7.3-3.2-7.3-7.3z"/><path d="M293.6 323.6c0-1.4 1.1-2.5 2.5-2.5s2.5 1.1 2.5 2.5-1.1 2.5-2.5 2.5c-1.3.1-2.5-1.1-2.5-2.5z" class="st1"/><linearGradient id="SVGID_4_" x1="-31.14" x2="37.44" y1="256.62" y2="373.14" gradientTransform="matrix(-1 0 0 1 357.73 0)" gradientUnits="userSpaceOnUse"><stop offset=".23" stop-color="#fbd1ed"/><stop offset=".59" stop-color="#cdc5f7"/><stop offset=".77" stop-color="#bad6f2"/><stop offset="1" stop-color="#a7e8ed"/></linearGradient><path fill="url(#SVGID_4_)" d="M346.1 233.2c0 57.8-5.4 116.6-19.1 164.8 24.8-10.5 46.1-26.8 63.9-48.7-1.7-50.2-19.9-90.3-44.8-116.1z"/><path d="M347.6 270.1c.4-10.2.7-20.6.8-31.3 24.5 27.6 38.7 66.3 40.3 109.7-1.1 1.3-2.2 2.5-3.3 3.8-11.3-28.3-21.2-56.3-37.8-82.2z" class="st4"/><path d="M342.5 330.4c1.4 17.1 5.8 33.8 11.4 50.1-7.5 5.2-15.3 9.8-23.6 13.6 5.2-19.1 9.3-40.5 12.2-63.7z" class="st5"/><path d="M382.9 358.5c-9.4-2.7-17.3-6.6-23.2-11.3l-.4-.4.2-.5c6.9-23.1 8.5-49.3 4.6-75.8l-.1-.8.8-.1c2.3-.4 4.7-.2 7 .4.3.7.7 1.4 1 2.1-2.2-.8-4.6-1.2-6.9-1 3.7 26.2 2.2 52.2-4.6 75.1 5.8 4.6 13.7 8.3 23 10.9-.5.5-1 .9-1.4 1.4z" class="st6"/><path d="M383.8 357.5c-9.1-2.7-16.8-6.5-22.4-11.1l-.4-.4.2-.5c6.9-23.1 8.5-49.3 4.6-75.8l-.1-.8.8-.1c1.6-.2 3.2-.3 4.7-.1.3.6.6 1.3.9 1.9-1.5-.3-3-.4-4.6-.3 3.7 26.2 2.2 52.2-4.6 75.1 5.6 4.5 13.2 8.1 22.2 10.7-.4.5-.9.9-1.3 1.4z" class="st0"/><path d="M201.9 77.3l1.8-58.7h1.8l-.4 58.7z" class="st9"/><path d="M200.8 3.8l.9 16.1 5.3.3.6-17.4z" class="st10"/><path d="M226.8 90.7l1.2-38.5h1.2l-.3 38.5z" class="st9"/><path d="M226.1 42.4l.6 10.6 3.4.2.5-11.4z" class="st10"/><path d="M187.7 88.7l3.5-11.2c1.6-3.8 23.8-4.4 25.3-1.3l3.8 13.3-32.6-.8zM177.2 65l.7-5.2c.1-1.2 2.5-1.2 2.4 0l.1 5.2h-3.2z" class="st9"/><path d="M172.3 91.2l1.2-24.6c.1-2.2 10.9-2.1 10.8 0l-.7 22.6-11.3 2z" class="st9"/><path fill="#4da9a3" d="M204.1 70.7l1.2 16.3 8.4.8-3.8-16.6z"/><path d="M204.1 70.7l-3.3 1.3-.2 2.5 1.7-.2.1 13.5 3.2-.3z" class="st12"/><path d="M202 4.4l1 12.3h2.3l1-12.2zM227.2 43l.2 8.2h1.5l.4-8.2z" class="st13"/><path fill="#14466a" d="M289.2 87.1l-14.1 15.6 10.6 11.9-5.2 7.8 2 1.9 7.7-8.5-10.4-13.3 14.3-8.2z"/><path d="M321.4 101.4c-8.4 3.3-23.2 1.6-30.3-10.6-10-17.3-5.1-32.7 1-37l29.3 47.6z" class="st9"/><radialGradient id="SVGID_5_" cx="347.78" cy="185.63" r="26.78" gradientTransform="matrix(1.0513 -.0147 .0154 1.1045 -49.46 -124.49)" gradientUnits="userSpaceOnUse"><stop offset=".06" stop-color="#fffceb"/><stop offset=".22" stop-color="#fff7cc"/><stop offset=".24" stop-color="#fef1d0"/><stop offset=".3" stop-color="#fddcdc"/><stop offset=".34" stop-color="#fcd4e0"/><stop offset=".4" stop-color="#f8d3e2"/><stop offset=".45" stop-color="#ebd0e7"/><stop offset=".51" stop-color="#d5ccf0"/><stop offset=".55" stop-color="#c3c8f7"/><stop offset=".64" stop-color="#c1ccf6"/><stop offset=".73" stop-color="#bad9f4"/><stop offset=".79" stop-color="#b4e6f1"/></radialGradient><path fill="url(#SVGID_5_)" d="M324.3 75.9c5.9 14 3.4 25.6-5.5 26.1s-20.9-10.5-26.7-24.4c-5.9-14-3.4-25.6 5.5-26.1s20.9 10.4 26.7 24.4z"/><path d="M319.1 71.4c8.9 18.8 6.8 26.4-1.8 29.3 3.9-5.2 2.6-12.6-3.8-24.8l5.6-4.5z" class="st4"/><path d="M306.2 76.7l33-25.2 1 1.7-31.9 27.5z" class="st9"/><path d="M337.7 50.9l2.5 3.8 6.3-4.2-3-5.4z" class="st10"/><path d="M310.8 60.6c-.9-2.3-1.9-4.2-3.1-5.8-3.5-2.3-6.9-3.5-10-3.3-8.9.5-11.4 12.1-5.5 26.1 1.9 4.6 4.5 8.8 7.4 12.4 8.7-12.3 11.6-21.9 11.2-29.4z" class="st16"/><path fill="#fff7cc" d="M288.4 60c-2.8 4.9-2.7 11.7-1.8 16.2l3.3-1.9c-1.4-3.9-2.4-9.5-1.5-14.3zm19.2 16.7l31.1-24.2-.3-1.6 4.8-4.5 1.2 2.1-4.8 3-.4 1.7-31.3 24.4z" opacity=".4"/><path d="M308.3 80.7l17.2 17.4c.8-1.3 1.4-2.7 1.5-3.8l-17.8-14.4-.9.8z" class="st16"/><path fill="#fff7cc" d="M339 50.8l1.4 2.5 5.2-3.2-2.1-3.2z" opacity=".75"/><linearGradient id="SVGID_6_" x1="159.87" x2="239.9" y1="380.74" y2="380.74" gradientUnits="userSpaceOnUse"><stop offset="0" stop-color="#131f49"/><stop offset=".61" stop-color="#22567d"/></linearGradient><path fill="url(#SVGID_6_)" d="M239.9 389.8c-26.9 4.5-53.6 4.5-80 0l5.6-21.5h68.9l5.5 21.5z"/><path d="M178.1 389.9c-5.2-.5-10.3-1.1-15.4-1.9l4.5-17.5h13.1c-.2 6.3-1.1 13-2.2 19.4zm15.9-19.4h-7c.3 4.4-.5 8.8-1.2 13.1-.3 2.2-.6 4.5-.8 6.8 2.6.2 5.2.3 7.8.4.3-6.7.4-13.6 1.2-20.3z" class="st20"/><linearGradient id="SVGID_7_" x1="200.74" x2="190.7" y1="264.53" y2="369.07" gradientUnits="userSpaceOnUse"><stop offset="0" stop-color="#e2f0d5"/><stop offset="0" stop-color="#e1efd4"/><stop offset=".04" stop-color="#bbd2c0"/><stop offset=".07" stop-color="#9bb9af"/><stop offset=".12" stop-color="#80a4a1"/><stop offset=".16" stop-color="#6c9596"/><stop offset=".21" stop-color="#5d8a8e"/><stop offset=".27" stop-color="#558389"/><stop offset=".37" stop-color="#528188"/><stop offset="1" stop-color="#dad1c0"/></linearGradient><path fill="url(#SVGID_7_)" d="M273.5 276.1H125.8c7.1 30.6 16.4 61.2 28 91.8 30.9 1.5 61.5 1.5 91.8 0 10.4-28.5 19.6-59.3 27.9-91.8z"/><path d="M137.5 306.4l18.6 57.8h25.2L170 308.4z" class="st4"/><path fill="#004d5c" d="M227.4 347.2c-1.2.1-2.4.1-3.6.1-1.4 0-2.8 0-4.2.2h-.4l-.1.4c-.7 4.3-1.6 8.8-2.4 13.2-.5 2.5-1 5.1-1.5 7.7h1.1c.5-2.5.9-5 1.4-7.5.8-4.2 1.7-8.6 2.3-12.8 1.2-.1 2.5-.1 3.7-.1 1.4 0 2.8 0 4.2-.2h.5l5.5-54.5-1.1-.1-5.4 53.6zm-35.7 5.8c-.4-5.7-.9-11.5-1.3-17.1v-.5h-.5c-3.9 0-7.7.1-11.3.2-3.5.1-7.1.2-10.8.2-4.5-16.2-6.8-32.9-6.8-49.7h-1.1c0 17 2.3 34 6.9 50.4l.1.4h.4c3.9 0 7.6-.1 11.3-.2 3.5-.1 7.1-.3 10.7-.2.5 5.5.9 11.1 1.3 16.6l1.2 15.8h1.1l-1.2-15.9z"/><path d="M228.5 348.3c-1.2.1-2.4.1-3.6.1-1.4 0-2.8 0-4.2.2h-.4l-.1.4c-.7 4.3-1.6 8.8-2.4 13.2l-1.2 6.6h1.1l1.2-6.3c.8-4.2 1.7-8.6 2.3-12.8 1.2-.1 2.5-.1 3.7-.1 1.4 0 2.8 0 4.2-.2h.5l5.5-54.5-1.1-.1-5.5 53.5zm-35.7 5.9c-.4-5.7-.9-11.5-1.3-17.1v-.5h-.5c-3.9 0-7.7.1-11.3.2-3.5.1-7.1.2-10.8.2-4.5-16.2-6.8-32.9-6.8-49.7H161c0 17 2.3 34 6.9 50.4l.1.4h.4c3.9 0 7.6-.1 11.3-.2 3.5-.1 7.1-.3 10.7-.2.5 5.5.9 11.1 1.3 16.6.4 4.9.7 9.8 1.1 14.7h1.1c-.4-4.9-.8-9.9-1.1-14.8z" class="st12"/><path d="M181.3 320.9l4.2 2.7v27.2h-19.3l-2.6-4z" class="st23"/><path d="M153.9 322.5l5-1.6h22.4v25.8l-1.3 2.6z" class="st9"/><path d="M180 349.3h-18.9c-2.8-8.5-5.2-17.4-7.2-26.8h23.2c.8 8.9 1.7 17.8 2.9 26.8z" class="st12"/><path d="M159.3 327.1l.7 2.4 9.4.5-.4-3.1z" class="st10"/><path d="M167.6 327.3l-7.4.3.4 1 7.1.7z" class="st13"/><path fill="#8453b8" d="M159.3 327.1l9.7-.2.4-.8-11.1.1 1.3 4.4.4-1.1z" opacity=".4"/><path fill="#fff7cc" d="M159.6 330.6l10.4.6-.6-5.1-.4.8.4 3.1-9.4-.6-.4 1.2z" opacity=".6"/><path d="M132.9 304.1l131 7.3c2.3-8 4.5-16.1 6.7-24.3-20.2-.5-141.4 1.7-141.7 1.7 1.3 5 2.6 10.2 4 15.3z" class="st23"/><linearGradient id="SVGID_8_" x1="107.22" x2="292.82" y1="287.87" y2="287.87" gradientUnits="userSpaceOnUse"><stop offset="0" stop-color="#131f49"/><stop offset=".61" stop-color="#22567d"/></linearGradient><path fill="url(#SVGID_8_)" d="M287.9 276.1H112.1l-4.9 12.8c19 7 61.7 10.9 92.8 10.7 31.1.2 73.8-3.8 92.8-10.7l-4.9-12.8z"/><path d="M154.7 288.9l.3-3.6c.1-2.4.6-4.8 1.2-7h-42.4l-3.5 9.2c10.5 3.4 26.7 6 43.9 7.7-.1-2.1.2-4.2.5-6.3z" class="st20"/><radialGradient id="SVGID_9_" cx="174.51" cy="147.26" r="163.3" gradientUnits="userSpaceOnUse"><stop offset=".06" stop-color="#fffceb"/><stop offset=".22" stop-color="#fff7cc"/><stop offset=".24" stop-color="#fef1d0"/><stop offset=".3" stop-color="#fddcdc"/><stop offset=".34" stop-color="#fcd4e0"/><stop offset=".4" stop-color="#f8d3e2"/><stop offset=".45" stop-color="#ebd0e7"/><stop offset=".51" stop-color="#d5ccf0"/><stop offset=".55" stop-color="#c3c8f7"/><stop offset=".64" stop-color="#c1ccf6"/><stop offset=".73" stop-color="#bad9f4"/><stop offset=".79" stop-color="#b4e6f1"/></radialGradient><path fill="url(#SVGID_9_)" d="M287.5 276.1c-58.6 3.7-117.1 3.7-175.3 0-18-27.5-30.6-55.7-34.1-85.2-1.7-14 2.6-28.2 11.4-39.2 69.1-86.8 153.4-85.4 220.1-1.1 9 11.3 13 25.9 10.9 40.1-4.4 29.7-15.8 58.1-33 85.4z"/><linearGradient id="SVGID_10_" x1="206.17" x2="233.24" y1="204.92" y2="277.08" gradientUnits="userSpaceOnUse"><stop offset="0" stop-color="#a2b5e2"/><stop offset="1" stop-color="#91cddc"/></linearGradient><path fill="url(#SVGID_10_)" d="M240.9 229.4c-43.8 16.9-88.6 26.3-134.8 32.7 2.3 3.9 4.7 7.8 7.3 11.8 28.5 1.8 57.4 2.7 86.1 2.7 28.7 0 57.8-.9 86.7-2.7 17.1-27.4 27.9-55.5 32.1-83.5.5-3.1.6-6.2.5-9.3-19.6 23.1-52.5 38.5-77.9 48.3z"/><path d="M93.8 202c20.2-31.4 55.9-55.1 89.6-69.5 19.3-8.3 41.3-15.4 62.5-14.1 20.1 1.3 34 12.3 50.3 22.5 5.4 3.4 9 7.7 11.1 12.4.3-.3.6-.5.8-.8-.1-.2-.2-.3-.4-.5-32.5-41.1-69.7-62.8-107.5-62.8-38.1 0-75.8 22.1-109.1 63.9-8.5 10.7-12.5 24.4-11 37.6 1.1 9.1 3.1 18.3 6 27.7 1.8-5.8 4.4-11.4 7.7-16.4z" class="st4"/><path d="M199.5 268.3c-7.8 0-15.6-.2-23.1-.6h-.5l-.1-.5c-4.5-32.7-7.6-64.2-9.5-93.7v-.5l.5-.1c22.1-4.8 44.3-4.8 66 0l.5.1v.5c-2.4 32.9-5.6 64.4-9.5 93.7l-.1.5h-.5c-7.9.4-15.9.6-23.7.6zm-22.6-1.7c14.8.7 30.2.7 45.8 0 3.8-29 7-60.2 9.4-92.7-21.3-4.7-43-4.7-64.6 0 1.9 29.2 5 60.4 9.4 92.7z" class="st0"/><path d="M200.7 269.5c-7.8 0-15.6-.2-23.1-.6h-.5l-.1-.5c-4.5-32.7-7.6-64.3-9.5-93.8v-.5l.5-.1c22.1-4.8 44.3-4.8 66 0l.5.1v.5c-2.4 32.9-5.6 64.5-9.5 93.8l-.1.5h-.5c-8 .5-15.9.6-23.7.6zm-22.6-1.6c14.8.7 30.2.7 45.8 0 3.8-29 7-60.3 9.4-92.8-21.3-4.7-43-4.7-64.6 0 1.8 29.2 5 60.4 9.4 92.8zm117.8-111.2l-28.3-6.3.3-.9c2.8-9.5.3-35.7-1.4-39l1.5-.7c1.9 3.9 4.1 29.2 1.7 39.3l25 5.6c1.4-6.1 2.5-12 2.5-17.7h1.7c0 6.2-1.3 12.4-2.8 18.9l-.2.8zm-186.7-4.6l-.1-.9c-.5-6.8-.3-13.4.5-20.3l1.7.2c-.8 6.4-1 12.7-.6 19.1 9.2-1.4 18.7-2.7 27.8-3.9 9.2-1.2 18.7-2.5 28-4 .9-17.4 4.3-34.6 10.1-51.3l1.6.5c-5.8 16.7-9.2 34-10 51.5v.7l-.7.1c-9.5 1.5-19.3 2.8-28.7 4.1-9.4 1.3-19.2 2.6-28.7 4.1l-.9.1z" class="st6"/><g><path d="M266.3 149l28.3 6.3.2-.8c1.4-6.1 2.6-12.1 2.7-18-.3-.3-.5-.6-.8-.9h-.8c0 5.7-1.2 11.6-2.5 17.7l-25-5.6c2.3-9.4.5-31.9-1.3-38.2-.4-.3-.8-.5-1.2-.8l-.7.4c1.6 3.3 4.1 29.5 1.4 39l-.3.9zm-101-8.2c-9.3 1.4-18.8 2.7-28 4-9.1 1.2-18.6 2.5-27.8 3.9-.4-6.4-.2-12.6.6-19.1l-.8-.1-.9.9c-.7 6.5-.9 12.8-.4 19.3l.1.9.9-.1c9.5-1.5 19.2-2.8 28.7-4.1 9.4-1.3 19.2-2.6 28.7-4.1l.7-.1v-.7c.8-17.5 4.2-34.8 10-51.5l-.8-.3c-.3.1-.6.1-1 .2-5.8 16.6-9.1 33.7-10 50.9z" class="st0"/></g><g><path d="M92.8 191.3c17.5-6.7 39.8-11 59.5-13.2l7.6 73.4-44 1.5c-11-17-18.5-37.8-23.1-61.7z" class="st29"/><path d="M152.4 196.2c.5-.6 1-1.3 1.5-1.9l-1.7-16.1c-19.7 2.2-42 6.5-59.5 13.2 2.9 14.7 6.8 28.3 12 40.5 1.1-.2 2.4-.6 3-.7 1.7-.4 3.3-1 4.8-1.7 3.6-1.6 6.9-3.6 10.1-5.8 11.3-7.8 21.3-17 29.8-27.5z" class="st30"/><linearGradient id="SVGID_11_" x1="196" x2="121.02" y1="285.49" y2="198.24" gradientUnits="userSpaceOnUse"><stop offset="0" stop-color="#83f7c7"/><stop offset=".17" stop-color="#4cddc6"/><stop offset=".37" stop-color="#15c2c4"/><stop offset=".46" stop-color="#00b8c4"/><stop offset=".5" stop-color="#04abbb"/><stop offset=".65" stop-color="#1186a0"/><stop offset=".79" stop-color="#1a6c8d"/><stop offset=".91" stop-color="#205c81"/><stop offset="1" stop-color="#22567d"/></linearGradient><path fill="url(#SVGID_11_)" d="M124 252.8l35.8-1.2-7-67.3c-16.8 2.4-34.5 6.3-48.9 11.8 4.2 21.5 10.8 40.6 20.1 56.7z"/><defs><filter id="Adobe_OpacityMaskFilter" width="37.3" height="61.6" x="110.2" y="188.7" filterUnits="userSpaceOnUse"><feFlood flood-color="#fff" flood-opacity="1" result="back"/><feBlend in="SourceGraphic" in2="back"/></filter></defs><mask id="SVGID_12_" width="37.3" height="61.6" x="110.2" y="188.7" maskUnits="userSpaceOnUse"><g filter="url(#Adobe_OpacityMaskFilter)"><defs><filter id="Adobe_OpacityMaskFilter_1_" width="37.3" height="61.6" x="110.2" y="188.7" filterUnits="userSpaceOnUse"><feFlood flood-color="#fff" flood-opacity="1" result="back"/><feBlend in="SourceGraphic" in2="back"/></filter></defs><linearGradient id="SVGID_13_" x1="96.74" x2="147.29" y1="178.27" y2="231.04" gradientUnits="userSpaceOnUse"><stop offset="0" stop-color="#fff"/><stop offset="1"/></linearGradient><path fill="url(#SVGID_13_)" d="M147.4 188.7c.6 16.6-2.2 33.3-8.1 48.9-1.2 3.1-2.6 6.3-4.9 8.7-2.3 2.4-6.1 4.6-9.4 3.9-7.5-16.1-12.5-33.4-14.8-51.1 11.5-6 24.2-9.9 37.2-10.4z" mask="url(#SVGID_12_)"/></g></mask><linearGradient id="SVGID_14_" x1="96.74" x2="147.29" y1="178.27" y2="231.04" gradientUnits="userSpaceOnUse"><stop offset="0" stop-color="#fff7cc"/><stop offset="1" stop-color="#fff7cc"/></linearGradient><path fill="url(#SVGID_14_)" d="M147.4 188.7c.6 16.6-2.2 33.3-8.1 48.9-1.2 3.1-2.6 6.3-4.9 8.7-2.3 2.4-6.1 4.6-9.4 3.9-7.5-16.1-12.5-33.4-14.8-51.1 11.5-6 24.2-9.9 37.2-10.4z"/><path d="M151.7 189.9l5.6 60.3-28.4 1 20.9-5.8z" class="st36"/><linearGradient id="SVGID_15_" x1="118.65" x2="144.31" y1="208.24" y2="235.03" gradientUnits="userSpaceOnUse"><stop offset="0" stop-color="#fff7cc"/><stop offset="1" stop-color="#fff7cc"/></linearGradient><path fill="url(#SVGID_15_)" d="M147 202.5c-.2 3.4-.5 6.3-.8 8.8 0 0-1.8 14.8-7.6 28.1 0 0-3.3 7.5-8.7 10.1-1.5.7-3 .8-3 .8-.8.1-1.4 0-1.9-.1-3-6.5-6.1-14.1-8.7-22.6 1.7-.9 3.5-1.9 5.6-3.2 5.9-3.7 9.8-7.2 14-11 5-4.4 8.7-8.3 11.1-10.9z"/><path d="M152.4 196.2c.5-.6 1-1.3 1.5-1.9l-1.7-16.1c-19.7 2.2-42 6.5-59.5 13.2 2.9 14.7 6.8 28.3 12 40.5 1.1-.2 2.4-.6 3-.7 1.7-.4 3.3-1 4.8-1.7 3.6-1.6 6.9-3.6 10.1-5.8 11.3-7.8 21.3-17 29.8-27.5z" class="st30"/><path d="M147.4 188.7c0 5.1-.2 9.7-.4 13.8-2.4 2.6-6.1 6.5-11 10.9-4.3 3.8-8.2 7.2-14 11-2 1.3-3.9 2.3-5.6 3.2-1-3.3-1.9-6.6-2.8-10.2-1.6-6.5-2.6-12.6-3.4-18.3 5.2-2.8 12.4-6 21.1-8.1 6.1-1.4 11.5-2 16.1-2.3z" class="st38"/><linearGradient id="SVGID_16_" x1="103.94" x2="153.92" y1="206.86" y2="206.86" gradientUnits="userSpaceOnUse"><stop offset="0" stop-color="#547781"/><stop offset="1" stop-color="#5d5e6f"/></linearGradient><path fill="url(#SVGID_16_)" d="M153.9 194.3c-1.7 2.1-3.7 4.7-6.3 7.5-.2.2-.4.4-.6.7.3-4 .5-8.7.4-13.8a87.04 87.04 0 00-37.2 10.4c.7 5.7 1.8 11.8 3.4 18.3.8 3.5 1.8 6.9 2.8 10.2-1.4.7-2.6 1.3-3.7 1.8A331.31 331.31 0 01104 196c8.1-2.9 17.3-5.6 27.4-7.9 7.6-1.7 14.9-3 21.5-3.9.3 3.4.7 6.7 1 10.1z"/></g><g><path d="M305.4 191.3c-17.5-6.7-39.8-11-59.5-13.2l-7.6 73.4 44 1.5c11-17 18.4-37.8 23.1-61.7z" class="st29"/><path d="M255.2 229.7c17.4-5 32.8-14 47.1-25 1.1-4.4 2.1-8.8 3-13.4-17.5-6.7-39.8-11-59.5-13.2l-5.7 54.8c4-.4 9-1.5 15.1-3.2z" class="st30"/><linearGradient id="SVGID_17_" x1="293.67" x2="258.25" y1="266.67" y2="225.46" gradientUnits="userSpaceOnUse"><stop offset="0" stop-color="#83f7c7"/><stop offset=".17" stop-color="#4cddc6"/><stop offset=".37" stop-color="#15c2c4"/><stop offset=".46" stop-color="#00b8c4"/><stop offset=".5" stop-color="#04abbb"/><stop offset=".65" stop-color="#1186a0"/><stop offset=".79" stop-color="#1a6c8d"/><stop offset=".91" stop-color="#205c81"/><stop offset="1" stop-color="#22567d"/></linearGradient><path fill="url(#SVGID_17_)" d="M290.2 213.3c-4 14.6-9.3 27.8-16.1 39.5l-35.8-1.2 1.9-18.5c.7-.1 1.5-.2 2.3-.4 1.6-.3 3.4-.6 5.4-1.1 2.3-.5 4.7-1.1 7.3-1.9 12.6-3.7 24.1-9.4 35-16.4z"/><defs><filter id="Adobe_OpacityMaskFilter_2_" width="37.3" height="61.6" x="250.7" y="188.7" filterUnits="userSpaceOnUse"><feFlood flood-color="#fff" flood-opacity="1" result="back"/><feBlend in="SourceGraphic" in2="back"/></filter></defs><mask id="SVGID_18_" width="37.3" height="61.6" x="250.7" y="188.7" maskUnits="userSpaceOnUse"><g filter="url(#Adobe_OpacityMaskFilter_2_)"><defs><filter id="Adobe_OpacityMaskFilter_3_" width="37.3" height="61.6" x="250.7" y="188.7" filterUnits="userSpaceOnUse"><feFlood flood-color="#fff" flood-opacity="1" result="back"/><feBlend in="SourceGraphic" in2="back"/></filter></defs><linearGradient id="SVGID_19_" x1="-22.82" x2="27.73" y1="178.27" y2="231.04" gradientTransform="matrix(-1 0 0 1 278.59 0)" gradientUnits="userSpaceOnUse"><stop offset="0" stop-color="#fff"/><stop offset="1"/></linearGradient><path fill="url(#SVGID_19_)" d="M250.7 188.7c-.6 16.6 2.2 33.3 8.1 48.9 1.2 3.1 2.6 6.3 4.9 8.7 2.3 2.4 6.1 4.6 9.4 3.9 7.5-16.1 12.5-33.4 14.8-51.1-11.5-6-24.2-9.9-37.2-10.4z" mask="url(#SVGID_18_)"/></g></mask><path d="M250.7 188.7c-.6 16.6 2.2 33.3 8.1 48.9 1.2 3.1 2.6 6.3 4.9 8.7 2.3 2.4 6.1 4.6 9.4 3.9 7.5-16.1 12.5-33.4 14.8-51.1-11.5-6-24.2-9.9-37.2-10.4z" class="st4"/><path d="M269.3 251.2l-28.4-1 1.6-17.6c1.6-.3 3.4-.6 5.4-1.1l.5 13.8 20.9 5.9z" class="st36"/><path d="M250.7 188.7c-.3 9 .4 16.5 1.2 22 .8 5.4 1.6 9 3.2 15.3 1.7 6.9 3.8 14.3 8 19.5 2 2.4 3.9 3.8 6.1 4.3 1.6.4 3 .4 3.9.3 3.6-7.7 7.2-17 10.2-27.8 2.3-8.5 3.7-16.3 4.6-23.2-5.6-2.9-12.9-6-21.8-8.1-5.7-1.3-10.9-2-15.4-2.3z" class="st4"/><path d="M294.2 196.1c-1.2 5.9-2.5 11.7-4 17.2-10.9 7-22.4 12.7-35 16.4-2.7.8-5.1 1.4-7.3 1.9l-1.4-41.7-3.9 42.8c-.8.1-1.6.2-2.3.4l5.1-48.7c16.7 2.3 34.4 6.2 48.8 11.7z" class="st38"/><path d="M240.2 233l5.1-48.7-5.1 48.7zm7.7-1.4c-1.9.4-3.7.8-5.4 1.1l3.9-42.8 1.5 41.7zm57.5-40.3c-.9 4.6-1.9 9-3 13.4-3.9 3-8 5.9-12.2 8.6 1.5-5.6 2.9-11.3 4-17.2-14.4-5.5-32.1-9.4-48.9-11.8l.6-6.1c19.7 2.2 42 6.5 59.5 13.1z" class="st30"/><linearGradient id="SVGID_20_" x1="262.44" x2="268.31" y1="226.44" y2="197.34" gradientUnits="userSpaceOnUse"><stop offset="0" stop-color="#547781"/><stop offset="1" stop-color="#5d5e6f"/></linearGradient><path fill="url(#SVGID_20_)" d="M245.3 184.3c9.8 1.2 20.7 3.2 32.4 6.5 5.9 1.6 11.4 3.4 16.6 5.3-1.3 5.7-2.7 11.5-4 17.2-1.9 1.1-3.8 2.3-5.6 3.4 1.1-5.9 2.2-11.7 3.4-17.6a93.87 93.87 0 00-37.2-10.4c-.2 7.4.1 16.2 1.8 26 .9 5.4 2.2 10.3 3.5 14.6-4.2 1.3-8.7 2.4-13.6 3.2-.8.1-1.5.2-2.3.4 1.6-16.1 3.3-32.4 5-48.6z"/></g><path d="M259.1 311.4l-18.2 53.9h-80.7l71.9-7.1 14.3-47.8z" class="st23"/><g><path d="M214 238.3v2.5l9 .6.4-3.2z" class="st10"/><path d="M221.9 238.5l-7.1.3v1l6.8.8z" class="st13"/><path fill="#7dd0d9" d="M214 238.3l9.4-.1.6-.8-10.7-.1.1 4.6.6-1.1z"/><path fill="#ffabab" d="M213.4 241.9l9.9.7.7-5.3-.6.8-.4 3.2-9-.6-.6 1.2z"/></g><path d="M180.9 260.9c-4.1-27.9-7.2-56-9.1-84.1 18-3.9 37.2-4.2 55 .4-7 1.9-13.3 6.6-18.1 12.1-4.7 5.4-8.2 11.8-11.2 18.4-8 17-14.7 34.5-16.6 53.2z" class="st4"/></svg>