<svg xmlns="http://www.w3.org/2000/svg" xmlns:xlink="http://www.w3.org/1999/xlink" id="Layer_1" x="0" y="0" version="1.1" viewBox="87 53 525.5 495" xml:space="preserve"><defs><path id="SVGID_64_6" d="M-1-1h-1l1-1z"/><path id="SVGID_61_6" d="M1 1h1L1 2z"/><path id="reuse-1" d="M269.2 196.5l-.2.2s0-.1.1-.1c0 0 .1 0 .1-.1zm256.6 8.4l.1-.1v.2zM219.5 211v.1h-.1zm237.2.2v-.1h.1zm36.7 1.4l-.1-.1h.2zm50 1.8l.1-.1v.2zm-46.6 2.3v.2h-.1zm28.2 2l-.2.1.1-.2zm-78.3 132.4l.1.1h-.2zm-6.1-60.4l-.1.1v-.2zm-90.9 18.1c-.1.1-.1.1-.2.1l-.1-.1h.3zm12.9-163.2c.9.5.9 1 .8 1.6-.1.4-.3.7-.8.7s-.8-.5-.7-1c.1-.4.4-.8.7-1.3zm-20.5 21.6c.2.3.4.4.4.6.1.4.1.8-.4.9h-.4c-.4-.3-.3-.6-.1-1l.5-.5zm26.8-17.6c0-.1.1-.3.1-.4.1.1.2.1.3.2 0 0 0 .2-.1.2h-.3zm-19.9 1.7c-.1 0-.2-.1-.2-.1 0-.1.1-.2.1-.3 0 0 .2 0 .2.1 0 0 0 .2-.1.3zm20.3 10.5c0-.1.1-.1.1-.2.1.1.2.1.3.2-.1 0-.1.1-.2.1-.1-.1-.1-.1-.2-.1zm-35.4 20l.2-.2.1.1c0 .1-.1.1-.3.1zm21.3-22.9v-.4h.2v.4h-.2zm-28.1 11l-.1-.1c0-.1.1-.1.1-.1l.1.1-.1.1zm14.3-19.8c.1 0 .3.1.3.1 0 .1 0 .2-.1.3-.1 0-.2 0-.2-.1v-.3zm28.6 1.7c0-.1 0-.2.1-.2h.2c-.1.1-.2.1-.3.2zm-32.8 92.3c.1-1 .5-1.3 1-1.4.4-.1.8 0 .9.4.2.4-.1 1-.6 1.1-.3 0-.7-.1-1.3-.1zm28.4 8.9c.2-.3.2-.5.4-.7.3-.2.7-.4 1-.1.1.1.2.3.2.4-.1.5-.5.5-.8.5-.3.1-.4 0-.8-.1zM338 236.6c-.1 0-.3 0-.4.1v-.4s.2-.1.2 0c.1.1.2.2.2.3zm10.3 17.2v.2h-.3v-.2h.3zm.5-22.8h-.2v-.3c.1 0 .2 0 .2.1v.2zm33.5 22.9c-.1 0-.2 0-.2-.1v-.1l.2.2zm-29.9-9c-.1.1-.2.1-.4.2 0-.1-.1-.2-.1-.2.1-.1.2-.1.3-.2.1 0 .1.1.2.2zm22.2 20.4v.2c-.1 0-.1 0-.2-.1v-.2c.1 0 .1.1.2.1zm-24.1-4.2c0-.1-.1-.3 0-.3 0-.1.2-.1.3-.1 0 .1.1.2 0 .2-.1.1-.2.2-.3.2zm-11-26.4c-.1 0-.2.1-.2 0v-.2c0 .1.1.2.2.2zm52.1 118.4c-.1 0-.1.1-.2.1 0-.1-.1-.1-.1-.2l.1-.1c.1.1.2.1.2.2zm44.3-63.8h-.2v-.1zm-179.3-2.1l.1.2-.1-.1zm-18.5 41c0 .1.1.1.1.2h-.3c.1-.1.1-.2.2-.2zM445 286.9h-.2v-.1zm77.9-1.3l-.1-.1c.1 0 .1-.1.1-.1l.1.1-.1.1zm-103.8 77.2l-.1-.1.1-.1.1.1-.1.1zm19.1 3c0 .1.1.1.1.2-.1 0-.1.1-.2.1s-.1-.1-.1-.1l.2-.2zm27.7 10.2h-.2l.1-.1zm13.9.2zm-130.1 1.2c-.1 0-.1.1-.2.1 0-.1-.1-.1-.1-.2s.1-.1.1-.1l.2.2zm42.4-100.1l-.1.1-.1-.1.1-.1s0 .1.1.1zm60.6 28.8l-.1.1h.1zm-.7 75v.1h-.1zm6.8 3.9c-.1.1-.1.2-.2.2l-.1-.1c.1-.1.2-.1.3-.1zm86.7-110h-.2v-.1zM430.8 388.1v-.2.2zm0 0l-.1.1.1-.1zm6.8 3.6l.2-.1-.1.2zM340 393c.1.1.1.1.1.2l-.1.1v-.3zM211.8 268.4l-.1-.2h.2zm276.4-5.5c0 .1.1.1.1.2-.1 0-.1.1-.2.1l-.1-.1c.1-.2.2-.2.2-.2zM315.5 409.5l.1-.1-.2.1zm-.1 0zm-61.6 1.6l.1.2-.2-.1zm246.3 1.6v-.1h.1zm-195.8-89.5l-.1-.2h.2zm140.2-12c-.1 0-.1.1-.2.1l-.1-.1c.1 0 .1-.1.2-.1 0-.1.1 0 .1.1zm-244.8-49.8c-.1 0-.2.1-.3.1.1-.1.1-.2.2-.3l.1.2zm66.4 159.4l.1-.1v.2zm54.6.2l.1-.1h-.1z" class="st3_6"/><path id="reuse-0" d="M489.8 238.5c.2 0 .3-.1.5-.1.2.1.5.3.7.4-.1.1-.2.4-.2.3-.3-.1-.5-.1-.8-.3-.1.1-.1-.2-.2-.3zm-2.4-30.5c-.2.1-.4.1-.6.2l-.2-.4c.2-.1.4-.2.6-.2.1 0 .1.2.2.4zm-41.5 115c.3.2.5.3.5.4.1.3-.3.6-.6.5-.1 0-.3-.2-.2-.3.1-.3.2-.5.3-.6zM241 312.5c-.1-.2-.3-.3-.3-.4.1-.2.3-.3.4-.5.1.1.4.4.3.4 0 .3-.2.4-.4.5zm271.5-35.8l-.3.3c-.1-.1-.2-.3-.3-.4.1-.1.3-.2.4-.1.1-.1.2.1.2.2zM352 358.1c-.2-.1-.3-.2-.4-.3.1-.2.3-.3.4-.4l.3.2c0 .2-.1.4-.3.5zm-3.8-69.5c-.2.1-.4.2-.6.2 0-.1-.1-.3-.1-.4.1-.1.2-.2.4-.2.1 0 .2.2.3.4zM491 214.9c-.4.1-.6.2-.9.2-.1 0-.2-.4-.2-.5.1-.2.4-.3.5-.3.2 0 .3.2.6.6zm-67.2 135.6c.2.1.2.2.3.3l-.5.5c-.1-.1-.2-.3-.2-.3.1-.2.2-.3.4-.5zm15.1-59.1c.2.1.4.2.5.3.1.1-.1.4-.2.5h-.2c-.1-.2-.2-.3-.2-.5 0 0 .1-.2.1-.3zm-71.2 54.8c-.4.2-.6.3-.9.3-.1 0-.3-.2-.3-.2 0-.1.1-.3.2-.3.3-.1.4 0 1 .2zm-6.4 110.2c-.1-.2-.3-.4-.3-.4.1-.2.3-.3.5-.4.1.1.2.3.2.4 0 .2-.2.3-.4.4zm93.5-209.1c-.4.2-.6.4-.9.4-.1 0-.3-.4-.3-.5.1-.2.3-.3.5-.3s.4.2.7.4zM409 218.5c.1.2.3.3.3.4 0 .4-.3.5-.6.4-.1 0-.2-.3-.1-.4 0-.1.2-.2.4-.4zm-74.5 112.8c-.2.1-.3.3-.5.4 0 0-.2-.1-.3-.2l.4-.4c.1-.1.3.1.4.2zm-20.1-204.7c-.2-.1-.3-.2-.4-.3.1-.1.2-.3.3-.3.1 0 .3.1.4.1-.1.1-.2.3-.3.5zM429 299c.1.3.3.6.3.7-.2.2-.5.3-.7.4l-.2-.3c.2-.3.4-.5.6-.8zm-174.8 14.9c-.1.1-.3.2-.5.4-.1-.2-.2-.3-.3-.5.2-.1.3-.2.5-.3.2.1.2.2.3.4zm322.3-82.6c-.2.1-.4.2-.6.2-.1 0-.2-.2-.2-.3.2-.1.3-.2.5-.3.1 0 .2.2.3.4zM470.8 371.2c0 .1.2.3.1.4s-.2.1-.3.2c0-.1-.1-.3-.1-.4 0-.1.2-.1.3-.2zm-17.2-61.4c-.1.4 0 .7-.2.9-.1.2-.4-.2-.3-.5.1-.1.3-.2.5-.4zm58.1-27.1c-.1-.1-.2-.2-.2-.3.2-.1.3-.2.5-.3 0 .1.1.3.1.4-.2.1-.3.2-.4.2zm-83.5 37.6c0-.1-.1-.3-.1-.4.1-.1.2-.1.4-.2 0 .1.1.3.1.4 0 .1-.2.1-.4.2zm50.9-42.9c-.2 0-.4.1-.6.1-.1 0-.1-.2-.1-.4.2-.1.4-.1.6-.2-.1.1 0 .3.1.5zm-20.3-15.1c0 .2 0 .3-.1.4-.1.2-.3.3-.5.4 0 0-.3-.2-.2-.3.1-.2.2-.4.4-.5h.4zm37.8 113.6l.3.3c-.1.1-.3.2-.4.3-.1-.1-.2-.3-.1-.4-.1-.1.1-.1.2-.2zm.3-204.8c-.2.1-.4.1-.6.1l-.1-.3c.2-.1.4-.2.5-.3 0 .1.1.3.2.5zm.9-40.9c-.2-.1-.3-.2-.4-.2.1-.2.2-.4.4-.5l.4.2c-.2.2-.3.3-.4.5zm82.4 59.8c.2.1.3.1.5.2-.1.2-.1.4-.3.5l-.4-.1c0-.2.1-.4.2-.6zm-66.7 52.6v-.4l.2-.1c.1.1.1.2.2.3-.2.1-.3.2-.4.2zm-28.6-2.9c-.1.1-.1.3-.2.4-.1.1-.2.1-.3.1v-.6c0-.1.2-.2.3-.2 0 .1.1.2.2.3zm28.3 43.5c.1.1.1.2.2.4-.1 0-.3.1-.4.1-.1 0-.1-.2-.1-.3 0-.1.2-.2.3-.2zm-103.3-82.9l.2.2c-.1.1-.2.1-.4.2 0 0-.1-.1-.2-.1.2-.1.3-.2.4-.3zm-12.6 168.2c-.1.1-.1.3-.2.4-.1 0-.3-.1-.4-.1.1-.1.1-.3.2-.4.1 0 .3.1.4.1zm90.1-241.3c.1-.1.2-.2.3-.2.1 0 .2.1.3.2-.1.1-.2.2-.3.2-.1 0-.2-.1-.3-.2zM357.9 439.5c.1.1.2.2.2.3-.1.1-.2.1-.4.2 0 0-.1-.1-.2-.1l.4-.4zm140.7-236.3c-.2-.1-.3-.1-.5-.2.2-.2.3-.4.5-.5.1.1.3.2.2.3 0 .2-.1.3-.2.4zm-149.2 108l-.3.3c-.1-.1-.1-.2-.2-.4 0 0 .1-.1.2-.1s.2.1.3.2zm97 126c.1 0 .2-.1.3-.1 0 .1.1.2.1.2-.1.1-.2.1-.3.1-.1-.1-.1-.1-.1-.2zM248.2 363c-.2.1-.4.1-.6.2 0-.1-.1-.3 0-.4s.2-.2.4-.2c0 .1.1.2.2.4zm191.3-.9h-.4c0-.1.1-.2.1-.2h.4c-.1.1-.1.1-.1.2zm-73.6-1.2c-.1.1-.2.2-.2.3-.1-.1-.1-.2-.2-.3l.1-.2c.1 0 .2.1.3.2zm58.6 68.4l-.3.3c-.1-.1-.2-.3-.3-.4.1-.1.3-.1.4-.2.1 0 .2.1.2.3zm43.2-220.4c-.1.1-.3.1-.4.2 0-.1-.2-.3-.1-.4.1-.1.3-.1.4-.1 0 0 .1.2.1.3zm-91.8 149.2c.2.2.2.3.3.4-.2.1-.3.2-.5.4 0-.1-.1-.2-.1-.2.1-.2.2-.3.3-.6zm69.3-100.7c-.1.1-.2.2-.3.2-.1-.1-.1-.2-.2-.3 0 0 .1-.1.2-.1.1.1.2.1.3.2zm22.5 71.1c-.1.1-.3.1-.4.2 0-.1-.1-.3-.1-.4.1 0 .3-.1.4-.1 0 0 0 .2.1.3zm-204.2 28.3c.1.1.2.1.3.2-.1.1-.2.2-.4.2 0 0-.2-.1-.1-.1 0-.1.1-.2.2-.3zm86.4 65.9c0 .1.2.3.1.4s-.3.1-.4.2c0-.1-.1-.3-.1-.3.1-.2.3-.2.4-.3zm35-.5c-.1 0-.3.1-.4.1s-.2-.3-.1-.3c.1-.1.2-.1.4-.2.1.2.1.3.1.4zm53.2-133c.1.1.2.2.2.3 0 .1-.2.2-.3.2 0-.1-.1-.1-.1-.2s.1-.2.2-.3zm3.6 18.1c.2.1.3.2.4.2-.1.2-.2.3-.3.4-.1 0-.2-.1-.4-.2.1 0 .2-.2.3-.4zm-55.6 113.9c-.2.1-.3.1-.5.2 0-.1-.1-.3-.1-.4.1-.1.3-.2.4-.3.1.1.1.3.2.5zm101.4-1.1c-.2 0-.4.1-.5.1s-.1-.2-.2-.4c.2-.1.4-.1.5-.2.1.1.2.2.2.5zM206.1 215.9h-.6c0-.1 0-.3.1-.4.1-.1.3-.1.4-.1 0 .2 0 .3.1.5zm230.4 98.8c.1.2.2.2.3.3-.2.1-.3.2-.5.3l-.1-.1c.1-.2.2-.3.3-.5zm-196.1 94c-.1.1-.2.1-.3.2 0-.1-.1-.2-.1-.3.1 0 .2-.1.4-.1v.2zm162-.4c-.1 0-.3.1-.4.1 0-.1-.1-.3-.1-.3.1-.1.2-.1.4-.2.1.2.1.3.1.4zm-190-80.9c-.1.1-.2.2-.3.2 0-.1-.1-.2-.1-.3 0 0 .1-.1.2-.1 0 .1.1.2.2.2zm121.8-1.9h-.4c0-.1.1-.2.1-.2h.4s-.1.1-.1.2zm138-159.2l.3.3c-.2.1-.3.2-.5.3l-.2-.1c.2-.1.3-.3.4-.5zM391 272c-.1.1-.2.1-.4.2 0-.1-.1-.3-.1-.3.1-.1.2-.1.3-.2.2 0 .2.1.2.3zm-132.1 22.3c-.2.2-.3.4-.4.4s-.3-.1-.4-.1c.2-.2.3-.4.5-.6l.3.3zm232.3-73.5c-.1.1-.1.3-.2.4-.1-.1-.3-.1-.4-.2 0-.1.1-.3.1-.4.3.1.4.1.5.2zM329.3 346.1c-.1-.2-.2-.3-.2-.4.1-.1.3-.2.4-.3 0 0 .1.1.1.2s-.2.3-.3.5zm160.4-123.4c-.1.1-.1.2-.2.3-.1-.1-.1-.2-.2-.3.1-.1.2-.2.3-.2.1.1.1.2.1.2zm-180.9 49.8c-.2.1-.3.2-.5.3-.1 0-.2-.2-.2-.2l.4-.4c.1 0 .2.1.3.3zm91.9.3c.2-.3.3-.8.5-.9s.8.2.9.4c.1.3-.2.9-.4.9-.3 0-.7-.3-1-.4zm0-4c.1-.2.1-.4.3-.5.1-.1.4.1.4.2s-.1.4-.2.5c-.2 0-.4-.1-.5-.2zm41.6 28.7c-.1.1-.3.1-.4.2 0-.1-.1-.3-.1-.4.1 0 .3-.1.4-.1 0 0 .1.2.1.3zm48.6-71c-.2-.4.8-1.4 1.3-1.2.3.1.5.9.1 1.3-.5.4-1.3.2-1.4-.1zm-247.5-52.7c-.1-.1-.2-.1-.3-.2.1-.1.2-.2.3-.2 0 0 .1.1.2.1-.1 0-.1.2-.2.3zm18 .7c-.4.2-.6.3-.9.3-.1 0-.3-.2-.3-.2 0-.1.1-.3.2-.3.3-.1.4.1 1 .2zm44.9 53.7h-.6c0-.1 0-.3.1-.3.1-.1.2-.1.4-.2 0 .2 0 .3.1.5zm72.4 45.1l.3-.3c.1.1.1.2.2.3l-.1.2c-.1-.1-.2-.2-.4-.2zm108.7-44.1c-.1.1-.1.3-.2.4-.1 0-.3-.1-.4-.1.1-.1.1-.3.2-.3.1-.2.2-.1.4 0zM274 397.8c-.2.1-.4.1-.5.2 0-.1-.1-.3-.1-.4l.3-.3c.1.1.2.3.3.5zm167.2-95.5c-.1-.1-.2-.2-.2-.3.2-.1.3-.2.5-.3 0 .1.2.3.1.4-.1.2-.3.2-.4.2zm-51.1-70.7c-.1-.1-.1-.2-.2-.4.2-.1.4-.2.5-.2 0 .1.1.3 0 .4 0 .1-.2.1-.3.2zm95.3-57c-.1.1-.1.3-.2.3s-.2-.1-.4-.1c.1-.1.1-.3.2-.3s.3.1.4.1zm-65.8 163.1v-.4s.1-.1.2-.1c.1.1.1.2.2.2-.2.2-.3.3-.4.3zm-143.7-24c-.1.1-.1.3-.2.4-.1 0-.3-.1-.4-.1.1-.1.1-.3.2-.4.1 0 .2.1.4.1zm227.5-132.4c-.1 0-.3 0-.4.1v-.2c.1 0 .3 0 .4-.1v.2zm-48.2 155.2c.1.1.3.1.3.2s-.1.3-.1.4c-.1-.1-.3-.1-.4-.2.1-.2.1-.3.2-.4zm-117.4 45c-.1.1-.1.3-.2.4-.1 0-.3-.1-.4-.2.1-.1.1-.3.2-.4.1 0 .3.2.4.2zm114.2-2.2c-.1.1-.1.3-.2.4-.1 0-.2-.1-.4-.1.1-.1.1-.3.2-.4.1-.1.2 0 .4.1zm-9.2-43.5c-.1.1-.2.1-.3.2 0-.1-.1-.3-.1-.4s.2-.1.3-.2c0 .2 0 .3.1.4zm-62-100.7l.2.2c-.1.1-.2.1-.3.2 0 0-.1-.1-.2-.1l.3-.3zm29.1 80.7c-.1-.1-.2-.1-.3-.2.1-.1.2-.2.3-.2 0 0 .1.1.2.1-.1.1-.2.2-.2.3zm-141.5-38.1c-.2.1-.3.3-.4.3s-.2-.1-.3-.2l.4-.4c0 .1.1.2.3.3zm-12.1 57.7c.1 0 .1.1.2.1l-.3.3-.1-.1c0-.2.1-.2.2-.3zm223.5 40.8l-.3.6s-.2 0-.3-.1c0-.1 0-.2.1-.2.1-.1.3-.2.5-.3zm-106.4-43.5c-.1.1-.1.3-.2.4-.1 0-.2-.1-.4-.1.1-.1.1-.3.2-.4s.3 0 .4.1zm98.3-141c-.2.1-.3.3-.5.3-.1 0-.2-.3-.3-.4.2-.1.4-.2.6-.2 0-.1.1.1.2.3zm-231.9 47.1c-.1-.1-.2-.1-.3-.2 0-.1.1-.1.1-.2h.3c0 .1-.1.3-.1.4zm101.6.1c-.1 0-.2.1-.3.1v-.2c.1 0 .2-.1.3-.1v.2zm87.3 92.6l-.2.4c-.2 0-.3-.1-.5-.2.1-.1.1-.3.2-.3s.3.1.5.1zM315.1 453.6h-.2c0-.1.1-.2.1-.3l.1.1c.1 0 .1.1 0 .2zM430 324.4c0 .1.1.3.1.3-.1.1-.2.1-.4.2 0-.1-.1-.3-.1-.4s.2-.1.4-.1zm42.5 50.9s-.1.1-.1.2l-.2-.2c.1 0 .1-.1.2-.1l.1.1zm-50.4-134.2c-.1-.1-.2-.1-.2-.2 0 0 0-.2.1-.2h.3c0 .1-.1.3-.2.4zm100-44v-.3l.2-.1c.1.1.1.2.2.2-.2.1-.3.1-.4.2zM227.7 374.5c-.1.1-.2.1-.4.2 0-.1-.1-.3-.1-.4.1-.1.2-.2.3-.2.1.1.2.2.2.4zm221.1-93.1c-.1.1-.1.3-.2.3s-.3-.1-.4-.1c.1-.1.1-.3.2-.3s.3.1.4.1zm20.7 24.5c0-.1-.1-.3-.1-.4s.2-.1.4-.2c0 .1.1.3.1.4-.1.1-.2.1-.4.2zm-173.2 8.7c-.1.1-.2.2-.2.3-.1-.1-.1-.2-.2-.3l.3-.3c0 .2 0 .2.1.3zm70.8 5.8c0 .1.1.1.1.2-.1.1-.2.1-.3.2l-.1-.1c.1-.2.2-.2.3-.3zm127-77.5c-.1.2-.2.4-.3.4-.2 0-.4-.1-.5-.2.1-.1.1-.3.2-.3.2 0 .4.1.6.1zm-179.8 87.7v.2h-.2v-.3c.1 0 .2.1.2.1zM504 334c.1 0 .1 0 .2-.1 0 .1 0 .2.1.2h-.2c-.1 0-.1-.1-.1-.1zm-18.7 2.6c-.1 0-.1 0-.2-.1.1-.1.1-.2.2-.2 0 .1.1.1.1.2 0 0-.1 0-.1.1zM350.6 121.2c0 .1-.1.1-.1.2 0-.1-.1-.1-.1-.2s.1-.1.1-.2c0 0 .1.1.1.2zm37.5 220.6h.1l-.1.2zm-111.6.3c-.1 0-.2.1-.3.1 0 0 0-.1-.1-.2.2.1.3.1.4.1zm11.2-.1c.1 0 .1.1.2.1-.1.1-.2.1-.3.2 0-.1-.1-.1-.1-.2.1 0 .2-.1.2-.1zm109.2 3.3c-.1 0-.2.1-.3.1v-.4s.1-.1.2-.1c0 .2 0 .3.1.4zm88.8.6v.2c-.1 0-.1 0-.2.1v-.3c.1-.1.1 0 .2 0zm-228 .8l-.1.1v-.3c0 .1 0 .2.1.2zm213.5.2c-.1.1-.2.2-.3.2-.1 0-.2-.1-.3-.2.1-.1.2-.2.3-.2.1 0 .2.1.3.2zm-8.8 1.4c0 .1 0 .2-.1.2s-.1 0-.2-.1c0-.1 0-.2.1-.2.1.1.2.1.2.1zm-29.3.5l.2-.1v.2zm-2.6 1.1c.1 0 .2 0 .2.1s0 .1-.1.2c-.1 0-.2 0-.2-.1 0 0 .1-.1.1-.2zm17.3 2.8c0 .1 0 .1-.1.2-.1-.1-.2-.1-.2-.2 0 0 .1-.1.1-.2l.2.2zm-102.4.4l.2-.1v.2zm-75 4.4c-.1 0-.2-.1-.2-.1.1-.1.1-.2.2-.4.1 0 .2.1.2.1-.1.2-.1.3-.2.4zM386.3 141h-.1s0-.1-.1-.2h.3c-.1.1-.1.2-.1.2zm130.1.1v-.1l.2.1zM415.2 357.8s0 .1-.1.1-.1 0-.2-.1c0 0 0-.1.1-.1 0 .1.1.1.2.1zm-6.1 2.9c0-.1-.1-.1-.1-.2.1 0 .2-.1.2-.1v.2c0 .1-.1.1-.1.1zm39.6 5.1h-.1v-.2zm-14.5 3.9v.2c-.1 0-.1 0-.2.1v-.3h.2zm-133.7 3.6c-.1 0-.1 0-.2.1 0-.1.1-.2.1-.3.1.1.1.1.1.2zm33 6c-.1.1-.1.2-.2.3l-.1-.1c0-.1.1-.2.2-.3l.1.1zm11.7 4.8c0-.1-.1-.1-.1-.2.1 0 .2-.1.2-.1v.2c.1 0 0 .1-.1.1zM417 161.4c.1 0 .1 0 .2.1-.1.1-.2.1-.2.2l-.1-.1c0-.1.1-.1.1-.2zm-33 1.1c-.1.1-.3.1-.4.1 0 0-.1-.1-.1-.2.1-.1.3-.1.4-.2 0 .1 0 .3.1.3zm61.3 229.3h.1v.2h-.3c.1-.1.2-.1.2-.2zm104.2-225.9c-.1 0-.1.1-.2.1l-.1-.1c.1 0 .1-.1.2-.1l.1.1zm-47 1.4s0-.1.1-.1h.2s0 .1-.1.1h-.2zm-115.3 1.4s0-.1.1-.1h.2s0 .1-.1.1c-.1.1-.1 0-.2 0zm8.3 231.5v.1h-.1zm-15.2 1v.1l-.2-.1zm-131.1 5.1l-.2.2c0-.1-.1-.2-.1-.4 0 0 .1-.1.1-.2 0 .2.1.3.2.4zm62.3-231.7c0-.1-.1-.1-.1-.2.1-.1.2-.1.4-.1 0 0 .1.1.1.2-.2 0-.3 0-.4.1zm-4.4 232.5c-.1 0-.1 0-.2-.1.1-.1.1-.2.2-.2 0 .1.1.1.1.2 0 0-.1 0-.1.1zm142.5.4c-.1 0-.1.1-.2.1l-.1-.1c.1-.1.2 0 .3 0zM339.8 177.9c0-.1-.1-.1-.1-.2.1-.1.2-.1.4-.2 0 0 .1.1.1.2-.1.1-.2.1-.4.2zm-44 231.1c0 .1 0 .1-.1.2l-.2-.2.1-.1c.1 0 .2 0 .2.1zm271.5-229.8c-.1.1-.2.2-.3.2s-.2-.1-.3-.2l.1-.1c.2-.1.3 0 .5.1zm-229.1 1.4c.1-.1.2-.1.4-.2 0 0 .1.1.1.2-.1.1-.2.1-.4.2 0 0 0-.2-.1-.2zm-20.9 235.9c-.1 0-.1.1-.2.1 0-.1-.1-.2-.1-.4 0 0 .1-.1.2-.1 0 .2.1.3.1.4zm78.4 0c0-.1-.1-.1-.1-.2.1 0 .1-.1.2-.1v.2c0 .1 0 .1-.1.1zm-135.3 1.9c0-.1-.1-.2-.1-.3 0 0 .1 0 .1-.1v.4zm92.2-229.7c0 .1-.1.1-.1.2-.1-.1-.2-.1-.3-.2.1 0 .1-.1.2-.1s.1.1.2.1zm56.2 229.2c0 .1-.1.1-.1.2-.1-.1-.2-.1-.2-.2.1 0 .1-.1.2-.1l.1.1zm18 4.4c0 .1-.1.1-.1.2v-.3l.1.1zm-14.6 3.2c-.1 0-.2.1-.3.1v-.4s.1-.1.2-.1c0 .1 0 .3.1.4zm83.3.3c0 .1 0 .1-.1.2l-.2-.2.1-.1c.1 0 .2 0 .2.1zm-110.7 1.6c0 .1 0 .1-.1.2-.1 0-.1 0-.2-.1 0-.1 0-.2.1-.2 0 0 .1 0 .2.1zm92.4 3.8c0 .1.1.3.1.4 0 0-.1.1-.2.1 0-.1-.1-.3-.1-.4.1 0 .2 0 .2-.1zm-84.9 5.5l.1-.2.1.2zm73.6 1.9l-.1.1v-.3c.1.1.1.2.1.2zm-111.7.7c0-.1-.1-.2 0-.2h.1s0 .1-.1.2zm23.9.1c0-.1-.1-.1-.1-.2.1 0 .2-.1.3-.1 0 .1.1.2 0 .2 0 .1-.1.1-.2.1zm64.3-.6s0 .1-.1.1c0-.1-.1-.1-.1-.2.1.1.2.1.2.1zm114.7-238.7c-.1.1-.2.1-.3.1 0 0-.1-.1-.1-.2.1 0 .2-.1.3-.1 0 .1.1.2.1.2zM435.9 450.7l.2.1h-.2zm11.9 2.2c0 .1-.1.1-.1.2-.1-.1-.1-.2-.2-.3l.1-.1c.1.1.2.1.2.2zM482 206.7c.1 0 .1 0 .2-.1v.3h-.2v-.2zm-41.1 256.7c.1 0 .2 0 .2.1s0 .1-.1.2c-.1 0-.1 0-.2-.1.1-.1.1-.1.1-.2zm65.5-252.8c.1 0 .1-.1.2-.1 0 .1 0 .2.1.3h-.2c-.1-.1-.1-.2-.1-.2zm-122.6 254h.1v.2h-.2s.1-.1.1-.2zm-31.6 2.9l-.2-.1h.2zm53.2.2l-.1.1c-.1-.1-.1-.2-.1-.4l.1-.1c0 .2.1.3.1.4zm-13.2-254.1c-.1 0-.1 0-.2-.1l.2-.2s.1.1.2.1c-.1.1-.1.2-.2.2zm-4 255.5s-.1.1-.1 0c0 0-.1-.1-.1-.2.1 0 .2 0 .3-.1-.1.2-.1.3-.1.3zM274.1 214.6c0-.1-.1-.2-.1-.3h.4l.1.2c-.2 0-.3.1-.4.1zm305.8 1c.1 0 .2.1.4.1-.1.1-.1.2-.2.3-.1 0-.2-.1-.4-.1.1-.1.1-.2.2-.3zm-109 .7c-.1 0-.1.1-.2.1 0-.1-.1-.2-.1-.2h.2s0 .1.1.1zm75.1.2c-.1 0-.1 0-.2-.1l.2-.2c0 .1.1.1.1.2 0 0-.1 0-.1.1zm-48.7 11.7c-.1.1-.2.3-.2.3-.1 0-.3-.1-.4-.2.1-.1.1-.2.2-.2s.2 0 .4.1zm43.6 3.8c.1 0 .2-.1.3-.1 0 0 .1.1.1.2-.1 0-.2.1-.4.1.1 0 .1-.1 0-.2zm-49.4.8c.1.1.1.2 0 .3s-.3 0-.3-.1c-.1-.1.2-.2.3-.2zm12.5-2.1c.2.1.2.5 0 .6-.2.2-.8-.1-.8-.3s.6-.5.8-.3zm5.2-9.1v.2c-.1 0-.2 0-.2-.1s.2-.2.2-.1zm-4.5 2.3c-.1 0-.1-.1-.1-.1 0-.1.2-.1.2-.1 0 .1 0 .2-.1.2zM453 234.1v.2l-.1-.1zm26.5 1.2v.1c-.1 0-.1 0-.2.1v-.3c.1.1.1.1.2.1zm56.8-.1c.2-.1.6.1.6.3 0 .1-.5.3-.6.1-.1-.1-.1-.3 0-.4zm33.3.9c.1 0 .1 0 .1.1s0 .1-.1.2c-.1 0-.1 0-.1-.1s.1-.2.1-.2zm-88.4 6.4l.2.1h-.2zm19.6 2s0-.1.1-.1h.2s0 .1-.1.1h-.2zm-54.6.8c.1 0 .1 0 .2-.1v.3h-.2v-.2zm51.4 3.5c-.1 0-.1 0-.2.1 0-.1 0-.2-.1-.2h.2c.1 0 .1 0 .1.1zm-68.5 2.3c0 .1-.1.2-.1.2-.1-.1-.2-.2-.2-.4 0 .1.2.1.3.2zm50.4.2c-.1-.1-.2-.1-.3-.2.1 0 .1-.1.2-.1s.2.1.3.1l-.2.2zm-155.5.8l.1-.1.1.1zm128.5 5.4c0-.1-.1-.1-.1-.2.1 0 .2-.1.4-.1l.1.1c-.1.1-.3.1-.4.2zm20.4 3.3c-.1 0-.1 0-.2-.1.1-.1.1-.2.2-.2 0 .1.1.1.1.2 0 0 0 .1-.1.1zm7 .8c-.1 0-.1.1-.2.1 0-.1-.1-.1-.1-.2h.2c.1 0 .1.1.1.1zm-21 .7l.3-.3-.3.3c-.1 0 0 0 0 0zm71.7 7.4c-.1.1-.2.2-.3.2s-.1-.1-.2-.2l.1-.1c.1 0 .3.1.4.1zm13.3-.1c0 .1.1.1.1.2-.1.1-.2.1-.4.2l-.1-.1c.2-.2.3-.3.4-.3zm-70.8 4.8c.1-.1.2-.1.4-.2 0 0 .1.1.1.2-.1.1-.2.1-.4.2 0 0 0-.1-.1-.2zm40.8 4.8c.1 0 .2-.1.4-.1l.1.1c-.1 0-.2.1-.4.1 0 .1 0 0-.1-.1zm-2.6 2.1c-.1-.1-.1-.2-.2-.3.1 0 .2-.1.4-.1 0 0 .1.1.1.2-.1.1-.2.1-.3.2zm.5 3.1l.2.1-.2.1zM385.2 286c-.1 0-.1 0-.2-.1l.2-.2.1.1c0 .1-.1.2-.1.2zm53 .9c0 .1.1.1.1.2s-.1.1-.1.2c-.1-.2 0-.3 0-.4zm45.6 10.7l.2.2c-.1.1-.2.1-.4.2 0 0-.1-.1-.2-.1.1-.2.3-.2.4-.3zm-128.2 3.1c-.1 0-.1.1-.2.1 0-.1-.1-.2-.1-.3h.2c0 .1 0 .2.1.2zm40.6 1.9c-.1 0-.2.1-.2.1v-.1c0-.1 0 0 .2 0zm67.1 2.1l.1-.1.1.2zm-18.3 1.2s0-.1.1-.1h.2s0 .1-.1.1c0 .1-.1 0-.2 0zm35.1.5c0-.1-.1-.2-.1-.3 0 0 .1 0 .2-.1-.1.2-.1.3-.1.4zm-114.2 4.3c-.1.1-.1.2-.2.4-.1-.1-.2-.1-.2-.1 0-.1.1-.2.2-.4.1 0 .2 0 .2.1zm113 1.7c0 .1.1.1.1.2-.1.1-.2.1-.4.2 0 0-.1-.1-.1-.2.2-.1.3-.2.4-.2zm-83.3 3.9c0 .1 0 .1.1.2h-.2s0-.1-.1-.1c0 0 .1-.1.2-.1zm10.3 1.9c0 .1-.1.1-.1.2-.1-.1-.1-.2-.2-.2.1 0 .1-.1.2-.1 0-.1 0 0 .1.1zm1.1 5.8c-.1 0-.1.1-.2.1 0-.1-.1-.2-.1-.3h.2c.1.1.1.2.1.2zm30.5.1c-.1 0-.1.1-.2.1 0-.1 0-.2-.1-.3h.2c.1.1.1.2.1.2zm-64.6 1.4c-.1-.1-.2-.2-.2-.3 0-.1.1-.2.2-.2l.1.1c0 .1 0 .2-.1.4zm117.2-192.9l-.1-.1h.2zm-191.9 14.7c-.1 0-.1.1-.2.1l-.1-.1c.1 0 .1-.1.2-.1 0-.1.1 0 .1.1zM564 171.4v.2l-.1-.1zm-224.8 3c-.1 0-.1.1-.2.1s-.1-.1-.1-.1c.1 0 .1-.1.2-.1 0 0 0 .1.1.1zm222.9 16.2l-.1.1v-.2zm-292.8 6v-.1h-.1z" class="st3_6"/></defs><style>.st3_6{fill:#5bc5dd}.st8_6{fill:#6cedfd}.st9_6{fill:#83f6ff}.st11_6{fill:#71d4ff}.st17_6{fill:#14466a}.st18_6{fill:#86d8dd}.st20_6,.st21_6{enable-background:new}.st20_6{fill:#fff7cc;opacity:.65}.st21_6{opacity:.3}.st21_6,.st27_6{fill:#146b87}.st34_6{fill:#131f49}.st41_6{fill:#153f9e}.st42_6{fill:#11327d}.st75_6{fill:#fff7cc}</style><linearGradient id="SVGID_1_6" x1="348.619" x2="348.619" y1="-584.616" y2="-204.023" gradientTransform="matrix(1 0 0 -1 0 -64.404)" gradientUnits="userSpaceOnUse"><stop offset="0" stop-color="#1a374d"/><stop offset="1" stop-color="#1f2433"/></linearGradient><path fill="url(#SVGID_1_6)" fill-rule="evenodd" d="M145.5 424.5c-20.4-33.3-32.4-71.1-43-103.3-10.2-32.4-18-59.1-14.5-75.9 3.1-17.3 18.9-24.7 42-30.3 22.7-6 51.6-10.8 75.4-31 52.9-33.5 89.2-94.4 147.4-117.7C408 39.7 488 55.9 544.7 99.8c112.8 85.8 61.7 201.2-18.5 339.3-40.6 67.8-94.6 117.6-177.9 106.7-81.5-8.2-164.1-54.5-202.8-121.3" clip-rule="evenodd"/><linearGradient id="SVGID_2_6" x1="168.051" x2="570.885" y1="-352.075" y2="-352.075" gradientTransform="matrix(1 0 0 -1 0 -64.404)" gradientUnits="userSpaceOnUse"><stop offset="0" stop-color="#4aa3dc"/><stop offset="1" stop-color="#3364a0"/></linearGradient><path fill="url(#SVGID_2_6)" fill-rule="evenodd" d="M554.7 228.3c9.1 30.1 11.2 62.5 13.2 90.1 1.7 27.7 2.7 50.4-2.9 63.4-5.4 13.4-18.4 16.8-36.4 17.5-17.8 1.1-39.9.2-61.1 12.5-45 18.3-82.7 61.3-129.7 70.4-45.5 12.3-101.6-13.8-135.5-58.4-67.8-87.4-9.6-171.9 74.2-269.7 42-47.8 90.8-79 150.2-56.6 58.7 20.1 111.4 70.8 128 130.8" clip-rule="evenodd"/><path fill="#303f54" fill-rule="evenodd" d="M465.3 114c39.5 5.4 75.8 16.1 100.8 27.9 25.3 12 39.2 25.1 41.3 38.4 2.4 13.4-6.9 26.9-20.9 42.5-13.7 15.7-32 33.5-40 58.2-21.9 47.6-17.4 103.3-38.3 143.6-18.3 40.8-62 66-120.6 65.8-115 0-205.3-91.9-207-207 .6-57 22.1-109.3 73.9-139.8 50.1-31.3 130.5-40.7 210.8-29.6" clip-rule="evenodd"/><path d="M322.8 453.3c-.4-1-.4-1.7 0-2.3.2-.3.6-.5 1-.2.5.2.7.8.4 1.2-.3.4-.8.8-1.4 1.3zM212.7 341.4c-.1-.1-.4-.3-.5-.5-.2-.6.3-1.3.9-1.4.3 0 .8.4.8.7-.1.6-.5 1.1-1.2 1.2zm140-23.4c-.5-.9-.3-1.4.1-1.8.3-.3.6-.4 1-.2.4.3.5.9.1 1.2-.4.3-.8.5-1.2.8zm102.1-73.7c-.2-.3-.4-.7-.4-1s.2-.7.5-.9c.2-.1.6-.1.8 0 .2.1.2.5.2.8-.2.6-.3 1.1-1.1 1.1zm-93.2 109.9c0-.9-.1-1.3 0-1.7.1-.2.4-.4.7-.5.2-.1.5 0 .6.1s.2.4.2.6c0 .7-.6.9-1.5 1.5zm155.6-73.5c-.6 0-1.2.1-2.1.1.2-.5.2-.9.4-1 .8-.3 1.3.2 1.7.9zm-108.4 72.6c.1-.5 0-1 .2-1.5.1-.2.6-.3 1-.4.1.3.4.8.3 1-.2.4-.7.8-1 1.1-.2 0-.3-.1-.5-.2zm-87.1-109c.2-1.1.3-1.7.4-2.3.9-.1 1.1.5 1.3 1.2-.4.3-.8.6-1.7 1.1zM270 278.4c-.4-1.1-.1-1.5.4-1.8.2-.1.5-.1.6 0s.3.5.2.6l-1.2 1.2zm111.4 32.2c0-.3-.1-.6 0-.7.1-.4.4-.7.8-.6.1 0 .3.1.3.3.2.5-.1.7-.4.9-.1 0-.3 0-.7.1zm-118.1 80.2c-.1-.1-.1-.1-.1-.2 0-1 .1-1.4.7-1.4.2 0 .5.2.5.4.2.7-.3 1-.8 1.2h-.3zm315.9-226.5c-.1.5-1 .8-1.3.4-.1-.1-.1-.3-.1-.4.2-.5.7-.6 1.2-.4.1.1.1.3.2.4zm-92.1 70.3c-.3-.1-.5-.2-.9-.3.5-.7.8-1.3 1.9-.9-.5.5-.8.9-1 1.2zm-.1.1c.1.1.3.1.4.2.2.2.4.5.4.7-.1.2-.4.4-.7.5-.3.1-.6-.1-.8-.1-.2-.8.4-1 .7-1.3zm-30.5 169.2c-.2-.4-.4-.6-.4-.7.1-.3.4-.5.6-.8.2.2.5.5.5.6-.1.3-.4.6-.7.9zm-32.8-265c.3-.3.5-.6.8-.9.1-.1.5.1.6.2.1.2.1.5 0 .6-.3.2-.7.3-1 .5-.2-.1-.3-.2-.4-.4zm-59.4 224.2c.1.1.2.2.3.4.1.5.2.9-.4 1.1-.1 0-.3 0-.4-.1-.4-.4-.2-.8.2-1.2 0-.2.1-.2.3-.2zm26.1-35.5c.3.2.6.4.5.5-.1.3-.2.5-.4.7-.1.1-.4-.1-.6-.2.2-.3.3-.6.5-1zm52.2-34.3c.1.3.2.5.2.7-.1.3-.2.5-.4.7 0 0-.3 0-.4-.1-.3-.3-.3-.7 0-1 .1-.1.3-.2.6-.3zm14.4-52.1c.2.3.6.5.5.7 0 .2-.3.4-.5.6-.1-.2-.4-.4-.4-.7 0-.1.2-.3.4-.6zm-25.6 30.2c.2.4.4.7.6 1.1 0 0-.2.2-.3.2-.4 0-.8-.5-.7-.9-.1-.2.1-.2.4-.4zm-8.3-11.2c.4 0 .8-.1 1.2-.1 0 0 .1.3.1.4-.1.4-.8.5-1.1.3-.1-.1-.1-.2-.2-.6zm1.8-11.7c.4 0 .8-.1 1.2-.1 0 0 .1.3.1.4-.1.4-.8.5-1.1.3-.1 0-.1-.2-.2-.6zm65-10c-.7.1-1.1-.1-1.3-1 .8 0 1.3.2 1.3 1zm-37.2 67.7c-.1-.2-.2-.5-.1-.7s.4-.4.7-.5c0 0 .3.2.3.3 0 .2-.1.5-.2.6-.2.2-.5.2-.7.3 0-.1 0 0 0 0zm-227.5 81.7c.2 0 .3 0 .4.1l.6.6c-.2.1-.3.3-.5.4-.2-.2-.4-.5-.5-.7-.1-.1-.1-.2 0-.4zm288.9-141.5c0 .6-.3.7-.7.8-.1 0-.3-.1-.4-.2-.2-.3.2-.8.6-.8.2-.1.4.1.5.2zm15.1-96.2c.2.3.4.4.5.6-.2.2-.4.4-.7.5-.1 0-.3-.2-.4-.4.2-.2.4-.4.6-.7zm-95.8-32.3c-.3.1-.7.2-1 .3 0 0-.2-.2-.2-.4 0-.4.5-.6.9-.5.1.1.1.3.3.6zm8.2 286.9c-.2-.4-.4-.6-.4-.7.1-.2.4-.4.6-.6.1.2.4.4.3.5.1.3-.2.5-.5.8zm-170.1-136c-.5.2-.8.3-1.1.5-.1-.1-.2-.3-.2-.4l.6-.6c.2-.1.4.2.7.5zm259.4-34.5c-.3.1-.7.2-1 .3 0 0-.2-.3-.1-.4.1-.4.6-.6.9-.4 0 0 0 .2.2.5zm-71.7 144.5c-.2.2-.4.4-.6.4-.1 0-.4-.3-.4-.4 0-.2.3-.4.4-.4.2 0 .3.3.6.4zM472.8 234c-.9.3-1.2.6-1.4.5-.2-.1-.3-.4-.5-.6.3-.1.5-.2.8-.2.3 0 .5.1 1.1.3zm-176.5 31.7l.4.4c-.2.2-.3.4-.5.6-.1-.1-.4-.3-.4-.4.1-.3.3-.4.5-.6zm-58.8 126.2c.3-.2.5-.4.7-.6.1.2.3.3.3.5s-.2.4-.4.5c-.1 0-.3-.2-.6-.4zm109.8-8.3c-.2.1-.3.3-.5.4-.1-.2-.2-.3-.4-.5.2-.1.3-.3.5-.3.1 0 .2.2.4.4zm-47.2-205.5c-.2-.2-.3-.3-.5-.4.1-.2.3-.4.4-.4s.3.2.5.3c-.1.1-.2.3-.4.5zm131.3 153.4c-.5.3-.7.5-.9.5-.1 0-.3-.3-.3-.4 0-.2.3-.3.4-.4.3 0 .5.1.8.3zm71.5-117.1c.3-.2.4-.4.6-.4.1 0 .3.2.5.4-.2.1-.3.3-.5.4-.1-.1-.3-.3-.6-.4zM333.7 346.6c-.3-.3-.5-.4-.5-.6s.2-.4.3-.5c.1-.1.5.1.5.2 0 .3-.1.5-.3.9zm17.6 55.1c-.2.2-.4.4-.6.4-.1 0-.3-.2-.4-.4.2-.1.3-.4.5-.4.1 0 .3.3.5.4zm-96.4-80.5c-.2.1-.5.3-.7.4l-.2-.3c.2-.2.4-.4.6-.5.1 0 .1.2.3.4zm77.4-61.2c-.2-.2-.3-.3-.5-.3l.6-.6c.1.1.4.3.4.4-.1.2-.3.3-.5.5zm105.8 85.7c-.2-.3-.4-.5-.3-.7s.3-.4.5-.6c.1.2.3.3.3.5 0 .3-.2.4-.5.8zm34.2-.7c-.2-.4-.3-.6-.3-.8 0-.2.2-.4.4-.5.1 0 .4.2.4.3 0 .3-.2.5-.5 1zM500 182.2c-.2.1-.4.3-.5.3s-.2-.3-.3-.5c.2-.1.4-.2.6-.2 0 0 .1.3.2.4zm-37 36c.2-.7.6-.8 1.3-.4-.5.2-.9.3-1.3.4zm3.9 220.8c-.1-.3-.3-.5-.2-.6.1-.2.3-.3.5-.4.1.2.3.4.3.5-.1.2-.4.3-.6.5z" class="st3_6"/><use class="st3_6" xlink:href="#reuse-0"/><use class="st3_6" xlink:href="#reuse-1"/><path d="M199.6 261.3l.3-.3c.3.3.1.4-.1.5l-.2-.2zm121.1 159.6l-.1.2.1-.1zm-75.4-162.1c-.1 0-.1.1-.2.1s-.1-.1-.1-.2c.1 0 .1-.1.2-.1 0 0 .1.1.1.2zM261 435l-.1.1v-.1zm168.2 0l-.1.1v-.1zM286.3 255.4l-.2.1v-.2zM278.7 437l-.1.1c0-.1-.1-.1-.1-.2l.1-.1c0 .1.1.1.1.2zm197 .9l.2-.1v.2zM464 252.5l-.1.1v-.1zm-131.7 71.1v-.1h.1zm4.3 127.6h.1v.1zm11.9 0h.1v.1zM358.6 343v.1h-.1zm132-97.5l-.1-.2.2.1zM465 454.6l-.1.1-.1-.1.1-.1s0 .1.1.1zm-.3 3.3h.2l-.1.1zm42.5-216.8l.1-.1v.2zm-95.7 76.1v.2h-.1zm22.4-22.6l-.1-.2.1.1zM333.3 471.2l.1.1h-.1zm92.1.1l-.2.2c-.1-.1-.1-.1-.1-.2s.1-.1.2-.2c0 .1.1.1.1.2zm-78.5-231.8zm0 0l.1-.1-.1.1zm82.7 69.6v.2h-.1zm9.3-17.7l-.1-.1.1.1zm111.2-59.1l.2.4h-.4zM322.8 453.3c-.4-1-.4-1.7 0-2.3.2-.3.6-.5 1-.2.5.2.7.8.4 1.2-.3.4-.8.8-1.4 1.3zM212.7 341.4c-.1-.1-.4-.3-.5-.5-.2-.6.3-1.3.9-1.4.3 0 .8.4.8.7-.1.6-.5 1.1-1.2 1.2zm140-23.4c-.5-.9-.3-1.4.1-1.8.3-.3.6-.4 1-.2.4.3.5.9.1 1.2-.4.3-.8.5-1.2.8zm102.1-73.7c-.2-.3-.4-.7-.4-1s.2-.7.5-.9c.2-.1.6-.1.8 0 .2.1.2.5.2.8-.2.6-.3 1.1-1.1 1.1zm-93.2 109.9c0-.9-.1-1.3 0-1.7.1-.2.4-.4.7-.5.2-.1.5 0 .6.1s.2.4.2.6c0 .7-.6.9-1.5 1.5zm155.6-73.5c-.6 0-1.2.1-2.1.1.2-.5.2-.9.4-1 .8-.3 1.3.2 1.7.9zm-108.4 72.6c.1-.5 0-1 .2-1.5.1-.2.6-.3 1-.4.1.3.4.8.3 1-.2.4-.7.8-1 1.1-.2 0-.3-.1-.5-.2zm-87.1-109c.2-1.1.3-1.7.4-2.3.9-.1 1.1.5 1.3 1.2-.4.3-.8.6-1.7 1.1zM270 278.4c-.4-1.1-.1-1.5.4-1.8.2-.1.5-.1.6 0s.3.5.2.6l-1.2 1.2zm111.4 32.2c0-.3-.1-.6 0-.7.1-.4.4-.7.8-.6.1 0 .3.1.3.3.2.5-.1.7-.4.9-.1 0-.3 0-.7.1zm-118.1 80.2c-.1-.1-.1-.1-.1-.2 0-1 .1-1.4.7-1.4.2 0 .5.2.5.4.2.7-.3 1-.8 1.2h-.3zm315.9-226.5c-.1.5-1 .8-1.3.4-.1-.1-.1-.3-.1-.4.2-.5.7-.6 1.2-.4.1.1.1.3.2.4zm-92.1 70.3c-.3-.1-.5-.2-.9-.3.5-.7.8-1.3 1.9-.9-.5.5-.8.9-1 1.2zm-.1.1c.1.1.3.1.4.2.2.2.4.5.4.7-.1.2-.4.4-.7.5-.3.1-.6-.1-.8-.1-.2-.8.4-1 .7-1.3zm-30.5 169.2c-.2-.4-.4-.6-.4-.7.1-.3.4-.5.6-.8.2.2.5.5.5.6-.1.3-.4.6-.7.9zm-32.8-265c.3-.3.5-.6.8-.9.1-.1.5.1.6.2.1.2.1.5 0 .6-.3.2-.7.3-1 .5-.2-.1-.3-.2-.4-.4zm-59.4 224.2c.1.1.2.2.3.4.1.5.2.9-.4 1.1-.1 0-.3 0-.4-.1-.4-.4-.2-.8.2-1.2 0-.2.1-.2.3-.2zm26.1-35.5c.3.2.6.4.5.5-.1.3-.2.5-.4.7-.1.1-.4-.1-.6-.2.2-.3.3-.6.5-1zm52.2-34.3c.1.3.2.5.2.7-.1.3-.2.5-.4.7 0 0-.3 0-.4-.1-.3-.3-.3-.7 0-1 .1-.1.3-.2.6-.3zm14.4-52.1c.2.3.6.5.5.7 0 .2-.3.4-.5.6-.1-.2-.4-.4-.4-.7 0-.1.2-.3.4-.6zm-25.6 30.2c.2.4.4.7.6 1.1 0 0-.2.2-.3.2-.4 0-.8-.5-.7-.9-.1-.2.1-.2.4-.4zm-8.3-11.2c.4 0 .8-.1 1.2-.1 0 0 .1.3.1.4-.1.4-.8.5-1.1.3-.1-.1-.1-.2-.2-.6zm1.8-11.7c.4 0 .8-.1 1.2-.1 0 0 .1.3.1.4-.1.4-.8.5-1.1.3-.1 0-.1-.2-.2-.6zm65-10c-.7.1-1.1-.1-1.3-1 .8 0 1.3.2 1.3 1zm-37.2 67.7c-.1-.2-.2-.5-.1-.7s.4-.4.7-.5c0 0 .3.2.3.3 0 .2-.1.5-.2.6-.2.2-.5.2-.7.3 0-.1 0 0 0 0zm-227.5 81.7c.2 0 .3 0 .4.1l.6.6c-.2.1-.3.3-.5.4-.2-.2-.4-.5-.5-.7-.1-.1-.1-.2 0-.4zm288.9-141.5c0 .6-.3.7-.7.8-.1 0-.3-.1-.4-.2-.2-.3.2-.8.6-.8.2-.1.4.1.5.2zm15.1-96.2c.2.3.4.4.5.6-.2.2-.4.4-.7.5-.1 0-.3-.2-.4-.4.2-.2.4-.4.6-.7zm-95.8-32.3c-.3.1-.7.2-1 .3 0 0-.2-.2-.2-.4 0-.4.5-.6.9-.5.1.1.1.3.3.6zm8.2 286.9c-.2-.4-.4-.6-.4-.7.1-.2.4-.4.6-.6.1.2.4.4.3.5.1.3-.2.5-.5.8zm-170.1-136c-.5.2-.8.3-1.1.5-.1-.1-.2-.3-.2-.4l.6-.6c.2-.1.4.2.7.5zm259.4-34.5c-.3.1-.7.2-1 .3 0 0-.2-.3-.1-.4.1-.4.6-.6.9-.4 0 0 0 .2.2.5zm-71.7 144.5c-.2.2-.4.4-.6.4-.1 0-.4-.3-.4-.4 0-.2.3-.4.4-.4.2 0 .3.3.6.4zM472.8 234c-.9.3-1.2.6-1.4.5-.2-.1-.3-.4-.5-.6.3-.1.5-.2.8-.2.3 0 .5.1 1.1.3zm-176.5 31.7l.4.4c-.2.2-.3.4-.5.6-.1-.1-.4-.3-.4-.4.1-.3.3-.4.5-.6zm-58.8 126.2c.3-.2.5-.4.7-.6.1.2.3.3.3.5s-.2.4-.4.5c-.1 0-.3-.2-.6-.4zm109.8-8.3c-.2.1-.3.3-.5.4-.1-.2-.2-.3-.4-.5.2-.1.3-.3.5-.3.1 0 .2.2.4.4zm-47.2-205.5c-.2-.2-.3-.3-.5-.4.1-.2.3-.4.4-.4s.3.2.5.3c-.1.1-.2.3-.4.5zm131.3 153.4c-.5.3-.7.5-.9.5-.1 0-.3-.3-.3-.4 0-.2.3-.3.4-.4.3 0 .5.1.8.3zm71.5-117.1c.3-.2.4-.4.6-.4.1 0 .3.2.5.4-.2.1-.3.3-.5.4-.1-.1-.3-.3-.6-.4zM333.7 346.6c-.3-.3-.5-.4-.5-.6s.2-.4.3-.5c.1-.1.5.1.5.2 0 .3-.1.5-.3.9zm17.6 55.1c-.2.2-.4.4-.6.4-.1 0-.3-.2-.4-.4.2-.1.3-.4.5-.4.1 0 .3.3.5.4zm-96.4-80.5c-.2.1-.5.3-.7.4l-.2-.3c.2-.2.4-.4.6-.5.1 0 .1.2.3.4zm77.4-61.2c-.2-.2-.3-.3-.5-.3l.6-.6c.1.1.4.3.4.4-.1.2-.3.3-.5.5zm105.8 85.7c-.2-.3-.4-.5-.3-.7s.3-.4.5-.6c.1.2.3.3.3.5 0 .3-.2.4-.5.8zm34.2-.7c-.2-.4-.3-.6-.3-.8 0-.2.2-.4.4-.5.1 0 .4.2.4.3 0 .3-.2.5-.5 1zM500 182.2c-.2.1-.4.3-.5.3s-.2-.3-.3-.5c.2-.1.4-.2.6-.2 0 0 .1.3.2.4zm-37 36c.2-.7.6-.8 1.3-.4-.5.2-.9.3-1.3.4zm3.9 220.8c-.1-.3-.3-.5-.2-.6.1-.2.3-.3.5-.4.1.2.3.4.3.5-.1.2-.4.3-.6.5z" class="st3_6"/><use class="st3_6" xlink:href="#reuse-0"/><use class="st3_6" xlink:href="#reuse-1"/><path d="M199.6 261.3l.3-.3c.3.3.1.4-.1.5l-.2-.2zm121.1 159.6l-.1.2.1-.1zm-75.4-162.1c-.1 0-.1.1-.2.1s-.1-.1-.1-.2c.1 0 .1-.1.2-.1 0 0 .1.1.1.2zM261 435l-.1.1v-.1zm168.2 0l-.1.1v-.1zM286.3 255.4l-.2.1v-.2zM278.7 437l-.1.1c0-.1-.1-.1-.1-.2l.1-.1c0 .1.1.1.1.2zm197 .9l.2-.1v.2zM464 252.5l-.1.1v-.1zm-131.7 71.1v-.1h.1zm4.3 127.6h.1v.1zm11.9 0h.1v.1zM358.6 343v.1h-.1zm132-97.5l-.1-.2.2.1zM465 454.6l-.1.1-.1-.1.1-.1s0 .1.1.1zm-.3 3.3h.2l-.1.1zm42.5-216.8l.1-.1v.2zm-95.7 76.1v.2h-.1zm22.4-22.6l-.1-.2.1.1zM333.3 471.2l.1.1h-.1zm92.1.1l-.2.2c-.1-.1-.1-.1-.1-.2s.1-.1.2-.2c0 .1.1.1.1.2zm-78.5-231.8zm0 0l.1-.1-.1.1zm82.7 69.6v.2h-.1zm9.3-17.7l-.1-.1.1.1zm111.2-59.1l.2.4h-.4z" class="st3_6"/><g><linearGradient id="SVGID_3_6" x1="544.573" x2="533.26" y1="-192.524" y2="-198.94" gradientTransform="matrix(1 0 0 -1 0 -64.404)" gradientUnits="userSpaceOnUse"><stop offset="0" stop-color="#2bb1e9"/><stop offset="1" stop-color="#2295d1"/></linearGradient><path fill="url(#SVGID_3_6)" d="M523.4 102.5c13.7 2.6 27.3 5.2 41 7.8 4.6 3.7 9.3 7.4 14 11.1-10.4 14.3-20.8 28.5-31.1 42.8-7.9-20.5-15.9-41.1-23.9-61.7z"/><linearGradient id="SVGID_4_6" x1="555.831" x2="532.785" y1="-153.824" y2="-187.582" gradientTransform="matrix(1 0 0 -1 0 -64.404)" gradientUnits="userSpaceOnUse"><stop offset="0" stop-color="#33beff"/><stop offset="1" stop-color="#6deefe"/></linearGradient><path fill="url(#SVGID_4_6)" d="M523.4 102.5c9 9.8 18 19.5 27 29.3 4.7-7.2 9.3-14.4 14-21.6-13.7-2.4-27.3-5-41-7.7z"/><linearGradient id="SVGID_5_6" x1="566.965" x2="556.834" y1="-182.498" y2="-187.395" gradientTransform="matrix(1 0 0 -1 0 -64.404)" gradientUnits="userSpaceOnUse"><stop offset="0" stop-color="#33beff"/><stop offset="1" stop-color="#6deefe"/></linearGradient><path fill="url(#SVGID_5_6)" d="M550.4 131.9c9.3-3.5 18.6-6.9 28-10.4-4.6-3.7-9.3-7.4-14-11.1-4.7 7.1-9.3 14.3-14 21.5z"/><linearGradient id="SVGID_6_6" x1="569.47" x2="556.515" y1="-175.601" y2="-215.214" gradientTransform="matrix(1 0 0 -1 0 -64.404)" gradientUnits="userSpaceOnUse"><stop offset="0" stop-color="#36abea"/><stop offset="1" stop-color="#48cff2"/></linearGradient><path fill="url(#SVGID_6_6)" d="M550.4 131.9c-1 10.8-2.1 21.6-3.1 32.4 10.4-14.3 20.7-28.5 31.1-42.8-9.4 3.5-18.7 6.9-28 10.4z"/><path d="M578.4 121.5c-.1-.1-.1-.1 0 0-9.6 3.2-19 6.5-28.5 9.9.1.2.3.3.5.5 9.3-3.5 18.6-6.9 28-10.4z" class="st8_6"/><path d="M550.4 131.9c-15.8-17-23.7-25.5-23.6-25.6s8.1 8.2 24 24.8c-.1.3-.2.5-.4.8z" class="st9_6"/><linearGradient id="SVGID_7_6" x1="568.691" x2="563.957" y1="-170.779" y2="-193.201" gradientTransform="matrix(1 0 0 -1 0 -64.404)" gradientUnits="userSpaceOnUse"><stop offset="0" stop-color="#6cedfd"/><stop offset="1" stop-color="#b1f5fd"/></linearGradient><path fill="url(#SVGID_7_6)" d="M564.4 110.3c-4.7 7.2-9.3 14.4-14 21.6 9.3-3.5 18.6-6.9 28-10.4-4.7-3.7-9.3-7.4-14-11.2z"/><path d="M547.3 164.3c1.9-21.6 3-32.4 3.1-32.4s-.7 10.4-2.3 31.3c-.2.3-.5.7-.8 1.1z" class="st11_6"/></g><g><linearGradient id="SVGID_8_6" x1="468.02" x2="462.461" y1="-230.363" y2="-233.516" gradientTransform="matrix(1 0 0 -1 0 -64.404)" gradientUnits="userSpaceOnUse"><stop offset="0" stop-color="#2bb1e9"/><stop offset="1" stop-color="#2295d1"/></linearGradient><path fill="url(#SVGID_8_6)" d="M457.6 153.4c6.7 1.3 13.4 2.5 20.1 3.8 2.3 1.8 4.6 3.7 6.9 5.5l-15.3 21c-3.8-10.1-7.8-20.2-11.7-30.3z"/><linearGradient id="SVGID_9_6" x1="473.572" x2="462.248" y1="-211.35" y2="-227.938" gradientTransform="matrix(1 0 0 -1 0 -64.404)" gradientUnits="userSpaceOnUse"><stop offset="0" stop-color="#33beff"/><stop offset="1" stop-color="#6deefe"/></linearGradient><path fill="url(#SVGID_9_6)" d="M457.6 153.4c4.4 4.8 8.8 9.6 13.3 14.4 2.3-3.5 4.6-7.1 6.9-10.6-6.8-1.3-13.5-2.6-20.2-3.8z"/><linearGradient id="SVGID_10_6" x1="479" x2="474.022" y1="-225.393" y2="-227.799" gradientTransform="matrix(1 0 0 -1 0 -64.404)" gradientUnits="userSpaceOnUse"><stop offset="0" stop-color="#33beff"/><stop offset="1" stop-color="#6deefe"/></linearGradient><path fill="url(#SVGID_10_6)" d="M470.9 167.8c4.6-1.7 9.2-3.4 13.7-5.1-2.3-1.8-4.6-3.7-6.9-5.5-2.2 3.5-4.5 7-6.8 10.6z"/><linearGradient id="SVGID_11_6" x1="480.289" x2="473.923" y1="-222.045" y2="-241.51" gradientTransform="matrix(1 0 0 -1 0 -64.404)" gradientUnits="userSpaceOnUse"><stop offset="0" stop-color="#36abea"/><stop offset="1" stop-color="#48cff2"/></linearGradient><path fill="url(#SVGID_11_6)" d="M470.9 167.8l-1.5 15.9 15.3-21c-4.7 1.7-9.2 3.4-13.8 5.1z"/><path d="M484.6 162.7c0-.1 0-.1 0 0-4.7 1.6-9.3 3.2-14 4.8.1.1.2.2.2.3 4.7-1.7 9.2-3.4 13.8-5.1z" class="st8_6"/><path d="M470.9 167.8c-7.8-8.3-11.6-12.5-11.6-12.6 0 0 4 4 11.8 12.2-.1.1-.1.3-.2.4z" class="st9_6"/><linearGradient id="SVGID_12_6" x1="479.86" x2="477.534" y1="-219.66" y2="-230.678" gradientTransform="matrix(1 0 0 -1 0 -64.404)" gradientUnits="userSpaceOnUse"><stop offset="0" stop-color="#6cedfd"/><stop offset="1" stop-color="#b1f5fd"/></linearGradient><path fill="url(#SVGID_12_6)" d="M477.8 157.2c-2.3 3.5-4.6 7.1-6.9 10.6 4.6-1.7 9.2-3.4 13.7-5.1-2.3-1.9-4.5-3.7-6.8-5.5z"/><path d="M469.3 183.7l1.5-15.9s-.3 5.1-1.1 15.4c-.1.1-.2.3-.4.5z" class="st11_6"/></g><g><path d="M422.9 280.8c2.6-5.3 5.1-10.7 7.8-16.1 1.6.5 3 .9 4.6 1.3-1.6 4.2-3.1 8.3-4.7 12.5-2 .8-5.7 1.5-7.7 2.3z" class="st17_6"/><path d="M515.7 214.8c1.1 1.5 2.3 3 3.4 4.6-11 15.9-22.3 32.3-33.4 48.2-37.2-1.8-70.7-2.1-98.3 1.1l-1.2-2.5c39.6-22.6 85.3-40.1 129.5-51.4z" class="st18_6"/><path d="M249.2 327.9L189 286.2l-3.9 5.7 59.7 51.2zm-67.3-43.6l-69.6.8.2 13.8 69.3-10.1z" class="st17_6"/><path d="M117 294.5l16.4 34.5-22.6 3.8 1.6-37.7z" class="st17_6"/><linearGradient id="SVGID_13_6" x1="-567.047" x2="-512.657" y1="84.431" y2="84.431" gradientTransform="rotate(-145.731 -171.247 109.447)" gradientUnits="userSpaceOnUse"><stop offset="0" stop-color="#131f49"/><stop offset=".615" stop-color="#22567d"/></linearGradient><path fill="url(#SVGID_13_6)" d="M147.5 325.7l-57.8 7.1 6.7 20.5 50.6-8z"/><path d="M127.8 344.9c.1-1.4-.1-2.8-.3-4.2-.1-3.4 0-7-.8-10.3l18.6-2.3-.4 15.5-17 2.7c0-.5-.1-1-.1-1.4z" class="st20_6"/><path d="M111.9 332.1c0 .6-.1 1.2-.1 1.8-.2 4.4-.2 8.7.9 13v1.7l-15 2.4-5.4-16.5 19.6-2.4z" class="st21_6"/><linearGradient id="SVGID_14_6" x1="-586.183" x2="-555.061" y1="58.537" y2="94.156" gradientTransform="rotate(-145.731 -171.247 109.447)" gradientUnits="userSpaceOnUse"><stop offset="0" stop-color="#fd1013"/><stop offset=".478" stop-color="#ea23bd"/><stop offset=".684" stop-color="#3f3ccf"/><stop offset=".739" stop-color="#4159cd"/><stop offset=".856" stop-color="#45a4c6"/><stop offset=".86" stop-color="#45a7c6"/></linearGradient><path fill="url(#SVGID_14_6)" d="M147 345.3l-3.7 32.2-9.9 1.1-3.7-30.5z"/><linearGradient id="SVGID_15_6" x1="-561.782" x2="-530.659" y1="37.218" y2="72.836" gradientTransform="rotate(-145.731 -171.247 109.447)" gradientUnits="userSpaceOnUse"><stop offset="0" stop-color="#fd1013"/><stop offset=".478" stop-color="#ea23bd"/><stop offset=".684" stop-color="#3f3ccf"/><stop offset=".739" stop-color="#4159cd"/><stop offset=".856" stop-color="#45a4c6"/><stop offset=".86" stop-color="#45a7c6"/></linearGradient><path fill="url(#SVGID_15_6)" d="M96.4 353.3l13.6 27.9 9.8-1.5-7.9-28.8z"/><linearGradient id="SVGID_16_6" x1="-578.652" x2="-558.25" y1="163.861" y2="163.861" gradientTransform="rotate(-145.731 -171.247 109.447)" gradientUnits="userSpaceOnUse"><stop offset="0" stop-color="#fd1013"/><stop offset=".478" stop-color="#ea23bd"/><stop offset=".684" stop-color="#3f3ccf"/><stop offset=".739" stop-color="#4159cd"/><stop offset=".856" stop-color="#45a4c6"/><stop offset=".86" stop-color="#45a7c6"/></linearGradient><path fill="url(#SVGID_16_6)" d="M179.2 282.4c3.2-4.7 9.5-5.9 14.2-2.7 4.7 3.2 5.9 9.5 2.7 14.2s-9.5 5.9-14.2 2.7c-4.7-3.2-5.9-9.5-2.7-14.2z"/><path d="M184.8 286.2c1.1-1.6 3.2-2 4.8-.9s2 3.2.9 4.8c-1.1 1.6-3.2 2-4.8.9-1.6-1-2-3.2-.9-4.8z" class="st17_6"/><linearGradient id="SVGID_17_6" x1="-520.557" x2="-496.901" y1="118.823" y2="118.823" gradientTransform="rotate(-145.731 -171.247 109.447)" gradientUnits="userSpaceOnUse"><stop offset="0" stop-color="#fd1013"/><stop offset=".478" stop-color="#ea23bd"/><stop offset=".684" stop-color="#3f3ccf"/><stop offset=".739" stop-color="#4159cd"/><stop offset=".856" stop-color="#45a4c6"/><stop offset=".86" stop-color="#45a7c6"/></linearGradient><path fill="url(#SVGID_17_6)" d="M103.2 285.1c3.7-5.4 11-6.8 16.4-3.1 5.4 3.7 6.8 11 3.1 16.4-3.7 5.4-11 6.8-16.4 3.1-5.4-3.7-6.8-11-3.1-16.4z"/><path d="M109.4 289.3c1.3-1.9 4-2.4 5.9-1.1s2.4 4 1.1 5.9-4 2.4-5.9 1.1-2.4-3.9-1.1-5.9z" class="st17_6"/><path fill="#22567d" d="M521.7 403.1l-71.4-6.7 1.1-35.1-8.4-.4 1.4 40.1 75.6 10.1z"/><path d="M290.3 362.3c-6 16.4-4.9 37 2.9 57.5 2.8 7.4 6.8 15.2 13.5 21 7 6.1 16 9.1 23.4 8.6 7.1-.4 12.7-3.7 16.5-8.4 3.2-3.9 5.2-8.8 6.7-13.9 3.1-10.9 3.7-23.2 1.5-36-.5-3.2-1.2-6.4-2.1-9.6-2-7.2-5-15.8-11.1-22.3-5.2-5.6-12.6-10.1-19.3-12.4-6.9-2.3-13.7-2.5-19-.3-6.7 2.8-10.5 9-13 15.8zm40.2 31.5c-.4-1.6-1.7-3.6-3.1-4.4-.4-9.3-1-22-1.2-27.1.6.6 1.1 1.2 1.7 1.8 1.4 1.6 2.5 3.2 3.4 4.6 8.9 14.6 12.4 30.6 10.3 43.9-3.4-3.9-6.8-7.7-10.3-11.6.1-2.2-.1-4.6-.8-7.2zm-8.7-34.8l-1.6 1.8c.5-.6 1-1.2 1.6-1.8zm3 42.9c.2.4.3.7.6 1.1l-6.6 20.1c-6.7-20-7.4-39.8-1.7-55.9.7-1.9 1.5-3.8 2.6-5.5.4 2 3.5 16.7 5.8 27.4-.3.1-.6.3-1 .6-.6.6-.9 1.5-1.1 2.4-.5 2.9-.1 6.4 1.4 9.8zm-.4 35c-.5-.9-1-1.9-1.4-2.8-.3-.7-.6-1.5-.9-2.2 1.6-9 3.3-18 4.9-27 .4.3.8.5 1.2.6 1.1.3 1.8-.3 2.2-1.1 3.2 4.6 6.6 9.3 9.8 13.9-1.4 4.6-3.5 8.8-6.4 12.3-1.9 2.3-5.2 6.2-9.4 6.3zm-4.9-11.6c-.1 0-.1-.1 0 0-.1-.1-.1 0 0 0zm2.1 5.5zM374 382c-4.4 12.1-3.6 27.1 2.1 42.2 2.1 5.4 5 11.2 9.9 15.4 5.1 4.5 11.8 6.7 17.2 6.3 5.2-.3 9.3-2.7 12.1-6.2 2.3-2.9 3.8-6.4 4.9-10.2 2.3-8 2.7-17 1.1-26.4-.4-2.3-.9-4.7-1.6-7-1.4-5.3-3.7-11.6-8.1-16.4-3.8-4.1-9.3-7.4-14.2-9.1-5-1.7-10.1-1.8-13.9-.2-4.9 2.1-7.7 6.7-9.5 11.6zm23.1-2.3l-1.2 1.3c.4-.5.8-.9 1.2-1.3zm14.5 39.3c-2.5-2.8-5-5.7-7.5-8.5.2-1.7 0-3.5-.5-5.3-.3-1.2-1.2-2.6-2.3-3.2-.3-6.8-.7-16.1-.9-19.9.4.4.8.8 1.2 1.3 1 1.1 1.8 2.3 2.5 3.4 6.5 10.7 9 22.4 7.5 32.2zm-12.3-7.9c.1.3.2.5.4.8l-4.8 14.7c-4.9-14.7-5.4-29.2-1.3-41 .5-1.4 1.1-2.8 1.9-4 .3 1.4 2.6 12.3 4.3 20.1-.2.1-.5.2-.7.4-.5.4-.7 1.1-.8 1.7-.4 2.3-.1 4.8 1 7.3zm-.3 25.8c-.4-.7-.7-1.4-1-2.1-.2-.6-.4-1.1-.7-1.7l3.6-19.8c.3.2.6.4.9.4.8.2 1.3-.2 1.6-.8l7.2 10.2c-1 3.4-2.6 6.5-4.7 9.1-1.3 1.7-3.8 4.5-6.9 4.7zm-3.6-8.6zm-159.9.6c2.1 5.4 5 11.2 9.9 15.4 5.1 4.5 11.8 6.7 17.2 6.3 5.2-.3 9.3-2.7 12.1-6.2 2.3-2.9 3.8-6.4 4.9-10.2 2.3-8 2.7-17 1.1-26.4-.4-2.3-.9-4.7-1.6-7-1.4-5.3-3.7-11.6-8.1-16.4-3.8-4.1-9.3-7.4-14.2-9.1-5-1.7-10.1-1.8-13.9-.2-5 2-7.8 6.6-9.6 11.6-4.3 12-3.5 27.1 2.2 42.2zm21-44.6l-1.2 1.3c.4-.5.8-.9 1.2-1.3zm14.4 39.3c-2.5-2.8-5-5.7-7.5-8.5.2-1.7 0-3.5-.5-5.3-.3-1.2-1.2-2.6-2.3-3.2-.3-6.8-.7-16.1-.9-19.9.4.4.8.8 1.2 1.3 1 1.1 1.8 2.3 2.5 3.4 6.5 10.7 9.1 22.4 7.5 32.2zm-12.2-7.9c.1.3.2.5.4.8l-4.8 14.7c-4.9-14.7-5.4-29.2-1.3-41 .5-1.4 1.1-2.8 1.9-4 .3 1.4 2.6 12.3 4.3 20.1-.2.1-.5.2-.7.4-.5.4-.7 1.1-.8 1.7-.4 2.3-.1 4.8 1 7.3zm-.3 25.8c-.4-.7-.7-1.4-1-2.1-.2-.6-.4-1.1-.7-1.7l3.6-19.8c.3.2.6.4.9.4.8.2 1.3-.2 1.6-.8l7.2 10.2c-1 3.4-2.6 6.5-4.7 9.1-1.4 1.7-3.8 4.5-6.9 4.7zm-3.6-8.6z" class="st27_6"/><linearGradient id="SVGID_18_6" x1="-537.347" x2="-587.773" y1="-44.599" y2="-86.188" gradientTransform="rotate(-178.757 -61.239 144.17)" gradientUnits="userSpaceOnUse"><stop offset="0" stop-color="#131f49"/><stop offset=".615" stop-color="#22567d"/></linearGradient><path fill="url(#SVGID_18_6)" d="M405.4 343.8c-4.2 14.9-5 31.1-3.1 46.5 16.1-1.6 31.9-4.3 47.4-8.9 6.1-16 9.3-33.1 9.6-50.3-18.2.2-38.1 3.7-53.9 12.7z"/><linearGradient id="SVGID_19_6" x1="-524.074" x2="-377.474" y1="18.56" y2="-93.73" gradientTransform="rotate(-178.757 -61.239 144.17)" gradientUnits="userSpaceOnUse"><stop offset="0" stop-color="#fff7cc"/><stop offset=".346" stop-color="#fcb8e2"/><stop offset=".389" stop-color="#f8b8e3"/><stop offset=".434" stop-color="#ebb6e6"/><stop offset=".481" stop-color="#d5b4ec"/><stop offset=".529" stop-color="#b7b1f3"/><stop offset=".55" stop-color="#a8b0f7"/><stop offset=".614" stop-color="#a9b4f7"/><stop offset=".683" stop-color="#acc1f5"/><stop offset=".754" stop-color="#b1d7f3"/><stop offset=".793" stop-color="#b4e6f1"/></linearGradient><path fill="url(#SVGID_19_6)" d="M223 342.5c10-17.5 125.8-86.6 261.9-57.1-24.9 10.5-49.8 20.9-74.7 31.4-30.9 13-62.3 26.2-95.5 31-29.4 4.3-63.4 3.6-91.7-5.3z"/><linearGradient id="SVGID_20_6" x1="-375.459" x2="-404.045" y1="-42.396" y2="-80.51" gradientTransform="rotate(180 -56.702 146)" gradientUnits="userSpaceOnUse"><stop offset="0" stop-color="#fff7cc"/><stop offset=".258" stop-color="#fcb8e2"/><stop offset=".402" stop-color="#d2b4ed"/><stop offset=".558" stop-color="#a8b0f7"/><stop offset=".746" stop-color="#b2dff2"/><stop offset=".772" stop-color="#b4e6f1"/></linearGradient><path fill="url(#SVGID_20_6)" d="M319.7 336.9c-33.2 3.5-65.9 4.8-96.7 5.5 5.9 20.2 15.8 39.4 29.1 55.8 33.9 4.1 68.2 4.8 102.4 4-3.6-24.2-16.8-48.7-34.8-65.3z"/><path fill="#e8a699" d="M257.9 362.2c-6.8-3.4-11.4-10-15-17.2 13-.4 27.2-1.1 42.1-2.1-2.8 12.5-13.4 26.1-27.1 19.3z" opacity=".25"/><linearGradient id="SVGID_21_6" x1="-403.601" x2="-411.541" y1="-45.308" y2="-97.715" gradientTransform="rotate(180 -56.702 146)" gradientUnits="userSpaceOnUse"><stop offset="0" stop-color="#a2b5e2"/><stop offset="1" stop-color="#91cddc"/></linearGradient><path fill="url(#SVGID_21_6)" d="M261.9 390.5c28.1 1.5 47.4-23.5 49.2-49.6 2.4-.2 4.7-.4 7.1-.7 0 .4 0 .8.1 1.2 2 9.7 6.8 18.6 10.9 27.6 2.2 4.8 4.6 9.4 7.3 13.8 3.6 6.2 7.9 11.9 13.3 16.4-13 .3-25.1.3-36.9 0-21.2-.5-40.6-1.7-59.3-3.9-2.1-2.7-4.2-5.5-6.1-8.3 4.5 1.9 9.3 3.2 14.4 3.5z"/><path d="M318.7 336.8c45.6-29.2 100.5-46.1 166.2-51.4-1.2 19.1-4.9 33.1-11.5 48.4-24.7 2.5-40.4 4.8-63.1 15 1.3 14.1 2.2 29.9-1.1 43.6-18.3 3.1-36.5 6.7-54.8 9.8-17.5-18-28.6-41.2-35.7-65.4z" class="st18_6"/><path fill="#5ecfd1" d="M244 341.9c2.7 10.5 15 25.7 15 25.7 11 1.6 22.5 1.5 34.5 0 0 0-.5-18.7 1.8-28.4 15-18.1 39-35.4 60.1-45.9-17.2.8-34.2 3.9-47.3 7.8-22.1 9.1-47.6 22.4-64.1 40.8z"/><path d="M266.4 368.4c-3.6-5.2-9.9-14.7-11.7-22 15.8-18.4 37.6-32.1 58.6-42 8-2.5 20.7-4 30.9-5.1-17.9 10.5-36.5 24.9-48.8 39.8-2.3 9.7-1.8 28.4-1.8 28.4-9.4 1.2-18.4 1.5-27.2.9z" class="st34_6"/><linearGradient id="SVGID_22_6" x1="-404.905" x2="-407.439" y1="-67.701" y2="-40.408" gradientTransform="rotate(-178.757 -61.239 144.17)" gradientUnits="userSpaceOnUse"><stop offset="0" stop-color="#131f49"/><stop offset=".615" stop-color="#22567d"/></linearGradient><path fill="url(#SVGID_22_6)" d="M275.6 340.5l19.7-1.4-1.8 19.8-30.4.7c.2-7.7 2-14.8 12.5-19.1z"/><path d="M258.1 301.2l21.1-16.7c-1.5-2.5-3-4.9-4.4-7.3-1.9-3.1-6.4-10.2-8.2-13l11.7-.9c1.5 3.6 2.7 7 3.9 10.4 1.2 3.4 2.4 6.8 3.7 10.1l1 2.5-1.8 1.3-22.3 16.2 24.5 40.3-6.4 7-23.4-46.7-.9-1.8 1.5-1.4z" class="st17_6"/><path d="M322.3 239.7l-3.6 25.8c-28.4-.6-57.1-.2-85.4 2-3.3-7.9-6.1-15.9-7.3-24.4 13.9-6.1 28.8-10 44-10.2 17.1 2.5 35.3 4.3 52.3 6.8z" class="st27_6"/><linearGradient id="SVGID_23_6" x1="-412.596" x2="-431.625" y1="61.766" y2="21.63" gradientTransform="rotate(-178.757 -61.239 144.17)" gradientUnits="userSpaceOnUse"><stop offset="0" stop-color="#131f49"/><stop offset=".615" stop-color="#22567d"/></linearGradient><path fill="url(#SVGID_23_6)" d="M322.3 239.7l-52.3-6.8.6 32.7 48.1-.1z"/><path d="M341.8 239.5l-19.4.2-52.3-6.8-44 10.2-10.4-1.4c19.5-6.8 38.5-11.7 56.3-12.5 26.1.5 50.3 3.1 69.8 10.3z" class="st17_6"/><linearGradient id="SVGID_24_6" x1="-527.274" x2="-609.06" y1="21.551" y2="105.322" gradientTransform="rotate(180 -56.702 146)" gradientUnits="userSpaceOnUse"><stop offset="0" stop-color="#fff7cc"/><stop offset=".346" stop-color="#fcb8e2"/><stop offset=".389" stop-color="#f8b8e3"/><stop offset=".434" stop-color="#ebb6e6"/><stop offset=".481" stop-color="#d5b4ec"/><stop offset=".529" stop-color="#b7b1f3"/><stop offset=".55" stop-color="#a8b0f7"/><stop offset=".614" stop-color="#a9b4f7"/><stop offset=".683" stop-color="#acc1f5"/><stop offset=".754" stop-color="#b1d7f3"/><stop offset=".793" stop-color="#b4e6f1"/></linearGradient><path fill="url(#SVGID_24_6)" d="M515.3 214.5c-9.4 15.7-21.4 34.6-30.8 50.3-32.7-3.1-65.7-2.2-98.3 1.3.3-14.4 3-28.7 8-42.2 38.4-6.9 82.1-11.7 121.1-9.4z"/><linearGradient id="SVGID_25_6" x1="-632.884" x2="-514.452" y1="59.713" y2="59.713" gradientTransform="rotate(-178.757 -61.239 144.17)" gradientUnits="userSpaceOnUse"><stop offset="0" stop-color="#131f49"/><stop offset=".802" stop-color="#14466a"/><stop offset="1" stop-color="#006099"/></linearGradient><path fill="url(#SVGID_25_6)" d="M487.7 230.5c4.6.1 6.8.2 11.8.4 1.2-.6 1.9-1 3.1-1.6 2.6-4.2 3.9-6.3 6.3-10.3-.4-.7-.7-1.1-1.1-1.7-5.2-.2-7.5-.2-12.1-.2-1.1.6-1.7 1-2.9 1.6-2.3 4-3.5 6-6 10.1.4.6.5 1 .9 1.7zm-8.9 15.2c4.5.2 6.7.3 11.3.6 1.1-.6 1.8-1 3-1.6 2.6-4.2 4-6.4 6.6-10.6-.4-.7-.6-1.1-1-1.8-4.9-.3-7.2-.3-11.8-.4-1.1.6-1.8 1-2.9 1.7-2.4 4.1-3.7 6.3-6.1 10.4.4.7.6 1 .9 1.7zm-8.4 14.9c4.3.3 6.4.4 10.7.8 1-.6 1.6-.9 2.7-1.5 2.4-4 3.7-6 6.2-10.2-.3-.7-.5-1.1-.8-1.9-4.6-.3-6.8-.5-11.2-.7-1.1.6-1.7 1-2.8 1.6-2.3 4.1-3.5 6.2-5.7 10.1.4.7.6 1.1.9 1.8zm0-30.1c4.8-.1 7.2-.1 11.9-.1 1.1-.7 1.8-1 2.9-1.7 2.4-4.1 3.6-6.1 6-10.1-.4-.6-.6-1-1-1.6-4.7.1-7.2.1-12.1.3-1.2.6-1.8 1-3 1.7-2.3 3.9-3.4 5.8-5.7 9.8.4.7.6 1.1 1 1.7zm-8.3 14.8c4.6 0 6.9.1 11.4.2 1.1-.6 1.7-1 2.8-1.6 2.4-4.2 3.6-6.3 6-10.4-.4-.7-.6-1.1-.9-1.7h-11.8c-1.1.7-1.8 1-2.9 1.7-2.3 4-3.4 6.1-5.6 10.1.4.7.6 1.1 1 1.7zm-7.6 14.6c4.4.1 6.6.2 10.9.4 1-.6 1.6-.9 2.6-1.5 2.1-3.9 3.3-6 5.6-10.1-.3-.7-.5-1.1-.9-1.8-4.5-.2-6.8-.2-11.4-.2-1.1.6-1.7 1-2.7 1.6-2.1 4-3.2 6-5.1 9.9.4.7.6 1.1 1 1.7zm-1.9-28.7c4.9-.3 7.4-.4 12.2-.5 1.1-.7 1.8-1 2.9-1.7 2.3-4 3.4-6 5.6-9.8-.4-.6-.7-.9-1.1-1.5-5 .3-7.6.4-12.8.8-1.2.7-1.8 1-3 1.7-2 3.7-3 5.7-5 9.5.5.6.8.9 1.2 1.5zm-7.1 14.4c4.6-.1 6.8-.2 11.3-.2 1.1-.7 1.6-1 2.7-1.7 2.2-4.1 3.3-6.1 5.5-10.1-.4-.6-.6-1-1-1.6-4.8.1-7.2.2-12.1.5-1.1.7-1.7 1-2.8 1.7-1.9 3.9-2.9 5.9-4.7 9.8.4.6.7.9 1.1 1.6zm-6.3 14.2h10.4c1-.6 1.5-1 2.5-1.6 1.9-3.9 2.9-5.9 5-9.9-.4-.6-.6-1-.9-1.6-4.4 0-6.7.1-11.2.2-1 .7-1.6 1-2.6 1.7-1.8 3.9-2.6 5.9-4.2 9.7.4.5.6.9 1 1.5zm-5.1-27.3c5.1-.5 7.7-.7 12.7-1 1.1-.7 1.7-1 2.8-1.7 2-3.9 3-5.8 5-9.5l-1.3-1.3c-5.3.5-7.9.7-13.4 1.3-1.2.7-1.8 1-2.9 1.7-1.7 3.6-2.6 5.4-4.2 9.1.5.6.8.9 1.3 1.4zm-5.7 13.9c4.7-.3 7.1-.4 11.7-.6 1-.7 1.6-1 2.6-1.7 1.8-3.9 2.7-5.9 4.7-9.8-.5-.6-.8-.9-1.2-1.5-5 .3-7.5.5-12.6 1-1.1.7-1.7 1-2.7 1.7-1.6 3.7-2.4 5.6-3.8 9.4.5.6.8.9 1.3 1.5zm-4.8 13.8c4.3-.2 6.4-.2 10.7-.3.9-.6 1.4-1 2.3-1.6 1.5-3.8 2.4-5.8 4.1-9.7-.4-.6-.7-.9-1.2-1.5-4.6.2-6.9.3-11.6.6-1 .7-1.5 1-2.5 1.7-1.4 3.8-2 5.7-3.1 9.4.5.5.8.8 1.3 1.4zm-8.6-25.6c5.3-.6 7.9-.9 13.1-1.4 1.1-.7 1.7-1.1 2.8-1.7 1.6-3.7 2.4-5.5 4.2-9.1-.6-.5-.9-.7-1.5-1.2-5.5.7-8.2 1-13.8 1.8-1.1.7-1.8 1.1-2.9 1.7-1.4 3.4-2.1 5.2-3.4 8.7.5.4.9.7 1.5 1.2zm-4.2 13.1c4.9-.5 7.3-.6 12-1 1-.7 1.5-1 2.5-1.7 1.4-3.8 2.1-5.7 3.7-9.4-.6-.5-.9-.8-1.5-1.3-5.1.5-7.7.8-13 1.4-1 .7-1.6 1-2.6 1.7-1.2 3.6-1.7 5.4-2.8 9 .7.5 1.1.8 1.7 1.3zm-3.2 13.3c4.4-.3 6.6-.4 10.9-.6.9-.6 1.3-1 2.2-1.6 1.1-3.7 1.7-5.6 3-9.4-.5-.6-.8-.9-1.4-1.4-4.7.3-7.1.5-11.9 1-.9.7-1.4 1-2.4 1.7-.9 3.6-1.3 5.5-2 9.1.7.4 1 .7 1.6 1.2zm-12.2-23.8c5.4-.8 8.1-1.2 13.4-1.9 1-.7 1.6-1 2.7-1.7 1.2-3.5 1.9-5.3 3.3-8.7-.7-.4-1-.6-1.7-1.1-5.6.9-8.5 1.3-14.2 2.3-1.1.7-1.7 1.1-2.8 1.7-1.1 3.3-1.6 4.9-2.5 8.2.7.6 1.1.8 1.8 1.2zm-2.7 12.5c5-.6 7.4-.9 12.3-1.4.9-.7 1.4-1 2.4-1.7 1-3.6 1.5-5.4 2.6-8.9-.7-.5-1-.7-1.7-1.2-5.3.7-8 1-13.3 1.8-1 .7-1.6 1-2.5 1.7-.8 3.4-1.1 5.1-1.7 8.5.8.5 1.2.7 1.9 1.2zm-1.4 12.7c4.5-.4 6.7-.6 11.2-1 .8-.6 1.3-1 2.1-1.6.6-3.6 1-5.4 1.9-9.1-.6-.5-1-.8-1.6-1.3-4.9.5-7.3.8-12.2 1.3-.9.6-1.4 1-2.2 1.7-.4 3.5-.6 5.2-.8 8.7.5.5.9.8 1.6 1.3z"/><linearGradient id="SVGID_26_6" x1="-531.59" x2="-643.88" y1="36.056" y2="88.608" gradientTransform="rotate(180 -56.702 146)" gradientUnits="userSpaceOnUse"><stop offset="1" stop-color="#fff7cc"/><stop offset="1" stop-color="#fff7cc"/></linearGradient><path fill="url(#SVGID_26_6)" d="M507.2 218.8c-20.2-.3-42.3.5-65.9 3-10.9 1.1-21.4 2.6-31.4 4.2 10.9 1.6 27 5.4 44.2 15 10.8 6.1 19.2 12.8 25.3 18.7l2.6.2c6.6-10.6 13.1-21.3 19.6-32 1.3-2.2 4.3-6.9 5.6-9.1z"/><linearGradient id="SVGID_27_6" x1="-437.166" x2="-449.384" y1="-111.91" y2="-204.19" gradientTransform="rotate(168.667 -22.046 166.724)" gradientUnits="userSpaceOnUse"><stop offset="0" stop-color="#fd1013"/><stop offset=".478" stop-color="#ea23bd"/><stop offset=".684" stop-color="#3f3ccf"/><stop offset=".739" stop-color="#4159cd"/><stop offset=".856" stop-color="#45a4c6"/><stop offset=".86" stop-color="#45a7c6"/></linearGradient><path fill="url(#SVGID_27_6)" d="M489.5 393.5c-2.7 12.7-8 24.9-15.2 35.7-3.4 5.1-7.3 9.9-12 13.8-5.6 4.6-12.5 7.9-19.8 8.3-7.6.5-15.7-2.5-20.4-8.5-4.5-5.8-5.6-13.5-5.6-20.9-.1-20.4 6.7-40.8 19-57 5-6.7 11.2-12.9 19.1-15.6 6.1-2.1 13-2 19 .3 5.9 2.3 11.7 6.8 14.7 12.3 3.6 6.5 3.4 15 2.7 22.2-.3 3.1-.8 6.2-1.5 9.4zm-15.3-22.2c-.3-1.4-.9-3-1.7-4.6-1-2-2.4-3.9-4.1-5.1-3.2 2.1-5.7 5.1-8 8.1-14 18.9-21 42.9-19.4 66.4.1.9.2 1.8.3 2.8 4.3-.2 9.2-4 12-6.3 17.5-14.3 26.1-39.3 20.9-61.3z"/><path d="M441.4 438.9c4.3-.2 9.2-4 12-6.3 17.5-14.3 26.1-39.4 20.9-61.4-.3-1.4-.9-3-1.7-4.6-1-2-2.4-3.9-4.1-5.1l.1-.1c3.2-2.1 7.3-3.2 11-2.3 6 1.5 9.3 9 9.8 14.7.7 7.7-1 16.4-2.8 23.9-1.1 4.6-2.6 9.2-4.5 13.6-5.2 12.4-13.2 23.6-23.5 32.1-1.8 1.5-3.7 2.9-5.8 3.6-2.2.8-4.6.9-6.7-.1-3.8-1.8-4.7-8-4.7-8z" class="st41_6"/><path d="M473 407.2c4.4-11.6 5.5-24.5 2.7-36.3-.3-1.2-.8-3-1.8-4.9-.8-1.6-1.8-3-2.8-4.1 1.1-.5 2.2-.9 3.4-1.1 1.6-.3 3.2-.3 4.7.1 4.9 1.3 8.2 7.8 8.7 13.3.7 7.8-1.1 16.6-2.8 23.3-1.1 4.6-2.6 9-4.3 13.2-2.6-1.4-5.1-2.6-7.8-3.5zm-18.6 26.6c.5-.4.9-.8 1.3-1.2 2.3 1.4 4.7 2.6 7 4l.6.3c-1.8 1.8-3.7 3.6-5.7 5.2-1.6 1.3-3.4 2.7-5.4 3.4-.4.2-.9.3-1.3.4-1.1.2-2.7.3-4.1-.4-1.8-.9-2.9-3.5-3.5-5.4 4-.7 8-3.7 11.1-6.3z" class="st42_6"/><linearGradient id="SVGID_28_6" x1="-560.604" x2="-560.604" y1="-123.103" y2="-96.106" gradientTransform="rotate(180 -56.702 146)" gradientUnits="userSpaceOnUse"><stop offset="0" stop-color="#f9a8a2"/><stop offset="1" stop-color="#ffd49d"/></linearGradient><path fill="url(#SVGID_28_6)" d="M420.1 418.6c1.4-13.4 3.9-26.9 9.7-39.1 5.7-12.2 13.7-27 27-28.9 6.3-.9 12.4 1.1 17.5 4.8-12.4 4.6-21.8 15.1-27.8 26.8-5.9 11.8-8.8 24.8-11.3 37.7-2.3 1.5-5.1 2.4-7.7 2-2.7-.2-5.6-1.4-7.4-3.3z"/><linearGradient id="SVGID_29_6" x1="-589.159" x2="-570.21" y1="-60.768" y2="-60.768" gradientTransform="rotate(180 -56.702 146)" gradientUnits="userSpaceOnUse"><stop offset="0" stop-color="#131f49"/><stop offset=".615" stop-color="#22567d"/></linearGradient><path fill="url(#SVGID_29_6)" d="M475.8 355.7c-2.4-2.4-5.6-4-8.8-5-3.3-.9-6.8-1.2-10.1-.4 3.3 1 6.4 1.8 9.5 2.7 3 .9 6 1.9 9.4 2.7z"/><linearGradient id="SVGID_30_6" x1="-577.628" x2="-558.947" y1="-66.741" y2="-66.741" gradientTransform="rotate(180 -56.702 146)" gradientUnits="userSpaceOnUse"><stop offset="0" stop-color="#131f49"/><stop offset=".615" stop-color="#22567d"/></linearGradient><path fill="url(#SVGID_30_6)" d="M464.2 361.5c-2.6-2.2-5.7-3.5-8.8-4.5-3.2-.9-6.5-1.3-9.9-.8 3.1 1.3 6.2 2.1 9.2 3 3.2 1 6.2 1.8 9.5 2.3z"/><linearGradient id="SVGID_31_6" x1="-568.031" x2="-549.631" y1="-76.111" y2="-76.111" gradientTransform="rotate(180 -56.702 146)" gradientUnits="userSpaceOnUse"><stop offset="0" stop-color="#131f49"/><stop offset=".615" stop-color="#22567d"/></linearGradient><path fill="url(#SVGID_31_6)" d="M454.6 370.7c-2.7-1.9-5.7-3.1-8.8-4-3.1-.8-6.3-1.4-9.6-1.1 2.9 1.5 5.9 2.5 9 3.4 3.1.8 6.1 1.5 9.4 1.7z"/><linearGradient id="SVGID_32_6" x1="-560.404" x2="-542.261" y1="-87.849" y2="-87.849" gradientTransform="rotate(180 -56.702 146)" gradientUnits="userSpaceOnUse"><stop offset="0" stop-color="#131f49"/><stop offset=".615" stop-color="#22567d"/></linearGradient><path fill="url(#SVGID_32_6)" d="M447 382.3c-2.8-1.7-5.8-2.7-8.8-3.6-3-.8-6.1-1.4-9.4-1.3 2.8 1.7 5.7 2.7 8.8 3.6 3.1.7 6.2 1.4 9.4 1.3z"/><linearGradient id="SVGID_33_6" x1="-554.804" x2="-536.93" y1="-101.101" y2="-101.101" gradientTransform="rotate(180 -56.702 146)" gradientUnits="userSpaceOnUse"><stop offset="0" stop-color="#131f49"/><stop offset=".615" stop-color="#22567d"/></linearGradient><path fill="url(#SVGID_33_6)" d="M441.4 395.4c-2.9-1.3-5.8-2.2-8.8-3s-5.9-1.5-9.1-1.8c2.5 2 5.5 3.2 8.5 4.1 3.1.7 6.2 1.2 9.4.7z"/><linearGradient id="SVGID_34_6" x1="-551.304" x2="-533.699" y1="-115.039" y2="-115.039" gradientTransform="rotate(180 -56.702 146)" gradientUnits="userSpaceOnUse"><stop offset="0" stop-color="#131f49"/><stop offset=".615" stop-color="#22567d"/></linearGradient><path fill="url(#SVGID_34_6)" d="M437.9 409.1c-3-1-5.9-1.7-8.8-2.5-2.9-.7-5.7-1.6-8.9-2.1 2.3 2.2 5.2 3.6 8.3 4.4 3.1.7 6.3 1 9.4.2z"/><linearGradient id="SVGID_35_6" x1="-549.875" x2="-532.538" y1="-128.681" y2="-128.681" gradientTransform="rotate(180 -56.702 146)" gradientUnits="userSpaceOnUse"><stop offset="0" stop-color="#131f49"/><stop offset=".615" stop-color="#22567d"/></linearGradient><path fill="url(#SVGID_35_6)" d="M436.5 422.5c-3.1-.7-5.9-1.2-8.7-2-2.8-.7-5.6-1.6-8.6-2.5 2 2.5 5 3.9 8 4.8 3 .7 6.3.9 9.3-.3z"/><linearGradient id="SVGID_36_6" x1="-550.604" x2="-533.537" y1="-141.177" y2="-141.177" gradientTransform="rotate(180 -56.702 146)" gradientUnits="userSpaceOnUse"><stop offset="0" stop-color="#131f49"/><stop offset=".615" stop-color="#22567d"/></linearGradient><path fill="url(#SVGID_36_6)" d="M437.2 434.7c-3.1-.4-5.9-.8-8.7-1.5-2.8-.7-5.4-1.7-8.4-2.8 1.8 2.6 4.7 4.3 7.8 5.1 3.1.7 6.5.7 9.3-.8z"/><linearGradient id="SVGID_37_6" x1="-553.545" x2="-536.745" y1="-151.511" y2="-151.511" gradientTransform="rotate(180 -56.702 146)" gradientUnits="userSpaceOnUse"><stop offset="0" stop-color="#131f49"/><stop offset=".615" stop-color="#22567d"/></linearGradient><path fill="url(#SVGID_37_6)" d="M440.1 444.8c-3.1-.1-5.9-.3-8.7-1-2.8-.7-5.3-1.8-8.1-3.2 1.5 2.8 4.5 4.7 7.6 5.4 3.1.8 6.6.5 9.2-1.2z"/><path d="M441 433.9c-.2-2.7-.2-5.9 0-8.7 4.8-6.7 9.6-13.3 14.3-20-.1-.4-.1-.7-.1-1.1-.2-3.4.7-6.8 2.3-9.7.5-.9 1.1-1.8 2-2.4.4-.3.8-.5 1.2-.6 1.8-11.3 4.6-27.4 4.6-27.4l3.3-2.5 3.9 1.1s-5.8 17.3-9.8 29.1c1.1.8 1.7 2.7 1.5 4.4-.3 2.5-.9 4.9-2 7.2 2.9 5.5 5.8 11.1 8.7 16.6-1.4 2.4-2.4 5.1-3.7 7.4-2.2-6.9-4.7-13.9-7-20.8-.7.8-1.7 1.4-2.7 1.1-.4-.1-.7-.3-1-.6-5.4 9.1-10.5 18-15.5 26.9z" class="st17_6"/><g><linearGradient id="SVGID_38_6" x1="-498.662" x2="-507.633" y1="-143.413" y2="-211.169" gradientTransform="rotate(168.667 -22.046 166.724)" gradientUnits="userSpaceOnUse"><stop offset="0" stop-color="#fd1013"/><stop offset=".478" stop-color="#ea23bd"/><stop offset=".684" stop-color="#3f3ccf"/><stop offset=".739" stop-color="#4159cd"/><stop offset=".856" stop-color="#45a4c6"/><stop offset=".86" stop-color="#45a7c6"/></linearGradient><path fill="url(#SVGID_38_6)" d="M542.7 403c-2 9.3-5.9 18.3-11.2 26.2-2.5 3.7-5.3 7.3-8.8 10.1-4.1 3.4-9.2 5.8-14.5 6.1-5.6.3-11.5-1.8-15-6.3-3.3-4.2-4.1-9.9-4.1-15.3-.1-15 4.9-29.9 13.9-41.9 3.7-4.9 8.3-9.5 14.1-11.5 4.5-1.6 9.5-1.5 14 .2 4.3 1.7 8.6 5 10.8 9.1 2.6 4.8 2.5 11 2 16.3-.4 2.4-.8 4.7-1.2 7zm-11.3-16.3c-.2-1-.6-2.2-1.2-3.4-.7-1.5-1.7-2.9-3-3.7-2.3 1.5-4.2 3.7-5.8 6-10.3 13.9-15.4 31.5-14.3 48.7 0 .7.1 1.4.2 2 3.2-.1 6.7-2.9 8.8-4.6 12.8-10.5 19.1-28.9 15.3-45z"/><path d="M507.3 436.4c3.2-.1 6.7-2.9 8.8-4.6 12.8-10.5 19.1-28.9 15.3-45.1-.2-1-.6-2.2-1.2-3.4-.7-1.5-1.7-2.9-3-3.7h.1c2.4-1.5 5.3-2.4 8.1-1.7 4.4 1.1 6.8 6.6 7.2 10.8.5 5.7-.7 12-2.1 17.5-.8 3.4-1.9 6.7-3.3 10-3.8 9.1-9.7 17.3-17.3 23.5-1.3 1.1-2.7 2.1-4.3 2.7s-3.4.7-4.9-.1c-2.7-1.4-3.4-5.9-3.4-5.9z" class="st41_6"/><path d="M530.5 413.1c3.2-8.5 4.1-18 2-26.7-.2-.9-.6-2.2-1.3-3.6-.6-1.2-1.3-2.2-2.1-3 .8-.4 1.6-.7 2.5-.8 1.2-.2 2.4-.2 3.4.1 3.6.9 6 5.7 6.4 9.8.5 5.7-.8 12.2-2 17.1-.8 3.3-1.9 6.6-3.2 9.7-1.9-1.1-3.7-1.9-5.7-2.6zm-13.7 19.5c.3-.3.6-.6 1-.9 1.7 1 3.4 1.9 5.1 3 .1.1.3.2.5.2-1.3 1.4-2.7 2.7-4.2 3.9-1.2 1-2.5 2-3.9 2.5-.3.1-.6.2-1 .3-.8.2-2 .2-3-.3-1.3-.7-2.2-2.6-2.6-4 2.9-.6 5.9-2.8 8.1-4.7z" class="st42_6"/><linearGradient id="SVGID_39_6" x1="-625.005" x2="-625.005" y1="-123.103" y2="-96.106" gradientTransform="rotate(180 -56.702 146)" gradientUnits="userSpaceOnUse"><stop offset="0" stop-color="#f9a8a2"/><stop offset="1" stop-color="#ffd49d"/></linearGradient><path fill="url(#SVGID_39_6)" d="M491.7 421.4c1-9.8 2.9-19.7 7.1-28.7s10-19.8 19.8-21.2c4.6-.7 9.1.8 12.9 3.6-9.1 3.3-16 11.1-20.4 19.7s-6.4 18.2-8.3 27.7c-1.7 1.1-3.7 1.7-5.7 1.5-2-.3-4.1-1.1-5.4-2.6z"/><linearGradient id="SVGID_40_6" x1="-645.945" x2="-632.045" y1="-81.172" y2="-81.172" gradientTransform="rotate(180 -56.702 146)" gradientUnits="userSpaceOnUse"><stop offset="0" stop-color="#131f49"/><stop offset=".615" stop-color="#22567d"/></linearGradient><path fill="url(#SVGID_40_6)" d="M532.5 375.3c-1.8-1.8-4.1-2.9-6.5-3.6s-5-.9-7.4-.3c2.4.8 4.7 1.3 7 2 2.3.5 4.5 1.3 6.9 1.9z"/><linearGradient id="SVGID_41_6" x1="-637.478" x2="-623.762" y1="-85.57" y2="-85.57" gradientTransform="rotate(180 -56.702 146)" gradientUnits="userSpaceOnUse"><stop offset="0" stop-color="#131f49"/><stop offset=".615" stop-color="#22567d"/></linearGradient><path fill="url(#SVGID_41_6)" d="M524.1 379.6c-1.9-1.6-4.2-2.6-6.5-3.3-2.3-.6-4.8-1-7.2-.6 2.3 1 4.5 1.6 6.8 2.2 2.2.6 4.4 1.3 6.9 1.7z"/><linearGradient id="SVGID_42_6" x1="-630.432" x2="-616.913" y1="-92.424" y2="-92.424" gradientTransform="rotate(180 -56.702 146)" gradientUnits="userSpaceOnUse"><stop offset="0" stop-color="#131f49"/><stop offset=".615" stop-color="#22567d"/></linearGradient><path fill="url(#SVGID_42_6)" d="M517 386.3c-2-1.4-4.2-2.3-6.5-2.9s-4.6-1-7.1-.8c2.2 1.1 4.4 1.8 6.6 2.5 2.3.5 4.6 1 7 1.2z"/><linearGradient id="SVGID_43_6" x1="-624.838" x2="-611.517" y1="-101" y2="-101" gradientTransform="rotate(180 -56.702 146)" gradientUnits="userSpaceOnUse"><stop offset="0" stop-color="#131f49"/><stop offset=".615" stop-color="#22567d"/></linearGradient><path fill="url(#SVGID_43_6)" d="M511.4 394.8c-2.1-1.3-4.2-2-6.4-2.6-2.2-.6-4.5-1-6.9-1 2 1.3 4.2 2 6.4 2.6 2.3.6 4.6 1 6.9 1z"/><linearGradient id="SVGID_44_6" x1="-620.731" x2="-607.606" y1="-110.732" y2="-110.732" gradientTransform="rotate(180 -56.702 146)" gradientUnits="userSpaceOnUse"><stop offset="0" stop-color="#131f49"/><stop offset=".615" stop-color="#22567d"/></linearGradient><path fill="url(#SVGID_44_6)" d="M507.3 404.4c-2.2-1-4.3-1.6-6.4-2.2-2.2-.6-4.3-1.1-6.7-1.3 1.9 1.5 4 2.4 6.2 3 2.3.5 4.6.9 6.9.5z"/><linearGradient id="SVGID_45_6" x1="-618.14" x2="-605.214" y1="-120.981" y2="-120.981" gradientTransform="rotate(180 -56.702 146)" gradientUnits="userSpaceOnUse"><stop offset="0" stop-color="#131f49"/><stop offset=".615" stop-color="#22567d"/></linearGradient><path fill="url(#SVGID_45_6)" d="M504.7 414.5c-2.2-.7-4.3-1.3-6.4-1.8s-4.2-1.1-6.5-1.6c1.7 1.6 3.8 2.6 6.1 3.2 2.2.6 4.6.8 6.8.2z"/><linearGradient id="SVGID_46_6" x1="-617.104" x2="-604.375" y1="-130.982" y2="-130.982" gradientTransform="rotate(180 -56.702 146)" gradientUnits="userSpaceOnUse"><stop offset="0" stop-color="#131f49"/><stop offset=".615" stop-color="#22567d"/></linearGradient><path fill="url(#SVGID_46_6)" d="M503.7 424.3c-2.3-.5-4.3-.9-6.4-1.5-2.1-.5-4.1-1.2-6.3-1.8 1.5 1.8 3.7 2.9 5.9 3.5s4.6.7 6.8-.2z"/><linearGradient id="SVGID_47_6" x1="-617.643" x2="-605.111" y1="-140.151" y2="-140.151" gradientTransform="rotate(180 -56.702 146)" gradientUnits="userSpaceOnUse"><stop offset="0" stop-color="#131f49"/><stop offset=".615" stop-color="#22567d"/></linearGradient><path fill="url(#SVGID_47_6)" d="M504.2 433.3c-2.3-.3-4.3-.6-6.4-1.1s-4-1.2-6.1-2.1c1.3 1.9 3.5 3.2 5.7 3.7 2.3.6 4.8.6 6.8-.5z"/><linearGradient id="SVGID_48_6" x1="-619.804" x2="-607.47" y1="-147.826" y2="-147.826" gradientTransform="rotate(180 -56.702 146)" gradientUnits="userSpaceOnUse"><stop offset="0" stop-color="#131f49"/><stop offset=".615" stop-color="#22567d"/></linearGradient><path fill="url(#SVGID_48_6)" d="M506.4 440.7c-2.3 0-4.3-.2-6.4-.7-2-.5-3.9-1.3-6-2.3 1.1 2.1 3.3 3.4 5.6 4 2.3.5 4.8.3 6.8-1z"/><path d="M507 432.7c-.2-2-.1-4.3 0-6.4l10.5-14.7c-.1-.3-.1-.5-.1-.8-.1-2.5.5-5 1.7-7.1.4-.7.8-1.3 1.4-1.7.3-.2.6-.3.9-.4 1.3-8.3 3.4-20.1 3.4-20.1l2.4-1.8 2.8.8s-4.3 12.7-7.2 21.4c.8.6 1.2 2 1.1 3.2-.2 1.8-.7 3.6-1.5 5.3 2.1 4.1 4.2 8.1 6.4 12.2-1 1.7-1.8 3.7-2.7 5.5-1.6-5.1-3.5-10.2-5.1-15.3-.5.6-1.2 1-2 .8-.3-.1-.5-.2-.7-.4-3.8 6.4-7.6 13-11.3 19.5z" class="st17_6"/></g><g><linearGradient id="SVGID_49_6" x1="-361.078" x2="-370.049" y1="-120.601" y2="-188.357" gradientTransform="rotate(168.667 -22.046 166.724)" gradientUnits="userSpaceOnUse"><stop offset="0" stop-color="#fd1013"/><stop offset=".478" stop-color="#ea23bd"/><stop offset=".684" stop-color="#3f3ccf"/><stop offset=".739" stop-color="#4159cd"/><stop offset=".856" stop-color="#45a4c6"/><stop offset=".86" stop-color="#45a7c6"/></linearGradient><path fill="url(#SVGID_49_6)" d="M403.3 407.6c-2 9.3-5.9 18.3-11.2 26.2-2.5 3.7-5.3 7.3-8.8 10.1-4.1 3.4-9.2 5.8-14.5 6.1-5.6.3-11.5-1.8-15-6.3-3.3-4.2-4.1-9.9-4.1-15.3-.1-15 4.9-29.9 13.9-41.9 3.7-4.9 8.3-9.5 14.1-11.5 4.5-1.6 9.5-1.5 14 .2 4.3 1.7 8.6 5 10.8 9.1 2.6 4.8 2.5 11 2 16.3-.3 2.4-.7 4.7-1.2 7zm-11.2-16.3c-.2-1-.6-2.2-1.2-3.4-.7-1.5-1.7-2.9-3-3.7-2.3 1.5-4.2 3.7-5.8 6-10.3 13.9-15.4 31.5-14.3 48.7 0 .7.1 1.4.2 2 3.2-.1 6.7-2.9 8.8-4.6 12.8-10.4 19.1-28.8 15.3-45z"/><path d="M368 441c3.2-.1 6.7-2.9 8.8-4.6 12.8-10.5 19.1-28.9 15.3-45.1-.2-1-.6-2.2-1.2-3.4-.7-1.5-1.7-2.9-3-3.7h.1c2.4-1.5 5.3-2.4 8.1-1.7 4.4 1.1 6.8 6.6 7.2 10.8.5 5.7-.7 12-2.1 17.5-.8 3.4-1.9 6.7-3.3 10-3.8 9.1-9.7 17.3-17.3 23.5-1.3 1.1-2.7 2.1-4.3 2.7-1.6.6-3.4.7-4.9-.1-2.7-1.4-3.4-5.9-3.4-5.9z" class="st41_6"/><path d="M391.2 417.7c3.2-8.5 4.1-18 2-26.7-.2-.9-.6-2.2-1.3-3.6-.6-1.2-1.3-2.2-2.1-3 .8-.4 1.6-.7 2.5-.8 1.2-.2 2.4-.2 3.4.1 3.6.9 6 5.7 6.4 9.8.5 5.7-.8 12.2-2 17.1-.8 3.3-1.9 6.6-3.2 9.7-1.9-1-3.7-1.9-5.7-2.6zm-13.7 19.6c.3-.3.6-.6 1-.9 1.7 1 3.4 1.9 5.1 3 .1.1.3.2.5.2-1.3 1.4-2.7 2.7-4.2 3.9-1.2 1-2.5 2-3.9 2.5-.3.1-.6.2-1 .3-.8.2-2 .2-3-.3-1.3-.7-2.2-2.6-2.6-4 2.9-.7 5.9-2.9 8.1-4.7z" class="st42_6"/><linearGradient id="SVGID_50_6" x1="-485.704" x2="-485.704" y1="-123.103" y2="-96.106" gradientTransform="rotate(180 -56.702 146)" gradientUnits="userSpaceOnUse"><stop offset="0" stop-color="#f9a8a2"/><stop offset="1" stop-color="#ffd49d"/></linearGradient><path fill="url(#SVGID_50_6)" d="M352.4 426.1c1-9.8 2.9-19.7 7.1-28.7s10-19.8 19.8-21.2c4.6-.7 9.1.8 12.9 3.6-9.1 3.3-16 11.1-20.4 19.7s-6.4 18.2-8.3 27.7c-1.7 1.1-3.7 1.7-5.7 1.5-2-.4-4.1-1.2-5.4-2.6z"/><linearGradient id="SVGID_51_6" x1="-506.635" x2="-492.736" y1="-85.772" y2="-85.772" gradientTransform="rotate(180 -56.702 146)" gradientUnits="userSpaceOnUse"><stop offset="0" stop-color="#131f49"/><stop offset=".615" stop-color="#22567d"/></linearGradient><path fill="url(#SVGID_51_6)" d="M393.2 379.9c-1.8-1.8-4.1-2.9-6.5-3.6s-5-.9-7.4-.3c2.4.8 4.7 1.3 7 2 2.3.5 4.5 1.3 6.9 1.9z"/><linearGradient id="SVGID_52_6" x1="-498.169" x2="-484.452" y1="-90.169" y2="-90.169" gradientTransform="rotate(180 -56.702 146)" gradientUnits="userSpaceOnUse"><stop offset="0" stop-color="#131f49"/><stop offset=".615" stop-color="#22567d"/></linearGradient><path fill="url(#SVGID_52_6)" d="M384.8 384.2c-1.9-1.6-4.2-2.6-6.5-3.3-2.3-.6-4.8-1-7.2-.6 2.3 1 4.5 1.6 6.8 2.2 2.2.7 4.4 1.3 6.9 1.7z"/><linearGradient id="SVGID_53_6" x1="-491.122" x2="-477.603" y1="-97.024" y2="-97.024" gradientTransform="rotate(180 -56.702 146)" gradientUnits="userSpaceOnUse"><stop offset="0" stop-color="#131f49"/><stop offset=".615" stop-color="#22567d"/></linearGradient><path fill="url(#SVGID_53_6)" d="M377.7 390.9c-2-1.4-4.2-2.3-6.5-2.9s-4.6-1-7.1-.8c2.2 1.1 4.4 1.8 6.6 2.5 2.3.5 4.6 1.1 7 1.2z"/><linearGradient id="SVGID_54_6" x1="-485.529" x2="-472.208" y1="-105.606" y2="-105.606" gradientTransform="rotate(180 -56.702 146)" gradientUnits="userSpaceOnUse"><stop offset="0" stop-color="#131f49"/><stop offset=".615" stop-color="#22567d"/></linearGradient><path fill="url(#SVGID_54_6)" d="M372.1 399.4c-2.1-1.3-4.2-2-6.4-2.6-2.2-.6-4.5-1-6.9-1 2 1.3 4.2 2 6.4 2.6 2.3.6 4.5 1.1 6.9 1z"/><linearGradient id="SVGID_55_6" x1="-481.421" x2="-468.297" y1="-115.341" y2="-115.341" gradientTransform="rotate(180 -56.702 146)" gradientUnits="userSpaceOnUse"><stop offset="0" stop-color="#131f49"/><stop offset=".615" stop-color="#22567d"/></linearGradient><path fill="url(#SVGID_55_6)" d="M368 409c-2.2-1-4.3-1.6-6.4-2.2-2.2-.6-4.3-1.1-6.7-1.3 1.9 1.5 4 2.4 6.2 3 2.3.6 4.6.9 6.9.5z"/><linearGradient id="SVGID_56_6" x1="-478.831" x2="-465.904" y1="-125.581" y2="-125.581" gradientTransform="rotate(180 -56.702 146)" gradientUnits="userSpaceOnUse"><stop offset="0" stop-color="#131f49"/><stop offset=".615" stop-color="#22567d"/></linearGradient><path fill="url(#SVGID_56_6)" d="M365.4 419.1c-2.2-.7-4.3-1.3-6.4-1.8s-4.2-1.1-6.5-1.6c1.7 1.6 3.8 2.6 6.1 3.2 2.2.6 4.5.8 6.8.2z"/><linearGradient id="SVGID_57_6" x1="-477.791" x2="-465.062" y1="-135.644" y2="-135.644" gradientTransform="rotate(180 -56.702 146)" gradientUnits="userSpaceOnUse"><stop offset="0" stop-color="#131f49"/><stop offset=".615" stop-color="#22567d"/></linearGradient><path fill="url(#SVGID_57_6)" d="M364.4 429c-2.3-.5-4.3-.9-6.4-1.5-2.1-.5-4.1-1.2-6.3-1.8 1.5 1.8 3.7 2.9 5.9 3.5 2.2.5 4.6.6 6.8-.2z"/><linearGradient id="SVGID_58_6" x1="-478.333" x2="-465.801" y1="-144.751" y2="-144.751" gradientTransform="rotate(180 -56.702 146)" gradientUnits="userSpaceOnUse"><stop offset="0" stop-color="#131f49"/><stop offset=".615" stop-color="#22567d"/></linearGradient><path fill="url(#SVGID_58_6)" d="M364.9 437.9c-2.3-.3-4.3-.6-6.4-1.1s-4-1.2-6.1-2.1c1.3 1.9 3.5 3.2 5.7 3.7 2.3.6 4.7.6 6.8-.5z"/><linearGradient id="SVGID_59_6" x1="-480.486" x2="-468.152" y1="-152.426" y2="-152.426" gradientTransform="rotate(180 -56.702 146)" gradientUnits="userSpaceOnUse"><stop offset="0" stop-color="#131f49"/><stop offset=".615" stop-color="#22567d"/></linearGradient><path fill="url(#SVGID_59_6)" d="M367.1 445.3c-2.3 0-4.3-.2-6.4-.7-2-.5-3.9-1.3-6-2.3 1.1 2.1 3.3 3.4 5.6 4 2.3.5 4.8.3 6.8-1z"/><path d="M367.7 437.4c-.2-2-.1-4.3 0-6.4l10.5-14.7c-.1-.3-.1-.5-.1-.8-.1-2.5.5-5 1.7-7.1.4-.7.8-1.3 1.4-1.7.3-.2.6-.3.9-.4 1.3-8.3 3.4-20.1 3.4-20.1l2.4-1.8 2.8.8s-4.3 12.7-7.2 21.4c.8.6 1.2 2 1.1 3.2-.2 1.8-.7 3.6-1.5 5.3 2.1 4.1 4.2 8.1 6.4 12.2-1 1.7-1.8 3.7-2.7 5.5-1.6-5.1-3.5-10.2-5.1-15.3-.5.6-1.2 1-2 .8-.3-.1-.5-.2-.7-.4-3.9 6.3-7.6 12.9-11.3 19.5z" class="st17_6"/></g><path d="M342.2 233c-23-8.2-46.9-14-71.1-17.4 0 4.8.8 13.6.8 13.6s47.2 4.8 69.8 10.3c.4-1.8.2-4.7.5-6.5z" class="st18_6"/><path d="M271.1 215.6l.8 13.6-56.3 12.5-3.6-7.3c20-7.9 39.7-14.2 59.1-18.8z" class="st75_6"/><g><linearGradient id="SVGID_60_6" x1="-398.693" x2="-397.303" y1="50.658" y2="32.593" gradientTransform="rotate(180 -56.702 146)" gradientUnits="userSpaceOnUse"><stop offset="0" stop-color="#fff7cc"/><stop offset=".346" stop-color="#fcb8e2"/><stop offset=".389" stop-color="#f8b8e3"/><stop offset=".434" stop-color="#ebb6e6"/><stop offset=".481" stop-color="#d5b4ec"/><stop offset=".529" stop-color="#b7b1f3"/><stop offset=".55" stop-color="#a8b0f7"/><stop offset=".614" stop-color="#a9b4f7"/><stop offset=".683" stop-color="#acc1f5"/><stop offset=".754" stop-color="#b1d7f3"/><stop offset=".793" stop-color="#b4e6f1"/></linearGradient><path fill="url(#SVGID_60_6)" d="M297 268.6l-30.8-.1 2.6-34.2 29.3 2.9c5.1 9.7 4.2 20.5-1.1 31.4z"/><defs><use xlink:href="#SVGID_61_6"/></defs><clipPath id="SVGID_62_6"><use overflow="visible" xlink:href="#SVGID_61_6"/></clipPath><defs><use id="SVGID_63_6" xlink:href="#SVGID_61_6"/></defs><defs><use xlink:href="#SVGID_64_6"/></defs><clipPath id="SVGID_65_6"><use overflow="visible" xlink:href="#SVGID_63_6"/></clipPath><clipPath id="SVGID_66_6" clip-path="url(#SVGID_65_6)"><use overflow="visible" xlink:href="#SVGID_64_6"/></clipPath><linearGradient id="SVGID_67_6" x1="-346.988" x2="-355.148" y1="72.499" y2="64.339" gradientTransform="scale(1 -1) rotate(39.823 397.634 793.454)" gradientUnits="userSpaceOnUse"><stop offset="0" stop-color="#fff"/><stop offset="1"/></linearGradient><path fill="url(#SVGID_67_6)" d="M299.4 247c-.4-3-1.3-5.8-2.6-8.5l-22.1-2.4c1 2.3 1.8 4.8 2.3 7.2 16.6.6 6 1.9 22.4 3.7z" clip-path="url(#SVGID_66_6)"/><path d="M299.4 247c-.4-3-1.3-5.8-2.6-8.5l-22.1-2.4c1 2.3 1.8 4.8 2.3 7.2 16.6.6 6 1.9 22.4 3.7z" class="st75_6"/><path d="M284.9 256.8s-7.8-7.1-8.9-12c-2-2.1-3.9-4.3-5.7-6.5l-2.2 28.9h27.7c1.3-2.8 2.3-5.6 2.9-8.3-7.4-.3-13.8-2.1-13.8-2.1z" class="st18_6"/><path fill="#177c9e" d="M257.3 271.8l11.4-.9c8.9-14.4 10-27.2 3.4-38.5L258 230c-13.9 4.8-16.7 35.7-.7 41.8z"/><linearGradient id="SVGID_68_6" x1="-373.128" x2="-373.128" y1="84.596" y2="121.736" gradientTransform="rotate(-175.867 -50.724 165.24)" gradientUnits="userSpaceOnUse"><stop offset=".385" stop-color="#22567d"/><stop offset="1" stop-color="#131f49"/></linearGradient><path fill="url(#SVGID_68_6)" d="M257.3 271.8l11.4-.9c8.9-14.4 10-27.2 3.4-38.5L258 230c10.1 13.7 10.9 27.8-.7 41.8z"/><path d="M256.9 270.5c9.9-12.5 10.2-25.7.7-39.3-5.7 2.7-9.8 11-9.9 20.4-.1 7.1 2.3 15.6 9.2 18.9z" class="st34_6"/><linearGradient id="SVGID_69_6" x1="-368.485" x2="-364.947" y1="75.214" y2="110.27" gradientTransform="rotate(-175.867 -50.724 165.24)" gradientUnits="userSpaceOnUse"><stop offset="0" stop-color="#83f7c7"/><stop offset=".175" stop-color="#4cddc6"/><stop offset=".367" stop-color="#15c2c4"/><stop offset=".46" stop-color="#00b8c4"/><stop offset=".504" stop-color="#04abbb"/><stop offset=".65" stop-color="#1186a0"/><stop offset=".786" stop-color="#1a6c8d"/><stop offset=".907" stop-color="#205c81"/><stop offset="1" stop-color="#22567d"/></linearGradient><path fill="url(#SVGID_69_6)" d="M258.8 267.8c-6.6-11.1-8.1-23.5 1.4-32.4 6.1 11.2 5.7 22-1.4 32.4z"/><path d="M265.3 242.1c-1.1-3.7-3-7.5-5.6-11.2l11.8 2c1.8 3.1 2.9 6.3 3.5 9.6-3.2-.3-6.4-.3-9.7-.4zm9.9 1.8c.2 1.4.3 2.7.2 4.1-3-.2-6-.3-9-.4-.2-1.4-.4-2.7-.8-4.1 3.3.1 6.5.1 9.6.4z" class="st20_6"/><path fill="#004d5c" d="M260.5 268.9c2.9-4.2 4.8-8.4 5.6-12.7l8.1.6c-1 3.8-2.7 7.6-5 11.6-2.9.2-5.8.3-8.7.5z" opacity=".4"/><defs><use id="SVGID_70_6" xlink:href="#SVGID_61_6"/></defs><clipPath id="SVGID_71_6"><use overflow="visible" xlink:href="#SVGID_70_6"/></clipPath><defs><use id="SVGID_72_6" xlink:href="#SVGID_61_6"/></defs><defs><use id="SVGID_73_6" xlink:href="#SVGID_64_6"/></defs><clipPath id="SVGID_74_6"><use overflow="visible" xlink:href="#SVGID_72_6"/></clipPath><clipPath id="SVGID_75_6" clip-path="url(#SVGID_74_6)"><use overflow="visible" xlink:href="#SVGID_73_6"/></clipPath><linearGradient id="SVGID_76_6" x1="-361.827" x2="-367.701" y1="114.831" y2="96.568" gradientTransform="rotate(-175.867 -50.724 165.24)" gradientUnits="userSpaceOnUse"><stop offset="0" stop-color="#fff"/><stop offset="1"/></linearGradient><path fill="url(#SVGID_76_6)" d="M257.3 259.2c-3.4-6.3-2.8-13.8 1.6-19.6 1.6 1.5 2.9 3.3 3.2 5.2.8 4.8-4 9.6-4.8 14.4z" clip-path="url(#SVGID_75_6)"/><linearGradient id="SVGID_77_6" x1="-361.827" x2="-367.701" y1="114.831" y2="96.568" gradientTransform="rotate(-175.867 -50.724 165.24)" gradientUnits="userSpaceOnUse"><stop offset="0" stop-color="#fff7cc"/><stop offset="1" stop-color="#fff7cc"/></linearGradient><path fill="url(#SVGID_77_6)" d="M257.3 259.2c-3.4-6.3-2.8-13.8 1.6-19.6 1.6 1.5 2.9 3.3 3.2 5.2.8 4.8-4 9.6-4.8 14.4z" opacity=".75"/><path d="M258.9 266.2c-1.5-2.5-2.5-5.3-2.8-8 .7 1.6 1.6 3.1 2.8 4.6 2.5-2.8 4.2-6.1 4.8-9.4-.1 4.3-1.8 8.9-4.8 12.8z" class="st21_6"/></g><linearGradient id="SVGID_78_6" x1="-367.904" x2="-356.87" y1="34.81" y2="49.562" gradientTransform="rotate(-178.757 -61.239 144.17)" gradientUnits="userSpaceOnUse"><stop offset="0" stop-color="#fd1013"/><stop offset=".478" stop-color="#ea23bd"/><stop offset=".684" stop-color="#3f3ccf"/><stop offset=".739" stop-color="#4159cd"/><stop offset=".856" stop-color="#45a4c6"/><stop offset=".86" stop-color="#45a7c6"/></linearGradient><path fill="url(#SVGID_78_6)" d="M240.9 260.1c0 .6-.1 1.3-.4 1.8-.3.6-.9 1-1.6.8-.5-.1-.9-.6-1.2-1-2.7-3.9-4.6-9-4.3-13.8 0-.8.2-1.6.5-2.3.9-1.8 2.9-2.1 4.3-.7 1.2 1.2 1.6 3.2 2 4.8.7 3.3.9 7 .7 10.4z"/><g><defs><use id="SVGID_79_6" xlink:href="#SVGID_61_6"/></defs><clipPath id="SVGID_80_6"><use overflow="visible" xlink:href="#SVGID_79_6"/></clipPath><defs><use id="SVGID_81_6" xlink:href="#SVGID_61_6"/></defs><defs><use id="SVGID_82_6" xlink:href="#SVGID_64_6"/></defs><clipPath id="SVGID_83_6"><use overflow="visible" xlink:href="#SVGID_81_6"/></clipPath><clipPath id="SVGID_84_6" clip-path="url(#SVGID_83_6)"><use overflow="visible" xlink:href="#SVGID_82_6"/></clipPath><linearGradient id="SVGID_85_6" x1="-333.565" x2="-339.082" y1="42.183" y2="31.269" gradientTransform="rotate(178.597 -51.29 147.437)" gradientUnits="userSpaceOnUse"><stop offset="0" stop-color="#fff"/><stop offset="1"/></linearGradient><path fill="url(#SVGID_85_6)" d="M236.3 257c.2.3.4.6.6.7.3.2.6.3.9.1.3-.2.4-.6.5-1 .5-3.2.3-7.4-1.4-10.3-.6-1-1.9-1.1-2.4 0-.6 1.4-.4 3.6-.1 5.1.3 1.9.9 3.7 1.9 5.4z" clip-path="url(#SVGID_84_6)"/></g><linearGradient id="SVGID_86_6" x1="-333.565" x2="-339.082" y1="42.183" y2="31.269" gradientTransform="rotate(178.597 -51.29 147.437)" gradientUnits="userSpaceOnUse"><stop offset="0" stop-color="#fff7cc"/><stop offset="1" stop-color="#fff7cc"/></linearGradient><path fill="url(#SVGID_86_6)" d="M236.3 257c.2.3.4.6.6.7.3.2.6.3.9.1.3-.2.4-.6.5-1 .5-3.2.3-7.4-1.4-10.3-.6-1-1.9-1.1-2.4 0-.6 1.4-.4 3.6-.1 5.1.3 1.9.9 3.7 1.9 5.4z" opacity=".75"/><g><path fill="#00ebaa" d="M240.1 347.8l1.2 4.5-11.4 1-2-5.9z"/><path fill="#fff7cc" d="M230 348.1l9.3.5.5 2-8.4 1.2z" opacity=".85"/><path fill="#8453b8" d="M240.1 347.8l-12.2-.4-1.2-1.6 13.8.2 2.2 8.5-1.4-2.2z" opacity=".4"/><path fill="#fff7cc" d="M241.3 352.3l-11.3 1-2-5.9-1.2-1.5 3.5 9.7 12.5-1.1-1.5-2.2z" opacity=".6"/></g></g></svg>