<svg xmlns="http://www.w3.org/2000/svg" xmlns:xlink="http://www.w3.org/1999/xlink" id="Layer_1" x="0" y="0" version="1.1" viewBox="85 54.5 522.6 494" xml:space="preserve"><defs><path id="SVGID_16_22" d="M-1-1h-1l1-1z"/><path id="SVGID_13_22" d="M1 1h1L1 2z"/><path id="reuse-1" d="M267.2 197.7l-.2.2s0-.1.1-.1c0 0 .1 0 .1-.1zm256.6 8.4l.1-.1v.2zm-306.3 6.1v.1h-.1zm237.2.2v-.1h.1zm36.7 1.4l-.1-.1h.2zm50 1.8l.1-.1v.2zm-46.6 2.3v.2h-.1zm28.2 2l-.2.1.1-.2zm-78.3 132.4l.1.1h-.2zm-6.1-60.4l-.1.1v-.2zM347.7 310c-.1.1-.1.1-.2.1l-.1-.1h.3zm12.9-163.2c.9.5.9 1 .8 1.6-.1.4-.3.7-.8.7s-.8-.5-.7-1c.1-.4.4-.8.7-1.3zm-20.5 21.6c.2.3.4.4.4.6.1.4.1.8-.4.9h-.4c-.4-.3-.3-.6-.1-1l.5-.5zm26.8-17.6c0-.1.1-.3.1-.4.1.1.2.1.3.2 0 0 0 .2-.1.2h-.3zm-19.9 1.7c-.1 0-.2-.1-.2-.1 0-.1.1-.2.1-.3 0 0 .2 0 .2.1 0 0 0 .2-.1.3zm20.3 10.5c0-.1.1-.1.1-.2.1.1.2.1.3.2-.1 0-.1.1-.2.1-.1-.1-.1-.1-.2-.1zm-35.4 20l.2-.2.1.1c0 .1-.1.1-.3.1zm21.3-22.9v-.4h.2v.4h-.2zm-28.1 11l-.1-.1c0-.1.1-.1.1-.1l.1.1-.1.1zm14.3-19.8c.1 0 .3.1.3.1 0 .1 0 .2-.1.3-.1 0-.2 0-.2-.1v-.3zM368 153c0-.1 0-.2.1-.2h.2c-.1.1-.2.1-.3.2zm-32.8 92.3c.1-1 .5-1.3 1-1.4.4-.1.8 0 .9.4.2.4-.1 1-.6 1.1-.3 0-.7-.1-1.3-.1zm28.4 8.9c.2-.3.2-.5.4-.7.3-.2.7-.4 1-.1.1.1.2.3.2.4-.1.5-.5.5-.8.5-.3.1-.4 0-.8-.1zM336 237.8c-.1 0-.3 0-.4.1v-.4s.2-.1.2 0c.1.1.2.2.2.3zm10.3 17.2v.2h-.3v-.2h.3zm.5-22.8h-.2v-.3c.1 0 .2 0 .2.1v.2zm33.5 22.9c-.1 0-.2 0-.2-.1v-.1l.2.2zm-29.9-9c-.1.1-.2.1-.4.2 0-.1-.1-.2-.1-.2.1-.1.2-.1.3-.2.1 0 .1.1.2.2zm22.2 20.4v.2c-.1 0-.1 0-.2-.1v-.2c.1 0 .1.1.2.1zm-24.1-4.2c0-.1-.1-.3 0-.3 0-.1.2-.1.3-.1 0 .1.1.2 0 .2-.1.1-.2.2-.3.2zm-11-26.4c-.1 0-.2.1-.2 0v-.2c0 .1.1.2.2.2zm52.1 118.4c-.1 0-.1.1-.2.1 0-.1-.1-.1-.1-.2l.1-.1c.1.1.2.1.2.2zm44.3-63.8h-.2v-.1zm-179.3-2.1l.1.2-.1-.1zm-18.5 41c0 .1.1.1.1.2h-.3c.1-.1.1-.2.2-.2zM443 288.1h-.2v-.1zm77.9-1.3l-.1-.1c.1 0 .1-.1.1-.1l.1.1-.1.1zM417.1 364l-.1-.1.1-.1.1.1-.1.1zm19.1 3c0 .1.1.1.1.2-.1 0-.1.1-.2.1s-.1-.1-.1-.1l.2-.2zm27.7 10.2h-.2l.1-.1zm13.9.2zm-130.1 1.2c-.1 0-.1.1-.2.1 0-.1-.1-.1-.1-.2s.1-.1.1-.1l.2.2zm42.4-100.1l-.1.1-.1-.1.1-.1s0 .1.1.1zm60.6 28.8l-.1.1h.1zm-.7 75v.1h-.1zm6.8 3.9c-.1.1-.1.2-.2.2l-.1-.1c.1-.1.2-.1.3-.1zm86.7-110h-.2v-.1zM428.8 389.3v-.2.2zm0 0l-.1.1.1-.1zm6.8 3.6l.2-.1-.1.2zm-97.6 1.3c.1.1.1.1.1.2l-.1.1v-.3zM209.8 269.6l-.1-.2h.2zm276.4-5.5c0 .1.1.1.1.2-.1 0-.1.1-.2.1l-.1-.1c.1-.2.2-.2.2-.2zM313.5 410.7l.1-.1-.2.1zm-.1 0zm-61.6 1.6l.1.2-.2-.1zm246.3 1.6v-.1h.1zm-195.8-89.5l-.1-.2h.2zm140.2-12c-.1 0-.1.1-.2.1l-.1-.1c.1 0 .1-.1.2-.1 0-.1.1 0 .1.1zm-244.8-49.8c-.1 0-.2.1-.3.1.1-.1.1-.2.2-.3l.1.2zM264.1 422l.1-.1v.2zm54.6.2l.1-.1h-.1z" class="st3_22"/><path id="reuse-0" d="M487.8 239.7c.2 0 .3-.1.5-.1.2.1.5.3.7.4-.1.1-.2.4-.2.3-.3-.1-.5-.1-.8-.3-.1.1-.1-.2-.2-.3zm-2.4-30.5c-.2.1-.4.1-.6.2l-.2-.4c.2-.1.4-.2.6-.2.1 0 .1.2.2.4zm-41.5 115c.3.2.5.3.5.4.1.3-.3.6-.6.5-.1 0-.3-.2-.2-.3.1-.3.2-.5.3-.6zM239 313.7c-.1-.2-.3-.3-.3-.4.1-.2.3-.3.4-.5.1.1.4.4.3.4 0 .3-.2.4-.4.5zm271.5-35.8l-.3.3c-.1-.1-.2-.3-.3-.4.1-.1.3-.2.4-.1.1-.1.2.1.2.2zM350 359.3c-.2-.1-.3-.2-.4-.3.1-.2.3-.3.4-.4l.3.2c0 .2-.1.4-.3.5zm-3.8-69.5c-.2.1-.4.2-.6.2 0-.1-.1-.3-.1-.4.1-.1.2-.2.4-.2.1 0 .2.2.3.4zM489 216.1c-.4.1-.6.2-.9.2-.1 0-.2-.4-.2-.5.1-.2.4-.3.5-.3.2 0 .3.2.6.6zm-67.2 135.6c.2.1.2.2.3.3l-.5.5c-.1-.1-.2-.3-.2-.3.1-.2.2-.3.4-.5zm15.1-59.1c.2.1.4.2.5.3.1.1-.1.4-.2.5h-.2c-.1-.2-.2-.3-.2-.5 0 0 .1-.2.1-.3zm-71.2 54.8c-.4.2-.6.3-.9.3-.1 0-.3-.2-.3-.2 0-.1.1-.3.2-.3.3-.1.4 0 1 .2zm-6.4 110.2c-.1-.2-.3-.4-.3-.4.1-.2.3-.3.5-.4.1.1.2.3.2.4 0 .2-.2.3-.4.4zm93.5-209.1c-.4.2-.6.4-.9.4-.1 0-.3-.4-.3-.5.1-.2.3-.3.5-.3s.4.2.7.4zM407 219.7c.1.2.3.3.3.4 0 .4-.3.5-.6.4-.1 0-.2-.3-.1-.4 0-.1.2-.2.4-.4zm-74.5 112.8c-.2.1-.3.3-.5.4 0 0-.2-.1-.3-.2l.4-.4c.1-.1.3.1.4.2zm-20.1-204.7c-.2-.1-.3-.2-.4-.3.1-.1.2-.3.3-.3.1 0 .3.1.4.1-.1.1-.2.3-.3.5zM427 300.2c.1.3.3.6.3.7-.2.2-.5.3-.7.4l-.2-.3c.2-.3.4-.5.6-.8zm-174.8 14.9c-.1.1-.3.2-.5.4-.1-.2-.2-.3-.3-.5.2-.1.3-.2.5-.3.2.1.2.2.3.4zm322.3-82.6c-.2.1-.4.2-.6.2-.1 0-.2-.2-.2-.3.2-.1.3-.2.5-.3.1 0 .2.2.3.4zM468.8 372.4c0 .1.2.3.1.4s-.2.1-.3.2c0-.1-.1-.3-.1-.4 0-.1.2-.1.3-.2zM451.6 311c-.1.4 0 .7-.2.9-.1.2-.4-.2-.3-.5.1-.1.3-.2.5-.4zm58.1-27.1c-.1-.1-.2-.2-.2-.3.2-.1.3-.2.5-.3 0 .1.1.3.1.4-.2.1-.3.2-.4.2zm-83.5 37.6c0-.1-.1-.3-.1-.4.1-.1.2-.1.4-.2 0 .1.1.3.1.4 0 .1-.2.1-.4.2zm50.9-42.9c-.2 0-.4.1-.6.1-.1 0-.1-.2-.1-.4.2-.1.4-.1.6-.2-.1.1 0 .3.1.5zm-20.3-15.1c0 .2 0 .3-.1.4-.1.2-.3.3-.5.4 0 0-.3-.2-.2-.3.1-.2.2-.4.4-.5h.4zm37.8 113.6l.3.3c-.1.1-.3.2-.4.3-.1-.1-.2-.3-.1-.4-.1-.1.1-.1.2-.2zm.3-204.8c-.2.1-.4.1-.6.1l-.1-.3c.2-.1.4-.2.5-.3 0 .1.1.3.2.5zm.9-40.9c-.2-.1-.3-.2-.4-.2.1-.2.2-.4.4-.5l.4.2c-.2.2-.3.3-.4.5zm82.4 59.8c.2.1.3.1.5.2-.1.2-.1.4-.3.5l-.4-.1c0-.2.1-.4.2-.6zm-66.7 52.6v-.4l.2-.1c.1.1.1.2.2.3-.2.1-.3.2-.4.2zm-28.6-2.9c-.1.1-.1.3-.2.4-.1.1-.2.1-.3.1v-.6c0-.1.2-.2.3-.2 0 .1.1.2.2.3zm28.3 43.5c.1.1.1.2.2.4-.1 0-.3.1-.4.1-.1 0-.1-.2-.1-.3 0-.1.2-.2.3-.2zm-103.3-82.9l.2.2c-.1.1-.2.1-.4.2 0 0-.1-.1-.2-.1.2-.1.3-.2.4-.3zm-12.6 168.2c-.1.1-.1.3-.2.4-.1 0-.3-.1-.4-.1.1-.1.1-.3.2-.4.1 0 .3.1.4.1zm90.1-241.3c.1-.1.2-.2.3-.2.1 0 .2.1.3.2-.1.1-.2.2-.3.2-.1 0-.2-.1-.3-.2zM355.9 440.7c.1.1.2.2.2.3-.1.1-.2.1-.4.2 0 0-.1-.1-.2-.1l.4-.4zm140.7-236.3c-.2-.1-.3-.1-.5-.2.2-.2.3-.4.5-.5.1.1.3.2.2.3 0 .2-.1.3-.2.4zm-149.2 108l-.3.3c-.1-.1-.1-.2-.2-.4 0 0 .1-.1.2-.1s.2.1.3.2zm97 126c.1 0 .2-.1.3-.1 0 .1.1.2.1.2-.1.1-.2.1-.3.1-.1-.1-.1-.1-.1-.2zm-198.2-74.2c-.2.1-.4.1-.6.2 0-.1-.1-.3 0-.4s.2-.2.4-.2c0 .1.1.2.2.4zm191.3-.9h-.4c0-.1.1-.2.1-.2h.4c-.1.1-.1.1-.1.2zm-73.6-1.2c-.1.1-.2.2-.2.3-.1-.1-.1-.2-.2-.3l.1-.2c.1 0 .2.1.3.2zm58.6 68.4l-.3.3c-.1-.1-.2-.3-.3-.4.1-.1.3-.1.4-.2.1 0 .2.1.2.3zm43.2-220.4c-.1.1-.3.1-.4.2 0-.1-.2-.3-.1-.4.1-.1.3-.1.4-.1 0 0 .1.2.1.3zm-91.8 149.2c.2.2.2.3.3.4-.2.1-.3.2-.5.4 0-.1-.1-.2-.1-.2.1-.2.2-.3.3-.6zm69.3-100.7c-.1.1-.2.2-.3.2-.1-.1-.1-.2-.2-.3 0 0 .1-.1.2-.1.1.1.2.1.3.2zm22.5 71.1c-.1.1-.3.1-.4.2 0-.1-.1-.3-.1-.4.1 0 .3-.1.4-.1 0 0 0 .2.1.3zM261.5 358c.1.1.2.1.3.2-.1.1-.2.2-.4.2 0 0-.2-.1-.1-.1 0-.1.1-.2.2-.3zm86.4 65.9c0 .1.2.3.1.4s-.3.1-.4.2c0-.1-.1-.3-.1-.3.1-.2.3-.2.4-.3zm35-.5c-.1 0-.3.1-.4.1s-.2-.3-.1-.3c.1-.1.2-.1.4-.2.1.2.1.3.1.4zm53.2-133c.1.1.2.2.2.3 0 .1-.2.2-.3.2 0-.1-.1-.1-.1-.2s.1-.2.2-.3zm3.6 18.1c.2.1.3.2.4.2-.1.2-.2.3-.3.4-.1 0-.2-.1-.4-.2.1 0 .2-.2.3-.4zm-55.6 113.9c-.2.1-.3.1-.5.2 0-.1-.1-.3-.1-.4.1-.1.3-.2.4-.3.1.1.1.3.2.5zm101.4-1.1c-.2 0-.4.1-.5.1s-.1-.2-.2-.4c.2-.1.4-.1.5-.2.1.1.2.2.2.5zM204.1 217.1h-.6c0-.1 0-.3.1-.4.1-.1.3-.1.4-.1 0 .2 0 .3.1.5zm230.4 98.8c.1.2.2.2.3.3-.2.1-.3.2-.5.3l-.1-.1c.1-.2.2-.3.3-.5zm-196.1 94c-.1.1-.2.1-.3.2 0-.1-.1-.2-.1-.3.1 0 .2-.1.4-.1v.2zm162-.4c-.1 0-.3.1-.4.1 0-.1-.1-.3-.1-.3.1-.1.2-.1.4-.2.1.2.1.3.1.4zm-190-80.9c-.1.1-.2.2-.3.2 0-.1-.1-.2-.1-.3 0 0 .1-.1.2-.1 0 .1.1.2.2.2zm121.8-1.9h-.4c0-.1.1-.2.1-.2h.4s-.1.1-.1.2zm138-159.2l.3.3c-.2.1-.3.2-.5.3l-.2-.1c.2-.1.3-.3.4-.5zM389 273.2c-.1.1-.2.1-.4.2 0-.1-.1-.3-.1-.3.1-.1.2-.1.3-.2.2 0 .2.1.2.3zm-132.1 22.3c-.2.2-.3.4-.4.4s-.3-.1-.4-.1c.2-.2.3-.4.5-.6l.3.3zM489.2 222c-.1.1-.1.3-.2.4-.1-.1-.3-.1-.4-.2 0-.1.1-.3.1-.4.3.1.4.1.5.2zM327.3 347.3c-.1-.2-.2-.3-.2-.4.1-.1.3-.2.4-.3 0 0 .1.1.1.2s-.2.3-.3.5zm160.4-123.4c-.1.1-.1.2-.2.3-.1-.1-.1-.2-.2-.3.1-.1.2-.2.3-.2.1.1.1.2.1.2zm-180.9 49.8c-.2.1-.3.2-.5.3-.1 0-.2-.2-.2-.2l.4-.4c.1 0 .2.1.3.3zm91.9.3c.2-.3.3-.8.5-.9s.8.2.9.4c.1.3-.2.9-.4.9-.3 0-.7-.3-1-.4zm0-4c.1-.2.1-.4.3-.5.1-.1.4.1.4.2s-.1.4-.2.5c-.2 0-.4-.1-.5-.2zm41.6 28.7c-.1.1-.3.1-.4.2 0-.1-.1-.3-.1-.4.1 0 .3-.1.4-.1 0 0 .1.2.1.3zm48.6-71c-.2-.4.8-1.4 1.3-1.2.3.1.5.9.1 1.3-.5.4-1.3.2-1.4-.1zM241.4 175c-.1-.1-.2-.1-.3-.2.1-.1.2-.2.3-.2 0 0 .1.1.2.1-.1 0-.1.2-.2.3zm18 .7c-.4.2-.6.3-.9.3-.1 0-.3-.2-.3-.2 0-.1.1-.3.2-.3.3-.1.4.1 1 .2zm44.9 53.7h-.6c0-.1 0-.3.1-.3.1-.1.2-.1.4-.2 0 .2 0 .3.1.5zm72.4 45.1l.3-.3c.1.1.1.2.2.3l-.1.2c-.1-.1-.2-.2-.4-.2zm108.7-44.1c-.1.1-.1.3-.2.4-.1 0-.3-.1-.4-.1.1-.1.1-.3.2-.3.1-.2.2-.1.4 0zM272 399c-.2.1-.4.1-.5.2 0-.1-.1-.3-.1-.4l.3-.3c.1.1.2.3.3.5zm167.2-95.5c-.1-.1-.2-.2-.2-.3.2-.1.3-.2.5-.3 0 .1.2.3.1.4-.1.2-.3.2-.4.2zm-51.1-70.7c-.1-.1-.1-.2-.2-.4.2-.1.4-.2.5-.2 0 .1.1.3 0 .4 0 .1-.2.1-.3.2zm95.3-57c-.1.1-.1.3-.2.3s-.2-.1-.4-.1c.1-.1.1-.3.2-.3s.3.1.4.1zm-65.8 163.1v-.4s.1-.1.2-.1c.1.1.1.2.2.2-.2.2-.3.3-.4.3zm-143.7-24c-.1.1-.1.3-.2.4-.1 0-.3-.1-.4-.1.1-.1.1-.3.2-.4.1 0 .2.1.4.1zm227.5-132.4c-.1 0-.3 0-.4.1v-.2c.1 0 .3 0 .4-.1v.2zm-48.2 155.2c.1.1.3.1.3.2s-.1.3-.1.4c-.1-.1-.3-.1-.4-.2.1-.2.1-.3.2-.4zm-117.4 45c-.1.1-.1.3-.2.4-.1 0-.3-.1-.4-.2.1-.1.1-.3.2-.4.1 0 .3.2.4.2zm114.2-2.2c-.1.1-.1.3-.2.4-.1 0-.2-.1-.4-.1.1-.1.1-.3.2-.4.1-.1.2 0 .4.1zm-9.2-43.5c-.1.1-.2.1-.3.2 0-.1-.1-.3-.1-.4s.2-.1.3-.2c0 .2 0 .3.1.4zm-62-100.7l.2.2c-.1.1-.2.1-.3.2 0 0-.1-.1-.2-.1l.3-.3zm29.1 80.7c-.1-.1-.2-.1-.3-.2.1-.1.2-.2.3-.2 0 0 .1.1.2.1-.1.1-.2.2-.2.3zm-141.5-38.1c-.2.1-.3.3-.4.3s-.2-.1-.3-.2l.4-.4c0 .1.1.2.3.3zm-12.1 57.7c.1 0 .1.1.2.1l-.3.3-.1-.1c0-.2.1-.2.2-.3zm223.5 40.8l-.3.6s-.2 0-.3-.1c0-.1 0-.2.1-.2.1-.1.3-.2.5-.3zm-106.4-43.5c-.1.1-.1.3-.2.4-.1 0-.2-.1-.4-.1.1-.1.1-.3.2-.4s.3 0 .4.1zm98.3-141c-.2.1-.3.3-.5.3-.1 0-.2-.3-.3-.4.2-.1.4-.2.6-.2 0-.1.1.1.2.3zM237.8 240c-.1-.1-.2-.1-.3-.2 0-.1.1-.1.1-.2h.3c0 .1-.1.3-.1.4zm101.6.1c-.1 0-.2.1-.3.1v-.2c.1 0 .2-.1.3-.1v.2zm87.3 92.6l-.2.4c-.2 0-.3-.1-.5-.2.1-.1.1-.3.2-.3s.3.1.5.1zM313.1 454.8h-.2c0-.1.1-.2.1-.3l.1.1c.1 0 .1.1 0 .2zM428 325.6c0 .1.1.3.1.3-.1.1-.2.1-.4.2 0-.1-.1-.3-.1-.4s.2-.1.4-.1zm42.5 50.9s-.1.1-.1.2l-.2-.2c.1 0 .1-.1.2-.1l.1.1zm-50.4-134.2c-.1-.1-.2-.1-.2-.2 0 0 0-.2.1-.2h.3c0 .1-.1.3-.2.4zm100-44v-.3l.2-.1c.1.1.1.2.2.2-.2.1-.3.1-.4.2zM225.7 375.7c-.1.1-.2.1-.4.2 0-.1-.1-.3-.1-.4.1-.1.2-.2.3-.2.1.1.2.2.2.4zm221.1-93.1c-.1.1-.1.3-.2.3s-.3-.1-.4-.1c.1-.1.1-.3.2-.3s.3.1.4.1zm20.7 24.5c0-.1-.1-.3-.1-.4s.2-.1.4-.2c0 .1.1.3.1.4-.1.1-.2.1-.4.2zm-173.2 8.7c-.1.1-.2.2-.2.3-.1-.1-.1-.2-.2-.3l.3-.3c0 .2 0 .2.1.3zm70.8 5.8c0 .1.1.1.1.2-.1.1-.2.1-.3.2l-.1-.1c.1-.2.2-.2.3-.3zm127-77.5c-.1.2-.2.4-.3.4-.2 0-.4-.1-.5-.2.1-.1.1-.3.2-.3.2 0 .4.1.6.1zm-179.8 87.7v.2h-.2v-.3c.1 0 .2.1.2.1zm189.7 3.4c.1 0 .1 0 .2-.1 0 .1 0 .2.1.2h-.2c-.1 0-.1-.1-.1-.1zm-18.7 2.6c-.1 0-.1 0-.2-.1.1-.1.1-.2.2-.2 0 .1.1.1.1.2 0 0-.1 0-.1.1zM348.6 122.4c0 .1-.1.1-.1.2 0-.1-.1-.1-.1-.2s.1-.1.1-.2c0 0 .1.1.1.2zM386.1 343h.1l-.1.2zm-111.6.3c-.1 0-.2.1-.3.1 0 0 0-.1-.1-.2.2.1.3.1.4.1zm11.2-.1c.1 0 .1.1.2.1-.1.1-.2.1-.3.2 0-.1-.1-.1-.1-.2.1 0 .2-.1.2-.1zm109.2 3.3c-.1 0-.2.1-.3.1v-.4s.1-.1.2-.1c0 .2 0 .3.1.4zm88.8.6v.2c-.1 0-.1 0-.2.1v-.3c.1-.1.1 0 .2 0zm-228 .8l-.1.1v-.3c0 .1 0 .2.1.2zm213.5.2c-.1.1-.2.2-.3.2-.1 0-.2-.1-.3-.2.1-.1.2-.2.3-.2.1 0 .2.1.3.2zm-8.8 1.4c0 .1 0 .2-.1.2s-.1 0-.2-.1c0-.1 0-.2.1-.2.1.1.2.1.2.1zm-29.3.5l.2-.1v.2zm-2.6 1.1c.1 0 .2 0 .2.1s0 .1-.1.2c-.1 0-.2 0-.2-.1 0 0 .1-.1.1-.2zm17.3 2.8c0 .1 0 .1-.1.2-.1-.1-.2-.1-.2-.2 0 0 .1-.1.1-.2l.2.2zm-102.4.4l.2-.1v.2zm-75 4.4c-.1 0-.2-.1-.2-.1.1-.1.1-.2.2-.4.1 0 .2.1.2.1-.1.2-.1.3-.2.4zm115.9-216.5h-.1s0-.1-.1-.2h.3c-.1.1-.1.2-.1.2zm130.1.1v-.1l.2.1zM413.2 359s0 .1-.1.1-.1 0-.2-.1c0 0 0-.1.1-.1 0 .1.1.1.2.1zm-6.1 2.9c0-.1-.1-.1-.1-.2.1 0 .2-.1.2-.1v.2c0 .1-.1.1-.1.1zm39.6 5.1h-.1v-.2zm-14.5 3.9v.2c-.1 0-.1 0-.2.1v-.3h.2zm-133.7 3.6c-.1 0-.1 0-.2.1 0-.1.1-.2.1-.3.1.1.1.1.1.2zm33 6c-.1.1-.1.2-.2.3l-.1-.1c0-.1.1-.2.2-.3l.1.1zm11.7 4.8c0-.1-.1-.1-.1-.2.1 0 .2-.1.2-.1v.2c.1 0 0 .1-.1.1zM415 162.6c.1 0 .1 0 .2.1-.1.1-.2.1-.2.2l-.1-.1c0-.1.1-.1.1-.2zm-33 1.1c-.1.1-.3.1-.4.1 0 0-.1-.1-.1-.2.1-.1.3-.1.4-.2 0 .1 0 .3.1.3zM443.3 393h.1v.2h-.3c.1-.1.2-.1.2-.2zm104.2-225.9c-.1 0-.1.1-.2.1l-.1-.1c.1 0 .1-.1.2-.1l.1.1zm-47 1.4s0-.1.1-.1h.2s0 .1-.1.1h-.2zm-115.3 1.4s0-.1.1-.1h.2s0 .1-.1.1c-.1.1-.1 0-.2 0zm8.3 231.5v.1h-.1zm-15.2 1v.1l-.2-.1zm-131.1 5.1l-.2.2c0-.1-.1-.2-.1-.4 0 0 .1-.1.1-.2 0 .2.1.3.2.4zm62.3-231.7c0-.1-.1-.1-.1-.2.1-.1.2-.1.4-.1 0 0 .1.1.1.2-.2 0-.3 0-.4.1zm-4.4 232.5c-.1 0-.1 0-.2-.1.1-.1.1-.2.2-.2 0 .1.1.1.1.2 0 0-.1 0-.1.1zm142.5.4c-.1 0-.1.1-.2.1l-.1-.1c.1-.1.2 0 .3 0zM337.8 179.1c0-.1-.1-.1-.1-.2.1-.1.2-.1.4-.2 0 0 .1.1.1.2-.1.1-.2.1-.4.2zm-44 231.1c0 .1 0 .1-.1.2l-.2-.2.1-.1c.1 0 .2 0 .2.1zm271.5-229.8c-.1.1-.2.2-.3.2s-.2-.1-.3-.2l.1-.1c.2-.1.3 0 .5.1zm-229.1 1.4c.1-.1.2-.1.4-.2 0 0 .1.1.1.2-.1.1-.2.1-.4.2 0 0 0-.2-.1-.2zm-20.9 235.9c-.1 0-.1.1-.2.1 0-.1-.1-.2-.1-.4 0 0 .1-.1.2-.1 0 .2.1.3.1.4zm78.4 0c0-.1-.1-.1-.1-.2.1 0 .1-.1.2-.1v.2c0 .1 0 .1-.1.1zm-135.3 1.9c0-.1-.1-.2-.1-.3 0 0 .1 0 .1-.1v.4zm92.2-229.7c0 .1-.1.1-.1.2-.1-.1-.2-.1-.3-.2.1 0 .1-.1.2-.1s.1.1.2.1zm56.2 229.2c0 .1-.1.1-.1.2-.1-.1-.2-.1-.2-.2.1 0 .1-.1.2-.1l.1.1zm18 4.4c0 .1-.1.1-.1.2v-.3l.1.1zm-14.6 3.2c-.1 0-.2.1-.3.1v-.4s.1-.1.2-.1c0 .1 0 .3.1.4zm83.3.3c0 .1 0 .1-.1.2l-.2-.2.1-.1c.1 0 .2 0 .2.1zm-110.7 1.6c0 .1 0 .1-.1.2-.1 0-.1 0-.2-.1 0-.1 0-.2.1-.2 0 0 .1 0 .2.1zm92.4 3.8c0 .1.1.3.1.4 0 0-.1.1-.2.1 0-.1-.1-.3-.1-.4.1 0 .2 0 .2-.1zm-84.9 5.5l.1-.2.1.2zm73.6 1.9l-.1.1v-.3c.1.1.1.2.1.2zm-111.7.7c0-.1-.1-.2 0-.2h.1s0 .1-.1.2zm23.9.1c0-.1-.1-.1-.1-.2.1 0 .2-.1.3-.1 0 .1.1.2 0 .2 0 .1-.1.1-.2.1zm64.3-.6s0 .1-.1.1c0-.1-.1-.1-.1-.2.1.1.2.1.2.1zm114.7-238.7c-.1.1-.2.1-.3.1 0 0-.1-.1-.1-.2.1 0 .2-.1.3-.1 0 .1.1.2.1.2zM433.9 451.9l.2.1h-.2zm11.9 2.2c0 .1-.1.1-.1.2-.1-.1-.1-.2-.2-.3l.1-.1c.1.1.2.1.2.2zM480 207.9c.1 0 .1 0 .2-.1v.3h-.2v-.2zm-41.1 256.7c.1 0 .2 0 .2.1s0 .1-.1.2c-.1 0-.1 0-.2-.1.1-.1.1-.1.1-.2zm65.5-252.8c.1 0 .1-.1.2-.1 0 .1 0 .2.1.3h-.2c-.1-.1-.1-.2-.1-.2zm-122.6 254h.1v.2h-.2s.1-.1.1-.2zm-31.6 2.9l-.2-.1h.2zm53.2.2l-.1.1c-.1-.1-.1-.2-.1-.4l.1-.1c0 .2.1.3.1.4zm-13.2-254.1c-.1 0-.1 0-.2-.1l.2-.2s.1.1.2.1c-.1.1-.1.2-.2.2zm-4 255.5s-.1.1-.1 0c0 0-.1-.1-.1-.2.1 0 .2 0 .3-.1-.1.2-.1.3-.1.3zM272.1 215.8c0-.1-.1-.2-.1-.3h.4l.1.2c-.2 0-.3.1-.4.1zm305.8 1c.1 0 .2.1.4.1-.1.1-.1.2-.2.3-.1 0-.2-.1-.4-.1.1-.1.1-.2.2-.3zm-109 .7c-.1 0-.1.1-.2.1 0-.1-.1-.2-.1-.2h.2s0 .1.1.1zm75.1.2c-.1 0-.1 0-.2-.1l.2-.2c0 .1.1.1.1.2 0 0-.1 0-.1.1zm-48.7 11.7c-.1.1-.2.3-.2.3-.1 0-.3-.1-.4-.2.1-.1.1-.2.2-.2s.2 0 .4.1zm43.6 3.8c.1 0 .2-.1.3-.1 0 0 .1.1.1.2-.1 0-.2.1-.4.1.1 0 .1-.1 0-.2zm-49.4.8c.1.1.1.2 0 .3s-.3 0-.3-.1c-.1-.1.2-.2.3-.2zm12.5-2.1c.2.1.2.5 0 .6-.2.2-.8-.1-.8-.3s.6-.5.8-.3zm5.2-9.1v.2c-.1 0-.2 0-.2-.1s.2-.2.2-.1zm-4.5 2.3c-.1 0-.1-.1-.1-.1 0-.1.2-.1.2-.1 0 .1 0 .2-.1.2zM451 235.3v.2l-.1-.1zm26.5 1.2v.1c-.1 0-.1 0-.2.1v-.3c.1.1.1.1.2.1zm56.8-.1c.2-.1.6.1.6.3 0 .1-.5.3-.6.1-.1-.1-.1-.3 0-.4zm33.3.9c.1 0 .1 0 .1.1s0 .1-.1.2c-.1 0-.1 0-.1-.1s.1-.2.1-.2zm-88.4 6.4l.2.1h-.2zm19.6 2s0-.1.1-.1h.2s0 .1-.1.1h-.2zm-54.6.8c.1 0 .1 0 .2-.1v.3h-.2v-.2zm51.4 3.5c-.1 0-.1 0-.2.1 0-.1 0-.2-.1-.2h.2c.1 0 .1 0 .1.1zm-68.5 2.3c0 .1-.1.2-.1.2-.1-.1-.2-.2-.2-.4 0 .1.2.1.3.2zm50.4.2c-.1-.1-.2-.1-.3-.2.1 0 .1-.1.2-.1s.2.1.3.1l-.2.2zm-155.5.8l.1-.1.1.1zm128.5 5.4c0-.1-.1-.1-.1-.2.1 0 .2-.1.4-.1l.1.1c-.1.1-.3.1-.4.2zm20.4 3.3c-.1 0-.1 0-.2-.1.1-.1.1-.2.2-.2 0 .1.1.1.1.2 0 0 0 .1-.1.1zm7 .8c-.1 0-.1.1-.2.1 0-.1-.1-.1-.1-.2h.2c.1 0 .1.1.1.1zm-21 .7l.3-.3-.3.3c-.1 0 0 0 0 0zm71.7 7.4c-.1.1-.2.2-.3.2s-.1-.1-.2-.2l.1-.1c.1 0 .3.1.4.1zm13.3-.1c0 .1.1.1.1.2-.1.1-.2.1-.4.2l-.1-.1c.2-.2.3-.3.4-.3zm-70.8 4.8c.1-.1.2-.1.4-.2 0 0 .1.1.1.2-.1.1-.2.1-.4.2 0 0 0-.1-.1-.2zm40.8 4.8c.1 0 .2-.1.4-.1l.1.1c-.1 0-.2.1-.4.1 0 .1 0 0-.1-.1zm-2.6 2.1c-.1-.1-.1-.2-.2-.3.1 0 .2-.1.4-.1 0 0 .1.1.1.2-.1.1-.2.1-.3.2zm.5 3.1l.2.1-.2.1zm-126.6 1.6c-.1 0-.1 0-.2-.1l.2-.2.1.1c0 .1-.1.2-.1.2zm53 .9c0 .1.1.1.1.2s-.1.1-.1.2c-.1-.2 0-.3 0-.4zm45.6 10.7l.2.2c-.1.1-.2.1-.4.2 0 0-.1-.1-.2-.1.1-.2.3-.2.4-.3zm-128.2 3.1c-.1 0-.1.1-.2.1 0-.1-.1-.2-.1-.3h.2c0 .1 0 .2.1.2zm40.6 1.9c-.1 0-.2.1-.2.1v-.1c0-.1 0 0 .2 0zm67.1 2.1l.1-.1.1.2zm-18.3 1.2s0-.1.1-.1h.2s0 .1-.1.1c0 .1-.1 0-.2 0zm35.1.5c0-.1-.1-.2-.1-.3 0 0 .1 0 .2-.1-.1.2-.1.3-.1.4zm-114.2 4.3c-.1.1-.1.2-.2.4-.1-.1-.2-.1-.2-.1 0-.1.1-.2.2-.4.1 0 .2 0 .2.1zm113 1.7c0 .1.1.1.1.2-.1.1-.2.1-.4.2 0 0-.1-.1-.1-.2.2-.1.3-.2.4-.2zm-83.3 3.9c0 .1 0 .1.1.2h-.2s0-.1-.1-.1c0 0 .1-.1.2-.1zm10.3 1.9c0 .1-.1.1-.1.2-.1-.1-.1-.2-.2-.2.1 0 .1-.1.2-.1 0-.1 0 0 .1.1zm1.1 5.8c-.1 0-.1.1-.2.1 0-.1-.1-.2-.1-.3h.2c.1.1.1.2.1.2zm30.5.1c-.1 0-.1.1-.2.1 0-.1 0-.2-.1-.3h.2c.1.1.1.2.1.2zm-64.6 1.4c-.1-.1-.2-.2-.2-.3 0-.1.1-.2.2-.2l.1.1c0 .1 0 .2-.1.4zm117.2-192.9l-.1-.1h.2zm-191.9 14.7c-.1 0-.1.1-.2.1l-.1-.1c.1 0 .1-.1.2-.1 0-.1.1 0 .1.1zM562 172.6v.2l-.1-.1zm-224.8 3c-.1 0-.1.1-.2.1s-.1-.1-.1-.1c.1 0 .1-.1.2-.1 0 0 0 .1.1.1zm222.9 16.2l-.1.1v-.2zm-292.8 6v-.1h-.1z" class="st3_22"/></defs><style>.st3_22{fill:#5bc5dd}.st21_22{opacity:.4;fill:#00b8c4;enable-background:new}.st23_22{fill:#fff7cc}.st30_22{fill:#b0b9aa}.st31_22{fill:#5ecfd1}.st36_22{fill:#22567d}.st40_22{fill:#92cedc}.st54_22{fill:#146b87}</style><linearGradient id="SVGID_1_22" x1="346.719" x2="346.719" y1="1231.851" y2="851.258" gradientTransform="translate(0 -710.404)" gradientUnits="userSpaceOnUse"><stop offset="0" stop-color="#1a374d"/><stop offset="1" stop-color="#1f2433"/></linearGradient><path fill="url(#SVGID_1_22)" fill-rule="evenodd" d="M143.6 425.7c-20.4-33.3-32.4-71.1-43-103.3-10.2-32.4-18-59.1-14.5-75.9 3.1-17.3 18.9-24.7 42-30.3 22.7-6 51.6-10.8 75.4-31 52.9-33.5 89.2-94.4 147.4-117.7 55.2-26.6 135.2-10.4 191.9 33.5 112.8 85.8 61.7 201.2-18.5 339.3-40.6 67.8-94.6 117.6-177.9 106.7-81.5-8.2-164.1-54.5-202.8-121.3" clip-rule="evenodd"/><linearGradient id="SVGID_2_22" x1="166.065" x2="568.9" y1="1350.87" y2="1350.87" gradientTransform="translate(0 -1062)" gradientUnits="userSpaceOnUse"><stop offset="0" stop-color="#4aa3dc"/><stop offset="1" stop-color="#3364a0"/></linearGradient><path fill="url(#SVGID_2_22)" fill-rule="evenodd" d="M552.7 229.5c9.1 30.1 11.2 62.5 13.2 90.1 1.7 27.7 2.7 50.4-2.9 63.4-5.4 13.4-18.4 16.8-36.4 17.5-17.8 1.1-39.9.2-61.1 12.5-45 18.3-82.7 61.3-129.7 70.4-45.5 12.3-101.6-13.8-135.5-58.4-67.8-87.4-9.6-171.9 74.2-269.7 42-47.8 90.8-79 150.2-56.6 58.7 20.1 111.4 70.8 128 130.8" clip-rule="evenodd"/><path fill="#303f54" fill-rule="evenodd" d="M463.3 115.2c39.5 5.4 75.8 16.1 100.8 27.9 25.3 12 39.2 25.1 41.3 38.4 2.4 13.4-6.9 26.9-20.9 42.5-13.7 15.7-32 33.5-40 58.2-21.9 47.6-17.4 103.3-38.3 143.6-18.3 40.8-62 66-120.6 65.8-115 0-205.3-91.9-207-207 .6-57 22.1-109.3 73.9-139.8 50.1-31.3 130.5-40.7 210.8-29.6" clip-rule="evenodd"/><path d="M320.8 454.5c-.4-1-.4-1.7 0-2.3.2-.3.6-.5 1-.2.5.2.7.8.4 1.2-.3.4-.8.8-1.4 1.3zM210.7 342.6c-.1-.1-.4-.3-.5-.5-.2-.6.3-1.3.9-1.4.3 0 .8.4.8.7-.1.6-.5 1.1-1.2 1.2zm140-23.4c-.5-.9-.3-1.4.1-1.8.3-.3.6-.4 1-.2.4.3.5.9.1 1.2-.4.3-.8.5-1.2.8zm102.1-73.7c-.2-.3-.4-.7-.4-1s.2-.7.5-.9c.2-.1.6-.1.8 0 .2.1.2.5.2.8-.2.6-.3 1.1-1.1 1.1zm-93.2 109.9c0-.9-.1-1.3 0-1.7.1-.2.4-.4.7-.5.2-.1.5 0 .6.1s.2.4.2.6c0 .7-.6.9-1.5 1.5zm155.6-73.5c-.6 0-1.2.1-2.1.1.2-.5.2-.9.4-1 .8-.3 1.3.2 1.7.9zm-108.4 72.6c.1-.5 0-1 .2-1.5.1-.2.6-.3 1-.4.1.3.4.8.3 1-.2.4-.7.8-1 1.1-.2 0-.3-.1-.5-.2zm-87.1-109c.2-1.1.3-1.7.4-2.3.9-.1 1.1.5 1.3 1.2-.4.3-.8.6-1.7 1.1zM268 279.6c-.4-1.1-.1-1.5.4-1.8.2-.1.5-.1.6 0s.3.5.2.6l-1.2 1.2zm111.4 32.2c0-.3-.1-.6 0-.7.1-.4.4-.7.8-.6.1 0 .3.1.3.3.2.5-.1.7-.4.9-.1 0-.3 0-.7.1zM261.3 392c-.1-.1-.1-.1-.1-.2 0-1 .1-1.4.7-1.4.2 0 .5.2.5.4.2.7-.3 1-.8 1.2h-.3zm315.9-226.5c-.1.5-1 .8-1.3.4-.1-.1-.1-.3-.1-.4.2-.5.7-.6 1.2-.4.1.1.1.3.2.4zm-92.1 70.3c-.3-.1-.5-.2-.9-.3.5-.7.8-1.3 1.9-.9-.5.5-.8.9-1 1.2zm-.1.1c.1.1.3.1.4.2.2.2.4.5.4.7-.1.2-.4.4-.7.5-.3.1-.6-.1-.8-.1-.2-.8.4-1 .7-1.3zm-30.5 169.2c-.2-.4-.4-.6-.4-.7.1-.3.4-.5.6-.8.2.2.5.5.5.6-.1.3-.4.6-.7.9zm-32.8-265c.3-.3.5-.6.8-.9.1-.1.5.1.6.2.1.2.1.5 0 .6-.3.2-.7.3-1 .5-.2-.1-.3-.2-.4-.4zm-59.4 224.2c.1.1.2.2.3.4.1.5.2.9-.4 1.1-.1 0-.3 0-.4-.1-.4-.4-.2-.8.2-1.2 0-.2.1-.2.3-.2zm26.1-35.5c.3.2.6.4.5.5-.1.3-.2.5-.4.7-.1.1-.4-.1-.6-.2.2-.3.3-.6.5-1zm52.2-34.3c.1.3.2.5.2.7-.1.3-.2.5-.4.7 0 0-.3 0-.4-.1-.3-.3-.3-.7 0-1 .1-.1.3-.2.6-.3zm14.4-52.1c.2.3.6.5.5.7 0 .2-.3.4-.5.6-.1-.2-.4-.4-.4-.7 0-.1.2-.3.4-.6zm-25.6 30.2c.2.4.4.7.6 1.1 0 0-.2.2-.3.2-.4 0-.8-.5-.7-.9-.1-.2.1-.2.4-.4zm-8.3-11.2c.4 0 .8-.1 1.2-.1 0 0 .1.3.1.4-.1.4-.8.5-1.1.3-.1-.1-.1-.2-.2-.6zm1.8-11.7c.4 0 .8-.1 1.2-.1 0 0 .1.3.1.4-.1.4-.8.5-1.1.3-.1 0-.1-.2-.2-.6zm65-10c-.7.1-1.1-.1-1.3-1 .8 0 1.3.2 1.3 1zm-37.2 67.7c-.1-.2-.2-.5-.1-.7s.4-.4.7-.5c0 0 .3.2.3.3 0 .2-.1.5-.2.6-.2.2-.5.2-.7.3 0-.1 0 0 0 0zm-227.5 81.7c.2 0 .3 0 .4.1l.6.6c-.2.1-.3.3-.5.4-.2-.2-.4-.5-.5-.7-.1-.1-.1-.2 0-.4zm288.9-141.5c0 .6-.3.7-.7.8-.1 0-.3-.1-.4-.2-.2-.3.2-.8.6-.8.2-.1.4.1.5.2zm15.1-96.2c.2.3.4.4.5.6-.2.2-.4.4-.7.5-.1 0-.3-.2-.4-.4.2-.2.4-.4.6-.7zm-95.8-32.3c-.3.1-.7.2-1 .3 0 0-.2-.2-.2-.4 0-.4.5-.6.9-.5.1.1.1.3.3.6zm8.2 286.9c-.2-.4-.4-.6-.4-.7.1-.2.4-.4.6-.6.1.2.4.4.3.5.1.3-.2.5-.5.8zM269.5 270c-.5.2-.8.3-1.1.5-.1-.1-.2-.3-.2-.4l.6-.6c.2-.1.4.2.7.5zm259.4-34.5c-.3.1-.7.2-1 .3 0 0-.2-.3-.1-.4.1-.4.6-.6.9-.4 0 0 0 .2.2.5zM457.2 380c-.2.2-.4.4-.6.4-.1 0-.4-.3-.4-.4 0-.2.3-.4.4-.4.2 0 .3.3.6.4zm13.6-144.8c-.9.3-1.2.6-1.4.5-.2-.1-.3-.4-.5-.6.3-.1.5-.2.8-.2.3 0 .5.1 1.1.3zm-176.5 31.7l.4.4c-.2.2-.3.4-.5.6-.1-.1-.4-.3-.4-.4.1-.3.3-.4.5-.6zm-58.8 126.2c.3-.2.5-.4.7-.6.1.2.3.3.3.5s-.2.4-.4.5c-.1 0-.3-.2-.6-.4zm109.8-8.3c-.2.1-.3.3-.5.4-.1-.2-.2-.3-.4-.5.2-.1.3-.3.5-.3.1 0 .2.2.4.4zm-47.2-205.5c-.2-.2-.3-.3-.5-.4.1-.2.3-.4.4-.4s.3.2.5.3c-.1.1-.2.3-.4.5zm131.3 153.4c-.5.3-.7.5-.9.5-.1 0-.3-.3-.3-.4 0-.2.3-.3.4-.4.3 0 .5.1.8.3zm71.5-117.1c.3-.2.4-.4.6-.4.1 0 .3.2.5.4-.2.1-.3.3-.5.4-.1-.1-.3-.3-.6-.4zM331.7 347.8c-.3-.3-.5-.4-.5-.6s.2-.4.3-.5c.1-.1.5.1.5.2 0 .3-.1.5-.3.9zm17.6 55.1c-.2.2-.4.4-.6.4-.1 0-.3-.2-.4-.4.2-.1.3-.4.5-.4.1 0 .3.3.5.4zm-96.4-80.5c-.2.1-.5.3-.7.4l-.2-.3c.2-.2.4-.4.6-.5.1 0 .1.2.3.4zm77.4-61.2c-.2-.2-.3-.3-.5-.3l.6-.6c.1.1.4.3.4.4-.1.2-.3.3-.5.5zm105.8 85.7c-.2-.3-.4-.5-.3-.7s.3-.4.5-.6c.1.2.3.3.3.5 0 .3-.2.4-.5.8zm34.2-.7c-.2-.4-.3-.6-.3-.8 0-.2.2-.4.4-.5.1 0 .4.2.4.3 0 .3-.2.5-.5 1zM498 183.4c-.2.1-.4.3-.5.3s-.2-.3-.3-.5c.2-.1.4-.2.6-.2 0 0 .1.3.2.4zm-37 36c.2-.7.6-.8 1.3-.4-.5.2-.9.3-1.3.4zm3.9 220.8c-.1-.3-.3-.5-.2-.6.1-.2.3-.3.5-.4.1.2.3.4.3.5-.1.2-.4.3-.6.5z" class="st3_22"/><use class="st3_22" xlink:href="#reuse-0"/><use class="st3_22" xlink:href="#reuse-1"/><path d="M197.6 262.5l.3-.3c.3.3.1.4-.1.5l-.2-.2zm121.1 159.6l-.1.2.1-.1zM243.3 260c-.1 0-.1.1-.2.1s-.1-.1-.1-.2c.1 0 .1-.1.2-.1 0 0 .1.1.1.2zM259 436.2l-.1.1v-.1zm168.2 0l-.1.1v-.1zM284.3 256.6l-.2.1v-.2zm-7.6 181.6l-.1.1c0-.1-.1-.1-.1-.2l.1-.1c0 .1.1.1.1.2zm197 .9l.2-.1v.2zM462 253.7l-.1.1v-.1zm-131.7 71.1v-.1h.1zm4.3 127.6h.1v.1zm11.9 0h.1v.1zm10.1-108.2v.1h-.1zm132-97.5l-.1-.2.2.1zM463 455.8l-.1.1-.1-.1.1-.1s0 .1.1.1zm-.3 3.3h.2l-.1.1zm42.5-216.8l.1-.1v.2zm-95.7 76.1v.2h-.1zm22.4-22.6l-.1-.2.1.1zM331.3 472.4l.1.1h-.1zm92.1.1l-.2.2c-.1-.1-.1-.1-.1-.2s.1-.1.2-.2c0 .1.1.1.1.2zm-78.5-231.8zm0 0l.1-.1-.1.1zm82.7 69.6v.2h-.1zm9.3-17.7l-.1-.1.1.1zm111.2-59.1l.2.4h-.4zM320.8 454.5c-.4-1-.4-1.7 0-2.3.2-.3.6-.5 1-.2.5.2.7.8.4 1.2-.3.4-.8.8-1.4 1.3zM210.7 342.6c-.1-.1-.4-.3-.5-.5-.2-.6.3-1.3.9-1.4.3 0 .8.4.8.7-.1.6-.5 1.1-1.2 1.2zm140-23.4c-.5-.9-.3-1.4.1-1.8.3-.3.6-.4 1-.2.4.3.5.9.1 1.2-.4.3-.8.5-1.2.8zm102.1-73.7c-.2-.3-.4-.7-.4-1s.2-.7.5-.9c.2-.1.6-.1.8 0 .2.1.2.5.2.8-.2.6-.3 1.1-1.1 1.1zm-93.2 109.9c0-.9-.1-1.3 0-1.7.1-.2.4-.4.7-.5.2-.1.5 0 .6.1s.2.4.2.6c0 .7-.6.9-1.5 1.5zm155.6-73.5c-.6 0-1.2.1-2.1.1.2-.5.2-.9.4-1 .8-.3 1.3.2 1.7.9zm-108.4 72.6c.1-.5 0-1 .2-1.5.1-.2.6-.3 1-.4.1.3.4.8.3 1-.2.4-.7.8-1 1.1-.2 0-.3-.1-.5-.2zm-87.1-109c.2-1.1.3-1.7.4-2.3.9-.1 1.1.5 1.3 1.2-.4.3-.8.6-1.7 1.1zM268 279.6c-.4-1.1-.1-1.5.4-1.8.2-.1.5-.1.6 0s.3.5.2.6l-1.2 1.2zm111.4 32.2c0-.3-.1-.6 0-.7.1-.4.4-.7.8-.6.1 0 .3.1.3.3.2.5-.1.7-.4.9-.1 0-.3 0-.7.1zM261.3 392c-.1-.1-.1-.1-.1-.2 0-1 .1-1.4.7-1.4.2 0 .5.2.5.4.2.7-.3 1-.8 1.2h-.3zm315.9-226.5c-.1.5-1 .8-1.3.4-.1-.1-.1-.3-.1-.4.2-.5.7-.6 1.2-.4.1.1.1.3.2.4zm-92.1 70.3c-.3-.1-.5-.2-.9-.3.5-.7.8-1.3 1.9-.9-.5.5-.8.9-1 1.2zm-.1.1c.1.1.3.1.4.2.2.2.4.5.4.7-.1.2-.4.4-.7.5-.3.1-.6-.1-.8-.1-.2-.8.4-1 .7-1.3zm-30.5 169.2c-.2-.4-.4-.6-.4-.7.1-.3.4-.5.6-.8.2.2.5.5.5.6-.1.3-.4.6-.7.9zm-32.8-265c.3-.3.5-.6.8-.9.1-.1.5.1.6.2.1.2.1.5 0 .6-.3.2-.7.3-1 .5-.2-.1-.3-.2-.4-.4zm-59.4 224.2c.1.1.2.2.3.4.1.5.2.9-.4 1.1-.1 0-.3 0-.4-.1-.4-.4-.2-.8.2-1.2 0-.2.1-.2.3-.2zm26.1-35.5c.3.2.6.4.5.5-.1.3-.2.5-.4.7-.1.1-.4-.1-.6-.2.2-.3.3-.6.5-1zm52.2-34.3c.1.3.2.5.2.7-.1.3-.2.5-.4.7 0 0-.3 0-.4-.1-.3-.3-.3-.7 0-1 .1-.1.3-.2.6-.3zm14.4-52.1c.2.3.6.5.5.7 0 .2-.3.4-.5.6-.1-.2-.4-.4-.4-.7 0-.1.2-.3.4-.6zm-25.6 30.2c.2.4.4.7.6 1.1 0 0-.2.2-.3.2-.4 0-.8-.5-.7-.9-.1-.2.1-.2.4-.4zm-8.3-11.2c.4 0 .8-.1 1.2-.1 0 0 .1.3.1.4-.1.4-.8.5-1.1.3-.1-.1-.1-.2-.2-.6zm1.8-11.7c.4 0 .8-.1 1.2-.1 0 0 .1.3.1.4-.1.4-.8.5-1.1.3-.1 0-.1-.2-.2-.6zm65-10c-.7.1-1.1-.1-1.3-1 .8 0 1.3.2 1.3 1zm-37.2 67.7c-.1-.2-.2-.5-.1-.7s.4-.4.7-.5c0 0 .3.2.3.3 0 .2-.1.5-.2.6-.2.2-.5.2-.7.3 0-.1 0 0 0 0zm-227.5 81.7c.2 0 .3 0 .4.1l.6.6c-.2.1-.3.3-.5.4-.2-.2-.4-.5-.5-.7-.1-.1-.1-.2 0-.4zm288.9-141.5c0 .6-.3.7-.7.8-.1 0-.3-.1-.4-.2-.2-.3.2-.8.6-.8.2-.1.4.1.5.2zm15.1-96.2c.2.3.4.4.5.6-.2.2-.4.4-.7.5-.1 0-.3-.2-.4-.4.2-.2.4-.4.6-.7zm-95.8-32.3c-.3.1-.7.2-1 .3 0 0-.2-.2-.2-.4 0-.4.5-.6.9-.5.1.1.1.3.3.6zm8.2 286.9c-.2-.4-.4-.6-.4-.7.1-.2.4-.4.6-.6.1.2.4.4.3.5.1.3-.2.5-.5.8zM269.5 270c-.5.2-.8.3-1.1.5-.1-.1-.2-.3-.2-.4l.6-.6c.2-.1.4.2.7.5zm259.4-34.5c-.3.1-.7.2-1 .3 0 0-.2-.3-.1-.4.1-.4.6-.6.9-.4 0 0 0 .2.2.5zM457.2 380c-.2.2-.4.4-.6.4-.1 0-.4-.3-.4-.4 0-.2.3-.4.4-.4.2 0 .3.3.6.4zm13.6-144.8c-.9.3-1.2.6-1.4.5-.2-.1-.3-.4-.5-.6.3-.1.5-.2.8-.2.3 0 .5.1 1.1.3zm-176.5 31.7l.4.4c-.2.2-.3.4-.5.6-.1-.1-.4-.3-.4-.4.1-.3.3-.4.5-.6zm-58.8 126.2c.3-.2.5-.4.7-.6.1.2.3.3.3.5s-.2.4-.4.5c-.1 0-.3-.2-.6-.4zm109.8-8.3c-.2.1-.3.3-.5.4-.1-.2-.2-.3-.4-.5.2-.1.3-.3.5-.3.1 0 .2.2.4.4zm-47.2-205.5c-.2-.2-.3-.3-.5-.4.1-.2.3-.4.4-.4s.3.2.5.3c-.1.1-.2.3-.4.5zm131.3 153.4c-.5.3-.7.5-.9.5-.1 0-.3-.3-.3-.4 0-.2.3-.3.4-.4.3 0 .5.1.8.3zm71.5-117.1c.3-.2.4-.4.6-.4.1 0 .3.2.5.4-.2.1-.3.3-.5.4-.1-.1-.3-.3-.6-.4zM331.7 347.8c-.3-.3-.5-.4-.5-.6s.2-.4.3-.5c.1-.1.5.1.5.2 0 .3-.1.5-.3.9zm17.6 55.1c-.2.2-.4.4-.6.4-.1 0-.3-.2-.4-.4.2-.1.3-.4.5-.4.1 0 .3.3.5.4zm-96.4-80.5c-.2.1-.5.3-.7.4l-.2-.3c.2-.2.4-.4.6-.5.1 0 .1.2.3.4zm77.4-61.2c-.2-.2-.3-.3-.5-.3l.6-.6c.1.1.4.3.4.4-.1.2-.3.3-.5.5zm105.8 85.7c-.2-.3-.4-.5-.3-.7s.3-.4.5-.6c.1.2.3.3.3.5 0 .3-.2.4-.5.8zm34.2-.7c-.2-.4-.3-.6-.3-.8 0-.2.2-.4.4-.5.1 0 .4.2.4.3 0 .3-.2.5-.5 1zM498 183.4c-.2.1-.4.3-.5.3s-.2-.3-.3-.5c.2-.1.4-.2.6-.2 0 0 .1.3.2.4zm-37 36c.2-.7.6-.8 1.3-.4-.5.2-.9.3-1.3.4zm3.9 220.8c-.1-.3-.3-.5-.2-.6.1-.2.3-.3.5-.4.1.2.3.4.3.5-.1.2-.4.3-.6.5z" class="st3_22"/><use class="st3_22" xlink:href="#reuse-0"/><use class="st3_22" xlink:href="#reuse-1"/><path d="M197.6 262.5l.3-.3c.3.3.1.4-.1.5l-.2-.2zm121.1 159.6l-.1.2.1-.1zM243.3 260c-.1 0-.1.1-.2.1s-.1-.1-.1-.2c.1 0 .1-.1.2-.1 0 0 .1.1.1.2zM259 436.2l-.1.1v-.1zm168.2 0l-.1.1v-.1zM284.3 256.6l-.2.1v-.2zm-7.6 181.6l-.1.1c0-.1-.1-.1-.1-.2l.1-.1c0 .1.1.1.1.2zm197 .9l.2-.1v.2zM462 253.7l-.1.1v-.1zm-131.7 71.1v-.1h.1zm4.3 127.6h.1v.1zm11.9 0h.1v.1zm10.1-108.2v.1h-.1zm132-97.5l-.1-.2.2.1zM463 455.8l-.1.1-.1-.1.1-.1s0 .1.1.1zm-.3 3.3h.2l-.1.1zm42.5-216.8l.1-.1v.2zm-95.7 76.1v.2h-.1zm22.4-22.6l-.1-.2.1.1zM331.3 472.4l.1.1h-.1zm92.1.1l-.2.2c-.1-.1-.1-.1-.1-.2s.1-.1.2-.2c0 .1.1.1.1.2zm-78.5-231.8zm0 0l.1-.1-.1.1zm82.7 69.6v.2h-.1zm9.3-17.7l-.1-.1.1.1zm111.2-59.1l.2.4h-.4z" class="st3_22"/><g><linearGradient id="SVGID_3_22" x1="492.146" x2="478.406" y1="-551.626" y2="-559.419" gradientTransform="matrix(1 0 0 -1 0 -418.404)" gradientUnits="userSpaceOnUse"><stop offset="0" stop-color="#2bb1e9"/><stop offset="1" stop-color="#2295d1"/></linearGradient><path fill="url(#SVGID_3_22)" d="M466.4 102.1c16.6 3.2 33.2 6.3 49.8 9.5 5.6 4.5 11.3 9 17 13.5-12.6 17.4-25.3 34.6-37.8 52-9.5-24.9-19.2-50-29-75z"/><linearGradient id="SVGID_4_22" x1="505.795" x2="477.807" y1="-504.62" y2="-545.619" gradientTransform="matrix(1 0 0 -1 0 -418.404)" gradientUnits="userSpaceOnUse"><stop offset="0" stop-color="#33beff"/><stop offset="1" stop-color="#6deefe"/></linearGradient><path fill="url(#SVGID_4_22)" d="M466.4 102.1c10.9 11.9 21.9 23.7 32.8 35.6 5.7-8.7 11.3-17.5 17-26.2-16.6-2.9-33.1-6.1-49.8-9.4z"/><linearGradient id="SVGID_5_22" x1="519.339" x2="507.035" y1="-539.446" y2="-545.393" gradientTransform="matrix(1 0 0 -1 0 -418.404)" gradientUnits="userSpaceOnUse"><stop offset="0" stop-color="#33beff"/><stop offset="1" stop-color="#6deefe"/></linearGradient><path fill="url(#SVGID_5_22)" d="M499.2 137.8c11.3-4.3 22.6-8.4 34-12.6-5.6-4.5-11.3-9-17-13.5-5.7 8.6-11.3 17.4-17 26.1z"/><linearGradient id="SVGID_6_22" x1="522.342" x2="506.608" y1="-531.074" y2="-579.183" gradientTransform="matrix(1 0 0 -1 0 -418.404)" gradientUnits="userSpaceOnUse"><stop offset="0" stop-color="#36abea"/><stop offset="1" stop-color="#48cff2"/></linearGradient><path fill="url(#SVGID_6_22)" d="M499.2 137.8c-1.2 13.1-2.6 26.2-3.8 39.3 12.6-17.4 25.1-34.6 37.8-52-11.4 4.3-22.7 8.5-34 12.7z"/><path fill="#6cedfd" d="M533.2 125.2c-.1-.1-.1-.1 0 0-11.7 3.9-23.1 7.9-34.6 12 .1.2.4.4.6.6 11.3-4.2 22.6-8.4 34-12.6z"/><path fill="#83f6ff" d="M499.2 137.8c-19.2-20.6-28.8-31-28.7-31.1.1-.1 9.8 10 29.1 30.1 0 .4-.1.7-.4 1z"/><linearGradient id="SVGID_7_22" x1="521.41" x2="515.661" y1="-525.226" y2="-552.457" gradientTransform="matrix(1 0 0 -1 0 -418.404)" gradientUnits="userSpaceOnUse"><stop offset="0" stop-color="#6cedfd"/><stop offset="1" stop-color="#b1f5fd"/></linearGradient><path fill="url(#SVGID_7_22)" d="M516.2 111.6c-5.7 8.7-11.3 17.5-17 26.2 11.3-4.3 22.6-8.4 34-12.6-5.7-4.5-11.3-9-17-13.6z"/><path fill="#71d4ff" d="M495.5 177.2c2.3-26.2 3.6-39.3 3.8-39.3.1 0-.9 12.6-2.8 38-.3.3-.7.8-1 1.3z"/></g><g><defs><use xlink:href="#SVGID_13_22"/></defs><clipPath id="SVGID_14_22"><use overflow="visible" xlink:href="#SVGID_13_22"/></clipPath><defs><use id="SVGID_15_22" xlink:href="#SVGID_13_22"/></defs><defs><use xlink:href="#SVGID_16_22"/></defs><clipPath id="SVGID_17_22"><use overflow="visible" xlink:href="#SVGID_15_22"/></clipPath><clipPath id="SVGID_18_22" clip-path="url(#SVGID_17_22)"><use overflow="visible" xlink:href="#SVGID_16_22"/></clipPath><linearGradient id="SVGID_19_22" x1="425.188" x2="463.952" y1="-358.85" y2="-358.85" gradientTransform="matrix(1 0 0 -1 0 -62)" gradientUnits="userSpaceOnUse"><stop offset="0" stop-color="#fff"/><stop offset="1"/></linearGradient><path fill="url(#SVGID_19_22)" d="M464 318.2c-16.3-11-30-27.1-37.8-45.2-1.9 8-.7 19 1.1 26.7 0 0 15.5 16.1 25 21 3.9-.7 7.8-1.7 11.7-2.5z" clip-path="url(#SVGID_18_22)"/><linearGradient id="SVGID_20_22" x1="425.188" x2="463.952" y1="-358.85" y2="-358.85" gradientTransform="matrix(1 0 0 -1 0 -62)" gradientUnits="userSpaceOnUse"><stop offset="0" stop-color="#fff7cc"/><stop offset="1" stop-color="#fff7cc"/></linearGradient><path fill="url(#SVGID_20_22)" d="M464 318.2c-16.3-11-30-27.1-37.8-45.2-1.9 8-.7 19 1.1 26.7 0 0 15.5 16.1 25 21 3.9-.7 7.8-1.7 11.7-2.5z"/><linearGradient id="SVGID_21_22" x1="385.163" x2="268.291" y1="-240.084" y2="-170.508" gradientTransform="matrix(1 0 0 -1 0 -62)" gradientUnits="userSpaceOnUse"><stop offset="0" stop-color="#83f7c7"/><stop offset=".175" stop-color="#4cddc6"/><stop offset=".367" stop-color="#15c2c4"/><stop offset=".46" stop-color="#00b8c4"/><stop offset=".504" stop-color="#04abbb"/><stop offset=".65" stop-color="#1186a0"/><stop offset=".786" stop-color="#1a6c8d"/><stop offset=".907" stop-color="#205c81"/><stop offset="1" stop-color="#22567d"/></linearGradient><path fill="url(#SVGID_21_22)" d="M274.8 78.8c27.6-2.6 55.6 0 82.3 7.5-9.8 30.6-15.8 64.4-16.9 96.5-19.2.2-38.4 3.7-56.6 9.9-11.1-37.3-13.6-75.2-8.8-113.9z"/><path d="M315.8 144c4.7-16.6 11-32.8 18.8-48.2 1.9-3.7 3.8-7.4 5.9-11.1-14.7-3-29.7-4.5-44.8-4.5-6.3 0-12.6.3-18.8.8-4.4 37.6-1.6 74.1 8.3 108.8 7.5-2.4 15-4.4 22.5-5.9 1.5-13.4 4.5-26.8 8.1-39.9z" class="st21_22"/><linearGradient id="SVGID_22_22" x1="135.241" x2="325.987" y1="-154.772" y2="-229.038" gradientTransform="matrix(1 0 0 -1 0 -62)" gradientUnits="userSpaceOnUse"><stop offset="0" stop-color="#83f7c7"/><stop offset=".175" stop-color="#4cddc6"/><stop offset=".367" stop-color="#15c2c4"/><stop offset=".46" stop-color="#00b8c4"/><stop offset=".504" stop-color="#04abbb"/><stop offset=".65" stop-color="#1186a0"/><stop offset=".786" stop-color="#1a6c8d"/><stop offset=".907" stop-color="#205c81"/><stop offset="1" stop-color="#22567d"/></linearGradient><path fill="url(#SVGID_22_22)" d="M179.3 205.1c39.5-25.1 87.8-42.4 134.6-43.4-7.2-32.3-9.4-66.6-5.8-96.8-54.2-9.1-111.7 3.4-157.2 34.2 8.3 33.4 20.1 72.8 28.4 106z"/><path d="M171.2 165.2c6.6-9.9 13.2-19.7 19.4-29.9 8.2-13.4 15.9-27 23.3-40.9 3.4-6.3 6.6-12.5 10.2-18.7 1.2-2.2 2.5-4.3 3.6-6.6-26.5 5.7-51.9 16.2-74.1 31 4.1 16.2 9 34 13.8 51.3 1.2 4.7 2.5 9.3 3.8 13.8z" class="st23_22"/><path d="M275.1 64.4c-.5 29.4-4.6 59.4-15.2 86.8-2.4 6.2-5.1 12.3-8.1 18.1 19.9-5.9 39.9-9.2 59.2-9.9-6.7-31.4-8.6-64.1-5.5-92.6-10-1.4-20.2-2.3-30.4-2.4z" class="st21_22"/><path fill="#1d4a6b" d="M313.9 161.7l-30.3 31c-2.6-8.9-4.8-17.9-6.5-27.1 12.7-2.3 25-3.7 36.8-3.9z"/><path d="M154.8 98l92.6 405.3h-4.6L147.3 99.8c2.2-2.1 4.7-2.4 7.5-1.8z" class="st23_22"/><path fill="#fff6db" d="M222.4 113.3c-1.5.5-3 1-4.5 1.2-.8.1-1.6.1-2.3-.1s-1.3-.6-1.8-1.2c.4-.5.7-1.1 1-1.7.2-.3.3-.6.4-1 .1-.3.2-.8 0-1.1-.1-.4-.4-.7-.8-.8-.2-.1-.4-.1-.6-.2-.2 0-.4 0-.6.1-.7.1-1.4.4-2 .7-.6.3-1.2.7-1.8 1.1s-1.1.8-1.6 1.3c-1 .9-2 2-2.8 3-.9 1.1-1.6 2.2-2.4 3.4-.4.6-.7 1.2-1 1.8.1 0 .2.1.2.1l3.9 2.1c.8-.8 1.5-1.5 2.2-2.3.8-.2 1.6-.4 2.3-.5.8-.1 1.6-.2 2.4-.1.8.1 1.6.3 2.2.8.6.5 1 1.2 1.2 1.9v.2l.1.2c0 .1.1.1.1.2-.9 1.1-1.8 2.3-2.7 3.3 1.1.5 2.3.9 3.4 1.4 4.8 1.8 9.9 3.3 15 4.5 1.1.2 2.2.5 3.3.7.3-.6.7-1.2 1.1-1.8l3.9-2 .2-.1c3.5-1.9 6.9-4 10-6.4 3.2-2.4 6.1-5.1 8.7-8.2 2.5-3.1 4.6-6.6 5.9-10.3 1.2-3.8 1.7-7.8 1.3-11.8v1.6c0-.5 0-1-.1-1.6-.7-.2-1.4-.4-2-.5l-.3-.1-.8-.1c-.5-.1-1.1-.2-1.6-.3l-1.6-.2c-.5-.1-1.1-.1-1.6-.1h-1.6l-1.6.1c-.5.1-1.1.2-1.6.2l-.8.1-.8.2c-.5.1-1.1.2-1.6.4-1 .3-2.1.6-3.1 1.1l-.8.3-.4.2-.4.2-1.5.7c-.5.2-1 .5-1.5.8s-1 .5-1.4.8c-3.8 2.3-7.2 5.1-10.3 8.1-2.9 3-5.8 6.3-8.5 9.7zm18.4 14.8zm-1.8 10.4c.3.2.5.5.6.9 0 .2.1.4 0 .6 0 .2-.1.4-.2.5-.3.6-.7 1.2-1.1 1.8-.4.6-.9 1.1-1.4 1.5-.5.5-1.1.9-1.6 1.3-1.1.8-2.3 1.5-3.6 2.2-1.2.6-2.5 1.2-3.8 1.6-1.3.5-2.7.8-4 1.1-2.7.5-5.5.8-8.2.5.5 0 1 .1 1.5.1-.5 0-1 0-1.5-.1h-.1c.6-.3 1.3-.7 1.9-1 1.4-.8 2.7-1.6 4-2.5l2.9-1.9c.9-.6 1.9-1.2 2.9-1.8.4-.7.7-1.5 1-2.2.3-.8.5-1.6.6-2.4.1-.6 0-1.2-.2-1.8.8.2 1.5.3 2.3.5 1.1.2 2.1.4 3.2.5.1.4.3.8.6 1.2.6-.3 1.2-.5 1.9-.6.2 0 .3-.1.5-.1.7 0 1.3.1 1.8.1zm-23.7-2.6c-2.6 1.5-5.3 3-8 4.3-.1 0-.2 0-.2-.1v-.2c1.9-2.4 3.8-4.8 5.8-7l-.6-.9c.9.4 1.8.7 2.8 1 2.9 1 5.8 1.9 8.8 2.7-.6.3-1.3.7-1.9 1h-.2l-.6-.6c-1.1.6-2.2 1.3-3.3 2h-.2c-.9-.6-1.7-1.3-2.4-2.2zm-16.5-6.2s0-.1 0 0c0-.1 0-.1 0 0 .1-.7.2-1.3.3-2 .1-.5.2-1 .3-1.6.6.3 1.1.6 1.7.9-.8.9-1.6 1.8-2.3 2.7.6-.7 1.1-1.4 1.7-2.1-.6.7-1.2 1.4-1.7 2.1 0-.1 0 0 0 0zm85 2.7s-.6.2-1.7.5c-1.1.4-2.7.9-4.8 1.5-4.2 1.2-10.4 2.5-18.3 3.2-7.8.6-17.3.6-27.7-1.3-5.2-.9-10.5-2.3-15.9-4.2s-10.8-4.3-16.1-7.3c-5.3-2.9-10.2-6.3-14.7-9.9-2.2-1.8-4.3-3.7-6.3-5.5-.8-.8-1.7-1.6-2.5-2.4l-1.3-1.2-.6-.6-.3-.3c.1-.1.2-.1.4-.2 1.1-.5 2.1-1.1 3.2-1.6l1.5-.8.4-.2.2-.1.1-.1.5-.2c9.7-4.3 19.3-5.8 27.2-5.9s14.3 1.1 18.5 2.3c1.1.3 2 .6 2.8.8.8.2 1.5.5 2 .7 1.1.4 1.7.6 1.7.6s-.6-.1-1.7-.4c-.6-.1-1.2-.3-2.1-.5-.8-.2-1.8-.3-2.8-.5-4.3-.7-10.6-1.3-18.2-.7-7.6.7-16.7 2.7-25.7 7.1l-.4.2h-.1l-.2.1-.3.2.1.1.2.2.4.4c2 1.7 4.1 3.5 6.2 5.2 4.4 3.3 9.1 6.5 14.2 9.4 5.1 2.8 10.3 5.2 15.4 7.2 5.1 1.9 10.3 3.4 15.2 4.5 9.9 2.2 19.1 2.9 26.8 2.8 7.7-.1 14-.9 18.3-1.7 2.1-.4 3.8-.7 4.9-1 .9-.2 1.5-.4 1.5-.4z"/><linearGradient id="SVGID_23_22" x1="224.24" x2="310.907" y1="-352.306" y2="-348.256" gradientTransform="matrix(1 0 0 -1 0 -62)" gradientUnits="userSpaceOnUse"><stop offset=".064" stop-color="#fff7cc"/><stop offset=".403" stop-color="#fccaeb"/><stop offset=".438" stop-color="#f4c8ec"/><stop offset=".491" stop-color="#dec1ef"/><stop offset=".557" stop-color="#bbb6f4"/><stop offset=".588" stop-color="#a8b0f7"/><stop offset=".628" stop-color="#a9b5f6"/><stop offset=".678" stop-color="#adc5f5"/><stop offset=".733" stop-color="#b2def2"/><stop offset=".748" stop-color="#b4e6f1"/></linearGradient><path fill="url(#SVGID_23_22)" d="M327.2 252c-40.5 18-79.4 25.8-116.1 18.8V318c32 8.2 63 4.6 97.3-5.3 10.7-16.6 16.3-37.3 18.8-60.7z"/><linearGradient id="SVGID_24_22" x1="212.9" x2="317.7" y1="-358.75" y2="-358.75" gradientTransform="matrix(1 0 0 -1 0 -62)" gradientUnits="userSpaceOnUse"><stop offset="0" stop-color="#a2b5e2"/><stop offset="1" stop-color="#91cddc"/></linearGradient><path fill="url(#SVGID_24_22)" d="M303.4 297.1c-10.8 4-22.9 6.3-34.3 8-11.3 1.7-22.7 2-34.1 1.1-2.7-.2-5.7-1.8-6.3-4.8-1.9-9.1-3.1-18.3-6-27.2-3.3-.4-6.6-.8-9.8-1.4v43.7c11.3 2.8 22.7 4.2 34.7 4.2 18 0 37-3 59.8-9.6 4.1-6.5 7.5-13.7 10.3-21.9-4.2 3.5-9 6-14.3 7.9z"/><linearGradient id="SVGID_25_22" x1="243.497" x2="246.429" y1="-330.929" y2="-389.559" gradientTransform="matrix(1 0 0 -1 0 -62)" gradientUnits="userSpaceOnUse"><stop offset="0" stop-color="#fd1013"/><stop offset=".478" stop-color="#ea23bd"/><stop offset=".684" stop-color="#3f3ccf"/><stop offset=".739" stop-color="#4159cd"/><stop offset=".856" stop-color="#45a4c6"/><stop offset=".86" stop-color="#45a7c6"/></linearGradient><path fill="url(#SVGID_25_22)" d="M241.8 322.4c1.2 0 2.3.1 3.5.1 4.9-15.9 5.1-33.2.7-49.3-1.6.1-3.2.1-4.8.1 5 15.7 5.2 33.1.6 49.1z"/><linearGradient id="SVGID_26_22" x1="218.232" x2="179.144" y1="-348.503" y2="-349.871" gradientTransform="matrix(1 0 0 -1 0 -62)" gradientUnits="userSpaceOnUse"><stop offset="0" stop-color="#131f49"/><stop offset=".615" stop-color="#22567d"/></linearGradient><path fill="url(#SVGID_26_22)" d="M189.3 257.1v5.3l-4.9-3.3c-6.8 3.2-13 7.6-18.4 12.3-1.4 1.2 2.6 15.8 4.4 15.6l8.4-.7c1 9.6 4 20.6 7.8 32 9.7 1.9 20.5 2.3 32 1.7 5.4-6 7.3-32 3.2-47.5-3.4-8.4-6.9-12-13.2-19.2-5.9.3-12.4 1.8-19.3 3.8z"/><path d="M167.1 272.2c5.5-4.9 11.1-8.4 16.9-10.7 2.2 4.4 2.9 8.4 3.2 14.6-6.1 2.9-11.7 6-16.7 9.5-1.2.8-4.4-12.5-3.4-13.4zm20.2 45.3c6.2-2.7 11.9-4.9 16.9-6 2.7-14.2 1.9-26.3-3.7-35-7.2 2.6-14.2 5.8-20.9 9.6 1.4 10.4 4.1 20.9 7.7 31.4zm3-59.6c-.1 6.1.3 11.8 1.3 17.3l9.1-2.9c-.6-5.4-.8-10.4-.4-14.8l7.7-3c-6.1.5-12 1.6-17.7 3.4z" class="st30_22"/><path d="M199.5 320.1l-1-4.4 5.9-1.1 1.3 5.8c-1.8.1-3.9-.1-6.2-.3z" class="st23_22"/><g><path d="M463.4 275c-1.8 19.1-5.3 38.9-8.9 57.7-1.5 7.8-3.1 15.7-6.6 22.9s-9.1 13.6-16.5 16.6c-2.4-26.2-.9-52.1 6.3-77.4 1.7-6 3.8-12.1 8.1-16.5s12.2-6.5 17.6-3.3z" class="st31_22"/><path d="M424.5 206.7c14.9 3.2 27.5 14.2 34.3 27.8s7.8 29.9 3.5 44.6c-6.2.7-12.1 2-18.3 1.2-6.2-.9-12.3-3.4-16.3-8.2-4-4.9-5.3-11.6-6-17.9-1.7-15.5-.2-32.2 2.8-47.5z" class="st31_22"/><linearGradient id="SVGID_27_22" x1="250.428" x2="439.693" y1="-305.188" y2="-304.428" gradientTransform="matrix(1 0 0 -1 0 -62)" gradientUnits="userSpaceOnUse"><stop offset=".172" stop-color="#fff7cc"/><stop offset=".279" stop-color="#fcd1f2"/><stop offset=".301" stop-color="#f8cff2"/><stop offset=".324" stop-color="#ebcaf3"/><stop offset=".348" stop-color="#d5c2f4"/><stop offset=".372" stop-color="#b7b6f6"/><stop offset=".383" stop-color="#a8b0f7"/><stop offset=".479" stop-color="#a9b4f7"/><stop offset=".584" stop-color="#acc1f5"/><stop offset=".692" stop-color="#b1d7f3"/><stop offset=".75" stop-color="#b4e6f1"/></linearGradient><path fill="url(#SVGID_27_22)" d="M447.5 276.5c2.6-10.9 5.2-22 4.7-33.2s-4.6-22.7-13.4-29.7c-8.5-6.9-19.9-8.6-30.8-9.4-15.4-1.2-30.9-1.2-46.3-.1-8.8.7-17.6 1.7-26 4.5-8.4 2.7-16.4 7.2-22.2 13.8-6.1 7-9.5 16-11.2 25.1-1.6 9.1-1.6 18.4-1.6 27.7 48.6 7.8 98.3 9.8 146.8 1.3z"/><path d="M428.3 244.8c.2-.9.7-2.1.9-3 .9-3.6 1.3-7.4 1.3-11.1 0-7.5-1.9-15.1-5.3-21.8-.4-.8-.8-1.6-1.3-2.3-5.2-1.3-10.6-1.9-15.9-2.4-15.4-1.2-30.9-1.2-46.3-.1-5.5.4-11 1-16.4 2-10.9 13.4-13.1 31.8-13 48.5 0 1.1.2 2.1.4 3.1-3 1.7-6.4 3.5-9.5 5.1 2.4 6 5.9 11.6 10.1 16.5 22.6 2.3 45.2 3.2 67.8 2.1 8-4.1 15.7-8.7 23-14 3.4-2.4 6.7-5 10.5-7 3.7-1.9 7.9-3.3 12-3 .6-.9.8-1.3 1-2.3-5.6-4.4-12.1-9-19.3-10.3z" class="st31_22"/><linearGradient id="SVGID_28_22" x1="286.481" x2="378.454" y1="-367.917" y2="-446.207" gradientTransform="matrix(1 0 0 -1 0 -62)" gradientUnits="userSpaceOnUse"><stop offset=".064" stop-color="#fff7cc"/><stop offset=".352" stop-color="#fcbdee"/><stop offset=".395" stop-color="#f8bdef"/><stop offset=".441" stop-color="#ebbcf0"/><stop offset=".489" stop-color="#d5baf3"/><stop offset=".538" stop-color="#b7b8f6"/><stop offset=".55" stop-color="#afb7f7"/><stop offset=".607" stop-color="#afbbf6"/><stop offset=".668" stop-color="#b1c8f5"/><stop offset=".732" stop-color="#b3def2"/><stop offset=".75" stop-color="#b4e6f1"/></linearGradient><path fill="url(#SVGID_28_22)" d="M450.1 265.3c-1.6-8.2-11.1-15.1-18.3-17.9-8.3-3.2-18.6-3.4-27.6-3.7-37.2-1.5-81.6 4.9-108.8 22.1-8.6 70 .8 142 27.6 207.3.5 1.2.3 2.8.6 4.1-9.7 6.6-16.9 16.8-20.2 28 23.2 2 48.6 1.7 75.6 0 .1-13.1-1.7-26.7-6-39-1.6-1.3-3.2-2.6-4.8-3.8-3.5-19.1-4.4-38.3-2.6-57.6 6.1 3.1 11.7 7.7 15.9 13.1 1.6.5 9.8 35.8 12.3 52.7-.8 11.5-1.1 23.7-1.4 35.1 20.1 3.3 40.9 3.1 61-.6-.1-14.7-2.1-28.9-6.1-43.1l-.7-4.6c-.7-11.3-1.4-22.7-2.2-34-1.1-16.1-3.1-32.3-3-48.4.1-16.8.8-33.6 2.2-50.4 1.4-16.9 3.9-33.5 6.4-50.2.4-2.7.8-5.4.5-8.1-.3-.4-.3-.7-.4-1z"/><path d="M307.3 502.6c3.8.3 7.7.5 11.7.7 4.3-8.8 10.7-14.8 17.9-21.9l1.8-1.8s0-.1.1-.1c.1-.3.1-.4.2-.5.5-5.7.3-11.6.1-17.3-.9-29-5.8-57.3-2.1-86.3 3.4-27.2 7.5-53 23.1-76.3 14-20.9 32-38.3 52.9-52-2.3-.1-4.5-.2-6.7-.3l-2.1-.1c-3.4-.1-6.8-.2-10.3-.2-38.3 0-73.9 7.9-95.7 21.1-8.3 69.6 1.2 140.2 27.5 204.4.5 1.2.6 2.4.6 3.4 0 .5.1.9.1 1.3l.4 1.9-1.6 1.1c-8 5.4-14.4 13.6-17.9 22.9zm88 .5c7 1 14.2 1.6 21.4 1.8-2.3-18.1-6-37.2-13.3-55.6-.8-2-3.7-8.4-5.9-12.3-1.1-2-2.4-3.8-3.6-5.7-.3-.5-.6-.8-.8-1.1l-1.2-1.5c-2-2.4-3.9-4.8-5.8-7.3 1 3.2 2.3 8.2 4.1 15.9 2.3 9.6 5.2 23.3 6.5 32.8v.6c-.8 10.6-1.1 21.7-1.4 32.4z" class="st23_22"/><linearGradient id="SVGID_29_22" x1="415.717" x2="420.277" y1="-302.669" y2="-404.522" gradientTransform="matrix(1 0 0 -1 0 -62)" gradientUnits="userSpaceOnUse"><stop offset="0" stop-color="#a2b5e2"/><stop offset="1" stop-color="#86cbdc"/></linearGradient><path fill="url(#SVGID_29_22)" d="M445.7 462.4l-.8-5c-.6-10.3-1.4-21.4-2.2-34-.3-4.8-.8-9.8-1.2-14.6-.9-11.1-1.9-22.6-1.9-33.9.1-16.8.8-33.8 2.2-50.5 1.3-15.8 3.7-31.7 5.9-47l.5-3.3c.4-2.6.8-5.2.5-7.7 0-.3-.1-.5-.1-.8-1.4-7.2-9.8-13.9-17.4-16.8-3.1-1.2-6.6-2-10.2-2.5-13.1 1.9-25.4 11.1-28.8 23.9 32.1 20.7 27.3 66.9 8.4 95-4.2 6.2-9.4 12.4-10.1 19.9-.9 9.2 5.3 17.5 11.2 24.7 5.3 6.4 9.2 13.7 12.3 21.4-5.2 1-10.3 3-15 5.7-.3 9 .6 18 2.8 26.7 6.9 1.4 14.1 1.9 21.1 1.5v.1c.4 3.3.7 6.7.9 10 0 .7 0 1.2.3 1.8.4.7 1.1 1.2 1.5 1.9.9 1.3 1.7 2.7 2.3 4.1.8 2.1 1.4 4.2 1.7 6.4.9 6-1.5 12.2 5.6 14.2 5.2 1.4 11.1 1 16.4-.1 0-14.2-2-27.6-5.9-41.1z"/><linearGradient id="SVGID_30_22" x1="343.672" x2="348.233" y1="-305.895" y2="-407.748" gradientTransform="matrix(1 0 0 -1 0 -62)" gradientUnits="userSpaceOnUse"><stop offset="0" stop-color="#a2b5e2"/><stop offset="1" stop-color="#91cddc"/></linearGradient><path fill="url(#SVGID_30_22)" d="M370.4 399.6c-6.9-5.2-14.9-6.7-23.1-9.5-6.5 26.1 4.8 53.2 5.6 80.2.1 4.8-.1 10-2.7 14.1s-8.3 7.2-12.6 5c1.7 1.9 1.1 5.1-.7 6.9-1.8 1.8-4.4 2.6-6.9 3.1s-5.1.8-7.4 2c17.5 3 36.2 1.7 53.7-1.3-.5-10.8-2.1-22.2-5.6-32.5-1.9-.6-3.5-1.4-5.4-2-2-17.4-2.2-35.4-1.6-52.9.4.1.9.2 1.3.3.1-2.7.3-5.5.6-8.2 6.1 3.1 11.7 7.7 15.9 13.1.2.1.5.6.8 1.6.7.4 1.3.9 1.9 1.4-1.4-8.6-7-16.1-13.8-21.3z"/><path d="M382.7 327.1h-1.8c.1-7 1.1-14.2 3.2-23.6l.1-.3.2-.2c4.4-4.2 9.9-7.7 15.5-9.9 1.6-14.7 7.8-28.9 17.4-40l1.4 1.2c-9.5 10.9-15.6 24.9-17 39.5l-.1.6-.5.2c-5.5 2-10.9 5.4-15.3 9.5-2.1 9.2-3 16.2-3.1 23z" class="st36_22"/><path d="M380.9 326.7c.1-6.8 1.1-13.9 3.2-23v-.1l.1-.1c4.4-4.2 9.8-7.6 15.4-9.8l.3-.1v-.3c1.6-14.4 7.6-28.4 16.9-39.3l.6.6c-9.4 11-15.4 24.9-16.8 39.4v.3l-.2.1c-5.6 2-11 5.5-15.4 9.6l-.1.1v.2c-2 8.9-3 15.9-3.1 22.5l-.9-.1z" class="st30_22"/><path d="M376.6 332.2c0-2.4 1.8-4.7 4.2-5.3 1-.2 2.1-.2 3.1.2 4.1 1.6 3.9 6.7.7 9.1-3.2 2.3-8 .1-8-4z" class="st36_22"/><path d="M377.5 331c0-1.2.9-2.4 2.1-2.7.5-.1 1.1-.1 1.6.1 2.1.8 2 3.5.4 4.6-1.6 1.2-4.1.1-4.1-2z" class="st30_22"/><path d="M304.7 292l.1.9.9-.1c3.6-.5 6.5-.7 9.7-.2 2.5 6.3 3.9 13.4 3.8 20h1.8c.1-7-1.4-14.5-4.1-21.2l-.2-.5-.5-.1c-3.4-.6-6.3-.5-9.9-.1-1.3-10.6-.4-21.6 2.7-31.9l-.6-.2c-.5.2-1 .4-1.5.7-2.9 10.7-3.7 21.9-2.2 32.7z" class="st36_22"/><path d="M319.3 312.2c0-6.5-1.4-13.5-3.8-19.7l-.1-.3h-.3c-1.3-.2-2.6-.3-4-.3-1.7 0-3.4.1-5.9.5l-.4.1-.1-.4c-1.5-10.6-.7-21.7 2.3-32.1.3-.1.6-.3.9-.4-3 10.1-3.9 21-2.6 31.5l.1.5.5-.1c2.1-.3 3.6-.4 5.1-.4 1.6 0 3.1.1 4.6.4h.2l.1.2c2.6 6.4 4.1 13.6 4.1 20.4l-.7.1z" class="st30_22"/><linearGradient id="SVGID_31_22" x1="315.188" x2="337.006" y1="-368.265" y2="-394.299" gradientTransform="matrix(1 0 0 -1 0 -62)" gradientUnits="userSpaceOnUse"><stop offset="0" stop-color="#131f49"/><stop offset=".615" stop-color="#22567d"/></linearGradient><path fill="url(#SVGID_31_22)" d="M325.1 303.9c3.4-.9 7.3-.7 10.2 1.1 3.6 2.2 5.2 6.3 6 10.1.8 3.8.9 7.9-.2 11.6-1.2 3.8-3.8 7.3-7.6 9.1-5.3 2.6-12.4 1.5-16.9-2.2-10.9-9-5.1-25.9 8.5-29.7z"/><linearGradient id="SVGID_32_22" x1="325.018" x2="316.768" y1="-388.017" y2="-373.166" gradientTransform="matrix(1 0 0 -1 0 -62)" gradientUnits="userSpaceOnUse"><stop offset="0" stop-color="#fd1013"/><stop offset=".478" stop-color="#ea23bd"/><stop offset=".684" stop-color="#3f3ccf"/><stop offset=".739" stop-color="#4159cd"/><stop offset=".856" stop-color="#45a4c6"/><stop offset=".86" stop-color="#45a7c6"/></linearGradient><path fill="url(#SVGID_32_22)" d="M329.3 317.6c-.4-2-1.2-4.1-3.1-5.2-1.5-.9-3.5-1-5.2-.6-7 1.9-9.9 10.6-4.4 15.2 2.3 1.9 5.9 2.5 8.7 1.1 2-1 3.3-2.8 3.9-4.7.6-1.7.5-3.8.1-5.8zm-5.4 3.7c-.2.6-.6 1.1-1.2 1.4-.8.4-1.9.2-2.6-.3-1.7-1.4-.8-4 1.3-4.5.5-.1 1.1-.1 1.6.2.6.3.8 1 .9 1.5.2.5.2 1.1 0 1.7z"/><path fill="#e12bb8" d="M319.6 318.1c.5-.5 1.1-.9 1.7-1.1.3-.1.5-.1.8-.1h.3c.1-.4.1-.8.2-1.2.2-1.2.2-2.3.2-3.5-.6 0-1.1.1-1.6.2-1.8.5-3.3 1.5-4.5 2.8.9 1 1.9 2.2 2.9 2.9zm5 4.4l-.3-.3c-.3.5-.7.9-1.2 1.1-.4.2-.8.3-1.3.3-.8 0-1.5-.3-2.1-.7l-.2-.2c-.2 1.6-.6 3.1-1.3 4.6 1.1.6 2.5 1 3.8 1 1.1 0 2.1-.2 3-.7 1.3-.7 2.4-1.8 3.1-3.3-1.2-.5-2.4-1.1-3.5-1.8z"/><path d="M338.6 310.6c-2.3-4.1-8.2-8.4-12.2-6-2.2 1.3-3.8 3.6-5 5.8 3.4-.4 6.9 1.3 8.9 4.1 2.5-1 5.7-2.8 8.3-3.9z" class="st30_22"/><path d="M306.5 369.7l2.4 1.2c1.5 8.4 2.1 17.3 2.5 25.8-3.7 1.1-7 2-10.6 3.1-.8-.3-1.7-.8-2.5-1.1 2.6-9.4 5.5-19.6 8.2-29z" class="st40_22"/><path d="M309.5 395.6l-11.1 3.3c-4-8-6.6-16.7-7.6-25.5 4.1-4.1 10.4-5.2 15.9-3.5.8 8 1.9 17.6 2.8 25.7z" class="st23_22"/><path d="M395.7 392.4l-3.1-.5 1-27.3 4.9-1.1c-.4 10-1.3 19.7-2.8 28.9z" class="st40_22"/><path d="M411.5 392.9c-5.4.2-10.5.4-15.8-.5 1.2-9.4 2.1-19.2 2.8-28.8 6.4-1.2 13.1-1.1 19.3 1.2-.8 10-3 19.1-6.3 28.1z" class="st23_22"/><linearGradient id="SVGID_33_22" x1="307.944" x2="346.625" y1="-509.57" y2="-509.57" gradientTransform="matrix(1 0 0 -1 0 -62)" gradientUnits="userSpaceOnUse"><stop offset="0" stop-color="#a2b5e2"/><stop offset="1" stop-color="#91cddc"/></linearGradient><path fill="url(#SVGID_33_22)" d="M344.5 434.6c-11.3-3.7-24.6-6.1-36.6-5 3.4 12 7.3 23.8 11.8 35.4 8.6 1.5 17.5.9 25.9-1.7 1.7-9.5 1.1-19.4-1.1-28.7z"/><linearGradient id="SVGID_34_22" x1="303.173" x2="343.281" y1="-507.614" y2="-507.614" gradientTransform="matrix(1 0 0 -1 0 -62)" gradientUnits="userSpaceOnUse"><stop offset=".385" stop-color="#22567d"/><stop offset="1" stop-color="#131f49"/></linearGradient><path fill="url(#SVGID_34_22)" d="M341.2 432.6c2.2 9.3 2.8 19.2 1.1 28.7-10 3.1-20.7 3.4-30.8.7-6-9.7-9-22.8-8.2-34.2 12.3-1.4 26.2.9 37.9 4.8z"/><linearGradient id="SVGID_35_22" x1="397.447" x2="442.57" y1="-507.565" y2="-507.565" gradientTransform="matrix(1 0 0 -1 0 -62)" gradientUnits="userSpaceOnUse"><stop offset=".385" stop-color="#22567d"/><stop offset="1" stop-color="#131f49"/></linearGradient><path fill="url(#SVGID_35_22)" d="M442 459.1c-13.4 4.3-28 4.9-41.8 2.2-2.2-8.7-3.1-17.7-2.8-26.7 6.6-3.8 14-6.3 21.6-6.4 7.6 0 15.2 1.9 21.9 5.7 1.8 8.2 2.1 16.9 1.1 25.2z"/><linearGradient id="SVGID_36_22" x1="338.293" x2="381.619" y1="-289.836" y2="-298.197" gradientTransform="matrix(1 0 0 -1 0 -62)" gradientUnits="userSpaceOnUse"><stop offset=".064" stop-color="#fff7cc"/><stop offset=".403" stop-color="#fccaeb"/><stop offset=".441" stop-color="#f8c9ec"/><stop offset=".483" stop-color="#ebc5ed"/><stop offset=".526" stop-color="#d5bef1"/><stop offset=".569" stop-color="#b7b5f5"/><stop offset=".588" stop-color="#a8b0f7"/><stop offset=".63" stop-color="#a9b4f7"/><stop offset=".676" stop-color="#acc1f5"/><stop offset=".723" stop-color="#b1d7f3"/><stop offset=".748" stop-color="#b4e6f1"/></linearGradient><path fill="url(#SVGID_36_22)" d="M436.3 246.6c-.2 1-.4 1.4-1 2.3-4.2-.3-8.3 1-12 3-3.7 1.9-7.1 4.5-10.5 7-19.4 14-41.7 23.7-64.9 29.4-16.3-5.3-29.6-18.2-36-34.1 3-1.7 6.4-3.5 9.5-5.1-.2-1-.4-2.1-.4-3.1-.1-16.8 2.1-35.2 13-48.5 9.5-11.7 24-19.1 39-20 8.5-.6 17.3 1.2 24.9 5.4 7 3.9 12.4 10.3 16 17.4 3.4 6.7 5.3 14.2 5.3 21.8 0 3.7-.4 7.5-1.3 11.1-.2.9-.6 2.1-.9 3 7.1 1 13.6 5.7 19.3 10.4z"/><path d="M339.9 254.8v-3.3c-6.8-4.2-12.2-10.7-15.6-18.2-.3 3.9-.5 8.1-.5 12.6 0 .8.2 1.6.3 2.6l.4 2.1-1.9 1c-1.5.8-3.1 1.7-4.8 2.6-.8.4-1.6.9-2.4 1.3 5.5 11.9 15 21.7 26.5 27.3-1.5-5.7-2.4-11.5-2.4-17.8.2-3.4.4-6.8.4-10.2z" class="st23_22"/><defs><use id="SVGID_37_22" xlink:href="#SVGID_13_22"/></defs><clipPath id="SVGID_38_22"><use overflow="visible" xlink:href="#SVGID_37_22"/></clipPath><defs><use id="SVGID_39_22" xlink:href="#SVGID_13_22"/></defs><defs><use id="SVGID_40_22" xlink:href="#SVGID_16_22"/></defs><clipPath id="SVGID_41_22"><use overflow="visible" xlink:href="#SVGID_39_22"/></clipPath><clipPath id="SVGID_42_22" clip-path="url(#SVGID_41_22)"><use overflow="visible" xlink:href="#SVGID_40_22"/></clipPath><linearGradient id="SVGID_43_22" x1="346.027" x2="448.788" y1="-260.132" y2="-303.782" gradientTransform="matrix(1 0 0 -1 0 -62)" gradientUnits="userSpaceOnUse"><stop offset="0" stop-color="#fff"/><stop offset="1"/></linearGradient><path fill="url(#SVGID_43_22)" d="M366 196.3c1 2.2 1.8 4.2 2.2 6.3.1.4.2.8.2 1.2 0 .1 0 .3.1.4.1.5.1 1 .2 1.5v.3c0 .4.1.8.1 1.2 0 .1.2 2.9.2 3.9.2.8.6 1.9.6 2.1.1.2.1.3.1.4.2.2.4.5.6.9.6.9 1.1 1.8 1.7 2.7-.4-.7 1.4 1.8 2.4 3.3 3-5.3 6.4-10.2 10.5-14.2-1.4-.7-2.7-1.5-4-2.2-4.9-2.5-10-5-14.9-7.8z" clip-path="url(#SVGID_42_22)"/><linearGradient id="SVGID_44_22" x1="346.027" x2="448.788" y1="-260.132" y2="-303.782" gradientTransform="matrix(1 0 0 -1 0 -62)" gradientUnits="userSpaceOnUse"><stop offset="0" stop-color="#fff7cc"/><stop offset="1" stop-color="#fff7cc"/></linearGradient><path fill="url(#SVGID_44_22)" d="M366 196.3c1 2.2 1.8 4.2 2.2 6.3.1.4.2.8.2 1.2 0 .1 0 .3.1.4.1.5.1 1 .2 1.5v.3c0 .4.1.8.1 1.2 0 .1.2 2.9.2 3.9.2.8.6 1.9.6 2.1.1.2.1.3.1.4.2.2.4.5.6.9.6.9 1.1 1.8 1.7 2.7-.4-.7 1.4 1.8 2.4 3.3 3-5.3 6.4-10.2 10.5-14.2-1.4-.7-2.7-1.5-4-2.2-4.9-2.5-10-5-14.9-7.8z"/><radialGradient id="SVGID_45_22" cx="415.864" cy="-342.572" r="125.092" gradientTransform="matrix(1 0 0 -1 0 -62)" gradientUnits="userSpaceOnUse"><stop offset="0" stop-color="#83f7c7"/><stop offset=".175" stop-color="#4cddc6"/><stop offset=".367" stop-color="#15c2c4"/><stop offset=".46" stop-color="#00b8c4"/><stop offset=".504" stop-color="#04abbb"/><stop offset=".65" stop-color="#1186a0"/><stop offset=".786" stop-color="#1a6c8d"/><stop offset=".907" stop-color="#205c81"/><stop offset="1" stop-color="#22567d"/></radialGradient><path fill="url(#SVGID_45_22)" d="M355.6 182.6c-17.9 7.1-28.6 22.9-28 40.9.3 8.2 4 16.5 11.2 21.2 8.5 5.5 20 5 30.1 2.6 10-2.4 19.8-6.5 27.3-13.2s12.4-16.3 11.8-25.9c-.7-10.7-8.5-20.6-18.9-25.2-10.4-4.9-22.9-4.6-33.5-.4z"/><path d="M329.8 218.7c-1 7.4 1.4 17.8 10.7 18.1 5.9.2 10.6-4.7 14.7-9 5.1-5.3 10.4-10.4 16.5-14.6 5.9-4.1 13.4-5.8 18.9-10.4 3.3-2.7 5.7-6.9 4.8-11-1-4.7-5.8-7.5-10.3-9-12.7-4.3-26.2-2.7-36.8 5.4-9.4 7.1-16.2 17.7-18.2 29.4-.2.3-.3.7-.3 1.1z" class="st23_22"/><path d="M336.6 238.4c2.9 2.6 6.5 4.1 10.3 4.8s7.7.6 11.6.2c7.8-.9 15.4-2.9 22.1-6.4 6.8-3.4 12.6-8.3 16.6-14.2 4.1-5.9 6.4-12.9 6.3-20.1 1.5 7.1-.2 14.7-4.1 21.2-1.9 3.3-4.5 6.3-7.3 8.9-3 2.6-6.3 4.9-9.9 6.7-7.2 3.7-15.3 5.7-23.5 6.1-4.1.2-8.3 0-12.3-1.1-3.8-1.1-7.5-3.1-9.8-6.1z" class="st23_22"/><linearGradient id="SVGID_46_22" x1="347.417" x2="355.508" y1="-322.217" y2="-322.217" gradientTransform="matrix(1 0 0 -1 0 -62)" gradientUnits="userSpaceOnUse"><stop offset=".43" stop-color="#7cc7c9"/><stop offset=".598" stop-color="#6cbcc2"/></linearGradient><path fill="url(#SVGID_46_22)" d="M347.4 260.8c-.2-1.3.3-2.6 1.2-3.5.7-.8 1.7-1.2 2.8-1.3 1.6-.1 3.2 1 3.8 2.5.6 1.5.2 3.4-.9 4.5-2.5 2.7-6.4 1.4-6.9-2.2z"/><path d="M305.9 430.3c-.4 10.5 2.2 21 7.5 30.1-.6-2.2-1.1-4.3-1-6.6 8.9-1.3 17.7-1.8 26.6-.4-8.9-2.3-18.7-3-27.9-2.4-.8-2.5-1.3-4.9-.9-7.6 9-1.6 18.2-1.7 27.1.3-8.8-1.9-17.7-2.9-26.8-3-.2-2.4-.3-5.1.3-7.5 9.4-.3 18.7.8 27.8 2.9-10.3-3.6-21.8-5.3-32.7-5.8zm96.3 21.7c0-2 0-4-.1-6 12.5-2.7 25.7-3.6 38.4-2.2-12.6-2.7-25.8-2.8-38.4-.4 0-1.7-.1-3.4-.2-5.1 11.9-4 25.3-5.2 37.6-2.5-6.3-2.6-13-4.6-19.8-4.9s-13.8 1.7-19.6 5.4c-.8 7.6 0 15.4 2.3 22.7-.1-1.6-.1-3.2-.2-4.9 12.3 2.1 25.5 1.4 37.3-2.7-12.3 1.6-24.8 1.7-37.3.6z" class="st30_22"/><path fill="#83ced7" d="M414.2 237.6c4.8-12 1.8-26.7-6.5-36.7 3.1 9.9 1.3 21.3-4.9 29.7-6.6 9-17.2 14.1-27.3 18.9 1.5 4.7 2 9.8 2.1 14.8 2.1 2.9 4.9 5.7 7.9 7.5 10-6.6 21.3-13.1 31.4-19.7 4.2-2.8 9-5.7 13.9-4.7-4.9-3.4-10.5-6.3-16.1-8.3l-.5-1.5z"/><linearGradient id="SVGID_47_22" x1="325.5" x2="412.8" y1="-335.8" y2="-335.8" gradientTransform="matrix(1 0 0 -1 0 -62)" gradientUnits="userSpaceOnUse"><stop offset=".43" stop-color="#7cc7c9"/><stop offset=".598" stop-color="#6cbcc2"/></linearGradient><path fill="url(#SVGID_47_22)" d="M412.8 258.8c-4.7 3.6-9.7 7-14.8 10.1-5.1 3.1-10.5 5.9-15.9 8.3-5.5 2.5-11 4.8-16.7 6.6-5.7 1.9-11.4 3.6-17.3 5h-.2l-.2-.1c-4.2-1.5-8.3-3.4-12-5.8s-7.2-5.3-10.2-8.5c6.5 6 14.3 10.6 22.6 13.2h-.3c5.8-1.5 11.5-3.2 17.1-5.1 5.6-2 11.2-4.1 16.6-6.5s10.8-5 16-7.9 10.3-6 15.3-9.3z"/><linearGradient id="SVGID_48_22" x1="325.5" x2="414.791" y1="-320" y2="-320" gradientTransform="matrix(1 0 0 -1 0 -62)" gradientUnits="userSpaceOnUse"><stop offset=".43" stop-color="#7cc7c9"/><stop offset=".598" stop-color="#6cbcc2"/></linearGradient><path fill="url(#SVGID_48_22)" d="M325.5 252.4c1.5 2.4 3.1 4.7 4.8 6.8 1.8 2.1 3.7 4.1 5.7 5.9 2.1 1.8 4.2 3.5 6.5 4.9 2.3 1.5 4.7 2.7 7.2 3.8l-.8-.1c6-1.5 11.9-3.4 17.7-5.6 5.8-2.2 11.4-4.8 17-7.7 5.5-2.9 10.9-6.1 16-9.5 2.6-1.7 5.1-3.5 7.7-5.4l3.7-2.8c1.2-1 2.5-1.9 3.7-2.9-1.1 1.1-2.2 2.3-3.3 3.3l-3.5 3.2-3.6 3.1-3.7 2.9c-5 3.8-10.3 7.3-15.8 10.4s-11.3 5.8-17.2 8c-5.9 2.2-12 4.1-18.2 5.4l-.4.1-.4-.2c-2.6-1.2-5-2.7-7.3-4.4-2.3-1.6-4.5-3.5-6.4-5.5-2-2-3.8-4.2-5.3-6.5-1.7-2.2-3-4.6-4.1-7.2z"/><linearGradient id="SVGID_49_22" x1="329.157" x2="351.892" y1="-538.769" y2="-567.92" gradientTransform="matrix(1 0 0 -1 0 -62)" gradientUnits="userSpaceOnUse"><stop offset="0" stop-color="#fd1013"/><stop offset=".478" stop-color="#ea23bd"/><stop offset=".684" stop-color="#3f3ccf"/><stop offset=".739" stop-color="#4159cd"/><stop offset=".856" stop-color="#45a4c6"/><stop offset=".86" stop-color="#45a7c6"/></linearGradient><path fill="url(#SVGID_49_22)" d="M352.4 504.1c-4.2-14.7-14.7-25.7-29.3-30.3-1.2 1.1-.9 2.9.5 3.3 10.4 5.8 16.5 14.1 21.2 25 2.5.5 5 1.6 7.6 2z"/><path d="M378.9 505.2c0-2.9-.1-5.9-.2-8.8-24.4 5-49.4 6.9-74.2 5.6-.4 1.1-.8 2.1-1.1 3.2 23.1 2 48.6 1.7 75.5 0z" class="st54_22"/><linearGradient id="SVGID_50_22" x1="398.5" x2="452.5" y1="-551.35" y2="-551.35" gradientTransform="matrix(1 0 0 -1 0 -62)" gradientUnits="userSpaceOnUse"><stop offset="0" stop-color="#fd1013"/><stop offset=".478" stop-color="#ea23bd"/><stop offset=".684" stop-color="#3f3ccf"/><stop offset=".739" stop-color="#4159cd"/><stop offset=".856" stop-color="#45a4c6"/><stop offset=".86" stop-color="#45a7c6"/></linearGradient><path fill="url(#SVGID_50_22)" d="M452.5 500c-6.2-11-16.2-19.8-28-24.2-11.2 5.6-20.4 14.9-26 26.1 1.5.3 2.9.7 4.3 1 4.1-10.5 11.7-18.8 21.7-25.3 11.3 4.7 19.9 13.7 24 24 1.5-.7 2.5-1.1 4-1.6z"/><linearGradient id="SVGID_51_22" x1="294.1" x2="441.6" y1="-414.294" y2="-414.294" gradientTransform="matrix(1 0 0 -1 0 -62)" gradientUnits="userSpaceOnUse"><stop offset="0" stop-color="#fd1013"/><stop offset=".478" stop-color="#ea23bd"/><stop offset=".684" stop-color="#3f3ccf"/><stop offset=".739" stop-color="#4159cd"/><stop offset=".856" stop-color="#45a4c6"/><stop offset=".86" stop-color="#45a7c6"/></linearGradient><path fill="url(#SVGID_51_22)" d="M432.9 356.3c2.9.4 5.7.8 8.6 1.1 0-1 .1-2 .1-3.1l-8.1-1.8c-3.1-.6-6.3-1.2-9.4-1.7-6.3-1.1-12.6-2-19-2.7-12.7-1.4-25.5-2.1-38.3-2.3-12.8-.1-25.6.4-38.4 1.8-3.2.5-6.4.8-9.5 1.4l-4.7.9c-1.6.3-3.2.6-4.7 1l-4.7 1.1c-1.6.4-3.1.9-4.7 1.3-2 .5-4 1.3-6 2 .1 1.2.2 2.3.3 3.5 11.5-2.2 23-3.5 34.7-4.5 12.5-1.1 25.1-1.8 37.7-1.8 6.3 0 12.6 0 18.9.2 3.2 0 6.3.2 9.4.3l4.7.2 4.7.3c3.1.2 6.3.4 9.4.7 3.1.3 6.3.5 9.4.9 3.3.5 6.4.8 9.6 1.2z"/><path d="M453.1 499.1c-19.6 6.2-41.2 6-60.6-.8-.1 2.5-.1 5-.2 7.4 20.1 3.3 40.9 3.1 61-.6-.1-2.1-.1-4.1-.2-6z" class="st54_22"/></g><g><linearGradient id="SVGID_52_22" x1="431.794" x2="488.801" y1="-348.28" y2="-393.886" gradientTransform="matrix(1 0 0 -1 0 -62)" gradientUnits="userSpaceOnUse"><stop offset=".064" stop-color="#fff7cc"/><stop offset=".352" stop-color="#fcbdee"/><stop offset=".393" stop-color="#f8bcee"/><stop offset=".437" stop-color="#ebbaf0"/><stop offset=".483" stop-color="#d5b7f2"/><stop offset=".53" stop-color="#b7b2f5"/><stop offset=".55" stop-color="#a8b0f7"/><stop offset=".603" stop-color="#a9b4f7"/><stop offset=".659" stop-color="#acc1f5"/><stop offset=".719" stop-color="#b1d7f3"/><stop offset=".75" stop-color="#b4e6f1"/></linearGradient><path fill="url(#SVGID_52_22)" d="M435.3 249c34.6 13.6 60.3 37.5 78.6 70.1-2.8 26-13.7 44.4-30.1 57.6l-42-39.7c3.8-4.1 7.9-7.5 12.2-10.1-11-5.2-21.6-15.1-31.3-26.3-5-18.9-2.5-36.2 12.6-51.6z"/><linearGradient id="SVGID_53_22" x1="448.244" x2="483.969" y1="-324.941" y2="-367.507" gradientTransform="matrix(1 0 0 -1 0 -62)" gradientUnits="userSpaceOnUse"><stop offset="0" stop-color="#a2b5e2"/><stop offset=".234" stop-color="#9ebbe1"/><stop offset="1" stop-color="#91cddc"/></linearGradient><path fill="url(#SVGID_53_22)" d="M459.5 263.1c-2.6 1.9-5.2 4.1-7.5 6.7-7.5-5.6-14.7-10.3-20.2-13.2 1.1-2.2 2.5-3.9 4-5.5 8.3 3.3 16.2 7.3 23.7 12z"/><linearGradient id="SVGID_54_22" x1="435.601" x2="471.326" y1="-335.553" y2="-378.118" gradientTransform="matrix(1 0 0 -1 0 -62)" gradientUnits="userSpaceOnUse"><stop offset="0" stop-color="#a2b5e2"/><stop offset="1" stop-color="#91cddc"/></linearGradient><path fill="url(#SVGID_54_22)" d="M512.1 319.4c-2.6 23.2-11.9 41.2-28.2 54.9l-26.7-25.2c28.5-22.3 29-41.7 28.1-43.5-.5-1.3-1.1-2.6-1.9-4 4.1-2.8 7.5-5.6 10.4-8.5 6.8 7.9 12.8 16.7 18.3 26.3z"/><linearGradient id="SVGID_55_22" x1="421.1" x2="483.7" y1="-429.15" y2="-429.15" gradientTransform="matrix(1 0 0 -1 0 -62)" gradientUnits="userSpaceOnUse"><stop offset=".385" stop-color="#22567d"/><stop offset="1" stop-color="#131f49"/></linearGradient><path fill="url(#SVGID_55_22)" d="M421.1 356.6c6.4-7.8 13.3-14.4 20.7-19.6 19.3 0 39.7 18.3 41.9 39.6-9.7 8.1-19.9 15.1-30.7 20.7-9-8.2-15.5-14.7-21.2-23.1 2.2-3 4.9-5.8 7.9-8.5-3.7 1.2-7.3 2.9-10.9 5.1-3.9-4.8-6.4-9.6-7.7-14.2z"/><path d="M446.4 357.9c-6.1 2.3-12 5.8-17 10-2.9-3.3-5.2-7.1-6.6-11.3 5.1-5.4 10.8-10.4 17.2-14.2 4 4.1 6.1 9.8 6.4 15.5zm17.8 23.1c-6.3-5.6-12.6-12.1-17.5-18.9-4.4 3.8-8.5 8.1-11.8 13 4.6 6.8 10.2 13 16.4 18.4 5.3-2.4 9.6-7.7 12.9-12.5z" class="st30_22"/><path fill="#5e5a6c" d="M493.8 293.1c-2.8 2.9-6.3 5.7-10.4 8.5-5.6-10.4-18.9-22.4-31.5-31.8 2.4-2.6 4.9-4.8 7.5-6.7 12.9 8 24.4 18 34.4 30z"/><linearGradient id="SVGID_56_22" x1="443.654" x2="494.927" y1="-330.802" y2="-369.711" gradientTransform="matrix(1 0 0 -1 0 -62)" gradientUnits="userSpaceOnUse"><stop offset=".385" stop-color="#22567d"/><stop offset="1" stop-color="#131f49"/></linearGradient><path fill="url(#SVGID_56_22)" d="M483.4 301.6c-.6.4-1.2.8-1.9 1.2-10.6-10.9-21.6-20.7-33-29.1 1.1-1.4 2.2-2.6 3.4-3.9 12.7 9.4 25.9 21.4 31.5 31.8z"/><linearGradient id="SVGID_57_22" x1="453.62" x2="506.11" y1="-321.178" y2="-361.012" gradientTransform="matrix(1 0 0 -1 0 -62)" gradientUnits="userSpaceOnUse"><stop offset=".385" stop-color="#22567d"/><stop offset="1" stop-color="#131f49"/></linearGradient><path fill="url(#SVGID_57_22)" d="M495.1 291.8c-.4.4-.8.9-1.3 1.3-10.1-11.9-21.5-21.9-34.4-30 .5-.4 1-.7 1.6-1.1 12.9 8.2 24.2 18.1 34.1 29.8z"/><linearGradient id="SVGID_58_22" x1="450.288" x2="512.707" y1="-387.531" y2="-387.531" gradientTransform="matrix(1 0 0 -1 0 -62)" gradientUnits="userSpaceOnUse"><stop offset="0" stop-color="#fd1013"/><stop offset=".478" stop-color="#ea23bd"/><stop offset=".684" stop-color="#3f3ccf"/><stop offset=".739" stop-color="#4159cd"/><stop offset=".856" stop-color="#45a4c6"/><stop offset=".86" stop-color="#45a7c6"/></linearGradient><path fill="url(#SVGID_58_22)" d="M499.9 320.6c-5.7-1.9-11.6-2.8-17.6-3-5.9-.2-11.9.4-17.6 1.8-5 1.2-9.9 3.1-14.5 5.6 1.2.7 2.5 1.4 3.8 2-.5.3-1.1.6-1.6 1 9.1-4.5 19.6-6.2 29.7-5.5 5.5.4 10.9 1.5 16 3.4 4.8 1.8 9.4 4.4 13.2 7.6.5-2.2 1-4.4 1.4-6.7-4-2.7-8.3-4.7-12.8-6.2z"/></g></g></svg>