<svg xmlns="http://www.w3.org/2000/svg" xmlns:xlink="http://www.w3.org/1999/xlink" id="Layer_1" x="0" y="0" version="1.1" viewBox="110 150 468 279" xml:space="preserve"><defs><path id="SVGID_11_31" d="M1 1h1L1 2z"/></defs><style>.st7_31{fill:#73d2d9}.st8_31{fill:#fff7cc}.st11_31{opacity:.65;fill:#fff;enable-background:new}.st12_31{fill:#22567d}.st26_31{fill:#86d8dd}.st27_31{fill:#146b87}.st28_31{opacity:.75;fill:#fff7cc;enable-background:new}.st29_31{fill:#00ebaa}.st30_31,.st32_31{opacity:.85;fill:#fff7cc;enable-background:new}.st32_31{opacity:.6}.st36_31{fill:#829396}</style><path fill="#fff9e7" d="M328.3 352.8c-.1-1.8-.4-5.4-.4-5.4s-13.8-21.8-28.4-31.4c-16.2 2.9-31 10.3-44.7 20.8l.8 4.8 72.7 11.2z"/><path d="M255.5 341.6c14.6 5 28.5 12.2 40.8 21.2 10.9-1.6 22.1-5.4 31.7-10.1-7.7-11.9-18.8-23.7-31.2-31.6-15.9 2.2-29.3 10.8-41.3 20.5z" class="st7_31"/><path d="M136.9 194c20.2 6.5 40.1 22 56.5 36 1.9-.7 3.9-1.6 5.8-2.3-13.5-16.9-32.6-28.9-52.4-37.5-3.2.5-6.7 1.6-9.9 3.8z" class="st8_31"/><linearGradient id="SVGID_5_31" x1="-675.79" x2="-646.22" y1="-551.54" y2="-499.21" gradientTransform="rotate(156.82 -331.46 -67.71)" gradientUnits="userSpaceOnUse"><stop offset=".06" stop-color="#fff7cc"/><stop offset=".35" stop-color="#fcbdee"/><stop offset=".39" stop-color="#f8bcee"/><stop offset=".44" stop-color="#ebbaf0"/><stop offset=".48" stop-color="#d5b7f2"/><stop offset=".53" stop-color="#b7b2f5"/><stop offset=".55" stop-color="#a8b0f7"/><stop offset=".6" stop-color="#a9b4f7"/><stop offset=".66" stop-color="#acc1f5"/><stop offset=".72" stop-color="#b1d7f3"/><stop offset=".75" stop-color="#b4e6f1"/></linearGradient><path fill="url(#SVGID_5_31)" d="M136.9 194c-6.8 5.6-12.9 11.5-18 18 15.4 20.1 32.7 37.9 52.5 52.3 8.1-10.1 15.4-21.6 22-34.3-19.8-17-38.9-30.4-56.5-36z"/><linearGradient id="SVGID_6_31" x1="-667.6" x2="-656" y1="-545.16" y2="-517.52" gradientTransform="rotate(156.82 -331.46 -67.71)" gradientUnits="userSpaceOnUse"><stop offset="0" stop-color="#b0aae2"/><stop offset="1" stop-color="#a5e3ec"/></linearGradient><path fill="url(#SVGID_6_31)" d="M152.1 233.9c3.2 8 7.6 16.5 13.3 23.6-15.7-12.4-30.3-27.4-44.3-45.5 4.5-5.5 9.8-10.8 16.2-16.1 2.6.9 5.2 1.9 7.9 3.1-1.2 11.6 2.8 24.7 6.9 34.9z"/><path d="M156.4 241.2l-.4-.2c-8.3-6-15.6-13.8-22.2-23.7l-.3-.4.2-.4c.2-.5.4-1 .7-1.7.2-.4.4-.9.5-1.3-2.8-3.5-6.1-6.5-9.6-8.8l1.2-1.2c3.7 2.5 6.8 5.4 9.7 9.1l.2.1s-1.3 3-1.4 3.4c6.4 9.4 13.8 17.4 21.7 23.2 1.7-.7 3.3-1.5 4.9-2.3 1.8-.8 3.6-1.7 5.4-2.5l.5-.2.4.3c5.3 4.3 10.2 9 14.7 14.2-.3.5-.6 1-1 1.5-4.4-5-9.2-9.7-14.4-14-1.7.7-3.3 1.5-4.9 2.3-1.8.8-3.6 1.7-5.4 2.5l-.5.1z" class="st11_31"/><path d="M156.7 240l-.2-.1c-8.2-6-15.5-13.7-22.1-23.6l-.1-.2.1-.2c.2-.5.5-1.1.7-1.7l.6-1.5c-2.8-3.5-6-6.5-9.5-8.8l.6-.6c3.6 2.4 6.9 5.5 9.8 9.1l.2.2-.1.2c-.2.5-.5 1.1-.7 1.7l-.6 1.5c6.5 9.6 13.6 17.2 21.6 23 1.7-.8 3.5-1.6 5.2-2.4 1.7-.8 3.6-1.7 5.4-2.5l.2-.1.2.2c5.4 4.3 10.3 9.2 14.9 14.4-.2.2-.3.5-.5.7-4.5-5.2-9.4-10-14.8-14.3-1.7.8-3.5 1.6-5.1 2.4-1.8.8-3.6 1.7-5.4 2.5l-.4.1z" class="st12_31"/><path d="M199.2 227.7l-.2.3c-5.2 13.3-12.7 24.7-22.5 34.1l-5 2.2 22-34.3 5.7-2.3z" class="st7_31"/><linearGradient id="SVGID_7_31" x1="-629.05" x2="-728.06" y1="-659.43" y2="-609.24" gradientTransform="rotate(156.82 -331.46 -67.71)" gradientUnits="userSpaceOnUse"><stop offset=".39" stop-color="#22567d"/><stop offset="1" stop-color="#131f49"/></linearGradient><path fill="url(#SVGID_7_31)" d="M198.3 254.1l-11.2-7.5-3 5.6 10.3 9.7c-2.9 1.4-6.3 3.6-9.1 5 .5 3.1 1.1 6 1.6 9.1-5.9 2.4-11.7 4.2-17.5 6.6 3.3 21.4 13.3 41.6 29.2 56.3 3.5-1.4 11-4.3 11-4.3l-2.1 21.8 5.6-1.5 4-20.5s4 2.7 5.9 4.1c4.9-2.2 9.9-4.2 14.8-6.3 4.1 4.4 9.5 7.6 15 10.1 9.2-3.8 18.8-7.6 28-11.4-8.7-12.1-18.1-24.8-26.8-36.9-6.3-8.8-12.8-17.7-21.2-24.5-9.7-7.6-34.5-15.4-34.5-15.4z"/><linearGradient id="SVGID_8_31" x1="-847.85" x2="-846.48" y1="-570.2" y2="-637.08" gradientTransform="rotate(156.82 -331.46 -67.71)" gradientUnits="userSpaceOnUse"><stop offset=".06" stop-color="#fff7cc"/><stop offset=".35" stop-color="#fcbdee"/><stop offset=".39" stop-color="#f8bcee"/><stop offset=".44" stop-color="#ebbaf0"/><stop offset=".48" stop-color="#d5b7f2"/><stop offset=".53" stop-color="#b7b2f5"/><stop offset=".55" stop-color="#a8b0f7"/><stop offset=".6" stop-color="#a6b4f8"/><stop offset=".66" stop-color="#a0c1f9"/><stop offset=".71" stop-color="#95d7fc"/><stop offset=".75" stop-color="#8ceaff"/></linearGradient><path fill="url(#SVGID_8_31)" d="M205.5 284.2c-4.6-4.7-8.9-13.4-9.4-19.9s3.4-17.1 9-20.5c32.5-19.6 61.7-35.8 97.1-50 35.4-14.1 74-21.9 112-24.1 39.7-2.3 78.7 2.5 107.9 34.3-15.6 58.4-156.3 110.2-192.5 123.8-12 4.5-25.4 7.5-38.2 6.7-14.8-.9-28.4-8.9-38.9-19.4s-18.3-23.3-26-35.9c-7.1 1.4-13.9 3.5-21 5z"/><linearGradient id="SVGID_9_31" x1="-872.31" x2="-872.31" y1="-699.46" y2="-677.15" gradientTransform="rotate(156.82 -331.46 -67.71)" gradientUnits="userSpaceOnUse"><stop offset=".06" stop-color="#fff7cc"/><stop offset=".35" stop-color="#fcbdee"/><stop offset=".39" stop-color="#f8bcee"/><stop offset=".44" stop-color="#ebbaf0"/><stop offset=".48" stop-color="#d5b7f2"/><stop offset=".53" stop-color="#b7b2f5"/><stop offset=".55" stop-color="#a8b0f7"/><stop offset=".6" stop-color="#a9b4f7"/><stop offset=".66" stop-color="#acc1f5"/><stop offset=".72" stop-color="#b1d7f3"/><stop offset=".75" stop-color="#b4e6f1"/></linearGradient><path fill="url(#SVGID_9_31)" d="M513 195.2c3.1 2.7 6.2 5.6 9.1 8.8-15.6 58.4-156.3 110.2-192.5 123.8-12 4.5-25.4 7.5-38.2 6.7-4.2-.2-8.3-1.1-12.2-2.4 84.6-34 165.6-77.6 233.8-136.9z"/><linearGradient id="SVGID_10_31" x1="-949.45" x2="-682.46" y1="-620.63" y2="-620.63" gradientTransform="rotate(156.82 -331.46 -67.71)" gradientUnits="userSpaceOnUse"><stop offset="0" stop-color="#fd1013"/><stop offset=".48" stop-color="#ea23bd"/><stop offset=".68" stop-color="#3f3ccf"/><stop offset=".74" stop-color="#4159cd"/><stop offset=".86" stop-color="#45a4c6"/><stop offset=".86" stop-color="#45a7c6"/></linearGradient><path fill="url(#SVGID_10_31)" d="M230.7 278.7c58.8-20.4 118.2-42.6 178.2-66.3l16.4 7.2 34.2-10.1-40.7 17.4-18.7-5.1c-51.3 23.6-105.6 46.4-162.2 68.5l-7.2-11.6z"/><path fill="#7ae3f4" d="M278.6 303.4c26.6-7.2 53-15.3 79-24.4 34.1-11.9 68-24.9 100.7-40.3-.4 3.5.6 7.2 3.7 10.5.5.5.9 1 1.4 1.5-44.4 31.4-169.3 76.4-179.5 79.2-1.2.3-2.4.5-3.7.8-9.2-2.9-18.4-8.6-26.5-16.7-1.1-1-2.1-2.1-3.1-3.2 9.3-2.3 18.6-4.8 28-7.4z"/><defs><use xlink:href="#SVGID_11_31"/></defs><clipPath id="SVGID_12_31"><use overflow="visible" xlink:href="#SVGID_11_31"/></clipPath><defs><use id="SVGID_13_31" xlink:href="#SVGID_11_31"/></defs><defs><path id="SVGID_14_31" d="M-1-1h-1l1-1z"/></defs><clipPath id="SVGID_15_31"><use overflow="visible" xlink:href="#SVGID_13_31"/></clipPath><clipPath id="SVGID_16_31" clip-path="url(#SVGID_15_31)"><use overflow="visible" xlink:href="#SVGID_14_31"/></clipPath><linearGradient id="SVGID_17_31" x1="-969.66" x2="-692.96" y1="-588.26" y2="-577.3" gradientTransform="rotate(156.82 -331.46 -67.71)" gradientUnits="userSpaceOnUse"><stop offset="0" stop-color="#fff"/><stop offset="1"/></linearGradient><path fill="url(#SVGID_17_31)" d="M206 245.2c29.5-17.8 55.3-32.2 85.4-45.1 3.8-1.6 7.6-3.2 11.5-4.7 33.6-13.4 72.1-21.7 111.5-24 18.8-1.1 40.3-.9 61.1 5.4-2.3 1.6-12.4 6.1-14.9 7-10.9-.3-56.3 3.9-68.1 5.7-23.9 3.7-47.5 10.8-70.3 18.6-23.9 8.1-47.6 17.2-70.1 28.6-11.6 5.9-48 23.6-54.2 27.3-.5-6.2 3.2-15.9 8.1-18.8z" clip-path="url(#SVGID_16_31)"/><path d="M206 245.2c29.5-17.8 55.3-32.2 85.4-45.1 3.8-1.6 7.6-3.2 11.5-4.7 33.6-13.4 72.1-21.7 111.5-24 18.8-1.1 40.3-.9 61.1 5.4-2.3 1.6-12.4 6.1-14.9 7-10.9-.3-56.3 3.9-68.1 5.7-23.9 3.7-47.5 10.8-70.3 18.6-23.9 8.1-47.6 17.2-70.1 28.6-11.6 5.9-48 23.6-54.2 27.3-.5-6.2 3.2-15.9 8.1-18.8z" class="st8_31"/><linearGradient id="SVGID_18_31" x1="-967.66" x2="-980.59" y1="-694.67" y2="-613.4" gradientTransform="rotate(156.82 -331.46 -67.71)" gradientUnits="userSpaceOnUse"><stop offset="0" stop-color="#131f49"/><stop offset=".61" stop-color="#22567d"/></linearGradient><path fill="url(#SVGID_18_31)" d="M459.5 237.3c6-3.5 12-6.5 17.9-10.1-6.3-7.7-10.5-17-12.2-26.7-.8-4.7.6-9.2 3.3-13.2 4.1-3.6 8.2-6.6 12.7-9.6.1 0 .2-.1.3-.1.2-.1.3-.2.4-.3a100.5 100.5 0 0140.2 26.8c-5.2 19.6-24.6 38.5-49.3 55.4-7.1-5.4-12-13.5-13.3-22.2z"/><linearGradient id="SVGID_19_31" x1="-978.95" x2="-934.1" y1="-613.96" y2="-631.25" gradientTransform="rotate(156.82 -331.46 -67.71)" gradientUnits="userSpaceOnUse"><stop offset="0" stop-color="#22567d"/><stop offset=".09" stop-color="#205c81"/><stop offset=".21" stop-color="#1a6c8d"/><stop offset=".35" stop-color="#1186a0"/><stop offset=".49" stop-color="#04abbb"/><stop offset=".54" stop-color="#00b8c4"/><stop offset=".63" stop-color="#15c2c4"/><stop offset=".82" stop-color="#4cddc6"/><stop offset="1" stop-color="#83f7c7"/></linearGradient><path fill="url(#SVGID_19_31)" d="M494 182.4c1.5 3.4 2.1 5.2 2.4 8.9-12.4 2.8-25.5 7.6-37.7 11-1.3-1.1-2.3-1.9-3.6-3-5.8 1.6-12.1 3.4-17.9 5.1-2.5-2.4-4.2-4.3-6.7-6.6l50.6-20.9c4.4 1.5 8.7 3.3 12.9 5.5z"/><path fill="#00b8c4" d="M435.8 197.3l5.6-2.3c2.2 1.6 4.5 3 6.8 4.5-.9.2-1.7.5-2.6.7-1.9.5-3.8 1.1-5.6 1.6-1.3-1.5-2.7-3-4.2-4.5z" opacity=".3"/><path d="M460.4 192.7l-.1-.1c2.4 1.7 4.8 3.5 7 5.4-.4.1-.8.2-1.1.4-.6-.7-1.2-1.3-1.9-2-1.2-1.2-2.5-2.5-3.9-3.7zm17.6 2l4.8-1.5c-4.5-3.2-9.1-6.4-13.6-9.8l-3.2 1.3c4.1 3.4 8.2 6.6 12 10zm-1.6-12.8c-.2-.1-.4-.1-.6-.1l-1.2-.6 6.4-2.6c4 1.5 7.9 3.1 11.6 5 1 2.4 1.5 3.9 1.9 6.4-1.3.3-2.6.7-3.9 1-4.6-3.2-9.3-6.1-14.2-9.1zM215.5 413.5a161.1 161.1 0 0020.5-61.4c-3.2-1.9-6.4-3.4-9.6-5.3-1.3 21.9-6.6 43.8-15.8 63.7l4.9 3z" class="st8_31"/><linearGradient id="SVGID_20_31" x1="-627.18" x2="-658.16" y1="-731.59" y2="-666.72" gradientTransform="rotate(156.82 -331.46 -67.71)" gradientUnits="userSpaceOnUse"><stop offset=".06" stop-color="#fff7cc"/><stop offset=".35" stop-color="#fcbdee"/><stop offset=".39" stop-color="#f8bcee"/><stop offset=".44" stop-color="#ebbaf0"/><stop offset=".48" stop-color="#d5b7f2"/><stop offset=".53" stop-color="#b7b2f5"/><stop offset=".55" stop-color="#a8b0f7"/><stop offset=".6" stop-color="#a9b4f7"/><stop offset=".66" stop-color="#acc1f5"/><stop offset=".72" stop-color="#b1d7f3"/><stop offset=".75" stop-color="#b4e6f1"/></linearGradient><path fill="url(#SVGID_20_31)" d="M226.4 346.9c-14.3 4.5-28.2 10.2-41.7 17-.1 16.8-1.5 34-4 51.7 10.2-.3 20.1-2.1 29.9-5 9-20.3 14.6-41.4 15.8-63.7z"/><linearGradient id="SVGID_21_31" x1="-632.99" x2="-644.82" y1="-719.61" y2="-681.39" gradientTransform="rotate(156.82 -331.46 -67.71)" gradientUnits="userSpaceOnUse"><stop offset="0" stop-color="#b0aae2"/><stop offset="1" stop-color="#a5e3ec"/></linearGradient><path fill="url(#SVGID_21_31)" d="M194.4 379.4c-2.3 6-3.9 12.5-5 18.9-.9 5.1-.7 10.1-.7 15.1-2 .2-4.1.4-6.1.5 2.3-17.1 3.6-33.5 3.7-48.9 5.1-2.6 10.4-5 15.6-7.3 4.6-2 9.3-3.8 13.9-5.5-9.1 7.5-17 15.7-21.4 27.2z"/><path d="M192.4 398c.6-.2 1.3-.3 2-.5.9-.2 1.8-.5 2.6-.7l.6-.2-.1.6c-.6 5.4-2.1 11-4.3 16.4-.3.1-.7.1-1 .2 2.2-5.3 3.7-10.7 4.4-16-.6.2-1.3.3-2 .5-.9.2-1.8.4-2.6.7l-.6.2.1-.6c.5-3.9 1.2-8 1.8-11.9s1.3-7.9 1.8-11.9v-.3l.3-.1 2.7-.6c.8-.2 1.6-.4 2.5-.5 1.6-5.8 2.3-11.7 2.2-17.7.3-.1.6-.2.9-.4a65 65 0 01-2.3 18.6l-.1.3-.3.1-2.7.6c-.8.2-1.6.3-2.4.5-.5 3.8-1.2 7.8-1.8 11.6-.6 3.6-1.2 7.4-1.7 11.1z" class="st11_31"/><path d="M197.4 398.6c-.6.2-1.3.3-2 .5-.9.2-1.8.4-2.6.7l-.6.2.1-.6c.5-3.9 1.2-8 1.8-11.9s1.3-7.9 1.8-11.9v-.3l.3-.1 2.7-.6c.8-.2 1.6-.4 2.5-.5 1.7-6.1 2.4-12.5 2.2-18.8.1 0 .2-.1.3-.1h.5c.2 6.6-.5 13.1-2.3 19.4l-.1.3-.3.1-2.7.6c-.8.2-1.6.3-2.4.5-.5 3.8-1.2 7.8-1.8 11.6-.6 3.7-1.2 7.5-1.7 11.2.6-.2 1.3-.3 2-.5.9-.2 1.8-.5 2.6-.7l.6-.2-.1.6c-.6 5.4-2.1 11-4.3 16.4-.3.1-.7.1-1 .2 2.3-5.4 3.8-10.9 4.5-16.1z" class="st12_31"/><path d="M225.9 237.3c1.4-3.3 3.4-6.4 5.9-9.2l2.6-1.5.5.7c-3.2 3-5.8 6.7-7.5 10.7-2.8 6.7-3.5 14.1-1.8 20.3 45.9-11.6 92-27.4 140.9-48.4 6.7-2.9 13.6-5.9 20.5-9-3.4-5.4-4.1-12.6-1.7-18.5 2-4.8 5.9-8.8 10.9-10.9l.6-.2c1.3-.1 2.6-.3 3.9-.4l.4.1.1.8-.4.1c-1.3.2-2.7.6-3.9 1.2-4.5 1.9-8.2 5.6-10 10-2.3 5.7-1.5 12.7 2.1 17.7l.6.8-.9.4c-7.2 3.2-14.4 6.4-21.4 9.4-42 18-81.5 32.1-121 43.1 1.7 6.3 5 12.9 9.3 18.9 7.1 9.8 16.6 18 24.9 25.1 27.3-4.9 54.8-13.2 79.5-23.8 5.4-2.3 10.8-4.8 16-7.4l.7-.3.4.7c9.7 15.9 28.6 22.6 50.6 18-1.7.9-3.3 1.7-5 2.5-20 2.6-37.3-4.3-46.6-19-5 2.4-10.1 4.8-15.4 7-25 10.7-52.7 19-80.3 23.9l-.4.1-.3-.3c-8.6-7.3-18.2-15.6-25.5-25.7-4.5-6.2-7.8-12.9-9.6-19.4-6.4 1.8-12.9 3.5-19.4 5.1l-.8.2-.2-.8c-2-6.6-1.4-14.7 1.7-22z" class="st11_31"/><path d="M227.5 237c-2.9 6.9-3.5 14.5-1.7 21 52.4-13.2 105.5-32.1 162.3-57.7-3.6-5.3-4.4-12.5-1.9-18.5 2-4.9 6.2-8.9 11.1-10.8 1.3-.1 2.6-.3 3.9-.4v.1c-6.2 1.1-11.8 5.6-14.2 11.4-2.4 5.9-1.6 13 2.1 18.1l.3.4-.5.2c-49.8 22.5-96.7 39.7-142.7 52.6 1.7 6.5 5 13.2 9.5 19.4 7.1 9.9 16.7 18.1 25.2 25.3 33.7-6.1 66.8-16.9 95.8-31.2l.3-.2.2.3c9.8 16.1 29.2 22.9 51.3 18.1-.9.4-1.8.9-2.6 1.3-21.1 3.6-39.5-3.2-49.1-18.7-29.1 14.3-62.2 25-95.9 31.1h-.2l-.2-.1c-8.5-7.3-18.2-15.6-25.4-25.6-4.5-6.3-7.8-13.1-9.6-19.7-6.6 1.8-13.2 3.6-19.8 5.2l-.4.1-.1-.4c-2-6.7-1.4-14.7 1.6-22 1.4-3.3 3.3-6.4 5.7-9 .9-.5 1.8-1 2.6-1.5-3.3 3.4-5.9 7.1-7.6 11.2z" class="st12_31"/><linearGradient id="SVGID_22_31" x1="-706.1" x2="-695.97" y1="-626.95" y2="-660.27" gradientTransform="rotate(156.82 -331.46 -67.71)" gradientUnits="userSpaceOnUse"><stop offset=".06" stop-color="#fff7cc"/><stop offset=".35" stop-color="#fcbdee"/><stop offset=".39" stop-color="#f8bcee"/><stop offset=".44" stop-color="#ebbaf0"/><stop offset=".48" stop-color="#d5b7f2"/><stop offset=".53" stop-color="#b7b2f5"/><stop offset=".55" stop-color="#a8b0f7"/><stop offset=".6" stop-color="#a9b4f7"/><stop offset=".66" stop-color="#acc1f5"/><stop offset=".72" stop-color="#b1d7f3"/><stop offset=".75" stop-color="#b4e6f1"/></linearGradient><path fill="url(#SVGID_22_31)" d="M231.4 328.2c-5.5-4.3-9.7-10.6-11.5-17.4 5.3-3.3 11.7-5.5 17.9-6.1 3.1 5 7.1 9.4 11.8 13a58.9 58.9 0 01-18.2 10.5z"/><path d="M437.2 204.3l-6.7-6.6 50.5-20.9.4.1-48.6 21.2 5.7 5.9zm17.9-5l3.6 3 37.7-11c-.3-3.2-1.1-6.2-2.4-8.9a21 21 0 011.3 8.5L459.4 201l-3.3-2-1 .3zM337.5 204.1c.5 1 2.3 1.1 4.2.3 1.9-.9 3-2.4 2.6-3.4-.5-1-2.3-1.1-4.2-.3-1.9.9-3.1 2.4-2.6 3.4z" class="st26_31"/><path d="M341.1 200.7c.5-.2.9-.4 1.4-.4.9 0 1.6.3 1.8.8.5 1-.7 2.5-2.6 3.4-.5.2-.9.4-1.4.4-.9 0-1.6-.3-1.8-.8-.5-1.1.7-2.6 2.6-3.4z" class="st27_31"/><path d="M342.1 201.7c.1.1.1.3.1.5-.2 1-1.5 1.6-2.3 1.8-.3.1-.6 0-.8-.2-.5-.7.4-1.8.9-2s1.2-.4 1.7-.2c.3 0 .3 0 .4.1z" class="st28_31"/><path d="M324.3 208.7c.5 1.1 2.6 1.3 4.7.3s3.4-2.7 2.9-3.8-2.6-1.3-4.7-.3-3.4 2.7-2.9 3.8z" class="st26_31"/><path d="M328.4 204.8c.5-.2 1-.4 1.5-.5 1 0 1.8.3 2.1.9.5 1.1-.8 2.8-2.9 3.8-.5.2-1 .4-1.5.5-1 0-1.8-.3-2.1-.9-.5-1.1.7-2.8 2.9-3.8z" class="st27_31"/><path d="M329.6 206c.1.1.1.3.1.5-.2 1.1-1.7 1.8-2.5 2-.3.1-.6.1-.8-.2-.6-.8.5-2.1 1-2.3s1.3-.4 2-.2c0 .1.1.1.2.2z" class="st28_31"/><path d="M253.4 235.7c.5 1.1 2.6 1.3 4.7.3s3.4-2.7 2.9-3.8-2.6-1.3-4.7-.3-3.4 2.6-2.9 3.8z" class="st26_31"/><path d="M257.5 231.8c.5-.2 1-.4 1.5-.5 1 0 1.8.3 2.1.9.5 1.1-.8 2.8-2.9 3.8-.5.2-1 .4-1.5.5-1 0-1.8-.3-2.1-.9-.6-1.2.7-2.9 2.9-3.8z" class="st27_31"/><path d="M258.7 233c.1.1.1.3.1.5-.2 1.1-1.7 1.8-2.5 2-.3.1-.6.1-.8-.2-.6-.8.5-2.1 1-2.3.6-.2 1.3-.4 2-.2l.2.2z" class="st28_31"/><path d="M311 213.4c.6 1.3 3 1.4 5.3.4 2.4-1.1 3.8-3 3.3-4.3-.6-1.3-3-1.4-5.3-.4-2.5 1.1-3.9 3-3.3 4.3z" class="st26_31"/><path d="M315.5 209c.6-.3 1.2-.4 1.7-.6 1.1 0 2 .3 2.3 1.1.6 1.3-.9 3.2-3.3 4.3-.6.3-1.2.4-1.7.6-1.1 0-2-.3-2.3-1.1-.5-1.3.9-3.2 3.3-4.3z" class="st27_31"/><path d="M317 210.3c.1.2.2.4.1.6-.2 1.3-1.9 2-2.8 2.2-.3.1-.7.1-1-.3-.7-.9.6-2.3 1.1-2.6.6-.3 1.5-.5 2.2-.2.1.1.2.2.4.3z" class="st28_31"/><path d="M295.8 219.3c.7 1.6 3.6 1.8 6.5.4 2.9-1.3 4.7-3.7 4-5.2-.7-1.6-3.6-1.8-6.5-.4-2.9 1.3-4.7 3.6-4 5.2z" class="st26_31"/><path d="M301.4 213.9c.7-.3 1.4-.5 2.1-.7 1.4 0 2.5.4 2.9 1.3.7 1.6-1.1 3.9-4 5.2-.7.3-1.4.5-2.1.7-1.4 0-2.5-.4-2.9-1.3-.7-1.6 1.1-3.9 4-5.2z" class="st27_31"/><path d="M303.2 215.5c.1.2.2.5.1.7-.3 1.5-2.3 2.5-3.5 2.7-.4.1-.9.1-1.2-.3-.8-1.1.7-2.8 1.4-3.2.8-.3 1.8-.6 2.7-.3.3.1.4.2.5.4z" class="st28_31"/><path d="M263.9 231.5c.7 1.6 3.6 1.8 6.5.4 2.9-1.3 4.7-3.7 4-5.2-.7-1.6-3.6-1.8-6.5-.4-2.9 1.3-4.7 3.6-4 5.2z" class="st26_31"/><path d="M269.5 226.1c.7-.3 1.4-.5 2.1-.7 1.4 0 2.5.4 2.9 1.3.7 1.6-1.1 3.9-4 5.2-.7.3-1.4.5-2.1.7-1.4 0-2.5-.4-2.9-1.3-.7-1.6 1.1-3.9 4-5.2z" class="st27_31"/><path d="M271.3 227.7c.1.2.2.5.1.7-.3 1.5-2.3 2.5-3.5 2.7-.4.1-.9.1-1.2-.3-.8-1.1.7-2.8 1.4-3.2.8-.3 1.8-.6 2.7-.3.2.1.4.2.5.4z" class="st28_31"/><g><path d="M278.2 226c.8 1.8 4.3 2.1 7.7.5 3.4-1.5 5.5-4.3 4.7-6.1s-4.3-2.1-7.7-.5c-3.4 1.5-5.5 4.2-4.7 6.1z" class="st26_31"/><path d="M284.7 219.6c.8-.4 1.7-.6 2.5-.8 1.6 0 2.9.5 3.3 1.5.8 1.8-1.3 4.6-4.7 6.1-.8.4-1.7.6-2.5.8-1.6 0-2.9-.5-3.3-1.5-.8-1.8 1.3-4.5 4.7-6.1z" class="st27_31"/><path d="M287 221.5c.2.2.2.6.2.8-.3 1.8-2.7 2.9-4.1 3.2-.5.1-1 .1-1.4-.4-1-1.3.8-3.3 1.6-3.7.9-.4 2.1-.7 3.2-.3.1.1.3.2.5.4z" class="st28_31"/></g><g><path d="M243 239.9c.5 1.1 2.6 1.3 4.7.3s3.4-2.6 2.9-3.8c-.5-1.1-2.6-1.3-4.7-.3s-3.4 2.7-2.9 3.8z" class="st26_31"/><path d="M247 236.1c.5-.2 1-.4 1.5-.5 1 0 1.8.3 2.1.9.5 1.1-.8 2.8-2.9 3.8-.5.2-1 .4-1.5.5-1 0-1.8-.3-2.1-.9-.5-1.2.8-2.9 2.9-3.8z" class="st27_31"/><path d="M248.2 237.3c.1.1.1.3.1.5-.2 1.1-1.6 1.8-2.5 2-.3.1-.6.1-.8-.2-.6-.8.5-2 1-2.3.5-.2 1.3-.4 1.9-.2.1 0 .2 0 .3.2z" class="st28_31"/></g><g><path d="M334.5 316.6l2.6 1.6-9.3 3.4-3.9-2.1z" class="st29_31"/><path d="M326 319.3l8.1-2.2 1.1.8-6.7 2.7z" class="st30_31"/><path fill="#8453b8" d="M334.5 316.6l-10.6 2.9-1.5-.3 11.8-3.5 4.9 3.1-2-.6z" opacity=".4"/><path d="M337.1 318.2l-9.3 3.4-3.9-2.1-1.5-.4 6.4 3.3 10.3-3.7-2-.5z" class="st32_31"/></g><g><linearGradient id="SVGID_23_31" x1="-642.61" x2="-635.34" y1="-600.38" y2="-632.23" gradientTransform="rotate(156.82 -331.46 -67.71)" gradientUnits="userSpaceOnUse"><stop offset=".06" stop-color="#fff7cc"/><stop offset=".35" stop-color="#fcbdee"/><stop offset=".39" stop-color="#f8bcee"/><stop offset=".44" stop-color="#ebbaf0"/><stop offset=".48" stop-color="#d5b7f2"/><stop offset=".53" stop-color="#b7b2f5"/><stop offset=".55" stop-color="#a8b0f7"/><stop offset=".6" stop-color="#a9b4f7"/><stop offset=".66" stop-color="#acc1f5"/><stop offset=".72" stop-color="#b1d7f3"/><stop offset=".75" stop-color="#b4e6f1"/></linearGradient><path fill="url(#SVGID_23_31)" d="M164.4 354c19.6-6.7 35.2-22.7 43.1-41.8-8.8-10.1-21-17.2-34.1-20s-27.1-1.2-39.2 4.5c-19.5 18.8.6 51.3 30.2 57.3z"/><path d="M204.2 311.7c-8.9-2.7-18.2-4.1-26.6-4.4-12.6-.5-25.1.7-37.5 2.6-3.9.4-7.8 1-11.7 1.6.7-5 2.9-9.5 6.8-13.3.5-.2.9-.4 1.4-.6a60.64 60.64 0 0168 14.1c-.2-.1-.3 0-.4 0z" class="st8_31"/><path fill="#8ed7de" d="M143.6 340.6c7-1.2 14.1-2.2 21-4.2 10.5-2.9 21-6.3 31.5-9.3l1.3-.3c-7.6 10.6-17.7 19-29.2 23.9-1.3.6-2.6 1.1-3.9 1.5a50.7 50.7 0 01-22.5-11.4c.6 0 1.2-.1 1.8-.2z"/><path d="M183.4 319.6h.2l.1.2c3.8 4.3 8.8 7.5 14.2 9.3-.2.2-.4.5-.5.7a35.5 35.5 0 01-14.2-9.3c-12.7 1.3-24.9 4.9-35.4 10.3l-.4-.8c10.7-5.5 23.1-9.1 36-10.4z" class="st11_31"/><path d="M183.6 318.9h.2l.1.2c3.9 4.3 9 7.6 14.5 9.4-.2.2-.3.5-.5.7-5.5-1.9-10.5-5.1-14.4-9.4-12.7 1.3-24.9 4.9-35.4 10.3l-.4-.8c10.6-5.5 23-9.1 35.9-10.4z" class="st12_31"/><linearGradient id="SVGID_24_31" x1="-612.48" x2="-616.42" y1="-648.39" y2="-587.65" gradientTransform="rotate(156.82 -331.46 -67.71)" gradientUnits="userSpaceOnUse"><stop offset=".39" stop-color="#22567d"/><stop offset="1" stop-color="#131f49"/></linearGradient><path fill="url(#SVGID_24_31)" d="M134.2 296.8c2.7-1.3 5.5-2.3 8.4-3.2-2.7 3.6-3.9 8.4-3.7 12.9.3 5.4 2.3 10.6 4.7 15.5 6.1 12 15.4 22.3 26.7 29.7-1.9.9-3.9 1.7-5.9 2.4-29.6-6.1-49.7-38.6-30.2-57.3z"/><path d="M137.6 309.4c-3 .5-6.1 1-9.1 1.6.7-4.8 3-9.2 6.7-12.8.4-.2.9-.4 1.3-.6.8-.3 1.6-.7 2.5-1a22 22 0 00-1.7 10c0 .9.1 1.9.3 2.8zm2 7.6c-.7-1.9-1.3-3.7-1.6-5.4-3.2.7-6.5 1.4-9.8 1.9-.1 2 .1 4 .5 6 1-.3 1.9-.5 2.9-.8 2.5-.7 5.3-1.1 8-1.7z" class="st36_31"/><path d="M160.4 317.9l1 2.4-10.6 4-1.7-3.1z" class="st29_31"/><path d="M151 321l8.7-2.4.3 1.1-7.8 3.2z" class="st30_31"/><path fill="#b62dc0" d="M160.4 317.9l-11.3 3.3-1.1-.6 12.9-4 1.7 4.7-1.2-1z" opacity=".4"/><path d="M161.4 320.3l-10.6 3.9-1.7-3.1-1.1-.6 2.9 5 11.6-4.3-1.1-.9z" class="st32_31"/></g><path fill="#004d5c" d="M510.4 217.2a213.05 213.05 0 01-42.2 33.5c-3.2-3.4-5.2-7.3-5.8-11.9 15.5-6 34.2-12.4 48-21.6z" opacity=".4"/><path d="M230.8 299.7c-2.9-4.5-5.2-9.2-6.9-14.2-4.4.7-9.2.7-13.6 1.5 1.8 6.4 4.3 13.1 7.6 18.8 4-1.7 9-4.5 12.9-6.1zm-26.4 3.6c2.6-.7 4.6-1.6 7.2-2.3-1.1-3-1.4-6.4-2.6-9.3-2.3.2-4.9.2-7.2.5-3.9-7.7-6.3-16-7.1-24.6-1.9.8-3.5 1.3-5.4 2.1 1.2 10.1 4.1 20.1 8.4 29.3 1 2.1 4.9 2.9 6.7 4.3zM187 292l-2.7-11.5c-3.9 1.1-8.3 2-12.2 3.1.5 2.2.7 4.1 1.2 6.4 4.7 0 9.4.4 13.7 2zm56 40.6c2.4 3.4 6 6.2 10.1 7.2 5.6-2.5 11.4-4.7 17-7.2-4-2.1-7.7-4.6-11.1-7.5-5.3 2.2-10.7 5.2-16 7.5zm-32.6-9.2c2.4 5.1 6.5 9.5 11.5 12.3l8.6-4c-3.9-3-7.2-6.8-9.5-11.2-3.5 1.1-7.1 1.8-10.6 2.9z" class="st36_31"/><path d="M215.5 413.5c-8.3 1.9-21.4 4.3-30.6 3.7 0 0-2.8-1.2-4.3-1.7 8.7-.2 22-2.2 29.9-5l5 3z" class="st7_31"/><path fill="#fff7cc" d="M498.1 191.9c4.9 3.3 8.5 7.2 12.2 11.8 1.2 3.5 2.7 6.7 3.9 10.2 1.9-3.4 3.2-6.9 3.9-10.8-5.8-6.6-14.2-13.4-21.6-18.2.7 2.3 1.6 7 1.6 7z" opacity=".5"/></svg>