<svg xmlns="http://www.w3.org/2000/svg" id="layer_1" x="0" y="0" enable-background="new 0 0 400 244.3" version="1.1" viewBox="0 0 400 244.3" xml:space="preserve"><defs/><style>.st1_81{fill:#73d2d9}.st2_81{fill:#fff7cc}.st5_81{opacity:.65;fill:#fff}.st6_81{fill:#22567d}.st21_81{fill:#86d8dd}.st22_81{fill:#146b87}.st23_81{opacity:.75;fill:#fff7cc}.st24_81{fill:#00ebaa}.st25_81,.st27_81{opacity:.85;fill:#fff7cc}.st27_81{opacity:.6}.st31_81{fill:#829396}</style><path fill="#fff9e7" d="M232 223.3c-.6-1.6-1.7-4.9-1.7-4.9s3.9-24.5 13.2-38.5c15.4-3.6 31.3-2.6 47.4 1.5l1.1 4.5-60 37.4z"/><path d="M292.1 185.9c-11.1 9.9-20.6 21.6-28.1 34.2-10.2 2.7-21.6 3.6-31.8 3.1 2.3-13.5 7.7-28.1 15.6-39.8 15-4.1 30.1-1.6 44.3 2.5z" class="st1_81"/><path d="M341.2 10.3c-15.4 13.4-27.1 34.7-36.4 53.2-2 .1-4 .1-6 .2 5.5-20 17.9-37.9 32.2-53a23 23 0 0110.2-.4z" class="st2_81"/><linearGradient id="SVGID_1_81" x1="324.98" x2="353.44" y1="67.04" y2="16.68" gradientUnits="userSpaceOnUse"><stop offset=".06" stop-color="#fff7cc"/><stop offset=".35" stop-color="#fcbdee"/><stop offset=".39" stop-color="#f8bcee"/><stop offset=".44" stop-color="#ebbaf0"/><stop offset=".48" stop-color="#d5b7f2"/><stop offset=".53" stop-color="#b7b2f5"/><stop offset=".55" stop-color="#a8b0f7"/><stop offset=".6" stop-color="#a9b4f7"/><stop offset=".66" stop-color="#acc1f5"/><stop offset=".72" stop-color="#b1d7f3"/><stop offset=".75" stop-color="#b4e6f1"/></linearGradient><path fill="url(#SVGID_1_81)" d="M341.2 10.3c8.1 2.4 15.7 5.3 22.7 9.1-6 23.7-14.6 46-26.7 66.2-11-5.9-21.8-13.2-32.4-22 11.1-22.5 22.9-41.7 36.4-53.3z"/><linearGradient id="SVGID_2_81" x1="332.9" x2="344.07" y1="60.92" y2="34.32" gradientUnits="userSpaceOnUse"><stop offset="0" stop-color="#b0aae2"/><stop offset="1" stop-color="#a5e3ec"/></linearGradient><path fill="url(#SVGID_2_81)" d="M342.9 51.4c.2 8.3-.4 17.5-2.8 25.9 9.2-16.9 16.4-35.7 22-57.1-6.1-3.2-12.8-5.9-20.4-8.1-2 1.7-3.9 3.7-5.8 5.8 5.3 9.8 6.7 22.9 7 33.5z"/><path d="M341.8 59.5l.2-.4c5.1-8.5 8.6-18.1 10.7-29.4l.1-.4-.3-.3c-.4-.3-.8-.8-1.3-1.2-.3-.3-.7-.6-1-.9 1.2-4.2 2.9-8 5.2-11.4-.5-.2-1-.4-1.5-.7-2.4 3.6-4 7.3-5.1 11.7l-.1.2s2.2 2.1 2.6 2.4c-2.1 10.8-5.6 20.7-10.4 28.8-1.8 0-3.5-.1-5.2-.2-1.9-.1-3.8-.1-5.7-.2h-.5l-.2.4c-3.1 5.8-5.6 11.9-7.7 18.1.5.3.9.6 1.4.9 2-6.1 4.5-12.1 7.5-17.8 1.7 0 3.5.1 5.2.2 1.9.1 3.8.1 5.7.2h.4z" class="st5_81"/><path d="M341.1 58.6l.1-.2c5-8.4 8.5-18 10.6-29.3v-.2l-.2-.2c-.4-.4-.8-.8-1.3-1.2l-1.1-1.1c1.1-4.2 2.9-8 5.1-11.4-.3-.1-.5-.2-.8-.3-2.3 3.5-4 7.5-5.2 11.8l-.1.2.2.2c.4.4.8.8 1.3 1.2l1.1 1.1c-2.1 11-5.5 20.3-10.4 28.6-1.8 0-3.7-.1-5.5-.2-1.9-.1-3.8-.1-5.7-.2h-.2l-.1.2c-3.1 5.9-5.7 12-7.7 18.4.2.2.5.3.7.5 2-6.3 4.6-12.4 7.6-18.2 1.8 0 3.7.1 5.4.2 1.9.1 3.8.1 5.7.2l.5-.1z" class="st6_81"/><path d="M298.8 63.7l.4.2c9.7 9.8 20.6 17 32.8 21.6h5.3l-32.4-22-6.1.2z" class="st1_81"/><linearGradient id="SVGID_3_81" x1="369.98" x2="274.69" y1="170.9" y2="122.6" gradientUnits="userSpaceOnUse"><stop offset=".39" stop-color="#22567d"/><stop offset="1" stop-color="#131f49"/></linearGradient><path fill="url(#SVGID_3_81)" d="M309.7 86.8l7.1-10.9 4.8 3.8-5.4 12.5c3 .1 6.9.8 10 1 .7 2.9 1.3 5.8 2.1 8.7 6.1-.1 11.9-.7 18-.8 5.2 20.2 4 41.8-4.5 60.9-3.6.1-11.4.4-11.4.4l10.1 18.5-5.5.9-11.3-16.6s-2.5 3.9-3.7 5.9c-5.2-.1-10.3.1-15.5 0-2 5.5-5.5 10.3-9.5 14.6-9.6.2-19.5.3-29.1.5 3.1-14.1 6.6-28.7 9.7-42.8 2.3-10.2 4.6-20.5 9.5-29.8 5.5-10.5 24.6-26.8 24.6-26.8z"/><linearGradient id="SVGID_4_81" x1="159.43" x2="160.74" y1="85.02" y2="149.38" gradientUnits="userSpaceOnUse"><stop offset=".06" stop-color="#fff7cc"/><stop offset=".35" stop-color="#fcbdee"/><stop offset=".39" stop-color="#f8bcee"/><stop offset=".44" stop-color="#ebbaf0"/><stop offset=".48" stop-color="#d5b7f2"/><stop offset=".53" stop-color="#b7b2f5"/><stop offset=".55" stop-color="#a8b0f7"/><stop offset=".6" stop-color="#a9b4f7"/><stop offset=".66" stop-color="#acc1f5"/><stop offset=".72" stop-color="#b1d7f3"/><stop offset=".75" stop-color="#b4e6f1"/></linearGradient><path fill="url(#SVGID_4_81)" d="M314.7 116.1c2.3-5.9 2.8-15.3.8-21.2-2.1-5.9-9.5-13.9-15.7-14.7-36.1-5-68.2-8.3-104.8-7.4-36.6.9-73.8 8.7-108.3 21.1-36 13-68.7 32-82.5 71.3 35.9 45.8 180 38.3 217.3 36.6 12.3-.6 25.3-3 36.3-8.5 12.8-6.4 21.8-18.7 27.1-31.9 5.3-13.2 7.4-27.5 9.4-41.6 6.7-1.6 13.5-2.3 20.4-3.7z"/><linearGradient id="SVGID_5_81" x1="135.9" x2="135.9" y1="209.42" y2="187.95" gradientUnits="userSpaceOnUse"><stop offset=".06" stop-color="#fff7cc"/><stop offset=".35" stop-color="#fcbdee"/><stop offset=".39" stop-color="#f8bcee"/><stop offset=".44" stop-color="#ebbaf0"/><stop offset=".48" stop-color="#d5b7f2"/><stop offset=".53" stop-color="#b7b2f5"/><stop offset=".55" stop-color="#a8b0f7"/><stop offset=".6" stop-color="#a9b4f7"/><stop offset=".66" stop-color="#acc1f5"/><stop offset=".72" stop-color="#b1d7f3"/><stop offset=".75" stop-color="#b4e6f1"/></linearGradient><path fill="url(#SVGID_5_81)" d="M8.9 153.9c-1.8 3.6-3.4 7.3-4.7 11.3 35.9 45.8 180 38.3 217.3 36.6 12.3-.6 25.3-3 36.3-8.5 3.6-1.8 6.9-4.1 9.9-6.7-87.9 1.8-176-6-258.8-32.7z"/><linearGradient id="SVGID_6_81" x1="61.6" x2="318.57" y1="133.52" y2="133.52" gradientUnits="userSpaceOnUse"><stop offset="0" stop-color="#fd1013"/><stop offset=".48" stop-color="#ea23bd"/><stop offset=".68" stop-color="#3f3ccf"/><stop offset=".74" stop-color="#4159cd"/><stop offset=".86" stop-color="#45a4c6"/><stop offset=".86" stop-color="#45a7c6"/></linearGradient><path fill="url(#SVGID_6_81)" d="M290.3 120.8c-59.7 4.2-120.7 7.1-182.8 8.8l-11.8 12.6-34.1 4h42.6l14.6-11.6c54.4 1.4 111 1 169.4-.9l2.1-12.9z"/><path fill="#a5e3ec" d="M257.3 160.8c-26.3 3.7-52.7 6.5-79.1 8.4-34.7 2.4-69.6 3.7-104.3 2.5 1.7 2.9 2.2 6.6.7 10.7-.2.6-.4 1.2-.7 1.8 51.2 10.9 178.7 3.5 188.8 2.1 1.2-.2 2.3-.5 3.5-.7 7.1-6.1 13-14.6 17.1-24.9.5-1.3 1-2.7 1.5-4-9.1 1.5-18.3 2.8-27.5 4.1z"/><defs><filter id="Adobe_OpacityMaskFilter" width="278.6" height="49.7" x="35.2" y="74.2" filterUnits="userSpaceOnUse"><feFlood flood-color="#fff" flood-opacity="1" result="back"/><feBlend in="SourceGraphic" in2="back"/></filter></defs><mask id="SVGID_7_81" width="278.6" height="49.7" x="35.2" y="74.2" maskUnits="userSpaceOnUse"><g filter="url(#Adobe_OpacityMaskFilter)"><defs><filter id="Adobe_OpacityMaskFilter_1_" width="278.6" height="49.7" x="35.2" y="74.2" filterUnits="userSpaceOnUse"><feFlood flood-color="#fff" flood-opacity="1" result="back"/><feBlend in="SourceGraphic" in2="back"/></filter></defs><linearGradient id="SVGID_8_81" x1="42.16" x2="308.47" y1="102.31" y2="91.75" gradientUnits="userSpaceOnUse"><stop offset="0" stop-color="#fff"/><stop offset="1"/></linearGradient><path fill="url(#SVGID_8_81)" d="M299.5 81.8c-32.8-4.5-61.1-7.6-92.6-7.6-4 0-8 .1-11.9.1-34.8.9-72 8.1-107.7 21-17 6.1-36 14.5-52 28 2.6.6 13.2.7 15.8.5 9.5-4.4 51.3-17.9 62.4-20.8 22.5-5.8 46.1-8.4 69.2-10.2 24.2-1.8 48.6-2.8 72.9-1.3 12.5.8 51.4 2.7 58.3 3.6-2.1-5.4-9-12.6-14.4-13.3z" mask="url(#SVGID_7_81)"/></g></mask><path d="M299.5 81.8c-32.8-4.5-61.1-7.6-92.6-7.6-4 0-8 .1-11.9.1-34.8.9-72 8.1-107.7 21-17 6.1-36 14.5-52 28 2.6.6 13.2.7 15.8.5 9.5-4.4 51.3-17.9 62.4-20.8 22.5-5.8 46.1-8.4 69.2-10.2 24.2-1.8 48.6-2.8 72.9-1.3 12.5.8 51.4 2.7 58.3 3.6-2.1-5.4-9-12.6-14.4-13.3z" class="st2_81"/><linearGradient id="SVGID_9_81" x1="44.1" x2="31.65" y1="204.81" y2="126.59" gradientUnits="userSpaceOnUse"><stop offset="0" stop-color="#131f49"/><stop offset=".61" stop-color="#22567d"/></linearGradient><path fill="url(#SVGID_9_81)" d="M72.2 170.8c-6.6-.9-13.1-1.2-19.7-2.1 2.7-9.2 2.9-19 .7-28.3-1.1-4.5-4-7.9-7.9-10.4-5-1.6-9.7-2.8-14.9-3.7h-.3c-.2 0-.4 0-.5-.1a97.62 97.62 0 00-25.4 38.9c12.1 15.4 36.3 24.7 64.6 30.3 4.3-7.3 5.5-16.4 3.4-24.6z"/><linearGradient id="SVGID_10_81" x1="33.24" x2="76.4" y1="127.1" y2="143.74" gradientUnits="userSpaceOnUse"><stop offset="0" stop-color="#22567d"/><stop offset=".09" stop-color="#205c81"/><stop offset=".21" stop-color="#1a6c8d"/><stop offset=".35" stop-color="#1186a0"/><stop offset=".49" stop-color="#04abbb"/><stop offset=".54" stop-color="#00b8c4"/><stop offset=".63" stop-color="#15c2c4"/><stop offset=".82" stop-color="#4cddc6"/><stop offset="1" stop-color="#83f7c7"/></linearGradient><path fill="url(#SVGID_10_81)" d="M20.8 135.4c0 3.6.1 5.4 1.3 8.8 12.1-2.2 25.4-2.9 37.5-4.6.7-1.5 1.3-2.5 2-4 5.8-.8 12-1.5 17.8-2.3 1.3-3.1 2.1-5.4 3.5-8.4l-52.6.7c-3.4 3-6.6 6.3-9.5 9.8z"/><path fill="#00b8c4" d="M77.9 126.5l-5.9.1c-1.3 2.2-2.8 4.4-4.3 6.5l2.6-.3c1.9-.2 3.7-.5 5.6-.7.7-1.9 1.3-3.7 2-5.6z" opacity=".3"/><path d="M52.5 136.5c-.3.8-.6 1.6-.9 2.5-.4 0-.8.1-1.1.1 1.2-2.5 2.6-5 4.1-7.5 0 0 0 .1-.1.1-.8 1.6-1.5 3.3-2 4.8zm-6.1-9.6h-3.3c-2.7 4.6-5.5 9.2-8.3 13.8 1.6-.2 3.2-.3 4.8-.5 2.1-4.5 4.5-8.8 6.8-13.3zM27 141.8c-1.3.2-2.6.4-3.8.6-.6-2.3-.8-3.9-.8-6.4 2.6-3.1 5.4-6.1 8.4-8.9l6.6-.1c-.3.3-.5.7-.8 1-.2 0-.4.1-.5.3-3.1 4.4-6.2 8.9-9.1 13.5zm327.8 92.6a154.87 154.87 0 01-41.4-46.5c2.1-2.9 4.4-5.4 6.5-8.3 9.4 18.9 22.5 36.3 38.1 50.4l-3.2 4.4z" class="st2_81"/><linearGradient id="SVGID_11_81" x1="371.81" x2="341.98" y1="240.33" y2="177.9" gradientUnits="userSpaceOnUse"><stop offset=".06" stop-color="#fff7cc"/><stop offset=".35" stop-color="#fcbdee"/><stop offset=".39" stop-color="#f8bcee"/><stop offset=".44" stop-color="#ebbaf0"/><stop offset=".48" stop-color="#d5b7f2"/><stop offset=".53" stop-color="#b7b2f5"/><stop offset=".55" stop-color="#a8b0f7"/><stop offset=".6" stop-color="#a9b4f7"/><stop offset=".66" stop-color="#acc1f5"/><stop offset=".72" stop-color="#b1d7f3"/><stop offset=".75" stop-color="#b4e6f1"/></linearGradient><path fill="url(#SVGID_11_81)" d="M319.9 179.5c14.3-1.4 28.8-1.7 43.3-.7a381.8 381.8 0 0023.1 44.2c-9.1 3.6-18.6 5.8-28.3 6.9-15.6-14.5-28.6-31.1-38.1-50.4z"/><linearGradient id="SVGID_12_81" x1="366.12" x2="354.74" y1="228.84" y2="192.05" gradientUnits="userSpaceOnUse"><stop offset="0" stop-color="#b0aae2"/><stop offset="1" stop-color="#a5e3ec"/></linearGradient><path fill="url(#SVGID_12_81)" d="M360.5 196.2c4.3 4.5 8.2 9.6 11.6 14.8 2.8 4.2 4.5 8.6 6.3 13.1 1.9-.6 3.7-1.2 5.6-1.9a373.9 373.9 0 01-21.8-41.8c-5.5-.3-11.1-.5-16.5-.5-4.8 0-9.6.2-14.4.4 10.9 3 21 7.3 29.2 15.9z"/><path d="M369.4 211.8l-1.9.3c-.9.1-1.7.3-2.6.4l-.6.1.3.5c2.6 4.5 6 8.9 10 12.8.3-.1.6-.2.9-.2-3.9-3.8-7.3-8.1-9.9-12.5l2-.3c.9-.1 1.7-.3 2.6-.4l.6-.1-.3-.5c-2-3.3-4.1-6.6-6.1-9.8-2-3.2-4.1-6.5-6.1-9.8l-.2-.3-.3.1c-.9.2-1.8.3-2.6.5-.8.1-1.6.3-2.4.5a57.8 57.8 0 01-8.6-14.8h-.9c2.3 5.6 5.3 10.8 9.1 15.6l.2.2.3-.1c.9-.2 1.8-.3 2.6-.5.8-.1 1.5-.3 2.3-.5 1.9 3.2 4 6.4 6 9.6 1.7 3 3.7 6.1 5.6 9.2z" class="st5_81"/><path d="M365.2 214.2l2-.3c.9-.1 1.7-.3 2.6-.4l.6-.1-.3-.5c-2-3.3-4.1-6.6-6.1-9.8-2-3.2-4.1-6.5-6.1-9.8l-.2-.3-.3.1c-.9.2-1.8.3-2.6.5-.8.1-1.6.3-2.4.5-3.8-4.8-6.8-10.1-9.1-15.8h-.4l-.5.2c2.3 5.9 5.5 11.4 9.4 16.3l.2.2.3-.1c.9-.2 1.8-.3 2.6-.5.8-.1 1.5-.3 2.3-.5 1.9 3.2 4 6.4 6 9.6 1.9 3 3.9 6.2 5.8 9.3l-1.9.3c-.9.1-1.7.3-2.6.4l-.6.1.3.5c2.6 4.5 6 8.9 10 12.8.3-.1.6-.2.9-.2-3.9-3.8-7.3-8.1-9.9-12.5z" class="st6_81"/><path d="M278.9 82.4c-2.5-2.4-5.4-4.4-8.7-5.9l-2.9-.3-.2.8c4 1.4 7.7 3.7 10.7 6.6 5 4.8 8.4 11.1 9.3 17.3-45 7.1-91.8 10.6-143 10.6-7.1 0-14.3-.1-21.5-.2 1-6.1-1.1-12.7-5.5-17a19.8 19.8 0 00-13.7-5.5h-.6c-1.2.4-2.4.7-3.6 1.1l-.3.2.2.8.4-.1c1.3-.3 2.6-.5 3.9-.5 4.7 0 9.3 1.8 12.6 5.1 4.2 4.2 6.2 10.6 4.9 16.5l-.2 1h1c7.6.1 15.1.2 22.5.2 43.9 0 84.3-2.5 123.4-7.7.9 6.3.5 13.2-1.1 20.2-2.6 11.4-7.8 22.2-12.5 31.7-26 6-53.5 9.1-79.4 9.1-5.7 0-11.4-.2-16.9-.4h-.7l-.1.7c-2.6 17.8-16.7 30.9-37.9 35.1l5.4.3c18.7-5.3 31.4-18 34-34.5 5.3.3 10.8.4 16.3.4 26.2 0 53.9-3.2 80.1-9.2l.4-.1.2-.4c4.8-9.7 10.2-20.7 12.8-32.4 1.6-7.2 2-14.3 1.1-20.8 6.4-.9 12.8-1.8 19.1-2.8l.8-.1-.1-.8c-1.1-6.8-4.7-13.7-10.2-19z" class="st5_81"/><path d="M277.3 82.7c5.2 5 8.6 11.5 9.5 17.9-51.4 8.2-105.5 11.6-165.5 10.5 1.2-6.1-.9-12.8-5.3-17.1-3.6-3.6-8.8-5.5-14-5.4-1.2.4-2.4.7-3.6 1.1v.1c5.9-1.4 12.6.4 16.9 4.7 4.3 4.3 6.3 10.9 5 16.8l-.1.5h.5c52.5 1 100.6-1.5 146.2-7.6.9 6.4.6 13.6-1 20.8-2.6 11.4-7.9 22.3-12.7 31.9-32.1 7.4-65.5 10.4-96.6 8.7h-.4l-.1.4c-2.6 18-17.2 31.3-38.5 35.5.9.1 1.9.1 2.8.2 20-4.8 33.7-17.8 36.4-35.2 31.1 1.6 64.5-1.4 96.6-8.8h.2l.1-.2c4.8-9.7 10.2-20.7 12.8-32.3 1.6-7.3 2-14.5 1-21.1 6.5-.9 13-1.8 19.5-2.9l.4-.1v-.4c-.8-6.7-4.4-13.6-9.8-18.8-2.5-2.4-5.4-4.4-8.5-5.8l-2.9-.3c4.3 1.7 8 3.9 11.1 6.9z" class="st6_81"/><linearGradient id="SVGID_13_81" x1="295.81" x2="305.55" y1="139.64" y2="171.71" gradientUnits="userSpaceOnUse"><stop offset=".06" stop-color="#fff7cc"/><stop offset=".35" stop-color="#fcbdee"/><stop offset=".39" stop-color="#f8bcee"/><stop offset=".44" stop-color="#ebbaf0"/><stop offset=".48" stop-color="#d5b7f2"/><stop offset=".53" stop-color="#b7b2f5"/><stop offset=".55" stop-color="#a8b0f7"/><stop offset=".6" stop-color="#a9b4f7"/><stop offset=".66" stop-color="#acc1f5"/><stop offset=".72" stop-color="#b1d7f3"/><stop offset=".75" stop-color="#b4e6f1"/></linearGradient><path fill="url(#SVGID_13_81)" d="M308.3 164.8a32.2 32.2 0 003.6-19.7c-5.9-1-12.5-.4-18.2 1.4-.8 5.6-2.7 11.1-5.5 16 6.3 2 13.6 2.8 20.1 2.3z"/><path d="M79.4 133.2l3.4-8.4-52.6.7-.3.2 51 .4-2.8 7.3zm-17.8 2.4l-2 4-37.5 4.6c-1-2.9-1.4-5.9-1.3-8.8.2 2.9.8 5.6 2.1 8l35.6-4.7 2.1-3 1-.1zm106-40.3c0 1.1-1.6 1.9-3.6 1.8-2 0-3.6-.9-3.6-2s1.6-1.9 3.6-1.8c2 0 3.6.9 3.6 2z" class="st21_81"/><path d="M163.1 93.6c-.5 0-.9 0-1.4.1-.8.3-1.3.8-1.3 1.4 0 1.1 1.6 2 3.6 2 .5 0 .9 0 1.4-.1.8-.3 1.3-.8 1.3-1.4-.1-1.1-1.7-2-3.6-2z" class="st22_81"/><path d="M162.5 94.9c0 .2 0 .3.1.4.5.8 1.9.9 2.7.7.2-.1.5-.2.6-.5.2-.8-1.1-1.5-1.6-1.5s-1.2.1-1.6.5c-.1.2-.1.3-.2.4z" class="st23_81"/><path d="M181 94.4c0 1.2-1.9 2.1-4.1 2.1-2.2 0-4-1.1-4-2.2 0-1.2 1.9-2.1 4.1-2.1 2.2 0 4 1 4 2.2z" class="st21_81"/><path d="M175.9 92.5c-.5 0-1.1 0-1.5.1-.9.4-1.5 1-1.5 1.6 0 1.2 1.8 2.2 4 2.2.5 0 1.1 0 1.5-.1.9-.4 1.5-1 1.5-1.6 0-1.2-1.8-2.2-4-2.2z" class="st22_81"/><path d="M175.2 94c0 .2 0 .4.1.5.6.9 2.1 1 3 .8.3-.1.6-.2.7-.5.2-.9-1.2-1.6-1.8-1.6-.6 0-1.3.1-1.8.6 0-.1-.1 0-.2.2z" class="st23_81"/><path d="M253.9 91.3c0 1.2-1.9 2.1-4.1 2.1-2.2 0-4-1.1-4-2.2 0-1.2 1.9-2.1 4.1-2.1 2.2 0 4 1.1 4 2.2z" class="st21_81"/><path d="M248.8 89.4c-.5 0-1.1 0-1.5.1-.9.4-1.5 1-1.5 1.6 0 1.2 1.8 2.2 4 2.2.5 0 1.1 0 1.5-.1.9-.4 1.5-1 1.5-1.6 0-1.1-1.7-2.1-4-2.2z" class="st22_81"/><path d="M248.2 91c0 .2 0 .4.1.5.6.9 2.1 1 3 .8.3-.1.6-.2.7-.5.2-.9-1.2-1.6-1.8-1.6-.6 0-1.3.1-1.8.6-.1-.1-.2 0-.2.2z" class="st23_81"/><path d="M194.5 93.4c0 1.3-2.1 2.4-4.6 2.3-2.5-.1-4.5-1.2-4.5-2.5s2.1-2.4 4.6-2.3c2.5.1 4.6 1.2 4.5 2.5z" class="st21_81"/><path d="M188.8 91.3c-.6 0-1.2 0-1.7.1-1 .4-1.6 1.1-1.7 1.8 0 1.3 2 2.5 4.5 2.5.6 0 1.2 0 1.7-.1 1-.4 1.6-1.1 1.7-1.8 0-1.3-2-2.5-4.5-2.5z" class="st22_81"/><path d="M188.1 93c0 .2 0 .4.1.6.7 1 2.4 1.1 3.4.9.3-.1.7-.2.7-.6.3-1-1.4-1.8-2-1.8-.7 0-1.5.1-2 .6-.1 0-.2.1-.2.3z" class="st23_81"/><path d="M210.1 92.9c0 1.6-2.6 2.9-5.6 2.9-3.1-.1-5.5-1.5-5.5-3.1s2.6-2.9 5.6-2.9c3.1.1 5.6 1.4 5.5 3.1z" class="st21_81"/><path d="M203.2 90.2c-.7 0-1.5.1-2.1.2-1.2.5-2 1.3-2 2.2 0 1.6 2.4 3 5.5 3.1.7 0 1.5-.1 2.1-.2 1.2-.5 2-1.3 2-2.2 0-1.6-2.5-3-5.5-3.1z" class="st22_81"/><path d="M202.1 92.3c-.1.2 0 .5.1.7.8 1.3 3 1.3 4.1 1.1.4-.1.8-.3.9-.7.3-1.3-1.7-2.2-2.4-2.3-.8 0-1.8.1-2.5.8 0 .1-.1.2-.2.4z" class="st23_81"/><path d="M243 91.6c0 1.6-2.6 2.9-5.6 2.9-3.1-.1-5.5-1.5-5.5-3.1s2.6-2.9 5.6-2.9c3.1.1 5.5 1.4 5.5 3.1z" class="st21_81"/><path d="M236 89c-.7 0-1.5.1-2.1.2-1.2.5-2 1.3-2 2.2 0 1.6 2.4 3 5.5 3.1.7 0 1.5-.1 2.1-.2 1.2-.5 2-1.3 2-2.2.1-1.7-2.4-3.1-5.5-3.1z" class="st22_81"/><path d="M235 91c-.1.2 0 .5.1.7.8 1.3 3 1.3 4.1 1.1.4-.1.8-.3.9-.7.3-1.3-1.7-2.2-2.4-2.3-.8 0-1.8.1-2.5.8-.1.1-.1.2-.2.4z" class="st23_81"/><path d="M228.3 92.1c0 1.9-3 3.4-6.6 3.4-3.6-.1-6.5-1.7-6.5-3.6 0-1.9 3-3.4 6.6-3.4 3.6.1 6.5 1.7 6.5 3.6z" class="st21_81"/><path d="M220.1 89c-.9 0-1.7.1-2.5.2-1.4.6-2.4 1.5-2.4 2.6 0 1.9 2.8 3.6 6.5 3.6.9 0 1.7-.1 2.5-.2 1.4-.6 2.4-1.5 2.4-2.6 0-1.9-2.9-3.5-6.5-3.6z" class="st22_81"/><path d="M218.8 91.5c-.1.3 0 .6.2.8 1 1.5 3.5 1.6 4.8 1.3.4-.1.9-.3 1.1-.8.4-1.5-2-2.6-2.9-2.6-.9 0-2.1.2-2.9.9-.1 0-.2.1-.3.4z" class="st23_81"/><path d="M264.7 91.2c0 1.2-1.8 2.1-4.1 2.1-2.2 0-4-1-4-2.2 0-1.2 1.8-2.1 4.1-2.1s4.1 1 4 2.2z" class="st21_81"/><path d="M259.7 89.3c-.5 0-1.1 0-1.5.1-.9.4-1.5.9-1.5 1.6 0 1.2 1.7 2.2 4 2.2.5 0 1.1 0 1.5-.1.9-.4 1.5-.9 1.5-1.6 0-1.2-1.8-2.2-4-2.2z" class="st22_81"/><path d="M259.1 90.8c0 .2 0 .4.1.5.6.9 2.1 1 3 .8.3-.1.6-.2.7-.5.2-.9-1.2-1.6-1.8-1.6-.6 0-1.3.1-1.8.6-.1-.1-.2 0-.2.2z" class="st23_81"/><g><path d="M212.8 193.6l-1.7 2.5 9.5-.6 2.7-3.3z" class="st24_81"/><path d="M221.4 192.8l-8.1 1.2-.7 1.1 7-.2z" class="st25_81"/><path fill="#8453b8" d="M212.8 193.6l10.5-1.4 1.2-.9-11.8 1.4-3.1 4.7 1.5-1.3z" opacity=".4"/><path d="M209.6 197.4l10.5-.6 4.4-5.4-1.2.9-2.6 3.3-9.5.6-1.6 1.2z" class="st27_81"/></g><g><linearGradient id="SVGID_14_81" x1="356.96" x2="363.96" y1="114.05" y2="144.7" gradientUnits="userSpaceOnUse"><stop offset=".06" stop-color="#fff7cc"/><stop offset=".35" stop-color="#fcbdee"/><stop offset=".39" stop-color="#f8bcee"/><stop offset=".44" stop-color="#ebbaf0"/><stop offset=".48" stop-color="#d5b7f2"/><stop offset=".53" stop-color="#b7b2f5"/><stop offset=".55" stop-color="#a8b0f7"/><stop offset=".6" stop-color="#a9b4f7"/><stop offset=".66" stop-color="#acc1f5"/><stop offset=".72" stop-color="#b1d7f3"/><stop offset=".75" stop-color="#b4e6f1"/></linearGradient><path fill="url(#SVGID_14_81)" d="M377.4 162.3c-19.8 1.5-39.7-6.7-53.9-20.6 4-12.3 12-23.2 22.6-30.6a60.5 60.5 0 0136.4-10.9c24.4 9.2 18.9 45.5-5.1 62.1z"/><path d="M326.3 139.9c6.9-5.7 14.5-10.5 21.9-14 10.9-5.2 22.5-8.8 34.2-11.9 3.6-1.1 7.3-2.1 10.9-3-2.5-4.2-6.2-7.3-11-9.2h-1.5c-12 0-23.9 3.8-33.7 10.6a59.14 59.14 0 00-21.2 27.6c.1 0 .2 0 .4-.1z" class="st2_81"/><path fill="#8ed7de" d="M390.8 142.5c-6.7 1.6-13.3 3.4-20.2 4.3-10.4 1.4-20.9 2.4-31.4 3.7-.4.1-.8.2-1.3.3 10.7 6.5 22.8 10.1 34.9 10.1 1.3 0 2.7 0 4.1-.1 6.7-4.8 12.1-11.4 15.6-18.6-.6.1-1.2.2-1.7.3z"/><path d="M347.7 139.1l-.2.1-.1.2c-1.8 5.2-4.9 10-9.1 13.7.2.1.5.3.8.4 4.1-3.7 7.2-8.4 9-13.6 11.7-3.6 23.9-5.1 35.2-4.3l.1-.8c-11.5-.9-23.9.6-35.7 4.3z" class="st5_81"/><path d="M347.2 138.5l-.2.1-.1.2c-1.8 5.3-5 10.1-9.2 13.8.2.1.5.3.7.4 4.2-3.7 7.4-8.5 9.2-13.8 11.7-3.6 23.9-5.1 35.2-4.3l.1-.8c-11.5-.8-23.8.7-35.7 4.4z" class="st6_81"/><linearGradient id="SVGID_15_81" x1="385.92" x2="382.13" y1="160.27" y2="101.81" gradientUnits="userSpaceOnUse"><stop offset=".39" stop-color="#22567d"/><stop offset="1" stop-color="#131f49"/></linearGradient><path fill="url(#SVGID_15_81)" d="M382.5 100.2c-2.9-.1-5.8 0-8.7.4 3.8 2.2 6.6 5.9 8.1 10 1.8 4.9 2 10.3 1.7 15.5-.9 12.9-5.2 25.6-12.4 36.4 2 0 4.1 0 6.1-.1 24.1-16.7 29.6-53 5.2-62.2z"/><path d="M383.5 110.1c-1.2-3.2-3-6-5.3-8.2.9 0 1.7-.1 2.6-.1h1.4c4.7 1.8 8.3 4.8 10.8 8.8l-8.7 2.1c-.2-.9-.5-1.8-.8-2.6zm9.7 8.5c.9-.1 1.9-.3 2.8-.4-.4-2-1-3.8-1.9-5.5-3.1.8-6.2 1.5-9.4 2 .3 1.7.5 3.5.6 5.4 2.7-.4 5.4-1.1 7.9-1.5z" class="st31_81"/><path d="M367.3 128.8l.1 2.6 10.8-.5.4-3.4z" class="st24_81"/><path d="M376.8 128l-8.6 1.2.1 1.1 8.2-.1z" class="st25_81"/><path fill="#b62dc0" d="M367.3 128.8l11.3-1.3.7-1-12.9 1.4.2 4.8.8-1.3z" opacity=".4"/><path d="M366.6 132.7l11.9-.6.7-5.6-.7.9-.4 3.4-10.8.5-.7 1.4z" class="st27_81"/></g><path fill="#004d5c" d="M19.5 172.4c16 6.7 32.9 11.3 50 13.7 1.5-4.2 1.8-8.4.6-12.7-16 .5-34.9 1.9-50.6-1z" opacity=".4"/><path d="M298.1 139.5c.8-5 1.1-10.1.7-15.2 4.1-1 8.4-2.8 12.6-3.9.9 6.3 1.2 13.2.3 19.5-4 0-9.5-.5-13.6-.4zm24.7-6.9c-2.6.4-4.7.3-7.2.7-.1-3-1.2-6.2-1.3-9.2 2.2-.7 4.4-1.6 6.6-2.3.5-8.2-.5-16.6-3-24.5 2 0 3.6-.2 5.6-.2 2.8 9.4 4 19.3 3.7 29.1-.2 2.3-3.3 4.5-4.4 6.4zm11.1-16.6c-.7-3.7-1.3-7.5-2-11.2 3.9-.5 8-1.4 11.9-1.9.4 2.2.9 3.9 1.3 6.1-3.9 1.9-7.9 4-11.2 7zm-34.1 57.1c-.9 4-3 7.8-6.3 10.2-5.9-.1-11.9.2-17.7.1 2.7-3.3 5.1-7 7-10.8 5.5 0 11.4.5 17 .5zm25.3-20.4a27.1 27.1 0 01-5.5 15.2l-9.1-.3c2.4-4.1 3.8-8.8 4.1-13.5 3.6-.3 7-1.1 10.5-1.4z" class="st31_81"/><path d="M354.8 234.4c8-1.4 20.6-4.3 28.5-8.3l3.1-3.1c-7.7 3.1-20.3 6.4-28.3 6.9l-3.3 4.5z" class="st1_81"/><path fill="#fff7cc" d="M20.8 145.3c-3.1 4.8-4.8 9.6-6.3 15.1.2 3.6.1 6.9.4 10.5-3-2.3-5.5-4.9-7.6-8 2.6-8.1 7.4-17.3 12.2-24.2.3 2.1 1.3 6.6 1.3 6.6z" opacity=".5"/></svg>