<svg xmlns="http://www.w3.org/2000/svg" xmlns:xlink="http://www.w3.org/1999/xlink" id="Layer_1" x="0" y="0" version="1.1" viewBox="86 53 525 495" xml:space="preserve"><defs><path id="reuse-1" d="M268.8 196.1l-.2.2s0-.1.1-.1c0 0 .1 0 .1-.1zm256.6 8.4l.1-.1v.2zm-306.3 6.1v.1h-.1zm237.2.2v-.1h.1zm36.7 1.4l-.1-.1h.2zm50 1.8l.1-.1v.2zm-46.6 2.3v.2h-.1zm28.2 2l-.2.1.1-.2zm-78.3 132.4l.1.1h-.2zm-6.1-60.4l-.1.1v-.2zm-90.9 18.1c-.1.1-.1.1-.2.1l-.1-.1h.3zm12.9-163.2c.9.5.9 1 .8 1.6-.1.4-.3.7-.8.7s-.8-.5-.7-1c.1-.4.4-.8.7-1.3zm-20.5 21.6c.2.3.4.4.4.6.1.4.1.8-.4.9h-.4c-.4-.3-.3-.6-.1-1l.5-.5zm26.8-17.6c0-.1.1-.3.1-.4.1.1.2.1.3.2 0 0 0 .2-.1.2h-.3zm-19.9 1.7c-.1 0-.2-.1-.2-.1 0-.1.1-.2.1-.3 0 0 .2 0 .2.1 0 0 0 .2-.1.3zm20.3 10.5c0-.1.1-.1.1-.2.1.1.2.1.3.2-.1 0-.1.1-.2.1-.1-.1-.1-.1-.2-.1zm-35.4 20l.2-.2.1.1c0 .1-.1.1-.3.1zm21.3-22.9v-.4h.2v.4h-.2zm-28.1 11l-.1-.1c0-.1.1-.1.1-.1l.1.1-.1.1zm14.3-19.8c.1 0 .3.1.3.1 0 .1 0 .2-.1.3-.1 0-.2 0-.2-.1v-.3zm28.6 1.7c0-.1 0-.2.1-.2h.2c-.1.1-.2.1-.3.2zm-32.8 92.3c.1-1 .5-1.3 1-1.4.4-.1.8 0 .9.4.2.4-.1 1-.6 1.1-.3 0-.7-.1-1.3-.1zm28.4 8.9c.2-.3.2-.5.4-.7.3-.2.7-.4 1-.1.1.1.2.3.2.4-.1.5-.5.5-.8.5-.3.1-.4 0-.8-.1zm-27.6-16.4c-.1 0-.3 0-.4.1v-.4s.2-.1.2 0c.1.1.2.2.2.3zm10.3 17.2v.2h-.3v-.2h.3zm.5-22.8h-.2v-.3c.1 0 .2 0 .2.1v.2zm33.5 22.9c-.1 0-.2 0-.2-.1v-.1l.2.2zm-29.9-9c-.1.1-.2.1-.4.2 0-.1-.1-.2-.1-.2.1-.1.2-.1.3-.2.1 0 .1.1.2.2zm22.2 20.4v.2c-.1 0-.1 0-.2-.1v-.2c.1 0 .1.1.2.1zm-24.1-4.2c0-.1-.1-.3 0-.3 0-.1.2-.1.3-.1 0 .1.1.2 0 .2-.1.1-.2.2-.3.2zm-11-26.4c-.1 0-.2.1-.2 0v-.2c0 .1.1.2.2.2zm52.1 118.4c-.1 0-.1.1-.2.1 0-.1-.1-.1-.1-.2l.1-.1c.1.1.2.1.2.2zm44.3-63.8h-.2v-.1zm-179.3-2.1l.1.2-.1-.1zm-18.5 41c0 .1.1.1.1.2h-.3c.1-.1.1-.2.2-.2zm206.9-41.3h-.2v-.1zm77.9-1.3l-.1-.1c.1 0 .1-.1.1-.1l.1.1-.1.1zm-103.8 77.2l-.1-.1.1-.1.1.1-.1.1zm19.1 3c0 .1.1.1.1.2-.1 0-.1.1-.2.1s-.1-.1-.1-.1l.2-.2zm27.7 10.2h-.2l.1-.1zm13.9.2zM349.3 377c-.1 0-.1.1-.2.1 0-.1-.1-.1-.1-.2s.1-.1.1-.1l.2.2zm42.4-100.1l-.1.1-.1-.1.1-.1s0 .1.1.1zm60.6 28.8l-.1.1h.1zm-.7 75v.1h-.1zm6.8 3.9c-.1.1-.1.2-.2.2l-.1-.1c.1-.1.2-.1.3-.1zm86.7-110h-.2v-.1zM430.4 387.7v-.2.2zm0 0l-.1.1.1-.1zm6.8 3.6l.2-.1-.1.2zm-97.6 1.3c.1.1.1.1.1.2l-.1.1v-.3zM211.4 268l-.1-.2h.2zm276.4-5.5c0 .1.1.1.1.2-.1 0-.1.1-.2.1l-.1-.1c.1-.2.2-.2.2-.2zM315.1 409.1l.1-.1-.2.1zm-.1 0zm-61.6 1.6l.1.2-.2-.1zm246.3 1.6v-.1h.1zm-195.8-89.5l-.1-.2h.2zm140.2-12c-.1 0-.1.1-.2.1l-.1-.1c.1 0 .1-.1.2-.1 0-.1.1 0 .1.1zM199.3 261c-.1 0-.2.1-.3.1.1-.1.1-.2.2-.3l.1.2zm66.4 159.4l.1-.1v.2zm54.6.2l.1-.1h-.1z" class="st3_8"/><path id="reuse-0" d="M489.4 238.1c.2 0 .3-.1.5-.1.2.1.5.3.7.4-.1.1-.2.4-.2.3-.3-.1-.5-.1-.8-.3-.1.1-.1-.2-.2-.3zm-2.4-30.5c-.2.1-.4.1-.6.2l-.2-.4c.2-.1.4-.2.6-.2.1 0 .1.2.2.4zm-41.5 115c.3.2.5.3.5.4.1.3-.3.6-.6.5-.1 0-.3-.2-.2-.3.1-.3.2-.5.3-.6zm-204.9-10.5c-.1-.2-.3-.3-.3-.4.1-.2.3-.3.4-.5.1.1.4.4.3.4 0 .3-.2.4-.4.5zm271.5-35.8l-.3.3c-.1-.1-.2-.3-.3-.4.1-.1.3-.2.4-.1.1-.1.2.1.2.2zm-160.5 81.4c-.2-.1-.3-.2-.4-.3.1-.2.3-.3.4-.4l.3.2c0 .2-.1.4-.3.5zm-3.8-69.5c-.2.1-.4.2-.6.2 0-.1-.1-.3-.1-.4.1-.1.2-.2.4-.2.1 0 .2.2.3.4zm142.8-73.7c-.4.1-.6.2-.9.2-.1 0-.2-.4-.2-.5.1-.2.4-.3.5-.3.2 0 .3.2.6.6zm-67.2 135.6c.2.1.2.2.3.3l-.5.5c-.1-.1-.2-.3-.2-.3.1-.2.2-.3.4-.5zm15.1-59.1c.2.1.4.2.5.3.1.1-.1.4-.2.5h-.2c-.1-.2-.2-.3-.2-.5 0 0 .1-.2.1-.3zm-71.2 54.8c-.4.2-.6.3-.9.3-.1 0-.3-.2-.3-.2 0-.1.1-.3.2-.3.3-.1.4 0 1 .2zM360.9 456c-.1-.2-.3-.4-.3-.4.1-.2.3-.3.5-.4.1.1.2.3.2.4 0 .2-.2.3-.4.4zm93.5-209.1c-.4.2-.6.4-.9.4-.1 0-.3-.4-.3-.5.1-.2.3-.3.5-.3s.4.2.7.4zm-45.8-28.8c.1.2.3.3.3.4 0 .4-.3.5-.6.4-.1 0-.2-.3-.1-.4 0-.1.2-.2.4-.4zm-74.5 112.8c-.2.1-.3.3-.5.4 0 0-.2-.1-.3-.2l.4-.4c.1-.1.3.1.4.2zM314 126.2c-.2-.1-.3-.2-.4-.3.1-.1.2-.3.3-.3.1 0 .3.1.4.1-.1.1-.2.3-.3.5zm114.6 172.4c.1.3.3.6.3.7-.2.2-.5.3-.7.4l-.2-.3c.2-.3.4-.5.6-.8zm-174.8 14.9c-.1.1-.3.2-.5.4-.1-.2-.2-.3-.3-.5.2-.1.3-.2.5-.3.2.1.2.2.3.4zm322.3-82.6c-.2.1-.4.2-.6.2-.1 0-.2-.2-.2-.3.2-.1.3-.2.5-.3.1 0 .2.2.3.4zM470.4 370.8c0 .1.2.3.1.4s-.2.1-.3.2c0-.1-.1-.3-.1-.4 0-.1.2-.1.3-.2zm-17.2-61.4c-.1.4 0 .7-.2.9-.1.2-.4-.2-.3-.5.1-.1.3-.2.5-.4zm58.1-27.1c-.1-.1-.2-.2-.2-.3.2-.1.3-.2.5-.3 0 .1.1.3.1.4-.2.1-.3.2-.4.2zm-83.5 37.6c0-.1-.1-.3-.1-.4.1-.1.2-.1.4-.2 0 .1.1.3.1.4 0 .1-.2.1-.4.2zm50.9-42.9c-.2 0-.4.1-.6.1-.1 0-.1-.2-.1-.4.2-.1.4-.1.6-.2-.1.1 0 .3.1.5zm-20.3-15.1c0 .2 0 .3-.1.4-.1.2-.3.3-.5.4 0 0-.3-.2-.2-.3.1-.2.2-.4.4-.5h.4zm37.8 113.6l.3.3c-.1.1-.3.2-.4.3-.1-.1-.2-.3-.1-.4-.1-.1.1-.1.2-.2zm.3-204.8c-.2.1-.4.1-.6.1l-.1-.3c.2-.1.4-.2.5-.3 0 .1.1.3.2.5zm.9-40.9c-.2-.1-.3-.2-.4-.2.1-.2.2-.4.4-.5l.4.2c-.2.2-.3.3-.4.5zm82.4 59.8c.2.1.3.1.5.2-.1.2-.1.4-.3.5l-.4-.1c0-.2.1-.4.2-.6zm-66.7 52.6v-.4l.2-.1c.1.1.1.2.2.3-.2.1-.3.2-.4.2zm-28.6-2.9c-.1.1-.1.3-.2.4-.1.1-.2.1-.3.1v-.6c0-.1.2-.2.3-.2 0 .1.1.2.2.3zm28.3 43.5c.1.1.1.2.2.4-.1 0-.3.1-.4.1-.1 0-.1-.2-.1-.3 0-.1.2-.2.3-.2zm-103.3-82.9l.2.2c-.1.1-.2.1-.4.2 0 0-.1-.1-.2-.1.2-.1.3-.2.4-.3zm-12.6 168.2c-.1.1-.1.3-.2.4-.1 0-.3-.1-.4-.1.1-.1.1-.3.2-.4.1 0 .3.1.4.1zM487 126.8c.1-.1.2-.2.3-.2.1 0 .2.1.3.2-.1.1-.2.2-.3.2-.1 0-.2-.1-.3-.2zM357.5 439.1c.1.1.2.2.2.3-.1.1-.2.1-.4.2 0 0-.1-.1-.2-.1l.4-.4zm140.7-236.3c-.2-.1-.3-.1-.5-.2.2-.2.3-.4.5-.5.1.1.3.2.2.3 0 .2-.1.3-.2.4zM349 310.8l-.3.3c-.1-.1-.1-.2-.2-.4 0 0 .1-.1.2-.1s.2.1.3.2zm97 126c.1 0 .2-.1.3-.1 0 .1.1.2.1.2-.1.1-.2.1-.3.1-.1-.1-.1-.1-.1-.2zm-198.2-74.2c-.2.1-.4.1-.6.2 0-.1-.1-.3 0-.4s.2-.2.4-.2c0 .1.1.2.2.4zm191.3-.9h-.4c0-.1.1-.2.1-.2h.4c-.1.1-.1.1-.1.2zm-73.6-1.2c-.1.1-.2.2-.2.3-.1-.1-.1-.2-.2-.3l.1-.2c.1 0 .2.1.3.2zm58.6 68.4l-.3.3c-.1-.1-.2-.3-.3-.4.1-.1.3-.1.4-.2.1 0 .2.1.2.3zm43.2-220.4c-.1.1-.3.1-.4.2 0-.1-.2-.3-.1-.4.1-.1.3-.1.4-.1 0 0 .1.2.1.3zm-91.8 149.2c.2.2.2.3.3.4-.2.1-.3.2-.5.4 0-.1-.1-.2-.1-.2.1-.2.2-.3.3-.6zM444.8 257c-.1.1-.2.2-.3.2-.1-.1-.1-.2-.2-.3 0 0 .1-.1.2-.1.1.1.2.1.3.2zm22.5 71.1c-.1.1-.3.1-.4.2 0-.1-.1-.3-.1-.4.1 0 .3-.1.4-.1 0 0 0 .2.1.3zm-204.2 28.3c.1.1.2.1.3.2-.1.1-.2.2-.4.2 0 0-.2-.1-.1-.1 0-.1.1-.2.2-.3zm86.4 65.9c0 .1.2.3.1.4s-.3.1-.4.2c0-.1-.1-.3-.1-.3.1-.2.3-.2.4-.3zm35-.5c-.1 0-.3.1-.4.1s-.2-.3-.1-.3c.1-.1.2-.1.4-.2.1.2.1.3.1.4zm53.2-133c.1.1.2.2.2.3 0 .1-.2.2-.3.2 0-.1-.1-.1-.1-.2s.1-.2.2-.3zm3.6 18.1c.2.1.3.2.4.2-.1.2-.2.3-.3.4-.1 0-.2-.1-.4-.2.1 0 .2-.2.3-.4zm-55.6 113.9c-.2.1-.3.1-.5.2 0-.1-.1-.3-.1-.4.1-.1.3-.2.4-.3.1.1.1.3.2.5zm101.4-1.1c-.2 0-.4.1-.5.1s-.1-.2-.2-.4c.2-.1.4-.1.5-.2.1.1.2.2.2.5zM205.7 215.5h-.6c0-.1 0-.3.1-.4.1-.1.3-.1.4-.1 0 .2 0 .3.1.5zm230.4 98.8c.1.2.2.2.3.3-.2.1-.3.2-.5.3l-.1-.1c.1-.2.2-.3.3-.5zm-196.1 94c-.1.1-.2.1-.3.2 0-.1-.1-.2-.1-.3.1 0 .2-.1.4-.1v.2zm162-.4c-.1 0-.3.1-.4.1 0-.1-.1-.3-.1-.3.1-.1.2-.1.4-.2.1.2.1.3.1.4zM212 327c-.1.1-.2.2-.3.2 0-.1-.1-.2-.1-.3 0 0 .1-.1.2-.1 0 .1.1.2.2.2zm121.8-1.9h-.4c0-.1.1-.2.1-.2h.4s-.1.1-.1.2zm138-159.2l.3.3c-.2.1-.3.2-.5.3l-.2-.1c.2-.1.3-.3.4-.5zm-81.2 105.7c-.1.1-.2.1-.4.2 0-.1-.1-.3-.1-.3.1-.1.2-.1.3-.2.2 0 .2.1.2.3zm-132.1 22.3c-.2.2-.3.4-.4.4s-.3-.1-.4-.1c.2-.2.3-.4.5-.6l.3.3zm232.3-73.5c-.1.1-.1.3-.2.4-.1-.1-.3-.1-.4-.2 0-.1.1-.3.1-.4.3.1.4.1.5.2zM328.9 345.7c-.1-.2-.2-.3-.2-.4.1-.1.3-.2.4-.3 0 0 .1.1.1.2s-.2.3-.3.5zm160.4-123.4c-.1.1-.1.2-.2.3-.1-.1-.1-.2-.2-.3.1-.1.2-.2.3-.2.1.1.1.2.1.2zm-180.9 49.8c-.2.1-.3.2-.5.3-.1 0-.2-.2-.2-.2l.4-.4c.1 0 .2.1.3.3zm91.9.3c.2-.3.3-.8.5-.9s.8.2.9.4c.1.3-.2.9-.4.9-.3 0-.7-.3-1-.4zm0-4c.1-.2.1-.4.3-.5.1-.1.4.1.4.2s-.1.4-.2.5c-.2 0-.4-.1-.5-.2zm41.6 28.7c-.1.1-.3.1-.4.2 0-.1-.1-.3-.1-.4.1 0 .3-.1.4-.1 0 0 .1.2.1.3zm48.6-71c-.2-.4.8-1.4 1.3-1.2.3.1.5.9.1 1.3-.5.4-1.3.2-1.4-.1zM243 173.4c-.1-.1-.2-.1-.3-.2.1-.1.2-.2.3-.2 0 0 .1.1.2.1-.1 0-.1.2-.2.3zm18 .7c-.4.2-.6.3-.9.3-.1 0-.3-.2-.3-.2 0-.1.1-.3.2-.3.3-.1.4.1 1 .2zm44.9 53.7h-.6c0-.1 0-.3.1-.3.1-.1.2-.1.4-.2 0 .2 0 .3.1.5zm72.4 45.1l.3-.3c.1.1.1.2.2.3l-.1.2c-.1-.1-.2-.2-.4-.2zM487 228.8c-.1.1-.1.3-.2.4-.1 0-.3-.1-.4-.1.1-.1.1-.3.2-.3.1-.2.2-.1.4 0zM273.6 397.4c-.2.1-.4.1-.5.2 0-.1-.1-.3-.1-.4l.3-.3c.1.1.2.3.3.5zm167.2-95.5c-.1-.1-.2-.2-.2-.3.2-.1.3-.2.5-.3 0 .1.2.3.1.4-.1.2-.3.2-.4.2zm-51.1-70.7c-.1-.1-.1-.2-.2-.4.2-.1.4-.2.5-.2 0 .1.1.3 0 .4 0 .1-.2.1-.3.2zm95.3-57c-.1.1-.1.3-.2.3s-.2-.1-.4-.1c.1-.1.1-.3.2-.3s.3.1.4.1zm-65.8 163.1v-.4s.1-.1.2-.1c.1.1.1.2.2.2-.2.2-.3.3-.4.3zm-143.7-24c-.1.1-.1.3-.2.4-.1 0-.3-.1-.4-.1.1-.1.1-.3.2-.4.1 0 .2.1.4.1zM503 180.9c-.1 0-.3 0-.4.1v-.2c.1 0 .3 0 .4-.1v.2zm-48.2 155.2c.1.1.3.1.3.2s-.1.3-.1.4c-.1-.1-.3-.1-.4-.2.1-.2.1-.3.2-.4zm-117.4 45c-.1.1-.1.3-.2.4-.1 0-.3-.1-.4-.2.1-.1.1-.3.2-.4.1 0 .3.2.4.2zm114.2-2.2c-.1.1-.1.3-.2.4-.1 0-.2-.1-.4-.1.1-.1.1-.3.2-.4.1-.1.2 0 .4.1zm-9.2-43.5c-.1.1-.2.1-.3.2 0-.1-.1-.3-.1-.4s.2-.1.3-.2c0 .2 0 .3.1.4zm-62-100.7l.2.2c-.1.1-.2.1-.3.2 0 0-.1-.1-.2-.1l.3-.3zm29.1 80.7c-.1-.1-.2-.1-.3-.2.1-.1.2-.2.3-.2 0 0 .1.1.2.1-.1.1-.2.2-.2.3zM268 277.3c-.2.1-.3.3-.4.3s-.2-.1-.3-.2l.4-.4c0 .1.1.2.3.3zM255.9 335c.1 0 .1.1.2.1l-.3.3-.1-.1c0-.2.1-.2.2-.3zm223.5 40.8l-.3.6s-.2 0-.3-.1c0-.1 0-.2.1-.2.1-.1.3-.2.5-.3zM373 332.3c-.1.1-.1.3-.2.4-.1 0-.2-.1-.4-.1.1-.1.1-.3.2-.4s.3 0 .4.1zm98.3-141c-.2.1-.3.3-.5.3-.1 0-.2-.3-.3-.4.2-.1.4-.2.6-.2 0-.1.1.1.2.3zm-231.9 47.1c-.1-.1-.2-.1-.3-.2 0-.1.1-.1.1-.2h.3c0 .1-.1.3-.1.4zm101.6.1c-.1 0-.2.1-.3.1v-.2c.1 0 .2-.1.3-.1v.2zm87.3 92.6l-.2.4c-.2 0-.3-.1-.5-.2.1-.1.1-.3.2-.3s.3.1.5.1zM314.7 453.2h-.2c0-.1.1-.2.1-.3l.1.1c.1 0 .1.1 0 .2zM429.6 324c0 .1.1.3.1.3-.1.1-.2.1-.4.2 0-.1-.1-.3-.1-.4s.2-.1.4-.1zm42.5 50.9s-.1.1-.1.2l-.2-.2c.1 0 .1-.1.2-.1l.1.1zm-50.4-134.2c-.1-.1-.2-.1-.2-.2 0 0 0-.2.1-.2h.3c0 .1-.1.3-.2.4zm100-44v-.3l.2-.1c.1.1.1.2.2.2-.2.1-.3.1-.4.2zM227.3 374.1c-.1.1-.2.1-.4.2 0-.1-.1-.3-.1-.4.1-.1.2-.2.3-.2.1.1.2.2.2.4zM448.4 281c-.1.1-.1.3-.2.3s-.3-.1-.4-.1c.1-.1.1-.3.2-.3s.3.1.4.1zm20.7 24.5c0-.1-.1-.3-.1-.4s.2-.1.4-.2c0 .1.1.3.1.4-.1.1-.2.1-.4.2zm-173.2 8.7c-.1.1-.2.2-.2.3-.1-.1-.1-.2-.2-.3l.3-.3c0 .2 0 .2.1.3zm70.8 5.8c0 .1.1.1.1.2-.1.1-.2.1-.3.2l-.1-.1c.1-.2.2-.2.3-.3zm127-77.5c-.1.2-.2.4-.3.4-.2 0-.4-.1-.5-.2.1-.1.1-.3.2-.3.2 0 .4.1.6.1zm-179.8 87.7v.2h-.2v-.3c.1 0 .2.1.2.1zm189.7 3.4c.1 0 .1 0 .2-.1 0 .1 0 .2.1.2h-.2c-.1 0-.1-.1-.1-.1zm-18.7 2.6c-.1 0-.1 0-.2-.1.1-.1.1-.2.2-.2 0 .1.1.1.1.2 0 0-.1 0-.1.1zM350.2 120.8c0 .1-.1.1-.1.2 0-.1-.1-.1-.1-.2s.1-.1.1-.2c0 0 .1.1.1.2zm37.5 220.6h.1l-.1.2zm-111.6.3c-.1 0-.2.1-.3.1 0 0 0-.1-.1-.2.2.1.3.1.4.1zm11.2-.1c.1 0 .1.1.2.1-.1.1-.2.1-.3.2 0-.1-.1-.1-.1-.2.1 0 .2-.1.2-.1zm109.2 3.3c-.1 0-.2.1-.3.1v-.4s.1-.1.2-.1c0 .2 0 .3.1.4zm88.8.6v.2c-.1 0-.1 0-.2.1v-.3c.1-.1.1 0 .2 0zm-228 .8l-.1.1v-.3c0 .1 0 .2.1.2zm213.5.2c-.1.1-.2.2-.3.2-.1 0-.2-.1-.3-.2.1-.1.2-.2.3-.2.1 0 .2.1.3.2zm-8.8 1.4c0 .1 0 .2-.1.2s-.1 0-.2-.1c0-.1 0-.2.1-.2.1.1.2.1.2.1zm-29.3.5l.2-.1v.2zm-2.6 1.1c.1 0 .2 0 .2.1s0 .1-.1.2c-.1 0-.2 0-.2-.1 0 0 .1-.1.1-.2zm17.3 2.8c0 .1 0 .1-.1.2-.1-.1-.2-.1-.2-.2 0 0 .1-.1.1-.2l.2.2zm-102.4.4l.2-.1v.2zm-75 4.4c-.1 0-.2-.1-.2-.1.1-.1.1-.2.2-.4.1 0 .2.1.2.1-.1.2-.1.3-.2.4zm115.9-216.5h-.1s0-.1-.1-.2h.3c-.1.1-.1.2-.1.2zm130.1.1v-.1l.2.1zM414.8 357.4s0 .1-.1.1-.1 0-.2-.1c0 0 0-.1.1-.1 0 .1.1.1.2.1zm-6.1 2.9c0-.1-.1-.1-.1-.2.1 0 .2-.1.2-.1v.2c0 .1-.1.1-.1.1zm39.6 5.1h-.1v-.2zm-14.5 3.9v.2c-.1 0-.1 0-.2.1v-.3h.2zm-133.7 3.6c-.1 0-.1 0-.2.1 0-.1.1-.2.1-.3.1.1.1.1.1.2zm33 6c-.1.1-.1.2-.2.3l-.1-.1c0-.1.1-.2.2-.3l.1.1zm11.7 4.8c0-.1-.1-.1-.1-.2.1 0 .2-.1.2-.1v.2c.1 0 0 .1-.1.1zM416.6 161c.1 0 .1 0 .2.1-.1.1-.2.1-.2.2l-.1-.1c0-.1.1-.1.1-.2zm-33 1.1c-.1.1-.3.1-.4.1 0 0-.1-.1-.1-.2.1-.1.3-.1.4-.2 0 .1 0 .3.1.3zm61.3 229.3h.1v.2h-.3c.1-.1.2-.1.2-.2zm104.2-225.9c-.1 0-.1.1-.2.1l-.1-.1c.1 0 .1-.1.2-.1l.1.1zm-47 1.4s0-.1.1-.1h.2s0 .1-.1.1h-.2zm-115.3 1.4s0-.1.1-.1h.2s0 .1-.1.1c-.1.1-.1 0-.2 0zm8.3 231.5v.1h-.1zm-15.2 1v.1l-.2-.1zm-131.1 5.1l-.2.2c0-.1-.1-.2-.1-.4 0 0 .1-.1.1-.2 0 .2.1.3.2.4zm62.3-231.7c0-.1-.1-.1-.1-.2.1-.1.2-.1.4-.1 0 0 .1.1.1.2-.2 0-.3 0-.4.1zm-4.4 232.5c-.1 0-.1 0-.2-.1.1-.1.1-.2.2-.2 0 .1.1.1.1.2 0 0-.1 0-.1.1zm142.5.4c-.1 0-.1.1-.2.1l-.1-.1c.1-.1.2 0 .3 0zM339.4 177.5c0-.1-.1-.1-.1-.2.1-.1.2-.1.4-.2 0 0 .1.1.1.2-.1.1-.2.1-.4.2zm-44 231.1c0 .1 0 .1-.1.2l-.2-.2.1-.1c.1 0 .2 0 .2.1zm271.5-229.8c-.1.1-.2.2-.3.2s-.2-.1-.3-.2l.1-.1c.2-.1.3 0 .5.1zm-229.1 1.4c.1-.1.2-.1.4-.2 0 0 .1.1.1.2-.1.1-.2.1-.4.2 0 0 0-.2-.1-.2zm-20.9 235.9c-.1 0-.1.1-.2.1 0-.1-.1-.2-.1-.4 0 0 .1-.1.2-.1 0 .2.1.3.1.4zm78.4 0c0-.1-.1-.1-.1-.2.1 0 .1-.1.2-.1v.2c0 .1 0 .1-.1.1zM260 418c0-.1-.1-.2-.1-.3 0 0 .1 0 .1-.1v.4zm92.2-229.7c0 .1-.1.1-.1.2-.1-.1-.2-.1-.3-.2.1 0 .1-.1.2-.1s.1.1.2.1zm56.2 229.2c0 .1-.1.1-.1.2-.1-.1-.2-.1-.2-.2.1 0 .1-.1.2-.1l.1.1zm18 4.4c0 .1-.1.1-.1.2v-.3l.1.1zm-14.6 3.2c-.1 0-.2.1-.3.1v-.4s.1-.1.2-.1c0 .1 0 .3.1.4zm83.3.3c0 .1 0 .1-.1.2l-.2-.2.1-.1c.1 0 .2 0 .2.1zM384.4 427c0 .1 0 .1-.1.2-.1 0-.1 0-.2-.1 0-.1 0-.2.1-.2 0 0 .1 0 .2.1zm92.4 3.8c0 .1.1.3.1.4 0 0-.1.1-.2.1 0-.1-.1-.3-.1-.4.1 0 .2 0 .2-.1zm-84.9 5.5l.1-.2.1.2zm73.6 1.9l-.1.1v-.3c.1.1.1.2.1.2zm-111.7.7c0-.1-.1-.2 0-.2h.1s0 .1-.1.2zm23.9.1c0-.1-.1-.1-.1-.2.1 0 .2-.1.3-.1 0 .1.1.2 0 .2 0 .1-.1.1-.2.1zm64.3-.6s0 .1-.1.1c0-.1-.1-.1-.1-.2.1.1.2.1.2.1zm114.7-238.7c-.1.1-.2.1-.3.1 0 0-.1-.1-.1-.2.1 0 .2-.1.3-.1 0 .1.1.2.1.2zM435.5 450.3l.2.1h-.2zm11.9 2.2c0 .1-.1.1-.1.2-.1-.1-.1-.2-.2-.3l.1-.1c.1.1.2.1.2.2zm34.2-246.2c.1 0 .1 0 .2-.1v.3h-.2v-.2zM440.5 463c.1 0 .2 0 .2.1s0 .1-.1.2c-.1 0-.1 0-.2-.1.1-.1.1-.1.1-.2zM506 210.2c.1 0 .1-.1.2-.1 0 .1 0 .2.1.3h-.2c-.1-.1-.1-.2-.1-.2zm-122.6 254h.1v.2h-.2s.1-.1.1-.2zm-31.6 2.9l-.2-.1h.2zm53.2.2l-.1.1c-.1-.1-.1-.2-.1-.4l.1-.1c0 .2.1.3.1.4zm-13.2-254.1c-.1 0-.1 0-.2-.1l.2-.2s.1.1.2.1c-.1.1-.1.2-.2.2zm-4 255.5s-.1.1-.1 0c0 0-.1-.1-.1-.2.1 0 .2 0 .3-.1-.1.2-.1.3-.1.3zM273.7 214.2c0-.1-.1-.2-.1-.3h.4l.1.2c-.2 0-.3.1-.4.1zm305.8 1c.1 0 .2.1.4.1-.1.1-.1.2-.2.3-.1 0-.2-.1-.4-.1.1-.1.1-.2.2-.3zm-109 .7c-.1 0-.1.1-.2.1 0-.1-.1-.2-.1-.2h.2s0 .1.1.1zm75.1.2c-.1 0-.1 0-.2-.1l.2-.2c0 .1.1.1.1.2 0 0-.1 0-.1.1zm-48.7 11.7c-.1.1-.2.3-.2.3-.1 0-.3-.1-.4-.2.1-.1.1-.2.2-.2s.2 0 .4.1zm43.6 3.8c.1 0 .2-.1.3-.1 0 0 .1.1.1.2-.1 0-.2.1-.4.1.1 0 .1-.1 0-.2zm-49.4.8c.1.1.1.2 0 .3s-.3 0-.3-.1c-.1-.1.2-.2.3-.2zm12.5-2.1c.2.1.2.5 0 .6-.2.2-.8-.1-.8-.3s.6-.5.8-.3zm5.2-9.1v.2c-.1 0-.2 0-.2-.1s.2-.2.2-.1zm-4.5 2.3c-.1 0-.1-.1-.1-.1 0-.1.2-.1.2-.1 0 .1 0 .2-.1.2zm-51.7 10.2v.2l-.1-.1zm26.5 1.2v.1c-.1 0-.1 0-.2.1v-.3c.1.1.1.1.2.1zm56.8-.1c.2-.1.6.1.6.3 0 .1-.5.3-.6.1a.3.3 0 010-.4zm33.3.9c.1 0 .1 0 .1.1s0 .1-.1.2c-.1 0-.1 0-.1-.1s.1-.2.1-.2zm-88.4 6.4l.2.1h-.2zm19.6 2s0-.1.1-.1h.2s0 .1-.1.1h-.2zm-54.6.8c.1 0 .1 0 .2-.1v.3h-.2v-.2zm51.4 3.5c-.1 0-.1 0-.2.1 0-.1 0-.2-.1-.2h.2c.1 0 .1 0 .1.1zm-68.5 2.3c0 .1-.1.2-.1.2-.1-.1-.2-.2-.2-.4 0 .1.2.1.3.2zm50.4.2c-.1-.1-.2-.1-.3-.2.1 0 .1-.1.2-.1s.2.1.3.1l-.2.2zm-155.5.8l.1-.1.1.1zm128.5 5.4c0-.1-.1-.1-.1-.2.1 0 .2-.1.4-.1l.1.1c-.1.1-.3.1-.4.2zm20.4 3.3c-.1 0-.1 0-.2-.1.1-.1.1-.2.2-.2 0 .1.1.1.1.2 0 0 0 .1-.1.1zm7 .8c-.1 0-.1.1-.2.1 0-.1-.1-.1-.1-.2h.2c.1 0 .1.1.1.1zm-21 .7l.3-.3-.3.3c-.1 0 0 0 0 0zm71.7 7.4c-.1.1-.2.2-.3.2s-.1-.1-.2-.2l.1-.1c.1 0 .3.1.4.1zm13.3-.1c0 .1.1.1.1.2-.1.1-.2.1-.4.2l-.1-.1c.2-.2.3-.3.4-.3zm-70.8 4.8c.1-.1.2-.1.4-.2 0 0 .1.1.1.2-.1.1-.2.1-.4.2 0 0 0-.1-.1-.2zm40.8 4.8c.1 0 .2-.1.4-.1l.1.1c-.1 0-.2.1-.4.1 0 .1 0 0-.1-.1zm-2.6 2.1c-.1-.1-.1-.2-.2-.3.1 0 .2-.1.4-.1 0 0 .1.1.1.2-.1.1-.2.1-.3.2zm.5 3.1l.2.1-.2.1zm-126.6 1.6c-.1 0-.1 0-.2-.1l.2-.2.1.1c0 .1-.1.2-.1.2zm53 .9c0 .1.1.1.1.2s-.1.1-.1.2c-.1-.2 0-.3 0-.4zm45.6 10.7l.2.2c-.1.1-.2.1-.4.2 0 0-.1-.1-.2-.1.1-.2.3-.2.4-.3zm-128.2 3.1c-.1 0-.1.1-.2.1 0-.1-.1-.2-.1-.3h.2c0 .1 0 .2.1.2zm40.6 1.9c-.1 0-.2.1-.2.1v-.1c0-.1 0 0 .2 0zm67.1 2.1l.1-.1.1.2zm-18.3 1.2s0-.1.1-.1h.2s0 .1-.1.1c0 .1-.1 0-.2 0zm35.1.5c0-.1-.1-.2-.1-.3 0 0 .1 0 .2-.1-.1.2-.1.3-.1.4zm-114.2 4.3c-.1.1-.1.2-.2.4-.1-.1-.2-.1-.2-.1 0-.1.1-.2.2-.4.1 0 .2 0 .2.1zm113 1.7c0 .1.1.1.1.2-.1.1-.2.1-.4.2 0 0-.1-.1-.1-.2.2-.1.3-.2.4-.2zm-83.3 3.9c0 .1 0 .1.1.2h-.2s0-.1-.1-.1c0 0 .1-.1.2-.1zm10.3 1.9c0 .1-.1.1-.1.2-.1-.1-.1-.2-.2-.2.1 0 .1-.1.2-.1 0-.1 0 0 .1.1zm1.1 5.8c-.1 0-.1.1-.2.1 0-.1-.1-.2-.1-.3h.2c.1.1.1.2.1.2zm30.5.1c-.1 0-.1.1-.2.1 0-.1 0-.2-.1-.3h.2c.1.1.1.2.1.2zm-64.6 1.4c-.1-.1-.2-.2-.2-.3 0-.1.1-.2.2-.2l.1.1c0 .1 0 .2-.1.4zm117.2-192.9l-.1-.1h.2zm-191.9 14.7c-.1 0-.1.1-.2.1l-.1-.1c.1 0 .1-.1.2-.1 0-.1.1 0 .1.1zM563.6 171v.2l-.1-.1zm-224.8 3c-.1 0-.1.1-.2.1s-.1-.1-.1-.1c.1 0 .1-.1.2-.1 0 0 0 .1.1.1zm222.9 16.2l-.1.1v-.2zm-292.8 6v-.1h-.1z" class="st3_8"/></defs><style>.st3_8{fill:#5bc5dd}</style><linearGradient id="SVGID_1_8" x1="348.22" x2="348.22" y1="1230.12" y2="849.52" gradientTransform="translate(0 -710.4)" gradientUnits="userSpaceOnUse"><stop offset="0" stop-color="#1a374d"/><stop offset="1" stop-color="#1f2433"/></linearGradient><path fill="url(#SVGID_1_8)" fill-rule="evenodd" d="M145.1 424c-20.4-33.3-32.4-71.1-43-103.3-10.2-32.4-18-59.1-14.5-75.9 3.1-17.3 18.9-24.7 42-30.3 22.7-6 51.6-10.8 75.4-31 52.9-33.5 89.2-94.4 147.4-117.7 55.2-26.6 135.2-10.4 191.9 33.5 112.8 85.8 61.7 201.2-18.5 339.3-40.6 67.8-94.6 117.6-177.9 106.7-81.5-8.2-164.1-54.5-202.8-121.3" clip-rule="evenodd"/><linearGradient id="SVGID_2_8" x1="168.05" x2="570.88" y1="-706.08" y2="-706.08" gradientTransform="matrix(1 0 0 -1 0 -418.4)" gradientUnits="userSpaceOnUse"><stop offset="0" stop-color="#4aa3dc"/><stop offset="1" stop-color="#3364a0"/></linearGradient><path fill="url(#SVGID_2_8)" fill-rule="evenodd" d="M554.7 228.3c9.1 30.1 11.2 62.5 13.2 90.1 1.7 27.7 2.7 50.4-2.9 63.4-5.4 13.4-18.4 16.8-36.4 17.5-17.8 1.1-39.9.2-61.1 12.5-45 18.3-82.7 61.3-129.7 70.4-45.5 12.3-101.6-13.8-135.5-58.4-67.8-87.4-9.6-171.9 74.2-269.7 42-47.8 90.8-79 150.2-56.6 58.7 20.1 111.4 70.8 128 130.8" clip-rule="evenodd"/><path fill="#303f54" fill-rule="evenodd" d="M464.9 113.6c39.5 5.4 75.8 16.1 100.8 27.9 25.3 12 39.2 25.1 41.3 38.4 2.4 13.4-6.9 26.9-20.9 42.5-13.7 15.7-32 33.5-40 58.2-21.9 47.6-17.4 103.3-38.3 143.6-18.3 40.8-62 66-120.6 65.8-115 0-205.3-91.9-207-207 .6-57 22.1-109.3 73.9-139.8 50.1-31.3 130.5-40.7 210.8-29.6" clip-rule="evenodd"/><path d="M322.4 452.9c-.4-1-.4-1.7 0-2.3.2-.3.6-.5 1-.2.5.2.7.8.4 1.2-.3.4-.8.8-1.4 1.3zM212.3 341c-.1-.1-.4-.3-.5-.5-.2-.6.3-1.3.9-1.4.3 0 .8.4.8.7-.1.6-.5 1.1-1.2 1.2zm140-23.4c-.5-.9-.3-1.4.1-1.8.3-.3.6-.4 1-.2.4.3.5.9.1 1.2-.4.3-.8.5-1.2.8zm102.1-73.7c-.2-.3-.4-.7-.4-1s.2-.7.5-.9c.2-.1.6-.1.8 0 .2.1.2.5.2.8-.2.6-.3 1.1-1.1 1.1zm-93.2 109.9c0-.9-.1-1.3 0-1.7.1-.2.4-.4.7-.5.2-.1.5 0 .6.1s.2.4.2.6c0 .7-.6.9-1.5 1.5zm155.6-73.5c-.6 0-1.2.1-2.1.1.2-.5.2-.9.4-1 .8-.3 1.3.2 1.7.9zm-108.4 72.6c.1-.5 0-1 .2-1.5.1-.2.6-.3 1-.4.1.3.4.8.3 1-.2.4-.7.8-1 1.1-.2 0-.3-.1-.5-.2zm-87.1-109l.4-2.3c.9-.1 1.1.5 1.3 1.2-.4.3-.8.6-1.7 1.1zM269.6 278c-.4-1.1-.1-1.5.4-1.8.2-.1.5-.1.6 0s.3.5.2.6l-1.2 1.2zM381 310.2c0-.3-.1-.6 0-.7.1-.4.4-.7.8-.6.1 0 .3.1.3.3.2.5-.1.7-.4.9-.1 0-.3 0-.7.1zm-118.1 80.2c-.1-.1-.1-.1-.1-.2 0-1 .1-1.4.7-1.4.2 0 .5.2.5.4.2.7-.3 1-.8 1.2h-.3zm315.9-226.5c-.1.5-1 .8-1.3.4-.1-.1-.1-.3-.1-.4.2-.5.7-.6 1.2-.4.1.1.1.3.2.4zm-92.1 70.3c-.3-.1-.5-.2-.9-.3.5-.7.8-1.3 1.9-.9-.5.5-.8.9-1 1.2zm-.1.1c.1.1.3.1.4.2.2.2.4.5.4.7-.1.2-.4.4-.7.5-.3.1-.6-.1-.8-.1-.2-.8.4-1 .7-1.3zm-30.5 169.2c-.2-.4-.4-.6-.4-.7.1-.3.4-.5.6-.8.2.2.5.5.5.6-.1.3-.4.6-.7.9zm-32.8-265c.3-.3.5-.6.8-.9.1-.1.5.1.6.2.1.2.1.5 0 .6-.3.2-.7.3-1 .5-.2-.1-.3-.2-.4-.4zm-59.4 224.2c.1.1.2.2.3.4.1.5.2.9-.4 1.1-.1 0-.3 0-.4-.1-.4-.4-.2-.8.2-1.2 0-.2.1-.2.3-.2zm26.1-35.5c.3.2.6.4.5.5-.1.3-.2.5-.4.7-.1.1-.4-.1-.6-.2.2-.3.3-.6.5-1zm52.2-34.3c.1.3.2.5.2.7-.1.3-.2.5-.4.7 0 0-.3 0-.4-.1-.3-.3-.3-.7 0-1 .1-.1.3-.2.6-.3zm14.4-52.1c.2.3.6.5.5.7 0 .2-.3.4-.5.6-.1-.2-.4-.4-.4-.7 0-.1.2-.3.4-.6zM431 271c.2.4.4.7.6 1.1 0 0-.2.2-.3.2-.4 0-.8-.5-.7-.9-.1-.2.1-.2.4-.4zm-8.3-11.2c.4 0 .8-.1 1.2-.1 0 0 .1.3.1.4-.1.4-.8.5-1.1.3-.1-.1-.1-.2-.2-.6zm1.8-11.7c.4 0 .8-.1 1.2-.1 0 0 .1.3.1.4-.1.4-.8.5-1.1.3-.1 0-.1-.2-.2-.6zm65-10c-.7.1-1.1-.1-1.3-1 .8 0 1.3.2 1.3 1zm-37.2 67.7c-.1-.2-.2-.5-.1-.7s.4-.4.7-.5c0 0 .3.2.3.3 0 .2-.1.5-.2.6-.2.2-.5.2-.7.3 0-.1 0 0 0 0zm-227.5 81.7c.2 0 .3 0 .4.1l.6.6c-.2.1-.3.3-.5.4-.2-.2-.4-.5-.5-.7-.1-.1-.1-.2 0-.4zM513.7 246c0 .6-.3.7-.7.8-.1 0-.3-.1-.4-.2-.2-.3.2-.8.6-.8.2-.1.4.1.5.2zm15.1-96.2c.2.3.4.4.5.6-.2.2-.4.4-.7.5-.1 0-.3-.2-.4-.4.2-.2.4-.4.6-.7zM433 117.5l-1 .3s-.2-.2-.2-.4c0-.4.5-.6.9-.5.1.1.1.3.3.6zm8.2 286.9c-.2-.4-.4-.6-.4-.7.1-.2.4-.4.6-.6.1.2.4.4.3.5.1.3-.2.5-.5.8zm-170.1-136c-.5.2-.8.3-1.1.5-.1-.1-.2-.3-.2-.4l.6-.6c.2-.1.4.2.7.5zm259.4-34.5l-1 .3s-.2-.3-.1-.4c.1-.4.6-.6.9-.4 0 0 0 .2.2.5zm-71.7 144.5c-.2.2-.4.4-.6.4-.1 0-.4-.3-.4-.4 0-.2.3-.4.4-.4.2 0 .3.3.6.4zm13.6-144.8c-.9.3-1.2.6-1.4.5-.2-.1-.3-.4-.5-.6.3-.1.5-.2.8-.2.3 0 .5.1 1.1.3zm-176.5 31.7l.4.4c-.2.2-.3.4-.5.6-.1-.1-.4-.3-.4-.4.1-.3.3-.4.5-.6zm-58.8 126.2c.3-.2.5-.4.7-.6.1.2.3.3.3.5s-.2.4-.4.5c-.1 0-.3-.2-.6-.4zm109.8-8.3c-.2.1-.3.3-.5.4-.1-.2-.2-.3-.4-.5.2-.1.3-.3.5-.3.1 0 .2.2.4.4zm-47.2-205.5c-.2-.2-.3-.3-.5-.4.1-.2.3-.4.4-.4s.3.2.5.3c-.1.1-.2.3-.4.5zM431 331.1c-.5.3-.7.5-.9.5-.1 0-.3-.3-.3-.4 0-.2.3-.3.4-.4.3 0 .5.1.8.3zM502.5 214c.3-.2.4-.4.6-.4.1 0 .3.2.5.4-.2.1-.3.3-.5.4-.1-.1-.3-.3-.6-.4zM333.3 346.2c-.3-.3-.5-.4-.5-.6s.2-.4.3-.5c.1-.1.5.1.5.2 0 .3-.1.5-.3.9zm17.6 55.1c-.2.2-.4.4-.6.4-.1 0-.3-.2-.4-.4.2-.1.3-.4.5-.4.1 0 .3.3.5.4zm-96.4-80.5c-.2.1-.5.3-.7.4l-.2-.3c.2-.2.4-.4.6-.5.1 0 .1.2.3.4zm77.4-61.2c-.2-.2-.3-.3-.5-.3l.6-.6c.1.1.4.3.4.4-.1.2-.3.3-.5.5zm105.8 85.7c-.2-.3-.4-.5-.3-.7s.3-.4.5-.6c.1.2.3.3.3.5 0 .3-.2.4-.5.8zm34.2-.7c-.2-.4-.3-.6-.3-.8 0-.2.2-.4.4-.5.1 0 .4.2.4.3 0 .3-.2.5-.5 1zm27.7-162.8c-.2.1-.4.3-.5.3s-.2-.3-.3-.5c.2-.1.4-.2.6-.2 0 0 .1.3.2.4zm-37 36c.2-.7.6-.8 1.3-.4-.5.2-.9.3-1.3.4zm3.9 220.8c-.1-.3-.3-.5-.2-.6.1-.2.3-.3.5-.4.1.2.3.4.3.5-.1.2-.4.3-.6.5z" class="st3_8"/><use class="st3_8" xlink:href="#reuse-0"/><use class="st3_8" xlink:href="#reuse-1"/><path d="M199.2 260.9l.3-.3c.3.3.1.4-.1.5l-.2-.2zm121.1 159.6l-.1.2.1-.1zm-75.4-162.1c-.1 0-.1.1-.2.1s-.1-.1-.1-.2c.1 0 .1-.1.2-.1 0 0 .1.1.1.2zm15.7 176.2l-.1.1v-.1zm168.2 0l-.1.1v-.1zM285.9 255l-.2.1v-.2zm-7.6 181.6l-.1.1c0-.1-.1-.1-.1-.2l.1-.1c0 .1.1.1.1.2zm197 .9l.2-.1v.2zm-11.7-185.4l-.1.1v-.1zm-131.7 71.1v-.1h.1zm4.3 127.6h.1v.1zm11.9 0h.1v.1zm10.1-108.2v.1h-.1zm132-97.5l-.1-.2.2.1zm-25.6 209.1l-.1.1-.1-.1.1-.1s0 .1.1.1zm-.3 3.3h.2l-.1.1zm42.5-216.8l.1-.1v.2zm-95.7 76.1v.2h-.1zm22.4-22.6l-.1-.2.1.1zM332.9 470.8l.1.1h-.1zm92.1.1l-.2.2c-.1-.1-.1-.1-.1-.2s.1-.1.2-.2c0 .1.1.1.1.2zm-78.5-231.8zm0 0l.1-.1-.1.1zm82.7 69.6v.2h-.1zm9.3-17.7l-.1-.1.1.1zm111.2-59.1l.2.4h-.4zM322.4 452.9c-.4-1-.4-1.7 0-2.3.2-.3.6-.5 1-.2.5.2.7.8.4 1.2-.3.4-.8.8-1.4 1.3zM212.3 341c-.1-.1-.4-.3-.5-.5-.2-.6.3-1.3.9-1.4.3 0 .8.4.8.7-.1.6-.5 1.1-1.2 1.2zm140-23.4c-.5-.9-.3-1.4.1-1.8.3-.3.6-.4 1-.2.4.3.5.9.1 1.2-.4.3-.8.5-1.2.8zm102.1-73.7c-.2-.3-.4-.7-.4-1s.2-.7.5-.9c.2-.1.6-.1.8 0 .2.1.2.5.2.8-.2.6-.3 1.1-1.1 1.1zm-93.2 109.9c0-.9-.1-1.3 0-1.7.1-.2.4-.4.7-.5.2-.1.5 0 .6.1s.2.4.2.6c0 .7-.6.9-1.5 1.5zm155.6-73.5c-.6 0-1.2.1-2.1.1.2-.5.2-.9.4-1 .8-.3 1.3.2 1.7.9zm-108.4 72.6c.1-.5 0-1 .2-1.5.1-.2.6-.3 1-.4.1.3.4.8.3 1-.2.4-.7.8-1 1.1-.2 0-.3-.1-.5-.2zm-87.1-109l.4-2.3c.9-.1 1.1.5 1.3 1.2-.4.3-.8.6-1.7 1.1zM269.6 278c-.4-1.1-.1-1.5.4-1.8.2-.1.5-.1.6 0s.3.5.2.6l-1.2 1.2zM381 310.2c0-.3-.1-.6 0-.7.1-.4.4-.7.8-.6.1 0 .3.1.3.3.2.5-.1.7-.4.9-.1 0-.3 0-.7.1zm-118.1 80.2c-.1-.1-.1-.1-.1-.2 0-1 .1-1.4.7-1.4.2 0 .5.2.5.4.2.7-.3 1-.8 1.2h-.3zm315.9-226.5c-.1.5-1 .8-1.3.4-.1-.1-.1-.3-.1-.4.2-.5.7-.6 1.2-.4.1.1.1.3.2.4zm-92.1 70.3c-.3-.1-.5-.2-.9-.3.5-.7.8-1.3 1.9-.9-.5.5-.8.9-1 1.2zm-.1.1c.1.1.3.1.4.2.2.2.4.5.4.7-.1.2-.4.4-.7.5-.3.1-.6-.1-.8-.1-.2-.8.4-1 .7-1.3zm-30.5 169.2c-.2-.4-.4-.6-.4-.7.1-.3.4-.5.6-.8.2.2.5.5.5.6-.1.3-.4.6-.7.9zm-32.8-265c.3-.3.5-.6.8-.9.1-.1.5.1.6.2.1.2.1.5 0 .6-.3.2-.7.3-1 .5-.2-.1-.3-.2-.4-.4zm-59.4 224.2c.1.1.2.2.3.4.1.5.2.9-.4 1.1-.1 0-.3 0-.4-.1-.4-.4-.2-.8.2-1.2 0-.2.1-.2.3-.2zm26.1-35.5c.3.2.6.4.5.5-.1.3-.2.5-.4.7-.1.1-.4-.1-.6-.2.2-.3.3-.6.5-1zm52.2-34.3c.1.3.2.5.2.7-.1.3-.2.5-.4.7 0 0-.3 0-.4-.1-.3-.3-.3-.7 0-1 .1-.1.3-.2.6-.3zm14.4-52.1c.2.3.6.5.5.7 0 .2-.3.4-.5.6-.1-.2-.4-.4-.4-.7 0-.1.2-.3.4-.6zM431 271c.2.4.4.7.6 1.1 0 0-.2.2-.3.2-.4 0-.8-.5-.7-.9-.1-.2.1-.2.4-.4zm-8.3-11.2c.4 0 .8-.1 1.2-.1 0 0 .1.3.1.4-.1.4-.8.5-1.1.3-.1-.1-.1-.2-.2-.6zm1.8-11.7c.4 0 .8-.1 1.2-.1 0 0 .1.3.1.4-.1.4-.8.5-1.1.3-.1 0-.1-.2-.2-.6zm65-10c-.7.1-1.1-.1-1.3-1 .8 0 1.3.2 1.3 1zm-37.2 67.7c-.1-.2-.2-.5-.1-.7s.4-.4.7-.5c0 0 .3.2.3.3 0 .2-.1.5-.2.6-.2.2-.5.2-.7.3 0-.1 0 0 0 0zm-227.5 81.7c.2 0 .3 0 .4.1l.6.6c-.2.1-.3.3-.5.4-.2-.2-.4-.5-.5-.7-.1-.1-.1-.2 0-.4zM513.7 246c0 .6-.3.7-.7.8-.1 0-.3-.1-.4-.2-.2-.3.2-.8.6-.8.2-.1.4.1.5.2zm15.1-96.2c.2.3.4.4.5.6-.2.2-.4.4-.7.5-.1 0-.3-.2-.4-.4.2-.2.4-.4.6-.7zM433 117.5l-1 .3s-.2-.2-.2-.4c0-.4.5-.6.9-.5.1.1.1.3.3.6zm8.2 286.9c-.2-.4-.4-.6-.4-.7.1-.2.4-.4.6-.6.1.2.4.4.3.5.1.3-.2.5-.5.8zm-170.1-136c-.5.2-.8.3-1.1.5-.1-.1-.2-.3-.2-.4l.6-.6c.2-.1.4.2.7.5zm259.4-34.5l-1 .3s-.2-.3-.1-.4c.1-.4.6-.6.9-.4 0 0 0 .2.2.5zm-71.7 144.5c-.2.2-.4.4-.6.4-.1 0-.4-.3-.4-.4 0-.2.3-.4.4-.4.2 0 .3.3.6.4zm13.6-144.8c-.9.3-1.2.6-1.4.5-.2-.1-.3-.4-.5-.6.3-.1.5-.2.8-.2.3 0 .5.1 1.1.3zm-176.5 31.7l.4.4c-.2.2-.3.4-.5.6-.1-.1-.4-.3-.4-.4.1-.3.3-.4.5-.6zm-58.8 126.2c.3-.2.5-.4.7-.6.1.2.3.3.3.5s-.2.4-.4.5c-.1 0-.3-.2-.6-.4zm109.8-8.3c-.2.1-.3.3-.5.4-.1-.2-.2-.3-.4-.5.2-.1.3-.3.5-.3.1 0 .2.2.4.4zm-47.2-205.5c-.2-.2-.3-.3-.5-.4.1-.2.3-.4.4-.4s.3.2.5.3c-.1.1-.2.3-.4.5zM431 331.1c-.5.3-.7.5-.9.5-.1 0-.3-.3-.3-.4 0-.2.3-.3.4-.4.3 0 .5.1.8.3zM502.5 214c.3-.2.4-.4.6-.4.1 0 .3.2.5.4-.2.1-.3.3-.5.4-.1-.1-.3-.3-.6-.4zM333.3 346.2c-.3-.3-.5-.4-.5-.6s.2-.4.3-.5c.1-.1.5.1.5.2 0 .3-.1.5-.3.9zm17.6 55.1c-.2.2-.4.4-.6.4-.1 0-.3-.2-.4-.4.2-.1.3-.4.5-.4.1 0 .3.3.5.4zm-96.4-80.5c-.2.1-.5.3-.7.4l-.2-.3c.2-.2.4-.4.6-.5.1 0 .1.2.3.4zm77.4-61.2c-.2-.2-.3-.3-.5-.3l.6-.6c.1.1.4.3.4.4-.1.2-.3.3-.5.5zm105.8 85.7c-.2-.3-.4-.5-.3-.7s.3-.4.5-.6c.1.2.3.3.3.5 0 .3-.2.4-.5.8zm34.2-.7c-.2-.4-.3-.6-.3-.8 0-.2.2-.4.4-.5.1 0 .4.2.4.3 0 .3-.2.5-.5 1zm27.7-162.8c-.2.1-.4.3-.5.3s-.2-.3-.3-.5c.2-.1.4-.2.6-.2 0 0 .1.3.2.4zm-37 36c.2-.7.6-.8 1.3-.4-.5.2-.9.3-1.3.4zm3.9 220.8c-.1-.3-.3-.5-.2-.6.1-.2.3-.3.5-.4.1.2.3.4.3.5-.1.2-.4.3-.6.5z" class="st3_8"/><use class="st3_8" xlink:href="#reuse-0"/><use class="st3_8" xlink:href="#reuse-1"/><path d="M199.2 260.9l.3-.3c.3.3.1.4-.1.5l-.2-.2zm121.1 159.6l-.1.2.1-.1zm-75.4-162.1c-.1 0-.1.1-.2.1s-.1-.1-.1-.2c.1 0 .1-.1.2-.1 0 0 .1.1.1.2zm15.7 176.2l-.1.1v-.1zm168.2 0l-.1.1v-.1zM285.9 255l-.2.1v-.2zm-7.6 181.6l-.1.1c0-.1-.1-.1-.1-.2l.1-.1c0 .1.1.1.1.2zm197 .9l.2-.1v.2zm-11.7-185.4l-.1.1v-.1zm-131.7 71.1v-.1h.1zm4.3 127.6h.1v.1zm11.9 0h.1v.1zm10.1-108.2v.1h-.1zm132-97.5l-.1-.2.2.1zm-25.6 209.1l-.1.1-.1-.1.1-.1s0 .1.1.1zm-.3 3.3h.2l-.1.1zm42.5-216.8l.1-.1v.2zm-95.7 76.1v.2h-.1zm22.4-22.6l-.1-.2.1.1zM332.9 470.8l.1.1h-.1zm92.1.1l-.2.2c-.1-.1-.1-.1-.1-.2s.1-.1.2-.2c0 .1.1.1.1.2zm-78.5-231.8zm0 0l.1-.1-.1.1zm82.7 69.6v.2h-.1zm9.3-17.7l-.1-.1.1.1zm111.2-59.1l.2.4h-.4z" class="st3_8"/><g><linearGradient id="SVGID_3_8" x1="212.1" x2="200.79" y1="-596.81" y2="-603.23" gradientTransform="matrix(1 0 0 -1 0 -418.4)" gradientUnits="userSpaceOnUse"><stop offset="0" stop-color="#2bb1e9"/><stop offset="1" stop-color="#2295d1"/></linearGradient><path fill="url(#SVGID_3_8)" d="M190.9 152.8l41 7.8c4.6 3.7 9.3 7.4 14 11.1-10.4 14.3-20.8 28.5-31.1 42.8-7.9-20.5-15.9-41.1-23.9-61.7z"/><linearGradient id="SVGID_4_8" x1="223.36" x2="200.31" y1="-558.09" y2="-591.85" gradientTransform="matrix(1 0 0 -1 0 -418.4)" gradientUnits="userSpaceOnUse"><stop offset="0" stop-color="#33beff"/><stop offset="1" stop-color="#6deefe"/></linearGradient><path fill="url(#SVGID_4_8)" d="M190.9 152.8c9 9.8 18 19.5 27 29.3 4.7-7.2 9.3-14.4 14-21.6-13.7-2.4-27.3-5-41-7.7z"/><linearGradient id="SVGID_5_8" x1="234.49" x2="224.36" y1="-586.79" y2="-591.68" gradientTransform="matrix(1 0 0 -1 0 -418.4)" gradientUnits="userSpaceOnUse"><stop offset="0" stop-color="#33beff"/><stop offset="1" stop-color="#6deefe"/></linearGradient><path fill="url(#SVGID_5_8)" d="M217.9 182.2c9.3-3.5 18.6-6.9 28-10.4-4.6-3.7-9.3-7.4-14-11.1-4.7 7.1-9.3 14.3-14 21.5z"/><linearGradient id="SVGID_6_8" x1="236.99" x2="224.03" y1="-579.86" y2="-619.47" gradientTransform="matrix(1 0 0 -1 0 -418.4)" gradientUnits="userSpaceOnUse"><stop offset="0" stop-color="#36abea"/><stop offset="1" stop-color="#48cff2"/></linearGradient><path fill="url(#SVGID_6_8)" d="M217.9 182.2c-1 10.8-2.1 21.6-3.1 32.4l31.1-42.8c-9.4 3.5-18.7 6.9-28 10.4z"/><path fill="#6cedfd" d="M245.9 171.8c-.1-.1-.1-.1 0 0-9.6 3.2-19 6.5-28.5 9.9.1.2.3.3.5.5 9.3-3.5 18.6-6.9 28-10.4z"/><path fill="#83f6ff" d="M217.9 182.2c-15.8-17-23.7-25.5-23.6-25.6.1-.1 8.1 8.2 24 24.8a3 3 0 01-.4.8z"/><linearGradient id="SVGID_7_8" x1="236.2" x2="231.47" y1="-575.03" y2="-597.45" gradientTransform="matrix(1 0 0 -1 0 -418.4)" gradientUnits="userSpaceOnUse"><stop offset="0" stop-color="#6cedfd"/><stop offset="1" stop-color="#b1f5fd"/></linearGradient><path fill="url(#SVGID_7_8)" d="M231.9 160.6c-4.7 7.2-9.3 14.4-14 21.6 9.3-3.5 18.6-6.9 28-10.4-4.7-3.7-9.3-7.4-14-11.2z"/><path fill="#71d4ff" d="M214.8 214.6c1.9-21.6 3-32.4 3.1-32.4s-.7 10.4-2.3 31.3c-.2.3-.5.7-.8 1.1z"/></g><g><radialGradient id="SVGID_8_8" cx="433.05" cy="-350.41" r="168.85" gradientTransform="matrix(1 0 0 -1 0 -62)" gradientUnits="userSpaceOnUse"><stop offset="0" stop-color="#f6f9fd"/><stop offset=".22" stop-color="#f3f8fd"/><stop offset=".4" stop-color="#e9f3fc"/><stop offset=".56" stop-color="#d8ebfc"/><stop offset=".71" stop-color="#c0e0fb"/><stop offset=".86" stop-color="#a2d2f9"/><stop offset=".98" stop-color="#81c3f8"/></radialGradient><path fill="url(#SVGID_8_8)" d="M554.7 324.4c0 10.3-1 20.4-3 30.2l-.6 3c-.1.6-.3 1.3-.4 1.9l-.9 3.6c-17.2 65-76.3 112.9-146.6 112.9-83.7 0-151.5-67.8-151.5-151.5S319.5 173 403.2 173c2.9 0 5.7.1 8.5.2 2 .1 4.1.3 6.1.4 8.2.8 16.3 2.2 24.1 4.3 3.4.9 6.7 1.9 10 3 .8.3 1.6.6 2.5.9 50.2 18 88.2 61.8 97.9 115.3 1.6 8.8 2.4 18 2.4 27.3z"/><radialGradient id="SVGID_9_8" cx="457.15" cy="-340.75" r="149.32" gradientTransform="matrix(1 0 0 -1 0 -62)" gradientUnits="userSpaceOnUse"><stop offset="0" stop-color="#acc7ea"/><stop offset=".1" stop-color="#9dbbe1"/><stop offset=".52" stop-color="#658dc0"/><stop offset=".83" stop-color="#4170ac"/><stop offset="1" stop-color="#3465a4"/></radialGradient><path fill="url(#SVGID_9_8)" d="M549.1 359c-.4.3-.1 1.5.4 3.3.1.3.2.6.2.8l.9-3.6c-1-.7-1.4-.5-1.5-.5zm2-4.5c-.6.3-.4 2.3 0 3.1l.6-3c-.2-.1-.4-.2-.6-.1zm-3.2-8c0-.3-.1-.9-.4-1-.5-.1-1.3 1.3-1.5 1.7-1.3 2.5-.4 6.3.6 8.9.5-2.2 1.6-7.3 1.3-9.6zm-.8-14.7c-.4-.3-1.5.3-2 1-.9 1.3-.7 3.3-.1 3.5.6.2 1.6-1.1 2-2.2.3-.6.7-1.9.1-2.3zm-21.3 11.1c-.5-.6-1.3-.5-1.6-.5-.8.1-1.9.5-1.9 1.1 0 .5 1.1.9 1.9 1 .6 0 1.7-.1 1.8-.7.2-.4-.1-.9-.2-.9zm7.8 54.1c-.6.1-1.3.4-1.3.7 0 .3 1.4.3 2.2.3.6 0 1.1-.1 1.1-.3.1-.3-.9-.8-2-.7zm-3.2-1.4c-.4-.7-1.7-.8-2.2-.8-4.5-.1-11.6-1.7-11.7-.8-.2.9 6.4 2.6 10.6 2.8.9 0 3.1.1 3.4-.7.1-.2-.1-.5-.1-.5zm9.9-25.5c-.2-.6-.4-1.4-1.1-1.6-.8-.2-1.6.6-2.9 1.9-1 .9-3.1 3.1-5.4 4.5-2.7 1.6-5.2 1.9-6.5 4-.2.3-.3.5-.3.7-.8 2.2.6 4.5.7 4.6.8 1.3 2.3 1.8 5.1 2.8 4.6 1.7 5.8 1 6 .8.4-.3.5-.6.9-1.3 1.6-3.4 2.3-6.6 2.8-9 .2-.9.3-1.6.5-2.9.5-2.4.5-3.4.2-4.5zm-23.2 15.7c-.5-.5-1.4.5-2.5 0-.8-.3-1.3-1.3-2.3-3.2-.4-.7-.6-1.1-.7-1.5-.2-.7-.1-1.2-.4-1.5s-.7-.3-.9-.3c-1.4-.1-3.1-1.8-3.8-2.5-3-2.8-9.2-6.2-9.6-5.8 0 0 0 .2.4.7 1.5 2.2 2.2 3 2.2 3 2.5 2.7 3.2 3 4.2 4.3 2 2.5.9 3 3 6 1 1.4 2.4 2.7 5.4 5.2 1.7 1.4 2.6 2.1 3.3 1.8.4-.2.4-.5.8-1.9 1-3.3 1.3-3.9.9-4.3zm-48.5-20.9c-.7-1-1.6-2.3-2.2-2.1-1 .3-.1 4.4.3 5.5.1.2.2.4.4.5.3.1.6-.1 1.7-.6.7-.3.7-.3.8-.4.6-.6-.6-2.3-1-2.9zm-130-61.9c-.1-.2-.2-.8-.7-1.1-.3-.2-.7-.2-1.3-.2-.7 0-1.2 0-1.3.2-.2.5 2.9 2.5 3.4 2 .1-.2 0-.6-.1-.9zm-11.2-9.1c-.1 0-.2-.1-.3-.1-.7 0-1.3.9-1.4 1.7-.2.8.1 1.6.5 2.1.2.2.4.4.7.5.6 0 1.1-1 1.2-1.8.2-.9 0-2.1-.7-2.4zm-30.1-41c-.4-.5-1.1-.7-2.2-1-.4-.1-.6-.1-.9 0-.4.2-.6.8-.7 1.2-.2.9 0 1.2-.3 1.6-.2.2-.4.3-.6.3-.4.1-.6.1-.8.1-.7.1-1.3 1.3-1.4 1.6-.1.3-.4 1-.3 4.1.1 1.6.2 2 .5 2.2.1.1.4.2 1.7-.3 1.2-.5 2.7-1.1 3.8-2.7 0-.1.3-.4.5-.9.1-.3.7-1.4.8-3.9.1-1.2.2-1.9-.1-2.3zm14.7 7.6c-.3-.4-1-.4-2-.5-.6 0-.9 0-1.1-.3-.1-.2 0-.5.1-1 0-.5 0-.8-.2-1.5-.2-.9-.5-1.5-.6-1.7-1.3-2.8-2.6-5.2-2.6-5.2s-1-1.9-1.1-3.4v-.6c.1-.9.6-1.1.6-1.8 0-.1 0-.6-.3-.9-.1-.1-.3-.2-1-.3-1.1-.2-1.3-.1-1.5-.3-.3-.3.1-.7 0-1.7 0-.4-.1-1-.5-1.3-.6-.4-1.5.1-1.7.2-1.2.6-1.5 1.9-1.9 3.4-.5 2-.9 3.3-.2 4.5.3.4.8 1 1.5 2.1.2.3.4.7.4 1.2s-.3.6-.2.9c.1.4.9.2 1.8.5s1.8 1.2 2.1 2.2c.2.9-.1 1.7-.3 2.1-.6 1.4-1.4 1.4-2.4 2.7-.7 1-1.6 2.8-.9 3.6.7 1 3.3 0 3.5.4.1.4-3.1 1.5-2.9 2.2.1.7 4.2-.1 8.4-.3.3 0 .9 0 1.5-.4.2-.2.6-.5 1.1-2 .4-1.7.7-2.4.4-2.8zm95.5-69.1c-.3-.5-1.1-.6-1.3-.6-.3 0-.7 0-1.1.2-.5.3-.7.9-.8 1.2-.1.3-.2 1 .1 1.3.7.6 3.1-.5 3.1-1.6.2-.2.1-.5 0-.5zm11.7-11.3c-1.1-1.7-1.2-3.5-1.4-5.8v-.8c-2-.2-4-.4-6.1-.4-.1.4-.2.8-.4 1.1-.4.9-.9 1-1 1.6 0 .6.4 1.1.5 1.3.3.4.7.6.8.7 1 .5 1.5 1.5 2.1 2.3 1.4 1.7 3.7 3.1 5.9 3.5.4 0 1.8.2 2-.3.4-.6-1.2-1.3-2.4-3.2zm35.1 1.6c.4 1.3.4 2.3.4 3-.1 1-.3 1.2-.5 3.1-.1 1.2-.1 1.9.2 2.6.2.3.3.7.8 1 .7.4 1.3.1 2.7.2.5 0 1.3.1 1.9.4 1.8.8 2.9 3.5 2.2 4.9 0 .1-.3.6-.7.6-.1 0-.5-.1-1.6-2.2-.6-1.1-.7-1.6-1.1-1.7-.5-.2-1 0-1.4.3-1 .7-.7 2.1-1.1 4.1 0 .3-.4 2.3-1.2 3.9-1.1 2.2-3.5 4.8-6 4.6-1.3-.1-2.6-1-2.5-1.3 0-.2.9.1 1.8-.2.4-.1 1.3-.5 3.1-4.7 1.5-3.5 1.5-4.7 1.2-5.7-.1-.4-.2-.5-.4-.9-1.3-2.6-.7-5.9-.5-7 .2-1.3.4-3.2.4-6-3.3-1.1-6.6-2.1-10-3-.2 1-.3 2.1-.4 3.2-.3 3.1-.4 5.8-.3 8.2 1.5 1.3 2.3 2.6 2.8 3.5s1 1.9.6 2.5c-.1.1-.3.4-1.2.4-1.8 0-3-1.4-4.4-2.5-2.9-2.4-7.2-4.4-9.1-4.7-.4-.1-1.3-.2-2.2-.9-.3-.2-.5-.5-.8-.9-.8-.9-1-1.4-1.4-1.4-.3 0-.6.2-.7.5-.2.5.3 1.2 2.5 3.9.8.9 1.3 1.7 1.4 2.7 0 .1 0 .5-.1.9-.2.9-.7 1.5-1.4 2.3-.8.9-1.3 1.5-1.9 1.4-.3-.1-.4-.3-.5-.4-.1-.2-.3-.5.2-2.1.2-.6.3-.8.1-1-.2-.3-.9-.1-1.1-.1-1 .2-1.2.8-2.2 1.4-.6.4-.5.2-3.2 1.2-.9.4-.9.4-1.2.4-1 .3-2.8.5-3.2-.2-.1-.2 0-.3.4-1.9.2-.9.2-1.1.1-1.1-.1-.1-.4.3-1.1 1.1-.8.9-1.2 1.3-1.4 1.5-.7.5-1.2.4-2.4.9-.8.3-1.3.6-2.2 1.2-2 1.3-4.2 2.7-4.3 4.3 0 .2 0 .6-.3 1-.4.6-1.1.7-1.5.8-1.3.3-2.5-.2-2.7-.3-.5-.3-1.4-.7-1.6-1.5s.2-1.4.3-1.6c.4-.7.8-.5 1.4-1.2.2-.3.9-1 .7-1.9-.1-.7-.6-1.4-1.4-1.6-.8-.2-1.5.3-1.6.3-.8.5-.8 1.4-.8 1.5.1 2.6.1 5.2.2 7.8 0 .3-.1.8-.5 1-.2.1-.4.1-.5.1-.8 0-1.5.1-2.3.1-1.2 0-2.2.7-2.6.9-.9.7-2.2 2.2-2 3.7.1.7.4 1.1.3 2 0 .3-.1.9-.5 1.1-.4.2-.8.2-1.1.1-1.6-.4-4.6-1.9-5.1-2.1-.2.5-.4 1.6.1 2.3.3.4.7.6 1 .8.8.5 1.1.5 1.3.8.2.4-.3 1.1-.8 1.4-.7.5-1.4.3-1.7.3-.6-.1-.9-.4-1.7-1-.5-.4-1-.8-1.5-1.5s-.7-1.3-.9-1.9c-.1-.3-.3-.9-.4-1.7-.1-.5 0-.6-.1-1.6-.1-.8-.1-1.2-.1-1.3-.3-1.1-1.1-1.1-2.5-2.7-.2-.2-.8-.9-1.1-2-.2-.7-.1-.9 0-.9.1-.1.4-.2 1.3.2 1.1.4 1.8 1 1.9 1.1.7.5 1.7.8 3.6 1.3 2.9.8 4.4 1.1 6.1.6.6-.2 1.9-.6 2.8-1.9.2-.3.9-1.3.7-2.4-.2-1.1-1-1.8-1.7-2.3-3-2.4-1.5-1.8-4.7-4.4-2.6-2.1-4.3-3.4-5.8-3.7-.3-.1-.8-.2-1.8-.5s-1.3-.4-1.5-.8c-.3-.4.1-.8-.2-1.2-.2-.3-.6-.4-1.5-.5-1-.1-1.7-.2-1.9-.2-2.7-.2-3.2-.7-3.3-1 0-.1-.1-.1-.1-.2-.1-.9 1.7-1.3 1.8-2.2 0-.5-.6-.9-1.6-1.7s-1.1-.5-2-1.2c-.4-.4-.9-.8-1.6-1-.6-.2-.8-.1-.8-.1-.3.2 0 .8-.2 1.6-.1.5-.4 1.4-.7 1.4s-.4-.9-1.3-1.9c-.6-.6-.9-.7-1.1-.7-.3 0-.4.2-.8.4-.4.3-.5.2-2.3.9-.6.2-.9.4-1.1.5-.5.3-.7.6-1.3 1.1-1 .9-1.5 1.3-2.1 1.5-.9.2-1.4.2-1.4.2-.4 0-.7-.1-.8.1-.1.1 0 .3 0 .9 0 .4 0 .7-.2.8-.2.2-.6-.1-.7-.1-.6-.4-.6-1.1-1.2-1.7-.1-.1-.2-.2-.4-.2s-.3.1-.4.2c-1.4 1.1-2.4 2.7-2.4 2.7-.4.8-1.5 2.5-1.4 3.4 0 .1 0 .3-.1.5-.2.2-.4.3-.7.3-.7.1-1.1.1-1.5.1s-1 .1-1.4.4c-.8.5-1.2 1.8-.9 2.1.4.4 1.7-.4 2.4.1.1.1.2.2.2.3.2.5-.6 1.2-.7 1.3-.6.5-1.1.4-1.3.9-.1.2 0 .2-.1.8 0 0-.1.4-.2.9-.3.9-1.3 2.4-1.5 2.8-.7 1-1 1.8-1.8 3.3-.6 1.3-1.1 2.3-1.2 2.7-.5 1.4-.5 1.6-.9 2.4-.5 1.1-1.1 1.9-1.8 2.8-2.1 2.7-4 4.3-4 4.3-1.7 1.5-4.2 4-7.8 8.2 0 .9 0 2.2.1 3.9.1 2.2.1 3.3.4 4.4.4 2 .9 4.9 2.7 5.5 1 .3 2-.2 2.5-.5 1.8-1 3.6-3.7 4.6-4.4.1 0 .3-.2.4-.1.4.1.5.9.5 1.2.7 2.6 1.9 5 2.6 6.3.3.5 1 1.7 1.3 3.1.1.3.2.8 0 1.4-.2.5-.5.8-.9 1.1-1.4 1.2-2.1 1.9-2 2.2.1.4 1.1.4 1.7.4s1.2-.4 2.4-1c2.3-1.3 2.5-1.4 2.9-1.7.9-.7 1.4-1 1.7-1.4.7-.9.5-1.5 1.2-4.1.3-1 .5-1.8.9-2.6.3-.7.4-1.1.7-1.5.9-1.3 1.6-1.2 2.3-2.2.8-1.3.7-3.3-.3-4.1-.4-.4-.6-.2-1.2-.6-.9-.7-1.1-1.9-1.2-2.5-.3-1.9.5-3.5 1.5-5.6.9-1.8 1.3-2.8 2.3-3.9 1.7-2 3.3-2.4 3.6-4.3.1-.5.1-.9.3-1.7.4-1.3.9-2.2 1-2.4.6-1.1 1.6-2.6 3.3-2.9 1.3-.2 2.9.1 3.6 1.2.1.1.1.2.1.2.6 1.5-.6 3.7-1.9 5.6-1.2 1.8-2.8 3.8-3.3 4.3-.8.9-1.5 1.8-1.8 3.2-.1.7 0 1.1.1 2.1.5 4.3-.4 5.9.9 7.2.4.4.7.5.9.6 1.2.5 2.4.3 4.2-.3 3.7-1.1 3.6-1.6 4.9-1.5 1.4.1 2.6.7 3.8 1.3 1.2.6 1.8.9 1.7 1.3 0 .9-3.4 1.8-6.3 1.8-1.8 0-3-.3-4.6.4-.3.1-2 .9-2 1.8 0 .4.3.6.4.8.9 1 2.1 2.8 2 4.1-.1 1.2-1.3 2.5-2.2 2.4-1.1-.1-1.6-2.2-2.5-2-.1 0-.3 0-.7.6-.9 1.1-1.1 2.2-1.2 2.7-.5 2.4-.1 2.6-.6 4-.5 1.5-1.2 2.3-1.5 2.6-.4.4-1.3 1.3-2.2 1.1-.2 0-.4-.2-.8-.4-.7-.4-.8-.7-1.1-.8s-.7-.2-2.7.7c-2.1 1-3.1 1.5-3.1 1.5-.7.4-1.1.6-1.6.5-.7-.1-1.3-.6-1.6-.8-.5-.4-.4-.6-.7-.7-.6-.3-1.2.2-2.7.8-1.1.4-1.7.7-2 .5-.7-.3-.8-1.6-.8-3.4-.1-5.2.1-7.3-.7-7.6-.4-.2-1.3.2-1.8.6l-.4.4c-.8 1.1-.5 3.9-.3 5.3.4 2.8.5 4.2-.2 5-.1.1-.3.2-.7.4-2.5 1.3-4.2 1.3-4.5 2.2 0 .1 0 .3-.2.8-.1.4-.1.6-.2.7-.1.2-.3.7-.8.9-.3.1-.7.1-.7.1-2.1 1.9-3.7 3.4-4.8 4.5 0 0-4.6 4.5-6.3 4.7 0 0-.4 0-.8.3-.1.1-.4.2-.5.5-.1.2 0 .2-.1.5 0 .3-.1.5-.2.6-.3.5-1.1.5-1.5.5-.5 0-.5-.1-1.4-.2-1.5-.2-1.9-.1-2.1.1-.1.1-.2.2-.2.3 0 .4.9.8 1.9 1.5a8.9 8.9 0 013.6 5c.4 1.3 1.3 3.8.2 5.8-.1.3-.6 1-1.4 1.4-.6.3-1.2.2-1.3.2-1.3-.1-5.6-.1-11.5-.2-.7 6.9-.9 12-.8 13 .1.9.5 1.7.5 1.7.2.3.3.6.6.8 1 .9 2.3 0 3.4.7.3.2.6.5.8 1.3.8.1 1.8.2 3.2.1 2.8-.3 4.7-1.5 5.3-1.9 1.2-.8 2.7-1.8 3.1-3.6.1-.5.1-1 .1-1.4 1-1.7 2-2.9 2.7-3.6.8-.7 1-.9 1.6-1.6.5-.7 1.3-1.8 1.7-3.2.1-.6.2-1 .6-1.4s.9-.5 1.3-.5c2.5-.4 3.3.3 5-.2.9-.3 1.7-.8 1.7-.8.5-.3.7-.6 1.4-1 .6-.4.9-.6 1.3-.6.9-.1 1.7.8 1.9 1.1 1.5 1.6 3.3 2.8 4.9 4.4 0 0 4.9 5 7.6 5.4h.6c1-.1 1.6-.8 1.7-.9.2-.2.5-.6.4-.9s-.6-.2-1.1-.4c-.7-.1-1-.4-1.8-1.1-2.3-1.8-7.6-7.7-7.2-9.7.1-.5.4-.8.4-.8.4-.4 1.1-.4 1.3-.4.6 0 1.2.4 2.2 1.1 1.8 1.3 2 1.8 2 2.1 0 .1 0 .2.1.4.2.5.6.8.8.9.4.3 7.3 4.5 7.9 5.6l.2.6c.1.4.1.7.1.9 0 .5 0 1 .1 1.6 0 .9.5 1.8 1.1 2.9.9 1.5 1.3 1.5 2.1 3.1.4.8.6 1.2.7 1.7.2.8 0 1.3.4 1.6.3.2.9 0 1.3-.2 1-.4 1.5-1.2 1.8-1.7.4-.6.6-.9.6-1.5 0-.7-.4-1.2-.6-1.5-.6-.8-1.1-.6-1.5-1.4-.1-.1-.4-.6-.4-1.3 0-.7.4-1.2.6-1.4 1.1-1.3 2.9-1.3 3.3-1.3.6 0 1.9 0 2.7.9.4.4.5.9.7 1.4.3.9.3 1.3.4 2.2 0 .2.3 1.6.9 2.9.3.6.8 1.7 1.7 2.4.8.6 1.8.9 4 1 2.4.1 9.7.1 10.6.3.4.1.8.3.8.3.2.1.3.2.4.3.4.4.4 1.2.4 1.5-.3 7.6-3.3 9.5-3.3 9.5-.7.5-1.8.6-3.7.9-3.2.5-6.9 1.1-11.3.2-2.3-.5-3.5-.7-5.2-1.5-1.9-.9-2.8-1.9-4.2-1.7-1.5.2-2.4 1.4-2.6 1.6-1.1 1.4-.4 2.5-1.3 3.1-.9.8-2.6.1-5.6-1.1-2.2-.9-3.3-1.3-4.4-2.4-.4-.4-.8-.8-1.5-1.2-.7-.4-1.3-.5-2.6-.7-1.2-.2-1.3-.1-1.7-.3-1.1-.4-1.7-1.3-2-1.7-1.1-1.6-1.1-3.3-1.1-3.8 0-1.3.5-2.7 0-3.5-.1-.2-.4-.4-.4-.4-.5-.4-1.1-.4-1.3-.4-5.7-.3-12.9 1.4-12.9 1.4-3.9 1-5.8 1.4-6.6 1.9-1.1.7-2.2 1.6-3.6 1.4-.6-.1-1.2-.3-2.7-.5-.6-.1-1.2-.1-1.3-.2-1.4-.1-2.7.9-5.9 4-3.7 3.6-4.3 4.7-4.3 5.9 0 .6.2.8.2 1.7-.1 1.8-1.3 3.2-1.8 3.7-.7.7-1.1 1.3-2 1.5-.8.3-1.3.1-2 .5-.6.3-.9.8-1.1 1.1-3.1 4.3-4.6 6.4-5.3 8.6-.5 1.7-.7 3.2-.8 4.2-.1.8-.2 1.8-.3 3.2 0 4.5 1.4 6.5.1 8-.3.3-.7.7-1 1.5-.1.2-.3.9-.3 1.8.1 2.1 1.3 3.8 1.5 4 1.4 2 2.4 1.5 4.1 3.3s1 2.6 2.8 5c1.7 2.2 3.7 3.4 4.5 3.8.7.4 2.1 1.1 4.1 1.6s3.9.5 7.4.1c6.1-.8 9.1-1.1 12.5-2 0 0 3.8-1 5.5.3l.4.4c.5.6.6 1.1.8 1.3.4.8 1.7.9 3.8 1.1 1.6.1 2.3 0 3.3.6.1.1.5.3.8.7 1 1.2.7 2.8.4 7-.2 2.7-.2 3.2 0 3.9.4 1.2 1 1.8 2.2 3.3 0 0 1.3 1.6 2.9 4.1 2.2 3.3 3.2 8 2.4 12.1-.4 2.1-.9 1.9-1.8 5.6-.7 2.9-1.1 4.5-.8 6.4.3 2.3 1.2 2.7 2.7 5.9 1 2.3.9 2.9 2.2 7.2 1.5 5.1 2.2 7.6 3.3 9.4 1.4 2.6 4.9 7.6 4.2 9.8 0 0-.1.2-.1.4-.2 1.4.6 3 1.8 3.6.7.4 1.4.4 1.8.3 6.7-.4 10.5-1.9 10.5-1.9 1.8-.7 3.9-1.6 6.3-3.5 5.3-4 6.9-8.7 7.1-9.7l.2-1.2c.3-1.8.2-1.8.3-2 .3-1 .9-1.6 1.8-2.4 1.3-1.2 1.8-1.1 2.4-1.9.5-.9.4-1.7.3-2.7s-.3-4.9 1.1-7.6c.7-1.3 1.7-2.1 3.1-3.1 2.3-1.7 3.7-1.7 5-3.5.6-.8.8-1.4 1.2-2.6.4-1.2 1.4-4.1.4-7.2-.3-.8-.3-.4-1.1-2.3s-1.5-3.5-1.7-5.5c0 0-.2-1.8.2-3.7.8-4.2 5-7.8 10-12.6.5-.4 6-5.9 11.2-13.7 1.2-1.7 2.7-4.2 1.9-5.3-.7-.9-2.8-.6-6.6-.1-3.9.6-5.4 1.3-6.8.3-.6-.4-.4-.7-1.7-2.6-1.1-1.7-2.2-2.8-2.9-3.5-1.3-1.3-1.9-1.7-2.8-2.6-4.7-4.3-6.5-10.4-6.7-11.9 0-.1 0-.5-.2-1.1-.4-1.2-1.1-1.9-1.3-2.1-.5-.5-1.1-1.8-2.2-4.3-2-4.5-2.9-6.7-2-7.7.4-.5 1.2-.6 1.3-.6 2.2-.1 2.9 4.1 6.7 8.5.5.5 1.2 1.4 1.7 2.7.5 1.3.4 1.9.8 3.1.5 1.4 1.2 2.2 2.2 3.3 1.9 2.4 3.5 4.3 4.3 6.9 1 3.4 1.3 5.9 1.3 5.9.1.7.2 1.6.8 1.9.9.5 2.2-.4 3.1-.9 5.6-3.4 10.2-3.7 13.6-6.6.2-.1.5-.4.9-.7 1.6-1 2.7-.9 4.1-1.5.8-.4 1.4-.9 2.7-2 .7-.6 2.9-2.4 5-5.4.9-1.3 1.1-1.8 1.1-2.4-.1-1.5-1.8-2.5-2.2-2.7-1.4-.8-2.1-.3-2.9-1-1.3-1.2-.3-3.5-1.2-3.8-.6-.3-1.3.8-4.3 2.8-1.5 1-2.2 1.4-2.9 1.2-.8-.2-1.3-1.1-1.4-1.3-.7-1.2-.3-2.3-.7-2.5-.4-.1-.7.8-1.4.8-.8 0-1.4-1.2-1.5-1.5-.4-.8-.2-1.1-.4-1.8-.5-1.3-1.5-1.3-2.3-2.6-.8-1.2-1.2-3.1-.4-3.9.9-.9 3.2 0 4.4.8 1.9 1.2 1.6 2.1 3.9 3.6.9.6 2.2 1.5 4 1.7.9.1 1.1 0 2.2.1 1.6.3 2.7.8 3.2 1.1.4.2.6.4.7.4 1.8 1.2 5.2 1.3 8.1 1.3 3.8 0 4.8-.1 7 .4.9.2 1.6.3 2.4.7 1.7 1 1.3 2.2 2.9 3.2 1.5 1 2.8.4 3.5 1.6.4.7.4 1.4.4 1.4.1.8-.2 1.1 0 1.7 0 .1.3.7.9.9.1 0 .4.1 1-.1 1.3-.4 1.7-1.3 2.3-1.2.3.1.5.3.7.6.3.3.4.7.4.9.2 2.6.5 4.9.9 6.6 1 4.4 2.5 7.6 3.1 8.8.6 1.2.6 1 1.1 2 1.2 2.5 1.6 4.2 3.1 6.4.8 1.2 1.1 1.3 1.3 1.3 1 0 1.9-2.3 3-5.1.3-.8.7-1.7 1-3 .5-1.9.4-2.3.9-3.9.4-1.1.7-2.2 1.6-3.4.7-.9 1.4-1.4 1.8-1.7 2.7-2 1.8-1.8 7.2-5.9 4.4-3.3 5.6-3.9 6.7-4.2 1.7-.6 2.9-1 4.3-.5 1.5.5 2.6 2.3 4.9 6.1 1.1 1.8 1.7 2.7 1.8 3.7.2 1 .1 2 .7 2.3.3.2.8 0 1.8-.2.9-.2.9-.3 1.3-.3.1 0 1 0 1.7.4.9.6 1 1.8 1.1 2.4.2 2 .6 6.3 1 12.1.2.4.6 1 1.1 1.8 1.9 3.1 2.3 3.4 2.9 4.8.6 1.6.2 1.6.8 2.9.2.5.9 1.9 2.5 3.1.4.4 2.3 1.9 2.9 1.5.7-.5-.8-4-2.9-6.8-.9-1.2-4.1-5.2-5.6-7.3-.1-.1-.2-.4-.4-.7-.4-1.2.3-2.2 1-3.9 1.1-2.6 1.3-4 1.8-4 .3 0 .3.7 1 1.3.8.7 1.7.7 2.1.7 3.1.3 4.4 6.5 6.8 6.3 1 0 .8-1.1 3.5-3.1 1.3-.9 1.7-.9 2.2-1.7 1.1-1.5.8-3.5.7-4.1-.4-2.9-2.4-5.1-3.8-6.8-1-1.2-2.1-2.2-2.2-3.9-.1-.8.1-1.4.2-1.7.5-1.6 1.8-2.4 4.3-4 .8-.5 1.1-.6 1.4-.5.8.2.7 1.6 2 2.4.2.2.8.5 1.2.3.5-.2.6-.7.7-.9.7-1.7 4.9-2.3 8.2-3.6 1.8-.7 2.9-1.5 4.5-2.5 6.3-4.2 10.3-11.4 9-13-.7-.8-2.8 0-2.9-.6-.1-.4 1.5-.9 1.9-2.1.3-.8-.1-1.6-.8-2.9-2.8-5.2-3.1-5.8-2.9-6.6.3-1 .9-.9 2-3 .2-.3 1.1-2.2.7-2.6-.3-.3-1.1.7-2.4.6-.2 0-.5-.1-1.5-.6-1.8-1-2.7-1.6-2.7-2.3-.1-.9 1.3-1 3.5-3.2 1.4-1.4 2-2.5 3.7-3.1 1-.3 1.3-.1 1.3-.1.7.6-.8 2.7-.1 3.5.4.4 1.3.2 3.3-.1.3-.1.6-.1.9-.2-10.3-52.2-48.3-96-98.5-114zM391 290.9c-.1.9-.7 1.4-.9 1.7-1.6 1.6-4.4 1.2-6 1-1.7-.2-1.8-.5-5.3-1.3-1.7-.4-2.5-.5-3-.6-3.3-.1-6.1 1.6-6.9 2.1-.3.2-2.5 1.5-4.3 2-.3.1-.8.2-1.3-.1-.6-.4-.7-1.2-.7-1.3 0-.2 0-.5.1-.7.4-.7 1.7-.2 1.9-.7.2-.3-.3-.8-.6-1.2-.2-.3-.6-1.1.2-4.1.9-3.1 2.2-5.2 3.1-6.6.6-1 1.5-2.2 2.8-2.5.6-.1 1.1-.1 1.1-.1.5 0 .9.2 1.8.5.6.3.6.3.9.4 1 .3 1.4 0 1.6.2.2.3-.2.8-.5 2.1 0 .3-.1.6.1.9s.5.5.8.5c.6 0 1-.7 1.9-2.1 1-1.6 1.5-2.4 1.6-2.5.7-.7 2-.9 4.5-1.4.7-.1 1.9-.4 1.9-.1 0 .1-.4.3-.9 1-.1.1-.2.4-.5.8-.4.7-.7 1-.7 1.1-.2.8.2 1.3-.1 1.6-.2.2-.4.1-.5.3-.2.3 0 .8.1.9.2.4.4.5.4.6 1.3.9 4.1 2.8 5.6 4.3.9.8 1.9 2 1.8 3.3zm23.7 10c0 .8-.2 2.1-1.2 3.2-.5.6-1.1.9-1.2.9-.9.3-1.6.1-2.4-.1-1.2-.4-2.1-1-3.9-2.4-.6-.4-.8-.6-1-.9-.6-1-.4-2.2-.3-2.7.1-.8.4-1.3.5-1.5.8-1.9 0-4.1-.5-5.3-.9-2.5-2.1-3-2.9-6.1-.2-.6-.3-.9-.3-1.2-.1-3.1 4-5.4 5.3-6.1 2.3-1.3 3.7-1.2 4.4-1.1.5.1 1.8.2 2.2 1.1 0 0 .1.2.1.5.1 1.4-4.9 4.4-5.6 4.8 1.1 1 2.6 2.6 3.7 4.9.4.9.8 2.1 1.6 4.6 1.4 4.2 1.6 5.8 1.5 7.4zm14.1-19.7c0 .3-.4 4.4-2.4 4.9-.6.2-1.1 0-1.1 0s-.8-.2-1.4-1.1c-1-1.7.5-4.9 2.7-6.3.4-.3 1.1-.8 1.7-.5.7.3.6 2.1.5 3z"/></g></svg>