<svg xmlns="http://www.w3.org/2000/svg" id="layer_1" x="0" y="0" enable-background="new 0 0 400 400" version="1.1" viewBox="0 0 400 400" xml:space="preserve"><defs/><style>.st9_13{fill:#14466a}.st12_13{fill:#86d8dd}.st13_13{opacity:.15;fill:#fff7cc}.st14_13{fill:#146b87}.st15_13{fill:#00ebaa}.st19_13,.st31_13{opacity:.85;fill:#fff7cc}.st31_13{opacity:.6}</style><radialGradient id="SVGID_1_13" cx="108.48" cy="344.63" r="206.56" gradientUnits="userSpaceOnUse"><stop offset=".22" stop-color="#fff6db"/><stop offset=".36" stop-color="#fdeed5"/><stop offset=".58" stop-color="#f7d6c5"/><stop offset=".85" stop-color="#eeb1aa"/><stop offset="1" stop-color="#e89999"/></radialGradient><path fill="url(#SVGID_1_13)" d="M213.9 198.5c-28.6-5.3-57.2-5.3-85.8 0-13.6 15.2-24.7 34.9-34.1 57.6-8.4 20.2-1.7 43.7 16.4 56 17.5 11.9 34.8 20 52.2 24 5.6 1.3 11.5 1.2 17.1-.3 17.7-4.6 34.7-12.5 51.1-23.3 18.6-12.3 25.9-36.3 17-56.8-9-20.4-20.1-39.6-33.9-57.2z"/><radialGradient id="SVGID_2_13" cx="110.21" cy="237.13" r="115.58" gradientUnits="userSpaceOnUse"><stop offset=".06" stop-color="#fffceb"/><stop offset=".22" stop-color="#fff7cc"/><stop offset=".29" stop-color="#fee2da"/><stop offset=".37" stop-color="#fccde8"/><stop offset=".43" stop-color="#fcc5ed"/><stop offset=".5" stop-color="#e3c2f0"/><stop offset=".61" stop-color="#b4bbf7"/><stop offset=".66" stop-color="#b4bff6"/><stop offset=".72" stop-color="#b4ccf5"/><stop offset=".78" stop-color="#b4e2f2"/><stop offset=".79" stop-color="#b4e6f1"/></radialGradient><path fill="url(#SVGID_2_13)" d="M213.9 198.5c-28.6-5.3-57.2-5.3-85.8 0-13.6 15.2-24.7 34.9-34.1 57.6-8.4 20.2-1.7 43.7 16.4 56 17.5 11.9 34.8 20 52.2 24 5.6 1.3 11.5 1.2 17.1-.3 17.7-4.6 34.7-12.5 51.1-23.3 18.6-12.3 25.9-36.3 17-56.8-9-20.4-20.1-39.6-33.9-57.2z"/><linearGradient id="SVGID_3_13" x1="135.08" x2="180.98" y1="229.16" y2="252.11" gradientUnits="userSpaceOnUse"><stop offset="0" stop-color="#a7acf2"/><stop offset=".12" stop-color="#a0b6ed"/><stop offset=".4" stop-color="#91c9e4"/><stop offset=".69" stop-color="#89d4df"/><stop offset="1" stop-color="#86d8dd"/></linearGradient><path fill="url(#SVGID_3_13)" d="M246.2 256.4c-8.3-19-18.4-36.5-30-52.1.7 0 1.3-.1 2-.1l-4.3-5.7h-85.8l-3.5 4.1c29.3 3.3 58.7 3.9 88.4 1.9 2.7 40.2-.2 87-18.1 124.7a175.4 175.4 0 0034.9-18c18.1-12 25.1-35 16.4-54.8z"/><defs><filter id="Adobe_OpacityMaskFilter" width="60.7" height="131.2" x="92.1" y="196.9" filterUnits="userSpaceOnUse"><feFlood flood-color="#fff" flood-opacity="1" result="back"/><feBlend in="SourceGraphic" in2="back"/></filter></defs><mask id="SVGID_4_13" width="60.7" height="131.2" x="92.1" y="196.9" maskUnits="userSpaceOnUse"><g filter="url(#Adobe_OpacityMaskFilter)"><defs><filter id="Adobe_OpacityMaskFilter_1_" width="60.7" height="131.2" x="92.1" y="196.9" filterUnits="userSpaceOnUse"><feFlood flood-color="#fff" flood-opacity="1" result="back"/><feBlend in="SourceGraphic" in2="back"/></filter></defs><linearGradient id="SVGID_5_13" x1="94.26" x2="173.32" y1="229.27" y2="280.78" gradientUnits="userSpaceOnUse"><stop offset="0" stop-color="#fff"/><stop offset="1"/></linearGradient><path fill="url(#SVGID_5_13)" d="M141 315.9v-.1c-3.3-13.7-3.8-28.1-2.3-42.1 0-.3.1-.5.1-.8.9-25.3 5.6-50.4 13.7-75.1.1-.3.1-.7.2-1-7.9.6-15.9 1.6-23.8 3.1-12.5 14.2-23.5 32.7-33.5 56.8-8.1 19.5-1.5 42.3 15.8 54.1 10.6 7.2 21.2 12.9 31.7 17.3-.7-4.1-1.3-8.1-1.9-12.2z" mask="url(#SVGID_4_13)"/></g></mask><linearGradient id="SVGID_6_13" x1="94.26" x2="173.32" y1="229.27" y2="280.78" gradientUnits="userSpaceOnUse"><stop offset="0" stop-color="#fff7cc"/><stop offset="1" stop-color="#fff7cc"/></linearGradient><path fill="url(#SVGID_6_13)" d="M141 315.9v-.1c-3.3-13.7-3.8-28.1-2.3-42.1 0-.3.1-.5.1-.8.9-25.3 5.6-50.4 13.7-75.1.1-.3.1-.7.2-1-7.9.6-15.9 1.6-23.8 3.1-12.5 14.2-23.5 32.7-33.5 56.8-8.1 19.5-1.5 42.3 15.8 54.1 10.6 7.2 21.2 12.9 31.7 17.3-.7-4.1-1.3-8.1-1.9-12.2z"/><path fill="#fff" d="M194.5 196.5l-.9.5c8.2 14.1 16.7 28.7 22.2 44.4 6.4 18 8 33.6 4.9 47.8-4.5 1.1-8.9 2.4-13.2 3.7-4.4 1.3-8.8 2.6-13.5 3.7l-.5.1.1.5c2 11.1 2.6 22.3 1.9 33.5.3-.1.7-.3 1-.4.6-11 0-21.9-1.9-32.8 4.5-1.1 8.8-2.4 13-3.6 4.4-1.3 8.9-2.6 13.5-3.7l.3-.1.1-.3c3.2-14.5 1.6-30.4-4.9-48.7-5.4-15.8-13.9-30.4-22.1-44.6zm-61.6 23.6a91.1 91.1 0 018.4-22.7l-.9-.5c-3.9 7.4-6.8 15.2-8.6 23.4l-.1.4.4.2c8.9 4.5 18.8 7 28.6 7.3-6.3 18.3-9.3 38.4-8.4 56.7-18.6-.8-36-5.1-50.3-12.6l-.5-.3-.2.6c-3.6 10-3.8 20.9-.8 30.4.6.8 1.2 1.5 1.9 2.3-3.8-9.8-4-21.2-.4-31.8 14.5 7.5 32 11.8 50.8 12.5h.6v-.6c-1-18.5 2.1-39 8.6-57.6l.2-.7h-.7c-9.9-.2-19.7-2.6-28.6-7z" opacity=".65"/><path fill="#22567d" d="M193.9 195.7h-.4l-.6.3c8.2 14.1 16.7 28.7 22.2 44.4 6.4 18 8 33.6 4.9 47.8-4.5 1.1-8.9 2.4-13.2 3.7-4.4 1.3-8.8 2.6-13.5 3.7l-.5.1.1.5c2 11.5 2.7 23.2 1.9 34.8.3-.1.7-.3 1-.4.7-11.4.1-22.9-1.8-34.2 4.5-1.1 8.8-2.4 13-3.6 4.4-1.3 8.9-2.6 13.5-3.7l.3-.1.1-.3c3.2-14.5 1.6-30.4-4.9-48.7-5.4-15.7-13.9-30.2-22.1-44.3zm-54.6 1c-3.7 7.1-6.4 14.7-8.2 22.5l-.1.4.4.2c8.9 4.5 18.8 7 28.6 7.3-6.3 18.3-9.3 38.4-8.4 56.7-18.6-.8-36-5.1-50.3-12.6l-.5-.3-.2.6a48.56 48.56 0 00-.7 30.8c.7.9 1.3 1.7 2.1 2.5-4.1-9.9-4.3-21.6-.6-32.4 14.5 7.5 32 11.8 50.8 12.5h.6v-.6c-1-18.5 2.1-39 8.6-57.6l.2-.7h-.7c-9.8-.1-19.7-2.6-28.6-7 1.8-7.8 4.6-15.4 8.3-22.5-.5.1-.9.1-1.3.2z"/><path d="M112.1 185l25.1.3-1.3-8.3-21.9 2.2z" class="st9_13"/><linearGradient id="SVGID_7_13" x1="128.53" x2="55.85" y1="259.45" y2="185.62" gradientTransform="translate(-56.15 -75.33)" gradientUnits="userSpaceOnUse"><stop offset="0" stop-color="#fff7cc"/><stop offset=".35" stop-color="#fcb8e2"/><stop offset=".39" stop-color="#f8b8e3"/><stop offset=".43" stop-color="#ebb6e6"/><stop offset=".48" stop-color="#d5b4ec"/><stop offset=".53" stop-color="#b7b1f3"/><stop offset=".55" stop-color="#a8b0f7"/><stop offset=".61" stop-color="#a9b4f7"/><stop offset=".68" stop-color="#acc1f5"/><stop offset=".75" stop-color="#b1d7f3"/><stop offset=".79" stop-color="#b4e6f1"/></linearGradient><path fill="url(#SVGID_7_13)" d="M27.9 153l95.3-8.5-18.2 60.3-103.7-.2z"/><linearGradient id="SVGID_8_13" x1="91.52" x2="149.59" y1="222.7" y2="281.53" gradientTransform="translate(-56.15 -75.33)" gradientUnits="userSpaceOnUse"><stop offset="0" stop-color="#131f49"/><stop offset=".8" stop-color="#14466a"/><stop offset="1" stop-color="#006099"/></linearGradient><path fill="url(#SVGID_8_13)" d="M38.9 155.9l-4.3 8.8c-.8.6-1.2.9-2 1.4-3.4.2-5.1.3-8.5.6-.2-.5-.4-.8-.6-1.2 1.8-3.5 2.7-5.2 4.5-8.6.8-.6 1.2-.9 2-1.4 3.3-.3 5-.4 8.3-.7.2.3.3.6.6 1.1zm-6.5 10.7l-8.5.5c-.8.6-1.2.9-2 1.4l-4.5 8.7c.2.5.4.8.6 1.3 3.5-.1 5.2-.2 8.7-.4.8-.5 1.2-.9 2-1.4l4.3-8.8c-.2-.5-.3-.8-.6-1.3zm-5.8 11.9c-3.5.1-5.2.2-8.7.4-.8.5-1.2.8-2 1.4l-4.5 8.7c.3.5.4.8.7 1.3 3.5-.1 5.3-.1 8.8-.2.8-.5 1.2-.8 2-1.4l4.3-8.8c-.2-.6-.4-.9-.6-1.4zm-5.9 12c-3.5.1-5.3.1-8.8.2-.8.5-1.2.8-2 1.3-1.8 3.5-2.7 5.2-4.5 8.6.3.5.4.8.7 1.3h9c.8-.5 1.2-.8 2-1.3l4.3-8.8c-.3-.5-.4-.8-.7-1.3zm29.5-35.6c-1.7 3.6-2.5 5.4-4.1 9-.8.6-1.2.9-1.9 1.5-3.4.2-5.1.3-8.5.6-.3-.5-.4-.8-.6-1.3l4.3-8.8c.8-.6 1.2-.9 1.9-1.5 3.3-.3 5-.4 8.3-.7.2.4.4.7.6 1.2zM44 165.8c-3.4.2-5.1.3-8.5.6-.8.6-1.2.9-2 1.4l-4.3 8.8c.3.5.4.8.7 1.3 3.5-.1 5.2-.2 8.7-.4.8-.6 1.2-.9 2-1.4 1.7-3.6 2.5-5.4 4.1-9-.3-.5-.5-.8-.7-1.3zM38.3 178c-3.5.1-5.2.2-8.7.4-.8.6-1.2.9-2 1.4l-4.3 8.8c.3.5.4.8.7 1.3 3.5-.1 5.3-.1 8.8-.2.8-.5 1.2-.9 2-1.4 1.7-3.6 2.5-5.4 4.1-9-.1-.5-.3-.7-.6-1.3zm-5.6 12.2c-3.5.1-5.3.1-8.8.2-.8.5-1.2.8-2 1.4l-4.3 8.8c.3.5.4.8.7 1.4h9c.8-.5 1.2-.8 2-1.4 1.7-3.6 2.5-5.4 4.1-9-.3-.5-.4-.8-.7-1.4zm28.9-36.3l-4 9.2c-.7.6-1.2.9-1.9 1.5-3.4.2-5.1.3-8.5.6-.3-.5-.4-.8-.7-1.3 1.7-3.6 2.5-5.4 4.1-9 .7-.6 1.2-.9 1.9-1.5 3.3-.3 5-.4 8.3-.7.3.4.5.7.8 1.2zm-6.1 11.2c-3.4.2-5.1.3-8.5.6-.8.6-1.2.9-1.9 1.5-1.7 3.6-2.5 5.4-4.1 9 .3.5.4.8.7 1.3 3.5-.1 5.2-.2 8.7-.4.8-.6 1.2-.9 1.9-1.5l4-9.2c-.4-.5-.5-.8-.8-1.3zm-5.4 12.4c-3.5.1-5.2.2-8.7.4-.8.6-1.2.9-2 1.4-1.7 3.6-2.5 5.4-4.1 9 .3.5.4.8.7 1.4 3.5-.1 5.3-.1 8.8-.2.8-.6 1.2-.9 2-1.4l4-9.2c-.2-.5-.4-.8-.7-1.4zM44.7 190c-3.5.1-5.3.1-8.8.2-.8.6-1.2.9-2 1.4-1.6 3.6-2.5 5.4-4.1 9 .3.5.5.8.7 1.4h9c.8-.5 1.2-.9 2-1.4l4-9.2c-.3-.6-.5-.9-.8-1.4zm28.2-37c-1.5 3.8-2.3 5.6-3.8 9.4-.7.6-1.1.9-1.9 1.5-3.4.2-5.1.3-8.5.6-.3-.5-.4-.8-.7-1.3 1.6-3.7 2.4-5.5 3.9-9.2.7-.6 1.1-.9 1.9-1.5 3.3-.3 5-.4 8.3-.7.4.3.5.6.8 1.2zM67 164.3c-3.4.2-5.1.3-8.5.6-.7.6-1.2.9-1.9 1.5l-4 9.2c.3.5.4.8.7 1.4 3.5-.1 5.2-.2 8.7-.4.7-.6 1.2-.9 1.9-1.5 1.5-3.8 2.3-5.6 3.8-9.4-.2-.5-.4-.8-.7-1.4zm-5.1 12.8c-3.5.1-5.2.2-8.7.4-.8.6-1.2.9-1.9 1.5-1.6 3.7-2.4 5.5-3.9 9.2.3.5.5.8.7 1.4 3.5-.1 5.3-.1 8.8-.2.8-.6 1.2-.9 1.9-1.5 1.5-3.8 2.3-5.6 3.8-9.4-.2-.6-.4-.9-.7-1.4zm-5.1 12.7c-3.5.1-5.3.1-8.8.2-.8.6-1.2.9-2 1.4-1.6 3.7-2.4 5.5-3.9 9.2.3.6.5.9.8 1.4h9c.8-.6 1.2-.9 2-1.4 1.5-3.8 2.3-5.6 3.8-9.4-.5-.6-.6-.9-.9-1.4zM84.2 152c-1.4 3.8-2.2 5.8-3.6 9.6-.7.6-1.1.9-1.8 1.6-3.4.2-5.1.3-8.5.6-.3-.5-.4-.8-.7-1.4 1.5-3.8 2.3-5.7 3.8-9.4.7-.6 1.1-.9 1.8-1.6 3.3-.3 5-.4 8.3-.7.3.4.4.7.7 1.3zm-5.6 11.6l-8.5.5c-.7.6-1.1.9-1.9 1.5-1.5 3.8-2.3 5.7-3.8 9.4.3.5.5.8.7 1.4 3.5-.1 5.2-.2 8.7-.4.7-.6 1.1-.9 1.9-1.5 1.4-3.8 2.2-5.8 3.6-9.6-.3-.5-.4-.8-.7-1.3zm-4.9 13c-3.5.1-5.2.2-8.7.4-.7.6-1.2.9-1.9 1.5-1.5 3.8-2.3 5.7-3.8 9.4.3.6.5.9.8 1.4 3.5-.1 5.3-.1 8.8-.2.7-.6 1.2-.9 1.9-1.5 1.4-3.8 2.2-5.8 3.6-9.6-.2-.6-.4-.9-.7-1.4zm-4.9 12.9c-3.5.1-5.3.1-8.8.2-.8.6-1.2.9-1.9 1.5-1.5 3.8-2.3 5.7-3.8 9.4.3.6.5.9.8 1.4h9c.8-.6 1.2-.9 1.9-1.5 1.4-3.8 2.2-5.8 3.6-9.6-.3-.5-.5-.8-.8-1.4zM95.6 151c-1.4 3.9-2.1 5.9-3.4 9.8-.7.6-1.1 1-1.8 1.6-3.4.2-5.1.3-8.5.6-.3-.5-.5-.8-.7-1.4 1.4-3.8 2.2-5.8 3.6-9.6.7-.6 1.1-1 1.8-1.6 3.3-.3 5-.4 8.3-.7.2.5.4.8.7 1.3zm-5.5 11.8l-8.5.5c-.7.6-1.1.9-1.8 1.6-1.4 3.8-2.2 5.8-3.6 9.6.3.6.5.9.8 1.4 3.5-.1 5.2-.2 8.7-.4.7-.6 1.1-.9 1.8-1.6 1.4-3.9 2.1-5.9 3.4-9.8-.3-.4-.5-.7-.8-1.3zm-4.6 13.3c-3.5.1-5.2.2-8.7.4-.7.6-1.1.9-1.9 1.5-1.4 3.8-2.2 5.8-3.6 9.6.3.6.5.9.8 1.4 3.5-.1 5.3-.1 8.8-.2.7-.6 1.1-.9 1.9-1.5 1.4-3.9 2.1-5.9 3.4-9.8-.3-.5-.4-.9-.7-1.4zm-4.7 13.2c-3.5.1-5.3.1-8.8.2-.7.6-1.2.9-1.9 1.5-1.4 3.8-2.2 5.8-3.6 9.6.3.6.5.9.8 1.5h9c.7-.6 1.2-.9 1.9-1.5 1.4-3.9 2.1-5.9 3.4-9.8-.3-.6-.5-.9-.8-1.5zm26.1-39.3c-1.3 4-2 6-3.3 10-.7.6-1.1 1-1.8 1.6-3.4.2-5.1.3-8.5.6-.3-.6-.5-.9-.8-1.4 1.4-3.9 2.1-5.9 3.4-9.8.7-.6 1.1-1 1.8-1.6 3.3-.3 5-.4 8.3-.7.4.5.6.8.9 1.3zm-5.2 12.1l-8.5.5c-.7.6-1.1 1-1.8 1.6-1.4 3.9-2.1 5.9-3.4 9.8.3.6.5.9.8 1.4 3.5-.1 5.2-.2 8.7-.4.7-.6 1.1-1 1.8-1.6 1.3-4 2-6 3.3-10-.4-.4-.6-.7-.9-1.3zm-4.5 13.5c-3.5.1-5.2.2-8.7.4-.7.6-1.1.9-1.8 1.6-1.4 3.9-2.1 5.9-3.4 9.8.3.6.5.9.8 1.5 3.5-.1 5.3-.1 8.8-.2.7-.6 1.1-.9 1.8-1.6 1.3-4 2-6 3.3-10-.3-.6-.4-.9-.8-1.5zm-4.4 13.5c-3.5.1-5.3.1-8.8.2-.7.6-1.1.9-1.9 1.5-1.4 3.9-2.1 5.9-3.4 9.8.3.6.5.9.9 1.5h9c.7-.6 1.1-.9 1.9-1.5 1.3-4 2-6 3.3-10-.5-.6-.7-.9-1-1.5zm25.4-40.1c-1.2 4.1-1.8 6.1-3.1 10.2-.7.6-1.1 1-1.8 1.6-3.4.2-5.1.3-8.5.6-.3-.6-.5-.9-.8-1.4 1.3-4 1.9-6 3.2-10 .7-.6 1.1-1 1.8-1.6 3.3-.3 5-.4 8.3-.7.4.5.6.8.9 1.3zm-5 12.4l-8.5.5c-.7.6-1.1 1-1.8 1.6-1.3 4-1.9 6-3.2 10 .3.6.5.9.8 1.5 3.5-.1 5.2-.2 8.7-.4.7-.6 1.1-1 1.8-1.6 1.2-4.1 1.8-6.1 3.1-10.2-.4-.6-.6-.9-.9-1.4zm-4.2 13.7c-3.5.1-5.2.2-8.7.4-.7.6-1.1 1-1.8 1.6-1.3 4-1.9 6-3.2 10 .3.6.5.9.9 1.5 3.5-.1 5.3-.1 8.8-.2.7-.6 1.1-1 1.8-1.6 1.2-4.1 1.8-6.1 3.1-10.2-.4-.6-.5-.9-.9-1.5zm-4.2 13.8c-3.5.1-5.3.1-8.8.2-.7.6-1.1.9-1.8 1.6-1.3 4-1.9 6-3.2 10 .3.6.5.9.9 1.5h9c.7-.6 1.1-.9 1.8-1.6 1.2-4.1 1.8-6.1 3.1-10.2l-1-1.5z"/><path d="M123.2 144.5l2.3 1.1-17.5 60.7-104.3-.2-2.4-1.5 103.7.2z" class="st12_13"/><path d="M55.5 165.1c.3.5.4.8.7 1.3l-4 9.2c-.8.6-1.2.9-1.9 1.5-3.5.1-5.2.2-8.7.4-.3-.5-.4-.8-.7-1.3 1.7-3.6 2.5-5.4 4.1-9 .8-.6 1.2-.9 1.9-1.5 3.5-.3 5.2-.4 8.6-.6zm-44.1 23.8c.3.5.4.8.7 1.3 3.5-.1 5.3-.1 8.8-.2.8-.5 1.2-.8 2-1.4l4.3-8.8c-.3-.5-.4-.8-.7-1.3-3.5.1-5.2.2-8.7.4-.8.5-1.2.8-2 1.4-1.7 3.4-2.6 5.2-4.4 8.6zm24.1-22.5c-.8.6-1.2.9-2 1.4l-4.3 8.8c.3.5.4.8.7 1.3 3.5-.1 5.2-.2 8.7-.4.8-.6 1.2-.9 2-1.4 1.7-3.6 2.5-5.4 4.1-9-.3-.5-.4-.8-.7-1.3-3.4.3-5.1.4-8.5.6zm27.6 12c-.2.6-.5 1.2-.7 1.7l6.1-3.3c-1.1 0-2.2.1-3.5.1-.7.6-1.1.9-1.9 1.5zm-39.2-11.3c-.8.6-1.2.9-2 1.4l-4.5 8.7c.2.5.4.8.6 1.3 3.5-.1 5.2-.2 8.7-.4.8-.5 1.2-.9 2-1.4l4.3-8.8c-.3-.5-.4-.8-.6-1.3l-8.5.5zm34.7-2.2c-.7.6-1.2.9-1.9 1.5l-4 9.2c.3.5.4.8.7 1.4 3.5-.1 5.2-.2 8.7-.4.7-.6 1.2-.9 1.9-1.5 1.5-3.8 2.3-5.6 3.8-9.4-.3-.5-.4-.8-.7-1.4-3.4.3-5.1.4-8.5.6zm-37.9 25.6c-3.5.1-5.3.1-8.8.2-.8.5-1.2.8-2 1.3-1.8 3.5-2.7 5.2-4.5 8.6.3.5.4.8.7 1.3h9c.8-.5 1.2-.8 2-1.3l4.3-8.8c-.3-.5-.4-.8-.7-1.3zm49.4-26.4c-.7.6-1.1.9-1.9 1.5-1.5 3.8-2.3 5.7-3.8 9.4.3.5.5.8.7 1.4 1.7-.1 3-.1 4.3-.2l7.1-3.8c1-2.6 1.7-4.4 2.8-7.5-.3-.5-.5-.8-.7-1.4-3.4.3-5.1.4-8.5.6zm39-15.8c-.7.6-1.1 1-1.8 1.6-.9 2.8-1.5 4.7-2.3 6.9l12.9-7 .3-.9c-.3-.6-.5-.9-.8-1.4-3.3.4-5 .5-8.3.8zm-17.7 15.9c0 .1 0 .1-.1.2l3.4-1.9c-.5 0-1 .1-1.5.1-.7.7-1.1 1-1.8 1.6zm-9.8-.8c-.7.6-1.1.9-1.8 1.6-1.1 2.9-1.8 4.8-2.7 7.2l13.6-7.4c.1-.2.1-.3.2-.5-.3-.6-.5-.9-.8-1.4l-8.5.5zm-48.2 28.2c-.3-.5-.4-.8-.7-1.4-3.5.1-5.3.1-8.8.2-.8.5-1.2.8-2 1.4l-4.3 8.8c.3.5.4.8.7 1.4h3.9l8.6-4.7c.8-1.8 1.6-3.4 2.6-5.7zm19.2-38.2c-.7.6-1.2.9-1.9 1.5-1.6 3.6-2.5 5.4-4.1 9 .3.5.4.8.7 1.3 3.4-.2 5.1-.3 8.5-.6.7-.6 1.2-.9 1.9-1.5l4-9.2c-.3-.5-.4-.8-.7-1.3-3.4.3-5.1.5-8.4.8zm-11.3 1c-.8.6-1.2.9-1.9 1.5l-4.3 8.8c.2.5.4.8.6 1.3 3.4-.2 5.1-.3 8.5-.6.8-.6 1.2-.9 1.9-1.5 1.7-3.6 2.5-5.4 4.1-9-.3-.5-.4-.8-.6-1.3-3.3.3-5 .5-8.3.8zm-5.4 35.8c-.8.6-1.2.9-2 1.4-1 2.2-1.7 3.7-2.5 5.4l12.8-6.9c-3.2 0-4.9 0-8.3.1zM30 155.4c-.8.6-1.2.9-2 1.4-1.8 3.5-2.7 5.2-4.5 8.6.2.5.4.8.6 1.2 3.4-.2 5.1-.3 8.5-.6.8-.6 1.2-.9 2-1.4l4.3-8.8c-.2-.5-.4-.8-.6-1.2-3.4.4-5 .5-8.3.8zm33.9-3c-.7.6-1.1.9-1.9 1.5-1.6 3.7-2.4 5.5-3.9 9.2.3.5.4.8.7 1.3 3.4-.2 5.1-.3 8.5-.6.7-.6 1.1-.9 1.9-1.5 1.5-3.8 2.3-5.6 3.8-9.4-.3-.5-.4-.8-.7-1.3-3.4.3-5.1.5-8.4.8zm-19 37.2c.8-.6 1.2-.9 2-1.4l4-9.2c-.3-.5-.4-.8-.7-1.4-3.5.1-5.2.2-8.7.4-.8.6-1.2.9-2 1.4-1.7 3.6-2.5 5.4-4.1 9 .3.5.4.8.7 1.4 3.5-.1 5.3-.2 8.8-.2zm17.7-11.2c-.3-.5-.5-.8-.7-1.4-3.5.1-5.2.2-8.7.4-.8.6-1.2.9-1.9 1.5-1.6 3.7-2.4 5.5-3.9 9.2 0 .1.1.1.1.2l14.4-7.8c.2-.7.5-1.3.7-2.1zm-29.7 11.4c.8-.5 1.2-.9 2-1.4 1.7-3.6 2.5-5.4 4.1-9-.3-.5-.4-.8-.7-1.3-3.5.1-5.2.2-8.7.4-.8.6-1.2.9-2 1.4l-4.3 8.8c.3.5.4.8.7 1.3 3.6-.1 5.4-.1 8.9-.2zm42.3-38.4c-.7.6-1.1.9-1.8 1.6-1.5 3.8-2.3 5.7-3.8 9.4.3.5.4.8.7 1.4 3.4-.2 5.1-.3 8.5-.6.7-.6 1.1-.9 1.8-1.6 1.4-3.8 2.2-5.8 3.6-9.6-.3-.5-.4-.8-.7-1.4-3.3.3-5 .5-8.3.8zm30.9-2.8c-3.3.3-5 .4-8.3.7-.7.6-1.1 1-1.8 1.6-1.4 3.9-2.1 5.9-3.4 9.8.3.6.5.9.8 1.4.9-.1 1.6-.1 2.4-.2l8.8-4.8c.8-2.4 1.4-4.2 2.3-7.2-.3-.4-.5-.7-.8-1.3zm-19.6 1.8c-.7.6-1.1 1-1.8 1.6-1.4 3.8-2.2 5.8-3.6 9.6.3.5.5.8.7 1.4 3.4-.2 5.1-.3 8.5-.6.7-.6 1.1-1 1.8-1.6 1.4-3.9 2.1-5.9 3.4-9.8-.3-.5-.5-.8-.7-1.4-3.3.3-5 .5-8.3.8z" class="st13_13"/><path d="M176.9 133l2.5-65.9h1.2l-1.5 65.9z" class="st14_13"/><path d="M177.8 50.5l.2 18 3.6.3.8-19.4z" class="st15_13"/><path d="M193.5 148l1.6-43.3h.9l-1.1 43.3z" class="st14_13"/><path d="M194.1 93.8l.1 11.9 2.4.2.6-12.9z" class="st15_13"/><path d="M167.1 145.7l2.6-12.6c1.2-4.3 16.3-5 17.1-1.5l2.3 14.9-22-.8zm-6.7-26.5l.6-5.8c.1-1.3 1.7-1.3 1.6 0v5.8h-2.2z" class="st14_13"/><path fill="#24abf1" d="M143.7 148.8s2.8-9.3 5.7-9.9c2.9-.7 4.2 6.4 4.2 6.4l-9.9 3.5z"/><path d="M156.5 148.5l1.4-27.6c.1-2.4 7.4-2.4 7.3 0l-1 25.4-7.7 2.2z" class="st14_13"/><path fill="#4da9a3" d="M178.6 125.5l.4 18.3 5.7.9-2.2-18.6z"/><path fill="#e2f0d5" d="M178.6 125.5l-2.3 1.5-.2 2.8 1.2-.2-.3 15.1 2.2-.3z"/><path d="M178.6 51.2l.4 13.7h1.5l1-13.7zm16.2 43.3v9.1h1l.4-9.1z" class="st19_13"/><path d="M129 164.7l3.8-15 38-10.7 38.4 13.7 3.8 12h-51z" class="st14_13"/><path fill="#fff7cc" d="M130.1 164.7l3.6-13.9 34.9-9.8-31.3 11.7-1.3 12z" opacity=".75"/><path fill="#41619b" d="M172.3 141l35.9 12.7 2 11h-37.9z"/><linearGradient id="SVGID_9_13" x1="123.71" x2="218.23" y1="179.21" y2="179.21" gradientUnits="userSpaceOnUse"><stop offset="0" stop-color="#dad1c0"/><stop offset=".63" stop-color="#528188"/><stop offset=".73" stop-color="#558389"/><stop offset=".79" stop-color="#5d8a8e"/><stop offset=".84" stop-color="#6c9596"/><stop offset=".89" stop-color="#80a4a1"/><stop offset=".93" stop-color="#9bb9af"/><stop offset=".96" stop-color="#bbd2c0"/><stop offset="1" stop-color="#e1efd4"/><stop offset="1" stop-color="#e2f0d5"/></linearGradient><path fill="url(#SVGID_9_13)" d="M213.9 198.5h-85.8l-4.4-28.2c31.5-13.8 63-13.9 94.5 0l-4.3 28.2z"/><path fill="#fff7cc" d="M126.1 172.5l4.2 24 81.3.4 3.7-24.7-7.5-2.6-1.5 24.9-55.4-1.9-6-25.1z" opacity=".5"/><path fill="#004d5c" d="M201.8 168.8l-1 22.5h-19.2l-.9-26.4z" opacity=".2"/><linearGradient id="SVGID_10_13" x1="119.02" x2="222.93" y1="164.17" y2="164.17" gradientUnits="userSpaceOnUse"><stop offset="0" stop-color="#131f49"/><stop offset=".61" stop-color="#22567d"/></linearGradient><path fill="url(#SVGID_10_13)" d="M119 169.3c15.7-8.5 33.8-13.2 52-13.2 18.2 0 36.2 4.7 52 13.2l-1.3 2.9c-16.5-5.7-33.5-9.4-50.7-9.3-17.2-.1-34.1 3.6-50.7 9.3l-1.3-2.9z"/><path fill="#004d5c" d="M130.4 172.3c1.4 3.5 2.1 7.1 2.7 10.7.5 3.6.7 7.3.3 11-1.4-3.5-2.1-7.1-2.7-10.7-.4-3.6-.7-7.2-.3-11zm9.2 8.9c.4 3.8 1 7.7 2.3 11.4.6-3.9.4-7.8.1-11.7-.4-3.8-1-7.7-2.3-11.4-.5 4-.4 7.8-.1 11.7zm10.1-1.5c.2 4.1.7 8.1 1.8 12.2.7-4.1.7-8.2.6-12.3-.3-4.1-.7-8.1-1.8-12.2-.7 4.1-.7 8.2-.6 12.3zm10.9-.9c.1 4.3.4 8.6 1.4 12.9.9-4.3 1-8.6 1-13-.1-4.3-.4-8.6-1.4-12.9-.9 4.4-1 8.7-1 13zm9.5-.3c0 4.5.1 9.1 1 13.7 1-4.5 1.3-9.1 1.4-13.6 0-4.5-.1-9.1-1-13.7-1 4.5-1.2 9-1.4 13.6zm12.7.3c-.1 4.3-.1 8.6.7 13 1.1-4.3 1.5-8.6 1.7-12.9.1-4.3.1-8.6-.7-13-1.1 4.2-1.5 8.5-1.7 12.9zm10.2.8c-.3 4.1-.3 8.2.3 12.3 1.2-4 1.7-8.1 2-12.2.2-4.1.3-8.2-.3-12.3-1.1 4.1-1.6 8.1-2 12.2zm9.1 1.4c-.4 3.9-.5 7.7 0 11.7 1.3-3.8 1.9-7.6 2.4-11.4.4-3.9.5-7.7 0-11.7-1.3 3.8-1.9 7.6-2.4 11.4zm7.5 2c-.5 3.6-.7 7.3-.3 11 1.4-3.5 2.1-7.1 2.7-10.7.5-3.6.7-7.3.3-11-1.5 3.5-2.2 7.1-2.7 10.7z"/><path d="M240 184.2l-30 1.1 1.5-8.4 26.3 1.6z" class="st9_13"/><linearGradient id="SVGID_11_13" x1="373.32" x2="269.41" y1="259.94" y2="154.38" gradientTransform="translate(-56.15 -75.33)" gradientUnits="userSpaceOnUse"><stop offset="0" stop-color="#fff7cc"/><stop offset=".35" stop-color="#fcb8e2"/><stop offset=".39" stop-color="#f8b8e3"/><stop offset=".43" stop-color="#ebb6e6"/><stop offset=".48" stop-color="#d5b4ec"/><stop offset=".53" stop-color="#b7b1f3"/><stop offset=".55" stop-color="#a8b0f7"/><stop offset=".61" stop-color="#a9b4f7"/><stop offset=".68" stop-color="#acc1f5"/><stop offset=".75" stop-color="#b1d7f3"/><stop offset=".79" stop-color="#b4e6f1"/></linearGradient><path fill="url(#SVGID_11_13)" d="M253.8 140.5l136.3-12.1-26 86.1-148.4-.3z"/><linearGradient id="SVGID_12_13" x1="320.41" x2="403.44" y1="207.39" y2="291.51" gradientTransform="translate(-56.15 -75.33)" gradientUnits="userSpaceOnUse"><stop offset="0" stop-color="#131f49"/><stop offset=".8" stop-color="#14466a"/><stop offset="1" stop-color="#006099"/></linearGradient><path fill="url(#SVGID_12_13)" d="M269.5 144.6c-2.5 5.1-3.7 7.6-6.2 12.6-1.1.8-1.7 1.3-2.8 2.1-4.8.3-7.3.5-12.1.8-.3-.7-.5-1.1-.9-1.8 2.6-4.9 3.8-7.4 6.4-12.4 1.1-.8 1.7-1.2 2.8-2.1 4.8-.4 7.1-.6 11.9-1.1.4.8.6 1.2.9 1.9zm-9.3 15.3c-4.9.3-7.3.5-12.1.8-1.1.8-1.7 1.2-2.8 2-2.6 4.9-3.8 7.4-6.4 12.4.4.7.6 1.1.9 1.8l12.4-.5c1.1-.8 1.7-1.2 2.8-2 2.5-5.1 3.7-7.6 6.2-12.6-.4-.8-.6-1.2-1-1.9zm-8.3 17.1l-12.4.5c-1.1.8-1.7 1.2-2.9 2-2.6 4.9-3.8 7.4-6.4 12.4.4.7.6 1.1 1 1.9 5-.1 7.6-.1 12.6-.2 1.1-.8 1.8-1.2 2.9-2 2.5-5.1 3.7-7.6 6.2-12.6-.5-.9-.7-1.3-1-2zm-8.4 17c-5.1.1-7.6.1-12.6.2-1.1.8-1.8 1.2-2.9 1.9-2.6 4.9-3.8 7.4-6.4 12.4.4.7.6 1.2 1 1.9h12.9c1.1-.8 1.8-1.2 2.9-1.9 2.5-5.1 3.7-7.6 6.2-12.6-.5-.7-.7-1.1-1.1-1.9zm42.2-50.8c-2.4 5.2-3.5 7.7-5.9 12.9-1.1.8-1.7 1.3-2.8 2.1-4.8.3-7.3.5-12.1.8-.4-.7-.6-1.1-.9-1.8 2.5-5.1 3.7-7.6 6.1-12.6 1.1-.8 1.7-1.3 2.8-2.1 4.8-.4 7.1-.6 11.9-1.1.3.7.5 1.1.9 1.8zm-9 15.6c-4.9.3-7.3.5-12.1.8-1.1.8-1.7 1.3-2.8 2.1-2.5 5.1-3.7 7.6-6.1 12.6.4.7.6 1.1 1 1.9l12.4-.5c1.1-.8 1.7-1.2 2.8-2.1 2.4-5.2 3.5-7.7 5.9-12.9-.5-.7-.7-1.1-1.1-1.9zm-8 17.5l-12.4.5c-1.1.8-1.7 1.2-2.8 2-2.5 5.1-3.7 7.6-6.1 12.6.4.7.6 1.2 1 1.9 5-.1 7.6-.1 12.6-.2 1.1-.8 1.7-1.2 2.8-2 2.4-5.2 3.5-7.7 5.9-12.9-.4-.8-.6-1.2-1-1.9zm-8 17.4c-5.1.1-7.6.1-12.6.2-1.1.8-1.7 1.2-2.9 2-2.5 5.1-3.7 7.6-6.1 12.6.4.8.6 1.2 1 1.9H253c1.1-.8 1.8-1.2 2.9-2 2.4-5.2 3.5-7.7 5.9-12.9-.5-.6-.7-1-1.1-1.8zm41.2-51.9c-2.3 5.3-3.4 7.9-5.7 13.2-1.1.8-1.7 1.3-2.7 2.1-4.8.3-7.3.5-12.1.8-.4-.7-.6-1.1-1-1.9 2.4-5.2 3.5-7.7 5.9-12.9 1.1-.8 1.7-1.3 2.7-2.1 4.8-.4 7.1-.6 11.9-1.1.4.8.6 1.2 1 1.9zm-8.6 16c-4.9.3-7.3.5-12.1.8-1.1.8-1.7 1.3-2.8 2.1-2.4 5.2-3.5 7.8-5.9 12.9.4.7.6 1.2 1 1.9l12.4-.5c1.1-.8 1.7-1.3 2.8-2.1 2.3-5.3 3.4-7.9 5.7-13.2-.5-.8-.8-1.2-1.1-1.9zm-7.7 17.8l-12.4.5c-1.1.8-1.7 1.3-2.8 2.1-2.4 5.2-3.5 7.8-5.9 12.9.4.8.6 1.2 1 1.9 5-.1 7.6-.1 12.6-.2 1.1-.8 1.7-1.2 2.8-2.1 2.3-5.3 3.4-7.9 5.7-13.2-.4-.7-.6-1.2-1-1.9zm-7.7 17.8c-5.1.1-7.6.1-12.6.2-1.1.8-1.7 1.2-2.8 2-2.4 5.2-3.5 7.7-5.9 12.9.4.8.6 1.2 1.1 2h12.9c1.1-.8 1.7-1.2 2.8-2 2.3-5.3 3.4-7.9 5.7-13.2-.6-.7-.8-1.2-1.2-1.9zm40.2-53c-2.2 5.4-3.2 8.1-5.4 13.5-1 .9-1.6 1.3-2.7 2.2-4.8.3-7.3.5-12.1.8-.4-.7-.6-1.2-1-1.9 2.3-5.3 3.4-7.9 5.6-13.2 1-.8 1.6-1.3 2.7-2.2 4.8-.4 7.1-.6 11.9-1.1.4.8.6 1.2 1 1.9zm-8.3 16.3c-4.9.3-7.3.5-12.1.8-1.1.8-1.7 1.3-2.7 2.1-2.3 5.3-3.4 7.9-5.6 13.2.4.8.6 1.2 1 1.9l12.4-.5c1.1-.8 1.7-1.3 2.7-2.1 2.2-5.4 3.2-8.1 5.4-13.5-.5-.7-.7-1.2-1.1-1.9zm-7.4 18.2l-12.4.5c-1.1.8-1.7 1.3-2.8 2.1-2.3 5.3-3.4 7.9-5.6 13.2.4.8.6 1.2 1.1 2 5-.1 7.6-.1 12.6-.2 1.1-.8 1.7-1.3 2.8-2.1 2.2-5.4 3.2-8.1 5.4-13.5-.5-.8-.7-1.3-1.1-2zm-7.4 18.2c-5.1.1-7.6.1-12.6.2-1.1.8-1.7 1.3-2.8 2.1-2.3 5.3-3.4 7.9-5.6 13.2.4.8.7 1.2 1.1 2H288c1.1-.8 1.7-1.2 2.8-2.1 2.2-5.4 3.2-8.1 5.4-13.5-.5-.7-.7-1.2-1.2-1.9zm39.3-54.1c-2.1 5.5-3.1 8.2-5.2 13.7-1 .9-1.6 1.4-2.6 2.2-4.8.3-7.3.5-12.1.8-.4-.8-.6-1.2-1-1.9 2.2-5.4 3.2-8.1 5.4-13.5 1-.9 1.6-1.4 2.6-2.2 4.8-.4 7.1-.6 11.9-1.1.4.8.6 1.3 1 2zm-8 16.6c-4.9.3-7.3.5-12.1.8-1 .9-1.6 1.3-2.7 2.2-2.2 5.4-3.2 8.1-5.4 13.5.4.8.6 1.2 1.1 2l12.4-.5c1-.8 1.6-1.3 2.7-2.2 2.1-5.5 3.1-8.2 5.2-13.7-.6-.9-.8-1.3-1.2-2.1zm-7.1 18.6l-12.4.5c-1.1.8-1.7 1.3-2.7 2.1-2.2 5.4-3.2 8.1-5.4 13.5.4.8.7 1.2 1.1 2 5-.1 7.6-.1 12.6-.2 1.1-.8 1.7-1.3 2.7-2.1 2.1-5.5 3.1-8.2 5.2-13.7-.4-.9-.6-1.3-1.1-2.1zm-7 18.5c-5.1.1-7.6.1-12.6.2-1.1.8-1.7 1.3-2.8 2.1-2.2 5.4-3.2 8.1-5.4 13.5.4.8.7 1.3 1.1 2.1h12.9c1.1-.8 1.7-1.3 2.8-2.1 2.1-5.5 3.1-8.2 5.2-13.7-.5-.8-.7-1.3-1.2-2.1zm38.3-55.1c-2 5.6-2.9 8.4-4.9 14-1 .9-1.6 1.4-2.6 2.3-4.8.3-7.3.5-12.1.8-.4-.8-.7-1.2-1.1-2 2.1-5.5 3.1-8.2 5.1-13.7 1-.9 1.6-1.4 2.6-2.3 4.8-.4 7.1-.6 11.9-1.1.5.8.7 1.2 1.1 2zm-7.7 17c-4.9.3-7.3.5-12.1.8-1 .9-1.6 1.4-2.6 2.2-2.1 5.5-3.1 8.2-5.1 13.7.4.8.7 1.2 1.1 2l12.4-.5c1-.9 1.6-1.4 2.6-2.2 2-5.6 2.9-8.4 4.9-14-.6-.8-.8-1.3-1.2-2zm-6.7 18.9l-12.4.5c-1 .9-1.6 1.3-2.7 2.2-2.1 5.5-3.1 8.2-5.1 13.7.4.8.7 1.3 1.1 2.1 5-.1 7.6-.1 12.6-.2 1-.8 1.6-1.3 2.7-2.2 2-5.6 2.9-8.4 4.9-14-.4-.9-.7-1.3-1.1-2.1zm-6.7 18.9c-5.1.1-7.6.1-12.6.2-1.1.8-1.7 1.3-2.7 2.1-2.1 5.5-3.1 8.2-5.1 13.7.5.8.7 1.3 1.2 2.1h12.9c1.1-.8 1.7-1.3 2.7-2.1 2-5.6 2.9-8.4 4.9-14-.6-.7-.8-1.2-1.3-2zm37.3-56.2c-1.9 5.7-2.8 8.6-4.7 14.3-1 .9-1.6 1.4-2.6 2.3-4.8.3-7.3.5-12.1.8-.4-.8-.7-1.2-1.1-2 2-5.6 2.9-8.4 4.9-14 1-.9 1.6-1.4 2.6-2.3 4.8-.4 7.1-.6 11.9-1.1.4.8.7 1.2 1.1 2zm-7.4 17.3c-4.9.3-7.3.5-12.1.8-1 .9-1.6 1.4-2.6 2.3-2 5.6-2.9 8.4-4.9 14 .4.8.7 1.3 1.1 2.1l12.4-.5c1-.9 1.6-1.4 2.6-2.3 1.9-5.7 2.8-8.6 4.7-14.3-.5-.9-.8-1.3-1.2-2.1zm-6.4 19.3l-12.4.5c-1 .9-1.6 1.4-2.6 2.2-2 5.6-2.9 8.4-4.9 14 .5.8.7 1.3 1.2 2.1 5-.1 7.6-.1 12.6-.2 1-.9 1.6-1.4 2.6-2.2 1.9-5.7 2.8-8.6 4.7-14.3-.4-.8-.7-1.3-1.2-2.1zm-6.3 19.3c-5.1.1-7.6.1-12.6.2-1 .9-1.6 1.3-2.7 2.2-2 5.6-2.9 8.4-4.9 14 .5.8.7 1.3 1.2 2.1h12.9c1-.8 1.6-1.3 2.7-2.2 1.9-5.7 2.8-8.6 4.7-14.3-.6-.7-.8-1.2-1.3-2zm36.3-57.3c-1.8 5.8-2.6 8.7-4.4 14.6-1 .9-1.5 1.4-2.5 2.3-4.8.3-7.3.5-12.1.8-.4-.8-.7-1.3-1.1-2.1 1.9-5.7 2.8-8.6 4.6-14.3 1-.9 1.5-1.4 2.5-2.3 4.8-.4 7.1-.6 11.9-1.1.4.9.7 1.3 1.1 2.1zm-7.1 17.6c-4.9.3-7.3.5-12.1.8-1 .9-1.6 1.4-2.6 2.3-1.9 5.7-2.8 8.6-4.6 14.3.5.8.7 1.3 1.2 2.1l12.4-.5c1-.9 1.6-1.4 2.6-2.3 1.8-5.8 2.6-8.7 4.4-14.6-.6-.8-.9-1.3-1.3-2.1zm-6 19.7l-12.4.5c-1 .9-1.6 1.4-2.6 2.3-1.9 5.7-2.8 8.6-4.6 14.3.5.8.7 1.3 1.2 2.1 5-.1 7.6-.1 12.6-.2 1-.9 1.6-1.4 2.6-2.3 1.8-5.8 2.6-8.7 4.4-14.6-.5-.8-.7-1.3-1.2-2.1zm-6 19.6c-5.1.1-7.6.1-12.6.2-1 .9-1.6 1.4-2.6 2.2-1.9 5.7-2.8 8.6-4.6 14.3.5.9.8 1.3 1.3 2.2h12.9c1-.9 1.6-1.4 2.6-2.2 1.8-5.8 2.6-8.7 4.4-14.6-.7-.7-.9-1.2-1.4-2.1z"/><path d="M390.1 128.4l3.3 1.4-25 86.9-149.1-.3-3.6-2.2 148.4.3z" class="st12_13"/><path d="M293.3 157.8c.4.7.6 1.2 1 1.9-2.3 5.3-3.4 7.9-5.7 13.2-1.1.8-1.7 1.3-2.8 2.1l-12.4.5c-.4-.7-.6-1.2-1-1.9 2.4-5.2 3.5-7.8 5.9-12.9 1.1-.8 1.7-1.3 2.8-2.1 4.9-.4 7.3-.5 12.2-.8zm-63.1 34c.4.7.6 1.1 1 1.9 5-.1 7.6-.1 12.6-.2 1.1-.8 1.8-1.2 2.9-2 2.5-5.1 3.7-7.6 6.2-12.6-.4-.7-.6-1.1-1-1.9l-12.4.5c-1.1.8-1.7 1.2-2.9 2-2.6 4.9-3.8 7.4-6.4 12.3zm34.4-32.2c-1.1.8-1.7 1.3-2.8 2.1-2.5 5.1-3.7 7.6-6.1 12.6.4.7.6 1.1 1 1.9l12.4-.5c1.1-.8 1.7-1.2 2.8-2.1 2.4-5.2 3.5-7.7 5.9-12.9-.4-.7-.6-1.1-1-1.9-4.9.3-7.3.5-12.2.8zm39.5 17.2c-.3.9-.7 1.7-1 2.4l8.7-4.8c-1.5.1-3.1.1-5.1.2-.9.9-1.5 1.4-2.6 2.2zm-56-16.1c-1.1.8-1.7 1.2-2.8 2-2.6 4.9-3.8 7.4-6.4 12.4.4.7.6 1.1.9 1.8l12.4-.5c1.1-.8 1.7-1.2 2.8-2 2.5-5.1 3.7-7.6 6.2-12.6-.4-.7-.6-1.1-.9-1.8-4.9.2-7.3.4-12.2.7zm49.5-3.2c-1.1.8-1.7 1.3-2.7 2.1-2.3 5.3-3.4 7.9-5.6 13.2.4.8.6 1.2 1 1.9l12.4-.5c1.1-.8 1.7-1.3 2.7-2.1 2.2-5.4 3.2-8.1 5.4-13.5-.4-.8-.6-1.2-1-1.9-4.9.3-7.3.5-12.2.8zM243.5 194c-5.1.1-7.6.1-12.6.2-1.1.8-1.8 1.2-2.9 1.9-2.6 4.9-3.8 7.4-6.4 12.4.4.7.6 1.2 1 1.9h12.9c1.1-.8 1.8-1.2 2.9-1.9 2.5-5.1 3.7-7.6 6.2-12.6-.5-.7-.7-1.1-1.1-1.9zm70.6-37.6c-1 .9-1.6 1.3-2.7 2.2-2.2 5.4-3.2 8.1-5.4 13.5.4.8.6 1.2 1.1 2 2.4-.1 4.3-.2 6.1-.3l10.1-5.5c1.4-3.7 2.4-6.3 4-10.7-.4-.8-.7-1.2-1.1-2-4.8.3-7.2.5-12.1.8zm55.8-22.6c-1 .9-1.5 1.4-2.5 2.3-1.3 4.1-2.2 6.7-3.2 9.9l18.4-10c.1-.4.2-.8.4-1.3-.4-.8-.7-1.3-1.1-2.1-4.9.6-7.2.8-12 1.2zm-25.4 22.7c0 .1-.1.2-.1.3l4.9-2.7c-.7 0-1.4.1-2.2.1-1 1-1.5 1.5-2.6 2.3zm-13.9-1.2c-1 .9-1.6 1.4-2.6 2.2-1.6 4.2-2.6 6.8-3.8 10.3l19.5-10.6c.1-.2.1-.4.2-.7-.4-.8-.7-1.2-1.1-2-4.9.4-7.3.5-12.2.8zm-68.9 40.3c-.4-.8-.6-1.2-1-1.9-5.1.1-7.6.1-12.6.2-1.1.8-1.7 1.2-2.9 2-2.5 5.1-3.7 7.6-6.1 12.6.4.8.6 1.2 1 1.9h5.6l12.3-6.7c1.1-2.4 2.2-4.7 3.7-8.1zm27.4-54.6c-1.1.8-1.7 1.3-2.7 2.1-2.4 5.2-3.5 7.7-5.9 12.9.4.7.6 1.1 1 1.9 4.8-.3 7.3-.5 12.1-.8 1.1-.8 1.7-1.3 2.7-2.1 2.3-5.3 3.4-7.9 5.7-13.2-.4-.7-.6-1.1-1-1.9-4.8.5-7.2.7-11.9 1.1zm-16.2 1.5c-1.1.8-1.7 1.3-2.8 2.1-2.5 5.1-3.7 7.6-6.1 12.6.4.7.6 1.1.9 1.8 4.8-.3 7.3-.5 12.1-.8 1.1-.8 1.7-1.3 2.8-2.1 2.4-5.2 3.5-7.7 5.9-12.9-.4-.7-.6-1.1-.9-1.8-4.8.4-7.1.6-11.9 1.1zm-7.7 51.1c-1.1.8-1.7 1.2-2.8 2l-3.5 7.7 18.3-9.9c-4.6.1-7.2.1-12 .2zm-8.5-49.7c-1.1.8-1.7 1.3-2.8 2.1-2.6 4.9-3.8 7.4-6.4 12.4.3.7.5 1.1.9 1.8 4.8-.3 7.3-.5 12.1-.8 1.1-.8 1.7-1.2 2.8-2.1 2.5-5.1 3.7-7.6 6.2-12.6-.3-.7-.5-1.1-.9-1.8l-11.9 1zm48.5-4.3c-1 .9-1.6 1.3-2.7 2.2-2.3 5.3-3.4 7.9-5.6 13.2.4.7.6 1.2 1 1.9 4.8-.3 7.3-.5 12.1-.8 1-.8 1.6-1.3 2.7-2.2 2.2-5.4 3.2-8.1 5.4-13.5-.4-.7-.6-1.2-1-1.9-4.7.4-7.1.7-11.9 1.1zm-27.1 53.1c1.1-.8 1.7-1.2 2.8-2.1 2.3-5.3 3.4-7.9 5.7-13.2-.4-.8-.6-1.2-1-1.9l-12.4.5c-1.1.8-1.7 1.3-2.8 2.1-2.4 5.2-3.5 7.8-5.9 12.9.4.8.6 1.2 1 1.9 5.1 0 7.6-.1 12.6-.2zm25.4-15.8c-.4-.8-.7-1.2-1.1-2l-12.4.5c-1.1.8-1.7 1.3-2.8 2.1-2.3 5.3-3.4 7.9-5.6 13.2 0 .1.1.1.1.2l20.6-11.2c.4-.9.7-1.8 1.2-2.8zM261 193.1c1.1-.8 1.7-1.2 2.8-2 2.4-5.2 3.5-7.7 5.9-12.9-.4-.7-.6-1.2-1-1.9l-12.4.5c-1.1.8-1.7 1.2-2.8 2-2.5 5.1-3.7 7.6-6.1 12.6.4.7.6 1.2 1 1.9 5-.1 7.5-.1 12.6-.2zm60.4-55c-1 .9-1.6 1.4-2.6 2.2-2.2 5.4-3.2 8.1-5.4 13.5.4.8.6 1.2 1 1.9 4.8-.3 7.3-.5 12.1-.8 1-.9 1.6-1.4 2.6-2.2 2.1-5.5 3.1-8.2 5.2-13.7-.4-.8-.6-1.2-1-1.9l-11.9 1zm44.2-3.9c-4.8.4-7.1.6-11.9 1.1-1 .9-1.6 1.4-2.6 2.3-2 5.6-2.9 8.4-4.9 14 .4.8.7 1.2 1.1 2 1.3-.1 2.3-.2 3.4-.2l12.6-6.9c1.1-3.4 2-6.1 3.4-10.3-.4-.8-.7-1.2-1.1-2zm-28 2.5c-1 .9-1.6 1.4-2.6 2.3-2.1 5.5-3.1 8.2-5.1 13.7.4.8.6 1.2 1.1 2 4.8-.3 7.3-.5 12.1-.8 1-.9 1.6-1.4 2.6-2.3 2-5.6 2.9-8.4 4.9-14-.4-.8-.7-1.2-1.1-2-4.8.5-7.2.7-11.9 1.1z" class="st13_13"/><path fill="#b86053" d="M201.7 272.6c11 2 20.7 3 28 2.2.9-7.8-1.6-17.8-5.5-28.5l-22.5 26.3z" opacity=".25"/><g><path d="M201 232.8c-1.6.6-3.1 1.3-4.7 1.9 1.7 12.6 3.8 25.3 5.4 37.9 5.7.2 11.4.4 17.1-.5 5.7-1 11.3-3.2 15.4-7.1-10.8-9.7-22.3-22.6-33.2-32.2z" class="st12_13"/><linearGradient id="SVGID_13_13" x1="201.43" x2="230.86" y1="233.48" y2="269.57" gradientUnits="userSpaceOnUse"><stop offset=".29" stop-color="#fff7cc"/><stop offset=".35" stop-color="#fcb8e2"/><stop offset=".39" stop-color="#f8b8e3"/><stop offset=".43" stop-color="#ebb6e6"/><stop offset=".48" stop-color="#d5b4ec"/><stop offset=".53" stop-color="#b7b1f3"/><stop offset=".55" stop-color="#a8b0f7"/><stop offset=".61" stop-color="#a9b4f7"/><stop offset=".68" stop-color="#acc1f5"/><stop offset=".75" stop-color="#b1d7f3"/><stop offset=".79" stop-color="#b4e6f1"/></linearGradient><path fill="url(#SVGID_13_13)" d="M234.6 265.1c-7.8 3.1-17.3 4.3-25.7 4.3-2.7-12.2-5.5-24.4-8.2-36.6 7.2-1.7 14.4-1.3 20.9-1.3 7.3 11.1 10.3 20.7 13 33.6z"/><path d="M213.8 258.9l.8 3.3 13.8-2.4-.5-4.4z" class="st15_13"/><path d="M225.7 256.4l-10.6 2.8.4 1.4 10.5-1.3z" class="st19_13"/><path d="M213.8 258.9l14.1-3.5.6-1.3-16.1 3.7 1.7 6.1.5-1.7z" class="st12_13"/><path d="M214.1 263.9l15.2-2.5-.8-7.3-.6 1.3.5 4.4-13.8 2.3-.5 1.8z" class="st31_13"/></g><g><path d="M124.2 268.3l-.3 5.1 20.4 2.8 1.2-6.4z" class="st15_13"/><path d="M142.1 270.3l-16.3-.9.1 2.2 15.2 2.8z" class="st19_13"/><path d="M124.2 268.3l21.3 1.5 1.5-1.5-24.4-2-.3 9.3 1.6-2.2z" class="st12_13"/><path d="M122.3 275.6l22.5 3.2 2.2-10.6-1.5 1.5-1.2 6.4-20.4-2.9-1.6 2.4z" class="st31_13"/></g></svg>