<svg xmlns="http://www.w3.org/2000/svg" xmlns:xlink="http://www.w3.org/1999/xlink" id="Layer_1" x="0" y="0" version="1.1" viewBox="87 53 525 495" xml:space="preserve"><defs><path id="SVGID_21_5" d="M-1-1h-1l1-1z"/><path id="SVGID_18_5" d="M1 1h1L1 2z"/><path id="reuse-1" d="M269.2 196.5l-.2.2s0-.1.1-.1c0 0 .1 0 .1-.1zm256.6 8.4l.1-.1v.2zM219.5 211v.1h-.1zm237.2.2v-.1h.1zm36.7 1.4l-.1-.1h.2zm50 1.8l.1-.1v.2zm-46.6 2.3v.2h-.1zm28.2 2l-.2.1.1-.2zm-78.3 132.4l.1.1h-.2zm-6.1-60.4l-.1.1v-.2zm-90.9 18.1c-.1.1-.1.1-.2.1l-.1-.1h.3zm12.9-163.2c.9.5.9 1 .8 1.6-.1.4-.3.7-.8.7s-.8-.5-.7-1c.1-.4.4-.8.7-1.3zm-20.5 21.6c.2.3.4.4.4.6.1.4.1.8-.4.9h-.4c-.4-.3-.3-.6-.1-1l.5-.5zm26.8-17.6c0-.1.1-.3.1-.4.1.1.2.1.3.2 0 0 0 .2-.1.2h-.3zm-19.9 1.7c-.1 0-.2-.1-.2-.1 0-.1.1-.2.1-.3 0 0 .2 0 .2.1 0 0 0 .2-.1.3zm20.3 10.5c0-.1.1-.1.1-.2.1.1.2.1.3.2-.1 0-.1.1-.2.1-.1-.1-.1-.1-.2-.1zm-35.4 20l.2-.2.1.1c0 .1-.1.1-.3.1zm21.3-22.9v-.4h.2v.4h-.2zm-28.1 11l-.1-.1c0-.1.1-.1.1-.1l.1.1-.1.1zm14.3-19.8c.1 0 .3.1.3.1 0 .1 0 .2-.1.3-.1 0-.2 0-.2-.1v-.3zm28.6 1.7c0-.1 0-.2.1-.2h.2c-.1.1-.2.1-.3.2zm-32.8 92.3c.1-1 .5-1.3 1-1.4.4-.1.8 0 .9.4.2.4-.1 1-.6 1.1-.3 0-.7-.1-1.3-.1zm28.4 8.9c.2-.3.2-.5.4-.7.3-.2.7-.4 1-.1.1.1.2.3.2.4-.1.5-.5.5-.8.5-.3.1-.4 0-.8-.1zM338 236.6c-.1 0-.3 0-.4.1v-.4s.2-.1.2 0c.1.1.2.2.2.3zm10.3 17.2v.2h-.3v-.2h.3zm.5-22.8h-.2v-.3c.1 0 .2 0 .2.1v.2zm33.5 22.9c-.1 0-.2 0-.2-.1v-.1l.2.2zm-29.9-9c-.1.1-.2.1-.4.2 0-.1-.1-.2-.1-.2.1-.1.2-.1.3-.2.1 0 .1.1.2.2zm22.2 20.4v.2c-.1 0-.1 0-.2-.1v-.2c.1 0 .1.1.2.1zm-24.1-4.2c0-.1-.1-.3 0-.3 0-.1.2-.1.3-.1 0 .1.1.2 0 .2-.1.1-.2.2-.3.2zm-11-26.4c-.1 0-.2.1-.2 0v-.2c0 .1.1.2.2.2zm52.1 118.4c-.1 0-.1.1-.2.1 0-.1-.1-.1-.1-.2l.1-.1c.1.1.2.1.2.2zm44.3-63.8h-.2v-.1zm-179.3-2.1l.1.2-.1-.1zm-18.5 41c0 .1.1.1.1.2h-.3c.1-.1.1-.2.2-.2zM445 286.9h-.2v-.1zm77.9-1.3l-.1-.1c.1 0 .1-.1.1-.1l.1.1-.1.1zm-103.8 77.2l-.1-.1.1-.1.1.1-.1.1zm19.1 3c0 .1.1.1.1.2-.1 0-.1.1-.2.1s-.1-.1-.1-.1l.2-.2zm27.7 10.2h-.2l.1-.1zm13.9.2zm-130.1 1.2c-.1 0-.1.1-.2.1 0-.1-.1-.1-.1-.2s.1-.1.1-.1l.2.2zm42.4-100.1l-.1.1-.1-.1.1-.1s0 .1.1.1zm60.6 28.8l-.1.1h.1zm-.7 75v.1h-.1zm6.8 3.9c-.1.1-.1.2-.2.2l-.1-.1c.1-.1.2-.1.3-.1zm86.7-110h-.2v-.1zM430.8 388.1v-.2.2zm0 0l-.1.1.1-.1zm6.8 3.6l.2-.1-.1.2zM340 393c.1.1.1.1.1.2l-.1.1v-.3zM211.8 268.4l-.1-.2h.2zm276.4-5.5c0 .1.1.1.1.2-.1 0-.1.1-.2.1l-.1-.1c.1-.2.2-.2.2-.2zM315.5 409.5l.1-.1-.2.1zm-.1 0zm-61.6 1.6l.1.2-.2-.1zm246.3 1.6v-.1h.1zm-195.8-89.5l-.1-.2h.2zm140.2-12c-.1 0-.1.1-.2.1l-.1-.1c.1 0 .1-.1.2-.1 0-.1.1 0 .1.1zm-244.8-49.8c-.1 0-.2.1-.3.1.1-.1.1-.2.2-.3l.1.2zm66.4 159.4l.1-.1v.2zm54.6.2l.1-.1h-.1z" class="st3_5"/><path id="reuse-0" d="M489.8 238.5c.2 0 .3-.1.5-.1.2.1.5.3.7.4-.1.1-.2.4-.2.3-.3-.1-.5-.1-.8-.3-.1.1-.1-.2-.2-.3zm-2.4-30.5c-.2.1-.4.1-.6.2l-.2-.4c.2-.1.4-.2.6-.2.1 0 .1.2.2.4zm-41.5 115c.3.2.5.3.5.4.1.3-.3.6-.6.5-.1 0-.3-.2-.2-.3.1-.3.2-.5.3-.6zM241 312.5c-.1-.2-.3-.3-.3-.4.1-.2.3-.3.4-.5.1.1.4.4.3.4 0 .3-.2.4-.4.5zm271.5-35.8l-.3.3c-.1-.1-.2-.3-.3-.4.1-.1.3-.2.4-.1.1-.1.2.1.2.2zM352 358.1c-.2-.1-.3-.2-.4-.3.1-.2.3-.3.4-.4l.3.2c0 .2-.1.4-.3.5zm-3.8-69.5c-.2.1-.4.2-.6.2 0-.1-.1-.3-.1-.4.1-.1.2-.2.4-.2.1 0 .2.2.3.4zM491 214.9c-.4.1-.6.2-.9.2-.1 0-.2-.4-.2-.5.1-.2.4-.3.5-.3.2 0 .3.2.6.6zm-67.2 135.6c.2.1.2.2.3.3l-.5.5c-.1-.1-.2-.3-.2-.3.1-.2.2-.3.4-.5zm15.1-59.1c.2.1.4.2.5.3.1.1-.1.4-.2.5h-.2c-.1-.2-.2-.3-.2-.5 0 0 .1-.2.1-.3zm-71.2 54.8c-.4.2-.6.3-.9.3-.1 0-.3-.2-.3-.2 0-.1.1-.3.2-.3.3-.1.4 0 1 .2zm-6.4 110.2c-.1-.2-.3-.4-.3-.4.1-.2.3-.3.5-.4.1.1.2.3.2.4 0 .2-.2.3-.4.4zm93.5-209.1c-.4.2-.6.4-.9.4-.1 0-.3-.4-.3-.5.1-.2.3-.3.5-.3s.4.2.7.4zM409 218.5c.1.2.3.3.3.4 0 .4-.3.5-.6.4-.1 0-.2-.3-.1-.4 0-.1.2-.2.4-.4zm-74.5 112.8c-.2.1-.3.3-.5.4 0 0-.2-.1-.3-.2l.4-.4c.1-.1.3.1.4.2zm-20.1-204.7c-.2-.1-.3-.2-.4-.3.1-.1.2-.3.3-.3.1 0 .3.1.4.1-.1.1-.2.3-.3.5zM429 299c.1.3.3.6.3.7-.2.2-.5.3-.7.4l-.2-.3c.2-.3.4-.5.6-.8zm-174.8 14.9c-.1.1-.3.2-.5.4-.1-.2-.2-.3-.3-.5.2-.1.3-.2.5-.3.2.1.2.2.3.4zm322.3-82.6c-.2.1-.4.2-.6.2-.1 0-.2-.2-.2-.3.2-.1.3-.2.5-.3.1 0 .2.2.3.4zM470.8 371.2c0 .1.2.3.1.4s-.2.1-.3.2c0-.1-.1-.3-.1-.4 0-.1.2-.1.3-.2zm-17.2-61.4c-.1.4 0 .7-.2.9-.1.2-.4-.2-.3-.5.1-.1.3-.2.5-.4zm58.1-27.1c-.1-.1-.2-.2-.2-.3.2-.1.3-.2.5-.3 0 .1.1.3.1.4-.2.1-.3.2-.4.2zm-83.5 37.6c0-.1-.1-.3-.1-.4.1-.1.2-.1.4-.2 0 .1.1.3.1.4 0 .1-.2.1-.4.2zm50.9-42.9c-.2 0-.4.1-.6.1-.1 0-.1-.2-.1-.4.2-.1.4-.1.6-.2-.1.1 0 .3.1.5zm-20.3-15.1c0 .2 0 .3-.1.4-.1.2-.3.3-.5.4 0 0-.3-.2-.2-.3.1-.2.2-.4.4-.5h.4zm37.8 113.6l.3.3c-.1.1-.3.2-.4.3-.1-.1-.2-.3-.1-.4-.1-.1.1-.1.2-.2zm.3-204.8c-.2.1-.4.1-.6.1l-.1-.3c.2-.1.4-.2.5-.3 0 .1.1.3.2.5zm.9-40.9c-.2-.1-.3-.2-.4-.2.1-.2.2-.4.4-.5l.4.2c-.2.2-.3.3-.4.5zm82.4 59.8c.2.1.3.1.5.2-.1.2-.1.4-.3.5l-.4-.1c0-.2.1-.4.2-.6zm-66.7 52.6v-.4l.2-.1c.1.1.1.2.2.3-.2.1-.3.2-.4.2zm-28.6-2.9c-.1.1-.1.3-.2.4-.1.1-.2.1-.3.1v-.6c0-.1.2-.2.3-.2 0 .1.1.2.2.3zm28.3 43.5c.1.1.1.2.2.4-.1 0-.3.1-.4.1-.1 0-.1-.2-.1-.3 0-.1.2-.2.3-.2zm-103.3-82.9l.2.2c-.1.1-.2.1-.4.2 0 0-.1-.1-.2-.1.2-.1.3-.2.4-.3zm-12.6 168.2c-.1.1-.1.3-.2.4-.1 0-.3-.1-.4-.1.1-.1.1-.3.2-.4.1 0 .3.1.4.1zm90.1-241.3c.1-.1.2-.2.3-.2.1 0 .2.1.3.2-.1.1-.2.2-.3.2-.1 0-.2-.1-.3-.2zM357.9 439.5c.1.1.2.2.2.3-.1.1-.2.1-.4.2 0 0-.1-.1-.2-.1l.4-.4zm140.7-236.3c-.2-.1-.3-.1-.5-.2.2-.2.3-.4.5-.5.1.1.3.2.2.3 0 .2-.1.3-.2.4zm-149.2 108l-.3.3c-.1-.1-.1-.2-.2-.4 0 0 .1-.1.2-.1s.2.1.3.2zm97 126c.1 0 .2-.1.3-.1 0 .1.1.2.1.2-.1.1-.2.1-.3.1-.1-.1-.1-.1-.1-.2zM248.2 363c-.2.1-.4.1-.6.2 0-.1-.1-.3 0-.4s.2-.2.4-.2c0 .1.1.2.2.4zm191.3-.9h-.4c0-.1.1-.2.1-.2h.4c-.1.1-.1.1-.1.2zm-73.6-1.2c-.1.1-.2.2-.2.3-.1-.1-.1-.2-.2-.3l.1-.2c.1 0 .2.1.3.2zm58.6 68.4l-.3.3c-.1-.1-.2-.3-.3-.4.1-.1.3-.1.4-.2.1 0 .2.1.2.3zm43.2-220.4c-.1.1-.3.1-.4.2 0-.1-.2-.3-.1-.4.1-.1.3-.1.4-.1 0 0 .1.2.1.3zm-91.8 149.2c.2.2.2.3.3.4-.2.1-.3.2-.5.4 0-.1-.1-.2-.1-.2.1-.2.2-.3.3-.6zm69.3-100.7c-.1.1-.2.2-.3.2-.1-.1-.1-.2-.2-.3 0 0 .1-.1.2-.1.1.1.2.1.3.2zm22.5 71.1c-.1.1-.3.1-.4.2 0-.1-.1-.3-.1-.4.1 0 .3-.1.4-.1 0 0 0 .2.1.3zm-204.2 28.3c.1.1.2.1.3.2-.1.1-.2.2-.4.2 0 0-.2-.1-.1-.1 0-.1.1-.2.2-.3zm86.4 65.9c0 .1.2.3.1.4s-.3.1-.4.2c0-.1-.1-.3-.1-.3.1-.2.3-.2.4-.3zm35-.5c-.1 0-.3.1-.4.1s-.2-.3-.1-.3c.1-.1.2-.1.4-.2.1.2.1.3.1.4zm53.2-133c.1.1.2.2.2.3 0 .1-.2.2-.3.2 0-.1-.1-.1-.1-.2s.1-.2.2-.3zm3.6 18.1c.2.1.3.2.4.2-.1.2-.2.3-.3.4-.1 0-.2-.1-.4-.2.1 0 .2-.2.3-.4zm-55.6 113.9c-.2.1-.3.1-.5.2 0-.1-.1-.3-.1-.4.1-.1.3-.2.4-.3.1.1.1.3.2.5zm101.4-1.1c-.2 0-.4.1-.5.1s-.1-.2-.2-.4c.2-.1.4-.1.5-.2.1.1.2.2.2.5zM206.1 215.9h-.6c0-.1 0-.3.1-.4.1-.1.3-.1.4-.1 0 .2 0 .3.1.5zm230.4 98.8c.1.2.2.2.3.3-.2.1-.3.2-.5.3l-.1-.1c.1-.2.2-.3.3-.5zm-196.1 94c-.1.1-.2.1-.3.2 0-.1-.1-.2-.1-.3.1 0 .2-.1.4-.1v.2zm162-.4c-.1 0-.3.1-.4.1 0-.1-.1-.3-.1-.3.1-.1.2-.1.4-.2.1.2.1.3.1.4zm-190-80.9c-.1.1-.2.2-.3.2 0-.1-.1-.2-.1-.3 0 0 .1-.1.2-.1 0 .1.1.2.2.2zm121.8-1.9h-.4c0-.1.1-.2.1-.2h.4s-.1.1-.1.2zm138-159.2l.3.3c-.2.1-.3.2-.5.3l-.2-.1c.2-.1.3-.3.4-.5zM391 272c-.1.1-.2.1-.4.2 0-.1-.1-.3-.1-.3.1-.1.2-.1.3-.2.2 0 .2.1.2.3zm-132.1 22.3c-.2.2-.3.4-.4.4s-.3-.1-.4-.1c.2-.2.3-.4.5-.6l.3.3zm232.3-73.5c-.1.1-.1.3-.2.4-.1-.1-.3-.1-.4-.2 0-.1.1-.3.1-.4.3.1.4.1.5.2zM329.3 346.1c-.1-.2-.2-.3-.2-.4.1-.1.3-.2.4-.3 0 0 .1.1.1.2s-.2.3-.3.5zm160.4-123.4c-.1.1-.1.2-.2.3-.1-.1-.1-.2-.2-.3.1-.1.2-.2.3-.2.1.1.1.2.1.2zm-180.9 49.8c-.2.1-.3.2-.5.3-.1 0-.2-.2-.2-.2l.4-.4c.1 0 .2.1.3.3zm91.9.3c.2-.3.3-.8.5-.9s.8.2.9.4c.1.3-.2.9-.4.9-.3 0-.7-.3-1-.4zm0-4c.1-.2.1-.4.3-.5.1-.1.4.1.4.2s-.1.4-.2.5c-.2 0-.4-.1-.5-.2zm41.6 28.7c-.1.1-.3.1-.4.2 0-.1-.1-.3-.1-.4.1 0 .3-.1.4-.1 0 0 .1.2.1.3zm48.6-71c-.2-.4.8-1.4 1.3-1.2.3.1.5.9.1 1.3-.5.4-1.3.2-1.4-.1zm-247.5-52.7c-.1-.1-.2-.1-.3-.2.1-.1.2-.2.3-.2 0 0 .1.1.2.1-.1 0-.1.2-.2.3zm18 .7c-.4.2-.6.3-.9.3-.1 0-.3-.2-.3-.2 0-.1.1-.3.2-.3.3-.1.4.1 1 .2zm44.9 53.7h-.6c0-.1 0-.3.1-.3.1-.1.2-.1.4-.2 0 .2 0 .3.1.5zm72.4 45.1l.3-.3c.1.1.1.2.2.3l-.1.2c-.1-.1-.2-.2-.4-.2zm108.7-44.1c-.1.1-.1.3-.2.4-.1 0-.3-.1-.4-.1.1-.1.1-.3.2-.3.1-.2.2-.1.4 0zM274 397.8c-.2.1-.4.1-.5.2 0-.1-.1-.3-.1-.4l.3-.3c.1.1.2.3.3.5zm167.2-95.5c-.1-.1-.2-.2-.2-.3.2-.1.3-.2.5-.3 0 .1.2.3.1.4-.1.2-.3.2-.4.2zm-51.1-70.7c-.1-.1-.1-.2-.2-.4.2-.1.4-.2.5-.2 0 .1.1.3 0 .4 0 .1-.2.1-.3.2zm95.3-57c-.1.1-.1.3-.2.3s-.2-.1-.4-.1c.1-.1.1-.3.2-.3s.3.1.4.1zm-65.8 163.1v-.4s.1-.1.2-.1c.1.1.1.2.2.2-.2.2-.3.3-.4.3zm-143.7-24c-.1.1-.1.3-.2.4-.1 0-.3-.1-.4-.1.1-.1.1-.3.2-.4.1 0 .2.1.4.1zm227.5-132.4c-.1 0-.3 0-.4.1v-.2c.1 0 .3 0 .4-.1v.2zm-48.2 155.2c.1.1.3.1.3.2s-.1.3-.1.4c-.1-.1-.3-.1-.4-.2.1-.2.1-.3.2-.4zm-117.4 45c-.1.1-.1.3-.2.4-.1 0-.3-.1-.4-.2.1-.1.1-.3.2-.4.1 0 .3.2.4.2zm114.2-2.2c-.1.1-.1.3-.2.4-.1 0-.2-.1-.4-.1.1-.1.1-.3.2-.4.1-.1.2 0 .4.1zm-9.2-43.5c-.1.1-.2.1-.3.2 0-.1-.1-.3-.1-.4s.2-.1.3-.2c0 .2 0 .3.1.4zm-62-100.7l.2.2c-.1.1-.2.1-.3.2 0 0-.1-.1-.2-.1l.3-.3zm29.1 80.7c-.1-.1-.2-.1-.3-.2.1-.1.2-.2.3-.2 0 0 .1.1.2.1-.1.1-.2.2-.2.3zm-141.5-38.1c-.2.1-.3.3-.4.3s-.2-.1-.3-.2l.4-.4c0 .1.1.2.3.3zm-12.1 57.7c.1 0 .1.1.2.1l-.3.3-.1-.1c0-.2.1-.2.2-.3zm223.5 40.8l-.3.6s-.2 0-.3-.1c0-.1 0-.2.1-.2.1-.1.3-.2.5-.3zm-106.4-43.5c-.1.1-.1.3-.2.4-.1 0-.2-.1-.4-.1.1-.1.1-.3.2-.4s.3 0 .4.1zm98.3-141c-.2.1-.3.3-.5.3-.1 0-.2-.3-.3-.4.2-.1.4-.2.6-.2 0-.1.1.1.2.3zm-231.9 47.1c-.1-.1-.2-.1-.3-.2 0-.1.1-.1.1-.2h.3c0 .1-.1.3-.1.4zm101.6.1c-.1 0-.2.1-.3.1v-.2c.1 0 .2-.1.3-.1v.2zm87.3 92.6l-.2.4c-.2 0-.3-.1-.5-.2.1-.1.1-.3.2-.3s.3.1.5.1zM315.1 453.6h-.2c0-.1.1-.2.1-.3l.1.1c.1 0 .1.1 0 .2zM430 324.4c0 .1.1.3.1.3-.1.1-.2.1-.4.2 0-.1-.1-.3-.1-.4s.2-.1.4-.1zm42.5 50.9s-.1.1-.1.2l-.2-.2c.1 0 .1-.1.2-.1l.1.1zm-50.4-134.2c-.1-.1-.2-.1-.2-.2 0 0 0-.2.1-.2h.3c0 .1-.1.3-.2.4zm100-44v-.3l.2-.1c.1.1.1.2.2.2-.2.1-.3.1-.4.2zM227.7 374.5c-.1.1-.2.1-.4.2 0-.1-.1-.3-.1-.4.1-.1.2-.2.3-.2.1.1.2.2.2.4zm221.1-93.1c-.1.1-.1.3-.2.3s-.3-.1-.4-.1c.1-.1.1-.3.2-.3s.3.1.4.1zm20.7 24.5c0-.1-.1-.3-.1-.4s.2-.1.4-.2c0 .1.1.3.1.4-.1.1-.2.1-.4.2zm-173.2 8.7c-.1.1-.2.2-.2.3-.1-.1-.1-.2-.2-.3l.3-.3c0 .2 0 .2.1.3zm70.8 5.8c0 .1.1.1.1.2-.1.1-.2.1-.3.2l-.1-.1c.1-.2.2-.2.3-.3zm127-77.5c-.1.2-.2.4-.3.4-.2 0-.4-.1-.5-.2.1-.1.1-.3.2-.3.2 0 .4.1.6.1zm-179.8 87.7v.2h-.2v-.3c.1 0 .2.1.2.1zM504 334c.1 0 .1 0 .2-.1 0 .1 0 .2.1.2h-.2c-.1 0-.1-.1-.1-.1zm-18.7 2.6c-.1 0-.1 0-.2-.1.1-.1.1-.2.2-.2 0 .1.1.1.1.2 0 0-.1 0-.1.1zM350.6 121.2c0 .1-.1.1-.1.2 0-.1-.1-.1-.1-.2s.1-.1.1-.2c0 0 .1.1.1.2zm37.5 220.6h.1l-.1.2zm-111.6.3c-.1 0-.2.1-.3.1 0 0 0-.1-.1-.2.2.1.3.1.4.1zm11.2-.1c.1 0 .1.1.2.1-.1.1-.2.1-.3.2 0-.1-.1-.1-.1-.2.1 0 .2-.1.2-.1zm109.2 3.3c-.1 0-.2.1-.3.1v-.4s.1-.1.2-.1c0 .2 0 .3.1.4zm88.8.6v.2c-.1 0-.1 0-.2.1v-.3c.1-.1.1 0 .2 0zm-228 .8l-.1.1v-.3c0 .1 0 .2.1.2zm213.5.2c-.1.1-.2.2-.3.2-.1 0-.2-.1-.3-.2.1-.1.2-.2.3-.2.1 0 .2.1.3.2zm-8.8 1.4c0 .1 0 .2-.1.2s-.1 0-.2-.1c0-.1 0-.2.1-.2.1.1.2.1.2.1zm-29.3.5l.2-.1v.2zm-2.6 1.1c.1 0 .2 0 .2.1s0 .1-.1.2c-.1 0-.2 0-.2-.1 0 0 .1-.1.1-.2zm17.3 2.8c0 .1 0 .1-.1.2-.1-.1-.2-.1-.2-.2 0 0 .1-.1.1-.2l.2.2zm-102.4.4l.2-.1v.2zm-75 4.4c-.1 0-.2-.1-.2-.1.1-.1.1-.2.2-.4.1 0 .2.1.2.1-.1.2-.1.3-.2.4zM386.3 141h-.1s0-.1-.1-.2h.3c-.1.1-.1.2-.1.2zm130.1.1v-.1l.2.1zM415.2 357.8s0 .1-.1.1-.1 0-.2-.1c0 0 0-.1.1-.1 0 .1.1.1.2.1zm-6.1 2.9c0-.1-.1-.1-.1-.2.1 0 .2-.1.2-.1v.2c0 .1-.1.1-.1.1zm39.6 5.1h-.1v-.2zm-14.5 3.9v.2c-.1 0-.1 0-.2.1v-.3h.2zm-133.7 3.6c-.1 0-.1 0-.2.1 0-.1.1-.2.1-.3.1.1.1.1.1.2zm33 6c-.1.1-.1.2-.2.3l-.1-.1c0-.1.1-.2.2-.3l.1.1zm11.7 4.8c0-.1-.1-.1-.1-.2.1 0 .2-.1.2-.1v.2c.1 0 0 .1-.1.1zM417 161.4c.1 0 .1 0 .2.1-.1.1-.2.1-.2.2l-.1-.1c0-.1.1-.1.1-.2zm-33 1.1c-.1.1-.3.1-.4.1 0 0-.1-.1-.1-.2.1-.1.3-.1.4-.2 0 .1 0 .3.1.3zm61.3 229.3h.1v.2h-.3c.1-.1.2-.1.2-.2zm104.2-225.9c-.1 0-.1.1-.2.1l-.1-.1c.1 0 .1-.1.2-.1l.1.1zm-47 1.4s0-.1.1-.1h.2s0 .1-.1.1h-.2zm-115.3 1.4s0-.1.1-.1h.2s0 .1-.1.1c-.1.1-.1 0-.2 0zm8.3 231.5v.1h-.1zm-15.2 1v.1l-.2-.1zm-131.1 5.1l-.2.2c0-.1-.1-.2-.1-.4 0 0 .1-.1.1-.2 0 .2.1.3.2.4zm62.3-231.7c0-.1-.1-.1-.1-.2.1-.1.2-.1.4-.1 0 0 .1.1.1.2-.2 0-.3 0-.4.1zm-4.4 232.5c-.1 0-.1 0-.2-.1.1-.1.1-.2.2-.2 0 .1.1.1.1.2 0 0-.1 0-.1.1zm142.5.4c-.1 0-.1.1-.2.1l-.1-.1c.1-.1.2 0 .3 0zM339.8 177.9c0-.1-.1-.1-.1-.2.1-.1.2-.1.4-.2 0 0 .1.1.1.2-.1.1-.2.1-.4.2zm-44 231.1c0 .1 0 .1-.1.2l-.2-.2.1-.1c.1 0 .2 0 .2.1zm271.5-229.8c-.1.1-.2.2-.3.2s-.2-.1-.3-.2l.1-.1c.2-.1.3 0 .5.1zm-229.1 1.4c.1-.1.2-.1.4-.2 0 0 .1.1.1.2-.1.1-.2.1-.4.2 0 0 0-.2-.1-.2zm-20.9 235.9c-.1 0-.1.1-.2.1 0-.1-.1-.2-.1-.4 0 0 .1-.1.2-.1 0 .2.1.3.1.4zm78.4 0c0-.1-.1-.1-.1-.2.1 0 .1-.1.2-.1v.2c0 .1 0 .1-.1.1zm-135.3 1.9c0-.1-.1-.2-.1-.3 0 0 .1 0 .1-.1v.4zm92.2-229.7c0 .1-.1.1-.1.2-.1-.1-.2-.1-.3-.2.1 0 .1-.1.2-.1s.1.1.2.1zm56.2 229.2c0 .1-.1.1-.1.2-.1-.1-.2-.1-.2-.2.1 0 .1-.1.2-.1l.1.1zm18 4.4c0 .1-.1.1-.1.2v-.3l.1.1zm-14.6 3.2c-.1 0-.2.1-.3.1v-.4s.1-.1.2-.1c0 .1 0 .3.1.4zm83.3.3c0 .1 0 .1-.1.2l-.2-.2.1-.1c.1 0 .2 0 .2.1zm-110.7 1.6c0 .1 0 .1-.1.2-.1 0-.1 0-.2-.1 0-.1 0-.2.1-.2 0 0 .1 0 .2.1zm92.4 3.8c0 .1.1.3.1.4 0 0-.1.1-.2.1 0-.1-.1-.3-.1-.4.1 0 .2 0 .2-.1zm-84.9 5.5l.1-.2.1.2zm73.6 1.9l-.1.1v-.3c.1.1.1.2.1.2zm-111.7.7c0-.1-.1-.2 0-.2h.1s0 .1-.1.2zm23.9.1c0-.1-.1-.1-.1-.2.1 0 .2-.1.3-.1 0 .1.1.2 0 .2 0 .1-.1.1-.2.1zm64.3-.6s0 .1-.1.1c0-.1-.1-.1-.1-.2.1.1.2.1.2.1zm114.7-238.7c-.1.1-.2.1-.3.1 0 0-.1-.1-.1-.2.1 0 .2-.1.3-.1 0 .1.1.2.1.2zM435.9 450.7l.2.1h-.2zm11.9 2.2c0 .1-.1.1-.1.2-.1-.1-.1-.2-.2-.3l.1-.1c.1.1.2.1.2.2zM482 206.7c.1 0 .1 0 .2-.1v.3h-.2v-.2zm-41.1 256.7c.1 0 .2 0 .2.1s0 .1-.1.2c-.1 0-.1 0-.2-.1.1-.1.1-.1.1-.2zm65.5-252.8c.1 0 .1-.1.2-.1 0 .1 0 .2.1.3h-.2c-.1-.1-.1-.2-.1-.2zm-122.6 254h.1v.2h-.2s.1-.1.1-.2zm-31.6 2.9l-.2-.1h.2zm53.2.2l-.1.1c-.1-.1-.1-.2-.1-.4l.1-.1c0 .2.1.3.1.4zm-13.2-254.1c-.1 0-.1 0-.2-.1l.2-.2s.1.1.2.1c-.1.1-.1.2-.2.2zm-4 255.5s-.1.1-.1 0c0 0-.1-.1-.1-.2.1 0 .2 0 .3-.1-.1.2-.1.3-.1.3zM274.1 214.6c0-.1-.1-.2-.1-.3h.4l.1.2c-.2 0-.3.1-.4.1zm305.8 1c.1 0 .2.1.4.1-.1.1-.1.2-.2.3-.1 0-.2-.1-.4-.1.1-.1.1-.2.2-.3zm-109 .7c-.1 0-.1.1-.2.1 0-.1-.1-.2-.1-.2h.2s0 .1.1.1zm75.1.2c-.1 0-.1 0-.2-.1l.2-.2c0 .1.1.1.1.2 0 0-.1 0-.1.1zm-48.7 11.7c-.1.1-.2.3-.2.3-.1 0-.3-.1-.4-.2.1-.1.1-.2.2-.2s.2 0 .4.1zm43.6 3.8c.1 0 .2-.1.3-.1 0 0 .1.1.1.2-.1 0-.2.1-.4.1.1 0 .1-.1 0-.2zm-49.4.8c.1.1.1.2 0 .3s-.3 0-.3-.1c-.1-.1.2-.2.3-.2zm12.5-2.1c.2.1.2.5 0 .6-.2.2-.8-.1-.8-.3s.6-.5.8-.3zm5.2-9.1v.2c-.1 0-.2 0-.2-.1s.2-.2.2-.1zm-4.5 2.3c-.1 0-.1-.1-.1-.1 0-.1.2-.1.2-.1 0 .1 0 .2-.1.2zM453 234.1v.2l-.1-.1zm26.5 1.2v.1c-.1 0-.1 0-.2.1v-.3c.1.1.1.1.2.1zm56.8-.1c.2-.1.6.1.6.3 0 .1-.5.3-.6.1a.3.3 0 010-.4zm33.3.9c.1 0 .1 0 .1.1s0 .1-.1.2c-.1 0-.1 0-.1-.1s.1-.2.1-.2zm-88.4 6.4l.2.1h-.2zm19.6 2s0-.1.1-.1h.2s0 .1-.1.1h-.2zm-54.6.8c.1 0 .1 0 .2-.1v.3h-.2v-.2zm51.4 3.5c-.1 0-.1 0-.2.1 0-.1 0-.2-.1-.2h.2c.1 0 .1 0 .1.1zm-68.5 2.3c0 .1-.1.2-.1.2-.1-.1-.2-.2-.2-.4 0 .1.2.1.3.2zm50.4.2c-.1-.1-.2-.1-.3-.2.1 0 .1-.1.2-.1s.2.1.3.1l-.2.2zm-155.5.8l.1-.1.1.1zm128.5 5.4c0-.1-.1-.1-.1-.2.1 0 .2-.1.4-.1l.1.1c-.1.1-.3.1-.4.2zm20.4 3.3c-.1 0-.1 0-.2-.1.1-.1.1-.2.2-.2 0 .1.1.1.1.2 0 0 0 .1-.1.1zm7 .8c-.1 0-.1.1-.2.1 0-.1-.1-.1-.1-.2h.2c.1 0 .1.1.1.1zm-21 .7l.3-.3-.3.3c-.1 0 0 0 0 0zm71.7 7.4c-.1.1-.2.2-.3.2s-.1-.1-.2-.2l.1-.1c.1 0 .3.1.4.1zm13.3-.1c0 .1.1.1.1.2-.1.1-.2.1-.4.2l-.1-.1c.2-.2.3-.3.4-.3zm-70.8 4.8c.1-.1.2-.1.4-.2 0 0 .1.1.1.2-.1.1-.2.1-.4.2 0 0 0-.1-.1-.2zm40.8 4.8c.1 0 .2-.1.4-.1l.1.1c-.1 0-.2.1-.4.1 0 .1 0 0-.1-.1zm-2.6 2.1c-.1-.1-.1-.2-.2-.3.1 0 .2-.1.4-.1 0 0 .1.1.1.2-.1.1-.2.1-.3.2zm.5 3.1l.2.1-.2.1zM385.2 286c-.1 0-.1 0-.2-.1l.2-.2.1.1c0 .1-.1.2-.1.2zm53 .9c0 .1.1.1.1.2s-.1.1-.1.2c-.1-.2 0-.3 0-.4zm45.6 10.7l.2.2c-.1.1-.2.1-.4.2 0 0-.1-.1-.2-.1.1-.2.3-.2.4-.3zm-128.2 3.1c-.1 0-.1.1-.2.1 0-.1-.1-.2-.1-.3h.2c0 .1 0 .2.1.2zm40.6 1.9c-.1 0-.2.1-.2.1v-.1c0-.1 0 0 .2 0zm67.1 2.1l.1-.1.1.2zm-18.3 1.2s0-.1.1-.1h.2s0 .1-.1.1c0 .1-.1 0-.2 0zm35.1.5c0-.1-.1-.2-.1-.3 0 0 .1 0 .2-.1-.1.2-.1.3-.1.4zm-114.2 4.3c-.1.1-.1.2-.2.4-.1-.1-.2-.1-.2-.1 0-.1.1-.2.2-.4.1 0 .2 0 .2.1zm113 1.7c0 .1.1.1.1.2-.1.1-.2.1-.4.2 0 0-.1-.1-.1-.2.2-.1.3-.2.4-.2zm-83.3 3.9c0 .1 0 .1.1.2h-.2s0-.1-.1-.1c0 0 .1-.1.2-.1zm10.3 1.9c0 .1-.1.1-.1.2-.1-.1-.1-.2-.2-.2.1 0 .1-.1.2-.1 0-.1 0 0 .1.1zm1.1 5.8c-.1 0-.1.1-.2.1 0-.1-.1-.2-.1-.3h.2c.1.1.1.2.1.2zm30.5.1c-.1 0-.1.1-.2.1 0-.1 0-.2-.1-.3h.2c.1.1.1.2.1.2zm-64.6 1.4c-.1-.1-.2-.2-.2-.3 0-.1.1-.2.2-.2l.1.1c0 .1 0 .2-.1.4zm117.2-192.9l-.1-.1h.2zm-191.9 14.7c-.1 0-.1.1-.2.1l-.1-.1c.1 0 .1-.1.2-.1 0-.1.1 0 .1.1zM564 171.4v.2l-.1-.1zm-224.8 3c-.1 0-.1.1-.2.1s-.1-.1-.1-.1c.1 0 .1-.1.2-.1 0 0 0 .1.1.1zm222.9 16.2l-.1.1v-.2zm-292.8 6v-.1h-.1z" class="st3_5"/></defs><style>.st3_5{fill:#5bc5dd}.st5_5{fill:#5ecfd1}.st8_5{fill:#fff7cc}.st11_5{fill:#22567d}.st12_5{fill:#b0b9aa}.st13_5{fill:#afb6a8}.st21_5{fill:#92cedc}.st51_5{fill:#6cedfd}.st52_5{fill:#83f6ff}.st54_5{fill:#71d4ff}</style><linearGradient id="SVGID_1_5" x1="348.42" x2="348.42" y1="1230.55" y2="849.96" gradientTransform="translate(0 -710.4)" gradientUnits="userSpaceOnUse"><stop offset="0" stop-color="#1a374d"/><stop offset="1" stop-color="#1f2433"/></linearGradient><path fill="url(#SVGID_1_5)" fill-rule="evenodd" d="M145.3 424.4c-20.4-33.3-32.4-71.1-43-103.3-10.2-32.4-18-59.1-14.5-75.9 3.1-17.3 18.9-24.7 42-30.3 22.7-6 51.6-10.8 75.4-31 52.9-33.5 89.2-94.4 147.4-117.7 55.2-26.6 135.2-10.4 191.9 33.5C657.3 185.5 606.2 300.9 526 439c-40.6 67.8-94.6 117.6-177.9 106.7-81.5-8.2-164.1-54.5-202.8-121.3" clip-rule="evenodd"/><linearGradient id="SVGID_2_5" x1="168.05" x2="570.88" y1="1352.08" y2="1352.08" gradientTransform="translate(0 -1064.4)" gradientUnits="userSpaceOnUse"><stop offset="0" stop-color="#4aa3dc"/><stop offset="1" stop-color="#3364a0"/></linearGradient><path fill="url(#SVGID_2_5)" fill-rule="evenodd" d="M554.7 228.3c9.1 30.1 11.2 62.5 13.2 90.1 1.7 27.7 2.7 50.4-2.9 63.4-5.4 13.4-18.4 16.8-36.4 17.5-17.8 1.1-39.9.2-61.1 12.5-45 18.3-82.7 61.3-129.7 70.4-45.5 12.3-101.6-13.8-135.5-58.4-67.8-87.4-9.6-171.9 74.2-269.7 42-47.8 90.8-79 150.2-56.6 58.7 20.1 111.4 70.8 128 130.8" clip-rule="evenodd"/><path fill="#303f54" fill-rule="evenodd" d="M465.3 114c39.5 5.4 75.8 16.1 100.8 27.9 25.3 12 39.2 25.1 41.3 38.4 2.4 13.4-6.9 26.9-20.9 42.5-13.7 15.7-32 33.5-40 58.2-21.9 47.6-17.4 103.3-38.3 143.6-18.3 40.8-62 66-120.6 65.8-115 0-205.3-91.9-207-207 .6-57 22.1-109.3 73.9-139.8 50.1-31.3 130.5-40.7 210.8-29.6" clip-rule="evenodd"/><path d="M322.8 453.3c-.4-1-.4-1.7 0-2.3.2-.3.6-.5 1-.2.5.2.7.8.4 1.2-.3.4-.8.8-1.4 1.3zM212.7 341.4c-.1-.1-.4-.3-.5-.5-.2-.6.3-1.3.9-1.4.3 0 .8.4.8.7-.1.6-.5 1.1-1.2 1.2zm140-23.4c-.5-.9-.3-1.4.1-1.8.3-.3.6-.4 1-.2.4.3.5.9.1 1.2-.4.3-.8.5-1.2.8zm102.1-73.7c-.2-.3-.4-.7-.4-1s.2-.7.5-.9c.2-.1.6-.1.8 0 .2.1.2.5.2.8-.2.6-.3 1.1-1.1 1.1zm-93.2 109.9c0-.9-.1-1.3 0-1.7.1-.2.4-.4.7-.5.2-.1.5 0 .6.1s.2.4.2.6c0 .7-.6.9-1.5 1.5zm155.6-73.5c-.6 0-1.2.1-2.1.1.2-.5.2-.9.4-1 .8-.3 1.3.2 1.7.9zm-108.4 72.6c.1-.5 0-1 .2-1.5.1-.2.6-.3 1-.4.1.3.4.8.3 1-.2.4-.7.8-1 1.1-.2 0-.3-.1-.5-.2zm-87.1-109l.4-2.3c.9-.1 1.1.5 1.3 1.2-.4.3-.8.6-1.7 1.1zM270 278.4c-.4-1.1-.1-1.5.4-1.8.2-.1.5-.1.6 0s.3.5.2.6l-1.2 1.2zm111.4 32.2c0-.3-.1-.6 0-.7.1-.4.4-.7.8-.6.1 0 .3.1.3.3.2.5-.1.7-.4.9-.1 0-.3 0-.7.1zm-118.1 80.2c-.1-.1-.1-.1-.1-.2 0-1 .1-1.4.7-1.4.2 0 .5.2.5.4.2.7-.3 1-.8 1.2h-.3zm315.9-226.5c-.1.5-1 .8-1.3.4-.1-.1-.1-.3-.1-.4.2-.5.7-.6 1.2-.4.1.1.1.3.2.4zm-92.1 70.3c-.3-.1-.5-.2-.9-.3.5-.7.8-1.3 1.9-.9-.5.5-.8.9-1 1.2zm-.1.1c.1.1.3.1.4.2.2.2.4.5.4.7-.1.2-.4.4-.7.5-.3.1-.6-.1-.8-.1-.2-.8.4-1 .7-1.3zm-30.5 169.2c-.2-.4-.4-.6-.4-.7.1-.3.4-.5.6-.8.2.2.5.5.5.6-.1.3-.4.6-.7.9zm-32.8-265c.3-.3.5-.6.8-.9.1-.1.5.1.6.2.1.2.1.5 0 .6-.3.2-.7.3-1 .5-.2-.1-.3-.2-.4-.4zm-59.4 224.2c.1.1.2.2.3.4.1.5.2.9-.4 1.1-.1 0-.3 0-.4-.1-.4-.4-.2-.8.2-1.2 0-.2.1-.2.3-.2zm26.1-35.5c.3.2.6.4.5.5-.1.3-.2.5-.4.7-.1.1-.4-.1-.6-.2.2-.3.3-.6.5-1zm52.2-34.3c.1.3.2.5.2.7-.1.3-.2.5-.4.7 0 0-.3 0-.4-.1-.3-.3-.3-.7 0-1 .1-.1.3-.2.6-.3zm14.4-52.1c.2.3.6.5.5.7 0 .2-.3.4-.5.6-.1-.2-.4-.4-.4-.7 0-.1.2-.3.4-.6zm-25.6 30.2c.2.4.4.7.6 1.1 0 0-.2.2-.3.2-.4 0-.8-.5-.7-.9-.1-.2.1-.2.4-.4zm-8.3-11.2c.4 0 .8-.1 1.2-.1 0 0 .1.3.1.4-.1.4-.8.5-1.1.3-.1-.1-.1-.2-.2-.6zm1.8-11.7c.4 0 .8-.1 1.2-.1 0 0 .1.3.1.4-.1.4-.8.5-1.1.3-.1 0-.1-.2-.2-.6zm65-10c-.7.1-1.1-.1-1.3-1 .8 0 1.3.2 1.3 1zm-37.2 67.7c-.1-.2-.2-.5-.1-.7s.4-.4.7-.5c0 0 .3.2.3.3 0 .2-.1.5-.2.6-.2.2-.5.2-.7.3 0-.1 0 0 0 0zm-227.5 81.7c.2 0 .3 0 .4.1l.6.6c-.2.1-.3.3-.5.4-.2-.2-.4-.5-.5-.7-.1-.1-.1-.2 0-.4zm288.9-141.5c0 .6-.3.7-.7.8-.1 0-.3-.1-.4-.2-.2-.3.2-.8.6-.8.2-.1.4.1.5.2zm15.1-96.2c.2.3.4.4.5.6-.2.2-.4.4-.7.5-.1 0-.3-.2-.4-.4.2-.2.4-.4.6-.7zm-95.8-32.3l-1 .3s-.2-.2-.2-.4c0-.4.5-.6.9-.5.1.1.1.3.3.6zm8.2 286.9c-.2-.4-.4-.6-.4-.7.1-.2.4-.4.6-.6.1.2.4.4.3.5.1.3-.2.5-.5.8zm-170.1-136c-.5.2-.8.3-1.1.5-.1-.1-.2-.3-.2-.4l.6-.6c.2-.1.4.2.7.5zm259.4-34.5l-1 .3s-.2-.3-.1-.4c.1-.4.6-.6.9-.4 0 0 0 .2.2.5zm-71.7 144.5c-.2.2-.4.4-.6.4-.1 0-.4-.3-.4-.4 0-.2.3-.4.4-.4.2 0 .3.3.6.4zM472.8 234c-.9.3-1.2.6-1.4.5-.2-.1-.3-.4-.5-.6.3-.1.5-.2.8-.2.3 0 .5.1 1.1.3zm-176.5 31.7l.4.4c-.2.2-.3.4-.5.6-.1-.1-.4-.3-.4-.4.1-.3.3-.4.5-.6zm-58.8 126.2c.3-.2.5-.4.7-.6.1.2.3.3.3.5s-.2.4-.4.5c-.1 0-.3-.2-.6-.4zm109.8-8.3c-.2.1-.3.3-.5.4-.1-.2-.2-.3-.4-.5.2-.1.3-.3.5-.3.1 0 .2.2.4.4zm-47.2-205.5c-.2-.2-.3-.3-.5-.4.1-.2.3-.4.4-.4s.3.2.5.3c-.1.1-.2.3-.4.5zm131.3 153.4c-.5.3-.7.5-.9.5-.1 0-.3-.3-.3-.4 0-.2.3-.3.4-.4.3 0 .5.1.8.3zm71.5-117.1c.3-.2.4-.4.6-.4.1 0 .3.2.5.4-.2.1-.3.3-.5.4-.1-.1-.3-.3-.6-.4zM333.7 346.6c-.3-.3-.5-.4-.5-.6s.2-.4.3-.5c.1-.1.5.1.5.2 0 .3-.1.5-.3.9zm17.6 55.1c-.2.2-.4.4-.6.4-.1 0-.3-.2-.4-.4.2-.1.3-.4.5-.4.1 0 .3.3.5.4zm-96.4-80.5c-.2.1-.5.3-.7.4l-.2-.3c.2-.2.4-.4.6-.5.1 0 .1.2.3.4zm77.4-61.2c-.2-.2-.3-.3-.5-.3l.6-.6c.1.1.4.3.4.4-.1.2-.3.3-.5.5zm105.8 85.7c-.2-.3-.4-.5-.3-.7s.3-.4.5-.6c.1.2.3.3.3.5 0 .3-.2.4-.5.8zm34.2-.7c-.2-.4-.3-.6-.3-.8 0-.2.2-.4.4-.5.1 0 .4.2.4.3 0 .3-.2.5-.5 1zM500 182.2c-.2.1-.4.3-.5.3s-.2-.3-.3-.5c.2-.1.4-.2.6-.2 0 0 .1.3.2.4zm-37 36c.2-.7.6-.8 1.3-.4-.5.2-.9.3-1.3.4zm3.9 220.8c-.1-.3-.3-.5-.2-.6.1-.2.3-.3.5-.4.1.2.3.4.3.5-.1.2-.4.3-.6.5z" class="st3_5"/><use class="st3_5" xlink:href="#reuse-0"/><use class="st3_5" xlink:href="#reuse-1"/><path d="M199.6 261.3l.3-.3c.3.3.1.4-.1.5l-.2-.2zm121.1 159.6l-.1.2.1-.1zm-75.4-162.1c-.1 0-.1.1-.2.1s-.1-.1-.1-.2c.1 0 .1-.1.2-.1 0 0 .1.1.1.2zM261 435l-.1.1v-.1zm168.2 0l-.1.1v-.1zM286.3 255.4l-.2.1v-.2zM278.7 437l-.1.1c0-.1-.1-.1-.1-.2l.1-.1c0 .1.1.1.1.2zm197 .9l.2-.1v.2zM464 252.5l-.1.1v-.1zm-131.7 71.1v-.1h.1zm4.3 127.6h.1v.1zm11.9 0h.1v.1zM358.6 343v.1h-.1zm132-97.5l-.1-.2.2.1zM465 454.6l-.1.1-.1-.1.1-.1s0 .1.1.1zm-.3 3.3h.2l-.1.1zm42.5-216.8l.1-.1v.2zm-95.7 76.1v.2h-.1zm22.4-22.6l-.1-.2.1.1zM333.3 471.2l.1.1h-.1zm92.1.1l-.2.2c-.1-.1-.1-.1-.1-.2s.1-.1.2-.2c0 .1.1.1.1.2zm-78.5-231.8zm0 0l.1-.1-.1.1zm82.7 69.6v.2h-.1zm9.3-17.7l-.1-.1.1.1zm111.2-59.1l.2.4h-.4zM322.8 453.3c-.4-1-.4-1.7 0-2.3.2-.3.6-.5 1-.2.5.2.7.8.4 1.2-.3.4-.8.8-1.4 1.3zM212.7 341.4c-.1-.1-.4-.3-.5-.5-.2-.6.3-1.3.9-1.4.3 0 .8.4.8.7-.1.6-.5 1.1-1.2 1.2zm140-23.4c-.5-.9-.3-1.4.1-1.8.3-.3.6-.4 1-.2.4.3.5.9.1 1.2-.4.3-.8.5-1.2.8zm102.1-73.7c-.2-.3-.4-.7-.4-1s.2-.7.5-.9c.2-.1.6-.1.8 0 .2.1.2.5.2.8-.2.6-.3 1.1-1.1 1.1zm-93.2 109.9c0-.9-.1-1.3 0-1.7.1-.2.4-.4.7-.5.2-.1.5 0 .6.1s.2.4.2.6c0 .7-.6.9-1.5 1.5zm155.6-73.5c-.6 0-1.2.1-2.1.1.2-.5.2-.9.4-1 .8-.3 1.3.2 1.7.9zm-108.4 72.6c.1-.5 0-1 .2-1.5.1-.2.6-.3 1-.4.1.3.4.8.3 1-.2.4-.7.8-1 1.1-.2 0-.3-.1-.5-.2zm-87.1-109l.4-2.3c.9-.1 1.1.5 1.3 1.2-.4.3-.8.6-1.7 1.1zM270 278.4c-.4-1.1-.1-1.5.4-1.8.2-.1.5-.1.6 0s.3.5.2.6l-1.2 1.2zm111.4 32.2c0-.3-.1-.6 0-.7.1-.4.4-.7.8-.6.1 0 .3.1.3.3.2.5-.1.7-.4.9-.1 0-.3 0-.7.1zm-118.1 80.2c-.1-.1-.1-.1-.1-.2 0-1 .1-1.4.7-1.4.2 0 .5.2.5.4.2.7-.3 1-.8 1.2h-.3zm315.9-226.5c-.1.5-1 .8-1.3.4-.1-.1-.1-.3-.1-.4.2-.5.7-.6 1.2-.4.1.1.1.3.2.4zm-92.1 70.3c-.3-.1-.5-.2-.9-.3.5-.7.8-1.3 1.9-.9-.5.5-.8.9-1 1.2zm-.1.1c.1.1.3.1.4.2.2.2.4.5.4.7-.1.2-.4.4-.7.5-.3.1-.6-.1-.8-.1-.2-.8.4-1 .7-1.3zm-30.5 169.2c-.2-.4-.4-.6-.4-.7.1-.3.4-.5.6-.8.2.2.5.5.5.6-.1.3-.4.6-.7.9zm-32.8-265c.3-.3.5-.6.8-.9.1-.1.5.1.6.2.1.2.1.5 0 .6-.3.2-.7.3-1 .5-.2-.1-.3-.2-.4-.4zm-59.4 224.2c.1.1.2.2.3.4.1.5.2.9-.4 1.1-.1 0-.3 0-.4-.1-.4-.4-.2-.8.2-1.2 0-.2.1-.2.3-.2zm26.1-35.5c.3.2.6.4.5.5-.1.3-.2.5-.4.7-.1.1-.4-.1-.6-.2.2-.3.3-.6.5-1zm52.2-34.3c.1.3.2.5.2.7-.1.3-.2.5-.4.7 0 0-.3 0-.4-.1-.3-.3-.3-.7 0-1 .1-.1.3-.2.6-.3zm14.4-52.1c.2.3.6.5.5.7 0 .2-.3.4-.5.6-.1-.2-.4-.4-.4-.7 0-.1.2-.3.4-.6zm-25.6 30.2c.2.4.4.7.6 1.1 0 0-.2.2-.3.2-.4 0-.8-.5-.7-.9-.1-.2.1-.2.4-.4zm-8.3-11.2c.4 0 .8-.1 1.2-.1 0 0 .1.3.1.4-.1.4-.8.5-1.1.3-.1-.1-.1-.2-.2-.6zm1.8-11.7c.4 0 .8-.1 1.2-.1 0 0 .1.3.1.4-.1.4-.8.5-1.1.3-.1 0-.1-.2-.2-.6zm65-10c-.7.1-1.1-.1-1.3-1 .8 0 1.3.2 1.3 1zm-37.2 67.7c-.1-.2-.2-.5-.1-.7s.4-.4.7-.5c0 0 .3.2.3.3 0 .2-.1.5-.2.6-.2.2-.5.2-.7.3 0-.1 0 0 0 0zm-227.5 81.7c.2 0 .3 0 .4.1l.6.6c-.2.1-.3.3-.5.4-.2-.2-.4-.5-.5-.7-.1-.1-.1-.2 0-.4zm288.9-141.5c0 .6-.3.7-.7.8-.1 0-.3-.1-.4-.2-.2-.3.2-.8.6-.8.2-.1.4.1.5.2zm15.1-96.2c.2.3.4.4.5.6-.2.2-.4.4-.7.5-.1 0-.3-.2-.4-.4.2-.2.4-.4.6-.7zm-95.8-32.3l-1 .3s-.2-.2-.2-.4c0-.4.5-.6.9-.5.1.1.1.3.3.6zm8.2 286.9c-.2-.4-.4-.6-.4-.7.1-.2.4-.4.6-.6.1.2.4.4.3.5.1.3-.2.5-.5.8zm-170.1-136c-.5.2-.8.3-1.1.5-.1-.1-.2-.3-.2-.4l.6-.6c.2-.1.4.2.7.5zm259.4-34.5l-1 .3s-.2-.3-.1-.4c.1-.4.6-.6.9-.4 0 0 0 .2.2.5zm-71.7 144.5c-.2.2-.4.4-.6.4-.1 0-.4-.3-.4-.4 0-.2.3-.4.4-.4.2 0 .3.3.6.4zM472.8 234c-.9.3-1.2.6-1.4.5-.2-.1-.3-.4-.5-.6.3-.1.5-.2.8-.2.3 0 .5.1 1.1.3zm-176.5 31.7l.4.4c-.2.2-.3.4-.5.6-.1-.1-.4-.3-.4-.4.1-.3.3-.4.5-.6zm-58.8 126.2c.3-.2.5-.4.7-.6.1.2.3.3.3.5s-.2.4-.4.5c-.1 0-.3-.2-.6-.4zm109.8-8.3c-.2.1-.3.3-.5.4-.1-.2-.2-.3-.4-.5.2-.1.3-.3.5-.3.1 0 .2.2.4.4zm-47.2-205.5c-.2-.2-.3-.3-.5-.4.1-.2.3-.4.4-.4s.3.2.5.3c-.1.1-.2.3-.4.5zm131.3 153.4c-.5.3-.7.5-.9.5-.1 0-.3-.3-.3-.4 0-.2.3-.3.4-.4.3 0 .5.1.8.3zm71.5-117.1c.3-.2.4-.4.6-.4.1 0 .3.2.5.4-.2.1-.3.3-.5.4-.1-.1-.3-.3-.6-.4zM333.7 346.6c-.3-.3-.5-.4-.5-.6s.2-.4.3-.5c.1-.1.5.1.5.2 0 .3-.1.5-.3.9zm17.6 55.1c-.2.2-.4.4-.6.4-.1 0-.3-.2-.4-.4.2-.1.3-.4.5-.4.1 0 .3.3.5.4zm-96.4-80.5c-.2.1-.5.3-.7.4l-.2-.3c.2-.2.4-.4.6-.5.1 0 .1.2.3.4zm77.4-61.2c-.2-.2-.3-.3-.5-.3l.6-.6c.1.1.4.3.4.4-.1.2-.3.3-.5.5zm105.8 85.7c-.2-.3-.4-.5-.3-.7s.3-.4.5-.6c.1.2.3.3.3.5 0 .3-.2.4-.5.8zm34.2-.7c-.2-.4-.3-.6-.3-.8 0-.2.2-.4.4-.5.1 0 .4.2.4.3 0 .3-.2.5-.5 1zM500 182.2c-.2.1-.4.3-.5.3s-.2-.3-.3-.5c.2-.1.4-.2.6-.2 0 0 .1.3.2.4zm-37 36c.2-.7.6-.8 1.3-.4-.5.2-.9.3-1.3.4zm3.9 220.8c-.1-.3-.3-.5-.2-.6.1-.2.3-.3.5-.4.1.2.3.4.3.5-.1.2-.4.3-.6.5z" class="st3_5"/><use class="st3_5" xlink:href="#reuse-0"/><use class="st3_5" xlink:href="#reuse-1"/><path d="M199.6 261.3l.3-.3c.3.3.1.4-.1.5l-.2-.2zm121.1 159.6l-.1.2.1-.1zm-75.4-162.1c-.1 0-.1.1-.2.1s-.1-.1-.1-.2c.1 0 .1-.1.2-.1 0 0 .1.1.1.2zM261 435l-.1.1v-.1zm168.2 0l-.1.1v-.1zM286.3 255.4l-.2.1v-.2zM278.7 437l-.1.1c0-.1-.1-.1-.1-.2l.1-.1c0 .1.1.1.1.2zm197 .9l.2-.1v.2zM464 252.5l-.1.1v-.1zm-131.7 71.1v-.1h.1zm4.3 127.6h.1v.1zm11.9 0h.1v.1zM358.6 343v.1h-.1zm132-97.5l-.1-.2.2.1zM465 454.6l-.1.1-.1-.1.1-.1s0 .1.1.1zm-.3 3.3h.2l-.1.1zm42.5-216.8l.1-.1v.2zm-95.7 76.1v.2h-.1zm22.4-22.6l-.1-.2.1.1zM333.3 471.2l.1.1h-.1zm92.1.1l-.2.2c-.1-.1-.1-.1-.1-.2s.1-.1.2-.2c0 .1.1.1.1.2zm-78.5-231.8zm0 0l.1-.1-.1.1zm82.7 69.6v.2h-.1zm9.3-17.7l-.1-.1.1.1zm111.2-59.1l.2.4h-.4z" class="st3_5"/><g><linearGradient id="SVGID_3_5" x1="192.3" x2="278.17" y1="-333.86" y2="-333.86" gradientTransform="matrix(1 0 0 -1 0 -62)" gradientUnits="userSpaceOnUse"><stop offset=".06" stop-color="#fff7cc"/><stop offset=".35" stop-color="#fcbdee"/><stop offset=".39" stop-color="#f8bcee"/><stop offset=".44" stop-color="#ebbaf0"/><stop offset=".48" stop-color="#d5b7f2"/><stop offset=".53" stop-color="#b7b2f5"/><stop offset=".55" stop-color="#a8b0f7"/><stop offset=".6" stop-color="#a9b4f7"/><stop offset=".66" stop-color="#acc1f5"/><stop offset=".72" stop-color="#b1d7f3"/><stop offset=".75" stop-color="#b4e6f1"/></linearGradient><path fill="url(#SVGID_3_5)" d="M274 295.6c-20.5 6.7-41.6 9.4-63.1 10.2-10.2-11.8-16.5-27.8-18.6-43.2 5.3-9.8 14.4-17.5 24.9-21.2s23.8-5.9 32.5 1.1c1.3 1.1 3.6 1.8 4.9 2.9l22.3-4.2c2.5 18.2 1.2 36.4-2.9 54.4z"/><path d="M426.2 172.6c17.3 3.7 31.8 16.4 39.7 32.2 7.9 15.8 9 34.6 4.1 51.5-7.1.8-14 2.3-21.1 1.3s-14.2-4-18.8-9.5c-4.7-5.7-6.1-13.4-7-20.7-2-17.8-.2-37.1 3.1-54.8z" class="st5_5"/><linearGradient id="SVGID_4_5" x1="211.06" x2="461.79" y1="-273.16" y2="-277.74" gradientTransform="matrix(1 0 0 -1 0 -62)" gradientUnits="userSpaceOnUse"><stop offset=".17" stop-color="#fff7cc"/><stop offset=".28" stop-color="#fcd1f2"/><stop offset=".3" stop-color="#f8cff2"/><stop offset=".32" stop-color="#ebcaf3"/><stop offset=".35" stop-color="#d5c2f4"/><stop offset=".37" stop-color="#b7b6f6"/><stop offset=".38" stop-color="#a8b0f7"/><stop offset=".48" stop-color="#a9b4f7"/><stop offset=".58" stop-color="#acc1f5"/><stop offset=".69" stop-color="#b1d7f3"/><stop offset=".75" stop-color="#b4e6f1"/></linearGradient><path fill="url(#SVGID_4_5)" d="M452.8 253.4c3-12.6 6-25.4 5.4-38.4-.6-12.9-5.4-26.3-15.4-34.4-9.8-7.9-23-9.9-35.6-10.9-17.8-1.4-35.7-1.4-53.5-.1-10.2.8-20.4 2-30.1 5.2s-18.9 8.3-25.7 16c-7.1 8.1-11 18.5-12.9 29s-1.9 21.3-1.9 32c56.2 9.1 113.7 11.4 169.7 1.6z"/><path d="M430.6 216.7c.3-1.1.8-2.4 1-3.5 1-4.2 1.5-8.5 1.5-12.8 0-8.7-2.2-17.4-6.1-25.2l-1.5-2.7c-6-1.5-12.2-2.3-18.4-2.7-17.8-1.4-35.7-1.4-53.5-.1-6.3.5-12.7 1.1-19 2.3-12.6 15.5-15.2 36.8-15.1 56.1 0 1.2.2 2.4.5 3.6-3.5 1.9-7.4 4-11 6 2.8 7 6.8 13.4 11.7 19.1 26.1 2.7 52.3 3.7 78.5 2.4 9.3-4.7 18.2-10.1 26.6-16.1 3.9-2.8 7.8-5.8 12.1-8 4.3-2.3 9.1-3.8 13.9-3.4.7-1 .9-1.5 1.2-2.7-6.5-5.5-14-10.8-22.4-12.3z" class="st5_5"/><linearGradient id="SVGID_5_5" x1="273.6" x2="379.75" y1="-348.94" y2="-446.58" gradientTransform="matrix(1 0 0 -1 0 -62)" gradientUnits="userSpaceOnUse"><stop offset=".06" stop-color="#fff7cc"/><stop offset=".35" stop-color="#fcbdee"/><stop offset=".4" stop-color="#f8bdef"/><stop offset=".44" stop-color="#ebbcf0"/><stop offset=".49" stop-color="#d5baf3"/><stop offset=".54" stop-color="#b7b8f6"/><stop offset=".55" stop-color="#afb7f7"/><stop offset=".61" stop-color="#afbbf6"/><stop offset=".67" stop-color="#b1c8f5"/><stop offset=".73" stop-color="#b3def2"/><stop offset=".75" stop-color="#b4e6f1"/></linearGradient><path fill="url(#SVGID_5_5)" d="M455.9 240.4c-1.8-9.5-12.8-17.5-21.2-20.7-9.7-3.7-21.6-3.9-31.9-4.3-43-1.7-94.4 5.7-125.8 25.6-9.9 81 .9 164.3 31.9 239.8.6 1.4.4 3.3.7 4.8a60.2 60.2 0 00-23.4 32.4c26.8 2.3 56.3 2 87.4 0 .1-15.1-2-30.9-6.9-45.2-1.8-1.4-3.8-3-5.6-4.4-4-22.1-5.1-44.3-3.1-66.6 7.1 3.6 13.5 8.9 18.4 15.2 1.8.5 11.4 41.4 14.3 61-.9 13.3-1.2 27.4-1.6 40.6 23.3 3.8 47.3 3.5 70.5-.7-.1-17-2.4-33.5-7.1-49.8l-.8-5.4c-.8-13.1-1.7-26.2-2.6-39.4-1.3-18.6-3.6-37.4-3.5-55.9.1-19.5.9-38.9 2.5-58.3 1.6-19.5 4.6-38.7 7.4-58.1.5-3.1.9-6.3.6-9.4-.1-.5-.1-.9-.2-1.2z"/><path d="M290.7 514.9c4.4.3 8.9.6 13.5.8 5-10.2 12.4-17.2 20.7-25.4l2.1-2.1.1-.1c.1-.3.2-.5.2-.6.6-6.6.3-13.4.1-20-1-33.5-6.7-66.3-2.5-99.8 3.9-31.4 8.7-61.3 26.7-88.3 16.1-24.1 37-44.3 61.2-60.2-2.6-.2-5.2-.3-7.8-.3l-2.4-.1c-3.9-.2-7.9-.2-11.9-.2-44.3 0-85.5 9.1-110.7 24.4-9.6 80.5 1.4 162.2 31.8 236.5.6 1.4.7 2.8.7 3.9 0 .6.1 1.1.2 1.5l.5 2.2-1.9 1.3c-9.2 6.2-16.5 15.8-20.6 26.5zm101.8.6c8.1 1.2 16.4 1.9 24.7 2.1-2.7-20.9-7-43.1-15.4-64.4-.9-2.3-4.3-9.7-6.9-14.2-1.3-2.3-2.7-4.4-4.2-6.6-.4-.5-.7-.9-.9-1.2-.5-.6-1-1.2-1.4-1.8-2.3-2.8-4.6-5.6-6.8-8.4 1.1 3.8 2.6 9.5 4.7 18.4 2.6 11.1 6 27 7.6 37.9l.1.4v.4c-.8 12.2-1.2 25-1.5 37.4z" class="st8_5"/><linearGradient id="SVGID_6_5" x1="417.06" x2="422.43" y1="-292.93" y2="-412.83" gradientTransform="matrix(1 0 0 -1 0 -62)" gradientUnits="userSpaceOnUse"><stop offset="0" stop-color="#a2b5e2"/><stop offset="1" stop-color="#91cddc"/></linearGradient><path fill="url(#SVGID_6_5)" d="M450.8 468.4v-.1l-.9-5.6c-.7-11.9-1.6-24.7-2.6-39.3-.4-5.6-.9-11.3-1.3-16.9-1.1-12.9-2.2-26.1-2.2-39.2.1-19.4.9-39.1 2.5-58.5 1.5-18.3 4.2-36.6 6.9-54.4l.6-3.8c.4-3 .9-6 .6-8.9 0-.3-.1-.6-.1-.9-1.6-8.3-11.3-16.1-20.2-19.5a48.5 48.5 0 00-11.8-2.8c-15.2 2.2-29.4 12.8-33.3 27.6 37.2 24 31.5 77.4 9.7 109.8-4.8 7.2-10.8 14.3-11.7 23-1 10.7 6.1 20.3 12.9 28.6 6.1 7.5 10.6 15.9 14.2 24.7-6.1 1.1-11.9 3.5-17.3 6.6-.4 10.4.7 20.8 3.2 30.9 8 1.6 16.3 2.2 24.4 1.8v.1c.5 3.8.9 7.7 1.1 11.6 0 .8 0 1.4.4 2.1.5.8 1.3 1.4 1.8 2.2 1.1 1.5 1.9 3.1 2.6 4.8 1 2.4 1.6 4.9 2 7.4 1 7-1.7 14.1 6.5 16.4 6 1.7 12.8 1.2 19-.2-.2-16.4-2.5-31.9-7-47.5z"/><linearGradient id="SVGID_7_5" x1="341.11" x2="342.9" y1="-321.68" y2="-452.32" gradientTransform="matrix(1 0 0 -1 0 -62)" gradientUnits="userSpaceOnUse"><stop offset="0" stop-color="#a2b5e2"/><stop offset="1" stop-color="#91cddc"/></linearGradient><path fill="url(#SVGID_7_5)" d="M363.7 395.7c-8-6.1-17.3-7.8-26.7-11-7.5 30.2 5.6 61.6 6.4 92.7.2 5.6-.2 11.5-3.2 16.3-3 4.7-9.5 8.3-14.5 5.8 2 2.2 1.3 5.9-.8 8-2.1 2.1-5.1 3-8 3.5-2.9.6-5.9.9-8.6 2.3 20.2 3.4 41.9 1.9 62.1-1.5-.6-12.5-2.4-25.7-6.5-37.5-2.2-.7-4.1-1.6-6.3-2.3-2.3-20.1-2.5-40.9-1.9-61.1l1.5.3c.2-3.2.4-6.3.7-9.5 7.1 3.6 13.5 8.9 18.4 15.2.2.1.6.7 1 1.9.8.5 1.5 1 2.3 1.6-1.6-10-8-18.6-15.9-24.7z"/><path d="M377.9 311.9h-2.1c.1-8.1 1.2-16.5 3.7-27.3l.1-.3.2-.2c5.1-4.9 11.5-8.9 18-11.4 1.9-17 9-33.4 20.1-46.2l1.6 1.4c-11 12.6-18 28.9-19.7 45.7l-.1.7-.6.2a50.7 50.7 0 00-17.6 11c-2.4 10.4-3.5 18.6-3.6 26.4z" class="st11_5"/><path d="M375.8 311.4c.1-7.8 1.3-16.1 3.7-26.6v-.1l.1-.1c5-4.8 11.4-8.8 17.8-11.3l.3-.1v-.4c1.8-16.7 8.8-32.8 19.6-45.4l.7.6a82.45 82.45 0 00-19.4 45.6v.3l-.3.1c-6.4 2.4-12.8 6.3-17.8 11.1l-.1.1v.2c-2.4 10.3-3.5 18.3-3.6 26h-1z" class="st12_5"/><path d="M370.9 317.8c0-2.8 2.1-5.5 4.8-6.1 1.2-.3 2.5-.2 3.6.2 4.7 1.9 4.6 7.8.8 10.5-3.6 2.6-9.2.2-9.2-4.6z" class="st11_5"/><path d="M371.9 316.5c0-1.4 1.1-2.8 2.5-3.1.6-.1 1.3-.1 1.9.1 2.4 1 2.3 4 .4 5.4-1.9 1.3-4.7 0-4.8-2.4z" class="st13_5"/><path d="M287.7 271.3l.1 1.1 1.1-.1c4.2-.6 7.6-.8 11.3-.2 2.9 7.3 4.5 15.5 4.4 23.1h2.1c.1-8.1-1.6-16.8-4.8-24.5l-.2-.5-.6-.1c-3.9-.7-7.3-.6-11.5-.1-1.5-12.3-.5-25 3.1-36.9l-.6-.2c-.6.3-1.1.5-1.7.8a91.8 91.8 0 00-2.7 37.6z" class="st11_5"/><path d="M304.5 294.7c0-7.5-1.6-15.6-4.4-22.7l-.1-.3-.3-.1c-1.5-.3-3-.4-4.6-.4-1.9 0-4 .2-6.9.6l-.5.1-.1-.5c-1.7-12.3-.8-25.1 2.7-37.1.4-.2.7-.3 1.1-.5a91.37 91.37 0 00-3 36.4l.1.6.6-.1c2.4-.3 4.2-.4 5.9-.4 1.8 0 3.6.2 5.3.5h.2l.1.2c3.1 7.4 4.7 15.8 4.7 23.6l-.8.1z" class="st12_5"/><linearGradient id="SVGID_8_5" x1="299.79" x2="325.03" y1="-349.84" y2="-379.95" gradientTransform="matrix(1 0 0 -1 0 -62)" gradientUnits="userSpaceOnUse"><stop offset="0" stop-color="#131f49"/><stop offset=".61" stop-color="#22567d"/></linearGradient><path fill="url(#SVGID_8_5)" d="M311.3 285.1c3.9-1.1 8.4-.8 11.8 1.3 4.2 2.6 6 7.2 6.9 11.7.9 4.4 1.1 9.1-.3 13.4a17.4 17.4 0 01-8.8 10.6c-6.2 3-14.4 1.7-19.5-2.6-12.5-10.5-5.8-30.1 9.9-34.4z"/><linearGradient id="SVGID_9_5" x1="311.22" x2="301.68" y1="-372.64" y2="-355.46" gradientTransform="matrix(1 0 0 -1 0 -62)" gradientUnits="userSpaceOnUse"><stop offset="0" stop-color="#fd1013"/><stop offset=".48" stop-color="#ea23bd"/><stop offset=".68" stop-color="#3f3ccf"/><stop offset=".74" stop-color="#4159cd"/><stop offset=".86" stop-color="#45a4c6"/><stop offset=".86" stop-color="#45a7c6"/></linearGradient><path fill="url(#SVGID_9_5)" d="M316.2 300.9c-.5-2.3-1.4-4.7-3.5-6-1.7-1.1-4-1.2-6.1-.7-8.1 2.2-11.5 12.3-5.1 17.6 2.6 2.2 6.8 2.9 10 1.3 2.3-1.1 3.8-3.2 4.5-5.4.8-2.1.7-4.5.2-6.8zm-6.2 4.3c-.2.7-.7 1.3-1.3 1.6-.9.5-2.2.3-3-.4-1.9-1.6-.9-4.6 1.5-5.3.6-.2 1.3-.1 1.8.2.6.4.9 1.1 1.1 1.8 0 .7.1 1.4-.1 2.1z"/><path fill="#e12bb8" d="M304.9 301.5c.5-.6 1.2-1 2-1.2.3-.1.6-.1.9-.1.1 0 .3 0 .4.1.1-.5.1-.9.2-1.4.2-1.3.3-2.7.3-4-.6 0-1.3.1-1.9.3-2 .6-3.8 1.7-5.2 3.3 1.1.8 2.2 2.2 3.3 3zm5.8 5.1l-.3-.3c-.3.5-.8 1-1.4 1.3a4.01 4.01 0 01-3.9-.5l-.2-.2c-.2 1.8-.7 3.6-1.5 5.3 1.3.7 2.9 1.1 4.4 1.1 1.2 0 2.4-.3 3.4-.8 1.6-.8 2.8-2.1 3.6-3.8-1.4-.6-2.8-1.3-4.1-2.1z"/><path d="M326.9 292.8c-2.7-4.8-9.4-9.7-14.1-6.9-2.5 1.5-4.4 4.1-5.8 6.7 3.9-.4 8 1.5 10.3 4.7 2.9-1.2 6.7-3.2 9.6-4.5z" class="st13_5"/><linearGradient id="SVGID_10_5" x1="275.5" x2="446.1" y1="-403.09" y2="-403.09" gradientTransform="matrix(1 0 0 -1 0 -62)" gradientUnits="userSpaceOnUse"><stop offset="0" stop-color="#fd1013"/><stop offset=".48" stop-color="#ea23bd"/><stop offset=".68" stop-color="#3f3ccf"/><stop offset=".74" stop-color="#4159cd"/><stop offset=".86" stop-color="#45a4c6"/><stop offset=".86" stop-color="#45a7c6"/></linearGradient><path fill="url(#SVGID_10_5)" d="M436 345.6c3.3.5 6.6.9 10 1.3 0-1.2.1-2.4.1-3.5-3.1-.7-6.2-1.4-9.4-2.1-3.6-.7-7.3-1.3-10.9-2-7.3-1.3-14.6-2.3-21.9-3.1-14.7-1.6-29.5-2.5-44.3-2.6s-29.6.4-44.4 2.1c-3.7.5-7.4 1-11 1.6l-5.5 1c-1.8.3-3.7.7-5.5 1.1l-5.4 1.3c-1.8.4-3.6 1-5.4 1.5-2.3.6-4.6 1.5-6.9 2.3.1 1.4.3 2.7.4 4.1 13.3-2.5 26.6-4.1 40.1-5.2 14.5-1.3 29-2.1 43.6-2.1 7.3-.1 14.6 0 21.9.2 3.6 0 7.3.2 10.9.4l5.5.3 5.5.4c3.6.2 7.3.4 10.9.8s7.3.5 10.9 1c3.5.4 7.2.8 10.8 1.2z"/><linearGradient id="SVGID_11_5" x1="417.68" x2="521.18" y1="-363.03" y2="-379.43" gradientTransform="matrix(1 0 0 -1 0 -62)" gradientUnits="userSpaceOnUse"><stop offset=".06" stop-color="#fff7cc"/><stop offset=".35" stop-color="#fcbdee"/><stop offset=".39" stop-color="#f8bcee"/><stop offset=".44" stop-color="#ebbaf0"/><stop offset=".48" stop-color="#d5b7f2"/><stop offset=".53" stop-color="#b7b2f5"/><stop offset=".55" stop-color="#a8b0f7"/><stop offset=".6" stop-color="#a9b4f7"/><stop offset=".66" stop-color="#acc1f5"/><stop offset=".72" stop-color="#b1d7f3"/><stop offset=".75" stop-color="#b4e6f1"/></linearGradient><path fill="url(#SVGID_11_5)" d="M491.9 382.5c-1.2-.2-2.5-.5-3.7-.7-6.2-1-12.7-1.7-19.1-1.8-12.4-.3-24.9 1.1-36.9 5 1.6-30.4 1.8-59.1-4.5-89.2-2.6-12.6-7.8-25.5-5.6-38.1 2.2-12.6 5.6-26.5 18.6-34.7 15.5 7.5 27 21.7 34.1 37.3 7.2 15.6 10.4 32.7 12.7 49.8 3.1 24 4.6 48.2 4.4 72.4z"/><path d="M453 377.2c-.2-20.7-3-41.9-5.1-62.1-2.9-28.1-10.1-58.3-7.4-87.9-10.2 7.5-13.1 19.5-15.2 31.1-1.6 8.7.8 17.7 3.2 27.2.8 3.2 1.7 6.4 2.3 9.6 5.9 27.9 6.3 54.5 4.8 85.3 5.7-1.5 11.4-2.5 17.4-3.2z" class="st8_5"/><linearGradient id="SVGID_12_5" x1="500.27" x2="418.26" y1="-474.03" y2="-457.06" gradientTransform="matrix(1 0 0 -1 0 -62)" gradientUnits="userSpaceOnUse"><stop offset="0" stop-color="#131f49"/><stop offset=".61" stop-color="#22567d"/></linearGradient><path fill="url(#SVGID_12_5)" d="M491.9 382.5c.6 17-3.7 33.9-12.2 48.6-11.7 4.6-26.5 3.3-37.1-3.5.4-1.7 6-15.3 6.1-21.2.1-4.1-.8-7.3-3.4-8.9-1.7 5.1-3.8 12.6-6.4 16.9-4.7.5-9.7-1.1-13.5-3.9 3.2-7.5 6.1-17.3 6.8-25.5 17.2-11.2 41.5-12.2 59.7-2.5z"/><path d="M433.7 386c-.8 7.2-3.1 16.1-6.3 23.9 2 1.3 4.2 2.1 6.5 2.6 2-4.2 3.4-8.6 4.7-13 .7-2.5 1.6-5.3 4.7-4.8.3.1.7.3.9.6l.1-.4 1.8 1.1c2.9 1.8 4.3 5.2 4.2 10.4-.1 4.7-3.2 13.3-5 18.4-.3.7-.5 1.4-.7 2 3.7 2.2 8 3.8 12.6 4.6-.4-.1-.8-.2-1.1-.3-2.9-.7-5.1-4.3-4.1-7.2 2.4-6.8 3.9-13.7 6-20.6 2.3-7.8 4.9-15.5 5.5-23.7.1-.8.3-1.5.6-2.1-11.1.2-21.8 3.2-30.4 8.5z" class="st12_5"/><linearGradient id="SVGID_13_5" x1="196.07" x2="230.57" y1="-232.24" y2="-324.42" gradientTransform="matrix(1 0 0 -1 0 -62)" gradientUnits="userSpaceOnUse"><stop offset="0" stop-color="#131f49"/><stop offset=".61" stop-color="#22567d"/></linearGradient><path fill="url(#SVGID_13_5)" d="M210.4 219.4c1.4-.8 2.8-1.7 4.2-2.5-2.3-9.2-4.5-18.6-6.8-27.8 4.4-3.8 12-5.4 17.8-4.7 1.8 14.1 6.2 28.2 11.7 41.4 4.2-3.5 7.5-8.8 9.2-14 3.5 2.3 7.1 5.3 10.5 7.6a68.4 68.4 0 01-14.5 30.9c-10.5 3-19.8 7.9-29.7 12.3-7.4 3.3-16.3 4.2-22.8-1.8-3.9-3.6-6-8.8-7.7-13.9-4.4-12.7-7.7-25.9-9.9-39.2 7.4-5.1 18-11.2 26.7-13.6 2.3 7.5 7.4 18.5 11.3 25.3z"/><path d="M241.4 239.2c3.5-4.6 6.6-9.4 9-14.7.1-.4.3-.8.4-1.2.2-.8.6-1.5 1-2.1.4-.9.7-1.9 1.1-2.8l-2.2-1.6-3.4-2.5c-2 4.9-5.2 9.5-9 12.6l-1.8 1.5-.9-2.1c-.1-.2-.1-.4-.2-.5.5 4.5.5 9-.2 13.5.2-.1.3-.2.5-.3 2-.7 4-.6 5.7.2zm-25.2-22.7l.3 1.3-1.1.6c-.1.1-.2.1-.4.2.1.3.2.6.2.9.2-.1.4-.3.6-.4 2.1-1.3 4.2-1.2 5.8-.3.1-.3.1-.7.2-1v-.1c-1.7-6.6-4.1-13.1-5.9-19.1-.7-2.5.4-5.8 2.8-6.9 1.9-.9 3.8-1.7 5.7-2.4-.2-1.1-.4-2.2-.5-3.3h-1.5c-4.8 0-9.7 1.5-12.9 3.8 1.1 4.3 2.1 8.6 3.2 12.9 1.2 4.6 2.3 9.2 3.5 13.8zm-17.1 41.3c-5.8-5-8.2-14.2-10.5-21.1-1.9-5.9-6.6-14.6-4.7-20.9 1.9-6.4 9.5-8.2 14.9-10.7.8-.4 1.6-.5 2.5-.6-1.2-2.9-2.3-5.7-3.2-8.3-7.9 2.5-17.1 7.8-23.7 12.3 2.1 12.8 5.4 25.5 9.6 37.8 1.7 4.8 3.6 9.8 7.3 13.2 2.8 2.6 6.3 3.9 10.5 3.9 2.7 0 5.6-.6 8.5-1.7-4.1 0-8-1.1-11.2-3.9z" class="st12_5"/><path d="M289.7 361.2c.9.5 1.8.9 2.8 1.4 1.8 9.7 2.4 20 2.9 29.9-4.2 1.3-8.1 2.3-12.3 3.6l-2.9-1.3c3.1-10.9 6.5-22.7 9.5-33.6z" class="st21_5"/><path d="M293.2 391.1l-12.9 3.8c-4.7-9.2-7.7-19.3-8.8-29.6 4.7-4.7 12-6 18.4-4 1.1 9.3 2.3 20.5 3.3 29.8z" class="st8_5"/><path d="M392.9 387.4l-3.6-.6 1.1-31.5 5.7-1.3c-.3 11.6-1.4 22.7-3.2 33.4z" class="st21_5"/><path d="M411.2 388c-6.2.3-12.1.4-18.3-.5 1.4-10.9 2.5-22.2 3.2-33.4 7.4-1.4 15.2-1.2 22.3 1.4-.7 11.6-3.4 22.1-7.2 32.5z" class="st8_5"/><linearGradient id="SVGID_14_5" x1="291.5" x2="336.21" y1="-513.16" y2="-513.16" gradientTransform="matrix(1 0 0 -1 0 -62)" gradientUnits="userSpaceOnUse"><stop offset="0" stop-color="#a2b5e2"/><stop offset="1" stop-color="#91cddc"/></linearGradient><path fill="url(#SVGID_14_5)" d="M333.8 436.2c-13.1-4.3-28.5-7-42.3-5.8 3.9 13.8 8.5 27.5 13.6 40.9 10 1.7 20.2 1 29.9-2 2-10.8 1.3-22.3-1.2-33.1z"/><linearGradient id="SVGID_15_5" x1="285.93" x2="332.36" y1="-510.94" y2="-510.94" gradientTransform="matrix(1 0 0 -1 0 -62)" gradientUnits="userSpaceOnUse"><stop offset=".39" stop-color="#22567d"/><stop offset="1" stop-color="#131f49"/></linearGradient><path fill="url(#SVGID_15_5)" d="M330 434c2.5 10.8 3.2 22.3 1.2 33.1a64.34 64.34 0 01-35.6.8c-7-11.2-10.5-26.4-9.5-39.6 14.2-1.6 30.3 1.2 43.9 5.7z"/><linearGradient id="SVGID_16_5" x1="395.02" x2="447.19" y1="-510.9" y2="-510.9" gradientTransform="matrix(1 0 0 -1 0 -62)" gradientUnits="userSpaceOnUse"><stop offset=".39" stop-color="#22567d"/><stop offset="1" stop-color="#131f49"/></linearGradient><path fill="url(#SVGID_16_5)" d="M446.6 464.6c-15.5 5-32.4 5.6-48.3 2.5-2.5-10.1-3.6-20.5-3.2-30.9 7.7-4.4 16.1-7.3 25-7.4 8.8 0 17.6 2.2 25.3 6.6 2 9.5 2.2 19.6 1.2 29.2z"/><linearGradient id="SVGID_17_5" x1="322.04" x2="383.81" y1="-258.06" y2="-269.72" gradientTransform="matrix(1 0 0 -1 0 -62)" gradientUnits="userSpaceOnUse"><stop offset=".06" stop-color="#fff7cc"/><stop offset=".4" stop-color="#fccaeb"/><stop offset=".44" stop-color="#f8c9ec"/><stop offset=".48" stop-color="#ebc5ed"/><stop offset=".53" stop-color="#d5bef1"/><stop offset=".57" stop-color="#b7b5f5"/><stop offset=".59" stop-color="#a8b0f7"/><stop offset=".63" stop-color="#a9b4f7"/><stop offset=".68" stop-color="#acc1f5"/><stop offset=".72" stop-color="#b1d7f3"/><stop offset=".75" stop-color="#b4e6f1"/></linearGradient><path fill="url(#SVGID_17_5)" d="M439.9 218.7a5.5 5.5 0 01-1.2 2.7c-4.8-.3-9.6 1.2-13.9 3.4-4.3 2.3-8.2 5.2-12.1 8-22.5 16.1-48.2 27.4-75.1 34-18.9-6.2-34.2-21-41.7-39.4 3.5-1.9 7.4-4 11-6-.2-1.2-.4-2.4-.5-3.6-.1-19.4 2.5-40.7 15.1-56.2 11-13.6 27.8-22.1 45.1-23.2 9.9-.6 20 1.4 28.8 6.2 8.1 4.5 14.3 12 18.5 20.2 3.9 7.7 6.1 16.5 6.1 25.2 0 4.3-.5 8.6-1.5 12.8-.3 1.1-.7 2.4-1 3.5 8.4 1.7 15.9 7 22.4 12.4z"/><defs><use xlink:href="#SVGID_18_5"/></defs><clipPath id="SVGID_19_5"><use overflow="visible" xlink:href="#SVGID_18_5"/></clipPath><defs><use id="SVGID_20_5" xlink:href="#SVGID_18_5"/></defs><defs><use xlink:href="#SVGID_21_5"/></defs><clipPath id="SVGID_22_5"><use overflow="visible" xlink:href="#SVGID_20_5"/></clipPath><clipPath id="SVGID_23_5" clip-path="url(#SVGID_22_5)"><use overflow="visible" xlink:href="#SVGID_21_5"/></clipPath><linearGradient id="SVGID_24_5" x1="298.55" x2="354.96" y1="-274.33" y2="-330.32" gradientTransform="matrix(1 0 0 -1 0 -62)" gradientUnits="userSpaceOnUse"><stop offset="0" stop-color="#fff"/><stop offset="1"/></linearGradient><path fill="url(#SVGID_24_5)" d="M328.4 228.3v-3.9c-7.9-4.8-14.1-12.4-18-21-.4 4.5-.6 9.4-.5 14.5 0 .9.2 1.9.4 3l.4 2.4-2.1 1.2c-1.8 1-3.6 2-5.5 3l-2.7 1.5a65.7 65.7 0 0030.7 31.5c-1.8-6.6-2.7-13.3-2.8-20.5-.1-3.9.1-7.8.1-11.7z" clip-path="url(#SVGID_23_5)"/><path d="M328.4 228.3v-3.9c-7.9-4.8-14.1-12.4-18-21-.4 4.5-.6 9.4-.5 14.5 0 .9.2 1.9.4 3l.4 2.4-2.1 1.2c-1.8 1-3.6 2-5.5 3l-2.7 1.5a65.7 65.7 0 0030.7 31.5c-1.8-6.6-2.7-13.3-2.8-20.5-.1-3.9.1-7.8.1-11.7z" class="st8_5"/><defs><use id="SVGID_25_5" xlink:href="#SVGID_18_5"/></defs><clipPath id="SVGID_26_5"><use overflow="visible" xlink:href="#SVGID_25_5"/></clipPath><defs><use id="SVGID_27_5" xlink:href="#SVGID_18_5"/></defs><defs><use id="SVGID_28_5" xlink:href="#SVGID_21_5"/></defs><clipPath id="SVGID_29_5"><use overflow="visible" xlink:href="#SVGID_27_5"/></clipPath><clipPath id="SVGID_30_5" clip-path="url(#SVGID_29_5)"><use overflow="visible" xlink:href="#SVGID_28_5"/></clipPath><linearGradient id="SVGID_31_5" x1="335.5" x2="454.37" y1="-224.74" y2="-275.23" gradientTransform="matrix(1 0 0 -1 0 -62)" gradientUnits="userSpaceOnUse"><stop offset="0" stop-color="#fff"/><stop offset="1"/></linearGradient><path fill="url(#SVGID_31_5)" d="M358.6 160.6c1.2 2.6 2.1 4.8 2.6 7.3l.3 1.4c0 .2.1.3.1.5.1.6.1 1.2.2 1.7v.3c0 .5.1.9.1 1.4 0 .1.3 3.4.3 4.5.3.9.7 2.3.7 2.5.1.2.1.4.1.5.2.3.4.6.7 1.1.7 1 1.3 2 2 3.1-.5-.8 1.6 2.1 2.8 3.8 3.5-6.1 7.4-11.7 12.2-16.4-1.6-.8-3.1-1.8-4.6-2.6-6-3-11.8-5.9-17.5-9.1z" clip-path="url(#SVGID_30_5)"/><linearGradient id="SVGID_32_5" x1="335.5" x2="454.37" y1="-224.74" y2="-275.23" gradientTransform="matrix(1 0 0 -1 0 -62)" gradientUnits="userSpaceOnUse"><stop offset="0" stop-color="#fff7cc"/><stop offset="1" stop-color="#fff7cc"/></linearGradient><path fill="url(#SVGID_32_5)" d="M358.6 160.6c1.2 2.6 2.1 4.8 2.6 7.3l.3 1.4c0 .2.1.3.1.5.1.6.1 1.2.2 1.7v.3c0 .5.1.9.1 1.4 0 .1.3 3.4.3 4.5.3.9.7 2.3.7 2.5.1.2.1.4.1.5.2.3.4.6.7 1.1.7 1 1.3 2 2 3.1-.5-.8 1.6 2.1 2.8 3.8 3.5-6.1 7.4-11.7 12.2-16.4-1.6-.8-3.1-1.8-4.6-2.6-6-3-11.8-5.9-17.5-9.1z"/><radialGradient id="SVGID_33_5" cx="416.3" cy="-320.08" r="144.7" gradientTransform="matrix(1 0 0 -1 0 -62)" gradientUnits="userSpaceOnUse"><stop offset="0" stop-color="#83f7c7"/><stop offset=".17" stop-color="#4cddc6"/><stop offset=".37" stop-color="#15c2c4"/><stop offset=".46" stop-color="#00b8c4"/><stop offset=".5" stop-color="#04abbb"/><stop offset=".65" stop-color="#1186a0"/><stop offset=".79" stop-color="#1a6c8d"/><stop offset=".91" stop-color="#205c81"/><stop offset="1" stop-color="#22567d"/></radialGradient><path fill="url(#SVGID_33_5)" d="M346.6 144.8c-20.7 8.2-33.1 26.5-32.3 47.3.3 9.4 4.7 19.1 13 24.5 9.9 6.4 23.1 5.7 34.8 3 11.6-2.8 22.9-7.5 31.6-15.3s14.4-18.8 13.6-30c-.8-12.4-9.8-23.8-21.8-29.2-12.2-5.5-26.6-5.2-38.9-.3z"/><path d="M316.7 186.5c-1.2 8.6 1.6 20.6 12.3 20.9 6.9.2 12.3-5.4 17-10.4 5.9-6.2 12.1-12.1 19.1-16.9 6.9-4.7 15.5-6.7 21.9-12 3.8-3.1 6.5-8 5.5-12.7-1.2-5.4-6.7-8.7-11.9-10.4-14.7-4.9-30.3-3.1-42.6 6.2-10.8 8.2-18.7 20.5-21.1 34-.1.4-.1.9-.2 1.3z" class="st8_5"/><path d="M324.6 209.3c3.3 3 7.6 4.7 12 5.5s9 .7 13.5.2c9-1 17.8-3.4 25.6-7.4 7.8-3.9 14.5-9.6 19.2-16.4 4.7-6.9 7.4-14.9 7.3-23.2 1.7 8.2-.2 17-4.7 24.6-2.2 3.8-5.2 7.2-8.5 10.3-3.4 3-7.3 5.6-11.4 7.8-8.3 4.2-17.7 6.6-27.2 7.1-4.7.3-9.6 0-14.2-1.2-4.6-1.5-8.9-3.8-11.6-7.3z" class="st8_5"/><linearGradient id="SVGID_34_5" x1="337.12" x2="346.48" y1="-296.49" y2="-296.49" gradientTransform="matrix(1 0 0 -1 0 -62)" gradientUnits="userSpaceOnUse"><stop offset=".43" stop-color="#7cc7c9"/><stop offset=".6" stop-color="#6cbcc2"/></linearGradient><path fill="url(#SVGID_34_5)" d="M337.2 235.2c-.2-1.5.3-3 1.4-4.1.8-.9 2-1.4 3.2-1.5 1.9-.1 3.7 1.2 4.4 2.9a5 5 0 01-1.1 5.2c-2.9 3.1-7.5 1.7-7.9-2.5z"/><linearGradient id="SVGID_35_5" x1="315.96" x2="342.26" y1="-547.06" y2="-580.78" gradientTransform="matrix(1 0 0 -1 0 -62)" gradientUnits="userSpaceOnUse"><stop offset="0" stop-color="#fd1013"/><stop offset=".48" stop-color="#ea23bd"/><stop offset=".68" stop-color="#3f3ccf"/><stop offset=".74" stop-color="#4159cd"/><stop offset=".86" stop-color="#45a4c6"/><stop offset=".86" stop-color="#45a7c6"/></linearGradient><path fill="url(#SVGID_35_5)" d="M342.8 516.7c-4.8-17-17-29.7-33.8-35.1-1.4 1.3-1 3.3.5 3.9 12 6.7 19.1 16.3 24.5 28.9 3 .5 5.9 1.8 8.8 2.3z"/><linearGradient id="SVGID_36_5" x1="396.2" x2="458.7" y1="-561.55" y2="-561.55" gradientTransform="matrix(1 0 0 -1 0 -62)" gradientUnits="userSpaceOnUse"><stop offset="0" stop-color="#fd1013"/><stop offset=".48" stop-color="#ea23bd"/><stop offset=".68" stop-color="#3f3ccf"/><stop offset=".74" stop-color="#4159cd"/><stop offset=".86" stop-color="#45a4c6"/><stop offset=".86" stop-color="#45a7c6"/></linearGradient><path fill="url(#SVGID_36_5)" d="M458.7 511.9c-7.2-12.7-18.7-22.9-32.4-28a68.65 68.65 0 00-30.1 30.2c1.7.3 3.3.8 5 1.1 4.7-12.1 13.5-21.7 25.1-29.3 13 5.5 23 15.8 27.8 27.7 1.7-.7 2.9-1.1 4.6-1.7z"/><path fill="#146b87" d="M373.5 517.9c0-3.4-.1-6.8-.3-10.2-28.2 5.7-57.1 7.9-85.9 6.5-.5 1.2-.9 2.5-1.2 3.7 26.8 2.3 56.3 2 87.4 0zm85.9-7.1c-22.7 7.2-47.7 6.9-70.1-.9-.1 2.9-.2 5.7-.2 8.5 23.3 3.8 47.3 3.5 70.5-.7-.1-2.3-.1-4.6-.2-6.9z"/><path d="M289.1 431.3c-.5 12.1 2.6 24.3 8.6 34.8-.7-2.5-1.3-5-1.2-7.7 10.3-1.5 20.5-2 30.8-.4-10.4-2.6-21.6-3.5-32.2-2.8-.9-2.8-1.5-5.7-1.1-8.7 10.4-1.8 21-1.9 31.3.3-10.2-2.2-20.5-3.4-30.9-3.4-.3-2.8-.3-5.9.3-8.7 10.9-.3 21.6.9 32.2 3.4-11.9-4.3-25.2-6.3-37.8-6.8zm111.4 25c0-2.3 0-4.6-.1-6.9 14.5-3.1 29.7-4.1 44.4-2.5-14.6-3.1-29.8-3.3-44.5-.4 0-2-.1-4-.2-5.9 13.8-4.7 29.3-6.1 43.5-2.9-7.3-3-15-5.3-23-5.7-7.9-.4-16 1.9-22.6 6.2-.9 8.8 0 17.8 2.6 26.3-.1-1.9-.2-3.8-.2-5.7 14.3 2.4 29.5 1.7 43.1-3.1a193 193 0 01-43 .6z" class="st12_5"/><path fill="#83ced7" d="M414.4 208.3c5.5-13.8 2-30.9-7.5-42.4 3.6 11.5 1.5 24.6-5.6 34.3-7.6 10.5-19.9 16.3-31.6 21.8 1.7 5.4 2.3 11.4 2.4 17.1 2.5 3.3 5.6 6.5 9.1 8.7 11.6-7.6 24.7-15.1 36.3-22.8 4.9-3.2 10.4-6.5 16.1-5.5-5.7-3.9-12.2-7.3-18.7-9.6l-.5-1.6z"/><linearGradient id="SVGID_37_5" x1="228.8" x2="272.9" y1="-327.39" y2="-327.39" gradientTransform="matrix(1 0 0 -1 0 -62)" gradientUnits="userSpaceOnUse"><stop offset="0" stop-color="#a2b5e2"/><stop offset="1" stop-color="#91cddc"/></linearGradient><path fill="url(#SVGID_37_5)" d="M247.4 247.8a26.29 26.29 0 01-18.6 16.4c1.8 6.6 5.3 12.4 11.2 15.9 8.7 5.2 20.6 3.5 30.5 1.7.7-11.7 1.7-22.9 2.4-34.6-6 1-12.3 1.3-18.3 2.3-2.6-.8-4.6-.9-7.2-1.7z"/><linearGradient id="SVGID_38_5" x1="444.94" x2="461.5" y1="-296.28" y2="-296.28" gradientTransform="matrix(1 0 0 -1 0 -62)" gradientUnits="userSpaceOnUse"><stop offset="0" stop-color="#a2b5e2"/><stop offset="1" stop-color="#91cddc"/></linearGradient><path fill="url(#SVGID_38_5)" d="M461.5 243.2c-3.2-1-6.4-1.7-9.7-2-.9-2.1-1.9-4-2.8-5.9-2.3-4.3-4.7-9.4-3.9-9.9 1.2-.7 9.3 8.2 16.4 17.8z"/><linearGradient id="SVGID_39_5" x1="467.42" x2="488.97" y1="-396.45" y2="-396.45" gradientTransform="matrix(1 0 0 -1 0 -62)" gradientUnits="userSpaceOnUse"><stop offset="0" stop-color="#a2b5e2"/><stop offset="1" stop-color="#91cddc"/></linearGradient><path fill="url(#SVGID_39_5)" d="M488.3 380.8c-2.4-1.1-5.3-2.1-8.6-3-3.7-1-7.1-1.5-10-1.7 2.8-16.9 4.9-41.3.9-70.1-.9-6.2-2-12.2-3.2-17.9 5 1.2 10.2 2.8 15.5 5 2.3 11.6 3.5 23.5 4.6 35.9 1.2 12.5 2.2 30.2.8 51.8z"/><linearGradient id="SVGID_40_5" x1="311.7" x2="412.7" y1="-312.2" y2="-312.2" gradientTransform="matrix(1 0 0 -1 0 -62)" gradientUnits="userSpaceOnUse"><stop offset=".43" stop-color="#7cc7c9"/><stop offset=".6" stop-color="#6cbcc2"/></linearGradient><path fill="url(#SVGID_40_5)" d="M412.7 232.9a167 167 0 01-17.2 11.6c-5.9 3.5-12.1 6.8-18.4 9.6-6.3 2.9-12.7 5.5-19.3 7.7-6.6 2.2-13.2 4.1-20 5.7h-.2l-.2-.1a64 64 0 01-25.7-16.7c7.6 6.9 16.5 12.3 26.2 15.3h-.4c6.7-1.7 13.3-3.7 19.8-5.9 6.5-2.3 12.9-4.7 19.2-7.5 6.3-2.8 12.5-5.8 18.5-9.2 6.1-3.1 12-6.7 17.7-10.5z"/><linearGradient id="SVGID_41_5" x1="311.7" x2="414.99" y1="-293.9" y2="-293.9" gradientTransform="matrix(1 0 0 -1 0 -62)" gradientUnits="userSpaceOnUse"><stop offset=".43" stop-color="#7cc7c9"/><stop offset=".6" stop-color="#6cbcc2"/></linearGradient><path fill="url(#SVGID_41_5)" d="M311.7 225.5c1.7 2.8 3.5 5.4 5.6 7.8 2 2.5 4.3 4.7 6.7 6.8 2.4 2.1 4.9 4 7.5 5.7s5.4 3.2 8.3 4.4l-.9-.1c7-1.8 13.8-3.9 20.5-6.5s13.2-5.6 19.6-8.9c6.4-3.3 12.6-7 18.6-11 3-2 5.9-4.1 8.9-6.2l4.3-3.3c1.4-1.1 2.9-2.2 4.3-3.4-1.3 1.3-2.5 2.6-3.8 3.9l-4 3.7-4.1 3.6-4.3 3.4c-5.8 4.4-11.9 8.5-18.3 12-6.4 3.6-13 6.7-19.9 9.3s-13.9 4.7-21 6.2l-.5.1-.4-.2a55.7 55.7 0 01-16-11.4c-2.3-2.3-4.3-4.9-6.2-7.6-2-2.5-3.6-5.3-4.9-8.3z"/><path fill="#5e5a6c" d="M482.9 293.2c-5.3-2.2-10.5-3.8-15.5-5-4.2-19-10.1-34.8-15.6-46.9 3.3.3 6.5 1 9.7 2 1.4 2 2.9 3.9 4.1 5.9 9.4 14.3 14.3 28.8 17.3 44z"/><linearGradient id="SVGID_42_5" x1="477.04" x2="444.97" y1="-338.61" y2="-320.31" gradientTransform="matrix(1 0 0 -1 0 -62)" gradientUnits="userSpaceOnUse"><stop offset="0" stop-color="#131f49"/><stop offset=".61" stop-color="#22567d"/></linearGradient><path fill="url(#SVGID_42_5)" d="M451.8 241.2a237.3 237.3 0 0115.6 46.9c-3.5-.8-6.9-1.4-10.2-1.8-1.2-15.2-4.3-31.4-10.4-45.3 1.7 0 3.3.1 5 .2z"/><linearGradient id="SVGID_43_5" x1="495.51" x2="460.15" y1="-343.15" y2="-322.98" gradientTransform="matrix(1 0 0 -1 0 -62)" gradientUnits="userSpaceOnUse"><stop offset="0" stop-color="#131f49"/><stop offset=".61" stop-color="#22567d"/></linearGradient><path fill="url(#SVGID_43_5)" d="M484.8 294c-.6-.3-1.3-.6-1.9-.8-3-15.2-8-29.7-17.3-44-1.3-2-2.7-3.9-4.1-5.9 1.5.5 2.9 1 4.2 1.6 3.5 4.8 6.5 10.1 9 15.5 4.9 10.6 8 22 10.1 33.6z"/><linearGradient id="SVGID_44_5" x1="432.9" x2="491.32" y1="-406.65" y2="-406.65" gradientTransform="matrix(1 0 0 -1 0 -62)" gradientUnits="userSpaceOnUse"><stop offset="0" stop-color="#fd1013"/><stop offset=".48" stop-color="#ea23bd"/><stop offset=".68" stop-color="#3f3ccf"/><stop offset=".74" stop-color="#4159cd"/><stop offset=".86" stop-color="#45a4c6"/><stop offset=".86" stop-color="#45a7c6"/></linearGradient><path fill="url(#SVGID_44_5)" d="M491.3 353.3c-.1-1.5-.2-3.1-.2-4.6-2.8-2.6-5.9-4.8-9.2-6.6a48.65 48.65 0 00-37.1-4.2c-4.2 1.3-8.2 3.1-11.8 5.5 0 1.4.1 2.8.1 4.1 4.2-2 8.6-3.6 13-4.6 5.6-1.3 11.4-1.9 17.1-1.3 5.7.5 11.4 2.1 16.6 4.5 4.1 1.9 8 4.3 11.5 7.2z"/><linearGradient id="SVGID_45_5" x1="198.6" x2="258.51" y1="-331.04" y2="-331.04" gradientTransform="matrix(1 0 0 -1 0 -62)" gradientUnits="userSpaceOnUse"><stop offset="0" stop-color="#fd1013"/><stop offset=".48" stop-color="#ea23bd"/><stop offset=".68" stop-color="#3f3ccf"/><stop offset=".74" stop-color="#4159cd"/><stop offset=".86" stop-color="#45a4c6"/><stop offset=".86" stop-color="#45a7c6"/></linearGradient><path fill="url(#SVGID_45_5)" d="M253.8 244.7c.6 2.8.8 5.7.4 8.6a30.64 30.64 0 01-2.8 9.8c-1.5 3-3.5 5.9-5.9 8.4-2.3 2.6-5 5-7.8 7.1-2.8 2.2-5.8 4.1-8.9 5.7-3.1 1.6-6.4 2.8-9.8 3.5-3.4.7-6.9 1-10.3.7-3.4-.3-6.8-1.3-10.1-2.8v.1c.6 1.4 1.2 2.7 1.9 4.1 2.4 1.3 4.9 2.3 7.6 2.8 3.9.8 8 .9 11.9.3s7.8-1.8 11.4-3.4c3.6-1.6 6.9-3.8 10-6.1 6.1-4.7 11.7-10.6 14.9-18.1.8-1.9 1.4-3.9 1.8-5.8.3-2 .5-3.9.5-5.9 0-2.9-.5-5.9-1.5-8.7-.8.1-1.6.3-2.4.4-.3-.3-.6-.5-.9-.7z"/></g><g><linearGradient id="SVGID_46_5" x1="541.57" x2="530.26" y1="1199.52" y2="1205.94" gradientTransform="translate(0 -1064.4)" gradientUnits="userSpaceOnUse"><stop offset="0" stop-color="#2bb1e9"/><stop offset="1" stop-color="#2295d1"/></linearGradient><path fill="url(#SVGID_46_5)" d="M520.4 109.5l41 7.8c4.6 3.7 9.3 7.4 14 11.1-10.4 14.3-20.8 28.5-31.1 42.8-7.9-20.5-15.9-41.1-23.9-61.7z"/><linearGradient id="SVGID_47_5" x1="552.83" x2="529.78" y1="1160.82" y2="1194.58" gradientTransform="translate(0 -1064.4)" gradientUnits="userSpaceOnUse"><stop offset="0" stop-color="#33beff"/><stop offset="1" stop-color="#6deefe"/></linearGradient><path fill="url(#SVGID_47_5)" d="M520.4 109.5c9 9.8 18 19.5 27 29.3 4.7-7.2 9.3-14.4 14-21.6-13.7-2.4-27.3-5-41-7.7z"/><linearGradient id="SVGID_48_5" x1="563.97" x2="553.83" y1="1189.5" y2="1194.39" gradientTransform="translate(0 -1064.4)" gradientUnits="userSpaceOnUse"><stop offset="0" stop-color="#33beff"/><stop offset="1" stop-color="#6deefe"/></linearGradient><path fill="url(#SVGID_48_5)" d="M547.4 138.9c9.3-3.5 18.6-6.9 28-10.4-4.6-3.7-9.3-7.4-14-11.1-4.7 7.1-9.3 14.3-14 21.5z"/><linearGradient id="SVGID_49_5" x1="566.47" x2="553.51" y1="1182.6" y2="1222.21" gradientTransform="translate(0 -1064.4)" gradientUnits="userSpaceOnUse"><stop offset="0" stop-color="#36abea"/><stop offset="1" stop-color="#48cff2"/></linearGradient><path fill="url(#SVGID_49_5)" d="M547.4 138.9c-1 10.8-2.1 21.6-3.1 32.4l31.1-42.8c-9.4 3.5-18.7 6.9-28 10.4z"/><path d="M575.4 128.5c-.1-.1-.1-.1 0 0-9.6 3.2-19 6.5-28.5 9.9.1.2.3.3.5.5 9.3-3.5 18.6-6.9 28-10.4z" class="st51_5"/><path d="M547.4 138.9c-15.8-17-23.7-25.5-23.6-25.6s8.1 8.2 24 24.8a3 3 0 01-.4.8z" class="st52_5"/><linearGradient id="SVGID_50_5" x1="565.69" x2="560.96" y1="1177.78" y2="1200.2" gradientTransform="translate(0 -1064.4)" gradientUnits="userSpaceOnUse"><stop offset="0" stop-color="#6cedfd"/><stop offset="1" stop-color="#b1f5fd"/></linearGradient><path fill="url(#SVGID_50_5)" d="M561.4 117.3c-4.7 7.2-9.3 14.4-14 21.6 9.3-3.5 18.6-6.9 28-10.4-4.7-3.7-9.3-7.4-14-11.2z"/><path d="M544.3 171.3c1.9-21.6 3-32.4 3.1-32.4s-.7 10.4-2.3 31.3c-.2.3-.5.7-.8 1.1z" class="st54_5"/></g><g><linearGradient id="SVGID_51_5" x1="136.93" x2="131.37" y1="1379.36" y2="1382.51" gradientTransform="translate(0 -1064.4)" gradientUnits="userSpaceOnUse"><stop offset="0" stop-color="#2bb1e9"/><stop offset="1" stop-color="#2295d1"/></linearGradient><path fill="url(#SVGID_51_5)" d="M126.5 302.4c6.7 1.3 13.4 2.5 20.1 3.8 2.3 1.8 4.6 3.7 6.9 5.5l-15.3 21c-3.8-10.1-7.8-20.2-11.7-30.3z"/><linearGradient id="SVGID_52_5" x1="142.48" x2="131.16" y1="1360.34" y2="1376.92" gradientTransform="translate(0 -1064.4)" gradientUnits="userSpaceOnUse"><stop offset="0" stop-color="#33beff"/><stop offset="1" stop-color="#6deefe"/></linearGradient><path fill="url(#SVGID_52_5)" d="M126.5 302.4c4.4 4.8 8.8 9.6 13.3 14.4 2.3-3.5 4.6-7.1 6.9-10.6-6.8-1.3-13.5-2.6-20.2-3.8z"/><linearGradient id="SVGID_53_5" x1="147.91" x2="142.93" y1="1374.39" y2="1376.8" gradientTransform="translate(0 -1064.4)" gradientUnits="userSpaceOnUse"><stop offset="0" stop-color="#33beff"/><stop offset="1" stop-color="#6deefe"/></linearGradient><path fill="url(#SVGID_53_5)" d="M139.8 316.8c4.6-1.7 9.2-3.4 13.7-5.1-2.3-1.8-4.6-3.7-6.9-5.5-2.2 3.5-4.5 7-6.8 10.6z"/><linearGradient id="SVGID_54_5" x1="149.19" x2="142.83" y1="1371.03" y2="1390.49" gradientTransform="translate(0 -1064.4)" gradientUnits="userSpaceOnUse"><stop offset="0" stop-color="#36abea"/><stop offset="1" stop-color="#48cff2"/></linearGradient><path fill="url(#SVGID_54_5)" d="M139.8 316.8l-1.5 15.9 15.3-21c-4.7 1.7-9.2 3.4-13.8 5.1z"/><path d="M153.5 311.7c0-.1 0-.1 0 0-4.7 1.6-9.3 3.2-14 4.8.1.1.2.2.2.3 4.7-1.7 9.2-3.4 13.8-5.1z" class="st51_5"/><path d="M139.8 316.8c-7.8-8.3-11.6-12.5-11.6-12.6 0 0 4 4 11.8 12.2-.1.1-.1.3-.2.4z" class="st52_5"/><linearGradient id="SVGID_55_5" x1="148.76" x2="146.44" y1="1368.64" y2="1379.66" gradientTransform="translate(0 -1064.4)" gradientUnits="userSpaceOnUse"><stop offset="0" stop-color="#6cedfd"/><stop offset="1" stop-color="#b1f5fd"/></linearGradient><path fill="url(#SVGID_55_5)" d="M146.7 306.2c-2.3 3.5-4.6 7.1-6.9 10.6 4.6-1.7 9.2-3.4 13.7-5.1-2.3-1.9-4.5-3.7-6.8-5.5z"/><path d="M138.2 332.7l1.5-15.9s-.3 5.1-1.1 15.4c-.1.1-.2.3-.4.5z" class="st54_5"/></g></svg>