<svg xmlns="http://www.w3.org/2000/svg" id="layer_1" x="0" y="0" enable-background="new 0 0 400 244.3" version="1.1" viewBox="0 0 400 244.3" xml:space="preserve"><defs/><style>.st9_12{fill:#73d2d9}.st10_12{fill:#fff7cc}.st13_12{opacity:.65;fill:#fff}.st14_12{fill:#22567d}.st29_12{fill:#86d8dd}.st30_12{fill:#146b87}.st31_12{opacity:.75;fill:#fff7cc}.st32_12{fill:#00ebaa}.st33_12,.st35_12{opacity:.85;fill:#fff7cc}.st35_12{opacity:.6}.st39_12{fill:#829396}.st47_12{fill:#6cedfd}.st48_12{fill:#83f6ff}.st50_12{fill:#71d4ff}</style><radialGradient id="SVGID_1_12" cx="154.5" cy="119.5" r="159.9" gradientUnits="userSpaceOnUse"><stop offset=".2" stop-color="#92d8f7"/><stop offset=".4" stop-color="#83d2f3"/><stop offset=".6" stop-color="#5bc2e7"/><stop offset="1" stop-color="#1ba8d4"/><stop offset="1" stop-color="#18a7d3"/></radialGradient><path fill="url(#SVGID_1_12)" d="M286.1 118.7A103.4 103.4 0 11182.8 15.3h.1a103.4 103.4 0 01103.2 103.4z"/><radialGradient id="SVGID_2_12" cx="180.3" cy="130.4" r="93.7" gradientUnits="userSpaceOnUse"><stop offset=".8" stop-color="#05add7"/><stop offset="1" stop-color="#049dce"/></radialGradient><path fill="url(#SVGID_2_12)" d="M286.1 118.7a103.4 103.4 0 01-146.6 94 406 406 0 0018.8-3.4c23.5-4.9 38.3-8.1 54.2-17.9 9.3-5.7 21.2-13 28.9-27.4 7.2-13.5 9.4-31.2 10.1-36.3 1.2-9.4 5.7-18.3 5.8-27.8 0-.8 0-3.6 1.9-5.4 1.1-1.1 2.4-1.3 3.2-1.5 1.6-.3 3.7-.3 9.3 2.4 2 1 4.6 2.3 7.5 4.3a152 152 0 016.1 5.2c.5 4.5.8 9.1.8 13.8z"/><radialGradient id="SVGID_3_12" cx="129.9" cy="89.6" r="112.8" gradientUnits="userSpaceOnUse"><stop offset=".4" stop-color="#98e3ff"/><stop offset=".5" stop-color="#88dcfa"/><stop offset=".8" stop-color="#5fc9ec"/><stop offset="1" stop-color="#40bae1"/></radialGradient><path fill="url(#SVGID_3_12)" d="M206.6 120.8c-.7-4.4-1.7-10.8-6.5-13.4-.8-.5-1.4-.6-9.4-1-10.2-.5-12.7-.5-15.4 1.2-.5.3-1.6 1.4-3.7 3.5-5.2 5.1-5.5 6.1-7.2 7.5-6.5 5.4-16.8 2.7-17.6 2.5a22.2 22.2 0 01-11.4-7.5c-2.1-2.5-5-6-4.2-10.2.8-4.3 5-6.8 5.7-7.2 3.1-1.8 4.3-.7 6.5-2.2 3.7-2.6 5.3-9.6 3-14.2-1.8-3.4-4.7-3.2-7.2-8.2a12 12 0 01-1.5-5l.3-2.6.2-2.6c-.1-2-1.3-2.5-2.1-4.5-.1-.3-1.1-2.8-.4-5 .9-2.8 4-4 7.7-5.5 2.7-1.1 4.2-1.7 6.5-1.7 5.1-.1 5.7 2.9 11.7 3.2 3.3.2 7.1-.4 7.5-.5 3.2-.6 3.6-1.1 5-.7 3.4.8 3.5 4.9 6.5 5.2 1.6.2 3.3-.8 5.2-2 1.9-1.1 2-1.7 3.2-2 1.8-.4 2.5.8 5 1.2.3 0 3.3.6 6.2-.7 2.3-1.1 3.5-2.9 5-5.2.7-1.2 2.3-3.9 3-7.7.3-1.8.5-3 .2-4.7-.6-3.2-2.4-4.5-1.7-5.7.7-1.4 3.3-.4 4.7-2 .8-.9 1-2.2.8-3.6-9.2-2.7-19-4.2-29.1-4.2h-.1a103.4 103.4 0 00-43.2 197.4l1.9.9a72 72 0 0060.2-26.5c11.4-15.2 12.1-32.9 12.2-34 0-9.8-2.9-5.9-7.5-32.3zm-85-9.1c-.6.1-1.5.1-1.8-.5-.3-.6.3-1.4.9-1.7 1-.7 2.8-.4 3 .2.1.6-1 1.8-2.1 2zm5.6-10.8c-.9 1.2-2.5 3.2-5 3.5-4 .5-7.1-3.9-7.5-4.5-3.6-5.3-1.6-12.4 1-16.4 1.1-1.7 2.9-4.5 5.7-4.7 3.7-.3 6.4 4.1 7 5 3.4 5.3 2.2 12.6-1.2 17.1z"/><radialGradient id="SVGID_4_12" cx="124.2" cy="88.2" r="116.1" gradientUnits="userSpaceOnUse"><stop offset=".4" stop-color="#98e3ff"/><stop offset=".5" stop-color="#88dcfa"/><stop offset=".8" stop-color="#5fc9ec"/><stop offset="1" stop-color="#40bae1"/></radialGradient><path fill="url(#SVGID_4_12)" d="M218.7 37.4c-1.3-1.7-3.6-4.8-5.6-4.3-2.5.7-2.4 7.2-2.4 8.4 0 2 .1 3.6 1.3 4.7 1.3 1.1 3.1.8 4.7.6 1.7-.3 3.8-.6 4.7-2 1.1-2.4-1.4-5.7-2.7-7.4z"/><radialGradient id="SVGID_5_12" cx="99.3" cy="71.3" r="83.6" gradientUnits="userSpaceOnUse"><stop offset="0" stop-color="#f4f6ff"/><stop offset="1" stop-color="#c3dbfb"/></radialGradient><path fill="url(#SVGID_5_12)" d="M182.8 15.4c-.6.9-1.4 1.8-2.5 2.4-2.1 1.3-3.8.9-8.6 1.3l-9.3 1.5c-6.4 1.1-7.9 1.4-9.1 2.8-1.5 1.6-.6 2.6-2.2 4.7-1.9 2.4-4.5 3.3-7.1 4.1-2.6.8-5.1 1.1-7.5 1.3l-2.6.2c-2.5.3-5.3 1.6-8.5 4.9-3.8 3.8-5.4 7.5-7.3 11.1a185 185 0 01-9.9 14.5c-10 14.1-11 13-14.7 20.1 0 0-6.4 12.2-4.1 20 .8 2.7 1.7 4.1 1.7 4.1 1.7 2.6 3.5 3 3.9 5 .3 1.3-.2 2.3-.7 3.7a32 32 0 00-2.2 11.4c.1 5.1 2.5 7.3.9 9.5-1 1.4-2.2.8-3.4 2.2-1.7 2.2-.7 5.7.2 8.6 1.1 3.5 2.2 5.1 3.2 7.3 2.2 4.8 3.9 12.9 1 15.8a103.4 103.4 0 0188.8-156.5z"/><radialGradient id="SVGID_6_12" cx="249.4" cy="71.5" r="28.7" gradientUnits="userSpaceOnUse"><stop offset="0" stop-color="#1eb1db"/><stop offset="1" stop-color="#019acc"/></radialGradient><path fill="url(#SVGID_6_12)" d="M250.8 84.4c1.9 3.4 3.5 4.5 4.7 5a15.1 15.1 0 009 .5c2.2-.5 3.9-.9 5.2-2.5 1.8-2.3 1.3-5.1 1.3-5.3l-.4-1.4c-2.4-5.6-5.6-9.8-5.6-9.8-3-3.9-4.9-6.3-8-7.8-1.2-.6-2.5-1-3.9-1-.9 0-2.8 0-4.6 1.2-1.4 1-2 2.3-2.2 2.7-.6 1.4-.8 3.2 1.8 11.1 1.3 4.6 2 6.1 2.7 7.3z"/><radialGradient id="SVGID_7_12" cx="135.3" cy="161.4" r="86.8" gradientUnits="userSpaceOnUse"><stop offset="0" stop-color="#77c8ec"/><stop offset="1" stop-color="#79c1e6"/></radialGradient><path fill="url(#SVGID_7_12)" d="M242.9 119.8c-2.8 4.5-1.6 27.9-6.2 46.7a62.1 62.1 0 01-17.9 32.3 52.5 52.5 0 01-13.4 7.5c-1 .4-2.8 1-5.2 1.2-2.2.2-3.6.1-5 0-2.9-.1-5 .3-9.2 1.2-7.4 1.6-15.1 4.4-19.4 6l-11.2 3.9a104 104 0 01-53.2-34.8c1-.2 3.2-.4 5.5.6 4.1 1.8 5.5 5.8 5.7 6.5a32.7 32.7 0 0116.6 12.4 54.9 54.9 0 0119.6 3.7c2.6-.6 6.5-1.3 11.4-2 5-.7 8.4-.9 9.4-1 8.4-.8 17.8-10.4 23.6-19.6 17.5-28 10.9-66.7 22.9-74.3 1.1-.7 2.3-1.2 2.3-1.2 5-2 10.7.5 22 5.4.6.2 1.8.8 2.2 2 .8 1.5-.3 3.1-.5 3.5z"/><radialGradient id="SVGID_8_12" cx="143" cy="123" r="72.5" gradientUnits="userSpaceOnUse"><stop offset="0" stop-color="#a1daf7"/><stop offset="1" stop-color="#87c9ee"/></radialGradient><path fill="url(#SVGID_8_12)" d="M161.2 79.5c1.4 2.9-.7 7.8-3.7 9.4-3 1.6-5.6-.6-8.2 1.5-2 1.6-1 3.4-3.2 5.5-2.3 2.2-4.3 1.1-6.7 3-2.5 1.9-3.5 5.5-3.2 8.2.7 6.5 9.5 11.3 16.9 10.9 5-.2 8.7-2.8 10.7-4.2 5.1-3.6 4.5-6 11.7-12.9 5.7-5.5 8.4-6.2 9.7-6.5 3.4-.6 4.4.7 7.7-.2 3.7-1 7.7-4.2 8.2-7.9.3-2.4-1-2.7-3-8.2-.9-2.5-1.6-5.7-3-11.9-1.2-5.3-1.2-6.1-2.2-7-1.8-1.4-3.9-.7-10.2-.2-4.6.3-6.9.5-8.7.2-6.9-1-7.5-5.4-14.9-7-1.6-.3-7.5-1.5-10.1 1.6-.7.9-2 3-1.4 4.8.4 1 1.3 1.5 1.5 3 .1 1-.2 1.5-.2 1.7-.1.1-.4.6-1.4 1-1.3.6-1.8.3-2.6.6a3.5 3.5 0 00-1.9 2.5c-.4 1.9 1.4 3.7 2.2 4.5 5.7 5.6 14 3.4 16 7.6z"/><path fill="#fff9e7" d="M251.2 218.8l-.4-3.4s6.1-15.4 14.2-23.2a66.3 66.3 0 0130.7 7.8l.1 3.1-44.6 15.7z"/><path d="M295.8 203a96.7 96.7 0 00-23.3 18.3c-7.1.3-14.6-.8-21.2-2.6a71.2 71.2 0 0115.9-23.7 55.8 55.8 0 0128.6 8z" class="st9_12"/><path d="M353.2 95.6c-12 6.5-22.7 18.7-31.4 29.5l-4-.8a85.6 85.6 0 0128.7-29.9c2.1-.1 4.5.2 6.7 1.2z" class="st10_12"/><linearGradient id="SVGID_9_12" x1="330.4" x2="349.5" y1="88.1" y2="54.5" gradientTransform="rotate(12.5 140.2 127.5)" gradientUnits="userSpaceOnUse"><stop offset=".1" stop-color="#fff7cc"/><stop offset=".4" stop-color="#fcbdee"/><stop offset=".4" stop-color="#f8bcee"/><stop offset=".4" stop-color="#ebbaf0"/><stop offset=".5" stop-color="#d5b7f2"/><stop offset=".5" stop-color="#b7b2f5"/><stop offset=".6" stop-color="#a8b0f7"/><stop offset=".6" stop-color="#a9b4f7"/><stop offset=".7" stop-color="#acc1f5"/><stop offset=".7" stop-color="#b1d7f3"/><stop offset=".8" stop-color="#b4e6f1"/></linearGradient><path fill="url(#SVGID_9_12)" d="M353.2 95.6c5 2.7 9.5 5.8 13.5 9.2a165 165 0 01-27 39.3 132.2 132.2 0 01-18-19.1c10.6-13 21.1-23.8 31.5-29.4z"/><linearGradient id="SVGID_10_12" x1="335.7" x2="343.2" y1="84.1" y2="66.3" gradientTransform="rotate(12.5 140.2 127.5)" gradientUnits="userSpaceOnUse"><stop offset="0" stop-color="#b0aae2"/><stop offset="1" stop-color="#a5e3ec"/></linearGradient><path fill="url(#SVGID_10_12)" d="M348.4 122.6c-1 5.4-2.8 11.4-5.6 16.5a167 167 0 0022.6-34.1c-3.5-3-7.5-5.7-12.2-8.3-1.5.8-3.1 1.8-4.6 2.9a52.4 52.4 0 01-.2 23z"/><path d="M346.5 127.8l.2-.2a59.7 59.7 0 0011.2-17.6l.1-.3-.2-.2-.6-1-.5-.7c1.4-2.6 3.1-4.8 5.1-6.7l-.9-.6a25 25 0 00-5 6.9l-.1.1 1.3 2a63.1 63.1 0 01-10.9 17.3l-3.4-.9-3.7-.9-.3-.1-.2.3a73.9 73.9 0 00-7.6 10.7l.8.8c2.2-3.7 4.7-7.3 7.4-10.6l3.4.9 3.7.9.2-.1z" class="st13_12"/><path d="M346.2 127.1l.1-.1a59.1 59.1 0 0011.2-17.5l.1-.1-.1-.1-.7-1-.6-.9a24 24 0 015-6.7l-.4-.3c-2 2-3.7 4.3-5.1 6.9l-.1.1.1.1.7 1 .6.9a57 57 0 01-10.9 17.1l-3.5-.9-3.7-.9h-.2l-.1.1c-2.9 3.4-5.4 7-7.7 10.9l.4.4c2.2-3.8 4.8-7.4 7.6-10.8l3.5.9 3.7.9h.1z" class="st14_12"/><path d="M317.8 124.3l.2.2c4.9 7.8 11 14.1 18.3 18.9l3.4.8-18-19.1-3.9-.8z" class="st9_12"/><linearGradient id="SVGID_11_12" x1="360.5" x2="296.8" y1="157.6" y2="125.3" gradientTransform="rotate(12.5 140.2 127.5)" gradientUnits="userSpaceOnUse"><stop offset=".4" stop-color="#22567d"/><stop offset="1" stop-color="#131f49"/></linearGradient><path fill="url(#SVGID_11_12)" d="M321.6 140.9l6.2-6.1 2.6 3.2-5.3 7.3c2 .5 4.4 1.6 6.4 2.1l.1 6 11.9 2.1a62 62 0 01-11.7 39.1l-7.5-1.4 3.9 13.6-3.7-.2-5-12.5-3.2 3.3-10.1-2.2a30.8 30.8 0 01-8.3 8.2l-19.1-3.9 12.5-26.5c3-6.3 6-12.7 10.5-18a87 87 0 0119.8-14.1z"/><linearGradient id="SVGID_12_12" x1="219.8" x2="220.7" y1="100.2" y2="143.2" gradientTransform="rotate(12.5 140.2 127.5)" gradientUnits="userSpaceOnUse"><stop offset=".1" stop-color="#fff7cc"/><stop offset=".4" stop-color="#fcbdee"/><stop offset=".4" stop-color="#f8bcee"/><stop offset=".4" stop-color="#ebbaf0"/><stop offset=".5" stop-color="#d5b7f2"/><stop offset=".5" stop-color="#b7b2f5"/><stop offset=".6" stop-color="#a8b0f7"/><stop offset=".6" stop-color="#a9b4f7"/><stop offset=".7" stop-color="#acc1f5"/><stop offset=".7" stop-color="#b1d7f3"/><stop offset=".8" stop-color="#b4e6f1"/></linearGradient><path fill="url(#SVGID_12_12)" d="M320.6 160.8c2.3-3.5 4-9.5 3.6-13.7-.5-4.2-4.2-10.4-8.1-11.9a416 416 0 00-67.3-20c-24-4.7-49.4-5-73.7-1.9-25.4 3.3-49.4 11-64.1 34.6 16.8 35.1 111.9 51 136.5 55.3a61.4 61.4 0 0024.9-.3c9.2-2.3 16.9-9 22.3-16.9 5.4-7.9 8.8-16.9 12.1-25.8 4.6 0 9.2.5 13.8.6z"/><linearGradient id="SVGID_13_12" x1="204" x2="204" y1="183.3" y2="169" gradientTransform="rotate(12.5 140.2 127.5)" gradientUnits="userSpaceOnUse"><stop offset=".1" stop-color="#fff7cc"/><stop offset=".4" stop-color="#fcbdee"/><stop offset=".4" stop-color="#f8bcee"/><stop offset=".4" stop-color="#ebbaf0"/><stop offset=".5" stop-color="#d5b7f2"/><stop offset=".5" stop-color="#b7b2f5"/><stop offset=".6" stop-color="#a8b0f7"/><stop offset=".6" stop-color="#a9b4f7"/><stop offset=".7" stop-color="#acc1f5"/><stop offset=".7" stop-color="#b1d7f3"/><stop offset=".8" stop-color="#b4e6f1"/></linearGradient><path fill="url(#SVGID_13_12)" d="M115.6 141.2a66.5 66.5 0 00-4.7 6.7c16.8 35.1 111.9 51 136.5 55.3a61.4 61.4 0 0024.9-.3 32 32 0 007.4-3c-57.5-11.5-113.9-29.3-164.1-58.7z"/><linearGradient id="SVGID_14_12" x1="154.4" x2="326.1" y1="132.6" y2="132.6" gradientTransform="rotate(12.5 140.2 127.5)" gradientUnits="userSpaceOnUse"><stop offset="0" stop-color="#fd1013"/><stop offset=".5" stop-color="#ea23bd"/><stop offset=".7" stop-color="#3f3ccf"/><stop offset=".7" stop-color="#4159cd"/><stop offset=".9" stop-color="#45a4c6"/><stop offset=".9" stop-color="#45a7c6"/></linearGradient><path fill="url(#SVGID_14_12)" d="M304 160.3c-39.6-5.9-79.8-12.8-120.6-20.7l-9.5 6.5-22.8-2.3 27.8 6.2 11.2-5.4c35.3 8.8 72.3 16.7 110.7 23.9l3.2-8.2z"/><path fill="#a5e3ec" d="M276.7 181.7a725.3 725.3 0 01-52.9-6c-23-3.5-45.9-7.6-68.4-13.5.7 2.2.5 4.6-1.1 7.1l-.7 1.1c31.8 14.5 116.1 28.1 122.9 28.7h2.4a42.8 42.8 0 0014.8-13.8l1.6-2.4-18.6-1.2z"/><defs><filter id="Adobe_OpacityMaskFilter" width="185.9" height="34.7" x="137.2" y="112.3" filterUnits="userSpaceOnUse"><feFlood flood-color="#fff" flood-opacity="1" result="back"/><feBlend in="SourceGraphic" in2="back"/></filter></defs><mask id="SVGID_15_12" width="185.9" height="34.7" x="137.2" y="112.3" maskUnits="userSpaceOnUse"><g filter="url(#Adobe_OpacityMaskFilter)"><defs><filter id="Adobe_OpacityMaskFilter_1_" width="185.9" height="34.7" x="137.2" y="112.3" filterUnits="userSpaceOnUse"><feFlood flood-color="#fff" flood-opacity="1" result="back"/><feBlend in="SourceGraphic" in2="back"/></filter></defs><linearGradient id="SVGID_16_12" x1="141.4" x2="319.4" y1="111.7" y2="104.7" gradientTransform="rotate(12.5 140.2 127.5)" gradientUnits="userSpaceOnUse"><stop offset="0" stop-color="#fff"/><stop offset="1"/></linearGradient><path fill="url(#SVGID_16_12)" d="M315.7 136.2a432.8 432.8 0 00-59.3-18.3l-7.8-1.6a233 233 0 00-73.4-1.9c-12 1.5-25.6 4.2-38 10.7 1.6.8 8.5 2.4 10.3 2.6a468 468 0 0143.7-4.5c15.5-.5 31.3 1.2 46.6 3.4a352 352 0 0147.8 9.7c8 2.3 33.2 9.2 37.5 10.8-.5-3.9-4-9.6-7.4-10.9z" mask="url(#SVGID_15_12)"/></g></mask><path d="M315.7 136.2a432.8 432.8 0 00-59.3-18.3l-7.8-1.6a233 233 0 00-73.4-1.9c-12 1.5-25.6 4.2-38 10.7 1.6.8 8.5 2.4 10.3 2.6a468 468 0 0143.7-4.5c15.5-.5 31.3 1.2 46.6 3.4a352 352 0 0147.8 9.7c8 2.3 33.2 9.2 37.5 10.8-.5-3.9-4-9.6-7.4-10.9z" class="st10_12"/><linearGradient id="SVGID_17_12" x1="142.7" x2="134.4" y1="180.2" y2="127.9" gradientTransform="rotate(12.5 140.2 127.5)" gradientUnits="userSpaceOnUse"><stop offset="0" stop-color="#131f49"/><stop offset=".6" stop-color="#22567d"/></linearGradient><path fill="url(#SVGID_17_12)" d="M154.5 161.4l-12.5-4.2c3.1-5.6 4.6-12 4.5-18.4-.1-3.1-1.5-5.7-3.7-7.9-3-1.8-5.9-3.2-9.2-4.6h-.2l-.3-.1a64.7 64.7 0 00-22.2 21.7c5.7 11.8 20.1 21.4 37.8 29.1 3.8-4.2 6-9.9 5.8-15.6z"/><linearGradient id="SVGID_18_12" x1="135.4" x2="164.3" y1="128.3" y2="139.4" gradientTransform="rotate(12.5 140.2 127.5)" gradientUnits="userSpaceOnUse"><stop offset="0" stop-color="#22567d"/><stop offset=".1" stop-color="#205c81"/><stop offset=".2" stop-color="#1a6c8d"/><stop offset=".3" stop-color="#1186a0"/><stop offset=".5" stop-color="#04abbb"/><stop offset=".5" stop-color="#00b8c4"/><stop offset=".6" stop-color="#15c2c4"/><stop offset=".8" stop-color="#4cddc6"/><stop offset="1" stop-color="#83f7c7"/></linearGradient><path fill="url(#SVGID_18_12)" d="M126.1 130.9c-.5 2.3-.7 3.5-.5 5.9 8.2.3 17 1.8 25.1 2.4l1.9-2.4 11.9 1.1 3.5-5-34.4-7.2a77 77 0 00-7.5 5.2z"/><path fill="#00b8c4" d="M164.6 133.3l-3.8-.8c-1.2 1.3-2.5 2.4-3.8 3.6l1.7.2 3.7.3c.8-1 1.5-2.2 2.2-3.3z" opacity=".3"/><path d="M146.6 136.2l-.9 1.5-.8-.1c1.2-1.5 2.4-2.9 3.8-4.3l-.1.1a18 18 0 00-2 2.8zM144 129l-2.2-.4-7.4 7.8 3.2.4 6.4-7.8zm-14.8 6.9l-2.6-.2c-.1-1.6.1-2.6.4-4.3 2.1-1.6 4.4-3.2 6.7-4.6l4.3.9-.7.5-.4.1-7.7 7.6zm200.5 107.8c-9.1-10.6-16.1-23-20.3-36.3l5.5-4.5c3.4 13.7 9.4 26.9 17.6 38.4l-2.8 2.4z" class="st10_12"/><linearGradient id="SVGID_19_12" x1="361.7" x2="341.8" y1="204" y2="162.2" gradientTransform="rotate(12.5 140.2 127.5)" gradientUnits="userSpaceOnUse"><stop offset=".1" stop-color="#fff7cc"/><stop offset=".4" stop-color="#fcbdee"/><stop offset=".4" stop-color="#f8bcee"/><stop offset=".4" stop-color="#ebbaf0"/><stop offset=".5" stop-color="#d5b7f2"/><stop offset=".5" stop-color="#b7b2f5"/><stop offset=".6" stop-color="#a8b0f7"/><stop offset=".6" stop-color="#a9b4f7"/><stop offset=".7" stop-color="#acc1f5"/><stop offset=".7" stop-color="#b1d7f3"/><stop offset=".8" stop-color="#b4e6f1"/></linearGradient><path fill="url(#SVGID_19_12)" d="M314.9 202.9c9.6 1.1 19 3.1 28.4 5.8 2.1 10.6 5 21.3 8.7 32.2a75 75 0 01-19.5.4 112.8 112.8 0 01-17.6-38.4z"/><linearGradient id="SVGID_20_12" x1="357.9" x2="350.3" y1="196.3" y2="171.7" gradientTransform="rotate(12.5 140.2 127.5)" gradientUnits="userSpaceOnUse"><stop offset="0" stop-color="#b0aae2"/><stop offset="1" stop-color="#a5e3ec"/></linearGradient><path fill="url(#SVGID_20_12)" d="M339 219.6a78 78 0 015.4 11.3c1.2 3.1 1.7 6.3 2.2 9.5l3.9-.4a247.3 247.3 0 01-8.2-30.4 239.6 239.6 0 00-20.2-4.5 40.9 40.9 0 0116.9 14.5z"/><path d="M342.5 231.2l-1.3-.1-1.7-.1h-.4l.1.4a40 40 0 004.7 9.8h.7c-2-3.1-3.6-6.3-4.7-9.6l1.3.1 1.7.1h.4l-.1-.4-2.6-7.3-2.6-7.3-.1-.2h-3.6a42 42 0 01-3.5-10.9l-.6-.1a43 43 0 003.7 11.5l.1.2h3.6l2.5 7.1 2.4 6.8z" class="st13_12"/><path d="M339.4 232.1l1.3.1 1.7.1h.4l-.1-.4-2.6-7.3-2.6-7.3-.1-.2h-3.6a40 40 0 01-3.6-11.6l-.2-.1-.3.1a39 39 0 003.8 12l.1.2h3.6l2.5 7.1 2.4 6.9-1.3-.1-1.7-.1h-.4l.1.4a40 40 0 004.7 9.8h.7a33.2 33.2 0 01-4.8-9.6z" class="st14_12"/><path d="M302.1 133.6a23.1 23.1 0 00-4.8-5.1l-1.8-.6-.2.5c2.4 1.5 4.5 3.5 6 5.9 2.6 3.9 3.9 8.5 3.6 12.6a602 602 0 01-108.9-17c1.5-3.8 1.1-8.5-1.1-11.9a13.3 13.3 0 00-8.2-5.6l-.4-.1-2.5.2-.2.1v.5h.3a12.5 12.5 0 0110.1 5.4 12 12 0 01.8 11.5l-.3.6.6.2 14.7 3.4a621 621 0 0081.6 12.8c-.3 4.2-1.6 8.7-3.6 13-3.3 7.1-8.3 13.3-12.8 18.9a246 246 0 01-64.1-8.2l-.5-.1-.2.5c-4.2 11.2-15.4 17.7-29.8 17.4l3.5 1c13-.7 23.1-7.2 27.2-17.6l10.6 2.6c17.1 3.8 35.6 5.7 53.6 5.6h.3l.2-.2c4.5-5.6 9.7-12 13.1-19.3a38 38 0 003.7-13.4l12.9.9h.5l.1-.5c.2-4.7-1.1-9.8-4-14z" class="st13_12"/><path d="M301.1 133.6c2.7 4 4 8.8 3.6 13.1a625.6 625.6 0 01-109.5-17.1c1.6-3.8 1.3-8.5-1-11.9-1.9-2.9-5-4.9-8.3-5.5l-2.5.2v.1c4.1-.1 8.1 2.1 10.4 5.5 2.2 3.4 2.5 8 .8 11.7l-.1.3.3.1a633.2 633.2 0 0096.5 16.2 38 38 0 01-3.7 13.4c-3.3 7.1-8.4 13.4-12.9 19-22 .2-44.3-2.7-64.3-8.3l-.2-.1-.1.2c-4.3 11.4-15.7 17.9-30.2 17.6l1.8.5c13.8-.2 24.6-6.7 28.8-17.7 20.1 5.6 42.3 8.4 64.3 8.2h.1l.1-.1c4.5-5.6 9.7-12 13-19.2a39 39 0 003.7-13.6l13.1.9h.3v-.3a21.2 21.2 0 00-8.4-18.7l-1.8-.6c2.5 1.7 4.6 3.7 6.2 6.1z" class="st14_12"/><linearGradient id="SVGID_21_12" x1="310.9" x2="317.4" y1="136.7" y2="158.1" gradientTransform="rotate(12.5 140.2 127.5)" gradientUnits="userSpaceOnUse"><stop offset=".1" stop-color="#fff7cc"/><stop offset=".4" stop-color="#fcbdee"/><stop offset=".4" stop-color="#f8bcee"/><stop offset=".4" stop-color="#ebbaf0"/><stop offset=".5" stop-color="#d5b7f2"/><stop offset=".5" stop-color="#b7b2f5"/><stop offset=".6" stop-color="#a8b0f7"/><stop offset=".6" stop-color="#a9b4f7"/><stop offset=".7" stop-color="#acc1f5"/><stop offset=".7" stop-color="#b1d7f3"/><stop offset=".8" stop-color="#b4e6f1"/></linearGradient><path fill="url(#SVGID_21_12)" d="M309.4 191.7c2.9-3.4 4.9-7.9 5.2-12.4a26.2 26.2 0 00-12.1-1.7 32.7 32.7 0 01-5.9 9.6 40 40 0 0012.8 4.5z"/><path d="M164.6 137.9l3.5-5-34.5-7.1-.2.1 33.3 7.6-3 4.4zm-11.9-1l-1.9 2.4-25.1-2.4c-.2-2.1-.1-4 .5-5.9-.3 1.9-.3 3.8.2 5.6l23.9 2.1 1.8-1.6.6-.2zm74.9-11c-.2.7-1.3 1-2.6.7-1.3-.3-2.2-1.1-2-1.8s1.3-1 2.6-.7c1.3.3 2.2 1.1 2 1.8z" class="st29_12"/><path d="M224.9 124.1l-.9-.1c-.6.1-1 .4-1.1.7-.2.7.7 1.5 2 1.8l.9.1c.6-.1 1-.4 1.1-.7.2-.6-.7-1.4-2-1.8z" class="st30_12"/><path d="M224.4 125v.3c.2.6 1.1.8 1.6.8.2 0 .4 0 .5-.2.3-.5-.5-1.1-.8-1.2-.3-.1-.8-.1-1.1.1l-.2.2z" class="st31_12"/><path d="M236.5 127.3c-.2.8-1.5 1.1-3 .8-1.4-.4-2.5-1.3-2.3-2 .2-.8 1.5-1.1 3-.8 1.5.3 2.5 1.2 2.3 2z" class="st29_12"/><path d="M233.5 125.3l-1-.1c-.6.1-1.1.4-1.2.8-.2.8.8 1.7 2.3 2l1 .1c.6-.1 1.1-.4 1.2-.8.1-.8-.9-1.7-2.3-2z" class="st30_12"/><path d="M232.8 126.2v.3c.3.7 1.3.9 1.8.9.2 0 .4 0 .5-.2.3-.6-.6-1.2-.9-1.3a2 2 0 00-1.3.1l-.1.2z" class="st31_12"/><path d="M284.5 135.8c-.2.8-1.5 1.1-3 .8s-2.5-1.3-2.3-2c.2-.8 1.5-1.1 3-.8 1.5.3 2.5 1.3 2.3 2z" class="st29_12"/><path d="M281.5 133.8l-1-.1c-.6.1-1.1.4-1.2.8-.2.8.8 1.7 2.3 2l1 .1c.6-.1 1.1-.4 1.2-.8.2-.7-.8-1.6-2.3-2z" class="st30_12"/><path d="M280.9 134.8v.3c.3.7 1.3.9 1.8.9.2 0 .4 0 .5-.2.3-.6-.6-1.2-.9-1.3a2 2 0 00-1.3.1l-.1.2z" class="st31_12"/><path d="M245.5 128.6c-.2.9-1.7 1.3-3.3.9-1.6-.4-2.8-1.4-2.6-2.3.2-.9 1.7-1.3 3.3-.9s2.8 1.4 2.6 2.3z" class="st29_12"/><path d="M242.1 126.4l-1.1-.2c-.7.1-1.2.5-1.3.9-.2.9.9 1.9 2.6 2.3l1.1.2c.7-.1 1.2-.5 1.3-.9.2-.9-1-1.9-2.6-2.3z" class="st30_12"/><path d="M241.3 127.4c-.1.1 0 .3 0 .4.3.8 1.4 1.1 2.1 1.1.2 0 .5 0 .6-.3.3-.6-.6-1.4-1-1.5-.4-.1-1-.1-1.4.1l-.3.2z" class="st31_12"/><path d="M255.8 130.5c-.3 1.1-2.1 1.5-4.1 1.1-2-.5-3.4-1.8-3.1-2.8.3-1.1 2.1-1.5 4.1-1.1 1.9.5 3.3 1.7 3.1 2.8z" class="st29_12"/><path d="M251.6 127.8l-1.4-.2c-.9.2-1.5.6-1.6 1.2-.3 1.1 1.1 2.3 3.1 2.8l1.4.2c.9-.2 1.5-.6 1.7-1.2.2-1.1-1.2-2.3-3.2-2.8z" class="st30_12"/><path d="M250.6 129v.5c.4.9 1.7 1.3 2.5 1.3.3 0 .6-.1.7-.3.4-.8-.8-1.7-1.3-1.8-.5-.1-1.2-.2-1.7.1l-.2.2z" class="st31_12"/><path d="M277.4 134.4c-.3 1.1-2.1 1.5-4.1 1.1-2-.5-3.4-1.8-3.1-2.8.3-1.1 2.1-1.5 4.1-1.1 2 .5 3.4 1.7 3.1 2.8z" class="st29_12"/><path d="M273.2 131.7l-1.4-.2c-.9.2-1.5.6-1.6 1.2-.3 1.1 1.1 2.3 3.1 2.8l1.4.2c.9-.2 1.5-.6 1.7-1.2.2-1.1-1.2-2.3-3.2-2.8z" class="st30_12"/><path d="M272.3 132.9v.5c.4.9 1.7 1.3 2.5 1.3.3 0 .6-.1.7-.3.4-.8-.8-1.7-1.3-1.8-.5-.1-1.2-.2-1.7.1l-.2.2z" class="st31_12"/><path d="M267.7 132.6c-.3 1.3-2.5 1.8-4.8 1.2-2.3-.6-4-2.1-3.7-3.3.3-1.3 2.5-1.8 4.8-1.2 2.4.6 4 2.1 3.7 3.3z" class="st29_12"/><path d="M262.8 129.4l-1.6-.2c-1 .2-1.8.7-1.9 1.4-.3 1.3 1.3 2.7 3.7 3.3l1.6.2c1-.2 1.8-.7 1.9-1.4.3-1.2-1.3-2.7-3.7-3.3z" class="st30_12"/><path d="M261.6 130.8v.6c.4 1.1 2 1.5 3 1.5.3 0 .7-.1.8-.4.5-.9-.9-2-1.5-2.1-.6-.1-1.4-.2-2 .2l-.3.2z" class="st31_12"/><path d="M291.6 137.3c-.2.8-1.5 1.1-2.9.8-1.4-.4-2.5-1.3-2.3-2 .2-.8 1.5-1.1 2.9-.8 1.5.3 2.5 1.2 2.3 2z" class="st29_12"/><path d="M288.6 135.3l-1-.1c-.6.1-1.1.4-1.2.8-.2.8.8 1.7 2.3 2l1 .1c.6-.1 1.1-.4 1.2-.8.2-.7-.8-1.6-2.3-2z" class="st30_12"/><path d="M288 136.2v.3c.3.7 1.3.9 1.8.9.2 0 .4 0 .5-.2.3-.6-.6-1.2-.9-1.3-.4-.1-.9-.1-1.2.1l-.2.2z" class="st31_12"/><g><path d="M242.9 196.6l-1.4 1.4 6.3 1 2.2-1.8z" class="st32_12"/><path d="M248.6 197.3l-5.4-.4-.6.6 4.6 1z" class="st33_12"/><path fill="#8453b8" d="M242.9 196.6l7.1.6.9-.4-7.9-.8-2.7 2.6 1.2-.6z" opacity=".4"/><path d="M240.3 198.6l6.9 1.1 3.7-2.9-.9.4-2.2 1.8-6.3-1-1.2.6z" class="st35_12"/></g><g><linearGradient id="SVGID_22_12" x1="351.8" x2="356.5" y1="119.6" y2="140.1" gradientTransform="rotate(12.5 140.2 127.5)" gradientUnits="userSpaceOnUse"><stop offset=".1" stop-color="#fff7cc"/><stop offset=".4" stop-color="#fcbdee"/><stop offset=".4" stop-color="#f8bcee"/><stop offset=".4" stop-color="#ebbaf0"/><stop offset=".5" stop-color="#d5b7f2"/><stop offset=".5" stop-color="#b7b2f5"/><stop offset=".6" stop-color="#a8b0f7"/><stop offset=".6" stop-color="#a9b4f7"/><stop offset=".7" stop-color="#acc1f5"/><stop offset=".7" stop-color="#b1d7f3"/><stop offset=".8" stop-color="#b4e6f1"/></linearGradient><path fill="url(#SVGID_22_12)" d="M354.9 200a47 47 0 01-32.2-21.3 40.6 40.6 0 0144.5-18.6c14.6 9.6 5.7 32.6-12.3 39.9z"/><path d="M324.7 178c5.3-2.7 11-4.8 16.3-6a129 129 0 0124-2.8l7.6-.4c-1-3.1-3-5.7-5.9-7.6a39.4 39.4 0 00-42.3 16.8h.3z" class="st10_12"/><path fill="#8ed7de" d="M366.5 189c-4.6.1-9.2.3-13.8-.1l-21-2.1h-.9c6 5.8 13.4 9.9 21.3 11.6l2.7.5c5.1-2.1 9.6-5.7 12.8-9.9a2 2 0 01-1.1 0z"/><path d="M338.8 180.5h-.1l-.1.1a22.1 22.1 0 01-7.9 7.6l.4.4c3.2-1.8 5.9-4.5 7.8-7.6 8.2-.7 16.3.1 23.6 2.3l.2-.5a65 65 0 00-23.9-2.3z" class="st13_12"/><path d="M338.6 180.1h-.1l-.1.1a21.9 21.9 0 01-8 7.7l.4.4c3.3-1.8 6.1-4.5 8-7.7 8.2-.7 16.3.1 23.6 2.3l.2-.5c-7.4-2.2-15.7-3-24-2.3z" class="st14_12"/><linearGradient id="SVGID_23_12" x1="371.2" x2="368.6" y1="150.5" y2="111.4" gradientTransform="rotate(12.5 140.2 127.5)" gradientUnits="userSpaceOnUse"><stop offset=".4" stop-color="#22567d"/><stop offset="1" stop-color="#131f49"/></linearGradient><path fill="url(#SVGID_23_12)" d="M367.2 160.2c-1.9-.5-3.8-.8-5.7-1 2.1 2 3.5 4.8 3.9 7.7.5 3.5-.2 7-1.1 10.3a51 51 0 01-13.3 21.9l4 .8c17.9-7.2 26.8-30.2 12.2-39.7z"/><path d="M366.4 166.8c-.3-2.3-1.1-4.4-2.3-6.1l1.7.3.9.2c2.8 1.9 4.7 4.4 5.8 7.3l-6 .1-.1-1.8zm5.1 7l1.9.1c0-1.3-.1-2.6-.4-3.9-2.1.1-4.3 0-6.4 0 0 1.2-.2 2.4-.4 3.6l5.3.2z" class="st39_12"/><path d="M353.1 176.7l-.3 1.7 7.2 1.2.7-2.2z" class="st32_12"/><path d="M359.4 177.6l-5.7-.5-.1.7 5.3 1.1z" class="st33_12"/><path fill="#b62dc0" d="M353.1 176.7l7.6.7.6-.5-8.6-.9-.6 3.1.7-.7z" opacity=".4"/><path d="M352.1 179.1l7.9 1.4 1.3-3.5-.6.5-.7 2.2-7.1-1.2-.8.6z" class="st35_12"/></g><path fill="#004d5c" d="M119.8 154.8c9.5 6.7 19.8 12.1 30.7 16.2a14 14 0 002.3-8.2c-10.6-2-23.1-3.8-33-8z" opacity=".4"/><path d="M306.4 173.6c1.3-3.2 2.2-6.5 2.7-9.8 2.8-.1 5.9-.6 8.8-.7-.4 4.3-1.1 8.8-2.6 12.8l-8.9-2.3zm17.2-.8c-1.7-.1-3.1-.5-4.8-.6.4-2 .1-4.2.5-6.2l4.6-.6a45.4 45.4 0 001.6-16.4l3.7.7a61 61 0 01-1.8 19.5c-.5 1.5-2.8 2.4-3.8 3.6zm9.6-9.3l.3-7.6 8.1.5v4.2a28 28 0 00-8.4 2.9zm-30.5 32.3a10.8 10.8 0 01-5.6 5.7l-11.6-2.5c2.3-1.8 4.3-3.8 6.1-6.1 3.7.9 7.4 2.1 11.1 2.9zm19.5-9.6c-.9 3.5-3 6.8-5.8 9.1l-5.9-1.5c2.1-2.3 3.7-5.2 4.6-8.2l7.1.6z" class="st39_12"/><path d="M329.7 243.7c5.5.2 14.1.2 19.8-1.3l2.5-1.6c-5.5.9-14.2 1.2-19.5.4l-2.8 2.5z" class="st9_12"/><path fill="#fff7cc" d="M124.6 137.3a35 35 0 00-6.3 8.9l-1.3 6.9c-1.6-1.9-2.9-4-3.8-6.3a67.6 67.6 0 0111.5-14.1l-.1 4.6z" opacity=".5"/><g><linearGradient id="SVGID_24_12" x1="35.3" x2="26.4" y1="207.5" y2="212.5" gradientUnits="userSpaceOnUse"><stop offset="0" stop-color="#2bb1e9"/><stop offset="1" stop-color="#2295d1"/></linearGradient><path fill="url(#SVGID_24_12)" d="M18.7 187.4l32.2 6.1 11 8.8-24.4 33.6-18.8-48.5z"/><linearGradient id="SVGID_25_12" x1="44.1" x2="26" y1="177.1" y2="203.6" gradientUnits="userSpaceOnUse"><stop offset="0" stop-color="#33beff"/><stop offset="1" stop-color="#6deefe"/></linearGradient><path fill="url(#SVGID_25_12)" d="M18.7 187.4l21.2 23 11-16.9-32.2-6.1z"/><linearGradient id="SVGID_26_12" x1="52.8" x2="44.9" y1="199.5" y2="203.4" gradientUnits="userSpaceOnUse"><stop offset="0" stop-color="#33beff"/><stop offset="1" stop-color="#6deefe"/></linearGradient><path fill="url(#SVGID_26_12)" d="M39.8 210.4l22-8.2-11-8.8-11 17z"/><linearGradient id="SVGID_27_12" x1="54.8" x2="44.6" y1="194.2" y2="225.3" gradientUnits="userSpaceOnUse"><stop offset="0" stop-color="#36abea"/><stop offset="1" stop-color="#48cff2"/></linearGradient><path fill="url(#SVGID_27_12)" d="M39.8 210.4l-2.4 25.4 24.4-33.6-22 8.2z"/><path d="M61.8 202.2L39.4 210l.4.4 22-8.2z" class="st47_12"/><path d="M39.8 210.4a723.9 723.9 0 01-18.5-20.1c.1-.1 6.4 6.4 18.9 19.5a2 2 0 01-.4.6z" class="st48_12"/><linearGradient id="SVGID_28_12" x1="54.2" x2="50.5" y1="190.4" y2="208" gradientUnits="userSpaceOnUse"><stop offset="0" stop-color="#6cedfd"/><stop offset="1" stop-color="#b1f5fd"/></linearGradient><path fill="url(#SVGID_28_12)" d="M50.9 193.5l-11 16.9 22-8.2-11-8.7z"/><path d="M37.4 235.8c1.5-17 2.3-25.4 2.4-25.4L38 235l-.6.8z" class="st50_12"/></g><g><linearGradient id="SVGID_29_12" x1="325.5" x2="311.3" y1="34.5" y2="42.6" gradientUnits="userSpaceOnUse"><stop offset="0" stop-color="#2bb1e9"/><stop offset="1" stop-color="#2295d1"/></linearGradient><path fill="url(#SVGID_29_12)" d="M298.9 2.4l51.5 9.8 17.5 14-39 53.8-30-77.6z"/><linearGradient id="SVGID_30_12" x1="339.7" x2="310.7" y1="-14.1" y2="28.3" gradientUnits="userSpaceOnUse"><stop offset="0" stop-color="#33beff"/><stop offset="1" stop-color="#6deefe"/></linearGradient><path fill="url(#SVGID_30_12)" d="M298.9 2.4l33.9 36.8 17.6-27.1-51.5-9.7z"/><linearGradient id="SVGID_31_12" x1="353.6" x2="340.8" y1="21.8" y2="28" gradientUnits="userSpaceOnUse"><stop offset="0" stop-color="#33beff"/><stop offset="1" stop-color="#6deefe"/></linearGradient><path fill="url(#SVGID_31_12)" d="M332.8 39.2L368 26.1l-17.5-14c-6 9-11.9 18.1-17.7 27.1z"/><linearGradient id="SVGID_32_12" x1="356.7" x2="340.4" y1="13.2" y2="63" gradientUnits="userSpaceOnUse"><stop offset="0" stop-color="#36abea"/><stop offset="1" stop-color="#48cff2"/></linearGradient><path fill="url(#SVGID_32_12)" d="M332.8 39.2l-3.9 40.7 39-53.8-35.1 13.1z"/><path d="M367.9 26.1l-.1-.1-35.6 12.5.6.6 35.1-13z" class="st47_12"/><path d="M332.8 39.2c-19.9-21.3-29.7-32-29.6-32.2.1-.1 10.2 10.3 30.2 31.2l-.6 1z" class="st48_12"/><linearGradient id="SVGID_33_12" x1="355.7" x2="349.8" y1="7.1" y2="35.3" gradientUnits="userSpaceOnUse"><stop offset="0" stop-color="#6cedfd"/><stop offset="1" stop-color="#b1f5fd"/></linearGradient><path fill="url(#SVGID_33_12)" d="M350.4 12.1l-17.6 27.1L368 26.1l-17.6-14z"/><path d="M328.9 79.9a1060 1060 0 013.9-40.7c.1 0-.8 13.1-2.9 39.3l-1 1.4z" class="st50_12"/></g></svg>