<svg xmlns="http://www.w3.org/2000/svg" xmlns:xlink="http://www.w3.org/1999/xlink" id="Layer_1" x="0" y="0" version="1.1" viewBox="80 50 529 533" xml:space="preserve"><defs><path id="SVGID_29_10" d="M1 1h1L1 2z"/><path id="reuse-1" d="M267.1 196.1l-.2.2s0-.1.1-.1c0 0 .1 0 .1-.1zm256.6 8.4l.1-.1v.2zm-306.3 6.1v.1h-.1zm237.2.2v-.1h.1zm36.7 1.4l-.1-.1h.2zm50 1.8l.1-.1v.2zm-46.6 2.3v.2h-.1zm28.2 2l-.2.1.1-.2zm-78.3 132.4l.1.1h-.2zm-6.1-60.4l-.1.1v-.2zm-90.9 18.1c-.1.1-.1.1-.2.1l-.1-.1h.3zm12.9-163.2c.9.5.9 1 .8 1.6-.1.4-.3.7-.8.7s-.8-.5-.7-1c.1-.4.4-.8.7-1.3zM340 166.8c.2.3.4.4.4.6.1.4.1.8-.4.9h-.4c-.4-.3-.3-.6-.1-1l.5-.5zm26.8-17.6c0-.1.1-.3.1-.4.1.1.2.1.3.2 0 0 0 .2-.1.2h-.3zm-19.9 1.7c-.1 0-.2-.1-.2-.1 0-.1.1-.2.1-.3 0 0 .2 0 .2.1 0 0 0 .2-.1.3zm20.3 10.5c0-.1.1-.1.1-.2.1.1.2.1.3.2-.1 0-.1.1-.2.1-.1-.1-.1-.1-.2-.1zm-35.4 20l.2-.2.1.1c0 .1-.1.1-.3.1zm21.3-22.9v-.4h.2v.4h-.2zm-28.1 11l-.1-.1c0-.1.1-.1.1-.1l.1.1-.1.1zm14.3-19.8c.1 0 .3.1.3.1 0 .1 0 .2-.1.3-.1 0-.2 0-.2-.1v-.3zm28.6 1.7c0-.1 0-.2.1-.2h.2c-.1.1-.2.1-.3.2zm-32.8 92.3c.1-1 .5-1.3 1-1.4.4-.1.8 0 .9.4.2.4-.1 1-.6 1.1-.3 0-.7-.1-1.3-.1zm28.4 8.9c.2-.3.2-.5.4-.7.3-.2.7-.4 1-.1.1.1.2.3.2.4-.1.5-.5.5-.8.5-.3.1-.4 0-.8-.1zm-27.6-16.4c-.1 0-.3 0-.4.1v-.4s.2-.1.2 0c.1.1.2.2.2.3zm10.3 17.2v.2h-.3v-.2h.3zm.5-22.8h-.2v-.3c.1 0 .2 0 .2.1v.2zm33.5 22.9c-.1 0-.2 0-.2-.1v-.1l.2.2zm-29.9-9c-.1.1-.2.1-.4.2 0-.1-.1-.2-.1-.2.1-.1.2-.1.3-.2.1 0 .1.1.2.2zm22.2 20.4v.2c-.1 0-.1 0-.2-.1v-.2c.1 0 .1.1.2.1zm-24.1-4.2c0-.1-.1-.3 0-.3 0-.1.2-.1.3-.1 0 .1.1.2 0 .2-.1.1-.2.2-.3.2zm-11-26.4c-.1 0-.2.1-.2 0v-.2c0 .1.1.2.2.2zm52.1 118.4c-.1 0-.1.1-.2.1 0-.1-.1-.1-.1-.2l.1-.1c.1.1.2.1.2.2zm44.3-63.8h-.2v-.1zm-179.3-2.1l.1.2-.1-.1zm-18.5 41c0 .1.1.1.1.2h-.3c.1-.1.1-.2.2-.2zm206.9-41.3h-.2v-.1zm77.9-1.3l-.1-.1c.1 0 .1-.1.1-.1l.1.1-.1.1zM417 362.4l-.1-.1.1-.1.1.1-.1.1zm19.1 3c0 .1.1.1.1.2-.1 0-.1.1-.2.1s-.1-.1-.1-.1l.2-.2zm27.7 10.2h-.2l.1-.1zm13.9.2zM347.6 377c-.1 0-.1.1-.2.1 0-.1-.1-.1-.1-.2s.1-.1.1-.1l.2.2zM390 276.9l-.1.1-.1-.1.1-.1s0 .1.1.1zm60.6 28.8l-.1.1h.1zm-.7 75v.1h-.1zm6.8 3.9c-.1.1-.1.2-.2.2l-.1-.1c.1-.1.2-.1.3-.1zm86.7-110h-.2v-.1zM428.7 387.7v-.2.2zm0 0l-.1.1.1-.1zm6.8 3.6l.2-.1-.1.2zm-97.6 1.3c.1.1.1.1.1.2l-.1.1v-.3zM209.7 268l-.1-.2h.2zm276.4-5.5c0 .1.1.1.1.2-.1 0-.1.1-.2.1l-.1-.1c.1-.2.2-.2.2-.2zM313.4 409.1l.1-.1-.2.1zm-.1 0zm-61.6 1.6l.1.2-.2-.1zm246.3 1.6v-.1h.1zm-195.8-89.5l-.1-.2h.2zm140.2-12c-.1 0-.1.1-.2.1l-.1-.1c.1 0 .1-.1.2-.1 0-.1.1 0 .1.1zM197.6 261c-.1 0-.2.1-.3.1.1-.1.1-.2.2-.3l.1.2zM264 420.4l.1-.1v.2zm54.6.2l.1-.1h-.1z" class="st3_10"/><path id="reuse-0" d="M487.7 238.1c.2 0 .3-.1.5-.1.2.1.5.3.7.4-.1.1-.2.4-.2.3-.3-.1-.5-.1-.8-.3-.1.1-.1-.2-.2-.3zm-2.4-30.5c-.2.1-.4.1-.6.2l-.2-.4c.2-.1.4-.2.6-.2.1 0 .1.2.2.4zm-41.5 115c.3.2.5.3.5.4.1.3-.3.6-.6.5-.1 0-.3-.2-.2-.3.1-.3.2-.5.3-.6zm-204.9-10.5c-.1-.2-.3-.3-.3-.4.1-.2.3-.3.4-.5.1.1.4.4.3.4 0 .3-.2.4-.4.5zm271.5-35.8l-.3.3c-.1-.1-.2-.3-.3-.4.1-.1.3-.2.4-.1.1-.1.2.1.2.2zm-160.5 81.4c-.2-.1-.3-.2-.4-.3.1-.2.3-.3.4-.4l.3.2c0 .2-.1.4-.3.5zm-3.8-69.5c-.2.1-.4.2-.6.2 0-.1-.1-.3-.1-.4.1-.1.2-.2.4-.2.1 0 .2.2.3.4zm142.8-73.7c-.4.1-.6.2-.9.2-.1 0-.2-.4-.2-.5.1-.2.4-.3.5-.3.2 0 .3.2.6.6zm-67.2 135.6c.2.1.2.2.3.3l-.5.5c-.1-.1-.2-.3-.2-.3.1-.2.2-.3.4-.5zm15.1-59.1c.2.1.4.2.5.3.1.1-.1.4-.2.5h-.2c-.1-.2-.2-.3-.2-.5 0 0 .1-.2.1-.3zm-71.2 54.8c-.4.2-.6.3-.9.3-.1 0-.3-.2-.3-.2 0-.1.1-.3.2-.3.3-.1.4 0 1 .2zM359.2 456c-.1-.2-.3-.4-.3-.4.1-.2.3-.3.5-.4.1.1.2.3.2.4 0 .2-.2.3-.4.4zm93.5-209.1c-.4.2-.6.4-.9.4-.1 0-.3-.4-.3-.5.1-.2.3-.3.5-.3s.4.2.7.4zm-45.8-28.8c.1.2.3.3.3.4 0 .4-.3.5-.6.4-.1 0-.2-.3-.1-.4 0-.1.2-.2.4-.4zm-74.5 112.8c-.2.1-.3.3-.5.4 0 0-.2-.1-.3-.2l.4-.4c.1-.1.3.1.4.2zm-20.1-204.7c-.2-.1-.3-.2-.4-.3.1-.1.2-.3.3-.3.1 0 .3.1.4.1-.1.1-.2.3-.3.5zm114.6 172.4c.1.3.3.6.3.7-.2.2-.5.3-.7.4l-.2-.3c.2-.3.4-.5.6-.8zm-174.8 14.9c-.1.1-.3.2-.5.4-.1-.2-.2-.3-.3-.5.2-.1.3-.2.5-.3.2.1.2.2.3.4zm322.3-82.6c-.2.1-.4.2-.6.2-.1 0-.2-.2-.2-.3.2-.1.3-.2.5-.3.1 0 .2.2.3.4zM468.7 370.8c0 .1.2.3.1.4s-.2.1-.3.2c0-.1-.1-.3-.1-.4 0-.1.2-.1.3-.2zm-17.2-61.4c-.1.4 0 .7-.2.9-.1.2-.4-.2-.3-.5.1-.1.3-.2.5-.4zm58.1-27.1c-.1-.1-.2-.2-.2-.3.2-.1.3-.2.5-.3 0 .1.1.3.1.4-.2.1-.3.2-.4.2zm-83.5 37.6c0-.1-.1-.3-.1-.4.1-.1.2-.1.4-.2 0 .1.1.3.1.4 0 .1-.2.1-.4.2zM477 277c-.2 0-.4.1-.6.1-.1 0-.1-.2-.1-.4.2-.1.4-.1.6-.2-.1.1 0 .3.1.5zm-20.3-15.1c0 .2 0 .3-.1.4-.1.2-.3.3-.5.4 0 0-.3-.2-.2-.3.1-.2.2-.4.4-.5h.4zm37.8 113.6l.3.3c-.1.1-.3.2-.4.3-.1-.1-.2-.3-.1-.4-.1-.1.1-.1.2-.2zm.3-204.8c-.2.1-.4.1-.6.1l-.1-.3c.2-.1.4-.2.5-.3 0 .1.1.3.2.5zm.9-40.9c-.2-.1-.3-.2-.4-.2.1-.2.2-.4.4-.5l.4.2c-.2.2-.3.3-.4.5zm82.4 59.8c.2.1.3.1.5.2-.1.2-.1.4-.3.5l-.4-.1c0-.2.1-.4.2-.6zm-66.7 52.6v-.4l.2-.1c.1.1.1.2.2.3-.2.1-.3.2-.4.2zm-28.6-2.9c-.1.1-.1.3-.2.4-.1.1-.2.1-.3.1v-.6c0-.1.2-.2.3-.2 0 .1.1.2.2.3zm28.3 43.5c.1.1.1.2.2.4-.1 0-.3.1-.4.1-.1 0-.1-.2-.1-.3 0-.1.2-.2.3-.2zm-103.3-82.9l.2.2c-.1.1-.2.1-.4.2 0 0-.1-.1-.2-.1.2-.1.3-.2.4-.3zm-12.6 168.2c-.1.1-.1.3-.2.4-.1 0-.3-.1-.4-.1.1-.1.1-.3.2-.4.1 0 .3.1.4.1zm90.1-241.3c.1-.1.2-.2.3-.2.1 0 .2.1.3.2-.1.1-.2.2-.3.2-.1 0-.2-.1-.3-.2zM355.8 439.1c.1.1.2.2.2.3-.1.1-.2.1-.4.2 0 0-.1-.1-.2-.1l.4-.4zm140.7-236.3c-.2-.1-.3-.1-.5-.2.2-.2.3-.4.5-.5.1.1.3.2.2.3 0 .2-.1.3-.2.4zm-149.2 108l-.3.3c-.1-.1-.1-.2-.2-.4 0 0 .1-.1.2-.1s.2.1.3.2zm97 126c.1 0 .2-.1.3-.1 0 .1.1.2.1.2-.1.1-.2.1-.3.1-.1-.1-.1-.1-.1-.2zm-198.2-74.2c-.2.1-.4.1-.6.2 0-.1-.1-.3 0-.4s.2-.2.4-.2c0 .1.1.2.2.4zm191.3-.9h-.4c0-.1.1-.2.1-.2h.4c-.1.1-.1.1-.1.2zm-73.6-1.2c-.1.1-.2.2-.2.3-.1-.1-.1-.2-.2-.3l.1-.2c.1 0 .2.1.3.2zm58.6 68.4l-.3.3c-.1-.1-.2-.3-.3-.4.1-.1.3-.1.4-.2.1 0 .2.1.2.3zm43.2-220.4c-.1.1-.3.1-.4.2 0-.1-.2-.3-.1-.4.1-.1.3-.1.4-.1 0 0 .1.2.1.3zm-91.8 149.2c.2.2.2.3.3.4-.2.1-.3.2-.5.4 0-.1-.1-.2-.1-.2.1-.2.2-.3.3-.6zM443.1 257c-.1.1-.2.2-.3.2-.1-.1-.1-.2-.2-.3 0 0 .1-.1.2-.1.1.1.2.1.3.2zm22.5 71.1c-.1.1-.3.1-.4.2 0-.1-.1-.3-.1-.4.1 0 .3-.1.4-.1 0 0 0 .2.1.3zm-204.2 28.3c.1.1.2.1.3.2-.1.1-.2.2-.4.2 0 0-.2-.1-.1-.1 0-.1.1-.2.2-.3zm86.4 65.9c0 .1.2.3.1.4s-.3.1-.4.2c0-.1-.1-.3-.1-.3.1-.2.3-.2.4-.3zm35-.5c-.1 0-.3.1-.4.1s-.2-.3-.1-.3c.1-.1.2-.1.4-.2.1.2.1.3.1.4zm53.2-133c.1.1.2.2.2.3 0 .1-.2.2-.3.2 0-.1-.1-.1-.1-.2s.1-.2.2-.3zm3.6 18.1c.2.1.3.2.4.2-.1.2-.2.3-.3.4-.1 0-.2-.1-.4-.2.1 0 .2-.2.3-.4zM384 420.8c-.2.1-.3.1-.5.2 0-.1-.1-.3-.1-.4.1-.1.3-.2.4-.3.1.1.1.3.2.5zm101.4-1.1c-.2 0-.4.1-.5.1s-.1-.2-.2-.4c.2-.1.4-.1.5-.2.1.1.2.2.2.5zM204 215.5h-.6c0-.1 0-.3.1-.4.1-.1.3-.1.4-.1 0 .2 0 .3.1.5zm230.4 98.8c.1.2.2.2.3.3-.2.1-.3.2-.5.3l-.1-.1c.1-.2.2-.3.3-.5zm-196.1 94c-.1.1-.2.1-.3.2 0-.1-.1-.2-.1-.3.1 0 .2-.1.4-.1v.2zm162-.4c-.1 0-.3.1-.4.1 0-.1-.1-.3-.1-.3.1-.1.2-.1.4-.2.1.2.1.3.1.4zm-190-80.9c-.1.1-.2.2-.3.2 0-.1-.1-.2-.1-.3 0 0 .1-.1.2-.1 0 .1.1.2.2.2zm121.8-1.9h-.4c0-.1.1-.2.1-.2h.4s-.1.1-.1.2zm138-159.2l.3.3c-.2.1-.3.2-.5.3l-.2-.1c.2-.1.3-.3.4-.5zm-81.2 105.7c-.1.1-.2.1-.4.2 0-.1-.1-.3-.1-.3.1-.1.2-.1.3-.2.2 0 .2.1.2.3zm-132.1 22.3c-.2.2-.3.4-.4.4s-.3-.1-.4-.1c.2-.2.3-.4.5-.6l.3.3zm232.3-73.5c-.1.1-.1.3-.2.4-.1-.1-.3-.1-.4-.2 0-.1.1-.3.1-.4.3.1.4.1.5.2zM327.2 345.7c-.1-.2-.2-.3-.2-.4.1-.1.3-.2.4-.3 0 0 .1.1.1.2s-.2.3-.3.5zm160.4-123.4c-.1.1-.1.2-.2.3-.1-.1-.1-.2-.2-.3.1-.1.2-.2.3-.2.1.1.1.2.1.2zm-180.9 49.8c-.2.1-.3.2-.5.3-.1 0-.2-.2-.2-.2l.4-.4c.1 0 .2.1.3.3zm91.9.3c.2-.3.3-.8.5-.9s.8.2.9.4c.1.3-.2.9-.4.9-.3 0-.7-.3-1-.4zm0-4c.1-.2.1-.4.3-.5.1-.1.4.1.4.2s-.1.4-.2.5c-.2 0-.4-.1-.5-.2zm41.6 28.7c-.1.1-.3.1-.4.2 0-.1-.1-.3-.1-.4.1 0 .3-.1.4-.1 0 0 .1.2.1.3zm48.6-71c-.2-.4.8-1.4 1.3-1.2.3.1.5.9.1 1.3-.5.4-1.3.2-1.4-.1zm-247.5-52.7c-.1-.1-.2-.1-.3-.2.1-.1.2-.2.3-.2 0 0 .1.1.2.1-.1 0-.1.2-.2.3zm18 .7c-.4.2-.6.3-.9.3-.1 0-.3-.2-.3-.2 0-.1.1-.3.2-.3.3-.1.4.1 1 .2zm44.9 53.7h-.6c0-.1 0-.3.1-.3.1-.1.2-.1.4-.2 0 .2 0 .3.1.5zm72.4 45.1l.3-.3c.1.1.1.2.2.3l-.1.2c-.1-.1-.2-.2-.4-.2zm108.7-44.1c-.1.1-.1.3-.2.4-.1 0-.3-.1-.4-.1.1-.1.1-.3.2-.3.1-.2.2-.1.4 0zM271.9 397.4c-.2.1-.4.1-.5.2 0-.1-.1-.3-.1-.4l.3-.3c.1.1.2.3.3.5zm167.2-95.5c-.1-.1-.2-.2-.2-.3.2-.1.3-.2.5-.3 0 .1.2.3.1.4-.1.2-.3.2-.4.2zM388 231.2c-.1-.1-.1-.2-.2-.4.2-.1.4-.2.5-.2 0 .1.1.3 0 .4 0 .1-.2.1-.3.2zm95.3-57c-.1.1-.1.3-.2.3s-.2-.1-.4-.1c.1-.1.1-.3.2-.3s.3.1.4.1zm-65.8 163.1v-.4s.1-.1.2-.1c.1.1.1.2.2.2-.2.2-.3.3-.4.3zm-143.7-24c-.1.1-.1.3-.2.4-.1 0-.3-.1-.4-.1.1-.1.1-.3.2-.4.1 0 .2.1.4.1zm227.5-132.4c-.1 0-.3 0-.4.1v-.2c.1 0 .3 0 .4-.1v.2zm-48.2 155.2c.1.1.3.1.3.2s-.1.3-.1.4c-.1-.1-.3-.1-.4-.2.1-.2.1-.3.2-.4zm-117.4 45c-.1.1-.1.3-.2.4-.1 0-.3-.1-.4-.2.1-.1.1-.3.2-.4.1 0 .3.2.4.2zm114.2-2.2c-.1.1-.1.3-.2.4-.1 0-.2-.1-.4-.1.1-.1.1-.3.2-.4.1-.1.2 0 .4.1zm-9.2-43.5c-.1.1-.2.1-.3.2 0-.1-.1-.3-.1-.4s.2-.1.3-.2c0 .2 0 .3.1.4zm-62-100.7l.2.2c-.1.1-.2.1-.3.2 0 0-.1-.1-.2-.1l.3-.3zm29.1 80.7c-.1-.1-.2-.1-.3-.2.1-.1.2-.2.3-.2 0 0 .1.1.2.1-.1.1-.2.2-.2.3zm-141.5-38.1c-.2.1-.3.3-.4.3s-.2-.1-.3-.2l.4-.4c0 .1.1.2.3.3zM254.2 335c.1 0 .1.1.2.1l-.3.3-.1-.1c0-.2.1-.2.2-.3zm223.5 40.8l-.3.6s-.2 0-.3-.1c0-.1 0-.2.1-.2.1-.1.3-.2.5-.3zm-106.4-43.5c-.1.1-.1.3-.2.4-.1 0-.2-.1-.4-.1.1-.1.1-.3.2-.4s.3 0 .4.1zm98.3-141c-.2.1-.3.3-.5.3-.1 0-.2-.3-.3-.4.2-.1.4-.2.6-.2 0-.1.1.1.2.3zm-231.9 47.1c-.1-.1-.2-.1-.3-.2 0-.1.1-.1.1-.2h.3c0 .1-.1.3-.1.4zm101.6.1c-.1 0-.2.1-.3.1v-.2c.1 0 .2-.1.3-.1v.2zm87.3 92.6l-.2.4c-.2 0-.3-.1-.5-.2.1-.1.1-.3.2-.3s.3.1.5.1zM313 453.2h-.2c0-.1.1-.2.1-.3l.1.1c.1 0 .1.1 0 .2zM427.9 324c0 .1.1.3.1.3-.1.1-.2.1-.4.2 0-.1-.1-.3-.1-.4s.2-.1.4-.1zm42.5 50.9s-.1.1-.1.2l-.2-.2c.1 0 .1-.1.2-.1l.1.1zM420 240.7c-.1-.1-.2-.1-.2-.2 0 0 0-.2.1-.2h.3c0 .1-.1.3-.2.4zm100-44v-.3l.2-.1c.1.1.1.2.2.2-.2.1-.3.1-.4.2zM225.6 374.1c-.1.1-.2.1-.4.2 0-.1-.1-.3-.1-.4.1-.1.2-.2.3-.2.1.1.2.2.2.4zM446.7 281c-.1.1-.1.3-.2.3s-.3-.1-.4-.1c.1-.1.1-.3.2-.3s.3.1.4.1zm20.7 24.5c0-.1-.1-.3-.1-.4s.2-.1.4-.2c0 .1.1.3.1.4-.1.1-.2.1-.4.2zm-173.2 8.7c-.1.1-.2.2-.2.3-.1-.1-.1-.2-.2-.3l.3-.3c0 .2 0 .2.1.3zM365 320c0 .1.1.1.1.2-.1.1-.2.1-.3.2l-.1-.1c.1-.2.2-.2.3-.3zm127-77.5c-.1.2-.2.4-.3.4-.2 0-.4-.1-.5-.2.1-.1.1-.3.2-.3.2 0 .4.1.6.1zm-179.8 87.7v.2h-.2v-.3c.1 0 .2.1.2.1zm189.7 3.4c.1 0 .1 0 .2-.1 0 .1 0 .2.1.2h-.2c-.1 0-.1-.1-.1-.1zm-18.7 2.6c-.1 0-.1 0-.2-.1.1-.1.1-.2.2-.2 0 .1.1.1.1.2 0 0-.1 0-.1.1zM348.5 120.8c0 .1-.1.1-.1.2 0-.1-.1-.1-.1-.2s.1-.1.1-.2c0 0 .1.1.1.2zM386 341.4h.1l-.1.2zm-111.6.3c-.1 0-.2.1-.3.1 0 0 0-.1-.1-.2.2.1.3.1.4.1zm11.2-.1c.1 0 .1.1.2.1-.1.1-.2.1-.3.2 0-.1-.1-.1-.1-.2.1 0 .2-.1.2-.1zm109.2 3.3c-.1 0-.2.1-.3.1v-.4s.1-.1.2-.1c0 .2 0 .3.1.4zm88.8.6v.2c-.1 0-.1 0-.2.1v-.3c.1-.1.1 0 .2 0zm-228 .8l-.1.1v-.3c0 .1 0 .2.1.2zm213.5.2c-.1.1-.2.2-.3.2-.1 0-.2-.1-.3-.2.1-.1.2-.2.3-.2.1 0 .2.1.3.2zm-8.8 1.4c0 .1 0 .2-.1.2s-.1 0-.2-.1c0-.1 0-.2.1-.2.1.1.2.1.2.1zm-29.3.5l.2-.1v.2zm-2.6 1.1c.1 0 .2 0 .2.1s0 .1-.1.2c-.1 0-.2 0-.2-.1 0 0 .1-.1.1-.2zm17.3 2.8c0 .1 0 .1-.1.2-.1-.1-.2-.1-.2-.2 0 0 .1-.1.1-.2l.2.2zm-102.4.4l.2-.1v.2zm-75 4.4c-.1 0-.2-.1-.2-.1.1-.1.1-.2.2-.4.1 0 .2.1.2.1-.1.2-.1.3-.2.4zm115.9-216.5h-.1s0-.1-.1-.2h.3c-.1.1-.1.2-.1.2zm130.1.1v-.1l.2.1zM413.1 357.4s0 .1-.1.1-.1 0-.2-.1c0 0 0-.1.1-.1 0 .1.1.1.2.1zm-6.1 2.9c0-.1-.1-.1-.1-.2.1 0 .2-.1.2-.1v.2c0 .1-.1.1-.1.1zm39.6 5.1h-.1v-.2zm-14.5 3.9v.2c-.1 0-.1 0-.2.1v-.3h.2zm-133.7 3.6c-.1 0-.1 0-.2.1 0-.1.1-.2.1-.3.1.1.1.1.1.2zm33 6c-.1.1-.1.2-.2.3l-.1-.1c0-.1.1-.2.2-.3l.1.1zm11.7 4.8c0-.1-.1-.1-.1-.2.1 0 .2-.1.2-.1v.2c.1 0 0 .1-.1.1zM414.9 161c.1 0 .1 0 .2.1-.1.1-.2.1-.2.2l-.1-.1c0-.1.1-.1.1-.2zm-33 1.1c-.1.1-.3.1-.4.1 0 0-.1-.1-.1-.2.1-.1.3-.1.4-.2 0 .1 0 .3.1.3zm61.3 229.3h.1v.2h-.3c.1-.1.2-.1.2-.2zm104.2-225.9c-.1 0-.1.1-.2.1l-.1-.1c.1 0 .1-.1.2-.1l.1.1zm-47 1.4s0-.1.1-.1h.2s0 .1-.1.1h-.2zm-115.3 1.4s0-.1.1-.1h.2s0 .1-.1.1c-.1.1-.1 0-.2 0zm8.3 231.5v.1h-.1zm-15.2 1v.1l-.2-.1zm-131.1 5.1l-.2.2c0-.1-.1-.2-.1-.4 0 0 .1-.1.1-.2 0 .2.1.3.2.4zm62.3-231.7c0-.1-.1-.1-.1-.2.1-.1.2-.1.4-.1 0 0 .1.1.1.2-.2 0-.3 0-.4.1zM305 406.7c-.1 0-.1 0-.2-.1.1-.1.1-.2.2-.2 0 .1.1.1.1.2 0 0-.1 0-.1.1zm142.5.4c-.1 0-.1.1-.2.1l-.1-.1c.1-.1.2 0 .3 0zM337.7 177.5c0-.1-.1-.1-.1-.2.1-.1.2-.1.4-.2 0 0 .1.1.1.2-.1.1-.2.1-.4.2zm-44 231.1c0 .1 0 .1-.1.2l-.2-.2.1-.1c.1 0 .2 0 .2.1zm271.5-229.8c-.1.1-.2.2-.3.2s-.2-.1-.3-.2l.1-.1c.2-.1.3 0 .5.1zm-229.1 1.4c.1-.1.2-.1.4-.2 0 0 .1.1.1.2-.1.1-.2.1-.4.2 0 0 0-.2-.1-.2zm-20.9 235.9c-.1 0-.1.1-.2.1 0-.1-.1-.2-.1-.4 0 0 .1-.1.2-.1 0 .2.1.3.1.4zm78.4 0c0-.1-.1-.1-.1-.2.1 0 .1-.1.2-.1v.2c0 .1 0 .1-.1.1zM258.3 418c0-.1-.1-.2-.1-.3 0 0 .1 0 .1-.1v.4zm92.2-229.7c0 .1-.1.1-.1.2-.1-.1-.2-.1-.3-.2.1 0 .1-.1.2-.1s.1.1.2.1zm56.2 229.2c0 .1-.1.1-.1.2-.1-.1-.2-.1-.2-.2.1 0 .1-.1.2-.1l.1.1zm18 4.4c0 .1-.1.1-.1.2v-.3l.1.1zm-14.6 3.2c-.1 0-.2.1-.3.1v-.4s.1-.1.2-.1c0 .1 0 .3.1.4zm83.3.3c0 .1 0 .1-.1.2l-.2-.2.1-.1c.1 0 .2 0 .2.1zM382.7 427c0 .1 0 .1-.1.2-.1 0-.1 0-.2-.1 0-.1 0-.2.1-.2 0 0 .1 0 .2.1zm92.4 3.8c0 .1.1.3.1.4 0 0-.1.1-.2.1 0-.1-.1-.3-.1-.4.1 0 .2 0 .2-.1zm-84.9 5.5l.1-.2.1.2zm73.6 1.9l-.1.1v-.3c.1.1.1.2.1.2zm-111.7.7c0-.1-.1-.2 0-.2h.1s0 .1-.1.2zm23.9.1c0-.1-.1-.1-.1-.2.1 0 .2-.1.3-.1 0 .1.1.2 0 .2 0 .1-.1.1-.2.1zm64.3-.6s0 .1-.1.1c0-.1-.1-.1-.1-.2.1.1.2.1.2.1zM555 199.7c-.1.1-.2.1-.3.1 0 0-.1-.1-.1-.2.1 0 .2-.1.3-.1 0 .1.1.2.1.2zM433.8 450.3l.2.1h-.2zm11.9 2.2c0 .1-.1.1-.1.2-.1-.1-.1-.2-.2-.3l.1-.1c.1.1.2.1.2.2zm34.2-246.2c.1 0 .1 0 .2-.1v.3h-.2v-.2zM438.8 463c.1 0 .2 0 .2.1s0 .1-.1.2c-.1 0-.1 0-.2-.1.1-.1.1-.1.1-.2zm65.5-252.8c.1 0 .1-.1.2-.1 0 .1 0 .2.1.3h-.2c-.1-.1-.1-.2-.1-.2zm-122.6 254h.1v.2h-.2s.1-.1.1-.2zm-31.6 2.9l-.2-.1h.2zm53.2.2l-.1.1c-.1-.1-.1-.2-.1-.4l.1-.1c0 .2.1.3.1.4zm-13.2-254.1c-.1 0-.1 0-.2-.1l.2-.2s.1.1.2.1c-.1.1-.1.2-.2.2zm-4 255.5s-.1.1-.1 0c0 0-.1-.1-.1-.2.1 0 .2 0 .3-.1-.1.2-.1.3-.1.3zM272 214.2c0-.1-.1-.2-.1-.3h.4l.1.2c-.2 0-.3.1-.4.1zm305.8 1c.1 0 .2.1.4.1-.1.1-.1.2-.2.3-.1 0-.2-.1-.4-.1.1-.1.1-.2.2-.3zm-109 .7c-.1 0-.1.1-.2.1 0-.1-.1-.2-.1-.2h.2s0 .1.1.1zm75.1.2c-.1 0-.1 0-.2-.1l.2-.2c0 .1.1.1.1.2 0 0-.1 0-.1.1zm-48.7 11.7c-.1.1-.2.3-.2.3-.1 0-.3-.1-.4-.2.1-.1.1-.2.2-.2s.2 0 .4.1zm43.6 3.8c.1 0 .2-.1.3-.1 0 0 .1.1.1.2-.1 0-.2.1-.4.1.1 0 .1-.1 0-.2zm-49.4.8c.1.1.1.2 0 .3s-.3 0-.3-.1c-.1-.1.2-.2.3-.2zm12.5-2.1c.2.1.2.5 0 .6-.2.2-.8-.1-.8-.3s.6-.5.8-.3zm5.2-9.1v.2c-.1 0-.2 0-.2-.1s.2-.2.2-.1zm-4.5 2.3c-.1 0-.1-.1-.1-.1 0-.1.2-.1.2-.1 0 .1 0 .2-.1.2zm-51.7 10.2v.2l-.1-.1zm26.5 1.2v.1c-.1 0-.1 0-.2.1v-.3c.1.1.1.1.2.1zm56.8-.1c.2-.1.6.1.6.3 0 .1-.5.3-.6.1a.3.3 0 010-.4zm33.3.9c.1 0 .1 0 .1.1s0 .1-.1.2c-.1 0-.1 0-.1-.1s.1-.2.1-.2zm-88.4 6.4l.2.1h-.2zm19.6 2s0-.1.1-.1h.2s0 .1-.1.1h-.2zm-54.6.8c.1 0 .1 0 .2-.1v.3h-.2v-.2zm51.4 3.5c-.1 0-.1 0-.2.1 0-.1 0-.2-.1-.2h.2c.1 0 .1 0 .1.1zm-68.5 2.3c0 .1-.1.2-.1.2-.1-.1-.2-.2-.2-.4 0 .1.2.1.3.2zm50.4.2c-.1-.1-.2-.1-.3-.2.1 0 .1-.1.2-.1s.2.1.3.1l-.2.2zm-155.5.8l.1-.1.1.1zm128.5 5.4c0-.1-.1-.1-.1-.2.1 0 .2-.1.4-.1l.1.1c-.1.1-.3.1-.4.2zm20.4 3.3c-.1 0-.1 0-.2-.1.1-.1.1-.2.2-.2 0 .1.1.1.1.2 0 0 0 .1-.1.1zm7 .8c-.1 0-.1.1-.2.1 0-.1-.1-.1-.1-.2h.2c.1 0 .1.1.1.1zm-21 .7l.3-.3-.3.3c-.1 0 0 0 0 0zm71.7 7.4c-.1.1-.2.2-.3.2s-.1-.1-.2-.2l.1-.1c.1 0 .3.1.4.1zm13.3-.1c0 .1.1.1.1.2-.1.1-.2.1-.4.2l-.1-.1c.2-.2.3-.3.4-.3zM471 274c.1-.1.2-.1.4-.2 0 0 .1.1.1.2-.1.1-.2.1-.4.2 0 0 0-.1-.1-.2zm40.8 4.8c.1 0 .2-.1.4-.1l.1.1c-.1 0-.2.1-.4.1 0 .1 0 0-.1-.1zm-2.6 2.1c-.1-.1-.1-.2-.2-.3.1 0 .2-.1.4-.1 0 0 .1.1.1.2-.1.1-.2.1-.3.2zm.5 3.1l.2.1-.2.1zm-126.6 1.6c-.1 0-.1 0-.2-.1l.2-.2.1.1c0 .1-.1.2-.1.2zm53 .9c0 .1.1.1.1.2s-.1.1-.1.2c-.1-.2 0-.3 0-.4zm45.6 10.7l.2.2c-.1.1-.2.1-.4.2 0 0-.1-.1-.2-.1.1-.2.3-.2.4-.3zm-128.2 3.1c-.1 0-.1.1-.2.1 0-.1-.1-.2-.1-.3h.2c0 .1 0 .2.1.2zm40.6 1.9c-.1 0-.2.1-.2.1v-.1c0-.1 0 0 .2 0zm67.1 2.1l.1-.1.1.2zm-18.3 1.2s0-.1.1-.1h.2s0 .1-.1.1c0 .1-.1 0-.2 0zm35.1.5c0-.1-.1-.2-.1-.3 0 0 .1 0 .2-.1-.1.2-.1.3-.1.4zm-114.2 4.3c-.1.1-.1.2-.2.4-.1-.1-.2-.1-.2-.1 0-.1.1-.2.2-.4.1 0 .2 0 .2.1zm113 1.7c0 .1.1.1.1.2-.1.1-.2.1-.4.2 0 0-.1-.1-.1-.2.2-.1.3-.2.4-.2zm-83.3 3.9c0 .1 0 .1.1.2h-.2s0-.1-.1-.1c0 0 .1-.1.2-.1zm10.3 1.9c0 .1-.1.1-.1.2-.1-.1-.1-.2-.2-.2.1 0 .1-.1.2-.1 0-.1 0 0 .1.1zm1.1 5.8c-.1 0-.1.1-.2.1 0-.1-.1-.2-.1-.3h.2c.1.1.1.2.1.2zm30.5.1c-.1 0-.1.1-.2.1 0-.1 0-.2-.1-.3h.2c.1.1.1.2.1.2zm-64.6 1.4c-.1-.1-.2-.2-.2-.3 0-.1.1-.2.2-.2l.1.1c0 .1 0 .2-.1.4zM488 132.2l-.1-.1h.2zm-191.9 14.7c-.1 0-.1.1-.2.1l-.1-.1c.1 0 .1-.1.2-.1 0-.1.1 0 .1.1zM561.9 171v.2l-.1-.1zm-224.8 3c-.1 0-.1.1-.2.1s-.1-.1-.1-.1c.1 0 .1-.1.2-.1 0 0 0 .1.1.1zM560 190.2l-.1.1v-.2zm-292.8 6v-.1h-.1z" class="st3_10"/></defs><style>.st3_10{fill:#5bc5dd}.st8_10{fill:#6cedfd}.st9_10{fill:#83f6ff}.st11_10{fill:#71d4ff}.st20_10{fill:#fff7cc}.st21_10{fill:#b0b9aa}.st23_10{fill:#5ecfd1}.st28_10{fill:#22567d}.st35_10{fill:#92cedc}</style><linearGradient id="SVGID_1_10" x1="346.6" x2="346.6" y1="1227.87" y2="847.28" gradientTransform="translate(0 -708)" gradientUnits="userSpaceOnUse"><stop offset="0" stop-color="#e6f1f8"/><stop offset="1" stop-color="#e6f1f8"/></linearGradient><path fill="url(#SVGID_1_10)" fill-rule="evenodd" d="M143.5 424.2c-20.4-33.3-32.4-71.1-43-103.3-10.2-32.4-18-59.1-14.5-75.9 3.1-17.3 18.9-24.7 42-30.3 22.7-6 51.6-10.8 75.4-31 52.9-33.5 89.2-94.4 147.4-117.7C406 39.4 486 55.6 542.7 99.5c112.7 85.7 61.7 201.2-18.5 339.2-40.6 67.8-94.6 117.6-177.9 106.7-81.4-8.2-164.1-54.4-202.8-121.2" clip-rule="evenodd"/><linearGradient id="SVGID_2_10" x1="166.17" x2="569.01" y1="995.37" y2="995.37" gradientTransform="translate(0 -708)" gradientUnits="userSpaceOnUse"><stop offset="0" stop-color="#4aa3dc"/><stop offset="1" stop-color="#3364a0"/></linearGradient><path fill="url(#SVGID_2_10)" fill-rule="evenodd" d="M552.8 228c9.1 30.1 11.2 62.5 13.2 90.1 1.7 27.7 2.7 50.4-2.9 63.4-5.4 13.4-18.4 16.8-36.4 17.5-17.8 1.1-39.9.2-61.1 12.5-45 18.3-82.7 61.3-129.7 70.4-45.5 12.3-101.6-13.8-135.5-58.4-67.8-87.4-9.6-171.9 74.2-269.7 42-47.8 90.8-79 150.2-56.6 58.7 20 111.4 70.8 128 130.8" clip-rule="evenodd"/><path fill="#1f2c3d" fill-rule="evenodd" d="M463.3 113.7c39.5 5.4 75.8 16.1 100.8 27.9 25.3 12 39.2 25.1 41.3 38.4 2.4 13.4-6.9 26.9-20.9 42.5-13.7 15.7-32 33.5-40 58.2-21.9 47.6-17.4 103.3-38.3 143.6-18.3 40.8-62 66-120.6 65.8-115 0-205.3-91.9-207-207 .6-57 22.1-109.3 73.9-139.8 50.1-31.3 130.6-40.8 210.8-29.6" clip-rule="evenodd"/><path d="M320.7 452.9c-.4-1-.4-1.7 0-2.3.2-.3.6-.5 1-.2.5.2.7.8.4 1.2-.3.4-.8.8-1.4 1.3zM210.6 341c-.1-.1-.4-.3-.5-.5-.2-.6.3-1.3.9-1.4.3 0 .8.4.8.7-.1.6-.5 1.1-1.2 1.2zm140-23.4c-.5-.9-.3-1.4.1-1.8.3-.3.6-.4 1-.2.4.3.5.9.1 1.2-.4.3-.8.5-1.2.8zm102.1-73.7c-.2-.3-.4-.7-.4-1s.2-.7.5-.9c.2-.1.6-.1.8 0 .2.1.2.5.2.8-.2.6-.3 1.1-1.1 1.1zm-93.2 109.9c0-.9-.1-1.3 0-1.7.1-.2.4-.4.7-.5.2-.1.5 0 .6.1s.2.4.2.6c0 .7-.6.9-1.5 1.5zm155.6-73.5c-.6 0-1.2.1-2.1.1.2-.5.2-.9.4-1 .8-.3 1.3.2 1.7.9zm-108.4 72.6c.1-.5 0-1 .2-1.5.1-.2.6-.3 1-.4.1.3.4.8.3 1-.2.4-.7.8-1 1.1-.2 0-.3-.1-.5-.2zm-87.1-109l.4-2.3c.9-.1 1.1.5 1.3 1.2-.4.3-.8.6-1.7 1.1zM267.9 278c-.4-1.1-.1-1.5.4-1.8.2-.1.5-.1.6 0s.3.5.2.6l-1.2 1.2zm111.4 32.2c0-.3-.1-.6 0-.7.1-.4.4-.7.8-.6.1 0 .3.1.3.3.2.5-.1.7-.4.9-.1 0-.3 0-.7.1zm-118.1 80.2c-.1-.1-.1-.1-.1-.2 0-1 .1-1.4.7-1.4.2 0 .5.2.5.4.2.7-.3 1-.8 1.2h-.3zm315.9-226.5c-.1.5-1 .8-1.3.4-.1-.1-.1-.3-.1-.4.2-.5.7-.6 1.2-.4.1.1.1.3.2.4zM485 234.2c-.3-.1-.5-.2-.9-.3.5-.7.8-1.3 1.9-.9-.5.5-.8.9-1 1.2zm-.1.1c.1.1.3.1.4.2.2.2.4.5.4.7-.1.2-.4.4-.7.5-.3.1-.6-.1-.8-.1-.2-.8.4-1 .7-1.3zm-30.5 169.2c-.2-.4-.4-.6-.4-.7.1-.3.4-.5.6-.8.2.2.5.5.5.6-.1.3-.4.6-.7.9zm-32.8-265c.3-.3.5-.6.8-.9.1-.1.5.1.6.2.1.2.1.5 0 .6-.3.2-.7.3-1 .5-.2-.1-.3-.2-.4-.4zm-59.4 224.2c.1.1.2.2.3.4.1.5.2.9-.4 1.1-.1 0-.3 0-.4-.1-.4-.4-.2-.8.2-1.2 0-.2.1-.2.3-.2zm26.1-35.5c.3.2.6.4.5.5-.1.3-.2.5-.4.7-.1.1-.4-.1-.6-.2.2-.3.3-.6.5-1zm52.2-34.3c.1.3.2.5.2.7-.1.3-.2.5-.4.7 0 0-.3 0-.4-.1-.3-.3-.3-.7 0-1 .1-.1.3-.2.6-.3zm14.4-52.1c.2.3.6.5.5.7 0 .2-.3.4-.5.6-.1-.2-.4-.4-.4-.7 0-.1.2-.3.4-.6zM429.3 271c.2.4.4.7.6 1.1 0 0-.2.2-.3.2-.4 0-.8-.5-.7-.9-.1-.2.1-.2.4-.4zm-8.3-11.2c.4 0 .8-.1 1.2-.1 0 0 .1.3.1.4-.1.4-.8.5-1.1.3-.1-.1-.1-.2-.2-.6zm1.8-11.7c.4 0 .8-.1 1.2-.1 0 0 .1.3.1.4-.1.4-.8.5-1.1.3-.1 0-.1-.2-.2-.6zm65-10c-.7.1-1.1-.1-1.3-1 .8 0 1.3.2 1.3 1zm-37.2 67.7c-.1-.2-.2-.5-.1-.7s.4-.4.7-.5c0 0 .3.2.3.3 0 .2-.1.5-.2.6-.2.2-.5.2-.7.3 0-.1 0 0 0 0zm-227.5 81.7c.2 0 .3 0 .4.1l.6.6c-.2.1-.3.3-.5.4-.2-.2-.4-.5-.5-.7-.1-.1-.1-.2 0-.4zM512 246c0 .6-.3.7-.7.8-.1 0-.3-.1-.4-.2-.2-.3.2-.8.6-.8.2-.1.4.1.5.2zm15.1-96.2c.2.3.4.4.5.6-.2.2-.4.4-.7.5-.1 0-.3-.2-.4-.4.2-.2.4-.4.6-.7zm-95.8-32.3l-1 .3s-.2-.2-.2-.4c0-.4.5-.6.9-.5.1.1.1.3.3.6zm8.2 286.9c-.2-.4-.4-.6-.4-.7.1-.2.4-.4.6-.6.1.2.4.4.3.5.1.3-.2.5-.5.8zm-170.1-136c-.5.2-.8.3-1.1.5-.1-.1-.2-.3-.2-.4l.6-.6c.2-.1.4.2.7.5zm259.4-34.5l-1 .3s-.2-.3-.1-.4c.1-.4.6-.6.9-.4 0 0 0 .2.2.5zm-71.7 144.5c-.2.2-.4.4-.6.4-.1 0-.4-.3-.4-.4 0-.2.3-.4.4-.4.2 0 .3.3.6.4zm13.6-144.8c-.9.3-1.2.6-1.4.5-.2-.1-.3-.4-.5-.6.3-.1.5-.2.8-.2.3 0 .5.1 1.1.3zm-176.5 31.7l.4.4c-.2.2-.3.4-.5.6-.1-.1-.4-.3-.4-.4.1-.3.3-.4.5-.6zm-58.8 126.2c.3-.2.5-.4.7-.6.1.2.3.3.3.5s-.2.4-.4.5c-.1 0-.3-.2-.6-.4zm109.8-8.3c-.2.1-.3.3-.5.4-.1-.2-.2-.3-.4-.5.2-.1.3-.3.5-.3.1 0 .2.2.4.4zM298 177.7c-.2-.2-.3-.3-.5-.4.1-.2.3-.4.4-.4s.3.2.5.3c-.1.1-.2.3-.4.5zm131.3 153.4c-.5.3-.7.5-.9.5-.1 0-.3-.3-.3-.4 0-.2.3-.3.4-.4.3 0 .5.1.8.3zM500.8 214c.3-.2.4-.4.6-.4.1 0 .3.2.5.4-.2.1-.3.3-.5.4-.1-.1-.3-.3-.6-.4zM331.6 346.2c-.3-.3-.5-.4-.5-.6s.2-.4.3-.5c.1-.1.5.1.5.2 0 .3-.1.5-.3.9zm17.6 55.1c-.2.2-.4.4-.6.4-.1 0-.3-.2-.4-.4.2-.1.3-.4.5-.4.1 0 .3.3.5.4zm-96.4-80.5c-.2.1-.5.3-.7.4l-.2-.3c.2-.2.4-.4.6-.5.1 0 .1.2.3.4zm77.4-61.2c-.2-.2-.3-.3-.5-.3l.6-.6c.1.1.4.3.4.4-.1.2-.3.3-.5.5zM436 345.3c-.2-.3-.4-.5-.3-.7s.3-.4.5-.6c.1.2.3.3.3.5 0 .3-.2.4-.5.8zm34.2-.7c-.2-.4-.3-.6-.3-.8 0-.2.2-.4.4-.5.1 0 .4.2.4.3 0 .3-.2.5-.5 1zm27.7-162.8c-.2.1-.4.3-.5.3s-.2-.3-.3-.5c.2-.1.4-.2.6-.2 0 0 .1.3.2.4zm-37 36c.2-.7.6-.8 1.3-.4-.5.2-.9.3-1.3.4zm3.9 220.8c-.1-.3-.3-.5-.2-.6.1-.2.3-.3.5-.4.1.2.3.4.3.5-.1.2-.4.3-.6.5z" class="st3_10"/><use class="st3_10" xlink:href="#reuse-0"/><use class="st3_10" xlink:href="#reuse-1"/><path d="M197.5 260.9l.3-.3c.3.3.1.4-.1.5l-.2-.2zm121.1 159.6l-.1.2.1-.1zm-75.4-162.1c-.1 0-.1.1-.2.1s-.1-.1-.1-.2c.1 0 .1-.1.2-.1 0 0 .1.1.1.2zm15.7 176.2l-.1.1v-.1zm168.2 0l-.1.1v-.1zM284.2 255l-.2.1v-.2zm-7.6 181.6l-.1.1c0-.1-.1-.1-.1-.2l.1-.1c0 .1.1.1.1.2zm197 .9l.2-.1v.2zm-11.7-185.4l-.1.1v-.1zm-131.7 71.1v-.1h.1zm4.3 127.6h.1v.1zm11.9 0h.1v.1zm10.1-108.2v.1h-.1zm132-97.5l-.1-.2.2.1zm-25.6 209.1l-.1.1-.1-.1.1-.1s0 .1.1.1zm-.3 3.3h.2l-.1.1zm42.5-216.8l.1-.1v.2zm-95.7 76.1v.2h-.1zm22.4-22.6l-.1-.2.1.1zM331.2 470.8l.1.1h-.1zm92.1.1l-.2.2c-.1-.1-.1-.1-.1-.2s.1-.1.2-.2c0 .1.1.1.1.2zm-78.5-231.8zm0 0l.1-.1-.1.1zm82.7 69.6v.2h-.1zm9.3-17.7l-.1-.1.1.1zM548 231.9l.2.4h-.4zM320.7 452.9c-.4-1-.4-1.7 0-2.3.2-.3.6-.5 1-.2.5.2.7.8.4 1.2-.3.4-.8.8-1.4 1.3zM210.6 341c-.1-.1-.4-.3-.5-.5-.2-.6.3-1.3.9-1.4.3 0 .8.4.8.7-.1.6-.5 1.1-1.2 1.2zm140-23.4c-.5-.9-.3-1.4.1-1.8.3-.3.6-.4 1-.2.4.3.5.9.1 1.2-.4.3-.8.5-1.2.8zm102.1-73.7c-.2-.3-.4-.7-.4-1s.2-.7.5-.9c.2-.1.6-.1.8 0 .2.1.2.5.2.8-.2.6-.3 1.1-1.1 1.1zm-93.2 109.9c0-.9-.1-1.3 0-1.7.1-.2.4-.4.7-.5.2-.1.5 0 .6.1s.2.4.2.6c0 .7-.6.9-1.5 1.5zm155.6-73.5c-.6 0-1.2.1-2.1.1.2-.5.2-.9.4-1 .8-.3 1.3.2 1.7.9zm-108.4 72.6c.1-.5 0-1 .2-1.5.1-.2.6-.3 1-.4.1.3.4.8.3 1-.2.4-.7.8-1 1.1-.2 0-.3-.1-.5-.2zm-87.1-109l.4-2.3c.9-.1 1.1.5 1.3 1.2-.4.3-.8.6-1.7 1.1zM267.9 278c-.4-1.1-.1-1.5.4-1.8.2-.1.5-.1.6 0s.3.5.2.6l-1.2 1.2zm111.4 32.2c0-.3-.1-.6 0-.7.1-.4.4-.7.8-.6.1 0 .3.1.3.3.2.5-.1.7-.4.9-.1 0-.3 0-.7.1zm-118.1 80.2c-.1-.1-.1-.1-.1-.2 0-1 .1-1.4.7-1.4.2 0 .5.2.5.4.2.7-.3 1-.8 1.2h-.3zm315.9-226.5c-.1.5-1 .8-1.3.4-.1-.1-.1-.3-.1-.4.2-.5.7-.6 1.2-.4.1.1.1.3.2.4zM485 234.2c-.3-.1-.5-.2-.9-.3.5-.7.8-1.3 1.9-.9-.5.5-.8.9-1 1.2zm-.1.1c.1.1.3.1.4.2.2.2.4.5.4.7-.1.2-.4.4-.7.5-.3.1-.6-.1-.8-.1-.2-.8.4-1 .7-1.3zm-30.5 169.2c-.2-.4-.4-.6-.4-.7.1-.3.4-.5.6-.8.2.2.5.5.5.6-.1.3-.4.6-.7.9zm-32.8-265c.3-.3.5-.6.8-.9.1-.1.5.1.6.2.1.2.1.5 0 .6-.3.2-.7.3-1 .5-.2-.1-.3-.2-.4-.4zm-59.4 224.2c.1.1.2.2.3.4.1.5.2.9-.4 1.1-.1 0-.3 0-.4-.1-.4-.4-.2-.8.2-1.2 0-.2.1-.2.3-.2zm26.1-35.5c.3.2.6.4.5.5-.1.3-.2.5-.4.7-.1.1-.4-.1-.6-.2.2-.3.3-.6.5-1zm52.2-34.3c.1.3.2.5.2.7-.1.3-.2.5-.4.7 0 0-.3 0-.4-.1-.3-.3-.3-.7 0-1 .1-.1.3-.2.6-.3zm14.4-52.1c.2.3.6.5.5.7 0 .2-.3.4-.5.6-.1-.2-.4-.4-.4-.7 0-.1.2-.3.4-.6zM429.3 271c.2.4.4.7.6 1.1 0 0-.2.2-.3.2-.4 0-.8-.5-.7-.9-.1-.2.1-.2.4-.4zm-8.3-11.2c.4 0 .8-.1 1.2-.1 0 0 .1.3.1.4-.1.4-.8.5-1.1.3-.1-.1-.1-.2-.2-.6zm1.8-11.7c.4 0 .8-.1 1.2-.1 0 0 .1.3.1.4-.1.4-.8.5-1.1.3-.1 0-.1-.2-.2-.6zm65-10c-.7.1-1.1-.1-1.3-1 .8 0 1.3.2 1.3 1zm-37.2 67.7c-.1-.2-.2-.5-.1-.7s.4-.4.7-.5c0 0 .3.2.3.3 0 .2-.1.5-.2.6-.2.2-.5.2-.7.3 0-.1 0 0 0 0zm-227.5 81.7c.2 0 .3 0 .4.1l.6.6c-.2.1-.3.3-.5.4-.2-.2-.4-.5-.5-.7-.1-.1-.1-.2 0-.4zM512 246c0 .6-.3.7-.7.8-.1 0-.3-.1-.4-.2-.2-.3.2-.8.6-.8.2-.1.4.1.5.2zm15.1-96.2c.2.3.4.4.5.6-.2.2-.4.4-.7.5-.1 0-.3-.2-.4-.4.2-.2.4-.4.6-.7zm-95.8-32.3l-1 .3s-.2-.2-.2-.4c0-.4.5-.6.9-.5.1.1.1.3.3.6zm8.2 286.9c-.2-.4-.4-.6-.4-.7.1-.2.4-.4.6-.6.1.2.4.4.3.5.1.3-.2.5-.5.8zm-170.1-136c-.5.2-.8.3-1.1.5-.1-.1-.2-.3-.2-.4l.6-.6c.2-.1.4.2.7.5zm259.4-34.5l-1 .3s-.2-.3-.1-.4c.1-.4.6-.6.9-.4 0 0 0 .2.2.5zm-71.7 144.5c-.2.2-.4.4-.6.4-.1 0-.4-.3-.4-.4 0-.2.3-.4.4-.4.2 0 .3.3.6.4zm13.6-144.8c-.9.3-1.2.6-1.4.5-.2-.1-.3-.4-.5-.6.3-.1.5-.2.8-.2.3 0 .5.1 1.1.3zm-176.5 31.7l.4.4c-.2.2-.3.4-.5.6-.1-.1-.4-.3-.4-.4.1-.3.3-.4.5-.6zm-58.8 126.2c.3-.2.5-.4.7-.6.1.2.3.3.3.5s-.2.4-.4.5c-.1 0-.3-.2-.6-.4zm109.8-8.3c-.2.1-.3.3-.5.4-.1-.2-.2-.3-.4-.5.2-.1.3-.3.5-.3.1 0 .2.2.4.4zM298 177.7c-.2-.2-.3-.3-.5-.4.1-.2.3-.4.4-.4s.3.2.5.3c-.1.1-.2.3-.4.5zm131.3 153.4c-.5.3-.7.5-.9.5-.1 0-.3-.3-.3-.4 0-.2.3-.3.4-.4.3 0 .5.1.8.3zM500.8 214c.3-.2.4-.4.6-.4.1 0 .3.2.5.4-.2.1-.3.3-.5.4-.1-.1-.3-.3-.6-.4zM331.6 346.2c-.3-.3-.5-.4-.5-.6s.2-.4.3-.5c.1-.1.5.1.5.2 0 .3-.1.5-.3.9zm17.6 55.1c-.2.2-.4.4-.6.4-.1 0-.3-.2-.4-.4.2-.1.3-.4.5-.4.1 0 .3.3.5.4zm-96.4-80.5c-.2.1-.5.3-.7.4l-.2-.3c.2-.2.4-.4.6-.5.1 0 .1.2.3.4zm77.4-61.2c-.2-.2-.3-.3-.5-.3l.6-.6c.1.1.4.3.4.4-.1.2-.3.3-.5.5zM436 345.3c-.2-.3-.4-.5-.3-.7s.3-.4.5-.6c.1.2.3.3.3.5 0 .3-.2.4-.5.8zm34.2-.7c-.2-.4-.3-.6-.3-.8 0-.2.2-.4.4-.5.1 0 .4.2.4.3 0 .3-.2.5-.5 1zm27.7-162.8c-.2.1-.4.3-.5.3s-.2-.3-.3-.5c.2-.1.4-.2.6-.2 0 0 .1.3.2.4zm-37 36c.2-.7.6-.8 1.3-.4-.5.2-.9.3-1.3.4zm3.9 220.8c-.1-.3-.3-.5-.2-.6.1-.2.3-.3.5-.4.1.2.3.4.3.5-.1.2-.4.3-.6.5z" class="st3_10"/><use class="st3_10" xlink:href="#reuse-0"/><use class="st3_10" xlink:href="#reuse-1"/><path d="M197.5 260.9l.3-.3c.3.3.1.4-.1.5l-.2-.2zm121.1 159.6l-.1.2.1-.1zm-75.4-162.1c-.1 0-.1.1-.2.1s-.1-.1-.1-.2c.1 0 .1-.1.2-.1 0 0 .1.1.1.2zm15.7 176.2l-.1.1v-.1zm168.2 0l-.1.1v-.1zM284.2 255l-.2.1v-.2zm-7.6 181.6l-.1.1c0-.1-.1-.1-.1-.2l.1-.1c0 .1.1.1.1.2zm197 .9l.2-.1v.2zm-11.7-185.4l-.1.1v-.1zm-131.7 71.1v-.1h.1zm4.3 127.6h.1v.1zm11.9 0h.1v.1zm10.1-108.2v.1h-.1zm132-97.5l-.1-.2.2.1zm-25.6 209.1l-.1.1-.1-.1.1-.1s0 .1.1.1zm-.3 3.3h.2l-.1.1zm42.5-216.8l.1-.1v.2zm-95.7 76.1v.2h-.1zm22.4-22.6l-.1-.2.1.1zM331.2 470.8l.1.1h-.1zm92.1.1l-.2.2c-.1-.1-.1-.1-.1-.2s.1-.1.2-.2c0 .1.1.1.1.2zm-78.5-231.8zm0 0l.1-.1-.1.1zm82.7 69.6v.2h-.1zm9.3-17.7l-.1-.1.1.1zM548 231.9l.2.4h-.4z" class="st3_10"/><g><linearGradient id="SVGID_3_10" x1="197.53" x2="183.79" y1="-235.53" y2="-243.32" gradientTransform="matrix(1 0 0 -1 0 -64.4)" gradientUnits="userSpaceOnUse"><stop offset="0" stop-color="#2bb1e9"/><stop offset="1" stop-color="#2295d1"/></linearGradient><path fill="url(#SVGID_3_10)" d="M171.8 140c16.6 3.2 33.2 6.3 49.8 9.5 5.6 4.5 11.3 9 17 13.5-12.6 17.4-25.3 34.6-37.8 52-9.5-24.9-19.2-49.9-29-75z"/><linearGradient id="SVGID_4_10" x1="211.18" x2="183.2" y1="-188.54" y2="-229.53" gradientTransform="matrix(1 0 0 -1 0 -64.4)" gradientUnits="userSpaceOnUse"><stop offset="0" stop-color="#33beff"/><stop offset="1" stop-color="#6deefe"/></linearGradient><path fill="url(#SVGID_4_10)" d="M171.8 140c10.9 11.9 21.9 23.7 32.8 35.6 5.7-8.7 11.3-17.5 17-26.2-16.6-2.9-33.1-6.1-49.8-9.4z"/><linearGradient id="SVGID_5_10" x1="224.77" x2="212.46" y1="-223.43" y2="-229.38" gradientTransform="matrix(1 0 0 -1 0 -64.4)" gradientUnits="userSpaceOnUse"><stop offset="0" stop-color="#33beff"/><stop offset="1" stop-color="#6deefe"/></linearGradient><path fill="url(#SVGID_5_10)" d="M204.6 175.8c11.3-4.3 22.6-8.4 34-12.6-5.6-4.5-11.3-9-17-13.5-5.7 8.6-11.3 17.3-17 26.1z"/><linearGradient id="SVGID_6_10" x1="227.76" x2="212.03" y1="-215" y2="-263.11" gradientTransform="matrix(1 0 0 -1 0 -64.4)" gradientUnits="userSpaceOnUse"><stop offset="0" stop-color="#36abea"/><stop offset="1" stop-color="#48cff2"/></linearGradient><path fill="url(#SVGID_6_10)" d="M204.6 175.8c-1.2 13.1-2.6 26.2-3.8 39.3 12.6-17.4 25.1-34.6 37.8-52-11.4 4.3-22.7 8.4-34 12.7z"/><path d="M238.6 163.1c-.1-.1-.1-.1 0 0-11.7 3.9-23.1 7.9-34.6 12 .1.2.4.4.6.6 11.3-4.2 22.6-8.3 34-12.6z" class="st8_10"/><path d="M204.6 175.8c-19.2-20.6-28.8-31-28.7-31.1s9.8 10 29.1 30.1c0 .3-.1.6-.4 1z" class="st9_10"/><linearGradient id="SVGID_7_10" x1="226.81" x2="221.06" y1="-209.15" y2="-236.38" gradientTransform="matrix(1 0 0 -1 0 -64.4)" gradientUnits="userSpaceOnUse"><stop offset="0" stop-color="#6cedfd"/><stop offset="1" stop-color="#b1f5fd"/></linearGradient><path fill="url(#SVGID_7_10)" d="M221.6 149.5c-5.7 8.7-11.3 17.5-17 26.2 11.3-4.3 22.6-8.4 34-12.6-5.7-4.5-11.3-9-17-13.6z"/><path d="M200.9 215.1c2.3-26.2 3.6-39.3 3.8-39.3.1 0-.9 12.6-2.8 38-.3.3-.7.8-1 1.3z" class="st11_10"/></g><g><linearGradient id="SVGID_8_10" x1="135.83" x2="130.27" y1="-394.76" y2="-397.91" gradientTransform="matrix(1 0 0 -1 0 -64.4)" gradientUnits="userSpaceOnUse"><stop offset="0" stop-color="#2bb1e9"/><stop offset="1" stop-color="#2295d1"/></linearGradient><path fill="url(#SVGID_8_10)" d="M125.4 317.8c6.7 1.3 13.4 2.5 20.1 3.8 2.3 1.8 4.6 3.7 6.9 5.5l-15.3 21c-3.8-10.1-7.8-20.2-11.7-30.3z"/><linearGradient id="SVGID_9_10" x1="141.38" x2="130.06" y1="-375.74" y2="-392.32" gradientTransform="matrix(1 0 0 -1 0 -64.4)" gradientUnits="userSpaceOnUse"><stop offset="0" stop-color="#33beff"/><stop offset="1" stop-color="#6deefe"/></linearGradient><path fill="url(#SVGID_9_10)" d="M125.4 317.8c4.4 4.8 8.8 9.6 13.3 14.4 2.3-3.5 4.6-7.1 6.9-10.6-6.8-1.3-13.5-2.6-20.2-3.8z"/><linearGradient id="SVGID_10_10" x1="146.81" x2="141.83" y1="-389.79" y2="-392.19" gradientTransform="matrix(1 0 0 -1 0 -64.4)" gradientUnits="userSpaceOnUse"><stop offset="0" stop-color="#33beff"/><stop offset="1" stop-color="#6deefe"/></linearGradient><path fill="url(#SVGID_10_10)" d="M138.7 332.2c4.6-1.7 9.2-3.4 13.7-5.1-2.3-1.8-4.6-3.7-6.9-5.5-2.2 3.5-4.5 7-6.8 10.6z"/><linearGradient id="SVGID_11_10" x1="148.09" x2="141.73" y1="-386.43" y2="-405.89" gradientTransform="matrix(1 0 0 -1 0 -64.4)" gradientUnits="userSpaceOnUse"><stop offset="0" stop-color="#36abea"/><stop offset="1" stop-color="#48cff2"/></linearGradient><path fill="url(#SVGID_11_10)" d="M138.7 332.2l-1.5 15.9 15.3-21c-4.7 1.7-9.2 3.4-13.8 5.1z"/><path d="M152.4 327.1c0-.1 0-.1 0 0-4.7 1.6-9.3 3.2-14 4.8.1.1.2.2.2.3 4.7-1.7 9.2-3.4 13.8-5.1z" class="st8_10"/><path d="M138.7 332.2c-7.8-8.3-11.6-12.5-11.6-12.6 0 0 4 4 11.8 12.2-.1.1-.1.3-.2.4z" class="st9_10"/><linearGradient id="SVGID_12_10" x1="147.66" x2="145.34" y1="-384.04" y2="-395.06" gradientTransform="matrix(1 0 0 -1 0 -64.4)" gradientUnits="userSpaceOnUse"><stop offset="0" stop-color="#6cedfd"/><stop offset="1" stop-color="#b1f5fd"/></linearGradient><path fill="url(#SVGID_12_10)" d="M145.6 321.6c-2.3 3.5-4.6 7.1-6.9 10.6 4.6-1.7 9.2-3.4 13.7-5.1-2.3-1.9-4.5-3.7-6.8-5.5z"/><path d="M137.1 348.1l1.5-15.9s-.3 5.1-1.1 15.4c-.1.1-.2.3-.4.5z" class="st11_10"/></g><g><linearGradient id="SVGID_13_10" x1="215.81" x2="271.64" y1="28.19" y2="-111.38" gradientTransform="matrix(1 0 0 -1 0 292)" gradientUnits="userSpaceOnUse"><stop offset=".24" stop-color="#fff7cc"/><stop offset=".29" stop-color="#fff2cf"/><stop offset=".35" stop-color="#fee5d7"/><stop offset=".42" stop-color="#fdcee4"/><stop offset=".45" stop-color="#fcbdee"/><stop offset=".46" stop-color="#f9bdee"/><stop offset=".55" stop-color="#cabef5"/><stop offset=".59" stop-color="#b7bef7"/><stop offset=".64" stop-color="#b7c2f6"/><stop offset=".69" stop-color="#b6cff4"/><stop offset=".75" stop-color="#b4e5f1"/><stop offset=".75" stop-color="#b4e6f1"/></linearGradient><path fill="url(#SVGID_13_10)" d="M253.9 415.4c-9.2-56.4-3-115.9 15.8-169.7-15.6 3.4-28.4 14.8-36.3 28.2-7.9 13.5-11.4 28.8-13.9 44.1-4.4 27.3-5.7 55.1-3.9 82.7.5 7.4 1.2 15.1 2.8 22.4a114 114 0 0135.5-7.7z"/><linearGradient id="SVGID_14_10" x1="224.63" x2="231.47" y1="8.69" y2="-26.29" gradientTransform="matrix(1 0 0 -1 0 292)" gradientUnits="userSpaceOnUse"><stop offset=".39" stop-color="#22567d"/><stop offset="1" stop-color="#131f49"/></linearGradient><path fill="url(#SVGID_14_10)" d="M237 280.9c-2.5 11.8-5.4 24-7.9 35.7a87.4 87.4 0 00-10 4.1c.2-.9.3-1.8.4-2.7 1.9-11.8 4.4-23.6 9.1-34.6 2.7-1.2 5.6-2 8.4-2.5z"/><linearGradient id="SVGID_15_10" x1="175.93" x2="219.07" y1="-166.21" y2="-166.21" gradientTransform="matrix(1.0347 -.0469 -.0453 -.999 29.71 283.68)" gradientUnits="userSpaceOnUse"><stop offset=".39" stop-color="#22567d"/><stop offset="1" stop-color="#131f49"/></linearGradient><path fill="url(#SVGID_15_10)" d="M246.8 464.7c6.1.3 12.9-1.5 18.1-4.6a298.6 298.6 0 01-10.9-44.8c-12.2.7-24.2 3.3-35.5 7.8 1.2 5.2 2.8 10.3 5.2 15a68.9 68.9 0 0023.1 26.6z"/><path d="M231.6 343.4c3.1-30 10-60.2 24.7-87.1 1.1-2.1 2.5-3.7 4-5-9.8 4.7-18.5 12.9-24.8 23.7-8 13.7-11.4 29.6-13.6 43.3-4.4 27.1-5.7 54.8-3.9 82.2.4 6.3 1 12.9 2.2 19.4 4-1.5 8.1-2.7 12.2-3.7-3.5-24-3.2-48.5-.8-72.8z" class="st20_10"/><path d="M220.6 425.2c4 13.9 12.7 26.5 24.5 35.3.9-.2 2.1-.7 2.7-1.7-3.3-5.9-5.7-12.5-8.3-19 1.2 1.3 5.9-1.9 4.7-4.2-2.2-5.2-3.3-10.4-4.4-16.2-6.5 1-15.2 3.6-19.2 5.8z" class="st21_10"/><linearGradient id="SVGID_16_10" x1="174.23" x2="208.46" y1="-104.83" y2="-104.83" gradientTransform="matrix(1.0347 -.0469 -.0453 -.999 29.71 283.68)" gradientUnits="userSpaceOnUse"><stop offset="0" stop-color="#fd1013"/><stop offset=".48" stop-color="#ea23bd"/><stop offset=".68" stop-color="#3f3ccf"/><stop offset=".74" stop-color="#4159cd"/><stop offset=".86" stop-color="#45a4c6"/><stop offset=".86" stop-color="#45a7c6"/></linearGradient><path fill="url(#SVGID_16_10)" d="M230.9 374.3a53.9 53.9 0 00-16.1 6c0 1.9.1 3.9.1 5.8 10.5-6.3 23.6-8.2 35.3-5.3l-.3-7c-6.3-.9-12.8-.8-19 .5z"/><path d="M422.4 176c19.9 4.2 36.7 18.9 45.8 37.1 9.1 18.2 10.4 39.9 4.7 59.4-8.2.9-16.1 2.7-24.4 1.6-8.2-1.1-16.4-4.6-21.7-11-5.4-6.6-7.1-15.4-8-23.9-2.3-20.6-.3-42.9 3.6-63.2z" class="st23_10"/><linearGradient id="SVGID_17_10" x1="144.1" x2="403.73" y1="68.1" y2="68.1" gradientTransform="matrix(1 0 0 -1 0 292)" gradientUnits="userSpaceOnUse"><stop offset=".24" stop-color="#fff7cc"/><stop offset=".29" stop-color="#fff2cf"/><stop offset=".35" stop-color="#fee5d7"/><stop offset=".42" stop-color="#fdcee4"/><stop offset=".45" stop-color="#fcbdee"/><stop offset=".46" stop-color="#f9bdee"/><stop offset=".55" stop-color="#cabef5"/><stop offset=".59" stop-color="#b7bef7"/><stop offset=".64" stop-color="#b7c2f6"/><stop offset=".69" stop-color="#b6cff4"/><stop offset=".75" stop-color="#b4e5f1"/><stop offset=".75" stop-color="#b4e6f1"/></linearGradient><path fill="url(#SVGID_17_10)" d="M453.1 269.1c3.4-14.5 6.9-29.3 6.2-44.2-.7-14.9-6.2-30.3-17.8-39.7-11.3-9.1-26.6-11.4-41-12.6-20.5-1.6-41.2-1.7-61.8-.1-11.7.9-23.5 2.3-34.7 6-11.2 3.6-21.8 9.6-29.6 18.5-8.1 9.3-12.7 21.3-14.9 33.4-2.2 12.2-2.2 24.6-2.2 36.9 64.8 10.5 131.1 13.1 195.8 1.8z"/><path d="M427.5 226.7c.3-1.2.9-2.8 1.2-4 1.2-4.8 1.7-9.8 1.7-14.8 0-10.1-2.6-20.1-7.1-29.1-.5-1.1-1.1-2.1-1.7-3.1-6.9-1.8-14.1-2.6-21.2-3.2-20.5-1.6-41.2-1.7-61.8-.1-7.3.6-14.7 1.3-21.9 2.7-14.5 17.9-17.5 42.4-17.4 64.8 0 1.4.3 2.8.5 4.2-4.1 2.2-8.6 4.6-12.6 6.9a81 81 0 0013.5 22.1c30.1 3.1 60.4 4.2 90.5 2.8 10.7-5.4 20.9-11.6 30.7-18.6 4.5-3.3 9-6.7 14-9.3s10.5-4.3 16.1-4c.8-1.1 1.1-1.7 1.4-3.1-7.6-6.3-16.3-12.4-25.9-14.2z" class="st23_10"/><linearGradient id="SVGID_18_10" x1="235.97" x2="366.24" y1="-12.79" y2="-125.49" gradientTransform="matrix(1 0 0 -1 0 292)" gradientUnits="userSpaceOnUse"><stop offset=".24" stop-color="#fff7cc"/><stop offset=".29" stop-color="#fff2cf"/><stop offset=".35" stop-color="#fee5d7"/><stop offset=".42" stop-color="#fdcee4"/><stop offset=".45" stop-color="#fcbdee"/><stop offset=".46" stop-color="#f9bdee"/><stop offset=".55" stop-color="#cabef5"/><stop offset=".59" stop-color="#b7bef7"/><stop offset=".64" stop-color="#b7c2f6"/><stop offset=".69" stop-color="#b6cff4"/><stop offset=".75" stop-color="#b4e5f1"/><stop offset=".75" stop-color="#b4e6f1"/></linearGradient><path fill="url(#SVGID_18_10)" d="M456.6 254.1c-2.1-11-14.8-20.2-24.5-23.9-11.1-4.3-24.9-4.5-36.8-4.9-49.6-1.9-108.8 6.6-145.2 29.5-11.5 93.4 1.1 189.5 36.8 276.6.7 1.7.4 3.8.8 5.5-12.9 8.8-22.6 22.4-27 37.4 30.9 2.6 64.9 2.3 100.8 0 .2-17.4-2.3-35.6-7.9-52.1-2.1-1.7-4.3-3.4-6.4-5.1-4.7-25.5-5.9-51.1-3.5-76.8a64 64 0 0121.2 17.5c2.1.6 13.1 47.7 16.4 70.3-1 15.3-1.4 31.6-1.8 46.8 26.8 4.4 54.6 4.1 81.3-.8-.1-19.6-2.8-38.6-8.2-57.4l-1-6.2c-.9-15.1-1.9-30.3-3-45.4-1.5-21.4-4.1-43.1-4.1-64.5.1-22.4 1-44.9 2.9-67.3 1.9-22.5 5.3-44.7 8.6-67 .5-3.6 1.1-7.2.7-10.8.1-.6 0-1-.1-1.4z"/><path d="M266.1 570.7c5 .4 10.2.7 15.6.9 5.8-11.7 14.3-19.8 23.9-29.2.8-.8 1.6-1.6 2.4-2.5 0-.1.1-.1.1-.2.1-.4.2-.6.2-.7.7-7.6.3-15.5.1-23-1.2-38.6-7.7-76.5-2.8-115.2 4.5-36.3 10.1-70.7 30.8-101.8 18.6-27.9 42.7-51.1 70.6-69.4-3-.2-6.1-.3-9-.4l-2.8-.1c-4.5-.2-9.1-.3-13.7-.3-51.1 0-98.6 10.5-127.7 28.2-11.1 92.8 1.6 187.1 36.7 272.8.6 1.6.8 3.2.8 4.5 0 .6.1 1.2.2 1.7l.5 2.6-2 1.4a64.99 64.99 0 00-23.9 30.7zm117.4.8c9.4 1.4 18.9 2.2 28.5 2.4-3.1-24.1-8-49.7-17.8-74.2-1-2.6-5-11.2-7.9-16.4-1.5-2.6-3.1-5.1-4.8-7.6-.5-.6-.8-1.1-1.1-1.4-.6-.7-1.1-1.4-1.7-2.1-2.6-3.2-5.3-6.5-7.8-9.7 1.3 4.3 3 10.9 5.4 21.2 3 12.9 6.9 31.1 8.7 43.7l.1.4v.4c-.8 14.1-1.2 28.9-1.6 43.3z" class="st20_10"/><linearGradient id="SVGID_19_10" x1="377.08" x2="458.82" y1="-108.81" y2="-108.81" gradientTransform="matrix(1 0 0 -1 0 292)" gradientUnits="userSpaceOnUse"><stop offset="0" stop-color="#a2b5e2"/><stop offset="1" stop-color="#86cbdc"/></linearGradient><path fill="url(#SVGID_19_10)" d="M450.8 517.1l-1-6.6c-.8-13.7-1.8-28.5-3-45.4-.4-6.5-1-13.1-1.5-19.5-1.3-14.8-2.6-30.2-2.5-45.2.1-22.4 1.1-45.1 2.9-67.4 1.8-21.1 4.9-42.2 7.9-62.7l.7-4.4c.5-3.4 1-6.9.6-10.3 0-.4-.1-.7-.2-1.1-1.8-9.6-13.1-18.5-23.3-22.5-4.2-1.6-8.8-2.6-13.6-3.3-17.5 2.5-34 14.8-38.4 31.8 42.9 27.7 36.4 89.3 11.2 126.7-5.6 8.3-12.5 16.5-13.4 26.5-1.2 12.3 7.1 23.4 14.9 33 7 8.6 12.2 18.3 16.4 28.5-7 1.3-13.7 4-20 7.6-.4 12 .8 24 3.7 35.6 9.2 1.8 18.8 2.5 28.2 2v.1c.6 4.4 1 8.9 1.2 13.4.1 1 0 1.6.5 2.4.5.9 1.5 1.7 2.1 2.5 1.2 1.7 2.2 3.6 3 5.5 1.1 2.7 1.9 5.6 2.3 8.5 1.2 8.1-2 16.3 7.5 18.9 6.9 1.9 14.8 1.4 21.9-.2-.3-18.5-3-36.4-8.1-54.4z"/><linearGradient id="SVGID_20_10" x1="286.3" x2="368.6" y1="-204.02" y2="-204.02" gradientTransform="matrix(1 0 0 -1 0 292)" gradientUnits="userSpaceOnUse"><stop offset="0" stop-color="#a2b5e2"/><stop offset="1" stop-color="#86cbdc"/></linearGradient><path fill="url(#SVGID_20_10)" d="M350.2 433.3c-9.2-7-19.9-9-30.9-12.6-8.7 34.9 6.4 71 7.4 106.9.2 6.5-.2 13.3-3.6 18.8s-11 9.6-16.8 6.7c2.3 2.5 1.5 6.8-.9 9.3-2.4 2.4-5.9 3.4-9.2 4.1-3.4.6-6.8 1-9.9 2.6 23.3 4 48.3 2.2 71.6-1.8-.7-14.4-2.8-29.7-7.5-43.3-2.5-.9-4.7-1.8-7.2-2.7-2.6-23.2-2.9-47.2-2.1-70.5.6.1 1.2.3 1.8.4.2-3.6.4-7.3.8-11a64 64 0 0121.2 17.5c.3.1.6.8 1.1 2.1.9.6 1.8 1.2 2.6 1.8-1.8-11.4-9.2-21.3-18.4-28.3z"/><path d="M366.7 336.6h-2.4c.1-9.3 1.4-19 4.3-31.5l.1-.4.3-.3c5.9-5.6 13.2-10.3 20.7-13.2a98.25 98.25 0 0123.2-53.3l1.8 1.7a95.8 95.8 0 00-22.7 52.7l-.1.8-.7.3c-7.3 2.7-14.6 7.2-20.4 12.7-2.7 12-4 21.5-4.1 30.5z" class="st28_10"/><path d="M364.3 336c.1-9 1.5-18.5 4.3-30.6v-.2l.1-.1c5.8-5.6 13.1-10.2 20.5-13.1l.4-.2v-.4a97.27 97.27 0 0122.6-52.4l.8.7a95.84 95.84 0 00-22.4 52.5v.4l-.3.1c-7.4 2.7-14.7 7.3-20.6 12.8l-.2.1v.2c-2.7 11.9-4 21.2-4.2 30l-1 .2z" class="st21_10"/><path d="M358.6 343.4c0-3.2 2.4-6.3 5.5-7 1.4-.3 2.8-.2 4.2.3 5.4 2.1 5.3 9 1 12.1-4.3 2.9-10.7.1-10.7-5.4z" class="st28_10"/><path d="M359.8 341.8c0-1.7 1.2-3.2 2.8-3.6.7-.2 1.5-.1 2.1.1 2.8 1.1 2.7 4.6.5 6.2-2.1 1.6-5.4.2-5.4-2.7z" class="st21_10"/><path d="M262.6 289.8l.2 1.2 1.2-.2c4.8-.7 8.7-.9 13-.2 3.4 8.4 5.2 17.8 5.1 26.6h2.4c.1-9.3-1.9-19.4-5.5-28.2l-.3-.6-.7-.1c-4.5-.8-8.5-.7-13.2-.1-1.8-14.2-.5-28.9 3.6-42.5l-.7-.2c-.7.3-1.3.6-2 .9-4 13.9-5.1 28.9-3.1 43.4z" class="st28_10"/><path d="M282 316.7c0-8.7-1.8-18-5.1-26.2l-.1-.4-.4-.1c-1.7-.3-3.5-.4-5.3-.4-2.2 0-4.6.2-7.9.7l-.5.1-.1-.5c-1.9-14.2-.9-29 3.1-42.8.4-.2.8-.4 1.3-.6-4 13.5-5.2 28-3.4 42l.1.7.7-.1c2.7-.4 4.9-.5 6.9-.5 2.1 0 4.1.2 6.2.6l.3.1.1.3a73.9 73.9 0 015.5 27.3l-1.4-.2z" class="st21_10"/><linearGradient id="SVGID_21_10" x1="276.63" x2="305.74" y1="-16.77" y2="-51.51" gradientTransform="matrix(1 0 0 -1 0 292)" gradientUnits="userSpaceOnUse"><stop offset="0" stop-color="#131f49"/><stop offset=".61" stop-color="#22567d"/></linearGradient><path fill="url(#SVGID_21_10)" d="M289.9 305.6c4.5-1.3 9.7-.9 13.6 1.5 4.8 2.9 6.9 8.3 7.9 13.5 1 5.1 1.3 10.5-.3 15.5s-5 9.7-10.1 12.2c-7.1 3.5-16.6 2-22.5-3-14.5-12-6.8-34.6 11.4-39.7z"/><linearGradient id="SVGID_22_10" x1="289.75" x2="278.74" y1="-43.13" y2="-23.31" gradientTransform="matrix(1 0 0 -1 0 292)" gradientUnits="userSpaceOnUse"><stop offset="0" stop-color="#fd1013"/><stop offset=".48" stop-color="#ea23bd"/><stop offset=".68" stop-color="#3f3ccf"/><stop offset=".74" stop-color="#4159cd"/><stop offset=".86" stop-color="#45a4c6"/><stop offset=".86" stop-color="#45a7c6"/></linearGradient><path fill="url(#SVGID_22_10)" d="M295.5 323.9c-.5-2.6-1.6-5.4-4.1-6.9-2-1.2-4.7-1.4-7-.8-9.3 2.6-13.3 14.2-5.8 20.3 3.1 2.5 7.9 3.3 11.6 1.5 2.6-1.3 4.4-3.7 5.2-6.2.7-2.5.6-5.2.1-7.9zm-7.2 4.9a3 3 0 01-1.6 1.9c-1.1.5-2.5.3-3.4-.5-2.2-1.8-1-5.3 1.7-6.1.7-.2 1.5-.1 2.1.2.7.4 1.1 1.3 1.2 2.1.2.8.2 1.6 0 2.4z"/><path fill="#e12bb8" d="M282.5 324.6c.6-.7 1.4-1.2 2.3-1.4.3-.1.7-.1 1.1-.1.2 0 .3 0 .5.1.1-.5.1-1.1.2-1.6.3-1.6.3-3.1.3-4.6-.7 0-1.5.1-2.2.3-2.4.7-4.4 2-6 3.8 1.2.9 2.4 2.5 3.8 3.5zm6.6 5.8c-.2-.1-.3-.2-.4-.4a3.86 3.86 0 01-3.3 1.9c-1 0-2-.4-2.8-1l-.3-.3c-.2 2.1-.8 4.2-1.7 6.1 1.5.8 3.3 1.3 5.1 1.3 1.4 0 2.8-.3 4-.9 1.8-.9 3.2-2.4 4.1-4.3-1.6-.7-3.2-1.4-4.7-2.4z"/><path d="M307.9 314.6c-3.1-5.5-10.9-11.2-16.3-8-2.9 1.7-5.1 4.8-6.7 7.8 4.5-.5 9.3 1.7 11.8 5.4 3.5-1.4 7.7-3.8 11.2-5.2z" class="st21_10"/><linearGradient id="SVGID_23_10" x1="295.24" x2="325.57" y1="-244.29" y2="-283.19" gradientTransform="matrix(1 0 0 -1 0 292)" gradientUnits="userSpaceOnUse"><stop offset="0" stop-color="#fd1013"/><stop offset=".48" stop-color="#ea23bd"/><stop offset=".68" stop-color="#3f3ccf"/><stop offset=".74" stop-color="#4159cd"/><stop offset=".86" stop-color="#45a4c6"/><stop offset=".86" stop-color="#45a7c6"/></linearGradient><path fill="url(#SVGID_23_10)" d="M326.2 572.8c-5.6-19.6-19.6-34.3-39-40.5-1.6 1.5-1.1 3.8.6 4.5 13.9 7.7 22.1 18.7 28.2 33.4 3.4.6 6.8 2 10.2 2.6z"/><linearGradient id="SVGID_24_10" x1="387.7" x2="459.8" y1="-261" y2="-261" gradientTransform="matrix(1 0 0 -1 0 292)" gradientUnits="userSpaceOnUse"><stop offset="0" stop-color="#fd1013"/><stop offset=".48" stop-color="#ea23bd"/><stop offset=".68" stop-color="#3f3ccf"/><stop offset=".74" stop-color="#4159cd"/><stop offset=".86" stop-color="#45a4c6"/><stop offset=".86" stop-color="#45a7c6"/></linearGradient><path fill="url(#SVGID_24_10)" d="M459.8 567.2c-8.3-14.7-21.6-26.4-37.4-32.3a78.1 78.1 0 00-34.7 34.9c2 .4 3.8.9 5.8 1.3 5.4-13.9 15.6-25 28.9-33.8 15 6.3 26.6 18.3 32.1 32 2-.8 3.4-1.3 5.3-2.1z"/><linearGradient id="SVGID_25_10" x1="248.4" x2="445.2" y1="-78.3" y2="-78.3" gradientTransform="matrix(1 0 0 -1 0 292)" gradientUnits="userSpaceOnUse"><stop offset="0" stop-color="#fd1013"/><stop offset=".48" stop-color="#ea23bd"/><stop offset=".68" stop-color="#3f3ccf"/><stop offset=".74" stop-color="#4159cd"/><stop offset=".86" stop-color="#45a4c6"/><stop offset=".86" stop-color="#45a7c6"/></linearGradient><path fill="url(#SVGID_25_10)" d="M433.6 375.5c3.8.6 7.7 1 11.5 1.5 0-1.4.1-2.7.1-4.1l-10.8-2.4c-4.2-.8-8.4-1.5-12.6-2.3-8.4-1.4-16.8-2.7-25.3-3.6-16.9-1.9-34-2.9-51.1-3s-34.2.5-51.2 2.4c-4.2.6-8.5 1.1-12.7 1.8l-6.3 1.2c-2.1.4-4.2.8-6.3 1.3l-6.3 1.5c-2.1.5-4.1 1.2-6.2 1.8-2.7.7-5.3 1.7-8 2.7.1 1.6.3 3.1.5 4.7 15.3-2.9 30.7-4.7 46.3-6.1 16.7-1.5 33.5-2.4 50.3-2.5 8.4-.1 16.8 0 25.2.3 4.2 0 8.4.3 12.6.5l6.3.3 6.3.4c4.2.3 8.4.5 12.6.9s8.4.6 12.6 1.1c4.2.7 8.4 1.1 12.5 1.6z"/><path d="M265 393.4c1.1.5 2.1 1 3.2 1.6 2 11.2 2.8 23.1 3.4 34.5-4.9 1.5-9.3 2.7-14.2 4.2-1-.4-2.3-1-3.4-1.5 3.6-12.6 7.4-26.2 11-38.8z" class="st35_10"/><path d="M269 427.9l-14.8 4.4a98.85 98.85 0 01-10.1-34.1c5.5-5.4 13.8-7 21.2-4.7 1.1 10.8 2.5 23.7 3.7 34.4z" class="st20_10"/><path d="M384 423.7l-4.2-.6 1.3-36.4 6.6-1.5c-.5 13.3-1.6 26.2-3.7 38.5z" class="st35_10"/><path d="M405.1 424.3c-7.2.3-14 .5-21.1-.6 1.6-12.6 2.9-25.6 3.7-38.5 8.6-1.6 17.5-1.4 25.7 1.6-.9 13.4-3.9 25.6-8.3 37.5z" class="st20_10"/><path fill="#b86053" d="M315.8 480c-15.1-5-32.9-8.1-48.8-6.7 4.5 16 9.8 31.7 15.7 47.2 11.5 2 23.3 1.2 34.5-2.3 2.3-12.6 1.5-25.8-1.4-38.2z" opacity=".4"/><linearGradient id="SVGID_26_10" x1="260.52" x2="314.14" y1="-202.65" y2="-202.65" gradientTransform="matrix(1 0 0 -1 0 292)" gradientUnits="userSpaceOnUse"><stop offset=".39" stop-color="#22567d"/><stop offset="1" stop-color="#131f49"/></linearGradient><path fill="url(#SVGID_26_10)" d="M311.4 477.4c2.9 12.4 3.7 25.7 1.4 38.2a74.58 74.58 0 01-41.1.9c-8-13-12.1-30.4-11-45.6 16.4-1.9 35 1.3 50.7 6.5z"/><linearGradient id="SVGID_27_10" x1="386.43" x2="446.59" y1="-202.64" y2="-202.64" gradientTransform="matrix(1 0 0 -1 0 292)" gradientUnits="userSpaceOnUse"><stop offset=".39" stop-color="#22567d"/><stop offset="1" stop-color="#131f49"/></linearGradient><path fill="url(#SVGID_27_10)" d="M445.9 512.7c-17.9 5.7-37.3 6.5-55.7 2.9a129.5 129.5 0 01-3.7-35.6c8.8-5.1 18.6-8.5 28.8-8.5 10.2-.1 20.3 2.6 29.2 7.6 2.3 10.9 2.6 22.5 1.4 33.6z"/><linearGradient id="SVGID_28_10" x1="302.68" x2="450.11" y1="99.24" y2="36.62" gradientTransform="matrix(1 0 0 -1 0 292)" gradientUnits="userSpaceOnUse"><stop offset=".24" stop-color="#fff7cc"/><stop offset=".29" stop-color="#fff2cf"/><stop offset=".35" stop-color="#fee5d7"/><stop offset=".42" stop-color="#fdcee4"/><stop offset=".45" stop-color="#fcbdee"/><stop offset=".46" stop-color="#f9bdee"/><stop offset=".55" stop-color="#cabef5"/><stop offset=".59" stop-color="#b7bef7"/><stop offset=".64" stop-color="#b7c2f6"/><stop offset=".69" stop-color="#b6cff4"/><stop offset=".75" stop-color="#b4e5f1"/><stop offset=".75" stop-color="#b4e6f1"/></linearGradient><path fill="url(#SVGID_28_10)" d="M438.2 229.1c-.3 1.3-.5 1.9-1.4 3.1-5.6-.4-11.1 1.4-16.1 4s-9.4 6-14 9.3c-25.9 18.6-55.6 31.6-86.6 39.3-21.7-7.1-39.5-24.3-48.1-45.5 4.1-2.2 8.6-4.6 12.6-6.9-.3-1.4-.5-2.8-.5-4.2-.2-22.3 2.9-46.9 17.4-64.8 12.7-15.7 32.1-25.4 52-26.7 11.4-.7 23.1 1.6 33.2 7.1 9.3 5.2 16.5 13.8 21.3 23.3 4.5 8.9 7.1 19 7.1 29.1 0 5-.6 10-1.7 14.8-.3 1.2-.8 2.8-1.2 4 9.8 1.7 18.5 7.9 26 14.1z"/><path d="M309.6 240.1v-4.5c-9.1-5.6-16.2-14.3-20.7-24.3-.4 5.2-.7 10.8-.6 16.8 0 1 .2 2.2.5 3.5l.5 2.8-2.5 1.4c-2 1.1-4.2 2.3-6.3 3.4-1.1.6-2.1 1.1-3.2 1.7 7.3 15.9 20 28.9 35.4 36.4-2.1-7.6-3.1-15.4-3.2-23.7-.2-4.5.1-9 .1-13.5z" class="st20_10"/><defs><use xlink:href="#SVGID_29_10"/></defs><clipPath id="SVGID_30_10"><use overflow="visible" xlink:href="#SVGID_29_10"/></clipPath><defs><use id="SVGID_31_10" xlink:href="#SVGID_29_10"/></defs><defs><path id="SVGID_32_10" d="M-1-1h-1l1-1z"/></defs><clipPath id="SVGID_33_10"><use overflow="visible" xlink:href="#SVGID_31_10"/></clipPath><clipPath id="SVGID_34_10" clip-path="url(#SVGID_33_10)"><use overflow="visible" xlink:href="#SVGID_32_10"/></clipPath><linearGradient id="SVGID_35_10" x1="317.78" x2="454.89" y1="127.55" y2="69.31" gradientTransform="matrix(1 0 0 -1 0 292)" gradientUnits="userSpaceOnUse"><stop offset="0" stop-color="#fff"/><stop offset="1"/></linearGradient><path fill="url(#SVGID_35_10)" d="M344.4 162.1c1.3 3 2.4 5.6 3 8.4l.3 1.6c0 .2.1.4.1.6.1.7.2 1.3.2 2v.3c0 .5.1 1.1.1 1.6 0 .1.3 3.9.3 5.2.3 1 .8 2.6.9 2.8s.1.4.2.6c.2.3.5.7.9 1.2.8 1.2 1.5 2.4 2.3 3.5-.5-.9 1.8 2.4 3.2 4.4 4-7 8.6-13.5 14.1-19-1.8-1-3.6-2.1-5.4-3-6.9-3.2-13.6-6.5-20.2-10.2z" clip-path="url(#SVGID_34_10)"/><linearGradient id="SVGID_36_10" x1="317.78" x2="454.89" y1="127.55" y2="69.31" gradientTransform="matrix(1 0 0 -1 0 292)" gradientUnits="userSpaceOnUse"><stop offset="0" stop-color="#fff7cc"/><stop offset="1" stop-color="#fff7cc"/></linearGradient><path fill="url(#SVGID_36_10)" d="M344.4 162.1c1.3 3 2.4 5.6 3 8.4l.3 1.6c0 .2.1.4.1.6.1.7.2 1.3.2 2v.3c0 .5.1 1.1.1 1.6 0 .1.3 3.9.3 5.2.3 1 .8 2.6.9 2.8s.1.4.2.6c.2.3.5.7.9 1.2.8 1.2 1.5 2.4 2.3 3.5-.5-.9 1.8 2.4 3.2 4.4 4-7 8.6-13.5 14.1-19-1.8-1-3.6-2.1-5.4-3-6.9-3.2-13.6-6.5-20.2-10.2z"/><radialGradient id="SVGID_37_10" cx="410.94" cy="17.5" r="166.91" gradientTransform="matrix(1 0 0 -1 0 292)" gradientUnits="userSpaceOnUse"><stop offset="0" stop-color="#83f7c7"/><stop offset=".17" stop-color="#4cddc6"/><stop offset=".37" stop-color="#15c2c4"/><stop offset=".46" stop-color="#00b8c4"/><stop offset=".5" stop-color="#04abbb"/><stop offset=".65" stop-color="#1186a0"/><stop offset=".79" stop-color="#1a6c8d"/><stop offset=".91" stop-color="#205c81"/><stop offset="1" stop-color="#22567d"/></radialGradient><path fill="url(#SVGID_37_10)" d="M330.5 143.8c-23.9 9.5-38.2 30.5-37.3 54.6.4 10.9 5.4 22 15 28.2 11.4 7.4 26.7 6.6 40.1 3.4 13.4-3.2 26.5-8.7 36.4-17.7 10-9 16.6-21.7 15.7-34.6-1-14.3-11.4-27.4-25.2-33.7-13.8-6.2-30.5-5.8-44.7-.2z"/><path d="M296.1 191.9c-1.4 9.9 1.9 23.8 14.2 24.1 7.9.2 14.2-6.2 19.6-12 6.8-7.1 13.9-13.9 22-19.5 7.9-5.5 17.8-7.8 25.2-13.8 4.3-3.6 7.5-9.2 6.3-14.7-1.4-6.2-7.7-10-13.7-12.1-16.9-5.7-35-3.6-49.1 7.2-12.5 9.5-21.6 23.7-24.3 39.2-.1.6-.2 1.1-.2 1.6z" class="st20_10"/><path d="M305.2 218.2c3.8 3.4 8.7 5.4 13.8 6.4 5.1.9 10.3.8 15.5.3 10.4-1.2 20.5-3.9 29.5-8.5 9-4.5 16.8-11 22.2-18.9 5.4-7.9 8.5-17.2 8.4-26.8 2 9.5-.2 19.7-5.4 28.3-2.5 4.4-5.9 8.3-9.8 11.9-3.9 3.5-8.4 6.5-13.2 8.9-9.6 4.9-20.5 7.6-31.4 8.2-5.4.3-11.1 0-16.3-1.4-5.3-1.6-10.2-4.4-13.3-8.4z" class="st20_10"/><linearGradient id="SVGID_38_10" x1="319.62" x2="330.41" y1="44.61" y2="44.61" gradientTransform="matrix(1 0 0 -1 0 292)" gradientUnits="userSpaceOnUse"><stop offset=".43" stop-color="#7cc7c9"/><stop offset=".6" stop-color="#6cbcc2"/></linearGradient><path fill="url(#SVGID_38_10)" d="M319.7 248.2c-.2-1.7.4-3.5 1.6-4.7 1-1 2.3-1.7 3.7-1.7 2.2-.1 4.3 1.4 5.1 3.4.8 2 .3 4.5-1.2 6-3.4 3.4-8.7 1.7-9.2-3z"/><path fill="#146b87" d="M361.6 574.2c0-3.9-.1-7.8-.3-11.8-32.5 6.6-65.9 9.1-99.1 7.5-.5 1.4-1 2.9-1.4 4.3 30.9 2.6 64.9 2.3 100.8 0zm99-8.2c-26.1 8.3-55 8-80.9-1.1l-.3 9.8c26.8 4.4 54.6 4.1 81.3-.8.1-2.6 0-5.2-.1-7.9z"/><path d="M264.2 474.3c-.5 14 3 28.1 10 40.2-.8-2.9-1.5-5.7-1.4-8.8 11.9-1.8 23.7-2.4 35.6-.5-11.9-3-24.9-4-37.2-3.3-1.1-3.3-1.7-6.5-1.3-10.1 12-2.1 24.2-2.2 36.1.4-11.8-2.5-23.6-3.9-35.7-3.9-.3-3.3-.3-6.8.4-10 12.5-.4 24.9 1 37.1 3.9-13.7-5-29-7.3-43.6-7.9zm128.6 28.9c0-2.7 0-5.3-.1-8 16.7-3.6 34.2-4.8 51.3-2.9-16.8-3.6-34.4-3.8-51.3-.5 0-2.3-.1-4.6-.2-6.8 15.9-5.4 33.8-7 50.1-3.3-8.5-3.5-17.3-6.1-26.5-6.6-9.1-.5-18.4 2.2-26.1 7.2-1 10.2 0 20.6 3 30.3-.1-2.1-.2-4.3-.2-6.5 16.5 2.8 34 1.9 49.8-3.6-16.5 2-33.3 2.2-49.8.7z" class="st21_10"/><linearGradient id="SVGID_39_10" x1="357.1" x2="430.9" y1="76.55" y2="76.55" gradientTransform="matrix(1 0 0 -1 0 292)" gradientUnits="userSpaceOnUse"><stop offset="0" stop-color="#a2b5e2"/><stop offset="1" stop-color="#86cbdc"/></linearGradient><path fill="url(#SVGID_39_10)" d="M408.7 217.1c6.4-16 2.3-35.7-8.6-48.9a45.1 45.1 0 01-6.5 39.6c-8.8 12.1-22.9 18.9-36.5 25.2 2 6.3 2.6 13.1 2.8 19.7 2.8 3.8 6.5 7.5 10.5 10 13.4-8.8 28.5-17.4 41.9-26.3 5.6-3.7 12-7.6 18.6-6.3-6.5-4.5-14-8.5-21.5-11.1l-.7-1.9z"/><linearGradient id="SVGID_40_10" x1="290.4" x2="406.92" y1="26.55" y2="26.55" gradientTransform="matrix(1 0 0 -1 0 292)" gradientUnits="userSpaceOnUse"><stop offset=".43" stop-color="#7cc7c9"/><stop offset=".6" stop-color="#6cbcc2"/></linearGradient><path fill="url(#SVGID_40_10)" d="M406.8 245.4c-6.3 4.9-12.9 9.4-19.8 13.4-6.9 4.1-13.9 7.8-21.2 11.1-7.3 3.3-14.7 6.4-22.3 8.9-7.6 2.5-15.3 4.8-23 6.6l-.2.1-.2-.1c-5.6-2-11-4.6-16.1-7.8-5-3.3-9.6-7.1-13.6-11.4 8.7 8 19 14.2 30.2 17.6h-.4c7.7-2 15.3-4.2 22.8-6.9s14.9-5.4 22.2-8.7c7.2-3.2 14.4-6.7 21.4-10.6 6.8-3.6 13.6-7.7 20.2-12.2z"/><linearGradient id="SVGID_41_10" x1="290.3" x2="409.4" y1="47.45" y2="47.45" gradientTransform="matrix(1 0 0 -1 0 292)" gradientUnits="userSpaceOnUse"><stop offset=".43" stop-color="#7cc7c9"/><stop offset=".6" stop-color="#6cbcc2"/></linearGradient><path fill="url(#SVGID_41_10)" d="M290.3 237c1.9 3.2 4.1 6.2 6.4 9 2.4 2.8 5 5.4 7.7 7.9 2.7 2.4 5.7 4.6 8.7 6.6 3.1 2 6.3 3.6 9.6 5.1l-1.1-.1c8-2 15.9-4.5 23.7-7.5 7.7-2.9 15.3-6.4 22.6-10.2a231.55 231.55 0 0031.6-19.9l5-3.8c1.6-1.3 3.3-2.6 4.9-3.9-1.5 1.5-2.9 3-4.4 4.5l-4.6 4.3-4.8 4.1-4.9 3.9c-6.7 5.1-13.7 9.8-21.1 13.9-7.4 4.1-15.1 7.7-22.9 10.7-7.9 3-16 5.4-24.3 7.2l-.6.1-.5-.2a64.72 64.72 0 01-25.5-21.9c-2.2-3.2-4-6.4-5.5-9.8z"/><g><linearGradient id="SVGID_42_10" x1="400.56" x2="526.18" y1="71.25" y2="32.48" gradientTransform="matrix(1 0 0 -1 0 292)" gradientUnits="userSpaceOnUse"><stop offset=".24" stop-color="#fff7cc"/><stop offset=".29" stop-color="#fff2cf"/><stop offset=".35" stop-color="#fee5d7"/><stop offset=".42" stop-color="#fdcee4"/><stop offset=".45" stop-color="#fcbdee"/><stop offset=".46" stop-color="#f9bdee"/><stop offset=".55" stop-color="#cabef5"/><stop offset=".59" stop-color="#b7bef7"/><stop offset=".64" stop-color="#b7c2f6"/><stop offset=".69" stop-color="#b6cff4"/><stop offset=".75" stop-color="#b4e5f1"/><stop offset=".75" stop-color="#b4e6f1"/></linearGradient><path fill="url(#SVGID_42_10)" d="M483.5 156c-6.4 18.9-20 35.2-37.5 44.9 7.7 10 13.8 21.2 17.7 33.2-8.9-2.6-17.6-3.1-26.7-1.7-4.3 15.2-7.4 31-7.1 46.8s4.3 31.9 13.1 45c38.1-7.3 98.9-52.4 102.3-94.5-12.4-30.1-34.5-56.1-61.8-73.7z"/><linearGradient id="SVGID_43_10" x1="398.2" x2="483.5" y1="124.35" y2="124.35" gradientTransform="matrix(1 0 0 -1 0 292)" gradientUnits="userSpaceOnUse"><stop offset=".39" stop-color="#22567d"/><stop offset="1" stop-color="#131f49"/></linearGradient><path fill="url(#SVGID_43_10)" d="M483.5 156c-11-7.1-22.8-12.8-35.1-17-15.3-5.1-32.6-7.1-47.1 0-2.1 3.2-2.7 6.3-3.1 9.8a31.1 31.1 0 0114.2 9.5c-2.7 3.2-4 7.6-2.9 11.7a113.2 113.2 0 0136.5 30.9 82.58 82.58 0 0037.5-44.9z"/><path d="M447.3 168.4c-6.4-6.3-14.1-11.3-19.7-18.5-3.4-4.3-5-8.8-4.7-13.2h-.3c-7.3 0-13.9 1.4-19.6 4.1-1.3 2.1-1.8 4.2-2.2 6.4 5.1 1.9 10.1 5.5 13.5 9.6l1.2 1.5-1.3 1.5c-2.1 2.5-3.1 5.7-2.6 8.6 13.3 7.3 25.4 17.4 35.1 29.4 5.9-3.5 11.3-7.7 16.1-12.6-5.1-5.7-10-11.5-15.5-16.8z" class="st21_10"/><linearGradient id="SVGID_44_10" x1="435.52" x2="542.92" y1="51.4" y2="51.4" gradientTransform="matrix(1 0 0 -1 0 292)" gradientUnits="userSpaceOnUse"><stop offset="0" stop-color="#a2b5e2"/><stop offset="1" stop-color="#86cbdc"/></linearGradient><path fill="url(#SVGID_44_10)" d="M484.7 159.6a82.9 82.9 0 01-14.6 24.4c10.5 9.7 19.1 23.8 25.9 36.1 4.1 7.3 8 13.9 5.6 22.7-2 7.4-6.5 14.2-11.7 19.8-11.1 11.8-25.5 21.8-39.1 30.4-4.7 3-9.9 6.2-15.4 9.1 2 7.1 4.8 13.7 8.6 19.5 37.2-8 95-51.2 98.8-91.5-11.6-28.2-32.2-53.1-58.1-70.5z"/><path d="M469.7 237.1c-8 12.6-21.4 21.6-36.1 24.4.2-9.3 2-18.6 5.1-27.4 6.1-.6 12.2-.4 18.4.2 4.1.4 8.5 1.8 12.6 2.8zm3.1-2.6a76.16 76.16 0 00-15.2-39c-2.7 2.4-5.5 4.7-8.7 6.3 7.1 9.3 12.5 20.1 15.7 31.4 2.6.3 5.6 1 8.2 1.3z" class="st20_10"/><linearGradient id="SVGID_45_10" x1="461.8" x2="529.8" y1="78.27" y2="78.27" gradientTransform="matrix(1 0 0 -1 0 292)" gradientUnits="userSpaceOnUse"><stop offset="0" stop-color="#fd1013"/><stop offset=".48" stop-color="#ea23bd"/><stop offset=".68" stop-color="#3f3ccf"/><stop offset=".74" stop-color="#4159cd"/><stop offset=".86" stop-color="#45a4c6"/><stop offset=".86" stop-color="#45a7c6"/></linearGradient><path fill="url(#SVGID_45_10)" d="M529.8 201.1c-2-2.9-4.1-5.8-6.3-8.6a55.4 55.4 0 01-22.7 28.5 57 57 0 01-39 7.8c.7 1.7 1.3 3.5 1.9 5.2v.1c13.7 2.3 28.3 0 40.8-6.9 10.6-6 19.5-15.1 25.3-26.1z"/></g></g></svg>