<svg xmlns="http://www.w3.org/2000/svg" id="Layer_1" x="0" y="0" version="1.1" viewBox="100 100 800 800" xml:space="preserve"><defs/><style>.st2_9{fill-rule:evenodd;clip-rule:evenodd;fill:#9ee6fd}</style><linearGradient id="SVGID_1_9" x1="519.5" x2="519.5" y1="833.5" y2="547.9" gradientUnits="userSpaceOnUse"><stop offset="0" stop-color="#fff"/><stop offset=".4" stop-color="#b3d2ea"/><stop offset=".8" stop-color="#63a3d4"/><stop offset="1" stop-color="#4490cb"/></linearGradient><path fill="url(#SVGID_1_9)" fill-rule="evenodd" d="M808.2 854.6H224.5A343.7 343.7 0 01204 727.7c1.3-47.4 10.7-95.1 26-122.9 15.3-28.6 36.6-37.3 62.7-26.5 26.1 9.9 57 39.4 92.5 67.3 35.5 27 75.7 52.6 121.2 34.9 45.4-6.2 87.2-54.5 124.9-99.4 37.7-45.8 71.3-88.2 99.9-104.8 28.7-17.6 52.3-9.4 69.9 23.8 17.6 32.3 29 89.5 32.7 147.9a528.9 528.9 0 01-25.6 206.6z" clip-rule="evenodd"/><linearGradient id="SVGID_2_9" x1="519.1" x2="519.1" y1="833.5" y2="616.7" gradientUnits="userSpaceOnUse"><stop offset="0" stop-color="#fff"/><stop offset="1" stop-color="#4490cb"/></linearGradient><path fill="url(#SVGID_2_9)" d="M841.6 638.6c-4.1-63.9-16.7-120.6-33.6-151.7-9.6-18.2-21.2-29.3-34.3-32.8-11.7-3.2-24.7-.5-38.6 8.1-27.3 15.8-58.3 53.6-94.1 97.3l-8.4 10.2c-35.5 42.3-79.7 94.8-127.2 101.4l-.2.1c-46.7 18.1-88-8.9-123.1-35.6-9.3-7.3-18.2-14.7-26.9-21.8-25.7-21.2-48-39.5-68-47.2-27.4-11.4-49.4-2.1-65.3 27.6-15.1 27.4-25.3 75.7-26.7 126.2-.9 48.2 6.6 92.8 22.6 134.4h2.1a350 350 0 01-22.7-134.4c1.4-50.2 11.5-98.2 26.4-125.3 11.1-20.8 25.3-31.2 42.3-31.2a54 54 0 0120.6 4.5c19.7 7.5 41.8 25.8 67.4 46.8 8.7 7.2 17.6 14.5 26.9 21.8 35.5 27 77.3 54.3 124.9 35.9 48.2-6.7 92.6-59.5 128.3-102l8.4-10.2c35.7-43.5 66.6-81.2 93.6-96.8 13.5-8.3 25.9-10.9 37.1-7.8 12.6 3.4 23.7 14.2 33.1 31.9 16.8 30.9 29.3 87.3 33.4 150.9a540.1 540.1 0 01-27.7 215.9h2a542.3 542.3 0 0027.7-216.2z"/><path d="M655.5 548.1h1.9v302.7h-1.9V548.1zM501.3 675.3h1.9v173.6h-1.9V675.3zm264.1-223.6v1.9h-615v-1.9h615zm-109.9 88.7v1.9H150.4v-1.9h505.1zM501.3 671.5v1.9H150.4v-1.9h350.9z" class="st2_9"/><path d="M331.6 599.2h1.9v253.5h-1.9V599.2zm-109.9 0h1.9v253.5h-1.9V599.2z" class="st2_9"/><path fill="#87bfe5" fill-rule="evenodd" d="M148.4 106.6h2v748h-2v-748zm2 748v-1.9H883v1.9H150.4z" clip-rule="evenodd"/><path d="M763.5 455.6h1.9v397.1h-1.9V455.6z" class="st2_9"/><linearGradient id="SVGID_3_9" x1="751.9" x2="777" y1="454.6" y2="454.6" gradientUnits="userSpaceOnUse"><stop offset="0" stop-color="#499fd9"/><stop offset="1" stop-color="#3568a4"/></linearGradient><path fill="url(#SVGID_3_9)" fill-rule="evenodd" d="M764.4 442.1a12.5 12.5 0 110 25 12.5 12.5 0 010-25z" clip-rule="evenodd"/><linearGradient id="SVGID_4_9" x1="643.9" x2="669" y1="543.3" y2="543.3" gradientUnits="userSpaceOnUse"><stop offset="0" stop-color="#499fd9"/><stop offset="1" stop-color="#3568a4"/></linearGradient><path fill="url(#SVGID_4_9)" fill-rule="evenodd" d="M656.5 530.7a12.5 12.5 0 110 25 12.5 12.5 0 010-25z" clip-rule="evenodd"/><linearGradient id="SVGID_5_9" x1="489.7" x2="514.7" y1="672.5" y2="672.5" gradientUnits="userSpaceOnUse"><stop offset="0" stop-color="#499fd9"/><stop offset="1" stop-color="#3568a4"/></linearGradient><path fill="url(#SVGID_5_9)" fill-rule="evenodd" d="M502.2 660a12.5 12.5 0 110 25 12.5 12.5 0 010-25z" clip-rule="evenodd"/><linearGradient id="SVGID_6_9" x1="320" x2="345.1" y1="599.2" y2="599.2" gradientUnits="userSpaceOnUse"><stop offset="0" stop-color="#499fd9"/><stop offset="1" stop-color="#3568a4"/></linearGradient><path fill="url(#SVGID_6_9)" fill-rule="evenodd" d="M332.6 586.7a12.5 12.5 0 110 25 12.5 12.5 0 010-25z" clip-rule="evenodd"/><linearGradient id="SVGID_7_9" x1="210.1" x2="235.2" y1="599.2" y2="599.2" gradientUnits="userSpaceOnUse"><stop offset="0" stop-color="#499fd9"/><stop offset="1" stop-color="#3568a4"/></linearGradient><path fill="url(#SVGID_7_9)" fill-rule="evenodd" d="M222.7 586.7a12.5 12.5 0 110 25 12.5 12.5 0 010-25z" clip-rule="evenodd"/><path fill="#4490ca" d="M837.2 891.8H835v-5.3h1.2c1.4-1.6 2.1-4.2 2.1-8V875h9.5v11.5h1.5v5.3h-2.2v-3.1h-9.9v3.1zm8.2-5.2v-9.4h-4.8v1.6a14 14 0 01-1.7 7.7h6.5v.1zm8.7 2.1h-2.4v-13.6h2.4v5.5h6.4v-5.5h2.4v13.6h-2.4v-6.1h-6.4v6.1zm13.7 0h-2.7v-13.6h2.4v10h.1l6.4-10h2.6v13.6h-2.4v-9.9l-6.4 9.9zm-752-681.4v-2.5h11.7v-5.1h-11.7v-2.5h13.8v10.1h-13.8zm13.9-9.3v.7h-2.1v-3.2h1.6l4.5.2v2.3h-4zm-13.9-4.6V185h2.1v5.8h3.4V186h2.1v4.9h4v-6h2.1v8.6h-13.7zm0-11.5v-2.5h5.5v-5.5h-5.5v-2.5h13.8v2.5h-6.1v5.5h6.1v2.5h-13.8zm0-16.8v-3l13.8-4.5v2.7l-7.3 2.1-4.5 1.2v.1l4.5 1.2 7.3 2.1v2.6l-13.8-4.5zm8.2 1.8v-6.5h2v6.5h-2zm8.2-10.3c-.5-1.4-1.5-2.2-2.6-2.2l-1.9.1 1.5-.9c.3.3.4.6.4 1 0 .8-.5 1.6-1.5 1.6-.9 0-1.5-.8-1.5-1.7 0-1.2 1-1.9 2.6-1.9 2.1 0 3.7 1.2 4.5 3.4l-1.5.6zM118 142.8v4h-2.1v-10.5h2.1v4h11.7v2.5H118zm-2.2-8.9v-4.7c0-2.9 1-5.1 4.1-5.1 3 0 4.3 2.2 4.3 5.1v2.2h5.3v2.5h-13.7zm6.5-4.5c0-1.9-.8-2.9-2.3-2.9-1.6 0-2.1 1-2.1 2.9v1.9h4.4v-1.9zm1.3.2l-1.5-1.8 7.6-4.3v2.9l-6.1 3.2zm-1.1-10.7l-6.7 3.7v-2.8l3-1.5 2.1-1v-.1a22 22 0 01-2.1-.9l-3-1.4v-2.7l6.8 3.7 7-3.9v2.8l-3.2 1.6-2.3 1.1v.1l2.3 1 3.2 1.6v2.7l-7.1-4z"/></svg>