<svg xmlns="http://www.w3.org/2000/svg" xmlns:xlink="http://www.w3.org/1999/xlink" viewBox="0 0 715.9 712.8"><defs/><defs><linearGradient id="SVGID_23_14" x1="518" x2="550.5" y1="247.6" y2="279.8" gradientUnits="userSpaceOnUse"><stop offset="0" stop-color="#fff"/><stop offset="1"/></linearGradient><linearGradient id="SVGID_23_14-2" x1="539.3" x2="607.7" y1="219" y2="248.1" xlink:href="#SVGID_23_14"/><linearGradient id="SVGID_65_15" x1="376.7" x2="376.7" y1="55" y2="-118.5" gradientTransform="rotate(-21.4 682 253.2)" gradientUnits="userSpaceOnUse"><stop offset="0" stop-color="#e8ddff"/><stop offset="1" stop-color="#8bddd8"/></linearGradient><linearGradient id="SVGID_72_15" x1="320.2" x2="320.2" y1="-59.1" y2="-84.8" gradientTransform="rotate(-21.4 682 253.2)" gradientUnits="userSpaceOnUse"><stop offset="0" stop-color="#fff"/><stop offset="1" stop-color="#383838"/></linearGradient><linearGradient id="SVGID_2_15" x1="316.7" x2="316.7" y1="-51.6" y2="-55.4" gradientTransform="rotate(-21.4 682 253.2)" xlink:href="#SVGID_23_14"/><linearGradient id="SVGID_77_15" x1="364.9" x2="364.9" y1="-18.1" y2="-102.4" gradientTransform="rotate(-21.4 682 253.2)" gradientUnits="userSpaceOnUse"><stop offset="0" stop-color="#fff"/><stop offset="1" stop-color="#c7c7c7"/></linearGradient><linearGradient id="SVGID_82_15" x1="422.8" x2="422.8" y1="43.4" y2="-37.9" gradientTransform="rotate(-21.4 682 253.2)" gradientUnits="userSpaceOnUse"><stop offset="0" stop-color="#fff"/><stop offset="1" stop-color="#969696"/></linearGradient><linearGradient id="linear-gradient" x1="402.9" x2="393.3" y1="321.4" y2="326.8" gradientUnits="userSpaceOnUse"><stop offset="0" stop-color="#2bb1e9"/><stop offset="1" stop-color="#2295d1"/></linearGradient><linearGradient id="linear-gradient-2_2" x1="412.4" x2="392.9" y1="288.8" y2="317.2" gradientUnits="userSpaceOnUse"><stop offset="0" stop-color="#33beff"/><stop offset="1" stop-color="#6deefe"/></linearGradient><linearGradient id="linear-gradient-3_2" x1="421.7" x2="413.1" y1="312.9" y2="317" xlink:href="#linear-gradient-2_2"/><linearGradient id="linear-gradient-4_2" x1="423.8" x2="412.9" y1="307.1" y2="340.5" gradientUnits="userSpaceOnUse"><stop offset="0" stop-color="#36abea"/><stop offset="1" stop-color="#48cff2"/></linearGradient><linearGradient id="linear-gradient-5_2" x1="423.1" x2="419.1" y1="303" y2="321.9" gradientUnits="userSpaceOnUse"><stop offset="0" stop-color="#6cedfd"/><stop offset="1" stop-color="#b1f5fd"/></linearGradient><linearGradient id="linear-gradient-6_2" x1="57" x2="26.5" y1="111" y2="128.3" xlink:href="#linear-gradient"/><linearGradient id="linear-gradient-7_2" x1="87.4" x2="25.3" y1="6.7" y2="97.6" xlink:href="#linear-gradient-2_2"/><linearGradient id="linear-gradient-8_2" x1="117.2" x2="89.9" y1="83.8" y2="96.9" xlink:href="#linear-gradient-2_2"/><linearGradient id="linear-gradient-9_2" x1="124" x2="89.1" y1="65.3" y2="172" xlink:href="#linear-gradient-4_2"/><linearGradient id="linear-gradient-10_2" x1="121.9" x2="109.1" y1="52.3" y2="112.7" xlink:href="#linear-gradient-5_2"/><linearGradient id="linear-gradient-11_2" x1="472.1" x2="456.6" y1="127.2" y2="136.1" xlink:href="#linear-gradient"/><linearGradient id="linear-gradient-12_2" x1="487.6" x2="455.9" y1="74" y2="120.4" xlink:href="#linear-gradient-2_2"/><linearGradient id="linear-gradient-13_2" x1="502.8" x2="488.9" y1="113.3" y2="120" xlink:href="#linear-gradient-2_2"/><linearGradient id="linear-gradient-14_2" x1="506.3" x2="488.5" y1="103.9" y2="158.3" xlink:href="#linear-gradient-4_2"/><linearGradient id="linear-gradient-15_2" x1="505.2" x2="498.7" y1="97.3" y2="128.1" xlink:href="#linear-gradient-5_2"/><linearGradient id="SVGID_409_15" x1="548.2" x2="548.2" y1="607" y2="415" gradientUnits="userSpaceOnUse"><stop offset="0" stop-color="#838bff"/><stop offset="1" stop-color="#455bc8"/></linearGradient><linearGradient id="SVGID_463_15" x1="466.6" x2="631.7" y1="424.3" y2="424.3" gradientUnits="userSpaceOnUse"><stop offset="0" stop-color="#c5c4ff"/><stop offset="1" stop-color="#9fbbff"/></linearGradient><linearGradient id="SVGID_432_15" x1="549.1" x2="549.1" y1="615.8" y2="415" gradientUnits="userSpaceOnUse"><stop offset="0" stop-color="#6390ff"/><stop offset="1" stop-color="#4236b6"/></linearGradient><linearGradient id="SVGID_155_15" x1="416.1" x2="416.1" y1="666.1" y2="478.9" gradientUnits="userSpaceOnUse"><stop offset="0" stop-color="#68b6ff"/><stop offset="1" stop-color="#2938c8"/></linearGradient><linearGradient id="SVGID_166_15" x1="240.1" x2="598.6" y1="482.2" y2="482.2" gradientUnits="userSpaceOnUse"><stop offset="0" stop-color="#c5f4ff"/><stop offset="1" stop-color="#a1bbff"/></linearGradient><linearGradient id="SVGID_173_15" x1="344.3" x2="344.3" y1="673.8" y2="484.9" gradientUnits="userSpaceOnUse"><stop offset="0" stop-color="#687cff"/><stop offset="1" stop-color="#2725b6"/></linearGradient><linearGradient id="SVGID_178_15" x1="536.5" x2="536.5" y1="657.6" y2="480.6" gradientUnits="userSpaceOnUse"><stop offset="0" stop-color="#687cff"/><stop offset="1" stop-color="#2025b6"/></linearGradient><linearGradient id="SVGID_186_15" x1="483.2" x2="541.7" y1="472.6" y2="472.6" gradientUnits="userSpaceOnUse"><stop offset="0" stop-color="#5997ec"/><stop offset="1" stop-color="#1f25b6"/></linearGradient><linearGradient id="SVGID_192_15" x1="326.2" x2="326.2" y1="537.9" y2="484.9" gradientUnits="userSpaceOnUse"><stop offset="0" stop-color="#5174ae"/><stop offset="1" stop-color="#3151a9"/></linearGradient><linearGradient id="SVGID_200_15" x1="575" x2="575" y1="557.4" y2="480.6" gradientUnits="userSpaceOnUse"><stop offset="0" stop-color="#5170ae"/><stop offset="1" stop-color="#2757a9"/></linearGradient><linearGradient id="SVGID_208_15" x1="402.9" x2="402.9" y1="552" y2="489.5" gradientUnits="userSpaceOnUse"><stop offset="0" stop-color="#5179ae"/><stop offset="1" stop-color="#2242a9"/></linearGradient><linearGradient id="SVGID_409_15-2" x1="160.2" x2="160.2" y1="704" y2="512" xlink:href="#SVGID_409_15"/><linearGradient id="SVGID_463_15-2" x1="78.6" x2="243.7" y1="521.3" y2="521.3" xlink:href="#SVGID_463_15"/><linearGradient id="SVGID_432_15-2" x1="161.1" x2="161.1" y1="712.8" y2="512" xlink:href="#SVGID_432_15"/><linearGradient id="SVGID_436_15" x1="661.4" x2="661.4" y1="428.5" y2="296.4" gradientTransform="rotate(2.2 225 348.2)" gradientUnits="userSpaceOnUse"><stop offset="0" stop-color="#6b7fe2"/><stop offset="1" stop-color="#d1e3ff"/></linearGradient><linearGradient id="SVGID_443_15" x1="662.9" x2="662.9" y1="428.5" y2="298.4" gradientTransform="rotate(2.2 225 348.2)" gradientUnits="userSpaceOnUse"><stop offset="0" stop-color="#b2c9ff"/><stop offset="1" stop-color="#487ec0"/></linearGradient><linearGradient id="SVGID_389_15" x1="690.5" x2="690.5" y1="499.8" y2="432.9" gradientUnits="userSpaceOnUse"><stop offset="0" stop-color="#598bff"/><stop offset="1" stop-color="#3b3fc8"/></linearGradient><linearGradient id="SVGID_396_15" x1="691" x2="691" y1="499.8" y2="442" gradientUnits="userSpaceOnUse"><stop offset="0" stop-color="#5e7cff"/><stop offset="1" stop-color="#404ab6"/></linearGradient><linearGradient id="SVGID_400_15" x1="667.3" x2="705.9" y1="440.3" y2="440.3" gradientUnits="userSpaceOnUse"><stop offset="0" stop-color="#c5c4ff"/><stop offset="1" stop-color="#92bbff"/></linearGradient><linearGradient id="SVGID_403_15" x1="703.6" x2="713.4" y1="455.7" y2="455.7" gradientUnits="userSpaceOnUse"><stop offset="0" stop-color="#c5c4ff"/><stop offset="1" stop-color="#a1bbff"/></linearGradient><linearGradient id="SVGID_389_15-2" x1="667.6" x2="667.6" y1="218.8" y2="178.2" xlink:href="#SVGID_389_15"/><linearGradient id="SVGID_396_15-2" x1="667.9" x2="667.9" y1="218.8" y2="183.7" xlink:href="#SVGID_396_15"/><linearGradient id="SVGID_400_15-2" x1="653.5" x2="676.9" y1="182.7" y2="182.7" xlink:href="#SVGID_400_15"/><linearGradient id="SVGID_403_15-2" x1="675.5" x2="681.5" y1="192" y2="192" xlink:href="#SVGID_403_15"/><linearGradient id="SVGID_76_14" x1="828.7" x2="863.2" y1="-4580.6" y2="-4554.7" gradientTransform="matrix(-.11 .99 .98 .11 4878.4 -112.2)" gradientUnits="userSpaceOnUse"><stop offset=".4" stop-color="#22567d"/><stop offset="1" stop-color="#131f49"/></linearGradient><linearGradient id="linear-gradient-16_2" x1="5077.4" x2="5115.1" y1="263.8" y2="264.7" gradientTransform="matrix(-1 0 0 1 5398.6 0)" gradientUnits="userSpaceOnUse"><stop offset=".1" stop-color="#fff7cc"/><stop offset=".3" stop-color="#fcbdee"/><stop offset=".4" stop-color="#f8bdef"/><stop offset=".4" stop-color="#ebbcf0"/><stop offset=".5" stop-color="#d5baf3"/><stop offset=".5" stop-color="#b7b8f6"/><stop offset=".6" stop-color="#afb7f7"/><stop offset=".6" stop-color="#afbbf6"/><stop offset=".7" stop-color="#b1c8f5"/><stop offset=".7" stop-color="#b3def2"/><stop offset=".8" stop-color="#b4e6f1"/></linearGradient><linearGradient id="linear-gradient-17_2" x1="5085.8" x2="5129.9" y1="257.3" y2="257.3" gradientTransform="matrix(-1 0 0 1 5398.6 0)" gradientUnits="userSpaceOnUse"><stop offset="0" stop-color="#a2b5e2"/><stop offset="1" stop-color="#91cddc"/></linearGradient><linearGradient id="linear-gradient-18_2" x1="5083.8" x2="5103.6" y1="275.4" y2="275.4" gradientTransform="matrix(-1 0 0 1 5398.6 0)" gradientUnits="userSpaceOnUse"><stop offset="0" stop-color="#fd1013"/><stop offset=".5" stop-color="#ea23bd"/><stop offset=".7" stop-color="#3f3ccf"/><stop offset=".7" stop-color="#4159cd"/><stop offset=".9" stop-color="#45a4c6"/><stop offset=".9" stop-color="#45a7c6"/></linearGradient><linearGradient id="linear-gradient-19_2" x1="5128.5" x2="5173.2" y1="273.5" y2="305" gradientTransform="matrix(-1 0 0 1 5398.6 0)" gradientUnits="userSpaceOnUse"><stop offset=".1" stop-color="#fff7cc"/><stop offset=".4" stop-color="#fcbdee"/><stop offset=".4" stop-color="#f8bdef"/><stop offset=".5" stop-color="#ebbcf0"/><stop offset=".5" stop-color="#d5baf3"/><stop offset=".5" stop-color="#b7b8f6"/><stop offset=".6" stop-color="#afb7f7"/><stop offset=".7" stop-color="#b2d7f3"/><stop offset=".8" stop-color="#b4e6f1"/></linearGradient><linearGradient id="linear-gradient-20_2" x1="5159.5" x2="5159.5" y1="272.1" y2="306.2" xlink:href="#linear-gradient-17_2"/><linearGradient id="linear-gradient-21_2" x1="4835.3" x2="4914.4" y1="342.6" y2="342.6" gradientTransform="matrix(-1 0 0 1 5121.2 0)" xlink:href="#linear-gradient-18_2"/><linearGradient id="SVGID_14_14" x1="4830.3" x2="4843.6" y1="18.9" y2="34.8" gradientTransform="matrix(-1 .07 .07 1 5099.1 -22.4)" gradientUnits="userSpaceOnUse"><stop offset="0" stop-color="#131f49"/><stop offset=".6" stop-color="#22567d"/></linearGradient><linearGradient id="linear-gradient-22_2" x1="4836.2" x2="4831.2" y1="31" y2="21.9" gradientTransform="matrix(-1 .07 .07 1 5099.1 -22.4)" xlink:href="#linear-gradient-18_2"/><linearGradient id="linear-gradient-23_2" x1="5156" x2="5186.5" y1="205.2" y2="233.1" xlink:href="#linear-gradient-16_2"/><linearGradient id="linear-gradient-24_2" x1="5146.2" x2="5151.9" y1="246.2" y2="246.2" gradientTransform="matrix(-1 0 0 1 5398.6 0)" gradientUnits="userSpaceOnUse"><stop offset=".4" stop-color="#7cc7c9"/><stop offset=".6" stop-color="#6cbcc2"/></linearGradient><linearGradient id="linear-gradient-25_2" x1="5130.4" x2="5201.2" y1="258.9" y2="258.9" xlink:href="#linear-gradient-24_2"/><linearGradient id="linear-gradient-26_2" x1="5136.1" x2="5177.3" y1="251.6" y2="251.6" xlink:href="#linear-gradient-24_2"/><linearGradient id="linear-gradient-27_2" x1="5201.4" x2="5238.4" y1="293.1" y2="287.6" xlink:href="#linear-gradient-16_2"/><linearGradient id="SVGID_76_14-2" x1="5198.3" x2="5234.6" y1="255.3" y2="272.8" gradientTransform="matrix(-1 0 0 1 5398.6 0)" xlink:href="#SVGID_76_14"/><linearGradient id="SVGID_76_14-3" x1="5200.2" x2="5237.8" y1="249.4" y2="267.5" gradientTransform="matrix(-1 0 0 1 5398.6 0)" xlink:href="#SVGID_76_14"/><linearGradient id="linear-gradient-28_2" x1="5197.9" x2="5208.8" y1="256.4" y2="256.4" xlink:href="#linear-gradient-17_2"/><linearGradient id="linear-gradient-29_2" x1="5223.2" x2="5251.3" y1="296.7" y2="296.7" xlink:href="#linear-gradient-17_2"/><linearGradient id="SVGID_76_14-4" x1="5197.4" x2="5227.1" y1="342" y2="319.3" gradientTransform="matrix(-1 0 0 1 5398.6 0)" xlink:href="#SVGID_76_14"/><linearGradient id="linear-gradient-30_2" x1="5220.8" x2="5252.9" y1="284" y2="284" xlink:href="#linear-gradient-18_2"/><linearGradient id="linear-gradient-31_2" x1="5166.8" x2="5209.8" y1="419.1" y2="451.4" xlink:href="#linear-gradient-16_2"/><linearGradient id="linear-gradient-32_2" x1="5186" x2="5210.7" y1="443.6" y2="443.6" xlink:href="#linear-gradient-17_2"/><linearGradient id="linear-gradient-33_2" x1="5085.9" x2="5147.5" y1="334.2" y2="427.7" xlink:href="#linear-gradient-16_2"/><linearGradient id="linear-gradient-34_2" x1="5186.3" x2="5186.3" y1="300.3" y2="404.5" xlink:href="#linear-gradient-17_2"/><linearGradient id="linear-gradient-35_2" x1="5107.1" x2="5109.8" y1="339.3" y2="396.7" xlink:href="#linear-gradient-17_2"/><linearGradient id="linear-gradient-36_2" x1="5185.5" x2="5210.3" y1="441.4" y2="441.4" xlink:href="#linear-gradient-18_2"/><linearGradient id="SVGID_76_14-5" x1="5184.6" x2="5197.2" y1="424" y2="454.5" gradientTransform="matrix(-1 0 0 1 5398.6 0)" xlink:href="#SVGID_76_14"/><linearGradient id="SVGID_76_14-6" x1="5057.9" x2="5085.8" y1="338.2" y2="378" gradientTransform="matrix(-1 0 0 1 5398.6 0)" xlink:href="#SVGID_76_14"/><linearGradient id="linear-gradient-37_2" x1="5094.4" x2="5114.6" y1="451.3" y2="451.3" xlink:href="#linear-gradient-18_2"/><linearGradient id="linear-gradient-38_2" x1="469.3" x2="510.6" y1="283.2" y2="291.5" xlink:href="#linear-gradient-16_2"/><linearGradient id="linear-gradient-39_2" x1="466" x2="516.9" y1="283" y2="283" xlink:href="#linear-gradient-17_2"/><linearGradient id="linear-gradient-40_2" x1="476.7" x2="498" y1="305.6" y2="268.4" xlink:href="#linear-gradient-18_2"/><linearGradient id="SVGID_14_14-2" x1="479" x2="457.7" y1="297.9" y2="246.9" xlink:href="#SVGID_14_14"/><linearGradient id="linear-gradient-41_2" x1="476.1" x2="606.5" y1="248.7" y2="248.7" gradientUnits="userSpaceOnUse"><stop offset=".2" stop-color="#fff7cc"/><stop offset=".3" stop-color="#fcd1f2"/><stop offset=".3" stop-color="#f8cff2"/><stop offset=".3" stop-color="#ebcaf3"/><stop offset=".3" stop-color="#d5c2f4"/><stop offset=".4" stop-color="#b7b6f6"/><stop offset=".4" stop-color="#a8b0f7"/><stop offset=".5" stop-color="#a9b4f7"/><stop offset=".6" stop-color="#acc1f5"/><stop offset=".7" stop-color="#b1d7f3"/><stop offset=".8" stop-color="#b4e6f1"/></linearGradient><linearGradient id="linear-gradient-42_2" x1="536.8" x2="580.5" y1="278.9" y2="309.1" gradientUnits="userSpaceOnUse"><stop offset=".2" stop-color="#fff7cc"/><stop offset=".4" stop-color="#fcbdee"/><stop offset=".5" stop-color="#f8bdef"/><stop offset=".5" stop-color="#ebbcf0"/><stop offset=".5" stop-color="#d5baf3"/><stop offset=".6" stop-color="#b7b8f6"/><stop offset=".6" stop-color="#afb7f7"/><stop offset=".6" stop-color="#afbbf6"/><stop offset=".7" stop-color="#b1c8f5"/><stop offset=".7" stop-color="#b3def2"/><stop offset=".8" stop-color="#b4e6f1"/></linearGradient><linearGradient id="linear-gradient-43_2" x1="582.1" x2="613" y1="254.6" y2="356.8" gradientUnits="userSpaceOnUse"><stop offset="0" stop-color="#9db8e0"/><stop offset="1" stop-color="#7eced5"/></linearGradient><linearGradient id="SVGID_14_14-3" x1="518.7" x2="533.3" y1="291" y2="308.4" xlink:href="#SVGID_14_14"/><linearGradient id="linear-gradient-44_2" x1="525.3" x2="519.8" y1="304.2" y2="294.3" xlink:href="#linear-gradient-18_2"/><linearGradient id="linear-gradient-45_2" x1="550" x2="568.6" y1="240.8" y2="248.6" xlink:href="#linear-gradient-16_2"/><linearGradient id="SVGID_29_14" x1="539.3" x2="607.7" y1="219" y2="248.1" gradientUnits="userSpaceOnUse"><stop offset="0" stop-color="#fff7cc"/><stop offset="1" stop-color="#fff7cc"/></linearGradient><linearGradient id="linear-gradient-46_2" x1="540.2" x2="545.6" y1="260.4" y2="260.4" xlink:href="#linear-gradient-24_2"/><linearGradient id="linear-gradient-47_2" x1="558.9" x2="595.8" y1="244.4" y2="244.4" xlink:href="#linear-gradient-17_2"/><linearGradient id="linear-gradient-48_2" x1="525.6" x2="583.7" y1="269.4" y2="269.4" xlink:href="#linear-gradient-24_2"/><linearGradient id="linear-gradient-49_2" x1="504.7" x2="602.9" y1="321.8" y2="321.8" xlink:href="#linear-gradient-18_2"/><linearGradient id="linear-gradient-50_2" x1="525.6" x2="585" y1="259" y2="259" xlink:href="#linear-gradient-24_2"/><linearGradient id="linear-gradient-51_2" x1="583.7" x2="656" y1="281.7" y2="281.7" xlink:href="#linear-gradient-16_2"/><linearGradient id="SVGID_76_14-7" x1="596.9" x2="627" y1="258.2" y2="271.6" xlink:href="#SVGID_76_14"/><linearGradient id="SVGID_76_14-8" x1="601.9" x2="633.6" y1="253.2" y2="267.3" xlink:href="#SVGID_76_14"/><linearGradient id="linear-gradient-52_2" x1="596.5" x2="638.6" y1="254.9" y2="276.5" xlink:href="#linear-gradient-17_2"/><linearGradient id="linear-gradient-53_2" x1="591.1" x2="633.3" y1="265.2" y2="286.9" xlink:href="#linear-gradient-17_2"/><linearGradient id="SVGID_76_14-9" x1="606.3" x2="646.8" y1="329.3" y2="329.3" gradientTransform="rotate(-8.1 470 321.5)" xlink:href="#SVGID_76_14"/><linearGradient id="linear-gradient-54_2" x1="619.5" x2="656" y1="282.7" y2="282.7" xlink:href="#linear-gradient-18_2"/><linearGradient id="linear-gradient-55_2" x1="564" x2="599.5" y1="388.9" y2="390.5" gradientUnits="userSpaceOnUse"><stop offset=".2" stop-color="#fff7cc"/><stop offset=".3" stop-color="#fff2cf"/><stop offset=".4" stop-color="#fee5d7"/><stop offset=".5" stop-color="#fdcee4"/><stop offset=".6" stop-color="#fcbdee"/><stop offset=".6" stop-color="#f9bdee"/><stop offset=".6" stop-color="#cabef5"/><stop offset=".7" stop-color="#b7bef7"/><stop offset=".7" stop-color="#b7c2f6"/><stop offset=".7" stop-color="#b6cff4"/><stop offset=".8" stop-color="#b4e5f1"/><stop offset=".8" stop-color="#b4e6f1"/></linearGradient><linearGradient id="linear-gradient-56_2" x1="571.9" x2="603.1" y1="387.9" y2="387.9" xlink:href="#linear-gradient-17_2"/><linearGradient id="linear-gradient-57_2" x1="571.9" x2="603.9" y1="389" y2="389" xlink:href="#linear-gradient-18_2"/><linearGradient id="linear-gradient-58_2" x1="496.6" x2="559.5" y1="298" y2="378.5" gradientUnits="userSpaceOnUse"><stop offset=".2" stop-color="#fff7cc"/><stop offset=".3" stop-color="#fff2cf"/><stop offset=".3" stop-color="#fee5d7"/><stop offset=".4" stop-color="#fdcee4"/><stop offset=".5" stop-color="#fcbdee"/><stop offset=".5" stop-color="#f9bdee"/><stop offset=".5" stop-color="#cabef5"/><stop offset=".6" stop-color="#b7bef7"/><stop offset=".6" stop-color="#b7c2f6"/><stop offset=".7" stop-color="#b6cff4"/><stop offset=".8" stop-color="#b4e5f1"/><stop offset=".8" stop-color="#b4e6f1"/></linearGradient><linearGradient id="SVGID_118_14" x1="491.7" x2="648.8" y1="283.3" y2="381" gradientUnits="userSpaceOnUse"><stop offset=".2" stop-color="#fff6db"/><stop offset=".3" stop-color="#fdeed5"/><stop offset=".4" stop-color="#f8d8c6"/><stop offset=".5" stop-color="#efb4ac"/><stop offset=".6" stop-color="#e89999"/><stop offset=".7" stop-color="#eaa2a0"/><stop offset=".8" stop-color="#f1bcb2"/><stop offset=".9" stop-color="#fbe5cf"/><stop offset="1" stop-color="#fff6db"/></linearGradient><linearGradient id="linear-gradient-59_2" x1="493.5" x2="531.1" y1="387.7" y2="387.7" xlink:href="#linear-gradient-18_2"/><linearGradient id="linear-gradient-60_2" x1="473.9" x2="547.2" y1="373.8" y2="373.8" xlink:href="#linear-gradient-17_2"/><linearGradient id="linear-gradient-61_2" x1="563.8" x2="594.7" y1="260.1" y2="362.3" gradientUnits="userSpaceOnUse"><stop offset="0" stop-color="#9dc0e0"/><stop offset="1" stop-color="#7eced5"/></linearGradient><linearGradient id="SVGID_76_14-10" x1="464" x2="506.5" y1="344.8" y2="358.5" xlink:href="#SVGID_76_14"/><linearGradient id="SVGID_76_14-11" x1="564.2" x2="597.7" y1="380.8" y2="380.8" xlink:href="#SVGID_76_14"/><filter id="luminosity-noclip" width="17.6" height="32766" x="519" y="-8527.9" color-interpolation-filters="sRGB" filterUnits="userSpaceOnUse"><feFlood flood-color="#fff" result="bg"/><feBlend in="SourceGraphic" in2="bg"/></filter><filter id="luminosity-noclip-2" width="12.7" height="32766" x="552.6" y="-8527.9" color-interpolation-filters="sRGB" filterUnits="userSpaceOnUse"><feFlood flood-color="#fff" result="bg"/><feBlend in="SourceGraphic" in2="bg"/></filter><filter id="luminosity-noclip-3" width="17.6" height="32.9" x="519" y="242.4" color-interpolation-filters="sRGB" filterUnits="userSpaceOnUse"><feFlood flood-color="#fff" result="bg"/><feBlend in="SourceGraphic" in2="bg"/></filter><filter id="luminosity-noclip-4" width="12.7" height="16.1" x="552.6" y="217.8" color-interpolation-filters="sRGB" filterUnits="userSpaceOnUse"><feFlood flood-color="#fff" result="bg"/><feBlend in="SourceGraphic" in2="bg"/></filter><radialGradient id="SVGID_106_15" cx="311.9" cy="-80.3" r="158.6" gradientTransform="rotate(-21.4 682 253.2)" gradientUnits="userSpaceOnUse"><stop offset="0" stop-color="#83dee7"/><stop offset=".3" stop-color="#80dde7"/><stop offset=".5" stop-color="#77d9e5"/><stop offset=".6" stop-color="#67d2e3"/><stop offset=".8" stop-color="#50c9df"/><stop offset=".9" stop-color="#33bddb"/><stop offset="1" stop-color="#1db4d7"/></radialGradient><radialGradient id="SVGID_88_14" cx="4904.1" cy="242.8" r="70" gradientTransform="matrix(-1 0 0 1 5121.2 0)" gradientUnits="userSpaceOnUse"><stop offset="0" stop-color="#83f7c7"/><stop offset=".2" stop-color="#4cddc6"/><stop offset=".4" stop-color="#15c2c4"/><stop offset=".5" stop-color="#00b8c4"/><stop offset=".5" stop-color="#04abbb"/><stop offset=".7" stop-color="#1186a0"/><stop offset=".8" stop-color="#1a6c8d"/><stop offset=".9" stop-color="#205c81"/><stop offset="1" stop-color="#22567d"/></radialGradient><radialGradient id="SVGID_88_14-2" cx="585.8" cy="273.9" r="83.3" xlink:href="#SVGID_88_14"/><mask id="mask-3" width="17.6" height="32.9" x="519" y="242.4" maskUnits="userSpaceOnUse"><g filter="url(#luminosity-noclip-3)" mask="url(#mask)"><path fill="url(#SVGID_23_14)" d="M535.2 256.8v-2.3a27.5 27.5 0 01-10.4-12 92 92 0 00-.3 8.3 10.4 10.4 0 00.3 1.7l.2 1.4-1.2.7-3.2 1.7-1.6.9a38.1 38.1 0 0017.7 18.1 45.5 45.5 0 01-1.6-11.8l.1-6.7z" style="mix-blend-mode:multiply"/></g></mask><mask id="mask-4" width="12.7" height="16.1" x="552.6" y="217.8" maskUnits="userSpaceOnUse"><g filter="url(#luminosity-noclip-4)" mask="url(#mask-2)"><path fill="url(#SVGID_23_14-2)" d="M552.6 217.8a20.6 20.6 0 011.5 4.2l.1.8v.3l.1 1v1l.2 2.6.4 1.4a1.5 1.5 0 010 .3l.5.6 1.1 1.8a23.5 23.5 0 011.6 2.2 43 43 0 017-9.5l-2.6-1.5-10-5.2z" style="mix-blend-mode:multiply"/></g></mask><style>.cls-33{fill-rule:evenodd}.cls-16{fill:#6cedfd}.cls-17{fill:#83f6ff}.cls-19{fill:#71d4ff}.cls-33{fill:#efe5ff}.cls-56{fill:#b0b9aa}.cls-60{fill:#5ecfd1}.cls-61{fill:#fff7cc}.cls-65{fill:#22567d}.cls-68{fill:#e12bb8}.cls-92{fill:#146b87}</style></defs><g style="isolation:isolate"><g id="Слой_2" data-name="Слой 2"><g id="Слой_1-2" data-name="Слой 1"><path fill="url(#SVGID_106_15)" fill-rule="evenodd" d="M381.3 62.7l1 2.8a97.9 97.9 0 015.7 28.4 98.8 98.8 0 01-169.9 73.3l-4-4.5a98.8 98.8 0 0130.4-151.9 83.3 83.3 0 018.7-4 99.4 99.4 0 0121-5.6A91.8 91.8 0 01287.2 0a98.8 98.8 0 0194 62.6z"/><path fill="url(#SVGID_65_15)" fill-rule="evenodd" d="M347.7 19l-.7-.1a20.8 20.8 0 00-4.3-.7c-1.2 0-2.3.2-3.4.3a25.6 25.6 0 01-5.7-.6c-2.2-.5-4.4-.4-6.7-.8C321 16 316 11.7 311 8.5a26.3 26.3 0 01-3-2.2 7.8 7.8 0 00-2.3-1.2c-1.9-.8-4-1.5-6.1-1-1.3.3-2 1.3-3 2.2-1.2 1.3-1.6 1.7-.2 2.7 2.4 1.8 5.7 3.4 4.5 7a51.6 51.6 0 01-2.4 6.9c-1.2 2.4-1.9 5.7-4.3 7.4-1.8 1.2-4.2.5-6.3.5a20.7 20.7 0 00-5.6.3c-1.4.4-2.3 1.3-3.6 2-1.9 1.1-4.3 1.6-6 0-.6-.6-.5-.9-1.4-1.1a8.7 8.7 0 00-3 .1c-2.7.4-5.2 1.7-7.8 2a46.7 46.7 0 01-5.4.2c-1.2 0-2.4.4-3.5.3-.6-.1-1.3-.5-2-.6a7 7 0 00-5 .3 32.4 32.4 0 00-10.8 7.6c-1.7 2-1.3 3.3.3 5 1.3 1.6 3.7 3.2 4 5.3.2 1.7-.5 3.5-.5 5.2s0 3.3 1.3 4.6c2.2 2 5.3 3.1 7.6 5 2.7 2 5.3 6.3 3.2 9.4a14.2 14.2 0 00-1.7 5c-.3 1.2-.4 3-2 3.2-1 .2-2.2-.8-3.2-.7a3.5 3.5 0 00-2.6 1.7c-1 1.4-2.6 3-3.2 4.6-1.1 3 .8 7.5 3 9.5 2.6 2.4 5.1 5 8.9 5.3 2.3.2 4.8-.7 6.9 1 1.2 1.1 1.5 2.5 2.4 3.8a34.5 34.5 0 012.7 3.7 24.1 24.1 0 002.3 3.8 51.7 51.7 0 004 5c1.7 1.7 4 2.6 6 3.9 1.8 1.2 3.6 1.4 5.5 2.3 2 1 4.4 1.6 6.1 3.1 1.3 1.2 2.5 2.6 3.9 3.7 3.9 3.1 7-1.1 9-4.2a27.9 27.9 0 003.7-6.3 30.9 30.9 0 012.4-5.6 41.2 41.2 0 013.4-5 6.5 6.5 0 001.4-1.8 5.6 5.6 0 00-.1-3.9c-1-2.7-1.9-6.4-3.6-8.7-1.8-2.6-4.8-1.1-7.1-.3-1.3.5-3 1-4.1 0s-1.4-2.3-2.6-3.2a3.3 3.3 0 00-4 0c-.6.4-1 1-1.6 1.3s-1.3.2-1.6 1c-.7 1.6 1.7 2.4 2.8 3 1.9 1.1 2.1 1.4 2 3.6-.2 1.2-.5 3.2-2 3.2-1.2 0-2.7-1.9-3.6-2.4-4-2.2-7.9-4.4-6.6-9.7.4-1.6 1.3-1.8 2.2-3.1s.7-3.2 1.7-4.5c1.3-1.7 4.2-2.2 6.1-3a40.1 40.1 0 017.6-2.1 11.9 11.9 0 014.6.2c1.6.3 2.9-.9 4.5-1.1 3-.5 4.9 1 7.3 2.3s3.4 2.7 5 5a68.3 68.3 0 018.3 14.4c1.7 4.4 3.1 9.2 5.8 13a39.2 39.2 0 004.2 5.3c.5.5.7.2.8 1a11.5 11.5 0 01-.2 3c-.3 1.4-1.7 3-2.3 4.4a26.4 26.4 0 01-2.5 3.7c-1.2 1.8-2.5 3.4-3.8 5.1-2 2.8-.5 6.4-2 9.6-2.2 4.4-5.8 6.6-9.4 9.8-3 2.5-6 4.8-8.4 7.6-1.6 1.8-2.6 3.8-4.4 5.4-2.3 2.1-5 3.6-7.4 5.4a20 20 0 01-6.4 3.2 29.2 29.2 0 00-4.4 1l-8.3 3.3c-1.5.5-3 .3-4.6.3h-4.8c-4.2 0-9.7 1.5-13.5-.9-1.1-.7-2.1-1.6-3.3-2.3a19.8 19.8 0 00-3-.8 16.8 16.8 0 00-2.4-.8 13.1 13.1 0 01-3.5-1.4 11.8 11.8 0 00-3.4-.9 8.7 8.7 0 01-2.1-.2c-.7-.4-.6-.7-1-1.4s-1-1.1-1.4-1.8c-1.2-1.8-3.2-3.7-5.6-4a14 14 0 01-3.3-.6 9.4 9.4 0 01-5-3.5 1.6 1.6 0 000 .2 99 99 0 0061.3 29.9l1.6-1.6c1.5-1.7 3.2-2.3 5.3-3a46.4 46.4 0 007.6-4 40.2 40.2 0 016.8-3.1c3-1.2 5.7-3 8.7-4.1s5.8-1.3 8.8-1.7c4.3-.7 8-3.5 11.6-5.8 1.6-1 3-2.7 4.6-3.7 1-.5 2.1-.9 3.1-1.6a30.9 30.9 0 018.6-3.7c2-.5 3.2.6 4.9 1s3.4-1.2 5-1.6a6 6 0 015.4 1.9A99 99 0 00388 93.9c-2.5 1-5.6 4.6-7 5-1 .3-2 0-3 .5a12.7 12.7 0 00-2.3 1.4c-1.2.8-2.7 1.8-4 .8s-.8-3.9-3-3.4c-1 .2-1.5 1.3-2.7 1.6a11.7 11.7 0 00-2.8.7 31 31 0 00-4.2 2.3 5.2 5.2 0 01-2.2.5 13 13 0 01-2.4.6c-2.1-.3-1.3-2.7-1-4a17.3 17.3 0 00.5-2.3 5.8 5.8 0 00-.4-1.8 8.4 8.4 0 011.3-5.6 31.4 31.4 0 003.3-8 7.3 7.3 0 00.3-3.3l-.5-2.8a18.7 18.7 0 01-.2-3.2c0-1.5-.6-3-.7-4.5 0-1.3.3-4.1 1.1-5.2.4-.5 1-.7 1.4-1.2s.2-1.2.8-1.7c1.1-1.1 4.3-1 5.7-1a18 18 0 017 1.4 36.3 36.3 0 015.8 3.4 8.5 8.5 0 003.5 1.4l-1-2.8A98.3 98.3 0 00347.7 19zM317 80.4c0 .7-1.1 1.6-1.7 1.7-1.2.3-2.7-.7-3.9-1a5 5 0 01-3-2.4l1.2.2c-1.3-.8-3.2-1.4-2.7-3.4a1.9 1.9 0 012.1-1.5 11.4 11.4 0 015.1 1 4.7 4.7 0 011.9 2.8 11.8 11.8 0 011 2.6zm-1-59.6a5.5 5.5 0 01-1.8 3.1 10.7 10.7 0 01-2.7 1.8c-2 .8-4.5 0-6.3-.7-1.1-.3-3.7-1.5-.8-1.7a5 5 0 01-1.4-1.8 9.7 9.7 0 01-.3-1.8c-.2-1.3.2-2.6 0-3.9a15 15 0 00-.5-3c-.2-1-.8-1.6-.2-2.5a1.1 1.1 0 011.3-.5 9 9 0 012 1l1.8 1c1.9 1 3.3 2.8 5 4a11 11 0 012.7 2 4 4 0 011.2 3zm53 31.7c-.3 2-2.6 3.4-4.2 4.4a24.3 24.3 0 01-8.5 2 6.6 6.6 0 01-3.1-.1c-1.1-.4-2.5-.3-.9-.7a39.9 39.9 0 01-2.7-3.8c-1-1.7-2.5-3.1-3.7-4.7-2-2.6-4.5-5.7-5-9-.2-2.3.5-5 2.3-6.4a9 9 0 014.6-1.8 15.3 15.3 0 015.8 1 10.5 10.5 0 014.8 3.3c.9 1 1.5 2.4 2.5 3.4l1.3 1.5a7.8 7.8 0 002 1.6c1.1.8 2 1.3 2.6 2.5s.9 2.3 1.3 3.5a6.4 6.4 0 01.9 3.3z" opacity=".3" style="mix-blend-mode:multiply"/><path fill="url(#SVGID_72_15)" fill-rule="evenodd" d="M234 89.9c0 1 0 3.2-.8 4s-2.6.3-3.6.1a14.5 14.5 0 00-2.6-.3 15 15 0 01-2.1.3 6.6 6.6 0 01-2-.4c-.5-.3-.8-.8-1.2-1.2a31.9 31.9 0 01-2.4-3.9 4.8 4.8 0 01-.7-2.4l-.4-3.7a23 23 0 010-5.4 6.7 6.7 0 012.1-3.8L222 72a10.6 10.6 0 011.8-1.7 4.8 4.8 0 011.3-.6 3.5 3.5 0 011.5.1 3.6 3.6 0 011.9.5 5.5 5.5 0 011.4 1.3c.8 1 1.8 1.9 2.5 3a7.6 7.6 0 011.4 4.4 27.1 27.1 0 00.6 4.6 12.3 12.3 0 01.2 4.3 18.1 18.1 0 00-.5 2z" opacity=".3" style="mix-blend-mode:multiply"/><path fill="url(#SVGID_2_15)" fill-rule="evenodd" d="M228.7 99.8a3 3 0 00-.3 1.8c.9.1 1.4 1.5 2.5 1.3.2-.8 1.3-2 .3-2.7l-.7-.1c-.2-.1-.4-.4-.7-.4a7.4 7.4 0 00-2.2.8z" opacity=".3" style="mix-blend-mode:multiply"/><path fill="url(#SVGID_77_15)" fill-rule="evenodd" d="M250.7 99.6a5.7 5.7 0 001.9 1.3l2.1.7a23.3 23.3 0 014 1.3c1.1.6 1.2 1.5 1.7 2.5l1.2 1.8a7.8 7.8 0 01.6 1 6.3 6.3 0 00.5 1.2c.6.8 1.5 1.2 2 2a5.5 5.5 0 001.5 1.7 5.7 5.7 0 001.6.5 7.2 7.2 0 012 1c2 1.3 3 3.6 5 5 1.8 1.3 4.5-.3 6.3-.7h1c.3-.1.5-.6.7-.8a3 3 0 011.6-.8c.3 0 .2.3.7 0a2.2 2.2 0 00.5-1.2 2.8 2.8 0 00-.8-2.4l-1.8-2.4a21 21 0 01-1.7-2l-1-2.4c-1.2-1.9-2.7-2.4-4.6-3.2-1.8-.8-4.3-1-5-3.2-.3-.8 0-1 .3-1.7a9.8 9.8 0 01.5-2.6 8 8 0 011.2-1 17.3 17.3 0 001.7-1.6c.5-.6.3-1.1.6-1.9.1-.4.2-.2.5-.6a3 3 0 00.6-1.1 7.8 7.8 0 00.6-2.6 5.8 5.8 0 01.4-2.2 21.6 21.6 0 011.4-2.6 6.6 6.6 0 012-2.2 8.4 8.4 0 011.4-.5 11 11 0 003.3-2.8c1.5-1.4 3.4-4.6 5.8-3.3.8.3 1.1 1.2 2 1.4 1.7.6 3-1 4.2-2a23.2 23.2 0 004.4-6.7c.7-1.5 1.3-2.8.8-4.5-1.1-3.3-4.6-4.4-6.3-7.4s-1.5-6.5-2.2-9.6a7.5 7.5 0 00-2.6-4.4 6.4 6.4 0 00-1.8-.7c-1.3-.4-1.9.3-3 .6a3 3 0 01-1.9-.3c-1.8-.7-4.2 1-5.9 1.6a16.6 16.6 0 01-7.8 1.3 74.1 74.1 0 01-9.1-1.7A44.6 44.6 0 00255 40a11.4 11.4 0 00-4.8.8 6.5 6.5 0 00-4.4 4.1c-.7 2.1.3 2.7 1.5 4.2.4.5 1.4 1.4 1.2 2.2-.1 1-1.9 1.4-2.7 1.8s-2.5.6-2.6 1.6c0 .8.8 2.2 1.1 3s.4 1.5 1.1 1.9c.6.3 1.1 0 1.7.1 1 .2 1.5.8 2.3 1.4a8.3 8.3 0 002 .7 10.3 10.3 0 002.4 1c1.5.2 2.5-.6 4 0a3.4 3.4 0 003 .7c1 0 2.7 0 3.3 1.1s-.7 2.5-1.5 3.2-2 1-2 2.1c.2 1 1 1.5.7 2.5-.7 3.1-4.8 2.5-7 3.4-3.5 1.5-4.2 5.1-5 8.4l-.3.9v1.2a2.9 2.9 0 01-.9 1.7 4.9 4.9 0 01-1.8 1.5 29.4 29.4 0 00-2.7 1c-1.7 1-1.5 3.2-.4 4.6.7 1 2.2 1.2 3 2a14.4 14.4 0 002.2 1.7 15 15 0 001.5.6c.7.2 1.1.9.8.2z" opacity=".3" style="mix-blend-mode:multiply"/><path fill="url(#SVGID_82_15)" fill-rule="evenodd" d="M319.9 84.3a9 9 0 00.8 2.6c.3.7.8 1.3 1 2.1 1 2 1.4 4.2 2.2 6.2a18.4 18.4 0 001.8 3.1c.8 1.4.9 3 1.5 4.5.8 2.1 1.7 4.2 3.7 5.4a2.6 2.6 0 002.4.3c.8-.2 1.3-1 2.1-1.2a5.1 5.1 0 012 .1h2.8a5 5 0 012.2.5c.7.3 1.5.3 2 1s-.2 1.4-.4 2.2a9.7 9.7 0 01-2 4 2.5 2.5 0 01-2 1 2.7 2.7 0 00-2.4.8 8.8 8.8 0 00-1.6 3.8 4.9 4.9 0 000 1c.2.6 0 .2.5.5s.9.6 1.1 1.2a7.7 7.7 0 01.3 3.3 5.3 5.3 0 01-.6 2 22 22 0 01-1 2c-1 1.3-1.3 2.7-2.4 4a32.8 32.8 0 00-3.2 4.6c-2.1 3.4-4.7 6.3-5.2 10.4-.2 1 .1 2.9 1 3.6a11.4 11.4 0 001.4.5 6.3 6.3 0 011.7 1.7 7 7 0 002.5 2 6.3 6.3 0 003.2-.3l1.6-.6a11 11 0 001.2-.1c1.6-.6 2.8-1.1 4.6-.8a4.9 4.9 0 011.6.7 15.8 15.8 0 001.8 1.3c1.3.5 3-1.2 3.8-1.9 1.2-1 2.4-2.6 4-3 1-.1 2 .4 3 .3a15.1 15.1 0 014 .2 2.4 2.4 0 001.5 0c1.8-.6 3.1-2.3 4.3-3.7 1.4-1.7 2.5-3.6 4-5.3a22.4 22.4 0 003.4-5.7 53.3 53.3 0 013.3-5.5l2.4-4.2a36.5 36.5 0 002-4.6 20.7 20.7 0 001.3-3.6c.3-1.5.5-3 1-4.4a22.3 22.3 0 001-4.4c.1-1.4.2-4.1-1.8-4.4-1.5-.2-3.2 1-4.5 1.4-2.2.8-4.3 0-6.3-1-1.5-.8-3-1.9-4.6-2.6-.8-.3-1.8-1-2.7-1a5.2 5.2 0 00-2 .9 12 12 0 01-4.5 1.8c-1.4.3-3.4.6-4.7 0a23.3 23.3 0 01-2.5-1.5c-1.2-.7-1.7-2.7-1.7-4 0-2.8-.8-5.6-.7-8.4 0-1.8 2.2-2.1 3.2-3.4a10.7 10.7 0 001.4-3.2 19.5 19.5 0 011.7-2.7 5.3 5.3 0 00-2.1-8 5 5 0 00-5.7.5 25.9 25.9 0 00-2 1.7 14 14 0 01-2.6 2.6c-4.1 2.4-8.8 1.4-13.2.8a17.1 17.1 0 00-6.3 0 2.8 2.8 0 00-2.2 1.3 14.5 14.5 0 01-1.6 1.6c-.7.6-1 1.5.2 0z" opacity=".3" style="mix-blend-mode:multiply"/><path fill="url(#linear-gradient)" d="M385 299.8l34.5 6.6 11.8 9.4-26.2 36-20.1-52z"/><path fill="url(#linear-gradient-2_2)" d="M385 299.8l22.7 24.7 11.9-18.1z"/><path fill="url(#linear-gradient-3_2)" d="M407.7 324.6l23.6-8.8-11.8-9.4z"/><path fill="url(#linear-gradient-4_2)" d="M407.7 324.6l-2.6 27.2 26.2-36z"/><path d="M431.3 315.8l-24 8.3.4.4z" class="cls-16"/><path d="M407.7 324.6Q387.7 303 388 303t20.3 20.9z" class="cls-17"/><path fill="url(#linear-gradient-5_2)" d="M419.6 306.4l-11.9 18.2 23.6-8.8z"/><path d="M405.1 351.8l2.6-27.3-1.9 26.4z" class="cls-19"/><path fill="url(#linear-gradient-6_2)" d="M0 42l110.4 21L148 93 64.3 208.2 0 42z"/><path fill="url(#linear-gradient-7_2)" d="M0 42l72.6 79 37.8-58z"/><path fill="url(#linear-gradient-8_2)" d="M72.6 121L148 93l-37.6-30z"/><path fill="url(#linear-gradient-9_2)" d="M72.6 121l-8.3 87.2L148 93z"/><path d="M148 93a2.4 2.4 0 00-.3-.2l-76.4 26.8 1.3 1.4z" class="cls-16"/><path d="M72.6 121Q8.8 52.5 9.2 52T74 119z" class="cls-17"/><path fill="url(#linear-gradient-10_2)" d="M110.4 63l-37.8 58L148 93z"/><path d="M64.3 208.2q7.9-87.2 8.3-87.2t-6.1 84.2z" class="cls-19"/><path fill="url(#linear-gradient-11_2)" d="M443 92l56.4 10.7 19.1 15.3-42.7 58.8z"/><path fill="url(#linear-gradient-12_2)" d="M443 92l37 40.3 19.3-29.6z"/><path fill="url(#linear-gradient-13_2)" d="M480 132.3l38.5-14.3-19.2-15.3z"/><path fill="url(#linear-gradient-14_2)" d="M480 132.3l-4.2 44.5 42.7-58.8z"/><path d="M518.5 118v-.1l-39 13.7.6.7z" class="cls-16"/><path d="M480 132.3q-32.5-35-32.3-35.2t33 34.2z" class="cls-17"/><path fill="url(#linear-gradient-15_2)" d="M499.4 102.7L480 132.3l38.4-14.3z"/><path d="M475.8 176.8q4-44.5 4.3-44.5t-3.2 43z" class="cls-19"/><path fill="url(#SVGID_409_15)" fill-rule="evenodd" d="M466.6 429.4s-4.5 68.3 0 96.6c0 0 5.7 16.5 30.8 23.7v54.4s43.2 9.7 57.7-6.2 76.6-183 76.6-183l-75 8.3z"/><path fill="url(#SVGID_463_15)" fill-rule="evenodd" d="M466.6 429.4s53-4.4 61.7-9.7l18.2-8.8 85.2 4.1a255.6 255.6 0 01-23 14.4c-11.5 6.2-65.3 9.7-88.3 8s-53.8-8-53.8-8z"/><path fill="url(#SVGID_432_15)" fill-rule="evenodd" d="M466.6 526l27.2 5.1 14.5-5.1 9.3-57v56.8l4 21.4 26.5 10.1s18.3-8.1 21.4-20.2L595.8 433l36-18s-47 136.3-68 168l-15.6 24-48.3 8.8-6.1-17.9 3.6-48.2s-29.4-8-30.8-23.7z"/><path d="M528.4 419.7s24.4 3.3 33.6 3 29.1-3 29.1-3-30.7-9.9-44.7-8.8c0 0-15.3 3.5-18 8.8z" class="cls-33"/><path fill="url(#SVGID_155_15)" fill-rule="evenodd" d="M240 478.9s-7.2 36-6.4 44.6 17.3 27.8 17.3 27.8 17.4 37.4 23 55.7 24.3 41.6 24.3 41.6 112.6 17.5 143.4 17.5 46.3-14.4 46.3-14.4 43.5-75.5 47.3-79.2 25.4-11.5 25.4-11.5 35.2-63.6 38-80.3l-97.9 4z"/><path fill="url(#SVGID_166_15)" fill-rule="evenodd" d="M240 478.9l46.3-5.8 27-4.6s127.2.3 163.8 2.4c0 0 30.5-12.3 38.8-12.6s24.4 14.7 24.4 14.7l58.3 7.7s-26.6 9.2-47.1 8.8l19.5 6.6a37.9 37.9 0 01-12.3 6.2c-7.8 2.4-66.1 4-93.8 3.8S425 496 425 496l12.7-4.8-15-1.8s-45.3 8-62.6 8.5-39.5-3.7-39.5-3.7l-1.6-5.8s-47-2.7-79-9.6z"/><path fill="url(#SVGID_173_15)" fill-rule="evenodd" d="M308 487.7v25.2l-25.5 4.3s-1.1.5-4 7.7-15.8 25.1-15.8 25.1l-11.8 1.3 9.5 21.2s13.7.1 19 3.5 17.6 13.5 17.6 13.5l7.2 19.8s7.3-36.7 7.7-42.5 7.6-30.6 6.5-34.8.4-20.6.4-20.6l2-17s37 5 40.8 6.4 5.5 16.9 5.5 16.9l12.6 29-14 42.5 5.4 36 1.7 27.1 20.1 21.5h15.9s13-70.3 14-74.7-3.4-14.5-3.4-14.5l6.3-44.2-.6-44.3 12.7-4.8-15-1.8s-47 7-54.8 7.8-47.4-6.6-47.4-6.6l23.7-5.8z"/><path fill="url(#SVGID_178_15)" fill-rule="evenodd" d="M511 506.1l31.8 5.3-5 12.1-13.8 33.2-16.6 15.8-18.6 6.9-14.5 10H487l-1 13.5-6.7 32-.4 22.8 8.5-1.2s34-61.5 47.8-84c0 0 23.1-7.1 25.5-11.5s35-65.3 38-80.3l-47.1 8.8 19.5 6.6s-13.8 6.1-23 7.6-37 2.4-37 2.4z"/><path d="M477.1 471l-10.2 5s7.5 1.7 11.8 2.9 28.1-.7 32.4-2l19.9-6 .8-4.8s-11.7-10.5-15.2-10-33.3 11.8-39.5 14.8z" class="cls-33"/><path fill="url(#SVGID_186_15)" fill-rule="evenodd" d="M541.7 473.2l-9.9 5.7-15.5.4h-33.1s25.5-2.2 29.3-3 18.5-5.4 18.5-5.4l.8-4.9z"/><path fill="url(#SVGID_192_15)" fill-rule="evenodd" d="M308 512.9l10.8 25 1.8-47.2 23.7-5.8-36.2 2.8v25.2z"/><path fill="url(#SVGID_200_15)" fill-rule="evenodd" d="M551.5 489.5l19.5 6.6-8.4 61.3s26.3-50.1 36-76.7z"/><path fill="url(#SVGID_208_15)" fill-rule="evenodd" d="M368 497.3l24.9 24.2 15.4 16.4 3.1 14 13.9-8.7-.3-47 12.7-4.9-15-1.8-54.7 7.8z"/><path fill="url(#SVGID_409_15-2)" fill-rule="evenodd" d="M78.6 526.4s-4.4 68.3 0 96.6c0 0 5.7 16.5 30.9 23.7v54.4s43 9.7 57.6-6.2 76.6-183 76.6-183l-75 8.3z"/><path fill="url(#SVGID_463_15-2)" fill-rule="evenodd" d="M78.6 526.4s53-4.4 61.8-9.7l18-8.9 85.3 4.2a255.6 255.6 0 01-23 14.4c-11.5 6.2-65.4 9.7-88.3 8s-53.8-8-53.8-8z"/><path fill="url(#SVGID_432_15-2)" fill-rule="evenodd" d="M78.6 623l27.2 5.1 14.6-5.1 9.2-57v56.8l4 21.4 26.5 10.1s18.3-8.1 21.5-20.2S207.8 530 207.8 530l36-18s-47 136.3-68 168l-15.6 24-48.3 8.8-6.1-17.9 3.6-48.2s-29.4-8-30.8-23.7z"/><path d="M140.3 516.7s24.5 3.3 33.7 3 29.2-3 29.2-3-30.8-9.9-44.7-8.9c0 0-15.4 3.6-18.1 8.9z" class="cls-33"/><path fill="url(#SVGID_436_15)" fill-rule="evenodd" d="M710.7 336.1l-3.2 20.3s-10.7 3.6-12.4 7-8.5 66.5-8.5 66.5l-7.4 5.8s-4.7 11.5-8.4 10.2S663 429 663 429l-1.5-2c-.9-1.2-2.2-3-3.5-5.1a96 96 0 01-4.8-21l-1.1-8.2-19-4-2.3-4.6-15.6-9.5c-4.6-23.3.3-52.7.3-52.7 5.1-4 28.8-9.6 36.6-8.9a150 150 0 0124.5 6.4l.2.1 2.6 14.8c12.5-3.6 31.2 1.8 31.2 1.8z"/><path fill="url(#SVGID_443_15)" fill-rule="evenodd" d="M710.7 336.1l-3.2 20.3s-10.7 3.6-12.4 7-8.5 66.5-8.5 66.5l-7.4 5.8s-4.7 11.5-8.4 10.2S663 429 663 429l-1.5-2 3.9-1.7 6.9 6.1 3.2-8.4 1.9-46.8-10.2 3-12 13.8-2 7.8-1.2-8.2-18.8-4-2.4-4.6-15.7-9.5 10.7 1.8 1.5-10.9 3.7 16.2 4.9.2 11-3s3.6-7.1 4.6-11 3.4-28.4 3.4-28.4l.9-22.5 6-1.6 14.8 4.1h.2l2.6 15c12.5-3.7 31.2 1.7 31.2 1.7z"/><path fill="url(#SVGID_389_15)" fill-rule="evenodd" d="M715.9 479.4s-4 12.2-7 15.5-24.6 5-24.6 5-15.8-8.8-17.7-13.8a12.1 12.1 0 01-.5-2.5c-1.4-9.2-1.3-36.5 2-40.4 0 0 5.9-7.6 9.7-9.8s23.5 4.8 26.7 7.2a4.9 4.9 0 011.4 1.5l.1.2c1.7 3 1.8 7.7 1.8 8s4.7 2.8 5.6 5.2v.1c1 3 2.5 23.8 2.5 23.8z"/><path fill="url(#SVGID_396_15)" fill-rule="evenodd" d="M715.9 479.4s-4 12.2-7 15.5-24.6 5-24.6 5-15.8-8.8-17.7-13.8a12.1 12.1 0 01-.5-2.5c.4.4 6.9 6.5 11.3 7.8a14.7 14.7 0 008.5 0l1-7.8.9-11.5.8-12.8 2-6.8v12.3s5-4.1 5.3-7.2 2.6-8.2 2.6-8.2l7.4-7.4.1.3a12.2 12.2 0 011.8 8l-4.2 9.5-.5 9.7 2.5 11.3 4.6-6.4c1.3-2 1.4-8 1.4-8l1.8-10.9v.1a289 289 0 012.5 23.8z"/><path fill="url(#SVGID_400_15)" fill-rule="evenodd" d="M667.3 444.6l20 4.6h9l3.3-.9 6.3-6.3a6.7 6.7 0 00-4.2-4.7 335 335 0 00-22.7-5.9L677 433s-7.8 8.1-9.6 11.7z"/><path fill="url(#SVGID_403_15)" fill-rule="evenodd" d="M707.8 450.3l-4.2 9.5 5 1.2 4.1-1.5.7-3.9s-2.7-4-5.6-5.3z"/><path fill="url(#SVGID_389_15-2)" fill-rule="evenodd" d="M683 206.4s-2.4 7.5-4.2 9.4-15 3-15 3-9.6-5.3-10.8-8.4a7.4 7.4 0 01-.3-1.4c-.9-5.7-.8-22.2 1.2-24.6 0 0 3.6-4.6 6-6s14.2 3 16.2 4.4a3.2 3.2 0 01.8.9v.1a11.5 11.5 0 011.2 5s2.8 1.6 3.4 3v.1c.5 1.8 1.5 14.5 1.5 14.5z"/><path fill="url(#SVGID_396_15-2)" fill-rule="evenodd" d="M683 206.4s-2.4 7.5-4.2 9.4-15 3-15 3-9.6-5.3-10.8-8.4a7.4 7.4 0 01-.3-1.4c.2.2 4.2 3.9 6.9 4.7a9 9 0 005.2 0l.6-4.7.5-7 .5-7.8 1.2-4.1v7.4s3-2.4 3.3-4.3a23.3 23.3 0 011.5-5l4.5-4.5v.1a7.4 7.4 0 011.1 5l-2.5 5.7-.3 6 1.5 6.7 2.8-3.9c.8-1.3.9-4.8.9-4.8l1-6.6c.6 1.8 1.6 14.5 1.6 14.5z"/><path fill="url(#SVGID_400_15-2)" fill-rule="evenodd" d="M653.5 185.3l12.1 2.8h5.5l2-.6 3.8-3.8a4 4 0 00-2.5-2.8c-2.2-1-13.8-3.6-13.8-3.6l-1.3.9s-4.7 4.9-5.8 7z"/><path fill="url(#SVGID_403_15-2)" fill-rule="evenodd" d="M678 188.8l-2.5 5.7 3 .8 2.6-1 .4-2.3a10.2 10.2 0 00-3.4-3.2z"/><path fill="url(#SVGID_76_14)" d="M304.3 239.8l.5-2c-2.9-2.7-5.6-4-6.9-7.6a37.2 37.2 0 013.5-6.8l3.5-1.2-1-1.4a49.8 49.8 0 01.8-13.5 66.4 66.4 0 0110.1 1v2.7c5.9.8 10.6 3 15.8 5.7a119.3 119.3 0 01-3 27c-8.5 1.4-16.5.9-23.3-3.9z"/><path d="M304.6 220a61.6 61.6 0 011-11.7 39.3 39.3 0 017.6.9 51.1 51.1 0 00-1.5 11.4c-2 1-5 .6-7-.5zm23.8-3.2a61 61 0 00-13-4.7 23.4 23.4 0 00-2.5 9.1 52.5 52.5 0 0014 2.3 60.8 60.8 0 011.5-6.7zm-28.8 13.5c4.4-1 9.3-.7 13.8-.6a26 26 0 00.6-5.5c-2.7-.8-5.5-1.8-8.3-1.2a24.5 24.5 0 00-3.2 1 17.2 17.2 0 00-2.9 6.3z" class="cls-56"/><path fill="url(#linear-gradient-16_2)" d="M267.4 248.5c9 4.7 20.7 11.8 30.5 14.2 3.7-7.9 4.8-15.5 6.9-25a57 57 0 0022.9 5.5c-1.2 19-6.8 32-14.3 47.2a106.1 106.1 0 01-35.6-7.9c-10.5-4.5-10.8-22.6-10.4-34z"/><path fill="url(#linear-gradient-17_2)" d="M304.3 274.7c-6.9.7-15.9-2.7-21.9-4.7-4.4-1.4-8.7-3.2-13-4.9a89.3 89.3 0 01-.7-14.2l3.2 1.7c8.2 4.4 17.4 9.5 25.6 11.4l1.2.3.5-1c3-6.7 4.4-13.1 6-20.6l.6-3a52.5 52.5 0 007 2.6l-.2.4c-1.9 9.6-3.4 19.4-6.9 28.6a86 86 0 01-1.4 3.4z"/><path fill="url(#linear-gradient-18_2)" d="M313.4 290.4h-.7a75.6 75.6 0 00-17.7-28.6l2.9.9 1-2.3a79 79 0 0116 27z"/><path d="M268.6 296.6c-2.1-22-7.6-46-17.4-65.9a100.5 100.5 0 00-53.7 1c-6.8 2.2-14.5 5-17 11.8-1.8 4.6-.5 9.7 1.1 14.4a107.8 107.8 0 0040.5 53.1c13-5.8 32.3-14.7 46.5-14.4z" class="cls-60"/><path d="M195.4 245.9l-8.2 6.7a18.8 18.8 0 011.2-17.4l7 10.7z" class="cls-61"/><path fill="url(#linear-gradient-19_2)" d="M192 251c5.4 24 23 32.4 29.6 49.5a172.3 172.3 0 01-13.7 44.8 229.4 229.4 0 0177.8-5.5c-1.9-13.4-6.1-27.3-12.8-39.1a34.2 34.2 0 0013-19.7 88.4 88.4 0 00-19.8-31.8c-18.9-10-51-8-74.1 1.9z"/><path d="M280.4 276.1c-5.3 3.2-13 5-20.3 5a7.7 7.7 0 00-1-3.5 70.4 70.4 0 01-4-7.4 6.5 6.5 0 00-4.3-4l-3.3-5.1a7.7 7.7 0 00-1.4-6l-7.1-10.8c10.3.4 19.2 2.5 26.2 6.1a87 87 0 0116.7 24.9 8.6 8.6 0 00-1.5.8zM262 303.6c2-1.7 7.5-2 10.3-.6a112.9 112.9 0 0111.5 35c-5.6-.5-11.2-.8-16.8-.9-1.7-7.3-5.1-14.6-6.8-21.6a549 549 0 00-1.3-5.5c.6-2.6 1.5-5 3.1-6.4z" class="cls-61"/><path fill="url(#linear-gradient-20_2)" d="M210.4 280.7A69.3 69.3 0 01194 252a99.4 99.4 0 0113.8-4.4c-2.2 15.1 9.4 29 23.6 33.8a51.5 51.5 0 0048.1-2.3 31.4 31.4 0 003.2-2l1.6 4a32.5 32.5 0 01-12.2 18.2l-.8.6a6.9 6.9 0 00-1.4.6c-.3 0-.5 0-.8.2a6.8 6.8 0 00-6.4-.6c-12 4.4-21.4 12-27 23.7a78.9 78.9 0 00-5.4 15.5q-9.8 1.4-19.5 3.7a169.6 169.6 0 0012.5-42.2l.1-.5-.2-.4c-2.9-7.4-7.6-13.1-12.7-19.2z"/><path fill="url(#linear-gradient-21_2)" d="M206.8 348.2a249.6 249.6 0 0139.3-6.9 211.6 211.6 0 0139.8-.2 13 13 0 00-.4-2.7 218.3 218.3 0 00-39.7-.9 257.8 257.8 0 00-36.7 5 42.1 42.1 0 00-2.3 5.7z"/><path d="M239 278l1.2-.5-1-2-1-2-.1-.3-.4-.1A44.3 44.3 0 00225 272a69 69 0 01-5.3-13.3l-1.2.4A68.8 68.8 0 00224 273l.2.3h.4a44 44 0 0112.6 1l.8 1.7 1 2zm25.8 43.4h.6V320h-4a82.3 82.3 0 00-3.6-20.5 66 66 0 005.6-15.6V283.7a44.5 44.5 0 00-10.8-18.2l-1 1a43.1 43.1 0 0110.5 17.4 63.1 63.1 0 01-5.6 15.2l-.1.2v.3a79.6 79.6 0 013.6 21v.7h4.8z" class="cls-65"/><path d="M246 282.6a6.1 6.1 0 00-4.7-5.8 5.8 5.8 0 00-3.4.2c-4.5 1.8-4.4 7.5-.8 10a5.6 5.6 0 008.8-4.3z" class="cls-65"/><path d="M244.9 281.4a3.2 3.2 0 00-2.4-3 3 3 0 00-1.7 0 3 3 0 104.1 3z" class="cls-56"/><path fill="url(#SVGID_14_14)" d="M274.6 312.3a8 8 0 00-6.2 1.1c-2 1.5-2.9 4-3.2 6.4a14.5 14.5 0 00.6 7 9.2 9.2 0 005 5.3 10 10 0 0010.2-2c6.3-6 2-16-6.4-17.8z"/><path fill="url(#linear-gradient-22_2)" d="M273 324.5a4.7 4.7 0 002.5 2.7 5 5 0 005.2-1c3.2-3 1-8.2-3.3-9.1a4.2 4.2 0 00-3.1.5 4.6 4.6 0 00-1.7 3.3 7.4 7.4 0 00.3 3.6zm3-2.7a1.4 1.4 0 01.4-1 1.2 1.2 0 011-.2 1.6 1.6 0 011 2.7 1.5 1.5 0 01-1.6.4 1.4 1.4 0 01-.8-.8 2.2 2.2 0 010-1.1z"/><path d="M278.6 320.8a2.3 2.3 0 00-1.1-.6 2 2 0 00-.5 0 1.6 1.6 0 00-.2 0l-.2-.7a13.8 13.8 0 01-.3-2.1 4.3 4.3 0 011 0 5.7 5.7 0 012.9 1.6c-.5.5-1 1.3-1.6 1.8zm-2.9 2.8a.7.7 0 00.2-.1 1.8 1.8 0 00.7.6 1.8 1.8 0 00.8.1 2 2 0 001.3-.5 1.7 1.7 0 010-.1 8 8 0 001 2.7 4.9 4.9 0 01-2.2.7 4.3 4.3 0 01-1.8-.2 4.2 4.2 0 01-2-1.9 15.3 15.3 0 002-1.3z" class="cls-68"/><path d="M266.7 317c1.2-2.6 4.6-5.4 7.2-4.1a9 9 0 013.3 3.3 5.9 5.9 0 00-5.3 2.9c-1.6-.6-3.6-1.6-5.2-2.1z" class="cls-56"/><path fill="url(#linear-gradient-23_2)" d="M264 246c1 1.6 3.1 3.1 4.2 4.8-5.6 28.3-35.4 16.4-70.8-1.8a10.2 10.2 0 002.7-4.4c-7-12.5-12.7-26.6-13.4-41s4.8-29.7 16.6-37.8c12.2-8.5 31-7.4 43.5.5a52.1 52.1 0 0123.6 35.5c2.8 16.5.8 32.5-6.4 44.1z"/><path fill="#83ced7" d="M201.8 244.4l-.3-.6a101.4 101.4 0 01-12.5-33.1 83.8 83.8 0 013.6-10.3c1-2.2 2.2-4.4 3.4-6.5.1-.3 2-3.2 2-3.4l1.6-1.6a55 55 0 006.5 32.6c4.7 8 12.7 16.7 22 19.2L232 257c.5 2 1 4.2 1.7 6.3-10.3-3.2-22-8.8-33.6-14.7a12 12 0 001.6-3.4z"/><path fill="url(#SVGID_88_14)" d="M253 238.6a30 30 0 01-14.7 2 42.3 42.3 0 01-32.2-24 43.6 43.6 0 01-3.2-27.3c2.2-10.4 9-20.3 19-24 10.2-3.8 21.8 0 29.7 7.1s12.2 17.3 14.6 27.5c2.3 10.5 3.7 23.1-3.7 32a24.2 24.2 0 01-9.4 6.7z"/><path fill="url(#linear-gradient-24_2)" d="M248.3 250a2.7 2.7 0 01-1.6-2.1 6.5 6.5 0 01.4-2.8c.3-1.3 1-2.9 2.5-3a2.6 2.6 0 012.7 2c.4 2.1-1 7-4 6z"/><path d="M253.8 235a27.1 27.1 0 01-18.1 1 41 41 0 01-27-22.8 44.7 44.7 0 01-4-18 36.4 36.4 0 002 18.8 37.8 37.8 0 004.6 8.5 39.7 39.7 0 006.6 7.1 38.9 38.9 0 0017.4 8.3 30.2 30.2 0 009.6.5 20.1 20.1 0 008.9-3.3zm10.4-26.3c.4 4.1.6 9.5-4 11.4-2.4 1-5.2.2-7.3-1.2s-3.9-3.4-5.8-5.1c-4.2-3.7-9.4-6-14.6-8.2s-10.4-4.3-14.7-7.9-7.7-8.7-7.6-14.3a14.3 14.3 0 015.8-11.8 23.2 23.2 0 0113.1-4.8c18.5-1 30.8 17 34 33.3.6 2.9.9 5.8 1.1 8.6z" class="cls-61"/><path fill="url(#linear-gradient-25_2)" d="M268.1 250.8a27.3 27.3 0 01-4.3 9.3 15.2 15.2 0 01-8 5.6 25.7 25.7 0 01-9.9.7 57.8 57.8 0 01-10-2.1 174.1 174.1 0 01-19.4-7l-19.1-8.3q9 5.5 18.3 10a122 122 0 0019.6 7.8 58.5 58.5 0 0010.5 2 26.3 26.3 0 0010.7-1.1 16.1 16.1 0 008.4-6.8 24.2 24.2 0 003.3-10z"/><path fill="url(#linear-gradient-26_2)" d="M262.5 248a42 42 0 01-9.9 4.4 38.5 38.5 0 01-21.3.2 36 36 0 01-5.1-1.8 39.9 39.9 0 01-5-2.5 33 33 0 004.7 3 35.9 35.9 0 005.1 2.2 33.4 33.4 0 0022-.2 31.8 31.8 0 009.5-5.3z"/><path fill="url(#linear-gradient-27_2)" d="M145.7 279a118 118 0 0151-27.5 21 21 0 016.8 25.6c-9.4 3.2-18.9 7.2-28.1 10.8a71 71 0 0011.8 31.3 102.5 102.5 0 00-18.4 11.3c-9.8-15.5-17.3-34.1-23.1-51.4z"/><path fill="url(#SVGID_76_14-2)" d="M191.5 259.8a92 92 0 00-22 9.6 6.4 6.4 0 01.3.7c7.4-2.7 14.7-6.1 21.9-9.5l-.2-.9z"/><path fill="url(#SVGID_76_14-3)" d="M166.4 263.9l.8 1.2a114.1 114.1 0 0122.6-10.1l-.7-1.3a114.6 114.6 0 00-22.7 10.2z"/><path fill="#5c5063" d="M167.2 265a22 22 0 012.3 4.4 92 92 0 0122-9.7 18.3 18.3 0 00-1.7-4.7 114.1 114.1 0 00-22.6 10z"/><path fill="url(#linear-gradient-28_2)" d="M196.4 253a100 100 0 00-6.6 2 18.3 18.3 0 011.7 4.8 78.9 78.9 0 018.7-2 2.6 2.6 0 01.5 0 20 20 0 00-4.3-4.8z"/><path fill="url(#linear-gradient-29_2)" d="M147.3 279.5c6.8 20 14 36 22 48.9l6.1-4.3c-3.5-4.9-16.8-35.7-17.7-39.7a16.5 16.5 0 01-.2-3.9s6.3-7.6 10.8-10.4l1.2-.7a22 22 0 00-2.3-4.3 121.1 121.1 0 00-19.9 14.4z"/><path fill="url(#SVGID_76_14-4)" d="M187 319.4q8 1.6 16 2.6a19.8 19.8 0 013.4 11.6c0 .6-.7 1-1.4 1.2a30.5 30.5 0 011.8 6.2 8.4 8.4 0 01-5.5 4.2c-.8-.3-1.5-.8-2.2-1a91.5 91.5 0 01-13.9 7 63.8 63.8 0 01-16.3-20.9c-1.1-2.4.9-5 2.7-7a14.3 14.3 0 016.9-3.5 21.3 21.3 0 018.4-.4z"/><path d="M185.2 331.9c4.5-3 9.6-4.8 14.5-6.8l.7 1.5a7.2 7.2 0 01.6 1.7c.8 1.8 2 5.5 2 5.5l.7 1.6a29.7 29.7 0 011.5 5.3 7 7 0 01-3.7 3 21.8 21.8 0 00-6.3-10.5 78.2 78.2 0 013 9.8 91 91 0 01-12 6.2 125.9 125.9 0 00-8.3-10.2 35.8 35.8 0 017.3-7.1zm16.4-8.4c1.5 3.3 2.8 6.8 4 10.2a.6.6 0 00.3-.2 23.3 23.3 0 00-3.1-11.1z" class="cls-56"/><path fill="url(#linear-gradient-30_2)" d="M147.2 277.7a69 69 0 0113.3 2 65.8 65.8 0 0110.4 3.5 52.4 52.4 0 017 3.7l-2.5 1 .4 2.4a47 47 0 00-6.4-3.8 61.5 61.5 0 00-9.7-3.7 66.6 66.6 0 00-13.6-2.6l-.4-1 1.5-1.5z"/><path fill="url(#linear-gradient-31_2)" d="M202.5 468.1a62.2 62.2 0 0010.7-42.7 36.9 36.9 0 00-26.2.3c-2 15.2 2.8 31 15.5 42.4z"/><path fill="url(#linear-gradient-32_2)" d="M210.6 439.9c-11.6-1.6-13.5 12.8-11.6 22.8a46.6 46.6 0 01-10.8-36 34.8 34.8 0 0112.4-2.3 35.2 35.2 0 0111.5 2 46 46 0 01-.1 14 2.9 2.9 0 00-1.4-.5z"/><path fill="url(#linear-gradient-33_2)" d="M280.9 339.7A200 200 0 00207 348a167.2 167.2 0 00-9.4 92.2c5.6 2.7 17 4.2 23.2 3.4a173.2 173.2 0 0121.6-58.5c18.2-6.2 39.3-9.5 58-5.4a458.6 458.6 0 01-8.6 62.6c-4.4 4.4-9 9.9-11.6 15.8a84.3 84.3 0 0035.3 18.8 157.4 157.4 0 00-11.7-33.6 199.8 199.8 0 0037.8-97.3c-18.9-8-40.6-9.7-60.7-6.2z"/><path fill="url(#linear-gradient-34_2)" d="M208 349a197.4 197.4 0 0120.7-5 8.7 8.7 0 00-1 2.3 729 729 0 00-11.8 59.6c-1.8 12.5-4 23.8-4.1 36.3a49.5 49.5 0 01-13.2-3A165.8 165.8 0 01208 349z"/><path fill="url(#linear-gradient-35_2)" d="M293 442.8v-.4a453 453 0 008.8-62.7v-1.1l-1-.3a85.5 85.5 0 00-18-1.8 124.6 124.6 0 00-33.5 5 35.7 35.7 0 015.3-5.3A88.4 88.4 0 01287 362c7.5-2 15.5-4.2 23.3-4.3 6.5-.1 12.8 1.3 19.3 1.6l1.1.6-.2 1.7c-2 7.6-6.3 14.6-9 22q-6.6 17.7-13.7 35.3c-3.8 9.4-10.3 30-10.3 30s2.5 14.9 9.5 24a87.3 87.3 0 01-25.3-15.2 56.7 56.7 0 0111-14.6z"/><path fill="url(#linear-gradient-36_2)" d="M202.6 435.2l.3-.1.3.1a25.1 25.1 0 019.9 6.7l-.6 2.9a23.3 23.3 0 00-9.6-8 48.7 48.7 0 00-13.9 11l-.8-2.8a49.6 49.6 0 0114.4-9.8z"/><path fill="url(#SVGID_76_14-5)" d="M195.5 428a56 56 0 001 16.3c8 3.6 16.2 5 24.7 3a58 58 0 002.7-17.7c-9.5 1-18.9-.6-28.4-1.6z"/><path fill="url(#SVGID_76_14-6)" d="M312.6 378.5a36.9 36.9 0 00-9-16 85 85 0 0114.1-24.8 95.4 95.4 0 0126 7.2c.2 10.3-2.5 20.8-5.2 30.2a78.8 78.8 0 01-25.9 3.4z"/><path fill="url(#linear-gradient-37_2)" d="M292.7 448a29.7 29.7 0 0111.2-5l-.2.2.5 1.2a28 28 0 00-10.3 5.2 22.5 22.5 0 00-7.5 10.2l-2.5-.9a24.9 24.9 0 018.8-11z"/><path d="M315.4 476.8c-13-3-25.3-10-35.3-18.8l1.6-3a82.8 82.8 0 0033.2 19.8l.5 2z" class="cls-92"/><path d="M329.9 354a76.3 76.3 0 009.8-6.6l-1-.6-2.1-1a80.7 80.7 0 00-7.3-3 55.4 55.4 0 00-6.9 5.9 43.4 43.4 0 00-4 4.5 36.9 36.9 0 013.4-5 36.3 36.3 0 015.7-6l-2-.6-4.8-1.2-1.8-.4 1.8.1 5 .7a54.2 54.2 0 017.3 2 56.6 56.6 0 016.4 2.6l1.1.5 1.6.9-.2 2a92.8 92.8 0 01-2.6 15.6 91.4 91.4 0 01-2.2 7.3l-.7 1.8.5-2c.3-1.2.7-3 1-5.2.2-.4.2-1 .3-1.4a24.3 24.3 0 01-7.2 1.3 23.6 23.6 0 01-4-.2l-1.6-.3h1.6a28.2 28.2 0 003.9-.3 31.6 31.6 0 007.6-2.4c.7-4 1.3-8.8 1.7-14a56.8 56.8 0 01-10 5.7 57.8 57.8 0 01-5.5 2.1l-2.4.7s1-.3 2.3-1 3.3-1.4 5.3-2.5zm-129 89.8a40 40 0 006 1.2 43.6 43.6 0 0012.6-.4l1.1-5a46.7 46.7 0 01-13.1-.8 49.1 49.1 0 01-6.2-1.7l-2.6-1 2.6.7a49.8 49.8 0 006.3 1.1 56.6 56.6 0 0013.3 0l.3-2.4.2-1.6v-1.2H219a65 65 0 01-6.7-.2 90.5 90.5 0 01-11.2-1.6l-4.6-1.1 4.7.8a94.8 94.8 0 0011.1 1c2.2.2 4.5.1 6.7 0l1.7-.1 1-.1c.5 0 1.3-.4 1 .4v2.1l-.1 1.7a52.3 52.3 0 01-2 11l-1-.4a37.6 37.6 0 01-12.8-.4 39.3 39.3 0 01-6-1.7l-1.8-.8-.6-.2.6.2c.4 0 1 .3 1.8.5z" class="cls-56"/><path fill="url(#linear-gradient-38_2)" d="M501.9 302c-7.6 5-15.9 8.1-24.3 11.4a62.1 62.1 0 01-18.8-17.5 24.6 24.6 0 015.2-14.5 26.4 26.4 0 0113.1-9.1 16.9 16.9 0 017 3 102 102 0 0124.4-12.7 16.4 16.4 0 018.6 3.4 32.9 32.9 0 01-1.3 20.2c-2.6 6.5-8.2 12-14 15.8z"/><path fill="url(#linear-gradient-39_2)" d="M487 302a67.6 67.6 0 0028.6-19 32.3 32.3 0 00.4-16.3 15.3 15.3 0 00-7.4-2.9 101 101 0 00-23.9 12.5l-.7.5-.7-.6a15.3 15.3 0 00-6.2-2.7 25.3 25.3 0 00-11.1 7.3c5 6.4 11.3 11.9 17.2 17.5l3.8 3.8z"/><path fill="url(#linear-gradient-40_2)" d="M488 283a44.5 44.5 0 01-1.6 11.8 37.6 37.6 0 01-5 10.9 35 35 0 01-5.8 6.5l2 1.2.5-.2a37 37 0 005.5-6 40.7 40.7 0 005.9-11.4 47.3 47.3 0 002.3-12.7 42.1 42.1 0 00-1.1-12l-3.7 2.3a39.6 39.6 0 011 9.6z"/><path fill="url(#SVGID_14_14-2)" d="M479.4 256.8l-2.6 2.4-.6-3.9a51.6 51.6 0 00-14.3-3.5c-1.2-.2-6.6 8.4-5.7 9.2l4 3.8A104 104 0 00448 283a90.2 90.2 0 0013.5 16.5c5.4 0 19-10.8 24.8-19.7 2.6-5.5 2.8-8.8 3.5-15.2a51.3 51.3 0 00-10.4-7.8z"/><path d="M462 252.7a38 38 0 0112.9 3.5c-1.2 3-2.9 5.2-5.7 8.1a77.8 77.8 0 00-12.2-4c-1-.2 4.1-7.8 5-7.6zm-13.2 30.2a67.5 67.5 0 0110.5 5.6c8.2-5 13.8-10.8 15.6-17.5a88.1 88.1 0 00-14.1-6 105.4 105.4 0 00-12 17.9zm30.7-25.3a58.1 58.1 0 00-8 8.4l5.6 3.1a48 48 0 017-6.8l5 2.5a57 57 0 00-9.6-7.2z" class="cls-56"/><path d="M591.5 224.7c10 2.1 18.3 9.5 22.9 18.6s4.2 20.7 2.6 30.7a180.9 180.9 0 01-14.7 51c-12.8-6.8-12.1-64.5-12.6-68.7a108 108 0 011.8-31.6z" class="cls-60"/><path fill="url(#linear-gradient-41_2)" d="M606.8 271.2c1.7-7.3 3.5-14.6 3.1-22s-3-15.2-8.9-19.9a36.6 36.6 0 00-20.5-6.3 199.6 199.6 0 00-30.8 0 74.1 74.1 0 00-17.3 3 33 33 0 00-14.8 9.2c-4 4.7-6.4 10.7-7.4 16.8s-1.1 12.2-1.1 18.4c32.4 5.2 65.4 6.5 97.7.8z"/><path d="M594 250l.6-2a31.6 31.6 0 00.9-7.3 32.3 32.3 0 00-3.6-14.5l-.8-1.6a62.9 62.9 0 00-10.6-1.6 199.6 199.6 0 00-30.8 0 97.3 97.3 0 00-10.9 1.4c-7.2 8.9-8.7 21.1-8.7 32.3a13.3 13.3 0 00.3 2l-6.3 3.5a40.2 40.2 0 006.7 11 303 303 0 0045.2 1.4 118.5 118.5 0 0015.3-9.3 58.4 58.4 0 017-4.7 15.2 15.2 0 018-2 3.2 3.2 0 00.7-1.5 29.7 29.7 0 00-13-7z" class="cls-60"/><path fill="url(#linear-gradient-42_2)" d="M602.8 325q.4-11 1.3-21.8c1-11.2 2.6-22.3 4.3-33.5a21.3 21.3 0 00.3-5.4l-.1-.6c-1-5.5-7.4-10-12.2-12-5.6-2-12.4-2.2-18.4-2.4-24.8-1-54.3 3.3-72.5 14.7a278.4 278.4 0 00-.6 62.1 280 280 0 0198-1z"/><path d="M535.6 320.4c2.2-12 5.8-23.5 13-34.2a123.7 123.7 0 0135.2-34.7l-4.5-.2h-1.4l-6.8-.2c-25.5 0-49.2 5.3-63.7 14a275.7 275.7 0 00-.7 59.4z" class="cls-61"/><path fill="url(#linear-gradient-43_2)" d="M601.9 325c.2-7.3.6-14.6 1.2-21.9.9-10.5 2.4-21 4-31.3l.3-2.2a19.4 19.4 0 00.3-5.1 5 5 0 000-.6c-1-4.7-6.6-9.2-11.7-11.2a31 31 0 00-6.8-1.6c-8.7 1.2-17 7.4-19.1 15.9 18.7 12 18.5 37.1 9.8 55.7 8.6.6 16.1 1.4 22 2.3z"/><path d="M563.7 304.9h-1.2a71.7 71.7 0 012.1-15.7v-.2l.1-.1a31.7 31.7 0 0110.4-6.6 48.9 48.9 0 0111.6-26.6l1 .8a47.6 47.6 0 00-11.4 26.3v.4l-.4.1a30.5 30.5 0 00-10.1 6.4 69.6 69.6 0 00-2.1 15.2z" class="cls-65"/><path d="M562.5 304.6a72.4 72.4 0 012.1-15.3v-.1a31.3 31.3 0 0110.3-6.5l.2-.1v-.2a48.6 48.6 0 0111.3-26.2l.4.4a48 48 0 00-11.2 26.2v.2h-.1a31 31 0 00-10.3 6.5v.2a70 70 0 00-2.2 15z" class="cls-56"/><path d="M559.6 308.3a3.7 3.7 0 012.8-3.5 3.4 3.4 0 012 .1c2.8 1.1 2.7 4.5.6 6a3.4 3.4 0 01-5.4-2.6z" class="cls-65"/><path d="M560.3 307.5a1.9 1.9 0 011.4-1.8 1.8 1.8 0 011 0 1.8 1.8 0 01.3 3.2 1.7 1.7 0 01-2.8-1.4z" class="cls-56"/><path d="M511.7 281.5l.1.6h.6a20.3 20.3 0 016.5-.2 35.5 35.5 0 012.5 13.3h1.3a36.8 36.8 0 00-2.8-14l-.1-.4h-.3a20 20 0 00-6.6 0 51.7 51.7 0 011.8-21.3h-.4l-1 .4a53 53 0 00-1.6 21.6z" class="cls-65"/><path d="M521.5 295a36 36 0 00-2.6-13v-.3h-.3a16.5 16.5 0 00-2.6-.2 26.7 26.7 0 00-4 .4h-.3v-.3a52.6 52.6 0 011.5-21.4l.7-.3a52 52 0 00-1.7 21v.4h.3a27.5 27.5 0 013.4-.3 16.5 16.5 0 013.1.3h.2A36.5 36.5 0 01522 295z" class="cls-56"/><path fill="url(#SVGID_14_14-3)" d="M525.4 289.4a8.8 8.8 0 016.8.8c2.4 1.4 3.4 4.1 4 6.7a15.8 15.8 0 01-.2 7.7 10 10 0 01-5 6.1 10.9 10.9 0 01-11.3-1.5c-7.3-6-3.4-17.2 5.7-19.8z"/><path fill="url(#linear-gradient-44_2)" d="M528.2 298.6a5 5 0 00-2-3.5 4.5 4.5 0 00-3.5-.3c-4.7 1.2-6.7 7-3 10.1a5.6 5.6 0 005.8.8 5.1 5.1 0 002.6-3.2 8 8 0 000-4zm-3.6 2.4a1.6 1.6 0 01-.8 1 1.7 1.7 0 01-1.7-.3 1.8 1.8 0 01.8-3 1.3 1.3 0 011 .1 1.5 1.5 0 01.6 1 2.5 2.5 0 010 1.2z"/><path d="M521.6 299a2.6 2.6 0 011.2-.8 1.9 1.9 0 01.5 0 1.6 1.6 0 01.3 0v-.9a16.4 16.4 0 00.3-2.3 4.6 4.6 0 00-1.1.2 6.3 6.3 0 00-3 1.9l1.8 1.8zm3.4 2.8a.9.9 0 01-.2-.2 2 2 0 01-.8.8 2 2 0 01-.9.2 2.2 2.2 0 01-1.3-.5.9.9 0 01-.2-.2 9 9 0 01-.8 3.1 5.3 5.3 0 002.5.7 4.5 4.5 0 002-.5 4.5 4.5 0 002-2.2 16 16 0 01-2.3-1.2z" class="cls-68"/><path d="M534.3 294c-1.5-2.8-5.4-5.7-8.1-4a9.8 9.8 0 00-3.3 3.8 6.4 6.4 0 015.9 2.7l5.5-2.6z" class="cls-56"/><path fill="url(#linear-gradient-45_2)" d="M599.4 251.3a3.2 3.2 0 01-.7 1.5 15.4 15.4 0 00-8 2 60.6 60.6 0 00-7 4.6 125.7 125.7 0 01-43.2 19.6 39.6 39.6 0 01-24-22.7l6.3-3.4a11.4 11.4 0 01-.2-2.1c-.1-11.2 1.4-23.4 8.6-32.3a37 37 0 0126-13.4 30.2 30.2 0 0116.6 3.6 27 27 0 0110.6 11.6 32.3 32.3 0 013.6 14.5 31.7 31.7 0 01-.9 7.4l-.6 2c4.8.9 9.1 4 12.9 7z"/><g mask="url(#mask-3)"><path d="M535.2 256.8v-2.3a27.5 27.5 0 01-10.4-12 92 92 0 00-.3 8.3 10.4 10.4 0 00.3 1.7l.2 1.4-1.2.7-3.2 1.7-1.6.9a38.1 38.1 0 0017.7 18.1 45.5 45.5 0 01-1.6-11.8l.1-6.7z" class="cls-61"/></g><g mask="url(#mask-4)"><path fill="url(#SVGID_29_14)" d="M552.6 217.8a20.6 20.6 0 011.5 4.2l.1.8v.3l.1 1v1l.2 2.6.4 1.4a1.5 1.5 0 010 .3l.5.6 1.1 1.8a23.5 23.5 0 011.6 2.2 43 43 0 017-9.5l-2.6-1.5-10-5.2z" style="mix-blend-mode:screen"/></g><path fill="url(#SVGID_88_14-2)" d="M545.6 208.7a28 28 0 00-18.6 27.2c.2 5.4 2.7 11 7.5 14.1 5.7 3.7 13.3 3.3 20 1.7s13.2-4.3 18.2-8.8 8.3-10.8 7.8-17.3a20.8 20.8 0 00-12.6-16.8 29.2 29.2 0 00-22.2-.1z"/><path d="M528.4 232.7c-.6 5 1 11.9 7.1 12 4 .1 7.1-3.1 9.8-6a71.2 71.2 0 0111-9.7c4-2.8 9-4 12.6-7 2.2-1.7 3.8-4.5 3.2-7.3-.7-3-3.8-5-6.9-6a26.2 26.2 0 00-24.5 3.6 32 32 0 00-12.1 19.6z" class="cls-61"/><path d="M533 245.8a14 14 0 006.9 3.2 27.1 27.1 0 007.7.1 42.3 42.3 0 0014.7-4.2 29 29 0 0011.1-9.5 23.1 23.1 0 004.2-13.4 19.9 19.9 0 01-2.7 14.2 25.7 25.7 0 01-4.9 5.9 31.5 31.5 0 01-6.6 4.5 39.3 39.3 0 01-15.6 4 25.5 25.5 0 01-8.2-.7 12.7 12.7 0 01-6.6-4z" class="cls-61"/><path fill="url(#linear-gradient-46_2)" d="M540.2 260.8a3 3 0 01.8-2.4 2.6 2.6 0 014.4.9 2.9 2.9 0 01-.6 3 2.6 2.6 0 01-4.6-1.5z"/><path fill="url(#linear-gradient-47_2)" d="M584.7 245.3a25 25 0 00-4.3-24.5 22.5 22.5 0 01-3.3 19.8 45 45 0 01-18.2 12.6 36.5 36.5 0 011.4 9.8 19.4 19.4 0 005.3 5c6.7-4.4 14.2-8.7 20.9-13.1 2.8-1.9 6-3.8 9.3-3.2a46.1 46.1 0 00-10.8-5.5z"/><path fill="url(#linear-gradient-48_2)" d="M583.7 259.4a94.8 94.8 0 01-9.9 6.7 102.7 102.7 0 01-10.6 5.6 111 111 0 01-11 4.4c-3.9 1.3-7.7 2.4-11.6 3.3h-.2a38 38 0 01-8-4 37.5 37.5 0 01-6.8-5.6 40.4 40.4 0 0015 8.8h-.2a144.6 144.6 0 0043.3-19.2z"/><path fill="url(#linear-gradient-49_2)" d="M597.1 324.3l5.7.8.1-2-5.4-1.2-6.3-1.2c-4.1-.7-8.4-1.3-12.6-1.7a252.3 252.3 0 00-25.5-1.6 218.2 218.2 0 00-25.5 1.3c-2.1.3-4.3.5-6.4.9l-3.1.5-3.2.7-3.1.7-3.1 1a40.5 40.5 0 00-4 1.3l.2 2.3a295.7 295.7 0 0160.8-4c2 0 4.2 0 6.3.2l3.1.1 3.2.2 6.3.5 6.2.6 6.3.6z"/><path fill="url(#linear-gradient-50_2)" d="M525.6 255.2a38.2 38.2 0 003.2 4.5 36.5 36.5 0 003.8 4 37.3 37.3 0 004.4 3.2 33.7 33.7 0 004.8 2.6l-.6-.1a103.2 103.2 0 0011.8-3.7 106 106 0 0011.3-5.1 120 120 0 0010.7-6.4l5.1-3.6 2.5-1.8 2.5-2-2.2 2.2-2.4 2.2-2.3 2-2.5 2a86.7 86.7 0 01-22 12.3 84.2 84.2 0 01-12.1 3.6h-.3l-.3-.1a31.6 31.6 0 01-4.9-2.9 32.1 32.1 0 01-4.3-3.7 30.4 30.4 0 01-3.5-4.3 28 28 0 01-2.7-5z"/><path fill="url(#linear-gradient-51_2)" d="M619.9 296.8c6.3 7.7 17.2 14.7 27.2 13.6a54 54 0 008.9-28c-16.3-15.2-35.8-23.4-57-29.5a39 39 0 00-6 2.1 15.4 15.4 0 00-9.2 16 37.5 37.5 0 0019.1 28c5.1-1.5 11.7-2.8 17-2.2z"/><path fill="url(#SVGID_76_14-7)" d="M617.3 265.9l6.5 3.2a48 48 0 00-2.2 2c-7.2-3.6-14.5-7.3-21.8-10.8a15.7 15.7 0 011.5-1.7 31.2 31.2 0 013.2 1.2 125.5 125.5 0 0112.8 6z"/><path fill="url(#SVGID_76_14-8)" d="M630.2 264.7l-1.2.7a162.7 162.7 0 00-24.2-9.6l1.4-.7a165.1 165.1 0 0124 9.6z"/><path d="M619.8 286.3v-.2c-4.5-3.1-10.1-5.7-15.1-8.1-6.4-3.1-13.2-4.4-19.6-7.2h-.1a36.1 36.1 0 009.3 20h3a49.7 49.7 0 0110.7 1c2.7.6 5.3 1.6 8 2a28 28 0 013.8-7.5z" class="cls-61"/><path fill="#5e5a6c" d="M629 265.4a38.4 38.4 0 00-5.2 3.7l-6.4-3.3a125.5 125.5 0 00-12.8-6 31.2 31.2 0 00-3.3-1.2 19 19 0 013.6-2.8 162.7 162.7 0 0124.1 9.6z"/><path fill="url(#linear-gradient-52_2)" d="M599 254l5.8 1.8a19 19 0 00-3.5 2.8c-2.8-.8-5.7-1.3-8.5-2.3a39 39 0 016.1-2.3z"/><path fill="url(#linear-gradient-53_2)" d="M654.8 282.9a55 55 0 01-8.3 26.4h-1.6c-4.8 0-9.7-1.8-14.1-4.5l2.8-7.3c2.5-6.2 5-13.8 1-20a26.9 26.9 0 00-10.9-8.4 38.4 38.4 0 015.2-3.7 109.8 109.8 0 0125.9 17.5z"/><path fill="url(#SVGID_76_14-9)" d="M605.2 303.2a66.3 66.3 0 0111.4-14.4c12.4-1.7 27.1 8.1 30.4 21.6a113.8 113.8 0 01-17.7 16c-6.5-4.4-11.3-8-15.6-12.9a37.7 37.7 0 014.3-6.2 33 33 0 00-6.6 4.3 24.5 24.5 0 01-6.2-8.4z"/><path d="M621.4 301.8a38.6 38.6 0 00-10 8 22.3 22.3 0 01-5.2-6.7 52.8 52.8 0 019.7-10.6 15.2 15.2 0 015.5 9.3zm13.6 13.1a75.7 75.7 0 01-13-10.5 42.9 42.9 0 00-6.4 9.4 61.4 61.4 0 0012.2 10.3c3.2-2 5.4-5.8 7.2-9.2z" class="cls-56"/><path fill="url(#linear-gradient-54_2)" d="M650 279.5a33.1 33.1 0 00-5.6-1.5 30.5 30.5 0 00-5.8-.5 29.9 29.9 0 00-11.4 2.2 15.3 15.3 0 00-5 3 10.6 10.6 0 00-1.8 2.4 6.3 6.3 0 00-1 2.7 12 12 0 014-3.4 22 22 0 014.8-2 28.8 28.8 0 0110.3-1.1 33.4 33.4 0 0110 2.3 39.6 39.6 0 014.6 2.2l2.3 1.5c.3-1.7.4-3.3.5-4.9l-.4-.3-.2-.2a34.3 34.3 0 00-5.3-2.4z"/><path fill="url(#linear-gradient-55_2)" d="M571.2 388.5a31.6 31.6 0 0018.2 25.3 36.1 36.1 0 0013.8-20.9 40.5 40.5 0 00-2.8-25.8 65.6 65.6 0 00-27.8 2c-2.7 5.7-2 13-1.4 19.4z"/><path fill="url(#linear-gradient-56_2)" d="M599.6 368.1a71.8 71.8 0 00-8.7-.5 60.5 60.5 0 00-17.5 2.5 21.4 21.4 0 00-1.5 6.9 9.8 9.8 0 015.8-.5c5.3 1.1 9.5 2.3 12.5 7.3 2.2 3.7 3 7.9 3.5 12.1a61 61 0 01.2 12.3 35.3 35.3 0 008.2-15.6 39 39 0 00-2.5-24.5z"/><path fill="url(#linear-gradient-57_2)" d="M598.2 385.8a42 42 0 00-11-4.5l-.5-.1-.4.2a42.6 42.6 0 00-14.4 11.5 30.7 30.7 0 001.4 4 39.6 39.6 0 0113.7-13.2 42.5 42.5 0 0116 10.4l.3-1.2.6-3.3a52.1 52.1 0 00-5.7-3.9z"/><path fill="url(#linear-gradient-58_2)" d="M602.8 325c-27.6-6.8-63-4.4-84.4-4a51.6 51.6 0 00-39.9 11.5c-5.7 4.8-5 13.8-3.7 21.2a57.3 57.3 0 0020.6 33.5 78.7 78.7 0 009.1 29.8 101.7 101.7 0 0030.6-36.1 105.8 105.8 0 01-19-23 56.7 56.7 0 0136-4.7c3.2 11.6 8.8 22.5 15.1 32.7a43.4 43.4 0 0029.5-5 105.9 105.9 0 006.1-55.8z"/><path d="M571.3 382.6c-4.4-7.2-6-15.8-11.1-22.4-.5-.7-5-5.3-7-7.6l.1.2c2.8 10 7.6 20.5 14.7 32a41.8 41.8 0 006 .6 9.8 9.8 0 01-2.7-2.8z" class="cls-61"/><path fill="url(#SVGID_118_14)" d="M576.1 336v-1.4a.7.7 0 000-.1h-1.6l1.6 2.7v-1.1z"/><path d="M528.2 322l-9.8.3h-.2a48 48 0 00-6.8-.5 50.8 50.8 0 00-32.1 11.6c-5.3 4.4-4.6 13.1-3.3 20.1a55.7 55.7 0 0020.1 32.8l.4.3v.5a78 78 0 008.4 28.1l1.7-1.3c-3.1-8.3-4-17.5-3.7-26.2a11.4 11.4 0 01.2-1.6 57 57 0 01-6.6-8.9 62 62 0 01-6.8-18.6c-1.6-7.8-.4-15 5.6-20.6 8.7-8.3 21.8-12.4 33.5-15.3l1.5-.8z" class="cls-61"/><path fill="url(#linear-gradient-59_2)" d="M528.7 391.9a108.7 108.7 0 002.4-3.9 59.3 59.3 0 00-37.6-2.4l1.9 1.6v.6a56 56 0 0133.3 4z"/><path fill="url(#linear-gradient-60_2)" d="M541.2 350.9a56 56 0 016 .3 80.6 80.6 0 00-9.2-3.4c-6.5-2-12.4-2.2-19.2-1.7-5.8.5-12 .6-17.5 2.8a15.3 15.3 0 00-1.5.7c-.6-3.9-1-7.8-1.3-11.6a197.8 197.8 0 00-21.4-4c-4.1 5-3.4 13-2.2 19.7a51 51 0 005.1 15 55.1 55.1 0 0020.5-9.6 101 101 0 006.4 11c3.5 5.3 7 10.9 7.5 17.4a41.4 41.4 0 01-7.4 26.1 100.7 100.7 0 0026.7-32.5 107.4 107.4 0 01-18.5-22.7l-.7-1 1.2-.7a58.1 58.1 0 0125.5-5.9z"/><path fill="url(#linear-gradient-61_2)" d="M601.8 326a157.6 157.6 0 00-24.1-3.7 49.6 49.6 0 01-2.9 12.3l2.3 14.1c1.5 9 2.5 18 4.2 27l2.1 9a41.8 41.8 0 0012.4-4.6 104.2 104.2 0 006-54.1z"/><path fill="url(#SVGID_76_14-10)" d="M497 336.4a116.7 116.7 0 003 20.4 55.5 55.5 0 01-24 10.8 27.8 27.8 0 01-3.6-35.5c8.2.6 16.6 2.5 24.6 4.3z"/><path d="M472.3 348.6a198 198 0 0021.2-2.4 62.7 62.7 0 00-21.2-.4 34.2 34.2 0 011.5-8.3 70.1 70.1 0 0120.4.1 76.4 76.4 0 00-21.5-4 31.1 31.1 0 003.5 32.8 50.2 50.2 0 01-2.3-6.7 52.2 52.2 0 0019.9-7.4 62.8 62.8 0 01-20.6 4.6 44.6 44.6 0 01-1-8.3z" class="cls-56"/><path fill="url(#SVGID_76_14-11)" d="M597.6 370.8a116.4 116.4 0 01-33.4 4.6 32.3 32.3 0 003.6 14.4 55 55 0 0028-1.9 43.4 43.4 0 001.8-17z"/><path d="M569.7 385.4l-.8-5c9.2-1 19-2.8 27.3-7a167.2 167.2 0 01-30.6 4.2 44.8 44.8 0 002.6 11.4l2.2.5-.3-1.7a39.4 39.4 0 0024.6-5 64.5 64.5 0 01-25 2.6z" class="cls-56"/><path d="M504.5 417l1 1.9a59.3 59.3 0 0032.2-35.8L535 381a101.7 101.7 0 01-30.6 36.1z" class="cls-92"/><path fill="#92cedc" d="M572.2 347.7l-2-.3.6-18.1 3.3-.8a144.3 144.3 0 01-1.9 19.2z"/><path d="M582.8 348a52 52 0 01-10.6-.3c.8-6.2 1.4-12.7 1.9-19.2a24.4 24.4 0 0112.8.8 65.7 65.7 0 01-4.1 18.7z" class="cls-61"/></g></g></g></svg>