<svg xmlns="http://www.w3.org/2000/svg" id="Слой_1" x="0" y="0" version="1.1" viewBox="0 0 505.1 849.8" xml:space="preserve"><defs/><style>.st5_16{fill-rule:evenodd;clip-rule:evenodd;fill:#efe5ff}.st22_16{fill:#841b5c}.st27_16{fill:#ffad9f}.st30_16{opacity:.41;fill:#a4ccff}.st30_16,.st31_16,.st35_16{enable-background:new}.st31_16{fill:#fff;opacity:.53}.st35_16{opacity:.25}.st35_16,.st41_16{fill:#a42a7b}.st41_16,.st60_16{enable-background:new}.st41_16{opacity:.57}.st60_16{opacity:.51;fill:#ff6c69}.st75_16{fill:#b0b9aa}.st78_16{fill:#146b87}.st80_16{fill:#fff7cc}.st86_16{fill:#92cedc}.st89_16{fill:#5ecfd1}.st93_16{fill:#22567d}.st122_16{fill:#740048}.st123_16{fill:#c31f8c}.st125_16{fill:#ffc0b6}.st127_16{opacity:.29;fill:#740148;enable-background:new}.st129_16{fill:#ff9881}.st150_16{fill:#6cedfd}.st151_16{fill:#83f6ff}.st153_16{fill:#71d4ff}</style><path fill="#dbf8ff" d="M22 586.1l258.5 106.7 13.7-22.7 113.7 57.1-43.7-35.5 9.5-6.3-117-55.2 15.1 20.2z"/><linearGradient id="SVGID_1_16" x1="271.7" x2="271.7" y1="290.6" y2="470.2" gradientTransform="matrix(1 0 0 -1 0 849.2)" gradientUnits="userSpaceOnUse"><stop offset="0" stop-color="#838bff"/><stop offset="1" stop-color="#455bc8"/></linearGradient><path fill="url(#SVGID_1_16)" fill-rule="evenodd" d="M103 379s-7 34.6-6.2 42.8c.8 8.2 16.6 26.6 16.6 26.6s16.7 35.9 22 53.5c5.3 17.6 23.3 39.9 23.3 39.9s108 16.8 137.5 16.8 44.4-13.8 44.4-13.8 41.6-72.3 45.3-75.9c3.6-3.6 24.4-11 24.4-11s33.7-61 36.4-77l-93.9 3.9L103 379z" clip-rule="evenodd"/><linearGradient id="SVGID_2_16" x1="103" x2="446.7" y1="467" y2="467" gradientTransform="matrix(1 0 0 -1 0 849.2)" gradientUnits="userSpaceOnUse"><stop offset="0" stop-color="#c5c4ff"/><stop offset="1" stop-color="#f9bbff"/></linearGradient><path fill="url(#SVGID_2_16)" fill-rule="evenodd" d="M103 379l44.4-5.6 25.8-4.4s122 .3 157.1 2.4c0 0 29.3-11.8 37.2-12.1 8-.3 23.3 14.1 23.3 14.1l55.9 7.3s-25.5 8.9-45.2 8.5l18.8 6.3s-4.4 3.7-11.8 5.9c-7.4 2.3-63.4 3.9-89.9 3.6s-38.2-9.6-38.2-9.6l12.2-4.6-14.3-1.7s-43.4 7.6-60 8.1-37.9-3.5-37.9-3.5l-1.6-5.6c-.1.1-45.1-2.5-75.8-9.1z" clip-rule="evenodd"/><linearGradient id="SVGID_3_16" x1="203" x2="203" y1="283.4" y2="464.4" gradientTransform="matrix(1 0 0 -1 0 849.2)" gradientUnits="userSpaceOnUse"><stop offset="0" stop-color="#6390ff"/><stop offset="1" stop-color="#4236b6"/></linearGradient><path fill="url(#SVGID_3_16)" fill-rule="evenodd" d="M168.2 387.4v24.1l-24.5 4.2s-1.1.5-3.8 7.4-15.2 24-15.2 24l-11.3 1.2 9.1 20.3s13.1.1 18.3 3.4a227 227 0 0116.8 12.9l6.9 19s6.9-35.1 7.4-40.7c.5-5.5 7.2-29.4 6.1-33.4-1.1-4 .4-19.7.4-19.7l1.9-16.4s35.5 4.8 39.2 6.2c3.7 1.4 5.3 16.2 5.3 16.2l12.1 27.9-13.5 40.7 5.3 34.5 1.7 26 19.3 20.6h15.2s12.5-67.5 13.4-71.6c.9-4.2-3.3-13.9-3.3-13.9l6-42.3-.6-42.5 12.2-4.6-14.3-1.7s-45.1 6.8-52.6 7.4c-7.5.7-45.4-6.3-45.4-6.3l22.8-5.5-34.9 2.6z" clip-rule="evenodd"/><linearGradient id="SVGID_4_16" x1="387.3" x2="387.3" y1="298.8" y2="468.4" gradientTransform="matrix(1 0 0 -1 0 849.2)" gradientUnits="userSpaceOnUse"><stop offset="0" stop-color="#6390ff"/><stop offset="1" stop-color="#4236b6"/></linearGradient><path fill="url(#SVGID_4_16)" fill-rule="evenodd" d="M362.9 405.1l30.4 5.1-4.8 11.6-13.2 31.8-15.9 15.1-17.8 6.6-13.9 9.7h12l-.9 12.9-6.4 30.7-.3 21.8 8.2-1.1s32.5-58.9 45.8-80.5c0 0 22.1-6.8 24.4-11s33.5-62.6 36.4-77l-45.2 8.5 18.8 6.3s-13.2 5.9-22 7.3c-8.9 1.3-35.6 2.2-35.6 2.2z" clip-rule="evenodd"/><path d="M330.3 371.4l-9.8 4.8s7.2 1.6 11.3 2.8c4.2 1.2 27-.7 31.1-1.8l19.1-5.8.8-4.7s-11.2-10-14.6-9.5c-3.4.5-32 11.3-37.9 14.2z" class="st5_16"/><linearGradient id="SVGID_5_16" x1="336.1" x2="392.2" y1="476.1" y2="476.1" gradientTransform="matrix(1 0 0 -1 0 849.2)" gradientUnits="userSpaceOnUse"><stop offset="0" stop-color="#5179ae"/><stop offset="1" stop-color="#2242a9"/></linearGradient><path fill="url(#SVGID_5_16)" fill-rule="evenodd" d="M392.3 373.6l-9.5 5.4-14.9.4h-31.7s24.4-2.1 28.1-2.9 17.8-5.1 17.8-5.1l.8-4.7 9.4 6.9z" clip-rule="evenodd"/><linearGradient id="SVGID_6_16" x1="185.6" x2="185.6" y1="413.6" y2="464.4" gradientTransform="matrix(1 0 0 -1 0 849.2)" gradientUnits="userSpaceOnUse"><stop offset="0" stop-color="#5179ae"/><stop offset="1" stop-color="#2242a9"/></linearGradient><path fill="url(#SVGID_6_16)" fill-rule="evenodd" d="M168.2 411.6l10.3 24 1.7-45.3 22.8-5.5-34.8 2.6z" clip-rule="evenodd"/><linearGradient id="SVGID_7_16" x1="424.3" x2="424.3" y1="395" y2="468.6" gradientTransform="matrix(1 0 0 -1 0 849.2)" gradientUnits="userSpaceOnUse"><stop offset="0" stop-color="#5179ae"/><stop offset="1" stop-color="#2242a9"/></linearGradient><path fill="url(#SVGID_7_16)" fill-rule="evenodd" d="M401.6 389.2l18.8 6.3-8.1 58.7s25.2-48.1 34.6-73.6l-45.3 8.6z" clip-rule="evenodd"/><linearGradient id="SVGID_8_16" x1="259.1" x2="259.1" y1="400.1" y2="460" gradientTransform="matrix(1 0 0 -1 0 849.2)" gradientUnits="userSpaceOnUse"><stop offset="0" stop-color="#5179ae"/><stop offset="1" stop-color="#2242a9"/></linearGradient><path fill="url(#SVGID_8_16)" fill-rule="evenodd" d="M225.7 396.6l23.9 23.2 14.8 15.8 3 13.5 13.2-8.5-.2-45.1 12.2-4.6-14.4-1.7z" clip-rule="evenodd"/><radialGradient id="SVGID_9_16" cx="602.8" cy="-303.3" r="76.5" gradientTransform="rotate(-21.5 1785 608.4)" gradientUnits="userSpaceOnUse"><stop offset="0" stop-color="#83dee7"/><stop offset=".3" stop-color="#80dde7"/><stop offset=".5" stop-color="#77d9e5"/><stop offset=".6" stop-color="#67d2e3"/><stop offset=".8" stop-color="#50c9df"/><stop offset=".9" stop-color="#33bddb"/><stop offset="1" stop-color="#1db4d7"/></radialGradient><path fill="url(#SVGID_9_16)" fill-rule="evenodd" d="M431.2 184.7l.5 1.3a47.6 47.6 0 01-79.2 49l-2-2.2a47.6 47.6 0 0114.7-73.2l3.3-1.5.9-.4a44.3 44.3 0 0116.4-3.3 48 48 0 0145.4 30.3z" clip-rule="evenodd"/><linearGradient id="SVGID_10_16" x1="633.9" x2="633.9" y1="-238.1" y2="-321.7" gradientTransform="rotate(-21.5 1785 608.4)" gradientUnits="userSpaceOnUse"><stop offset="0" stop-color="#e8ddff"/><stop offset="1" stop-color="#8bddd8"/></linearGradient><path fill="url(#SVGID_10_16)" fill-rule="evenodd" d="M415 163.7l-.4-.1a7 7 0 00-3.6-.1l-2.7-.3-3.3-.4c-2.9-.5-5.2-2.6-7.6-4.2l-1.5-1c-.3-.3-.7-.5-1.1-.6a5 5 0 00-2.9-.5c-.6.1-1 .7-1.4 1.1-.6.6-.8.8-.1 1.3 1.2.9 2.8 1.6 2.2 3.4l-1.2 3.3c-.6 1.2-.9 2.7-2.1 3.6-.9.6-2.1.3-3 .3s-1.8-.1-2.7.1c-.7.2-1.1.6-1.7 1-.9.5-2.1.8-2.9 0-.3-.3-.2-.4-.7-.5s-1 0-1.5.1c-1.3.2-2.5.8-3.7 1l-2.6.1c-.6 0-1.2.2-1.7.1l-1-.3c-.8-.2-1.7-.2-2.4.2a15 15 0 00-5.2 3.7c-.8 1-.6 1.5.1 2.4.6.7 1.8 1.5 1.9 2.5.1.8-.2 1.7-.2 2.5s0 1.6.6 2.2c1 1 2.5 1.5 3.6 2.4 1.3 1 2.5 3 1.5 4.6-.5.7-.6 1.6-.8 2.4-.1.6-.2 1.4-.9 1.5-.5.1-1.1-.4-1.6-.4-.5.1-1 .4-1.3.8-.5.7-1.2 1.4-1.5 2.2-.5 1.4.4 3.6 1.5 4.6 1.3 1.2 2.5 2.4 4.3 2.6 1.2.1 2.3-.4 3.3.5.6.5.8 1.2 1.2 1.8l1.3 1.8 1.1 1.8 1.9 2.4c.8.8 1.9 1.3 2.9 1.9.9.6 1.7.7 2.6 1.1 1 .5 2.1.8 3 1.5l1.9 1.8c1.9 1.5 3.3-.6 4.4-2 .7-.9 1.3-2 1.8-3.1a16 16 0 012.8-5.1l.7-.9c.2-.6.2-1.3-.1-1.8-.5-1.3-.9-3.1-1.7-4.2-.9-1.3-2.4-.5-3.5-.1-.6.2-1.5.4-2 0-.5-.5-.6-1.1-1.2-1.5-.6-.5-1.4-.5-2 0l-.7.6c-.3.2-.6.1-.8.5-.3.8.9 1.1 1.4 1.5.9.5 1 .7.9 1.7-.1.6-.2 1.6-1 1.6-.5 0-1.3-.9-1.7-1.1-1.9-1.1-3.8-2.1-3.1-4.7.2-.8.6-.9 1-1.5s.4-1.5.8-2.2c.6-.8 2-1.1 2.9-1.5 1.2-.5 2.4-.8 3.6-1 .7-.1 1.5-.1 2.2.1.8.1 1.4-.4 2.2-.6 1.4-.2 2.3.5 3.5 1.1s1.6 1.3 2.4 2.4c1.5 2.1 3 4.5 4 7 .8 2.1 1.5 4.4 2.8 6.3l2 2.5c.2.2.3.1.4.5l-.1 1.4c-.2.7-.8 1.5-1.1 2.2l-1.2 1.8-1.8 2.5c-1 1.3-.3 3.1-1 4.6-1 2.2-2.8 3.2-4.5 4.7-1.4 1.2-2.8 2.3-4.1 3.7-.8.9-1.3 1.8-2.1 2.6-1.1 1-2.4 1.7-3.6 2.6-.9.7-2 1.2-3.1 1.6-.7.2-1.3.2-2.1.5l-4 1.6c-.7.3-1.5.2-2.2.2h-2.3c-2 0-4.7.7-6.5-.5l-1.6-1.1-1.5-.4-1.2-.3a5 5 0 01-1.7-.7l-1.6-.5-1-.1c-.3-.2-.3-.4-.4-.7l-.7-.9a4.5 4.5 0 00-2.7-2c-.6-.1-1 0-1.6-.2-1-.3-1.8-.9-2.4-1.7v.1a47.6 47.6 0 0029.6 14.4l.8-.8c.7-.8 1.6-1.1 2.5-1.5 1.3-.5 2.5-1.1 3.7-1.8 1-.6 2.1-1.1 3.3-1.5 1.5-.5 2.7-1.4 4.2-2 1.4-.5 2.8-.6 4.2-.8 2.1-.3 3.9-1.7 5.6-2.8.8-.5 1.4-1.3 2.2-1.8l1.5-.8c1.3-.8 2.7-1.4 4.1-1.8.9-.2 1.5.3 2.4.5s1.6-.5 2.4-.7c.9-.2 1.9.2 2.6.9a48 48 0 0012.7-34.8c-1.2.5-2.7 2.2-3.4 2.4-.4.1-.9 0-1.4.2l-1.1.7c-.6.4-1.3.8-1.9.4s-.4-1.9-1.4-1.6c-.5.1-.8.6-1.4.8l-1.3.3-2 1.1c-.3.2-.7.2-1.1.2l-1.2.3c-1-.1-.6-1.3-.5-1.9l.2-1.1-.2-.9c-.2-.9.2-1.8.6-2.7.7-1.2 1.2-2.5 1.6-3.9.1-.6.3-1 .2-1.6l-.2-1.3-.1-1.6-.3-2.1c0-.6.1-2 .5-2.5l.7-.6c.2-.3.1-.6.4-.8.6-.5 2.1-.5 2.8-.5 1.1 0 2.3.2 3.3.6 1.1.5 1.9 1.1 2.8 1.7a5 5 0 001.7.6l-.5-1.3c-3.2-8.7-8.8-16-16.1-21.3zm-14.7 29.6c0 .3-.5.7-.8.8-.6.1-1.3-.3-1.9-.5s-1.1-.6-1.4-1.1l.5.1c-.6-.4-1.5-.7-1.3-1.7.1-.5.5-.7 1-.7.8 0 1.7.1 2.5.5.5.3.7.8.9 1.3l.5 1.3zm-.6-28.8c-.1.6-.4 1.1-.9 1.5-.4.4-.8.6-1.3.9-1 .4-2.1 0-3-.3-.5-.2-1.8-.7-.4-.8-.3-.2-.5-.6-.7-.9l-.1-.9v-1.9l-.2-1.5c-.1-.4-.4-.7-.1-1.2.1-.2.4-.4.6-.3l.9.5.9.5c.9.5 1.6 1.3 2.4 1.9l1.3 1c.4.4.7 1 .6 1.5zm25.6 15.3c-.1 1-1.2 1.7-2 2.1-1.2.6-2.8.9-4.1 1-.5.1-1 0-1.5-.1-.6-.2-1.2-.1-.4-.3l-1.3-1.8c-.5-.8-1.2-1.5-1.8-2.2-1-1.2-2.2-2.7-2.4-4.4-.1-1.1.2-2.4 1.1-3.1.6-.5 1.4-.8 2.2-.9 1-.1 1.9.2 2.8.5s1.7.8 2.3 1.5c.4.5.7 1.1 1.2 1.6l.7.8 1 .8c.5.4 1 .6 1.2 1.2l.7 1.7c.1.5.4 1 .3 1.6z" clip-rule="evenodd" opacity=".3"/><linearGradient id="SVGID_11_16" x1="606.9" x2="606.9" y1="-293" y2="-305.4" gradientTransform="rotate(-21.5 1785 608.4)" gradientUnits="userSpaceOnUse"><stop offset="0" stop-color="#fff"/><stop offset="1" stop-color="#383838"/></linearGradient><path fill="url(#SVGID_11_16)" fill-rule="evenodd" d="M360.2 197.9c0 .5 0 1.5-.4 1.9s-1.3.1-1.8.1l-1.2-.2-1 .1-.9-.2c-.3-.1-.4-.4-.6-.6-.5-.5-.8-1.3-1.2-1.9l-.3-1.2-.2-1.8v-2.6c.1-.7.5-1.3 1-1.8l.7-.6c.3-.3.5-.6.9-.8l.6-.3.7.1.9.2.7.6c.4.5.9.9 1.2 1.5.5.6.7 1.4.7 2.1 0 .7.1 1.5.3 2.2.2.7.2 1.4.1 2.1 0 .6-.2.9-.2 1.1z" clip-rule="evenodd" opacity=".3"/><linearGradient id="SVGID_12_16" x1="605.2" x2="605.2" y1="-289.5" y2="-291.3" gradientTransform="rotate(-21.5 1785 608.4)" gradientUnits="userSpaceOnUse"><stop offset="0" stop-color="#fff"/><stop offset="1"/></linearGradient><path fill="url(#SVGID_12_16)" fill-rule="evenodd" d="M357.7 202.6l-.2.9c.4.1.7.7 1.2.7.1-.4.6-1 .2-1.3l-.3-.1-.3-.2c-.3 0-.8.3-1.1.4l.5-.4z" clip-rule="evenodd" opacity=".3"/><linearGradient id="SVGID_13_16" x1="628.4" x2="628.4" y1="-273.3" y2="-314" gradientTransform="rotate(-21.5 1785 608.4)" gradientUnits="userSpaceOnUse"><stop offset="0" stop-color="#fff"/><stop offset="1" stop-color="#c7c7c7"/></linearGradient><path fill="url(#SVGID_13_16)" fill-rule="evenodd" d="M368.2 202.6l.9.6 1 .3c.6.2 1.4.3 1.9.6s.6.7.8 1.2l.5.9.3.5.3.6 1 1 .7.8.8.2.9.5c1 .6 1.5 1.7 2.5 2.4.9.6 2.2-.1 3-.3h.4l.4-.4.8-.4c.2 0 .1.1.4 0l.2-.6c.1-.4-.1-.9-.4-1.2l-.8-1.1-.8-1-.5-1.2c-.5-.9-1.3-1.1-2.2-1.5-.9-.4-2-.5-2.4-1.5-.1-.4 0-.5.1-.8.1-.4 0-.9.2-1.2l.6-.5.8-.7c.3-.3.2-.6.3-.9l.3-.3.3-.6.3-1.2.2-1.1.6-1.3c.3-.4.6-.8 1-1l.7-.3c.6-.3 1.1-.9 1.6-1.3.7-.7 1.6-2.2 2.8-1.6.4.2.5.6.9.7.9.3 1.5-.5 2.1-1 .9-.9 1.6-2 2.1-3.2.4-.7.7-1.4.4-2.2-.5-1.6-2.2-2.1-3-3.5s-.7-3.1-1.1-4.6c-.2-.8-.6-1.7-1.3-2.1l-.9-.4c-.6-.2-.9.2-1.5.3-.3.1-.6 0-.9-.1-.9-.3-2 .5-2.8.8-1.2.4-2.5.8-3.8.6l-4.4-.8-3.3-.7c-.8 0-1.6.1-2.3.4-1 .3-1.8 1-2.2 2-.3 1 .2 1.3.8 2 .2.2.6.7.6 1-.1.5-.9.7-1.3.9s-1.2.3-1.2.8c0 .4.4 1 .5 1.4.1.3.2.8.5.9l.8.1c.5.1.7.4 1.1.6l.9.4 1.2.5c.7.1 1.2-.3 2 0l.8.3h.7c.5 0 1.3 0 1.6.6s-.3 1.2-.7 1.5c-.4.3-1 .5-.9 1.1 0 .4.4.7.3 1.2-.3 1.5-2.3 1.2-3.4 1.6-1.7.7-2 2.5-2.4 4l-.2.4c-.1.3.1.4.1.6-.1.3-.2.6-.5.8-.2.3-.5.5-.9.7a5 5 0 00-1.3.5c-.8.4-.7 1.5-.2 2.2.3.4 1.1.6 1.5.9.4.5 1.1.9 1.7 1.1.4.1.6.4.4.1z" clip-rule="evenodd" opacity=".3"/><linearGradient id="SVGID_14_16" x1="656.3" x2="656.3" y1="-243.6" y2="-282.8" gradientTransform="rotate(-21.5 1785 608.4)" gradientUnits="userSpaceOnUse"><stop offset="0" stop-color="#fff"/><stop offset="1" stop-color="#969696"/></linearGradient><path fill="url(#SVGID_14_16)" fill-rule="evenodd" d="M401.6 195.2l.4 1.3.6 1 1 3 .9 1.5c.4.7.4 1.5.7 2.2.4 1 .8 2 1.8 2.6.3.2.8.3 1.1.2.4-.1.6-.5 1-.6h2.3l1.1.2c.3.1.7.1 1 .4.2.3-.1.7-.2 1.1-.2.7-.5 1.4-1 1.9-.2.3-.6.5-1 .5s-.8 0-1.1.4c-.4.5-.6 1.2-.8 1.8v.5l.2.3.6.6c.2.5.2 1.1.1 1.6l-.3.9-.5 1c-.4.6-.6 1.3-1.1 1.9l-1.6 2.3c-1 1.6-2.2 3-2.5 5-.1.5.1 1.4.5 1.7l.7.3.8.8c.3.3.7.8 1.2 1 .5.1 1.1 0 1.6-.1l.7-.3.6-.1c.8-.3 1.4-.5 2.2-.4l.8.3.9.6c.6.2 1.4-.5 1.8-.9.6-.5 1.2-1.3 2-1.4.5-.1 1 .1 1.5.1l1.9.1h.7c.9-.3 1.5-1.1 2.1-1.8l1.9-2.5c.7-.8 1.2-1.7 1.7-2.7.4-1 1.1-1.7 1.6-2.6l1.2-2c.4-.7.7-1.5.9-2.2.3-.6.5-1.1.6-1.7l.4-2.1.5-2.1c.1-.7.1-2-.9-2.1-.7-.1-1.5.4-2.2.7-1 .4-2.1 0-3-.5-.8-.4-1.4-.9-2.2-1.2-.4-.2-.9-.5-1.3-.5a3 3 0 00-1 .4c-.6.4-1.4.7-2.1.9-.7.1-1.6.3-2.3 0l-1.2-.7c-.6-.3-.8-1.3-.8-1.9 0-1.4-.4-2.7-.4-4 0-.9 1.1-1 1.6-1.6.4-.5.4-1 .7-1.5l.8-1.3c.9-1.4.5-3-1-3.8-.9-.5-1.9-.4-2.7.2l-1 .8c-.4.4-.7.9-1.2 1.2-2 1.2-4.2.7-6.3.4-1-.2-2-.2-3 .1-.5.1-.7.1-1.1.6l-.8.8c-.5-.3-.6.1-.1-.6z" clip-rule="evenodd" opacity=".3"/><linearGradient id="SVGID_15_16" x1="327" x2="382.6" y1="-167.9" y2="-167.9" gradientTransform="translate(0 424)" gradientUnits="userSpaceOnUse"><stop offset="0" stop-color="#00ffc9"/><stop offset="1" stop-color="#00b4cd"/></linearGradient><path fill="url(#SVGID_15_16)" d="M327 285.8s2.3-64.6 25.9-66.2c23.6-1.6 29.7 73.1 29.7 73.1l-55.6-6.9z"/><linearGradient id="SVGID_16_16" x1="342.3" x2="392.6" y1="-145" y2="-137.4" gradientTransform="translate(-9.3 422.1)" gradientUnits="userSpaceOnUse"><stop offset="0" stop-color="#00ffc9"/><stop offset="1" stop-color="#00b4cd"/></linearGradient><path fill="url(#SVGID_16_16)" d="M372.9 285.9c4.4-27-3-51.3-12-60.6l-2.6-2.3a10 10 0 00-4.1-1.7l-.4-.1-.7-.1c-1.4-.1-2.7 0-4 .2l-1.2.3c-1.7.5-3.2 1.3-4.6 2.4l.3-.3.1-.1.3-.3.1-.1.1-.1.2-.2.1-.1.1-.1.1-.1.4-.3.3-.2.1-.1.1-.1.1-.1.3-.2.1-.1.1-.1.1-.1.1-.1.1-.1.3-.2.2-.1.1-.1.1-.1.1-.1.3-.1.1-.1.1-.1.1-.1h.3l.2-.1h.7l.3-.1h5l.4.1.4-.1h.4l.6.2h.1l.3.1.2.1.2.1.3.1.1.1.2.1.1.1.1.1.1.1.1.1.1.1.1.1.2.1.1.1.3.2.2.1.1.1.1.1.1.1.1.1.1.1.1.1.1.1.1.1.1.1.1.1.1.1.1.1.1.1.1.1.3.3.1.1.3.3.1.1.1.1.1.1.1.1.4.5.1.1.1.2.1.1.1.2.1.1 2.2 3 .1.2.5.8.1.2.1.2.1.2 1.2 2.1.1.2.1.2v.1l.3.6.1.2.1.2.1.2.1.2.2.5.1.2.4.9.1.2.1.2.1.2.2.5.1.2.2.5.1.2.5 1.3.1.3.1.2 1.1 3.2.1.4.3 1 .1.4.2.8.1.3.3.8.1.4.1.2.1.5.4 1.3.1.4v.2l.2.6.2.6.1.2.7 2.9.1.3.1.5.1.5.2.7.2.8.5 2.4.1.3.1.3.1.6.1.6.1.6.1.6.1.6.1.6.1.4.2 1 .1.6.1.7.1.6v.1l.1.4.1.3.2 1.1.1.4.1.4.1.6.3 1.9.1.5.3 1.7.1.6.1.4.1.5.2 1.2.1 1 .1.5v.1l.1.5v.2l.1.4.1 1 .1 1 .1.5.1.4.1.7.1.6.2 1.2.2 1.5.4 3.3.1.5.2 2.1.2 1.6v.5l.2 1.6.1.5v.5l.2 1.6.1 1v.7l.1.8.1 1.5v.5l.6 7.6v.5l.1 1.8.1 1.2v1.4l.1 1.3v1.8l.1 1.6v2.5l-46.1 2.4c2 .4 30.7-5.4 36.3-39z" opacity=".8"/><linearGradient id="SVGID_17_16" x1="342.4" x2="391" y1="-146.4" y2="-168.2" gradientTransform="translate(-9.3 422.1)" gradientUnits="userSpaceOnUse"><stop offset="0" stop-color="#00ffc9"/><stop offset="1"/></linearGradient><path fill="url(#SVGID_17_16)" d="M370.9 287.4h-.7c0-.1.1-10.9-2.4-36.7a52 52 0 00-7.7-25.1c-3-4.3-6.1-5.8-6.1-5.8h.6l1.1.2a19 19 0 015 5.2c2 2.9 3.5 6.1 4.6 9.5a72.3 72.3 0 013.2 15.9c2.5 25.9 2.4 36.6 2.4 36.8z"/><linearGradient id="SVGID_18_16" x1="339.1" x2="387.7" y1="-153.7" y2="-175.5" gradientTransform="translate(-9.3 422.1)" gradientUnits="userSpaceOnUse"><stop offset="0" stop-color="#00ffc9"/><stop offset="1"/></linearGradient><path fill="url(#SVGID_18_16)" d="M351.1 219.7l-2.1 1.7c-1 1.1-1.9 2.2-2.7 3.5a53.5 53.5 0 00-6.8 25.3c-1.6 25.9-1.1 36.7-1.1 36.8h-.7c0-.1-.5-10.9 1.1-36.9.3-5.4 1.2-10.8 2.6-16 1-3.4 2.4-6.6 4.2-9.6a18.6 18.6 0 013.8-4.5h.2l.3-.1h.8l.4-.2z"/><linearGradient id="SVGID_19_16" x1="340.6" x2="389.2" y1="-150.4" y2="-172.2" gradientTransform="translate(-9.3 422.1)" gradientUnits="userSpaceOnUse"><stop offset="0" stop-color="#00ffc9"/><stop offset="1"/></linearGradient><path fill="url(#SVGID_19_16)" d="M353.4 219.6l1.2 66.6h-.7l-1.2-66.6h.7z"/><linearGradient id="SVGID_20_16" x1="365.6" x2="366.1" y1="-139.2" y2="-132.5" gradientTransform="translate(-9.3 422.1)" gradientUnits="userSpaceOnUse"><stop offset="0" stop-color="#00ffc9"/><stop offset="1" stop-color="#00b4cd"/></linearGradient><path fill="url(#SVGID_20_16)" d="M382.4 289.8l-55.6-4 .3-3.2c2.9.6 21.9 3 45.2-.2 3-.4 6-1.1 9-2l1.1 9.4z"/><path d="M355.4 220l.7-3.3h-.8v-32.4l-.2.6-.5 31.8-1.2.1.6 3.2z" class="st22_16"/><path d="M351.6 207.3c0 .5 1.5 1 3.4.9 1.9 0 3.4-.5 3.4-1.1 0-.5-1.5-1-3.4-.9s-3.4.5-3.4 1.1zm1.8-3.4c0 .3.8.5 1.8.5s1.7-.3 1.7-.5-.8-.5-1.8-.5-1.7.2-1.7.5zm-8.3-35.1c0 .6 1.6 1 3.6 1s3.6-.5 3.5-1.1-1.6-1-3.6-.9c-1.9 0-3.5.5-3.5 1z" class="st22_16"/><radialGradient id="SVGID_21_16" cx="1685.4" cy="-231.6" r=".7" gradientTransform="matrix(-1 .02 .02 1 2045.2 385.2)" gradientUnits="userSpaceOnUse"><stop offset="0" stop-color="#00ffc9"/><stop offset="1" stop-color="#00b4cd"/></radialGradient><path fill="url(#SVGID_21_16)" d="M354.8 184.5c0 .5.3.9.6.9s.6-.4.5-.9c0-.5-.3-.9-.6-.9s-.6.4-.5.9z"/><path d="M350.8 219.7l-2.3-64.2-.3.6 1 63.6z" class="st22_16"/><radialGradient id="SVGID_22_16" cx="1692" cy="-261" r="1.3" gradientTransform="matrix(-1 .02 .02 1 2045.2 385.2)" gradientUnits="userSpaceOnUse"><stop offset="0" stop-color="#00ffc9"/><stop offset="1" stop-color="#00b4cd"/></radialGradient><path fill="url(#SVGID_22_16)" d="M347.3 155.2c0 .8.5 1.5 1 1.5s1-.7.9-1.5c0-.8-.5-1.5-1-1.5s-1 .7-.9 1.5z"/><path d="M363.2 219.9h-.1l-.5 2.7-.2.8-4 .1-3.1.1-11.5.3-.2-.8-.6-2.9 5.1-.3-.5-3.8 1.4-3.8 1.5-.1 1.7 3.8.1 3.6z" class="st22_16"/><path fill="#d14ba2" d="M345.1 168.8c0 .4.9.8 2 .7 1.1 0 2-.4 2-.8s-.9-.7-2-.7-2 .4-2 .8zm6.4 38.5c0 .4.9.8 2 .7 1.1 0 2-.4 2-.8s-.9-.8-2-.7c-1.1 0-2 .3-2 .8zm1.9-3.4c0 .2.4.4 1 .3.5 0 1-.2.9-.4 0-.2-.4-.4-1-.3-.5 0-.9.2-.9.4zm-5.1 19.3l-4.7-.1-.6-2.9 4.9.3zm-.2-3.4l-.5-3.7 1.4-3.9-.7-42.2 1.3 42.2.9 3.9.1 3.6-2.5.1zm5.8-.1l-.5-3h1.2l.1-8.5h.3l-.1 8.6-.1 2.9zm1.2-34.5l-.3 18.1h.3zm-.4 21h.5l-.1-1.9h-.3z"/><path fill="#661349" d="M363.5 219.9l-.7 2.6-.2.1-4.2.9-3.1.1.1-3 7.7-.7z"/><path d="M364.9 222.1l-2.9 1.4-16.1.9-5.4-1.7 2-.2s1.8.8 10.1.8 10.8-1.3 10.8-1.3l1.5.1z" class="st27_16"/><path fill="#ffa089" d="M340.4 222.7c4.3.8 8.7 1.1 13.1 1a37 37 0 0011.4-1.6l-.3 2.9c-3.5.9-7.1 1.3-10.7 1.4-4.3 0-8.7-.3-13-1l-.5-2.7z"/><path fill="#ff6bbc" d="M364.8 222.3l-.2 2.6c-2.7.7-5.5 1.1-8.3 1.2l-.1-2.4c2.9-.1 5.8-.5 8.6-1.4z" opacity=".4"/><path d="M347.8 223.7l.1 2.2a49 49 0 01-6.7-.8l-.5-2.3c2.4.6 4.7.9 7.1.9zm3.1 2.3l-2.6-.1v-2.2l2.4.1.2 2.2z" class="st27_16"/><path d="M345.6 242.5c-2.6 8.4-5.4 14.8-7.4 14.2s-2.5-8.2.1-16.6c2.6-8.4 7.5-14.3 9.4-13.7 2 .6.5 7.8-2.1 16.1z" class="st30_16"/><path d="M343.1 234.8c1 .3 1 2.9.1 5.8s-2.4 5-3.3 4.7c-1-.3-1-2.9-.1-5.8s2.4-5 3.3-4.7z" class="st31_16"/><path d="M339.3 265.5c0 2.6-.6 4.8-1.3 4.8-.7 0-1.2-2.1-1.1-4.8 0-2.7.6-4.8 1.3-4.8.7 0 1.2 2.2 1.1 4.8z" class="st30_16"/><path d="M338.2 261.6c.4 0 .8 1 .7 2.3 0 1.3-.4 2.3-.8 2.3s-.8-1-.7-2.3c0-1.3.3-2.3.8-2.3z" class="st31_16"/><linearGradient id="SVGID_23_16" x1="353.7" x2="381" y1="-149.6" y2="-152.7" gradientTransform="translate(-9.3 422.1)" gradientUnits="userSpaceOnUse"><stop offset="0" stop-color="#00ffc9"/><stop offset="1" stop-color="#00b4cd"/></linearGradient><path fill="url(#SVGID_23_16)" d="M350.7 287.7l1.5-18.4 6.7-.1s.6-6.9.6-16.3c0-8.7-1.1-19.4-1.1-19.4l2.2 19.4c.7 6.3.8 16.7.8 16.7l6.2.1-.1-4.6 10-1.8s2.9 14.1 3.4 23.2-30.2 1.2-30.2 1.2z" opacity=".9"/><linearGradient id="SVGID_24_16" x1="262.7" x2="472.4" y1="-110.3" y2="-110.3" gradientTransform="translate(-9.3 422.1)" gradientUnits="userSpaceOnUse"><stop offset="0" stop-color="#fa8"/><stop offset=".5" stop-color="#e27586"/><stop offset="1" stop-color="#af54a3"/></linearGradient><path fill="url(#SVGID_24_16)" d="M460.3 288.1l-2.4 2.4-3.5 3.2-1.3 1.2-.9.8-1.3 1.1c-.2.2-4.2-.2-4.4 0l-.1.1-.1.1c-1.3.8-7.3 5.3-12.7 9.3l-.8.6-8.5 6.2-.2.3-.1.3c-.1 1 .7 2.7-.1 3.1-5.2 2.6-10.6 4.8-16.1 6.6l-4.4 1.4-3.5 1a105 105 0 01-7.8 1.9l-3.5.7h-67c-5-1-10-2.3-14.8-4l-3-1.1-3-1.2-2.6-1.1c-4.1-1.7-8-3.7-11.9-5.9l-.3-.2c-.3-.2.8-1.5.7-1.6a156.6 156.6 0 01-21.3-17.5l-3.1-.1-2.2-2.4-.8-.8-1.5-1.7-1.1-1.3-1.8-2.2-4.2-5.2 209.6 6z"/><path d="M462.2 288.1l-.3 2.3-96.5-1.5-116.8-1.8-.1-5h.4l35.2 1 81.2 2.3z" class="st27_16"/><linearGradient id="SVGID_25_16" x1="333.1" x2="400" y1="-79.5" y2="-79.5" gradientTransform="translate(-9.3 422.1)" gradientUnits="userSpaceOnUse"><stop offset="0" stop-color="#fa8"/><stop offset=".5" stop-color="#e27586"/><stop offset="1" stop-color="#af54a3"/></linearGradient><path fill="url(#SVGID_25_16)" d="M324.3 341l-2.8-12.6 67-.1-2.7 13.9z"/><path d="M356.2 340.9l-.2-9.7-34.5-2.8 65.5-.1-2.6 13.9z" class="st35_16"/><path d="M456.8 290.5l-6.9 6.4c-.2.2-4.2-.2-4.4 0l-.1.1-.3.2c-4.1 3.3-8.3 6.4-12.7 9.3l-.6.4-9.2 6c-.1.1 0 .4.3.7l-.1.3c-.1 1 .7 2.7-.1 3.1a142.9 142.9 0 01-31.9 10.9l-3.3.6h-33.6a79.2 79.2 0 0031.5-20.4 42.5 42.5 0 009.7-14.3l-138.5-4.2-1.8-2.1 202 3z" class="st35_16"/><linearGradient id="SVGID_26_16" x1="327.6" x2="356.8" y1="-81.2" y2="-80.8" gradientTransform="translate(-9.3 422.1)" gradientUnits="userSpaceOnUse"><stop offset="0" stop-color="#00ffc9"/><stop offset="1"/></linearGradient><path fill="url(#SVGID_26_16)" d="M325.1 329.4l1.5 9.9 8.4-.1-.2-8.4z" opacity=".3"/><path d="M370.7 328.3s21.2-7.5 30.4-15.1 20.2-21.5 20.2-21.5l23.7-.4s-17.9 15.3-36.3 25.3a130.6 130.6 0 01-32.2 11.6l-5.8.1zm-.5 12.3l.1-11.7 6 .3-.9 11.3zm92-52.5l-.3 2.3-16.5-.3-24.6-.4-55.4-.8-.1-3.5 55.5 1.5 24.9.7z" class="st35_16"/><path d="M445.7 287.6l-.3 2.5-24.6-.4v-2.8z" class="st35_16"/><linearGradient id="SVGID_27_16" x1="277.7" x2="279.8" y1="-138.1" y2="-122.4" gradientTransform="translate(-9.3 422.1)" gradientUnits="userSpaceOnUse"><stop offset="0" stop-color="#00ffc9"/><stop offset="1"/></linearGradient><path fill="url(#SVGID_27_16)" d="M284.1 283.1l.1 3.7-35.2-.3-.1-4.4z" opacity=".6"/><path d="M446.5 296.8a149.5 149.5 0 01-21.3 17.5c-.1.1 1 1.4.7 1.6l-.3.2-13.4-.2-25.8-.5.5-1.8.7-2.4 4.1-13.1 54.8-1.3z" class="st27_16"/><linearGradient id="SVGID_28_16" x1="302.1" x2="337.6" y1="-91.2" y2="-131.6" gradientTransform="translate(-9.3 422.1)" gradientUnits="userSpaceOnUse"><stop offset="0" stop-color="#00ffc9"/><stop offset="1"/></linearGradient><path fill="url(#SVGID_28_16)" d="M264 292.9a125 125 0 0032.2 24.7 94.2 94.2 0 0031.3 10.1l14.8.4s-13.9-1.6-37.8-13.1a72.8 72.8 0 01-24.1-21.6l-16.4-.5z" opacity=".3"/><linearGradient id="SVGID_29_16" x1="331.6" x2="339.8" y1="-31.6" y2="-94" gradientTransform="translate(-9.3 422.1)" gradientUnits="userSpaceOnUse"><stop offset="0" stop-color="#ed53aa"/><stop offset=".8" stop-color="#6c1c50"/><stop offset="1" stop-color="#d9428e"/></linearGradient><path fill="url(#SVGID_29_16)" d="M313.4 372.2l1.4 12h-3.4l-.1-.2-6.3-13.4 21.2-21.7 4-4.2 13.9-.2z"/><linearGradient id="SVGID_30_16" x1="361" x2="369.2" y1="-27.8" y2="-90.2" gradientTransform="translate(-9.3 422.1)" gradientUnits="userSpaceOnUse"><stop offset="0" stop-color="#ed53aa"/><stop offset=".8" stop-color="#6c1c50"/><stop offset="1" stop-color="#d9428e"/></linearGradient><path fill="url(#SVGID_30_16)" d="M360.4 344.2l-.1 1-2 35-.2 3.2-5.4.1-2.9-33-.1-.8-.4-4.7v-.6z"/><path d="M313.4 372.2l1.4 12H313l-3.2-13.6 23.2-20.5-6.8-1.2 4-4.2 13.9-.2zm44.9 8l1-30.6-9.6.1-.4-4.7 11 .2z" class="st41_16"/><linearGradient id="SVGID_31_16" x1="361" x2="368.7" y1="-47.9" y2="-47.9" gradientTransform="translate(-9.3 422.1)" gradientUnits="userSpaceOnUse"><stop offset="0" stop-color="#00ffc9"/><stop offset="1"/></linearGradient><path fill="url(#SVGID_31_16)" d="M358.1 383.4l-5.4.1-2.9-33 3.2 32.6z" opacity=".4"/><linearGradient id="SVGID_32_16" x1="321.8" x2="323.4" y1="-31.6" y2="-31.6" gradientTransform="translate(-9.3 422.1)" gradientUnits="userSpaceOnUse"><stop offset="0" stop-color="#00ffc9"/><stop offset="1"/></linearGradient><path fill="url(#SVGID_32_16)" d="M311.3 384l1.5.2h-1.4z" opacity=".4"/><linearGradient id="SVGID_33_16" x1="315.8" x2="337.4" y1="-49.1" y2="-49.1" gradientTransform="translate(-9.3 422.1)" gradientUnits="userSpaceOnUse"><stop offset="0" stop-color="#00ffc9"/><stop offset="1"/></linearGradient><path fill="url(#SVGID_33_16)" d="M305.6 370.9l5.7 13.1-6.3-13.4 21.2-21.7-20.5 21.7 3.8.1z" opacity=".4"/><linearGradient id="SVGID_34_16" x1="394.9" x2="401.9" y1="-32.9" y2="-86" gradientTransform="translate(-9.3 422.1)" gradientUnits="userSpaceOnUse"><stop offset="0" stop-color="#ed53aa"/><stop offset=".8" stop-color="#6c1c50"/><stop offset="1" stop-color="#d9428e"/></linearGradient><path fill="url(#SVGID_34_16)" d="M407.5 370.5l-5.8 13.5-.1.2-1.5.1h-1.9l1-11.9-31.7-26.7 13.9-.2 4.1 4z"/><linearGradient id="SVGID_35_16" x1="396.8" x2="395.5" y1="-35.9" y2="-56.5" gradientTransform="translate(-9.3 422.1)" gradientUnits="userSpaceOnUse"><stop offset="0" stop-color="#00ffc9"/><stop offset="1"/></linearGradient><path fill="url(#SVGID_35_16)" d="M402.7 370.6v.1l-2.7 13.6h-1.8l1-11.9-31.7-26.7 13.9-.2 4.1 4-6.7 1.4z" opacity=".4"/><path d="M401.7 384l5.2-13.2-3.9-.1 3.8-.3-21.3-20.9 22 21z" class="st41_16"/><path d="M407.5 370.5l-5.8 13.5-.1.2-1.5.1 2.6-13.6-20.6-16.7 5.4 8.6-20-16.9 13.9-.2 4.1 4 .4.3z" class="st41_16"/><linearGradient id="SVGID_36_16" x1="329.7" x2="402.7" y1="-71.2" y2="-71.2" gradientTransform="translate(-9.3 422.1)" gradientUnits="userSpaceOnUse"><stop offset="0" stop-color="#ed53aa"/><stop offset=".8" stop-color="#6c1c50"/><stop offset="1" stop-color="#d9428e"/></linearGradient><path fill="url(#SVGID_36_16)" d="M318.4 340l3.5 6.9 67.5.3 2-7.1z"/><linearGradient id="SVGID_37_16" x1="328.9" x2="352.9" y1="-72.3" y2="-71.3" gradientTransform="translate(-9.3 422.1)" gradientUnits="userSpaceOnUse"><stop offset="0" stop-color="#00ffc9"/><stop offset="1"/></linearGradient><path fill="url(#SVGID_37_16)" d="M322.3 346.5l-3-6.2h9.2l.9 6.1z" opacity=".4"/><linearGradient id="SVGID_38_16" x1="328.9" x2="352.9" y1="-72.5" y2="-71.5" gradientTransform="translate(-9.3 422.1)" gradientUnits="userSpaceOnUse"><stop offset="0" stop-color="#00ffc9"/><stop offset="1"/></linearGradient><path fill="url(#SVGID_38_16)" d="M330.9 346.4l-.5-6.1h3.9l.1 6z" opacity=".4"/><path d="M388.2 346.6l1.6-6-8.9.1-.6 6.1zm-9.4.2l.3-6-12.8.1.1 6zM352.3 369l.9 14.1 4.9.3.6-15z" class="st41_16"/><linearGradient id="SVGID_39_16" x1="365.1" x2="365.4" y1="-42.9" y2="-57.3" gradientTransform="translate(-9.3 422.1)" gradientUnits="userSpaceOnUse"><stop offset="0" stop-color="#00ffc9"/><stop offset="1"/></linearGradient><path fill="url(#SVGID_39_16)" d="M352 368.1l6.3-.1.2-9-7.1.5z" opacity=".4"/><path d="M412.1 315.9l-25.7-.5.5-1.8.8-2.4 2-1.5 21.2 4.5z" class="st35_16"/><linearGradient id="SVGID_40_16" x1="287.2" x2="416.6" y1="-115.3" y2="-108.8" gradientTransform="translate(-9.3 422.1)" gradientUnits="userSpaceOnUse"><stop offset="0" stop-color="#00ffc9"/><stop offset="1" stop-color="#00b4cd"/></linearGradient><path fill="url(#SVGID_40_16)" d="M446.5 296.9a243.9 243.9 0 01-12.6 11.7l-1 .7c-2.2 1.6-5.1 3.5-7.8 5.2l-3.7-.1-5.4-.1-5.1-.1-9-.2h-2.3l-12.7-.2 2-6.5 2.8-9 24.7-.6 4.2-.1 25.9-.7z"/><linearGradient id="SVGID_41_16" x1="445.7" x2="422.2" y1="-86.6" y2="-115.8" gradientTransform="translate(-9.3 422.1)" gradientUnits="userSpaceOnUse"><stop offset="0" stop-color="#00ffc9"/><stop offset="1" stop-color="#00b4cd"/></linearGradient><path fill="url(#SVGID_41_16)" d="M446.5 296.9c-1.2 1.2-24.4 17.1-35.5 17.3l-24-.5 4.8-15.5 54.7-1.3z" opacity=".8"/><linearGradient id="SVGID_42_16" x1="403.5" x2="406.9" y1="-111.2" y2="-98" gradientTransform="translate(-9.3 422.1)" gradientUnits="userSpaceOnUse"><stop offset="0" stop-color="#00ffc9"/><stop offset="1" stop-color="#00b4cd"/></linearGradient><path fill="url(#SVGID_42_16)" d="M388.9 307.2l12.7 1.5-2 5.2-12.7-.2z" opacity=".9"/><linearGradient id="SVGID_43_16" x1="420.7" x2="424.2" y1="-115.7" y2="-102.5" gradientTransform="translate(-9.3 422.1)" gradientUnits="userSpaceOnUse"><stop offset="0" stop-color="#00ffc9"/><stop offset="1" stop-color="#00b4cd"/></linearGradient><path fill="url(#SVGID_43_16)" d="M420.6 297.5l-4.6 16.7-5.1-.1-9-.1 14.5-16.4z" opacity=".9"/><linearGradient id="SVGID_44_16" x1="434" x2="437.4" y1="-119.1" y2="-105.9" gradientTransform="translate(-9.3 422.1)" gradientUnits="userSpaceOnUse"><stop offset="0" stop-color="#00ffc9"/><stop offset="1" stop-color="#00b4cd"/></linearGradient><path fill="url(#SVGID_44_16)" d="M432.9 309.2c-2.2 1.6-5.1 3.5-7.8 5.2l-3.7-.1 4.6-4.1 6.9-1z" opacity=".9"/><path d="M325.3 314.5l-39.1.7-.3-.2c-.3-.2.8-1.5.7-1.6a156.6 156.6 0 01-21.3-17.5l54.7 1.4 4.8 15.5.5 1.7z" class="st27_16"/><linearGradient id="SVGID_45_16" x1="287" x2="416.4" y1="-111.9" y2="-105.4" gradientTransform="translate(-9.3 422.1)" gradientUnits="userSpaceOnUse"><stop offset="0" stop-color="#00ffc9"/><stop offset="1" stop-color="#00b4cd"/></linearGradient><path fill="url(#SVGID_45_16)" d="M324.7 312.7l-33.3.6-4.9.1c-3.1-2-6.6-4.2-8.8-5.9-2.9-2.2-7.2-6.4-10.4-9.5l-2.1-2.1 47.2 1.2 7.5.2.7 2.4 4.1 13z"/><linearGradient id="SVGID_46_16" x1="202.1" x2="374.2" y1="-123.6" y2="-114.9" gradientTransform="translate(-9.3 422.1)" gradientUnits="userSpaceOnUse"><stop offset="0" stop-color="#00ffc9"/><stop offset="1" stop-color="#00b4cd"/></linearGradient><path fill="url(#SVGID_46_16)" d="M320.7 299.6l-53.3-1.6-2.1-2.1 54.7 1.4.7 2.3z"/><linearGradient id="SVGID_47_16" x1="273.2" x2="323.3" y1="-128.1" y2="-108.1" gradientTransform="translate(-9.3 422.1)" gradientUnits="userSpaceOnUse"><stop offset="0" stop-color="#00ffc9"/><stop offset="1" stop-color="#00b4cd"/></linearGradient><path fill="url(#SVGID_47_16)" d="M324.7 312.7l-33.3.6-8.7-7.9 4.8-1.7 6.4 6 9.2-1-.7-2.8-5.3.1s-.1-3.4 11.4-7.8c1.3-.5 2.5-.9 3.8-1.2l7.5.2.7 2.4 4.2 13.1z" opacity=".9"/><linearGradient id="SVGID_48_16" x1="291.9" x2="294.3" y1="-105" y2="-118.5" gradientTransform="translate(-9.3 422.1)" gradientUnits="userSpaceOnUse"><stop offset="0" stop-color="#00ffc9"/><stop offset="1"/></linearGradient><path fill="url(#SVGID_48_16)" d="M268.6 297c2.8 3 5.8 5.9 8.9 8.6a129 129 0 009.2 6.8l7.7.1s-4.7-4.4-6.8-7c-2.1-2.7-4-5.4-5.7-8.3l-13.3-.2z"/><path d="M407.7 323.3l-4.4 1.4-99.7-1.3-2.9-1.1-2.8-1.1 109.8 2.1z" class="st60_16"/><path d="M300.8 322.2l2.9 1.1-3-1.2.1.1zm102.5 2.5l-3.5 1-93.1-1.3-3-1.1 99.6 1.4zm51.1-31l-1.3 1.2-194-2.3-1.5-1.7 196.8 2.8z" class="st60_16"/><path d="M453.1 294.9l-.9.8-192.3-2.3-.8-.8 194 2.3z" class="st60_16"/><linearGradient id="SVGID_49_16" x1="344.1" x2="371.8" y1="-113.2" y2="-106.8" gradientTransform="translate(-9.3 422.1)" gradientUnits="userSpaceOnUse"><stop offset="0" stop-color="#00ffc9"/><stop offset="1"/></linearGradient><path fill="url(#SVGID_49_16)" d="M336.6 314.6l-3-17.5 42.3 2.3z" opacity=".2"/><path d="M376.1 299.3l-1.3 15.9-34-.7h-3.9l-.3-2.4-2.1-14.3z" class="st27_16"/><linearGradient id="SVGID_50_16" x1="289.7" x2="419" y1="-112.7" y2="-106.2" gradientTransform="translate(-9.3 422.1)" gradientUnits="userSpaceOnUse"><stop offset="0" stop-color="#00ffc9"/><stop offset="1" stop-color="#00b4cd"/></linearGradient><path fill="url(#SVGID_50_16)" d="M376.2 299.3l-.2 2.2-.6 6.1-.7 6-33.9-.6h-.4l-3.5-.1-2.4-15.1z"/><linearGradient id="SVGID_51_16" x1="379.7" x2="368" y1="-88.9" y2="-108.8" gradientTransform="translate(-9.3 422.1)" gradientUnits="userSpaceOnUse"><stop offset="0" stop-color="#00ffc9"/><stop offset="1" stop-color="#00b4cd"/></linearGradient><path fill="url(#SVGID_51_16)" d="M376 301.5l-37.2-1 2 12.5-3.9-.1-2.4-15.1 41.7 1.5z"/><g><linearGradient id="SVGID_52_16" x1="361.8" x2="370.8" y1="-128.8" y2="-99.2" gradientTransform="translate(-9.3 422.1)" gradientUnits="userSpaceOnUse"><stop offset="0" stop-color="#00ffc9"/><stop offset="1" stop-color="#00b4cd"/></linearGradient><path fill="url(#SVGID_52_16)" d="M375.4 307.6l-.7 6-33.9-.6h-.4l-1.8-4.8z" opacity=".9"/></g><g><linearGradient id="SVGID_53_16" x1="6917.6" x2="6917.6" y1="327.3" y2="219.1" gradientTransform="matrix(-1 0 0 1 7106.2 424)" gradientUnits="userSpaceOnUse"><stop offset="0" stop-color="#68b6ff"/><stop offset="1" stop-color="#2938c8"/></linearGradient><path fill="url(#SVGID_53_16)" fill-rule="evenodd" d="M290.5 643.1s4.2 20.8 3.7 25.8-10 16-10 16-10.1 21.7-13.3 32.2c-3.2 10.6-14.1 24.1-14.1 24.1s-65.1 10.1-83 10.1S147 743 147 743s-25.1-43.6-27.3-45.8c-2.2-2.2-14.7-6.7-14.7-6.7S84.6 653.7 83 644l56.6 2.3 150.9-3.2z" clip-rule="evenodd"/><linearGradient id="SVGID_54_16" x1="6815.7" x2="7023.2" y1="221.1" y2="221.1" gradientTransform="matrix(-1 0 0 1 7106.2 424)" gradientUnits="userSpaceOnUse"><stop offset="0" stop-color="#c5f4ff"/><stop offset="1" stop-color="#a1bbff"/></linearGradient><path fill="url(#SVGID_54_16)" fill-rule="evenodd" d="M290.5 643.1l-26.8-3.4-15.6-2.6s-73.6.2-94.8 1.5c0 0-17.6-7.1-22.5-7.3-4.8-.1-14.1 8.5-14.1 8.5L83 644.2s15.4 5.4 27.3 5.1L99 653.1c2.1 1.6 4.6 2.8 7.1 3.6 4.5 1.4 38.2 2.4 54.2 2.2s23-5.8 23-5.8l-7.3-2.8 8.7-1s26.2 4.6 36.2 4.9c10 .3 22.8-2.1 22.8-2.1l1-3.4c.1-.1 27.3-1.6 45.8-5.6z" clip-rule="evenodd"/><linearGradient id="SVGID_55_16" x1="6875.9" x2="6875.9" y1="331.8" y2="222.6" gradientTransform="matrix(-1 0 0 1 7106.2 424)" gradientUnits="userSpaceOnUse"><stop offset="0" stop-color="#687cff"/><stop offset="1" stop-color="#2725b6"/></linearGradient><path fill="url(#SVGID_55_16)" fill-rule="evenodd" d="M251.2 648.2v14.6l14.8 2.5s.6.3 2.3 4.5c1.6 4.2 9.1 14.5 9.1 14.5l6.8.7-5.5 12.3s-7.9.1-11 2c-3.1 2-10.1 7.8-10.1 7.8l-4.2 11.5s-4.2-21.2-4.5-24.5-4.4-17.7-3.7-20.1c.7-2.4-.2-11.9-.2-11.9l-1.1-9.9s-21.4 2.9-23.6 3.7c-2.2.8-3.2 9.8-3.2 9.8l-7.3 16.8 8.2 24.6-3.2 20.8-1 15.7-11.6 12.4H193s-7.5-40.7-8.1-43.2 2-8.4 2-8.4l-3.6-25.6.4-25.6-7.3-2.8 8.7-1s27.2 4.1 31.7 4.5 27.4-3.8 27.4-3.8l-13.7-3.3 20.7 1.4z" clip-rule="evenodd"/><linearGradient id="SVGID_56_16" x1="6987.1" x2="6987.1" y1="322.5" y2="220.1" gradientTransform="matrix(-1 0 0 1 7106.2 424)" gradientUnits="userSpaceOnUse"><stop offset="0" stop-color="#687cff"/><stop offset="1" stop-color="#2025b6"/></linearGradient><path fill="url(#SVGID_56_16)" fill-rule="evenodd" d="M133.8 658.9l-18.3 3.1 2.9 7 7.9 19.2 9.6 9.1 10.8 4 8.4 5.8h-7.3l.6 7.8 3.9 18.5.2 13.2-4.9-.7s-19.6-35.5-27.7-48.6c0 0-13.3-4.1-14.7-6.7s-20.2-37.8-22-46.5l27.3 5.1-11.3 3.8s8 3.6 13.3 4.4c5.1.9 21.3 1.5 21.3 1.5z" clip-rule="evenodd"/><path d="M153.4 638.5l5.9 2.9-6.8 1.7c-2.5.7-16.3-.4-18.7-1.1l-11.5-3.5-.5-2.8s6.8-6 8.8-5.7 19.2 6.7 22.8 8.5z" class="st5_16"/><linearGradient id="SVGID_57_16" x1="6956.3" x2="6990.2" y1="215.5" y2="215.5" gradientTransform="matrix(-1 0 0 1 7106.2 424)" gradientUnits="userSpaceOnUse"><stop offset="0" stop-color="#5997ec"/><stop offset="1" stop-color="#1f25b6"/></linearGradient><path fill="url(#SVGID_57_16)" fill-rule="evenodd" d="M116 639.8l5.7 3.3 9 .2h19.1s-14.7-1.3-16.9-1.7c-2.2-.5-10.7-3.1-10.7-3.1l-.5-2.8-5.7 4.1z" clip-rule="evenodd"/><linearGradient id="SVGID_58_16" x1="6865.5" x2="6865.5" y1="253.2" y2="222.6" gradientTransform="matrix(-1 0 0 1 7106.2 424)" gradientUnits="userSpaceOnUse"><stop offset="0" stop-color="#5174ae"/><stop offset="1" stop-color="#3151a9"/></linearGradient><path fill="url(#SVGID_58_16)" fill-rule="evenodd" d="M251.2 662.7l-6.2 14.5-1.1-27.3-13.7-3.3 21 1.6z" clip-rule="evenodd"/><linearGradient id="SVGID_59_16" x1="7009.4" x2="7009.4" y1="264.5" y2="220.1" gradientTransform="matrix(-1 0 0 1 7106.2 424)" gradientUnits="userSpaceOnUse"><stop offset="0" stop-color="#5170ae"/><stop offset="1" stop-color="#2757a9"/></linearGradient><path fill="url(#SVGID_59_16)" fill-rule="evenodd" d="M110.4 649.3l-11.3 3.8 4.9 35.4s-15.2-29-20.8-44.4l27.2 5.2z" clip-rule="evenodd"/><linearGradient id="SVGID_60_16" x1="6909.9" x2="6909.9" y1="261.4" y2="225.3" gradientTransform="matrix(-1 0 0 1 7106.2 424)" gradientUnits="userSpaceOnUse"><stop offset="0" stop-color="#5179ae"/><stop offset="1" stop-color="#2242a9"/></linearGradient><path fill="url(#SVGID_60_16)" fill-rule="evenodd" d="M216.5 653.8l-14.4 13.9-8.9 9.5-1.8 8.2-8-5.1.1-27.2-7.3-2.8 8.6-1z" clip-rule="evenodd"/><linearGradient id="SVGID_61_16" x1="140.8" x2="170.9" y1="136.4" y2="136.4" gradientTransform="translate(0 424)" gradientUnits="userSpaceOnUse"><stop offset=".2" stop-color="#fff7cc"/><stop offset=".3" stop-color="#fff2cf"/><stop offset=".3" stop-color="#fee5d7"/><stop offset=".4" stop-color="#fdcee4"/><stop offset=".5" stop-color="#fcbdee"/><stop offset=".5" stop-color="#f9bdee"/><stop offset=".5" stop-color="#cabef5"/><stop offset=".6" stop-color="#b7bef7"/><stop offset=".6" stop-color="#b7c2f6"/><stop offset=".7" stop-color="#b6cff4"/><stop offset=".8" stop-color="#b4e5f1"/><stop offset=".8" stop-color="#b4e6f1"/></linearGradient><path fill="url(#SVGID_61_16)" d="M169.4 568.7a79.2 79.2 0 01-22.1 3.6 29.8 29.8 0 01-6.5-15.1c1.9-3.5 5-6.1 8.7-7.4 3.6-1.3 8.3-2.1 11.4.4.5.4 1.3.6 1.7 1l7.8-1.5a53 53 0 01-1 19z"/><linearGradient id="SVGID_62_16" x1="142.1" x2="154.2" y1="100.9" y2="133.1" gradientTransform="translate(0 424)" gradientUnits="userSpaceOnUse"><stop offset="0" stop-color="#131f49"/><stop offset=".6" stop-color="#22567d"/></linearGradient><path fill="url(#SVGID_62_16)" d="M147.2 542.1l1.5-.9-2.4-9.7c1.8-1.3 4-1.9 6.2-1.6.7 5 2.1 9.8 4.1 14.4 1.5-1.3 2.6-3 3.2-4.9l3.6 2.6a24 24 0 01-5.1 10.8c-3.6 1.1-6.9 2.8-10.4 4.3-2.6 1.2-5.7 1.5-7.9-.6a11.3 11.3 0 01-2.7-4.9c-1.5-4.4-2.7-9-3.4-13.7 2.6-1.8 6.3-3.9 9.3-4.8 1 3.2 2.4 6.1 4 9z"/><path d="M158 549c1.2-1.6 2.3-3.3 3.2-5.1l.1-.4.4-.7.4-1-.7-.6-1.2-.9c-.7 1.7-1.8 3.2-3.1 4.4l-.6.5-.3-.7-.1-.2c.2 1.6.2 3.2-.1 4.7l.2-.1c.5-.2 1.2-.2 1.8.1zm-8.8-8l.1.4-.4.2-.1.1.1.3.2-.1c.6-.4 1.4-.5 2-.1l.1-.3v-.1c-.6-2.3-1.5-4.6-2.1-6.7-.2-.9.2-1.9 1-2.4a12 12 0 012-.8l-.2-1.1h-.5c-1.6 0-3.2.4-4.5 1.3l1.1 4.5 1.2 4.8zm-6 14.5c-2-1.7-2.9-4.9-3.6-7.4-.7-2.1-2.3-5.1-1.6-7.3s3.3-2.8 5.2-3.7l.9-.2-1.1-2.9a38.5 38.5 0 00-8.3 4.3c.7 4.5 1.9 8.9 3.4 13.2a12 12 0 002.5 4.6c1 .9 2.3 1.4 3.6 1.4 1 0 2-.2 3-.6-1.5 0-2.9-.5-4-1.4z" class="st75_16"/><linearGradient id="SVGID_63_16" x1="153.6" x2="169" y1="134.2" y2="134.2" gradientTransform="translate(0 424)" gradientUnits="userSpaceOnUse"><stop offset="0" stop-color="#a2b5e2"/><stop offset="1" stop-color="#91cddc"/></linearGradient><path fill="url(#SVGID_63_16)" d="M160.1 552a9.1 9.1 0 01-6.5 5.7 9 9 0 003.9 5.6c3 1.8 7.2 1.2 10.7.6l.8-12.1c-2.1.4-4.3.5-6.4.8l-2.5-.6z"/><linearGradient id="SVGID_64_16" x1="143" x2="164" y1="135.4" y2="135.4" gradientTransform="translate(0 424)" gradientUnits="userSpaceOnUse"><stop offset="0" stop-color="#fd1013"/><stop offset=".5" stop-color="#ea23bd"/><stop offset=".7" stop-color="#3f3ccf"/><stop offset=".7" stop-color="#4159cd"/><stop offset=".9" stop-color="#45a4c6"/><stop offset=".9" stop-color="#45a7c6"/></linearGradient><path fill="url(#SVGID_64_16)" d="M162.3 550.9c.2 1 .3 2 .1 3l-.3 1.8-.6 1.6a12 12 0 01-2.1 2.9 23.2 23.2 0 01-5.8 4.5c-1.1.5-2.2 1-3.4 1.2a11 11 0 01-7.1-.8l.6 1.4c.8.5 1.7.8 2.7 1.1 1.4.3 2.8.3 4.1.1 1.4-.2 2.7-.6 4-1.2a25 25 0 003.5-2.1c2.2-1.6 4-3.8 5.2-6.3.3-.7.5-1.3.6-2l.2-2.1c0-1-.2-2.1-.5-3l-.8.2-.4-.3z"/><path d="M141.3 632.9c8.5 7 18.3 12.1 28.9 15.1l2.5-2.9c-10.5-3.3-20.6-8-30-13.8l-1.4 1.6z" class="st78_16"/><linearGradient id="SVGID_65_16" x1="160.1" x2="204" y1="165.9" y2="198.1" gradientTransform="translate(0 424)" gradientUnits="userSpaceOnUse"><stop offset=".2" stop-color="#fff7cc"/><stop offset=".3" stop-color="#fff2cf"/><stop offset=".3" stop-color="#fee5d7"/><stop offset=".4" stop-color="#fdcee4"/><stop offset=".5" stop-color="#fcbdee"/><stop offset=".5" stop-color="#f9bdee"/><stop offset=".5" stop-color="#cabef5"/><stop offset=".6" stop-color="#b7bef7"/><stop offset=".6" stop-color="#b7c2f6"/><stop offset=".7" stop-color="#b6cff4"/><stop offset=".8" stop-color="#b4e5f1"/><stop offset=".8" stop-color="#b4e6f1"/></linearGradient><path fill="url(#SVGID_65_16)" d="M221.9 647.8c5.1-.2 10.1-.9 15-2.1a35 35 0 009.3-16.4c-5.6-10.1-15.1-24.4-17.4-43.2a156 156 0 00-58.6-.2c-3.7 12.9-6.6 24.5-14.8 37.6a37.4 37.4 0 00-12.8 7.8c9.4 5.8 19.5 10.5 30 13.8a121.4 121.4 0 0024.3-44.9 301.8 301.8 0 0023.5 37c-1.8 2.4-2.2 5.8-1.8 8.7.9 1 2.1 1.6 3.3 1.9z"/><path d="M221.8 646.5c.3-4.2.2-8.8 1.8-12.7-.6-2.2-1.9-4.2-2.9-6.3a151 151 0 00-3.4-7 43.3 43.3 0 00-9-12.6 34 34 0 00-9.3-5.3 274 274 0 0021.9 34.3l.3.4-.3.4a11 11 0 00-1.7 8c.7.7 1.6 1.2 2.5 1.5l.1-.7zm-50.9-59.9l-.8 2.7c-3.3 11.6-6.4 22.6-14 34.7l-.1.2-.2.1a40.6 40.6 0 00-11.9 6.9l5.4 3.1c.9-1.1 1.8-2.1 2.8-3 2.9-2.6 6.1-5.6 9.9-7 2-3.2 4.4-6.2 7-8.9a6.6 6.6 0 016.4-1.5c2.1-4.2 4.8-8 6.8-12.3 2.3-5 4.2-10.5 7.6-14.9a10 10 0 012.4-2.2l.3-.5c-7.2.5-14.5 1.3-21.6 2.6z" class="st80_16"/><linearGradient id="SVGID_66_16" x1="186.8" x2="164.2" y1="180.8" y2="214.8" gradientTransform="translate(0 424)" gradientUnits="userSpaceOnUse"><stop offset="0" stop-color="#a2b5e2"/><stop offset="1" stop-color="#91cddc"/></linearGradient><path fill="url(#SVGID_66_16)" d="M187.4 608.2l-.2.4-1.5 3.3-.2.4-.1.3-2.3 5.2c-3 6.3-7.3 12.5-13.6 16a28 28 0 01-16.5 2.6c6.2 3.2 12.7 5.8 19.4 8a118.6 118.6 0 0023.8-44.2l.3-1.2-.1-.5a32.2 32.2 0 00-9 9.7z"/><linearGradient id="SVGID_67_16" x1="214.4" x2="245.5" y1="191.8" y2="191.8" gradientTransform="translate(0 424)" gradientUnits="userSpaceOnUse"><stop offset="0" stop-color="#a2b5e2"/><stop offset="1" stop-color="#91cddc"/></linearGradient><path fill="url(#SVGID_67_16)" d="M243.2 625.5a105.3 105.3 0 01-15.1-38.7c-3.8-.7-7.7-1.3-11.6-1.8-.1 1-.4 1.9-.9 2.7a9.1 9.1 0 00-1.3 5.8l.1 1.8.1.8a30 30 0 001.1 4.3c1.5 4.9 3.7 8.9 6 13.6 1.4 2.9 2.5 5.8 3.4 8.9 1.4 2.6 2.5 5.3 3.3 8.1 1.4 5.1.5 9.9-1.7 14.6l-.7 1.1c3.6-.3 7.1-.9 10.6-1.8 4-3.8 7-9.1 8.9-15.7l-2.2-3.7z"/><path d="M237 645.7c-4.9 1.2-10 1.9-15 2.1a6.1 6.1 0 01-3.3-1.9l.1.7c.5 1.2 3 2.6 3 2.6s11.1 0 16.5-1.9c5.3-4.7 8.1-9.5 8.5-17.2l-.5-.9a34.8 34.8 0 01-9.3 16.5z" class="st78_16"/><linearGradient id="SVGID_68_16" x1="158.3" x2="183.3" y1="188.2" y2="188.2" gradientTransform="translate(0 424)" gradientUnits="userSpaceOnUse"><stop offset="0" stop-color="#a2b5e2"/><stop offset="1" stop-color="#91cddc"/></linearGradient><path fill="url(#SVGID_68_16)" d="M177.3 621.8c-5.4-3.2-12.7-4.2-19-3.2 2.5-3.7.9-11.3 4.6-15.5 7.1-1.3 14.4.2 20.4 4.1a24.6 24.6 0 01-6 14.6z"/><linearGradient id="SVGID_69_16" x1="148.2" x2="171.2" y1="183.7" y2="198.3" gradientTransform="rotate(1.6 -14690.4 748.8)" gradientUnits="userSpaceOnUse"><stop offset=".4" stop-color="#22567d"/><stop offset="1" stop-color="#131f49"/></linearGradient><path fill="url(#SVGID_69_16)" d="M176.5 620.5a25.5 25.5 0 00-17.6-2.9 17.2 17.2 0 013.2-15.7c7.1-1.3 14.3.2 20.4 4.1a24.8 24.8 0 01-6 14.5z"/><path d="M177.8 610.5c-1.6-.9-3.3-1.7-5.1-2.3l-3.2-1-3.3-.7c-1.4-.2-2.7-.3-4.1-.3.4-.8.9-1.6 1.5-2.3a43 43 0 0118.1 2.4 26.7 26.7 0 00-19-3.7c-3 3.6-4.2 9-3 14.1l.6-4.1c1.4 0 2.7.1 4.1.3a29.9 29.9 0 0110.7 3.1l.5.2-.4-.3-1.2-.7a28.5 28.5 0 00-13.3-4.1c.2-1.1.5-2.1.9-3.1a35.3 35.3 0 0116.2 3l1.6.7.6.3-.5-.3a6 6 0 00-1.7-1.2z" class="st75_16"/><linearGradient id="SVGID_70_16" x1="204" x2="235.2" y1="191.1" y2="202.9" gradientTransform="translate(0 424)" gradientUnits="userSpaceOnUse"><stop offset=".4" stop-color="#22567d"/><stop offset="1" stop-color="#131f49"/></linearGradient><path fill="url(#SVGID_70_16)" d="M232.4 624.2c-1-3.7-2.2-7.4-4.2-10.6-3.4 1.5-7.3 3-10.8 3.7a22 22 0 01-10.8-.4c.3 5 4 10.1 8 12.9 5.7 1.6 12.7-.9 17.8-5.6z"/><path d="M229.5 622.4l-.5.4-.7.5-.9.6-1.1.6-1.2.6a7 7 0 01-1.3.5l-.7.2-.7.2-1.5.3-1.5.2-.7.1h-3.4l-1.2-.1-1-.1-1.4-2.1c1.3.1 2.7.1 4-.1a18 18 0 003.2-.6l3.1-1a26.8 26.8 0 006-3.6l.5-.4-.5.3-1.4.9a25.2 25.2 0 01-15.6 3c-.5-1-.9-2.1-1.2-3.2 4.2.3 13-.7 18.2-5.3a53 53 0 01-10.4 3.5 22.2 22.2 0 01-10.1-.1c.7 4.6 4.3 9 7.5 11.2l-1.4-1.8.3.1 1.2.3 1.4.2h2.3l.8-.1 1.6-.3 1.5-.5.7-.3.7-.3 1.3-.7 1.2-.7 1-.7.8-.7.7-.6.4-.4.4-.4-.4.4z" class="st75_16"/><path d="M172 589.2l.6.6c-.5 2.8-1.2 5.5-2.1 8.1l-3.8-.3-.7-.6 6-7.8z" class="st86_16"/><path d="M170.1 597.4l-4-.3c-.4-2.9-.3-5.8.4-8.7a6 6 0 015.6.8l-2 8.2z" class="st80_16"/><path d="M214.3 600.7l-1.3.1a40.2 40.2 0 01-1.9-10.8l1.9-.9c-.1 3.9.4 7.8 1.3 11.6z" class="st86_16"/><path d="M220.6 599.5c-2.1.6-4.2 1-6.3 1.1-.9-3.8-1.4-7.7-1.4-11.6 2.4-1.1 5.1-1.5 7.8-1.2-.2 4-.3 7.8-.1 11.7z" class="st80_16"/><linearGradient id="SVGID_71_16" x1="220.7" x2="242.8" y1="208" y2="217.3" gradientTransform="translate(0 424)" gradientUnits="userSpaceOnUse"><stop offset="0" stop-color="#fd1013"/><stop offset=".5" stop-color="#ea23bd"/><stop offset=".7" stop-color="#3f3ccf"/><stop offset=".7" stop-color="#4159cd"/><stop offset=".9" stop-color="#45a4c6"/><stop offset=".9" stop-color="#45a7c6"/></linearGradient><path fill="url(#SVGID_71_16)" d="M243.5 636.8a28.4 28.4 0 00-17.9-5.2h-.2l-.2.1a20 20 0 00-5.2 5.1l.5.6 1.4-1.5c1.2-1.1 2.5-2 4-2.8 3.4.1 6.7.8 9.8 2 2.4 1 4.7 2.3 6.7 4 .3-.9.7-1.6 1.1-2.3z"/><linearGradient id="SVGID_72_16" x1="157.2" x2="168.1" y1="193.2" y2="218" gradientTransform="translate(0 424)" gradientUnits="userSpaceOnUse"><stop offset="0" stop-color="#fd1013"/><stop offset=".5" stop-color="#ea23bd"/><stop offset=".7" stop-color="#3f3ccf"/><stop offset=".7" stop-color="#4159cd"/><stop offset=".9" stop-color="#45a4c6"/><stop offset=".9" stop-color="#45a7c6"/></linearGradient><path fill="url(#SVGID_72_16)" d="M169.8 644.2c.1-7.9-2.2-15.6-6.7-22.1l-.2-.3h-.3c-2.1-.2-4.1-.1-6.2.3l-.9 1.5c2.1-.5 4.3-.6 6.5-.3a36 36 0 015.7 20.2l2.1.7z"/><path d="M222.3 525.7c6 1.3 11.1 5.7 13.9 11.2a31.3 31.3 0 011.6 18.7 110.3 110.3 0 01-8.9 30.9c-7.8-4.1-7.4-39.1-7.6-41.7-.8-6.2-.2-12.9 1-19.1z" class="st89_16"/><linearGradient id="SVGID_73_16" x1="157.1" x2="199.1" y1="111.4" y2="115.7" gradientTransform="translate(0 424)" gradientUnits="userSpaceOnUse"><stop offset=".2" stop-color="#fff7cc"/><stop offset=".3" stop-color="#fff2cf"/><stop offset=".3" stop-color="#fee5d7"/><stop offset=".4" stop-color="#fdcee4"/><stop offset=".5" stop-color="#fcbdee"/><stop offset=".5" stop-color="#f9bdee"/><stop offset=".5" stop-color="#cabef5"/><stop offset=".6" stop-color="#b7bef7"/><stop offset=".6" stop-color="#b7c2f6"/><stop offset=".7" stop-color="#b6cff4"/><stop offset=".8" stop-color="#b4e5f1"/><stop offset=".8" stop-color="#b4e6f1"/></linearGradient><path fill="url(#SVGID_73_16)" d="M231.6 553.9c1-4.4 2.1-8.9 1.9-13.4-.2-4.5-1.9-9.2-5.4-12s-8-3.5-12.4-3.8c-6.2-.5-12.5-.5-18.7 0-3.6.2-7.1.8-10.5 1.8s-6.5 3-9 5.6a21 21 0 00-4.5 10.1c-.6 3.7-.8 7.4-.6 11.2 19.5 3.2 39.6 4 59.2.5z"/><path d="M223.8 541.1l.4-1.2a19.7 19.7 0 00-1.6-13.4l-.5-.9c-2.1-.5-4.3-.8-6.4-1a116.8 116.8 0 00-25.3.8c-4.4 5.4-5.3 12.8-5.3 19.6l.2 1.3-3.8 2.1c1 2.4 2.4 4.7 4.1 6.7 9.1 1 18.3 1.2 27.4.8a74 74 0 009.3-5.6c1.3-1 2.7-2 4.2-2.8s3.2-1.3 4.9-1.2c.2-.3.4-.6.4-.9-2.4-1.9-5-3.8-8-4.3z" class="st89_16"/><linearGradient id="SVGID_74_16" x1="165.3" x2="233.6" y1="117.1" y2="166.3" gradientTransform="translate(0 424)" gradientUnits="userSpaceOnUse"><stop offset=".2" stop-color="#fff7cc"/><stop offset=".3" stop-color="#fff2cf"/><stop offset=".3" stop-color="#fee5d7"/><stop offset=".4" stop-color="#fdcee4"/><stop offset=".5" stop-color="#fcbdee"/><stop offset=".5" stop-color="#f9bdee"/><stop offset=".5" stop-color="#cabef5"/><stop offset=".6" stop-color="#b7bef7"/><stop offset=".6" stop-color="#b7c2f6"/><stop offset=".7" stop-color="#b6cff4"/><stop offset=".8" stop-color="#b4e5f1"/><stop offset=".8" stop-color="#b4e6f1"/></linearGradient><path fill="url(#SVGID_74_16)" d="M229.2 586.6c.1-4.4.4-8.9.7-13.3.6-6.8 1.6-13.5 2.6-20.3.2-1.1.3-2.2.2-3.3l-.1-.4c-.6-3.3-4.5-6.1-7.4-7.3-3.4-1.3-7.5-1.4-11.1-1.5-15-.6-33 2-43.9 8.9a169.7 169.7 0 00-.4 37.7c19.6-3.6 39.7-3.8 59.4-.5z"/><path d="M188.4 583.8a55.5 55.5 0 017.8-20.8 73.8 73.8 0 0121.4-21l-2.7-.1h-.8l-4.1-.1a79.8 79.8 0 00-38.7 8.5c-1.4 11.9-1.6 24-.4 36l17.5-2.5z" class="st80_16"/><linearGradient id="SVGID_75_16" x1="209.3" x2="232.2" y1="140.1" y2="140.1" gradientTransform="translate(0 424)" gradientUnits="userSpaceOnUse"><stop offset="0" stop-color="#a2b5e2"/><stop offset="1" stop-color="#91cddc"/></linearGradient><path fill="url(#SVGID_75_16)" d="M228.6 586.5c.1-4.4.4-8.9.7-13.3.5-6.4 1.5-12.8 2.4-19l.2-1.3c.2-1 .3-2.1.2-3.1l-.1-.3c-.5-2.9-4-5.6-7-6.8-1.3-.5-2.7-.8-4.1-1-5.3.7-10.3 4.5-11.6 9.6 11.4 7.3 11.3 22.6 6 33.8 5.2.4 9.7.9 13.3 1.4z"/><path d="M205.4 574.4h-.7c.1-3.2.5-6.4 1.3-9.5v-.1l.1-.1c1.8-1.7 3.9-3.1 6.3-4 .7-6 3.1-11.6 7-16.1l.6.5a28.9 28.9 0 00-6.9 16v.2l-.2.1c-2.3.9-4.4 2.2-6.2 3.8-.8 2.9-1.2 6-1.3 9.2z" class="st93_16"/><path d="M204.7 574.2c.1-3.1.5-6.2 1.3-9.3v-.1c1.8-1.7 3.9-3.1 6.2-4h.1v-.1c.6-5.9 3-11.4 6.8-15.9l.2.2c-3.8 4.5-6.2 10-6.8 15.9v.1h-.1c-2.3.9-4.4 2.2-6.2 3.9v.1c-.7 3-1.2 6-1.3 9.1l-.2.1z" class="st75_16"/><path d="M203 576.4c0-1 .7-1.9 1.7-2.1a2 2 0 012.5 1.5c.2.9-.2 1.8-.9 2.3-.9.7-2.2.4-2.9-.5a2 2 0 01-.4-1.2z" class="st93_16"/><path d="M203.3 576c0-.5.4-1 .9-1.1h.6c.5.2.8.9.6 1.4l-.4.5c-.5.3-1.1.2-1.5-.3l-.2-.5z" class="st75_16"/><path d="M173.9 560.2l.1.4.4-.1c1.3-.2 2.6-.3 3.9-.1 1 2.6 1.5 5.3 1.5 8.1h.7c0-2.9-.6-5.8-1.7-8.5l-.1-.2h-.2c-1.3-.2-2.7-.2-4 0-.5-4.3-.2-8.7 1.1-12.9l-.2-.1-.6.3a32.1 32.1 0 00-.9 13.1z" class="st93_16"/><path d="M179.8 568.3c0-2.7-.5-5.4-1.6-7.9v-.1h-.1l-1.6-.1-2.4.2h-.2v-.2c-.6-4.3-.3-8.8.9-13l.4-.2a30.4 30.4 0 00-1 12.7v.2h.2l2.1-.2 1.9.2h.1v.1c1.1 2.6 1.6 5.4 1.7 8.3h-.4z" class="st75_16"/><linearGradient id="SVGID_76_16" x1="178.1" x2="186.9" y1="142" y2="152.5" gradientTransform="translate(0 424)" gradientUnits="userSpaceOnUse"><stop offset="0" stop-color="#131f49"/><stop offset=".6" stop-color="#22567d"/></linearGradient><path fill="url(#SVGID_76_16)" d="M182.2 565c1.4-.4 2.9-.2 4.1.5 1.5.9 2.1 2.5 2.4 4.1.4 1.5.3 3.2-.1 4.7a6.3 6.3 0 01-3.1 3.7c-2.3 1-4.9.6-6.8-.9-4.4-3.7-2-10.6 3.5-12.1z"/><linearGradient id="SVGID_77_16" x1="182.2" x2="178.8" y1="149.9" y2="143.9" gradientTransform="translate(0 424)" gradientUnits="userSpaceOnUse"><stop offset="0" stop-color="#fd1013"/><stop offset=".5" stop-color="#ea23bd"/><stop offset=".7" stop-color="#3f3ccf"/><stop offset=".7" stop-color="#4159cd"/><stop offset=".9" stop-color="#45a4c6"/><stop offset=".9" stop-color="#45a7c6"/></linearGradient><path fill="url(#SVGID_77_16)" d="M183.9 570.5a3 3 0 00-1.2-2.1c-.6-.4-1.4-.4-2.1-.2-2.8.8-4 4.3-1.8 6.2 1 .8 2.3 1 3.5.5.8-.4 1.3-1.1 1.6-1.9a7 7 0 000-2.5zm-2.2 1.5c-.1.2-.2.4-.5.6-.3.2-.8.1-1-.1a1 1 0 010-1.5c.2-.2.3-.3.6-.3.2-.1.4 0 .6.1.2.1.3.4.4.6l-.1.6z"/><path fill="#e12bb8" d="M179.9 570.7c.2-.2.4-.4.7-.4h.4l.1-.5.1-1.4-.7.1c-.7.2-1.3.6-1.8 1.1l1.2 1.1zm2.1 1.8l-.1-.1-.5.5-.5.1c-.3 0-.6-.1-.8-.3l-.1-.1c-.1.6-.2 1.3-.5 1.8.5.3 1 .4 1.5.4 1.1 0 2-.6 2.5-1.6-.6-.2-1.1-.4-1.5-.7z"/><path d="M187.6 567.7c-.9-1.7-3.3-3.4-4.9-2.4-.9.6-1.6 1.4-2 2.3a4 4 0 013.6 1.7l3.3-1.6z" class="st75_16"/><path fill="#004d5c" d="M188.2 574a5.9 5.9 0 01-5.1 4.1l-1.7-2.7a3.3 3.3 0 003-2.9c1.3.3 2.6 1 3.8 1.5z" opacity=".4"/><linearGradient id="SVGID_78_16" x1="186.1" x2="230.7" y1="106.8" y2="125.8" gradientTransform="translate(0 424)" gradientUnits="userSpaceOnUse"><stop offset=".2" stop-color="#fff7cc"/><stop offset=".3" stop-color="#fff2cf"/><stop offset=".3" stop-color="#fee5d7"/><stop offset=".4" stop-color="#fdcee4"/><stop offset=".5" stop-color="#fcbdee"/><stop offset=".5" stop-color="#f9bdee"/><stop offset=".5" stop-color="#cabef5"/><stop offset=".6" stop-color="#b7bef7"/><stop offset=".6" stop-color="#b7c2f6"/><stop offset=".7" stop-color="#b6cff4"/><stop offset=".8" stop-color="#b4e5f1"/><stop offset=".8" stop-color="#b4e6f1"/></linearGradient><path fill="url(#SVGID_78_16)" d="M227.1 541.9c-.1.3-.2.7-.4.9-1.7-.1-3.4.4-4.9 1.2s-2.9 1.8-4.2 2.8a76.8 76.8 0 01-26.2 11.9 24.3 24.3 0 01-14.6-13.8l3.8-2.1-.2-1.3a30 30 0 015.3-19.6c3.9-4.7 9.6-7.7 15.7-8.1 3.5-.2 7 .5 10 2.2 2.8 1.7 5 4.1 6.5 7a19.1 19.1 0 011.7 13.3l-.3 1.2a18 18 0 017.8 4.4z"/><path d="M188.2 545.2v-1.4c-2.8-1.8-5-4.3-6.3-7.3l-.2 5.1.1 1.1.2.8-.7.4-1.9 1-1 .5c2.2 4.8 6 8.7 10.7 11a29 29 0 01-1-7.2l.1-4z" class="st80_16"/><linearGradient id="SVGID_79_16" x1="190.6" x2="232.1" y1="98.3" y2="115.9" gradientTransform="translate(0 424)" gradientUnits="userSpaceOnUse"><stop offset="0" stop-color="#fff7cc"/><stop offset="1" stop-color="#fff7cc"/></linearGradient><path fill="url(#SVGID_79_16)" d="M198.7 521.5c.4.8.7 1.7.9 2.6l.1.5v.2l.1.6v.6l.1 1.6.3.9.1.2.3.4.7 1.1 1 1.3c1.1-2.1 2.6-4 4.3-5.7l-1.6-.9-6.3-3.4z"/><radialGradient id="SVGID_80_16" cx="122.2" cy="277.4" r="31.7" gradientTransform="matrix(1.6 0 0 1.6 23.6 113.7)" gradientUnits="userSpaceOnUse"><stop offset="0" stop-color="#83f7c7"/><stop offset=".2" stop-color="#4cddc6"/><stop offset=".4" stop-color="#15c2c4"/><stop offset=".5" stop-color="#00b8c4"/><stop offset=".5" stop-color="#04abbb"/><stop offset=".7" stop-color="#1186a0"/><stop offset=".8" stop-color="#1a6c8d"/><stop offset=".9" stop-color="#205c81"/><stop offset="1" stop-color="#22567d"/></radialGradient><path fill="url(#SVGID_80_16)" d="M194.5 516a17 17 0 00-11.3 16.5c0 3.4 1.7 6.6 4.5 8.5 3.4 2.2 8.1 2 12.1 1 4.1-1 8-2.6 11-5.3s5-6.5 4.7-10.5c-.3-4.4-3.4-8.3-7.6-10.2a17.8 17.8 0 00-13.4 0z"/><path d="M184 530.6c-.4 3 .6 7.2 4.3 7.3 2.4.1 4.3-1.9 5.9-3.6 2-2.2 4.3-4.2 6.7-5.9s5.4-2.4 7.6-4.2c1.3-1.1 2.3-2.8 1.9-4.4-.4-1.9-2.3-3-4.2-3.6a16 16 0 00-14.9 2.2 19.5 19.5 0 00-7.4 11.9c.2-.1.2.1.1.3z" class="st80_16"/><path d="M186.8 538.5a8 8 0 004.2 1.9c1.6.2 3.1.3 4.7.1 3.1-.3 6.1-1.2 8.9-2.6 2.7-1.3 5-3.3 6.7-5.7s2.6-5.2 2.5-8.1c.5 3 0 6-1.7 8.6a17.6 17.6 0 01-7 6.3c-3 1.5-6.2 2.3-9.5 2.5a16 16 0 01-4.9-.4 9 9 0 01-3.9-2.6z" class="st80_16"/><linearGradient id="SVGID_81_16" x1="191.2" x2="194.4" y1="123.3" y2="123.3" gradientTransform="translate(0 424)" gradientUnits="userSpaceOnUse"><stop offset=".4" stop-color="#7cc7c9"/><stop offset=".6" stop-color="#6cbcc2"/></linearGradient><path fill="url(#SVGID_81_16)" d="M191.2 547.6c-.1-.5.1-1.1.5-1.5.3-.3.7-.5 1.1-.5.7 0 1.3.4 1.5 1s.1 1.3-.4 1.8c-.6.7-1.6.7-2.2.2-.3-.2-.5-.6-.5-1z"/><linearGradient id="SVGID_82_16" x1="202.5" x2="224.9" y1="113.7" y2="113.7" gradientTransform="translate(0 424)" gradientUnits="userSpaceOnUse"><stop offset="0" stop-color="#a2b5e2"/><stop offset="1" stop-color="#91cddc"/></linearGradient><path fill="url(#SVGID_82_16)" d="M218.2 538.2c1.9-4.8.7-10.8-2.6-14.8 1.3 4.1.5 8.5-2 12a27.6 27.6 0 01-11 7.6c.6 1.9.8 3.9.9 6 .9 1.2 1.9 2.2 3.2 3 4.1-2.7 8.6-5.3 12.7-7.9 1.7-1.1 3.6-2.3 5.6-1.9-2-1.4-4.2-2.5-6.5-3.3l-.3-.7z"/><linearGradient id="SVGID_83_16" x1="182.3" x2="217.6" y1="128.9" y2="128.9" gradientTransform="translate(0 424)" gradientUnits="userSpaceOnUse"><stop offset=".4" stop-color="#7cc7c9"/><stop offset=".6" stop-color="#6cbcc2"/></linearGradient><path fill="url(#SVGID_83_16)" d="M217.6 546.8a63.4 63.4 0 01-6 4.1c-2.1 1.2-4.2 2.4-6.4 3.4a93.8 93.8 0 01-13.7 4.7h-.2a24.7 24.7 0 01-9-5.8c2.6 2.4 5.7 4.3 9.1 5.3h-.1a90.7 90.7 0 0013.6-4.7c2.2-1 4.4-2 6.5-3.2l6.2-3.8z"/><linearGradient id="SVGID_84_16" x1="169.7" x2="229.3" y1="160.6" y2="160.6" gradientTransform="translate(0 424)" gradientUnits="userSpaceOnUse"><stop offset="0" stop-color="#fd1013"/><stop offset=".5" stop-color="#ea23bd"/><stop offset=".7" stop-color="#3f3ccf"/><stop offset=".7" stop-color="#4159cd"/><stop offset=".9" stop-color="#45a4c6"/><stop offset=".9" stop-color="#45a7c6"/></linearGradient><path fill="url(#SVGID_84_16)" d="M225.7 586.1l3.5.5v-1.2l-3.3-.7-3.8-.7-7.7-1.1a133 133 0 00-31-.2l-3.8.5-1.9.3-1.9.4-1.9.5-1.9.5-2.4.8.1 1.5a193.2 193.2 0 0136.8-2.4l3.8.1 1.9.1 1.9.1 3.8.3 3.8.3 4 .4z"/><linearGradient id="SVGID_85_16" x1="182.3" x2="218.4" y1="122.7" y2="122.7" gradientTransform="translate(0 424)" gradientUnits="userSpaceOnUse"><stop offset=".4" stop-color="#7cc7c9"/><stop offset=".6" stop-color="#6cbcc2"/></linearGradient><path fill="url(#SVGID_85_16)" d="M182.3 544.2l1.9 2.8c.7.9 1.5 1.6 2.3 2.4a25.6 25.6 0 005.5 3.6h-.3a66.7 66.7 0 0014-5.4c2.2-1.2 4.4-2.4 6.5-3.8l3.1-2.2 1.5-1.1 1.5-1.2-1.3 1.4-1.4 1.3-1.5 1.3-1.5 1.2a44 44 0 01-13.3 7.4c-2.4.9-4.8 1.6-7.4 2.2h-.2l-.2-.1-3-1.8-2.6-2.2-2.2-2.6c-.4-1.2-1-2.2-1.4-3.2z"/><linearGradient id="SVGID_86_16" x1="224" x2="259.3" y1="145.9" y2="145" gradientTransform="translate(0 424)" gradientUnits="userSpaceOnUse"><stop offset=".2" stop-color="#fff7cc"/><stop offset=".3" stop-color="#fff2cf"/><stop offset=".3" stop-color="#fee5d7"/><stop offset=".4" stop-color="#fdcee4"/><stop offset=".5" stop-color="#fcbdee"/><stop offset=".5" stop-color="#f9bdee"/><stop offset=".5" stop-color="#cabef5"/><stop offset=".6" stop-color="#b7bef7"/><stop offset=".6" stop-color="#b7c2f6"/><stop offset=".7" stop-color="#b6cff4"/><stop offset=".8" stop-color="#b4e5f1"/><stop offset=".8" stop-color="#b4e6f1"/></linearGradient><path fill="url(#SVGID_86_16)" d="M259.3 588.2a82 82 0 00-23-39.4c-2-1.8-4.5-3.5-7.1-3.5-6 5.7-9.4 12.9-6.1 22.5 3.5 5 7 10 9.8 15.4 1.8 3.5 3.2 7.1 4.2 10.9a26.4 26.4 0 0122.2-5.9z"/><linearGradient id="SVGID_87_16" x1="237.1" x2="262.3" y1="175.6" y2="175.6" gradientTransform="translate(0 424)" gradientUnits="userSpaceOnUse"><stop offset=".4" stop-color="#22567d"/><stop offset="1" stop-color="#131f49"/></linearGradient><path fill="url(#SVGID_87_16)" d="M237.1 593.9c.5 2.1.9 4.3 1.1 6.4 1.3 1.3 2.9 2.3 4.7 2.8l1.1 7.3c2.2 1 4.9 1.5 7.2.8l1.1-1.7c3.5-.6 6.9-1.9 10-3.8a94 94 0 00-2.9-17.5c-7.9-1.5-16.1.6-22.3 5.7z"/><path fill="#b86053" d="M254.5 600.1a53 53 0 011 8c2.1-.7 4.1-1.6 6-2.7a83.7 83.7 0 00-2.8-16.5c-1.4-.3-2.9-.4-4.4-.4l-2.5.1c1.3 3.7 2.1 7.6 2.7 11.5z" opacity=".4"/><linearGradient id="SVGID_88_16" x1="230.7" x2="251.7" y1="130.6" y2="149.1" gradientTransform="translate(0 424)" gradientUnits="userSpaceOnUse"><stop offset=".4" stop-color="#22567d"/><stop offset="1" stop-color="#131f49"/></linearGradient><path fill="url(#SVGID_88_16)" d="M235.9 554c3 4 5.5 8.3 7.5 12.9-1.3.2-2.5.5-3.7.9l-6.3-12.2 2.5-1.6z"/><linearGradient id="SVGID_89_16" x1="235.8" x2="260.1" y1="127.5" y2="148.9" gradientTransform="translate(0 424)" gradientUnits="userSpaceOnUse"><stop offset=".4" stop-color="#22567d"/><stop offset="1" stop-color="#131f49"/></linearGradient><path fill="url(#SVGID_89_16)" d="M250.2 566.1l-.8.1a75.6 75.6 0 00-10.3-13.7l.7-.2c4 4.2 7.5 8.9 10.4 13.8z"/><path fill="#5e5a6c" d="M249.4 566.2c-2 .1-4 .4-6 .8-2-4.6-4.5-8.9-7.5-12.9 1-.6 2.1-1.1 3.3-1.5 3.9 4.1 7.3 8.7 10.2 13.6z"/><linearGradient id="SVGID_90_16" x1="228.8" x2="239.1" y1="126" y2="126" gradientTransform="translate(0 424)" gradientUnits="userSpaceOnUse"><stop offset="0" stop-color="#a2b5e2"/><stop offset="1" stop-color="#91cddc"/></linearGradient><path fill="url(#SVGID_90_16)" d="M239.1 552.5a24 24 0 00-3.3 1.5l-.2-.3c-2.1-2.6-4.4-5-6.8-7.1l.7-.7c2 .1 4.1 1.2 6.4 3.3l3.2 3.3z"/><linearGradient id="SVGID_91_16" x1="243.4" x2="258.4" y1="152.7" y2="152.7" gradientTransform="translate(0 424)" gradientUnits="userSpaceOnUse"><stop offset="0" stop-color="#a2b5e2"/><stop offset="1" stop-color="#91cddc"/></linearGradient><path fill="url(#SVGID_91_16)" d="M258.4 587.3a26 26 0 00-4-.3l-2.3.1c-2.2-6.1-4.7-12.1-7.6-17.9l-.8-1.7-.3-.6c2-.4 4-.6 6-.8a92 92 0 019 21.2z"/><path d="M247.1 603.9c.1-4.4-1-8.5-1.3-12.9l.1-1.2a25 25 0 00-8 4.4c.5 1.9.8 3.9 1 5.8a12 12 0 003 2c.5-1.8.8-3.7.8-5.6.5 2.1.8 4.2.8 6.3v.3l.6 3.6.5 3.2 1.8.6c.4-2.1.6-4.3.7-6.5z" class="st75_16"/><path d="M233.8 573.3a67.6 67.6 0 00-10.9-16c-.6 3.4-.3 6.8.9 10 3.4 4.9 7 9.9 9.8 15.4a51 51 0 014 10c1.3-1 2.6-1.9 4.1-2.6-2.1-5.9-4.9-11.3-7.9-16.8z" class="st80_16"/><linearGradient id="SVGID_92_16" x1="232.6" x2="254.3" y1="154.8" y2="154.8" gradientTransform="translate(0 424)" gradientUnits="userSpaceOnUse"><stop offset="0" stop-color="#fd1013"/><stop offset=".5" stop-color="#ea23bd"/><stop offset=".7" stop-color="#3f3ccf"/><stop offset=".7" stop-color="#4159cd"/><stop offset=".9" stop-color="#45a4c6"/><stop offset=".9" stop-color="#45a7c6"/></linearGradient><path fill="url(#SVGID_92_16)" d="M253.8 573a23.8 23.8 0 00-21.2 9.6l.3.5.7 1.5c2.1-3.3 5-6.1 8.4-7.9 3.8-2 8-2.8 12.3-2.5l-.5-1.2z"/></g><g><linearGradient id="SVGID_93_16" x1="7498.7" x2="7498.7" y1="-111.4" y2="-249.6" gradientTransform="matrix(-1 0 0 1 7591.2 424)" gradientUnits="userSpaceOnUse"><stop offset="0" stop-color="#838bff"/><stop offset="1" stop-color="#455bc8"/></linearGradient><path fill="url(#SVGID_93_16)" fill-rule="evenodd" d="M151.2 184.8s3.2 49.2 0 69.5c0 0-4.1 11.9-22.2 17.1v39.1s-31 7-41.5-4.4-55.1-131.7-55.1-131.7l53.9 5.9 64.9 4.5z" clip-rule="evenodd"/><linearGradient id="SVGID_94_16" x1="7440" x2="7558.8" y1="-242.9" y2="-242.9" gradientTransform="matrix(-1 0 0 1 7591.2 424)" gradientUnits="userSpaceOnUse"><stop offset="0" stop-color="#c5c4ff"/><stop offset="1" stop-color="#9fbbff"/></linearGradient><path fill="url(#SVGID_94_16)" fill-rule="evenodd" d="M151.2 184.8s-38.1-3.2-44.5-7l-13-6.4-61.3 3s8.3 5.9 16.6 10.4 47 7 63.5 5.7 38.7-5.7 38.7-5.7z" clip-rule="evenodd"/><linearGradient id="SVGID_95_16" x1="7499.4" x2="7499.4" y1="-105.1" y2="-249.6" gradientTransform="matrix(-1 0 0 1 7591.2 424)" gradientUnits="userSpaceOnUse"><stop offset="0" stop-color="#6390ff"/><stop offset="1" stop-color="#4236b6"/></linearGradient><path fill="url(#SVGID_95_16)" fill-rule="evenodd" d="M151.2 254.3l-19.6 3.7-10.5-3.7-6.6-41v40.8l-2.9 15.5-19.1 7.3s-13.1-5.9-15.4-14.6c-2.3-8.7-18.9-74.9-18.9-74.9l-25.8-13s33.8 98.1 48.9 120.9l11.2 17.3 34.7 6.3 4.4-12.8-2.6-34.7s21.2-5.9 22.2-17.1z" clip-rule="evenodd"/><path d="M106.8 177.8s-17.6 2.4-24.2 2.1c-6.6-.3-21-2.1-21-2.1s22.1-7.1 32.2-6.4c-.1 0 11 2.6 13 6.4z" class="st5_16"/></g><g><linearGradient id="SVGID_96_16" x1="1729.9" x2="1729.9" y1="268" y2="323.9" gradientTransform="rotate(180 1041.2 424.6)" gradientUnits="userSpaceOnUse"><stop offset="0" stop-color="#68b6ff"/><stop offset="1" stop-color="#2938c8"/></linearGradient><path fill="url(#SVGID_96_16)" fill-rule="evenodd" d="M331.4 564.1s3.3 10.3 5.8 13 20.6 4.2 20.6 4.2 13.2-7.4 14.8-11.5c.2-.4.3-1.1.4-2 1.2-7.7 1.1-30.5-1.7-33.7 0 0-4.9-6.4-8.2-8.2-3.2-1.8-19.6 4-22.3 6-.4.3-.8.7-1.1 1.2l-.1.2a16.7 16.7 0 00-1.5 6.7s-4 2.4-4.7 4.4v.1c-.7 2.2-2 19.6-2 19.6z" clip-rule="evenodd"/><linearGradient id="SVGID_97_16" x1="1730.1" x2="1730.1" y1="268" y2="316.3" gradientTransform="rotate(180 1041.2 424.6)" gradientUnits="userSpaceOnUse"><stop offset="0" stop-color="#687cff"/><stop offset="1" stop-color="#2725b6"/></linearGradient><path fill="url(#SVGID_97_16)" fill-rule="evenodd" d="M355.6 567.6l-.7-9.7-.7-10.6-1.6-5.7v10.2s-4.2-3.4-4.5-6-2.1-6.8-2.1-6.8l-6.1-6.2-.1.2c-.5.7-1.9 3.1-1.5 6.7l3.5 7.9.4 8.2-2.1 9.4-3.8-5.3c-1.1-1.7-1.1-6.7-1.1-6.7l-1.5-9.1v.1c-.8 2.4-2.1 19.8-2.1 19.8s3.3 10.3 5.8 13 20.6 4.2 20.6 4.2 13.2-7.4 14.8-11.5c.2-.4.3-1.1.4-2-.3.3-5.8 5.4-9.5 6.5-3.8 1.2-7.1 0-7.1 0l-1-6.6" clip-rule="evenodd"/><linearGradient id="SVGID_98_16" x1="1710.5" x2="1742.7" y1="317.7" y2="317.7" gradientTransform="rotate(180 1041.2 424.6)" gradientUnits="userSpaceOnUse"><stop offset="0" stop-color="#c5c4ff"/><stop offset="1" stop-color="#f9bbff"/></linearGradient><path fill="url(#SVGID_98_16)" fill-rule="evenodd" d="M372 535l-16.7 3.8h-7.5l-2.8-.7-5.2-5.2s.4-2.7 3.5-3.9c3-1.2 19-4.9 19-4.9l1.8 1.2c-.1 0 6.4 6.8 7.9 9.7z" clip-rule="evenodd"/><linearGradient id="SVGID_99_16" x1="1740.8" x2="1749" y1="304.9" y2="304.9" gradientTransform="rotate(180 1041.2 424.6)" gradientUnits="userSpaceOnUse"><stop offset="0" stop-color="#c5c4ff"/><stop offset="1" stop-color="#f9bbff"/></linearGradient><path fill="url(#SVGID_99_16)" fill-rule="evenodd" d="M338.2 539.8l3.5 7.9-4.2 1-3.4-1.3-.6-3.2c0 .1 2.2-3.3 4.7-4.4z" clip-rule="evenodd"/></g><g><path d="M92.3 156.7l2.1 15.9-4.6-1-5.4-.2 2.9-14.9 1.9.1-7.7-11.7 18.3-5.7.8-.2.6 3.2-17.9 3.1 7.5 11.3z" class="st122_16"/><path d="M93.2 172.6l-1.1-15.9-2.3.1-3 14.7zm6.6-33.4l-.1 1.1-18.2 4.6z" class="st123_16"/><linearGradient id="SVGID_100_16" x1="2324.4" x2="2355.6" y1="715.6" y2="715.6" gradientTransform="rotate(180 1224.3 424.6)" gradientUnits="userSpaceOnUse"><stop offset="0" stop-color="#9f3e94"/><stop offset=".5" stop-color="#d36174"/><stop offset="1" stop-color="#ff9973"/></linearGradient><path fill="url(#SVGID_100_16)" d="M124.2 150.5l-.1 3v.5s-18.7-.7-25.8-14.9l-.2-.5c-6.8-14-4.6-25.5-4.6-25.5h.2c1.9.3 16.1 3.2 23.8 14a41.7 41.7 0 016.7 23.4z"/><path d="M124.2 150.5v2.9s-4.6-2.3-9.7-6.4a45 45 0 01-11.7-13.1c-4.4-8-7.4-16.3-9-20.9 1.9.3 16.1 3.2 23.8 14a42.8 42.8 0 016.6 23.5z" class="st125_16"/><linearGradient id="SVGID_101_16" x1="2337.3" x2="2339.6" y1="692.4" y2="728.6" gradientTransform="rotate(180 1224.3 424.6)" gradientUnits="userSpaceOnUse"><stop offset="0" stop-color="#9f3e94"/><stop offset=".5" stop-color="#d36174"/><stop offset="1" stop-color="#ff9973"/></linearGradient><path fill="url(#SVGID_101_16)" d="M123.3 151.2s-13.4-6.8-19.3-17.5l-.3-.5a115.3 115.3 0 01-7.6-17.7l-.2-.6c1.7.3 14.4 2.8 21.4 12.6a38.3 38.3 0 016 23.7z"/><path d="M124.1 153.5v.5s-18.7-.7-25.8-14.9l-.2-.5s6.1 7.6 11 8.5c1.9.3 3.7.3 5.3.1a64 64 0 009.7 6.3z" class="st127_16"/><linearGradient id="SVGID_102_16" x1="-1233.8" x2="-1208.3" y1="1190.7" y2="1203.3" gradientTransform="scale(1 -1) rotate(15 4499.1 5616.2)" gradientUnits="userSpaceOnUse"><stop offset="0" stop-color="#740148"/><stop offset="1" stop-color="#da7e68"/></linearGradient><path fill="url(#SVGID_102_16)" d="M105.8 133.5l22.6-10.4-21 12.9z"/><path d="M129.8 122.4c.2.5-.2 1.1-1 1.4-.7.3-1.5.1-1.7-.3-.2-.5.2-1.1 1-1.4.7-.3 1.5-.2 1.7.3z" class="st129_16"/><linearGradient id="SVGID_103_16" x1="-1225.8" x2="-1239.7" y1="1217.3" y2="1198" gradientTransform="scale(1 -1) rotate(15 4499.1 5616.2)" gradientUnits="userSpaceOnUse"><stop offset="0" stop-color="#00fbc2"/><stop offset="1"/></linearGradient><path fill="url(#SVGID_103_16)" d="M108.3 120.3s-3.7 5.3-4.4 9.3c-.2 1.1-.2 2.3-.1 3.6a115.3 115.3 0 01-7.6-17.7c4.5.5 12.1 4.8 12.1 4.8z" opacity=".6"/><path d="M100.1 174.9l34.1 9.3 3.4.9-1.2-6.8-29.5-4.5v-11.4h-1.2l-1.1-4.5h-1.1l-1.2 4.5h-1.1z" class="st122_16"/><path d="M136.4 178.3l-29.5-4.5 27.3 5.7v4.7l3.4.9zm-32.9-15.9h1.1l-1.1 11.4h3.4v-11.4h-1.2l-1.1-4.5h-1.1z" class="st123_16"/></g><g><linearGradient id="SVGID_104_16" x1="7283.6" x2="7283.6" y1="-297.8" y2="-370.5" gradientTransform="translate(-6926.4 424)" gradientUnits="userSpaceOnUse"><stop offset="0" stop-color="#838bff"/><stop offset="1" stop-color="#455bc8"/></linearGradient><path fill="url(#SVGID_104_16)" fill-rule="evenodd" d="M360.5 56.6l28.3-3.1s-23.4 63.2-29 69.2c-5.5 6-21.8 2.3-21.8 2.3v-20.5c-9.5-2.7-11.7-9-11.7-9-1.7-10.7 0-36.5 0-36.5l34.2-2.4z" clip-rule="evenodd"/><linearGradient id="SVGID_105_16" x1="7252.7" x2="7315.2" y1="-367" y2="-367" gradientTransform="translate(-6926.4 424)" gradientUnits="userSpaceOnUse"><stop offset="0" stop-color="#c5c4ff"/><stop offset="1" stop-color="#9fbbff"/></linearGradient><path fill="url(#SVGID_105_16)" fill-rule="evenodd" d="M346.7 62c8.7.7 29-.6 33.4-3s8.7-5.5 8.7-5.5l-32.2-1.6-6.8 3.4c-3.4 2-23.4 3.7-23.4 3.7s11.6 2.3 20.3 3z" clip-rule="evenodd"/><linearGradient id="SVGID_106_16" x1="7284" x2="7284" y1="-294.6" y2="-370.5" gradientTransform="translate(-6926.4 424)" gradientUnits="userSpaceOnUse"><stop offset="0" stop-color="#6390ff"/><stop offset="1" stop-color="#4236b6"/></linearGradient><path fill="url(#SVGID_106_16)" fill-rule="evenodd" d="M338 104.5l-1.4 18.2 2.3 6.7 18.2-3.3 5.9-9.1c7.9-12 25.7-63.5 25.7-63.5l-13.6 6.8-9.9 39.4c-1.2 4.6-8.1 7.7-8.1 7.7l-10-3.8-1.5-8.1V74l-3.5 21.5-5.5 1.9-10.3-1.9c.6 5.9 11.7 9 11.7 9z" clip-rule="evenodd"/><path d="M356.5 51.9c5.3-.4 16.9 3.4 16.9 3.4s-7.6.9-11 1.1c-3.5.2-12.7-1.1-12.7-1.1 1-2 6.9-3.4 6.8-3.4z" class="st5_16"/></g><g><path d="M358.1 44.2l3.9-6-9.4-1.6.3-1.7.5.1 9.6 3-4.1 6.2 1-.1 1.6 7.8-2.9.1-2.4.6 1.1-8.4z" class="st122_16"/><path d="M360.2 52l-1.6-7.7-1.2-.1-.6 8.4zm2.8-14l-9.6-2.4V35z" class="st123_16"/><linearGradient id="SVGID_107_16" x1="2124.4" x2="2140.7" y1="817.2" y2="817.2" gradientTransform="matrix(1 0 0 -1 -1783.8 849.2)" gradientUnits="userSpaceOnUse"><stop offset="0" stop-color="#9f3e94"/><stop offset=".5" stop-color="#d36174"/><stop offset="1" stop-color="#ff9973"/></linearGradient><path fill="url(#SVGID_107_16)" d="M344.1 28.7a21 21 0 0112.5-7.4h.1s1.2 6-2.4 13.4l-.1.3c-3.7 7.5-13.6 7.8-13.6 7.8v-.3l-.1-1.6c0-2.7.5-7.9 3.6-12.2z"/><path d="M344 28.6a21 21 0 0112.5-7.4c-.8 2.4-2.4 6.8-4.7 11a24 24 0 01-6.1 6.9c-2.7 2.2-5.1 3.4-5.1 3.4v-1.6c-.1-2.7.4-7.9 3.4-12.3z" class="st125_16"/><linearGradient id="SVGID_108_16" x1="2131.1" x2="2132.4" y1="804.9" y2="823.9" gradientTransform="matrix(1 0 0 -1 -1783.8 849.2)" gradientUnits="userSpaceOnUse"><stop offset="0" stop-color="#9f3e94"/><stop offset=".5" stop-color="#d36174"/><stop offset="1" stop-color="#ff9973"/></linearGradient><path fill="url(#SVGID_108_16)" d="M344.2 28.9a18.8 18.8 0 0111.2-6.6l-.1.3-1.8 4.7c-.6 1.5-1.4 3-2.2 4.6l-.2.3a27.4 27.4 0 01-10.1 9.2c-.1-1.3-.3-7.6 3.2-12.5z"/><path d="M345.7 39.2a9 9 0 002.8-.1c2.6-.5 5.8-4.5 5.8-4.5l-.1.3c-3.7 7.5-13.6 7.8-13.6 7.8v-.3a23 23 0 005.1-3.2z" class="st127_16"/><linearGradient id="SVGID_109_16" x1="-1004.2" x2="-990.8" y1="1237.5" y2="1244.1" gradientTransform="rotate(-165 -405.4 547.4)" gradientUnits="userSpaceOnUse"><stop offset="0" stop-color="#740148"/><stop offset="1" stop-color="#da7e68"/></linearGradient><path fill="url(#SVGID_109_16)" d="M349.4 33.3l-11.1-6.7 11.9 5.4z"/><path d="M338.5 26c.4.2.6.5.5.7-.1.2-.5.3-.9.2-.4-.2-.6-.5-.5-.7.1-.3.5-.3.9-.2z" class="st129_16"/><linearGradient id="SVGID_110_16" x1="-1000" x2="-1007.3" y1="1251.5" y2="1241.4" gradientTransform="rotate(-165 -405.4 547.4)" gradientUnits="userSpaceOnUse"><stop offset="0" stop-color="#00fbc2"/><stop offset="1"/></linearGradient><path fill="url(#SVGID_110_16)" d="M355.3 22.6l-1.8 4.7c-.6 1.5-1.4 3-2.2 4.6a4 4 0 00-.1-1.9c-.4-2.1-2.3-4.9-2.3-4.9s4-2.3 6.4-2.5z" opacity=".6"/><path d="M352.6 47.2h-.5l-.7-2.4h-.6l-.5 2.4h-.7v6l-15.5 2.4-.6 3.5 1.8-.4 17.9-4.9z" class="st122_16"/><path d="M333.5 59.1l1.8-.4v-2.5l14.3-3-15.5 2.4zm17.9-14.3h-.6l-.5 2.4h-.7v6h1.8l-.6-6h.6z" class="st123_16"/></g><g><linearGradient id="SVGID_111_16" x1="2994.1" x2="2994.1" y1="34.4" y2="94.1" gradientTransform="rotate(180 1716.7 424.6)" gradientUnits="userSpaceOnUse"><stop offset="0" stop-color="#68b6ff"/><stop offset="1" stop-color="#2938c8"/></linearGradient><path fill="url(#SVGID_111_16)" fill-rule="evenodd" d="M464.7 759.6s1.4 21.2 0 30c0 0-1.8 5.1-9.6 7.4v16.9s-13.4 3-17.9-1.9-23.8-56.9-23.8-56.9l23.3 2.6 28 1.9z" clip-rule="evenodd"/><linearGradient id="SVGID_112_16" x1="2968.8" x2="3020.1" y1="91.1" y2="91.1" gradientTransform="rotate(180 1716.7 424.6)" gradientUnits="userSpaceOnUse"><stop offset="0" stop-color="#c5c4ff"/><stop offset="1" stop-color="#f9bbff"/></linearGradient><path fill="url(#SVGID_112_16)" fill-rule="evenodd" d="M464.7 759.6s-16.5-1.4-19.2-3l-5.6-2.7-26.5 1.3s3.6 2.6 7.2 4.5 20.3 3 27.4 2.5c7.1-.7 16.7-2.6 16.7-2.6z" clip-rule="evenodd"/><linearGradient id="SVGID_113_16" x1="2994.5" x2="2994.5" y1="31.7" y2="94.1" gradientTransform="rotate(180 1716.7 424.6)" gradientUnits="userSpaceOnUse"><stop offset="0" stop-color="#687cff"/><stop offset="1" stop-color="#2725b6"/></linearGradient><path fill="url(#SVGID_113_16)" fill-rule="evenodd" d="M464.7 789.6l-8.5 1.6-4.5-1.6-2.9-17.7v17.6l-1.3 6.7-8.3 3.2s-5.7-2.5-6.7-6.3l-8.1-32.4-11.2-5.6s14.6 42.4 21.1 52.2l4.9 7.5 15 2.7 1.9-5.5-1.1-15c.1 0 9.3-2.5 9.7-7.4z" clip-rule="evenodd"/><path d="M445.5 756.5s-7.6 1-10.5.9-9.1-.9-9.1-.9 9.6-3.1 13.9-2.7c.1 0 4.9 1.1 5.7 2.7z" class="st5_16"/></g><g><linearGradient id="SVGID_114_16" x1="3233.9" x2="3266.5" y1="149.6" y2="149.6" gradientTransform="rotate(180 1814.7 424.6)" gradientUnits="userSpaceOnUse"><stop offset="0" stop-color="#68b6ff"/><stop offset="1" stop-color="#2938c8"/></linearGradient><path fill="url(#SVGID_114_16)" fill-rule="evenodd" d="M362.9 686.4v.2c.2 1.5 1.6 13.5 2.2 16.3.6 3 1.6 3 1.6 3s3.1 8.4 5.7 9.7 10.9-.5 10.9-.5 10.4-7.9 12.2-27.6c0 0-9.8-4.7-16.7-4.4s-15.9 3.3-15.9 3.3z" clip-rule="evenodd"/><linearGradient id="SVGID_115_16" x1="3250.2" x2="3250.2" y1="133.2" y2="162.7" gradientTransform="rotate(180 1814.7 424.6)" gradientUnits="userSpaceOnUse"><stop offset="0" stop-color="#687cff"/><stop offset="1" stop-color="#2725b6"/></linearGradient><path fill="url(#SVGID_115_16)" fill-rule="evenodd" d="M362.9 686.5c.2 1.5 1.6 13.5 2.2 16.3.6 3 1.6 3 1.6 3s3.1 8.4 5.7 9.7 10.9-.5 10.9-.5 10.4-7.9 12.2-27.6c0 0-2.7 13.5-7.4 19.1-4.7 5.6-9.7 3.5-9.7 3.5l-4.7-10.5-2.3-8.2-1.7-3.6-2.1 7 1.1 7h-3.1l-2.7-15.2z" clip-rule="evenodd"/><linearGradient id="SVGID_116_16" x1="3233.9" x2="3266.5" y1="164.4" y2="164.4" gradientTransform="rotate(180 1814.7 424.6)" gradientUnits="userSpaceOnUse"><stop offset="0" stop-color="#c5c4ff"/><stop offset="1" stop-color="#f9bbff"/></linearGradient><path fill="url(#SVGID_116_16)" fill-rule="evenodd" d="M395.5 687.4l-9-.1-8.5-.8-11.2-.2-3.9.2s9.7-3.7 15.2-4.3c5.5-.5 17.4 5.2 17.4 5.2z" clip-rule="evenodd"/></g><g><linearGradient id="SVGID_117_16" x1="2397.4" x2="2397.4" y1="221.6" y2="315.7" gradientTransform="rotate(177.8 1344.5 447.8)" gradientUnits="userSpaceOnUse"><stop offset="0" stop-color="#c5c4ff"/><stop offset="1" stop-color="#f9bbff"/></linearGradient><path fill="url(#SVGID_117_16)" fill-rule="evenodd" d="M263.9 637.1l2.3 14.4s7.7 2.6 8.8 5c1.2 2.5 6.1 47.3 6.1 47.3l5.3 4.1s3.3 8.2 6 7.3 5.4-12.1 5.4-12.1l1.1-1.4 2.5-3.7a71 71 0 003.4-14.9l.8-5.8 13.4-2.8 1.7-3.3 11.2-6.8c3.2-16.6-.2-37.5-.2-37.5a64.7 64.7 0 00-26.1-6.3c-5.2.5-16.1 4.1-17.4 4.6h-.1l-1.9 10.6c-9-2.6-22.3 1.3-22.3 1.3z" clip-rule="evenodd"/><linearGradient id="SVGID_118_16" x1="2398.4" x2="2398.4" y1="221.6" y2="314.3" gradientTransform="rotate(177.8 1344.5 447.8)" gradientUnits="userSpaceOnUse"><stop offset="0" stop-color="#68b6ff"/><stop offset="1" stop-color="#2938c8"/></linearGradient><path fill="url(#SVGID_118_16)" fill-rule="evenodd" d="M263.9 637.1l2.3 14.4s7.7 2.6 8.8 5c1.2 2.5 6.1 47.3 6.1 47.3l5.3 4.1s3.3 8.2 6 7.3 5.4-12.1 5.4-12.1l1.1-1.4-2.7-1.3-5 4.4-2.3-6-1.3-33.4 7.3 2.1 8.5 9.9 1.4 5.6.8-5.8 13.4-2.8 1.7-3.3 11.2-6.8-7.6 1.3-1.1-7.8-2.7 11.6-3.5.1-7.9-2.1s-2.5-5.1-3.2-7.8-2.4-20.4-2.4-20.4l-.6-16-4.3-1.1-10.5 2.9h-.1l-1.9 10.6c-8.9-2.4-22.2 1.5-22.2 1.5z" clip-rule="evenodd"/></g><g><linearGradient id="SVGID_119_16" x1="433.2" x2="427.2" y1="617.8" y2="621.2" gradientUnits="userSpaceOnUse"><stop offset="0" stop-color="#2bb1e9"/><stop offset="1" stop-color="#2295d1"/></linearGradient><path fill="url(#SVGID_119_16)" d="M422.1 604.3l21.6 4.1 7.4 5.9-16.4 22.5a2172 2172 0 01-12.6-32.5z"/><linearGradient id="SVGID_120_16" x1="439.2" x2="427" y1="597.4" y2="615.2" gradientUnits="userSpaceOnUse"><stop offset="0" stop-color="#33beff"/><stop offset="1" stop-color="#6deefe"/></linearGradient><path fill="url(#SVGID_120_16)" d="M422.1 604.3l14.2 15.5 7.4-11.4-21.6-4.1z"/><linearGradient id="SVGID_121_16" x1="445" x2="439.6" y1="612.5" y2="615" gradientUnits="userSpaceOnUse"><stop offset="0" stop-color="#33beff"/><stop offset="1" stop-color="#6deefe"/></linearGradient><path fill="url(#SVGID_121_16)" d="M436.3 619.8l14.7-5.5-7.4-5.9-7.3 11.4z"/><linearGradient id="SVGID_122_16" x1="446.3" x2="439.5" y1="608.8" y2="629.7" gradientUnits="userSpaceOnUse"><stop offset="0" stop-color="#36abea"/><stop offset="1" stop-color="#48cff2"/></linearGradient><path fill="url(#SVGID_122_16)" d="M436.3 619.8l-1.6 17.1 16.4-22.5c-5 1.7-9.9 3.5-14.8 5.4z"/><path d="M451 614.3s0-.1 0 0l-15 5.2.3.3 14.7-5.5z" class="st150_16"/><path d="M436.3 619.8c-8.3-8.9-12.5-13.4-12.4-13.5.1-.1 4.3 4.3 12.7 13.1-.2.1-.2.2-.3.4z" class="st151_16"/><linearGradient id="SVGID_123_16" x1="445.9" x2="443.4" y1="606.3" y2="618.1" gradientUnits="userSpaceOnUse"><stop offset="0" stop-color="#6cedfd"/><stop offset="1" stop-color="#b1f5fd"/></linearGradient><path fill="url(#SVGID_123_16)" d="M443.7 608.4l-7.4 11.4 14.7-5.5-7.3-5.9z"/><path d="M434.6 636.8l1.6-17.1-1.2 16.5a2 2 0 01-.4.6z" class="st153_16"/></g><g><linearGradient id="SVGID_124_16" x1="289.3" x2="283.3" y1="819.4" y2="822.8" gradientUnits="userSpaceOnUse"><stop offset="0" stop-color="#2bb1e9"/><stop offset="1" stop-color="#2295d1"/></linearGradient><path fill="url(#SVGID_124_16)" d="M278.1 805.9l21.6 4.1 7.4 5.9-16.4 22.5-12.6-32.5z"/><linearGradient id="SVGID_125_16" x1="295.2" x2="283.1" y1="799" y2="816.8" gradientUnits="userSpaceOnUse"><stop offset="0" stop-color="#33beff"/><stop offset="1" stop-color="#6deefe"/></linearGradient><path fill="url(#SVGID_125_16)" d="M278.1 805.9l14.2 15.5 7.4-11.4-21.6-4.1z"/><linearGradient id="SVGID_126_16" x1="301.1" x2="295.7" y1="814.1" y2="816.7" gradientUnits="userSpaceOnUse"><stop offset="0" stop-color="#33beff"/><stop offset="1" stop-color="#6deefe"/></linearGradient><path fill="url(#SVGID_126_16)" d="M292.3 821.4l14.7-5.5-7.4-5.9c-2.3 3.8-4.8 7.6-7.3 11.4z"/><linearGradient id="SVGID_127_16" x1="302.4" x2="295.5" y1="810.5" y2="831.3" gradientUnits="userSpaceOnUse"><stop offset="0" stop-color="#36abea"/><stop offset="1" stop-color="#48cff2"/></linearGradient><path fill="url(#SVGID_127_16)" d="M292.3 821.4l-1.6 17.1 16.4-22.5c-4.9 1.7-9.9 3.5-14.8 5.4z"/><path d="M307.1 815.9s-.1-.1 0 0l-15 5.2.3.3 14.7-5.5z" class="st150_16"/><path d="M292.3 821.4c-8.3-8.9-12.5-13.4-12.4-13.5.1-.1 4.3 4.3 12.7 13.1l-.3.4z" class="st151_16"/><linearGradient id="SVGID_128_16" x1="302" x2="299.5" y1="807.9" y2="819.7" gradientUnits="userSpaceOnUse"><stop offset="0" stop-color="#6cedfd"/><stop offset="1" stop-color="#b1f5fd"/></linearGradient><path fill="url(#SVGID_128_16)" d="M299.7 810l-7.4 11.4 14.7-5.5-7.3-5.9z"/><path d="M290.7 838.4l1.6-17.1-1.2 16.5-.4.6z" class="st153_16"/></g><g><linearGradient id="SVGID_129_16" x1="179.2" x2="173.2" y1="305.9" y2="309.3" gradientUnits="userSpaceOnUse"><stop offset="0" stop-color="#2bb1e9"/><stop offset="1" stop-color="#2295d1"/></linearGradient><path fill="url(#SVGID_129_16)" d="M168 292.4l21.6 4.1 7.4 5.9-16.4 22.5-12.6-32.5z"/><linearGradient id="SVGID_130_16" x1="185.1" x2="173" y1="285.5" y2="303.3" gradientUnits="userSpaceOnUse"><stop offset="0" stop-color="#33beff"/><stop offset="1" stop-color="#6deefe"/></linearGradient><path fill="url(#SVGID_130_16)" d="M168 292.4l14.2 15.5 7.4-11.4-21.6-4.1z"/><linearGradient id="SVGID_131_16" x1="191" x2="185.6" y1="300.6" y2="303.2" gradientUnits="userSpaceOnUse"><stop offset="0" stop-color="#33beff"/><stop offset="1" stop-color="#6deefe"/></linearGradient><path fill="url(#SVGID_131_16)" d="M182.2 307.9l14.7-5.5-7.4-5.9c-2.3 3.8-4.8 7.6-7.3 11.4z"/><linearGradient id="SVGID_132_16" x1="192.3" x2="185.4" y1="297" y2="317.9" gradientUnits="userSpaceOnUse"><stop offset="0" stop-color="#36abea"/><stop offset="1" stop-color="#48cff2"/></linearGradient><path fill="url(#SVGID_132_16)" d="M182.2 307.9l-1.6 17.1 16.4-22.5-14.8 5.4z"/><path d="M197 302.4s-.1 0 0 0l-15 5.2.3.3 14.7-5.5z" class="st150_16"/><path d="M182.2 307.9c-8.3-8.9-12.5-13.4-12.4-13.5.1-.1 4.3 4.3 12.7 13.1l-.3.4z" class="st151_16"/><linearGradient id="SVGID_133_16" x1="191.9" x2="189.4" y1="294.4" y2="306.3" gradientUnits="userSpaceOnUse"><stop offset="0" stop-color="#6cedfd"/><stop offset="1" stop-color="#b1f5fd"/></linearGradient><path fill="url(#SVGID_133_16)" d="M189.6 296.5l-7.4 11.4 14.7-5.5-7.3-5.9z"/><path d="M180.6 324.9l1.6-17.1-1.2 16.5-.4.6z" class="st153_16"/></g><g><linearGradient id="SVGID_134_16" x1="228.5" x2="218.8" y1="201.7" y2="207.2" gradientUnits="userSpaceOnUse"><stop offset="0" stop-color="#2bb1e9"/><stop offset="1" stop-color="#2295d1"/></linearGradient><path fill="url(#SVGID_134_16)" d="M210.3 179.6l35.3 6.7 12 9.6a4945 4945 0 01-26.8 36.8l-20.5-53.1z"/><linearGradient id="SVGID_135_16" x1="238.2" x2="218.4" y1="168.3" y2="197.4" gradientUnits="userSpaceOnUse"><stop offset="0" stop-color="#33beff"/><stop offset="1" stop-color="#6deefe"/></linearGradient><path fill="url(#SVGID_135_16)" d="M210.3 179.6l23.2 25.2 12.1-18.6c-11.8-2.1-23.5-4.3-35.3-6.6z"/><linearGradient id="SVGID_136_16" x1="247.8" x2="239" y1="193" y2="197.2" gradientUnits="userSpaceOnUse"><stop offset="0" stop-color="#33beff"/><stop offset="1" stop-color="#6deefe"/></linearGradient><path fill="url(#SVGID_136_16)" d="M233.5 204.9l24.1-9-12-9.6-12.1 18.6z"/><linearGradient id="SVGID_137_16" x1="249.9" x2="238.8" y1="187.1" y2="221.2" gradientUnits="userSpaceOnUse"><stop offset="0" stop-color="#36abea"/><stop offset="1" stop-color="#48cff2"/></linearGradient><path fill="url(#SVGID_137_16)" d="M233.5 204.9l-2.7 27.9a4945 4945 0 0126.8-36.8l-24.1 8.9z"/><path d="M257.6 195.9s-.1 0 0 0l-24.5 8.5.4.4 24.1-8.9z" class="st150_16"/><path d="M233.5 204.9a1333 1333 0 01-20.3-22c.1-.1 7 7 20.7 21.4l-.4.6z" class="st151_16"/><linearGradient id="SVGID_138_16" x1="249.2" x2="245.2" y1="182.9" y2="202.2" gradientUnits="userSpaceOnUse"><stop offset="0" stop-color="#6cedfd"/><stop offset="1" stop-color="#b1f5fd"/></linearGradient><path fill="url(#SVGID_138_16)" d="M245.6 186.3l-12.1 18.6 24.1-9-12-9.6z"/><path d="M230.8 232.7l2.7-27.9-2 26.9-.7 1z" class="st153_16"/></g><g><linearGradient id="SVGID_139_16" x1="184.1" x2="171.5" y1="71.2" y2="78.4" gradientUnits="userSpaceOnUse"><stop offset="0" stop-color="#2bb1e9"/><stop offset="1" stop-color="#2295d1"/></linearGradient><path fill="url(#SVGID_139_16)" d="M160.5 42.6l45.7 8.7 15.6 12.4-34.7 47.7-26.6-68.8z"/><linearGradient id="SVGID_140_16" x1="196.7" x2="171" y1="28" y2="65.7" gradientUnits="userSpaceOnUse"><stop offset="0" stop-color="#33beff"/><stop offset="1" stop-color="#6deefe"/></linearGradient><path fill="url(#SVGID_140_16)" d="M160.5 42.6l30.1 32.7 15.6-24-45.7-8.7z"/><linearGradient id="SVGID_141_16" x1="209.1" x2="197.8" y1="59.9" y2="65.4" gradientUnits="userSpaceOnUse"><stop offset="0" stop-color="#33beff"/><stop offset="1" stop-color="#6deefe"/></linearGradient><path fill="url(#SVGID_141_16)" d="M190.6 75.3l31.2-11.6-15.6-12.4-15.6 24z"/><linearGradient id="SVGID_142_16" x1="211.9" x2="197.4" y1="52.3" y2="96.4" gradientUnits="userSpaceOnUse"><stop offset="0" stop-color="#36abea"/><stop offset="1" stop-color="#48cff2"/></linearGradient><path fill="url(#SVGID_142_16)" d="M190.6 75.3l-3.5 36.1 34.7-47.7-31.2 11.6z"/><path d="M221.8 63.7l-.1-.1-31.6 11.1.5.6 31.2-11.6z" class="st150_16"/><path d="M190.6 75.3a1021.8 1021.8 0 01-26.3-28.6c.1-.1 9.1 9.1 26.8 27.7a2 2 0 01-.5.9z" class="st151_16"/><linearGradient id="SVGID_143_16" x1="211" x2="205.7" y1="46.9" y2="71.9" gradientUnits="userSpaceOnUse"><stop offset="0" stop-color="#6cedfd"/><stop offset="1" stop-color="#b1f5fd"/></linearGradient><path fill="url(#SVGID_143_16)" d="M206.2 51.3l-15.6 24 31.2-11.6-15.6-12.4z"/><path d="M187.2 111.4c2.2-24.1 3.3-36.1 3.5-36.1.1 0-.7 11.6-2.6 34.9l-.9 1.2z" class="st153_16"/></g></svg>