<svg xmlns="http://www.w3.org/2000/svg" xmlns:xlink="http://www.w3.org/1999/xlink" id="Layer_1" x="0" y="0" version="1.1" viewBox="240 170 205 220" xml:space="preserve"><defs/><style/><defs><path id="SVGID_2_7" d="M437.6 390.6H53.9a5.4 5.4 0 01-5.4-5.4V120.3c0-2.9 2.4-5.4 5.4-5.4h383.7c2.9 0 5.4 2.4 5.4 5.4v264.9a5.6 5.6 0 01-5.4 5.4z"/></defs><clipPath id="SVGID_3_7"><use overflow="visible" xlink:href="#SVGID_2_7"/></clipPath><g clip-path="url(#SVGID_3_7)" opacity=".4"><linearGradient id="SVGID_4_7" x1="316.9" x2="270.9" y1="1400.2" y2="1426.3" gradientTransform="rotate(-5.6 -11329 634.4) scale(1.00002)" gradientUnits="userSpaceOnUse"><stop offset="0" stop-color="#2bb1e9"/><stop offset="1" stop-color="#2295d1"/></linearGradient><path fill="url(#SVGID_4_7)" d="M240.4 171.2c56.3 5.2 112.6 10.2 169.1 15.2 20.2 13.1 40.5 26.5 61.1 39.7L361.4 411.8c-40.2-80.2-80.6-160.4-121-240.6z"/><linearGradient id="SVGID_5_7" x1="362.8" x2="269" y1="1242.6" y2="1380" gradientTransform="rotate(-5.6 -11329 634.4) scale(1.00002)" gradientUnits="userSpaceOnUse"><stop offset="0" stop-color="#33beff"/><stop offset="1" stop-color="#6deefe"/></linearGradient><path fill="url(#SVGID_5_7)" d="M240.4 171.2l120.9 108.1 48.3-92.9c-56.6-4.9-112.8-10-169.2-15.2z"/><linearGradient id="SVGID_6_7" x1="407.8" x2="366.6" y1="1359" y2="1378.9" gradientTransform="rotate(-5.6 -11329 634.4) scale(1.00002)" gradientUnits="userSpaceOnUse"><stop offset="0" stop-color="#33beff"/><stop offset="1" stop-color="#6deefe"/></linearGradient><path fill="url(#SVGID_6_7)" d="M361.3 279.3c36.5-17.7 72.7-35.3 109.2-53.2-20.2-13.1-40.5-26.5-61.1-39.7-15.9 31.1-32.2 62-48.1 92.9z"/><linearGradient id="SVGID_7_7" x1="418.1" x2="365.4" y1="1331.1" y2="1492.3" gradientTransform="rotate(-5.6 -11329 634.4) scale(1.00002)" gradientUnits="userSpaceOnUse"><stop offset="0" stop-color="#36abea"/><stop offset="1" stop-color="#48cff2"/></linearGradient><path fill="url(#SVGID_7_7)" d="M361.3 279.3l.3 132.3 109-185.7a12169 12169 0 01-109.3 53.4z"/><path fill="#6cedfd" d="M470.5 226.1l-.5-.4-111.1 51.5 2.1 2c36.8-17.5 73-35.2 109.5-53.1z"/><path fill="#83f6ff" d="M361.3 279.3c-70.7-62.5-105.9-93.9-105.5-94.4s36.1 29.8 107.2 91l-1.7 3.4z"/><linearGradient id="SVGID_8_7" x1="414.9" x2="395.6" y1="1311.5" y2="1402.7" gradientTransform="rotate(-5.6 -11329 634.4) scale(1.00002)" gradientUnits="userSpaceOnUse"><stop offset="0" stop-color="#6cedfd"/><stop offset="1" stop-color="#b1f5fd"/></linearGradient><path fill="url(#SVGID_8_7)" d="M409.5 186.4l-48.3 92.9c36.5-17.7 72.7-35.3 109.2-53.2a7009.7 7009.7 0 01-60.9-39.7z"/><path fill="#71d4ff" d="M361.4 411.6c-.6-88.3-.7-132.3-.3-132.3.4 0 1.4 42.4 3.2 127.5l-2.9 4.8z"/></g></svg>