<svg width="24" height="23" fill="none" xmlns="http://www.w3.org/2000/svg"><g clip-path="url(#clip0)" fill="#57C2C9"><path d="M10.155 0H1.364A1.36 1.36 0 000 1.49l1.364 14.653a1.37 1.37 0 001.364 1.238h6.038a1.37 1.37 0 001.364-1.238l1.364-14.652C11.57.707 10.938 0 10.155 0zM4.421 14.905h-.05a.633.633 0 01-.632-.58L2.703 3.36a.667.667 0 01.58-.707.667.667 0 01.708.58l1.036 10.965a.671.671 0 01-.606.707zm3.486 3.815H3.562a.453.453 0 00-.455.455v1.895c0 .783.632 1.414 1.39 1.414h2.45c.784 0 1.39-.631 1.39-1.415v-1.894c.025-.253-.177-.455-.43-.455zm8.413-8.59h4.32a.453.453 0 00.455-.454V7.78c0-.783-.632-1.415-1.39-1.415H17.28c-.783 0-1.39.632-1.39 1.415v1.895c-.025.252.177.454.43.454zm6.29 1.34h-8.235c-.783 0-1.415.631-1.415 1.414v8.186c0 .783.632 1.414 1.415 1.414h8.236c.783 0 1.389-.631 1.389-1.415v-8.185c0-.783-.632-1.415-1.39-1.415zm-4.117 7.654a2.146 2.146 0 01-2.148-2.147c0-1.188.96-2.148 2.148-2.148 1.187 0 2.147.96 2.147 2.148 0 1.187-.96 2.147-2.147 2.147z"/></g><defs><clipPath id="clip0"><path fill="#fff" d="M0 0h24v22.484H0z"/></clipPath></defs></svg>