<svg width="21" height="24" fill="none" xmlns="http://www.w3.org/2000/svg"><g clip-path="url(#clip0)" fill="#57C2C9"><path d="M16.473 19.81c0 1.066-.609 2.21-1.522 2.819-.685.457-1.446.533-2.13.228-1.94-1.219-2.283-4.228-2.663-8.038-.076-.686-.152-1.333-.229-2.057l-.152-1.257-.228 1.257c-.304 1.714-1.864 4.19-3.386 6.59L5.745 20l.076.114c.228.381.418.877.418 1.029-.114.686-.913.952-1.598 1.18a4.53 4.53 0 00-.76.306c-.305.152-.761.495-1.142.8l-.304.19c-.875.648-1.788.495-2.169.229-.076-.038-.304-.229-.266-.42.152-.723 1.217-1.6 2.169-2.361.76-.61 1.445-1.181 1.788-1.715.646-1.028 1.14-2.857 1.712-4.8.798-2.895 1.711-6.171 3.271-7.085.647.343 1.256.8 1.94 1.257.723.495 1.446.99 2.207 1.41.57.99 1.446 2.895 2.168 4.8.685 1.866 1.218 3.77 1.218 4.876z"/><path d="M17.424 18.095c-.305-1.371-.913-3.2-1.864-5.524l1.788-2.857-.38.038c-.99.115-1.979-.076-3.12-.61-.38-.152-.99-.57-1.674-1.066-.99-.686-2.13-1.486-3.12-1.943-.38-.19-.723-.304-1.065-.343-.266-.038-.533.115-.837.267-.228.114-.57.305-.685.229-.304-.153-.532-.838-.722-1.41-.115-.343-.19-.647-.305-.876-.114-.229-.38-.533-.647-.838-.342-.381-.76-.838-.837-1.181-.152-.495-.19-1.714.077-1.943C4.033 0 4.07 0 4.07 0c.38.038.608.343.95.8.61.762 1.484 1.867 3.843 2.971 2.016.953 4.451 1.486 6.582 1.943 2.587.572 4.831 1.067 5.402 2.096.608 1.104-.685 4.952-3.424 10.285z"/></g><defs><clipPath id="clip0"><path fill="#fff" d="M0 0h21v24H0z"/></clipPath></defs></svg>