<svg width="14" height="24" fill="none" xmlns="http://www.w3.org/2000/svg"><g clip-path="url(#clip0)" fill="#57C2C9"><path d="M.506 12.658l-.303-.101v.304c-.304 2.43.1 5.164.405 7.595.202 1.215.303 2.43.405 3.341V24H4.86v-.203c.304-2.227.81-4.455 1.519-6.582l.101-.202-.405-.102s-2.937-3.038-5.57-4.253zm13.064.202v-.303l-.304.101c-2.633 1.215-5.57 4.253-5.57 4.253l-.304.203.102.203a36.517 36.517 0 011.519 6.582v.202h3.848V23.9c0-.912.202-2.026.405-3.342.304-2.532.607-5.266.304-7.696zM2.025 3.14c.405.708.81 1.316.912 2.43v.202h7.899V5.57c.1-1.114.405-1.722.91-2.532.406-.709.912-1.418 1.115-2.835v-.304H.91v.304c.203 1.519.71 2.227 1.114 2.936zm11.241 8.1l-.101-.202c-.405-1.418-1.216-2.835-2.33-3.848v-.101h-8v.1C1.823 8.204 1.013 9.62.506 11.039l-.1.203.202.1c2.531 1.115 5.468 3.849 6.076 4.457l.202.202.203-.203c.607-.506 3.544-3.341 6.076-4.455l.1-.101z"/></g><defs><clipPath id="clip0"><path fill="#fff" d="M0 0h13.772v24H0z"/></clipPath></defs></svg>