<svg width="24" height="22" fill="none" xmlns="http://www.w3.org/2000/svg"><g clip-path="url(#clip0)" fill="#57C2C9"><path d="M6.302 18.985l1.126-1.099a.243.243 0 00.08-.188.29.29 0 00-.08-.187l-3.486-3.486c-.08-.054-.134-.08-.188-.08a.29.29 0 00-.188.08L2.44 15.15l-1.1-1.1c-.106-.107-.267-.107-.348 0l-.912.912c-.053.027-.08.107-.08.161a.29.29 0 00.08.188l6.06 6.06c.054.054.108.08.188.08a.29.29 0 00.188-.08l.912-.912c.054-.053.08-.107.08-.16a.29.29 0 00-.08-.188l-1.126-1.127zM17.645 5.068L22.15.536c.08-.08.08-.16.053-.268a.234.234 0 00-.214-.16L20.273 0a.244.244 0 00-.188.08l-3.7 3.728-3.728-1.26c-.08-.027-.188 0-.268.053L5.04 10.002l-1.1-1.1a.243.243 0 00-.187-.08.29.29 0 00-.188.08l-.911.913c-.108.107-.108.24 0 .348l1.1 1.1 7.534 7.508c.054.054.108.08.188.08a.29.29 0 00.188-.08l.912-.912c.107-.107.107-.241 0-.348l-1.1-1.127.778-.777a.244.244 0 00.08-.188.29.29 0 00-.08-.188l-3.728-3.647.67-.67 3.701 3.7a.244.244 0 00.188.081.29.29 0 00.188-.08l.912-.912c.107-.107.107-.242 0-.349l-2.387-2.386.67-.67 2.387 2.413c.053.053.107.08.188.08a.29.29 0 00.187-.08l.912-.912a.243.243 0 00.08-.188.29.29 0 00-.08-.188l-3.754-3.7.67-.67 3.7 3.673c.108.107.242.107.35 0l1.716-1.716c.08-.08.08-.16.053-.241l-1.233-3.7zm4.746 1.234a.26.26 0 00-.375 0c-.483.536-1.61 1.984-1.61 3.405a1.797 1.797 0 003.594 0c-.027-1.421-1.126-2.842-1.609-3.405z"/></g><defs><clipPath id="clip0"><path fill="#fff" d="M0 0h24v21.426H0z"/></clipPath></defs></svg>