<svg width="46" height="48" fill="none" xmlns="http://www.w3.org/2000/svg"><path d="M7.35 17.63a7.27 7.27 0 011.865 14.284v2.188a10.038 10.038 0 1020.076 0v-9.523a14.027 14.027 0 01-12.033-13.898v-8.75A1.93 1.93 0 0119.188 0h6.242v3.86h-4.311v6.821a10.166 10.166 0 0020.268 0v-6.82h-4.311V0h6.241a1.93 1.93 0 011.93 1.93v8.751a14.027 14.027 0 01-12.096 13.898v9.523a13.898 13.898 0 11-27.796 0v-2.188A7.27 7.27 0 017.349 17.63zm0 10.681a3.41 3.41 0 100-6.82 3.41 3.41 0 000 6.82z" fill="#57C2C9"/></svg>