<svg width="48" height="48" fill="none" xmlns="http://www.w3.org/2000/svg"><path d="M29.538 14.77c-1.898 0-3.745.843-5.38 2.478l-.158.159-.158-.211c-1.635-1.636-3.429-2.48-5.38-2.48-4.062 0-7.385 3.324-7.385 7.385 0 .897.158 1.846.58 2.796.686 1.635 3.745 4.747 7.701 8.545l1.424 1.424 1.9 1.899c.369.422.79.58 1.37.58.528 0 1.003-.21 1.425-.633.58-.686 1.846-1.899 3.218-3.217h.052c4.062-4.062 6.963-6.963 7.649-8.545.369-.897.58-1.847.58-2.796-.053-4.062-3.376-7.385-7.438-7.385zm3.482 8.808c-.528 1.055-3.745 4.273-6.805 7.227l-.105.105c-.37.37-.739.686-1.055 1.055-.317.316-.633.58-.897.844l-.158.158-.158-.21a69.183 69.183 0 00-1.952-1.9l-.95-.95c-2.32-2.267-5.432-5.38-5.907-6.329a3.566 3.566 0 01-.264-1.424 3.67 3.67 0 013.693-3.692c1.318 0 2.637.95 4.061 2.9.37.528.897.792 1.53.792s1.16-.264 1.53-.791c1.424-2.005 2.742-2.901 4.06-2.901a3.67 3.67 0 013.693 3.692c-.105.527-.158.95-.316 1.424z" fill="#57C2C9"/><path d="M24 0C10.76 0 0 10.76 0 24s10.76 24 24 24 24-10.76 24-24S37.24 0 24 0zm0 44.308C12.818 44.308 3.692 35.182 3.692 24S12.818 3.692 24 3.692 44.308 12.818 44.308 24 35.182 44.308 24 44.308z" fill="#57C2C9"/></svg>