<svg width="47" height="48" fill="none" xmlns="http://www.w3.org/2000/svg"><path d="M36.512 11.736V4.508C36.512 2.024 34.5 0 32.017 0H4.533C2.037 0 0 2.024 0 4.508v32.563a4.542 4.542 0 004.533 4.533h20.305v4.334c0 .733.41 1.416 1.068 1.789.31.174.659.273 1.019.273.372 0 .732-.1 1.068-.298l5.911-3.564 5.912 3.564a2.15 2.15 0 002.099.025 2.07 2.07 0 001.068-1.789V32.402c2.173-2.298 3.365-5.316 3.365-8.532-.025-5.837-4.135-10.904-9.836-12.134zM4.098 4.508c0-.236.187-.41.435-.41h27.484c.235 0 .397.174.397.41v7.017c-6.185.72-10.979 6.085-10.979 12.332 0 3.204 1.205 6.222 3.403 8.532v5.117H4.533a.424.424 0 01-.435-.435V4.508zM42.225 23.87c0 4.582-3.738 8.32-8.32 8.32-4.583 0-8.322-3.738-8.322-8.32 0-4.583 3.739-8.321 8.321-8.321 4.583 0 8.321 3.738 8.321 8.32zm-13.288 11.4a12.525 12.525 0 004.967 1.019c1.726 0 3.39-.348 4.968-1.019v7.042l-3.887-2.335a2.116 2.116 0 00-2.16 0l-3.888 2.335V35.27z" fill="#57C2C9"/><path d="M7.141 13.289H22.79c.174 0 .31-.137.31-.311V9.501a.307.307 0 00-.31-.31H7.141a.307.307 0 00-.31.31v3.477c0 .174.136.31.31.31zm0 9.562h10.556c.174 0 .31-.136.31-.31v-3.478a.307.307 0 00-.31-.31H7.141a.307.307 0 00-.31.31v3.478c0 .174.136.31.31.31zm0 9.563h12.916c.174 0 .31-.137.31-.31v-3.478a.307.307 0 00-.31-.31H7.141a.307.307 0 00-.31.31v3.477c0 .174.136.311.31.311z" fill="#57C2C9"/></svg>