<svg width="41" height="48" fill="none" xmlns="http://www.w3.org/2000/svg"><path d="M29.544 17.608c0-5.012-4.096-9.107-9.108-9.107-5.011 0-9.106 4.095-9.106 9.107 0 5.011 4.095 9.053 9.106 9.053 5.012 0 9.108-4.042 9.108-9.053zm-13.903 0a4.807 4.807 0 014.795-4.796 4.807 4.807 0 014.797 4.796 4.807 4.807 0 01-4.797 4.796 4.807 4.807 0 01-4.795-4.796z" fill="#57C2C9"/><path d="M35.202 35.606c-.377-.647-1.078-1.078-1.832-1.078h-4.742c3.34-3.449 6.466-6.736 6.736-7.113 4.742-5.981 3.664-16.166-2.372-22.201-6.951-6.952-18.213-6.952-25.165 0C1.2 11.896.822 22.727 6.965 29.409l.054.054 5.011 5.065H7.504c-.755 0-1.455.431-1.832 1.078l-5.39 9.16a2.194 2.194 0 000 2.156A2.174 2.174 0 002.17 48h36.643c.755 0 1.51-.431 1.886-1.078a2.194 2.194 0 000-2.155l-5.496-9.161zM10.899 8.286c5.227-5.228 13.795-5.228 19.022 0 4.419 4.418 5.389 12.231 2.048 16.435-.431.593-6.682 7.059-11.532 12.124l-10.347-10.4c-4.58-4.957-4.203-13.148.809-18.16zM5.887 43.688l2.856-4.85h7.598l2.587 2.587c.431.43.97.646 1.509.646.592 0 1.131-.215 1.509-.646.7-.7 1.562-1.617 2.478-2.587h7.652l2.856 4.85H5.887z" fill="#57C2C9"/></svg>