<svg width="264" height="257" fill="none" xmlns="http://www.w3.org/2000/svg"><path d="M7.162 229.296c0-1.205.31-2.331.928-3.376a6.91 6.91 0 012.464-2.496 6.402 6.402 0 013.296-.912c.779 0 1.536.123 2.272.368.736.245 1.339.624 1.808 1.136l-.944 1.104c-.8-.779-1.835-1.168-3.104-1.168-1.408 0-2.608.528-3.6 1.584s-1.488 2.283-1.488 3.68c0 1.024.304 1.867.912 2.528.619.661 1.461.992 2.528.992 1.333 0 2.587-.485 3.76-1.456l.688 1.248c-.533.48-1.221.88-2.064 1.2-.843.309-1.664.464-2.464.464-1.525 0-2.741-.453-3.648-1.36-.896-.907-1.344-2.085-1.344-3.536zm10.85 1.456c0-1.376.448-2.56 1.344-3.552.896-.992 2.01-1.488 3.344-1.488 1.013 0 1.781.272 2.304.816.533.544.8 1.269.8 2.176 0 .352-.086.837-.256 1.456h-5.904a3.85 3.85 0 00-.064.56c0 .587.202 1.088.608 1.504.416.416.986.624 1.712.624.864 0 1.722-.315 2.576-.944l.432 1.216c-.342.277-.8.528-1.376.752a4.911 4.911 0 01-1.712.32c-1.163 0-2.091-.32-2.784-.96-.683-.64-1.024-1.467-1.024-2.48zm1.872-1.712h4.32c.032-.139.048-.293.048-.464 0-.533-.144-.944-.432-1.232-.288-.288-.667-.432-1.136-.432-.608 0-1.168.187-1.68.56-.502.373-.875.896-1.12 1.568zm8.59 4.96l1.312-6.768H26.97l.256-1.328h7.184l-.256 1.328h-2.816L30.026 234h-1.552zm5.892 0l1.568-8.096h1.552l-.576 2.928h1.584c.79 0 1.413.181 1.872.544.459.352.688.896.688 1.632 0 .885-.31 1.605-.928 2.16-.618.555-1.445.832-2.48.832h-3.28zm1.76-1.12h1.392c.555 0 1.014-.165 1.376-.496.373-.331.56-.757.56-1.28 0-.768-.448-1.152-1.344-1.152h-1.408l-.576 2.928zM46.163 234l1.568-8.096h1.552l-.64 3.264h1.136l2.752-3.264h1.856l-3.472 4.032v.032L53.139 234h-1.76l-1.808-3.504h-1.184L47.699 234h-1.536zm7.417.08l.256-1.392c1.258-.203 2.144-1.632 2.656-4.288l.48-2.496h5.423L60.828 234h-1.551l1.327-6.816h-2.4l-.224 1.216c-.383 1.888-.922 3.296-1.615 4.224-.683.928-1.611 1.413-2.784 1.456zm9.645-.08l1.568-8.096h1.472l-.944 4.752-.24 1.088h.032a20 20 0 01.928-1.12l4.433-4.72h1.504L70.394 234h-1.457l.913-4.752.256-1.072h-.032c-.331.416-.64.784-.928 1.104L64.713 234h-1.487zm9.579 0l1.568-8.096h1.552l-.64 3.296h4.112l.624-3.296h1.568L80.004 234h-1.552l.672-3.472h-4.096L74.34 234h-1.536zm9.609 0l1.568-8.096h1.472l-.944 4.752-.24 1.088h.032c.33-.427.64-.8.928-1.12l4.432-4.72h1.504L89.581 234h-1.456l.912-4.752.256-1.072h-.032c-.33.416-.64.784-.928 1.104L83.901 234h-1.488zm9.578 0l1.568-8.096h1.552l-.64 3.264h1.136l2.752-3.264h1.856l-3.472 4.032v.032L98.967 234h-1.76l-1.808-3.504h-1.184L93.527 234h-1.536zm11.417.08l.256-1.392c1.258-.203 2.144-1.632 2.656-4.288l.48-2.496h5.424L110.656 234h-1.552l1.328-6.816h-2.4l-.224 1.216c-.384 1.888-.923 3.296-1.616 4.224-.683.928-1.611 1.413-2.784 1.456zm9.374-1.968c0-.491.117-.923.352-1.296.234-.384.533-.688.896-.912a4.677 4.677 0 011.28-.56c.49-.149.965-.251 1.424-.304.458-.053.928-.08 1.408-.08h.416c.042-.235.064-.464.064-.688 0-.832-.491-1.248-1.472-1.248-.811 0-1.616.256-2.416.768l-.416-1.232c.33-.224.778-.421 1.344-.592a5.988 5.988 0 011.712-.256c.832 0 1.509.192 2.032.576.522.384.784.981.784 1.792 0 .224-.027.512-.08.864l-.976 5.056h-1.456l.16-.816.16-.64h-.032c-.224.395-.587.768-1.088 1.12a2.908 2.908 0 01-1.712.528c-.672 0-1.238-.187-1.696-.56-.459-.373-.688-.88-.688-1.52zm1.536-.224c0 .309.106.565.32.768.224.203.554.304.992.304.608 0 1.168-.267 1.68-.8.512-.544.842-1.141.992-1.792l.048-.288h-.4c-2.422 0-3.632.603-3.632 1.808zm6.55 1.152l.784-1.008c.214.235.502.448.864.64.374.181.768.272 1.184.272a2.21 2.21 0 001.328-.416c.384-.288.576-.683.576-1.184 0-.64-.464-.96-1.392-.96h-1.024l.208-1.12h.896c.48 0 .896-.117 1.248-.352.352-.245.528-.597.528-1.056 0-.619-.437-.928-1.312-.928-.65 0-1.322.235-2.016.704l-.48-1.04c.8-.587 1.744-.88 2.832-.88.779 0 1.398.176 1.856.528.459.341.688.811.688 1.408 0 .501-.138.939-.416 1.312-.266.363-.64.635-1.12.816v.032c.726.288 1.088.832 1.088 1.632 0 .832-.33 1.499-.992 2-.661.501-1.45.752-2.368.752a4.37 4.37 0 01-1.664-.32c-.522-.224-.954-.501-1.296-.832zm7.941-2.288c0-1.376.448-2.56 1.344-3.552.896-.992 2.01-1.488 3.344-1.488 1.013 0 1.781.272 2.304.816.533.544.8 1.269.8 2.176 0 .352-.086.837-.256 1.456h-5.904a3.794 3.794 0 00-.064.56c0 .587.202 1.088.608 1.504.416.416.986.624 1.712.624.864 0 1.722-.315 2.576-.944l.432 1.216c-.342.277-.8.528-1.376.752a4.913 4.913 0 01-1.712.32c-1.163 0-2.091-.32-2.784-.96-.683-.64-1.024-1.467-1.024-2.48zm1.872-1.712h4.32c.032-.139.048-.293.048-.464 0-.533-.144-.944-.432-1.232-.288-.288-.667-.432-1.136-.432-.608 0-1.168.187-1.68.56-.502.373-.875.896-1.12 1.568zm8.427 4.496l-.72 3.664h-1.537l2.193-11.296h1.424l-.112.688-.176.64h.032a3.408 3.408 0 011.184-1.088 3.161 3.161 0 011.632-.432c.949 0 1.69.299 2.224.896.544.597.816 1.408.816 2.432 0 1.483-.443 2.715-1.328 3.696-.886.971-1.91 1.456-3.072 1.456a3.091 3.091 0 01-1.488-.352 2.213 2.213 0 01-.944-1.056h-.032a5.47 5.47 0 01-.096.752zm.576-2.768c0 .608.154 1.109.464 1.504.309.384.757.576 1.344.576.757 0 1.445-.341 2.064-1.024.618-.683.928-1.573.928-2.672 0-.651-.166-1.157-.496-1.52-.32-.373-.768-.56-1.344-.56-.811 0-1.51.379-2.096 1.136a4.079 4.079 0 00-.864 2.56zm7.401 3.232l1.568-8.096h1.552l-.64 3.296h4.112l.624-3.296h1.568L154.285 234h-1.552l.672-3.472h-4.096l-.688 3.472h-1.536zm9.801-3.376c0-1.355.507-2.512 1.52-3.472 1.014-.96 2.171-1.44 3.472-1.44 1.142 0 2.064.331 2.768.992.715.651 1.072 1.499 1.072 2.544 0 1.376-.512 2.544-1.536 3.504-1.013.96-2.165 1.44-3.456 1.44-1.141 0-2.069-.325-2.784-.976-.704-.661-1.056-1.525-1.056-2.592zm1.584-.064c0 .683.208 1.237.624 1.664.427.416.976.624 1.648.624.864 0 1.643-.341 2.336-1.024a3.346 3.346 0 001.056-2.496c0-.672-.213-1.216-.64-1.632-.426-.427-.97-.64-1.632-.64-.874 0-1.658.341-2.352 1.024a3.353 3.353 0 00-1.04 2.48zm13.823-5.584c-.619 0-1.131-.155-1.536-.464-.405-.32-.608-.725-.608-1.216 0-.171.032-.373.096-.608h1.232a1.92 1.92 0 00-.048.432c0 .267.085.475.256.624.171.149.395.224.672.224a1.4 1.4 0 00.896-.304c.256-.203.416-.528.48-.976h1.232c-.117.8-.427 1.381-.928 1.744-.491.363-1.072.544-1.744.544zM166.741 234l1.568-8.096h1.472l-.944 4.752-.24 1.088h.032a20 20 0 01.928-1.12l4.432-4.72h1.504L173.909 234h-1.456l.912-4.752.256-1.072h-.032c-.331.416-.64.784-.928 1.104l-4.432 4.72h-1.488zm15.658-3.488l.224-1.12h3.888v-.144c0-.736-.229-1.296-.688-1.68-.458-.395-1.024-.592-1.696-.592-.928 0-1.738.315-2.432.944l-.64-1.056c.384-.352.87-.629 1.456-.832a5.132 5.132 0 011.76-.32c1.131 0 2.032.331 2.704.992.672.661 1.008 1.515 1.008 2.56 0 1.312-.496 2.464-1.488 3.456-.992.981-2.202 1.472-3.632 1.472a4.9 4.9 0 01-1.696-.304c-.554-.213-.997-.523-1.328-.928l.688-1.056c.256.309.598.555 1.024.736.438.181.891.272 1.36.272.768 0 1.456-.224 2.064-.672a3.618 3.618 0 001.312-1.728h-3.888zm6.608 3.488l1.568-8.096h7.072L196.079 234h-1.568l1.328-6.768h-3.968L190.543 234h-1.536zm9.469 0l1.568-8.096h1.472l-.944 4.752-.24 1.088h.032c.33-.427.64-.8.928-1.12l4.432-4.72h1.503L205.644 234h-1.456l.912-4.752.256-1.072h-.032c-.331.416-.64.784-.928 1.104l-4.432 4.72h-1.488zm8.682.08l.256-1.392c1.258-.203 2.144-1.632 2.656-4.288l.48-2.496h5.424L214.406 234h-1.552l1.328-6.816h-2.4l-.224 1.216c-.384 1.888-.923 3.296-1.616 4.224-.683.928-1.611 1.413-2.784 1.456zm8.894-.08l2.336-2.72.448-.496v-.032a1.872 1.872 0 01-.928-.704c-.246-.352-.368-.779-.368-1.28 0-.843.293-1.531.88-2.064.597-.533 1.365-.8 2.304-.8h3.504L222.644 234h-1.552l.576-2.928h-1.376L217.844 234h-1.792zm3.072-5.248c0 .789.437 1.184 1.312 1.184h1.456l.576-2.96h-1.424c-.576 0-1.04.155-1.392.464-.352.309-.528.747-.528 1.312zm5.93 5.248l1.568-8.096h1.552l-1.312 6.752h3.872l1.312-6.752h1.552l-1.312 6.752h1.136l-.64 3.264h-1.424l.384-1.92h-6.688zm9.828 0l1.568-8.096h1.472l-.944 4.752-.24 1.088h.032c.33-.427.64-.8.928-1.12l4.432-4.72h1.504L242.05 234h-1.456l.912-4.752.256-1.072h-.032c-.331.416-.64.784-.928 1.104L236.37 234h-1.488zm9.578 0l1.568-8.096h1.472l-.944 4.752-.24 1.088h.032a20 20 0 01.928-1.12l4.432-4.72h1.504L251.628 234h-1.456l.912-4.752.256-1.072h-.032c-.331.416-.64.784-.928 1.104l-4.432 4.72h-1.488zM70.85 253l1.569-8.096h1.472l-.945 4.752-.24 1.088h.032a20 20 0 01.928-1.12l4.433-4.72h1.504L78.019 253h-1.457l.913-4.752.256-1.072h-.032c-.331.416-.64.784-.928 1.104L72.338 253h-1.487zm13.579 0l1.568-8.096h1.552l-.64 3.264h1.136l2.752-3.264h1.856l-3.472 4.032v.032L91.405 253h-1.76l-1.808-3.504h-1.184L85.965 253h-1.536zm8.192-3.376c0-1.355.506-2.512 1.52-3.472 1.013-.96 2.17-1.44 3.472-1.44 1.141 0 2.064.331 2.768.992.714.651 1.072 1.499 1.072 2.544 0 1.376-.512 2.544-1.536 3.504-1.014.96-2.166 1.44-3.456 1.44-1.142 0-2.07-.325-2.784-.976-.704-.661-1.056-1.525-1.056-2.592zm1.584-.064c0 .683.208 1.237.624 1.664.426.416.976.624 1.648.624.864 0 1.642-.341 2.336-1.024a3.346 3.346 0 001.056-2.496c0-.672-.214-1.216-.64-1.632-.427-.427-.971-.64-1.632-.64-.875 0-1.659.341-2.352 1.024a3.352 3.352 0 00-1.04 2.48zm8.463.112c0-1.376.496-2.544 1.488-3.504.992-.971 2.16-1.456 3.504-1.456 1.322 0 2.341.389 3.056 1.168l-.864 1.008a2.565 2.565 0 00-.96-.608 3.165 3.165 0 00-1.152-.224c-.928 0-1.744.347-2.448 1.04-.694.683-1.04 1.504-1.04 2.464 0 .683.213 1.237.64 1.664.437.416 1.013.624 1.728.624.928 0 1.829-.363 2.704-1.088l.448 1.232c-.406.352-.907.64-1.504.864a5.077 5.077 0 01-1.792.336c-1.163 0-2.091-.325-2.784-.976-.683-.651-1.024-1.499-1.024-2.544zm8.206 3.328l2.272-8.096h1.68l1.216 4.576.224 1.104h.032c.213-.405.427-.773.64-1.104l3.008-4.576h1.728l-.88 8.096h-1.488l.592-4.816.256-1.392h-.032c-.192.373-.432.768-.72 1.184l-2.688 4.048h-1.328l-1.136-4.032-.272-1.2h-.032a17.888 17.888 0 01-.288 1.392l-1.28 4.816h-1.504zm12.2-3.248c0-1.376.448-2.56 1.344-3.552.896-.992 2.011-1.488 3.344-1.488 1.013 0 1.781.272 2.304.816.533.544.8 1.269.8 2.176 0 .352-.085.837-.256 1.456h-5.904a3.794 3.794 0 00-.064.56c0 .587.203 1.088.608 1.504.416.416.987.624 1.712.624.864 0 1.723-.315 2.576-.944l.432 1.216c-.341.277-.8.528-1.376.752a4.913 4.913 0 01-1.712.32c-1.163 0-2.091-.32-2.784-.96-.683-.64-1.024-1.467-1.024-2.48zm1.872-1.712h4.32c.032-.139.048-.293.048-.464 0-.533-.144-.944-.432-1.232-.288-.288-.667-.432-1.136-.432-.608 0-1.168.187-1.68.56-.501.373-.875.896-1.12 1.568zm8.59 4.96l1.312-6.768h-2.816l.256-1.328h7.184l-.256 1.328H136.4L135.088 253h-1.552zm5.913-3.376c0-1.355.506-2.512 1.52-3.472 1.013-.96 2.17-1.44 3.472-1.44 1.141 0 2.064.331 2.768.992.714.651 1.072 1.499 1.072 2.544 0 1.376-.512 2.544-1.536 3.504-1.014.96-2.166 1.44-3.456 1.44-1.142 0-2.07-.325-2.784-.976-.704-.661-1.056-1.525-1.056-2.592zm1.584-.064c0 .683.208 1.237.624 1.664.426.416.976.624 1.648.624.864 0 1.642-.341 2.336-1.024a3.346 3.346 0 001.056-2.496c0-.672-.214-1.216-.64-1.632-.427-.427-.971-.64-1.632-.64-.875 0-1.659.341-2.352 1.024a3.35 3.35 0 00-1.04 2.48zm7.203 3.52l.256-1.392c1.258-.203 2.144-1.632 2.656-4.288l.48-2.496h5.424L155.484 253h-1.552l1.328-6.816h-2.4l-.224 1.216c-.384 1.888-.923 3.296-1.616 4.224-.683.928-1.611 1.413-2.784 1.456zm9.838-3.456c0-1.355.506-2.512 1.52-3.472 1.013-.96 2.17-1.44 3.472-1.44 1.141 0 2.064.331 2.768.992.714.651 1.072 1.499 1.072 2.544 0 1.376-.512 2.544-1.536 3.504-1.014.96-2.166 1.44-3.456 1.44-1.142 0-2.07-.325-2.784-.976-.704-.661-1.056-1.525-1.056-2.592zm1.584-.064c0 .683.208 1.237.624 1.664.426.416.976.624 1.648.624.864 0 1.642-.341 2.336-1.024a3.346 3.346 0 001.056-2.496c0-.672-.214-1.216-.64-1.632-.427-.427-.971-.64-1.632-.64-.875 0-1.659.341-2.352 1.024a3.35 3.35 0 00-1.04 2.48zm8.271 3.44l1.568-8.096h5.072l-.256 1.328h-3.52L169.465 253h-1.536zm6.64 0l1.568-8.096h1.472l-.944 4.752-.24 1.088h.032a20 20 0 01.928-1.12l4.432-4.72h1.504L181.737 253h-1.456l.912-4.752.256-1.072h-.032c-.33.416-.64.784-.928 1.104l-4.432 4.72h-1.488zm9.578 0l1.568-8.096h1.472l-.944 4.752-.24 1.088h.032a20 20 0 01.928-1.12l4.432-4.72h1.504L191.315 253h-1.456l.912-4.752.256-1.072h-.032c-.33.416-.64.784-.928 1.104l-4.432 4.72h-1.488z" fill="#57C2C9"/><path fill-rule="evenodd" clip-rule="evenodd" d="M136.828.035c16.571.347 32.879 3.643 44.072 10.008 8.139 4.628 14.702 10.857 19.472 18.189 2.08 2.327 4.414 4.578 4.936 5.492.93 1.637-.247 2.388 1.254 4.88.524.865 1.043 1.727 1.116 2.827.052.776-.112 1.388-.314 2.461l.106.398c1.515 1.5 3.712 5.122 3.676 8.092-.035 2.74-1.121 3.573-1.754 5.476.008.31.014.623.017.936.005.4 0 .795-.004 1.193 1.32.568 2.738 1.423 4.187 2.477-2.509 1.154-4.245 1.453-4.649 4.684-4.459 35.46-40.182 50.772-75.517 51.116-30.153.294-57.338-11.063-68.429-33.951-.513-.62-1.049-1.278-1.697-1.91-1.956-1.906-4.162-1.745-5.998-6.943 1.723.232 3.154.154 4.382.014a65.552 65.552 0 01-.719-2.815c-1.868-.972-3.699-1.982-5.045-3.746-2.97-3.89-.94-8.108.77-10.846.084 2.324 1.269 3.938 2.792 5.344a58.911 58.911 0 01-.23-4.617c-.077-8.16 1.294-15.388 3.872-21.73 1.162-2.86 2.678-5.566 4.445-8.134.888-1.292.766-2.088.807-3.52.155-5.388 2.905-7.37 5.605-9.1-.199 2.13-.314 3.878-.782 5.48.282-.318.564-.636.849-.951C87.553 5.9 109.366-.538 136.828.035zm126.778 156.931a6.932 6.932 0 01-2.086 2.084c-1.767 1.127-3.477 1.051-5.131-.225-2.255-2.779-2.274-7.755-.057-14.927-4.66 11.003-8.531 16.391-11.613 16.166-2.431.338-3.955-.482-4.572-2.46-1.052 1.532-2.149 2.829-3.491 3.953-2.33 1.99-4.792 2.553-7.385 1.69-1.278-.563-2.349-3.605-3.214-9.125-.413-2.516-.77-4.243-1.071-5.182-.526-1.427-1.221-2.028-2.086-1.802-3.232.676-5.319 2.496-6.258 5.463-.262.827-.545 2.141-.845 3.943-.263 1.803-.526 3.098-.79 3.886a29.915 29.915 0 00-5.017-1.408c.236-1.492.453-2.905.652-4.241-1.957 2.653-3.931 4.518-6.22 5.396-5.45 2.14-9.566.431-12.347-5.126-1.052-2.103-1.635-4.262-1.748-6.478-4.135 8.599-6.559 16.316-7.273 23.15-.976.413-2.349.451-4.116.112 1.654-10.852 3.12-20.84 4.398-29.964-1.616 2.477-3.082 4.58-4.398 6.308-1.277 4.844-3.458 8.486-6.539 10.927-3.233 2.516-6.145 2.554-8.738.112-1.203-1.163-1.898-2.74-2.087-4.731-.225-2.365 1.466-2.891 5.074-1.577-1.541 2.741-1.898 4.506-1.071 5.295.751.676 1.635.563 2.65-.338.977-.826 1.935-2.216 2.875-4.168 2.143-4.394 3.289-8.918 3.439-13.575.226-7.022-3.082-7.717-9.923-2.084-.037.075-.281-.301-.732-1.126 2.067-2.328 4.247-4.056 6.539-5.182 4.624-2.216 7.592-.282 8.908 5.802a22.32 22.32 0 01.395 5.745c1.692-2.028 3.12-3.981 4.285-5.858 1.089-7.735 1.634-12.26 1.634-13.575 0-1.877-.545-2.778-1.634-2.703-.752.037-1.898.582-3.439 1.634l-.394-.395a15.125 15.125 0 012.874-3.324c2.217-1.914 4.153-2.159 5.807-.731.715 1.726.602 7.247-.338 16.559-.752 7.623-1.447 12.973-2.086 16.053.827-1.878 2.311-4.412 4.455-7.604 1.164-4.544 3.531-7.998 7.102-10.365 3.683-2.402 7.011-2.478 9.979-.224 1.279.977 1.673 2.178 1.184 3.604-.526 1.616-2.105 2.291-4.735 2.029 1.24-2.029 1.259-3.512.056-4.45-.751-.601-1.691-.395-2.819.619-1.052.939-2.086 2.422-3.101 4.449-2.331 4.619-3.382 8.901-3.157 12.843.188 3.38 1.936 5.389 5.244 6.027 3.327.664 7.425-2.234 10.342-5.442.731-5.116 1.167-8.946 1.389-11.611.221-2.654.225-4.122-.106-6.454.892-1.45 5.727-2.143 6.088-1.708.58.698.298 1.606.257 4.009-.006.374-.244 3.286-.733 8.731 2.819-6.534 4.717-10.609 5.695-12.223 2.932-4.694 7.864-9.037 11.472-9.075 2.631-.037 4.473.488 5.526 1.577.864.864 1.071 1.915.62 3.155-.415 1.164-1.166 1.896-2.255 2.196-1.203.338-2.256-.094-3.158-1.296 0-1.275-.3-2.233-.902-2.872-1.127-1.127-4.632 2.071-7.188 5.639-3.496 4.882-5.619 8.881-6.37 11.998 1.917-.451 3.533-.733 4.848-.846 1.729.038 2.932.752 3.609 2.141.451.901.751 2.478.901 4.731.188 2.516.414 4.244.677 5.182.564 1.765 1.578 2.948 3.044 3.549 2.733.512 4.126-1.16 5.478-3.038l-.009-.089c-.075-.751.226-4.075.902-9.97.978-9.162.996-9.998.97-12.07.055-2.547 6.238-1.646 6.11-.752-.614 4.286-1.223 7.018-1.611 11.302-.376 3.416-.564 5.595-.564 6.533-.037 2.027.32 3.041 1.072 3.041 1.54.301 3.795-3.097 6.765-10.194.526-1.276 1.635-4.056 3.326-8.336 1.165-2.967 1.974-4.864 2.425-5.689 1.615 1.614 3.194 2.685 4.735 3.21-3.082 11.603-4.754 18.7-5.018 21.291-.188 1.878.17 2.911 1.071 3.098.602.113 1.673-.244 3.214-1.07l.339.451zM29.679 107.343c-3.57-.338-6.182-.132-7.836.619-1.73.827-2.236 2.197-1.522 4.113.864 2.177 4.152 3.003 9.865 2.477a49.597 49.597 0 008.345-1.464c17.665-3.792 27.888-3.831 30.67-.112 2.18 2.59 2.142 5.144-.113 7.66a12.941 12.941 0 01-4.06 2.985c.038-.526-.206-1.108-.732-1.746-1.015-1.315-2.857-2.234-5.526-2.76-5.45-1.277-12.835-1.033-22.156.732-7.404 1.051-11.558 1.577-12.46 1.577-5.111-.15-8.061-2.253-8.85-6.308-.865-4.619.75-7.51 4.847-8.674 3.459-.976 6.634-.677 9.528.901zm19.294 13.429c-.676 5.605-1.73 14.097-2.753 22.126-1.796 13.774-2.66 20.988-2.592 21.64 1.622.359 3.584-.907 5.889-3.799.908-4.204 1.768-10.846 2.579-19.93.56-6.324 1.515-14.877 2.157-19.859a43.528 43.528 0 00-5.28-.178zm-12.444 1.401c-1.112 5.239-2.922 14.403-5.43 27.491-.425 3.057-1.187 6.185-2.287 9.381-2.163 6.405-4.906 9.926-8.226 10.561-4.353.781-7.775-.114-10.269-2.682-2.614-2.685-2.943-6.102-.988-10.248.902-1.959 2.802-3.521 5.7-4.687l.162-1.248c-1.719.437-3.48 1.256-5.283 2.454-3.594 2.362-5.559 5.422-5.89 9.179-.147 2.435.612 4.57 2.275 6.401 1.496 1.619 3.55 2.846 6.163 3.679 5.705 1.78 10.333 1.245 13.887-1.603 2.42-2.145 4.33-4.847 5.727-8.107 1.107-2.604 2.527-7.234 4.26-13.895 1.242-5.123 2.485-11.053 3.73-17.79a101.374 101.374 0 012.325-9.788 98.13 98.13 0 00-5.856.902zm37.859 14.009c-1.428-.639-3.026-.733-4.793-.282-3.57.864-6.24 3.981-8.005 9.35-1.015 3.154-1.316 5.82-.902 7.998.375 1.915 1.22 3.23 2.536 3.943 1.279.676 2.613.676 4.003 0 1.467-.751 2.593-2.065 3.384-3.943 1.465-3.455 1.86-6.665 1.183-9.632-.6-2.553-1.69-4.055-3.27-4.506l4.792-2.253c1.657 1.943 5.85 4.531 12.87-1.235.124-.152.25-.304.38-.454 3.983-4.619 7.46-6.008 10.43-4.169 1.503.939 2.593 2.329 3.269 4.169-3.157-.451-6.164.863-9.02 3.942-3.12 3.305-4.68 7.379-4.68 12.224 0 4.242.996 6.101 2.988 5.576 1.39-.376 3.007-1.766 4.849-4.169 1.39-1.765 2.819-6.608 4.285-14.532 3.119 0 5.168.47 6.145 1.408-.977 3.868-1.804 13.406-2.481 28.614-.075 3.079-.676 6.252-1.804 9.519-2.217 6.571-5.844 10.364-10.88 11.377-5.6 1.277-9.735.057-12.404-3.661-1.315-1.839-2.068-3.811-2.255-5.914l.733-.225c1.427 7.172 5.6 9.199 12.516 6.083 4.096-1.84 6.915-7.641 8.456-17.405.526-3.417.846-6.946.959-10.588.113-3.117.075-4.676-.113-4.676-2.105 3.568-4.736 5.82-7.893 6.76-1.503.713-2.95.337-4.34-1.127-1.316-1.39-2.256-3.417-2.82-6.083-1.073-4.965-.576-9.421 1.49-13.369-2.13 1.696-4.389 2.769-6.564 3.455.489 1.728.207 3.943-.846 6.647-1.09 2.703-2.612 5.068-4.567 7.097-2.142 2.215-4.341 3.436-6.596 3.661-2.593.301-4.942-.845-7.047-3.436-1.503-1.99-2.293-5.032-2.368-9.124-.075-4.657 1.052-8.45 3.383-11.378 2.744-3.417 6.051-5.126 9.923-5.126 1.88 0 3.345.451 4.397 1.352 1.165 1.051 1.391 2.422.677 4.112zm45.51 15.433c-.826 2.403-.92 4.224-.282 5.463.678 1.352 1.955.676 3.834-2.027 1.204-1.766 2.051-3.993 2.538-6.68.341-1.878.733-4.464.643-6.458-3.346 3.208-5.943 7.412-6.733 9.702zm-8.231-20.784l5.13.901.452 3.323c.714-1.013 1.654-1.971 2.818-2.872 2.294-1.803 4.567-2.442 6.822-1.915 2.08.898 3.477 2.753 4.191 5.562 1.999-1.707 4.488-3.772 6.147-4.613 1.756-.891 3.507-1.031 5.569-.668 2.294.405 2.743 4.487 1.353 12.223-1.541 8.373-1.954 12.954-1.239 13.743.563.601 1.991.676 4.283.225 2.481-.488 4.267-1.37 5.357-2.648 1.09-9.837 1.635-17.235 1.635-22.191 0-.526 1.089-.732 3.269-.62 2.181.113 3.308.451 3.384 1.013.676 4.357-1.674 17.237-7.047 38.64 32.409 5.231 49.04 10.935 93.093-3.059.038.575.254 1.162.074 2.193-42.667 18.545-61.655 18.196-94.747 5.485-1.991 4.694-4.153 8.28-6.483 10.758-3.571 3.793-7.93 5.689-13.079 5.689-4.549 0-7.65-1.389-9.303-4.168-1.203-2.065-1.522-4.525-.959-7.378.601-2.967 2.425-5.408 5.469-7.323 4.511-2.779 11.05-3.736 19.62-2.872l3.214.337c1.126-4.167 1.748-8.824 1.86-13.968 0 .112-1.053.675-3.157 1.689-2.481 1.165-4.624 1.671-6.427 1.521-5.827-.413-7.374-7.565-4.398-21.403.907-4.221.117-5.6-1.964-4.496-1.504.798-2.831 1.874-5.173 3.727.058.427.104.87.138 1.331l.113 1.973c0 1.802-.245 4.018-.733 6.645-1.015 4.807-2.838 8.355-5.468 10.646-2.106 1.878-4.191 2.628-6.259 2.253-2.104-.375-3.063-2.028-2.875-4.956.188-2.592 1.002-5.034 2.537-7.267 1.957-2.844 3.558-4.285 7.478-8.203-.149-1.262-.387-2.152-.713-2.668-1.014-1.727-2.668-1.877-4.96-.45-2.482 1.502-4.192 4.131-5.131 7.886-4.699 18.737-6.146 33.87-4.342 45.398.151 1.089-1.991.807-6.427-.845l6.878-58.578zm19.403 46.13c-2.631 2.516-3.534 5.238-2.707 8.167.79 2.854 2.613 4.244 5.469 4.168 2.631-.112 5.3-1.295 8.005-3.548 3.196-2.666 5.713-6.383 7.556-11.152-3.797-1.127-7.574-1.352-11.332-.676-3.195.601-5.525 1.614-6.991 3.041z" fill="#57C2C9"/><path fill-rule="evenodd" clip-rule="evenodd" d="M136.695 2.808c15.793.33 31.337 3.472 42.005 9.538 7.756 4.41 14.012 10.348 18.558 17.336 1.983 2.218 4.208 4.363 4.704 5.233.887 1.56-.235 2.277 1.196 4.651.499.826.994 1.647 1.064 2.695.049.74-.107 1.323-.3 2.347l.102.38c1.443 1.429 3.537 4.88 3.502 7.71-.032 2.611-1.068 3.406-1.671 5.22.008.296.013.594.017.892.004.383-.001.758-.004 1.137 1.258.542 2.61 1.357 3.991 2.36-2.392 1.102-4.045 1.386-4.432 4.466-4.249 33.796-38.296 48.39-71.974 48.718-28.738.279-54.647-10.545-65.218-32.36-.49-.59-1-1.217-1.618-1.819-1.864-1.817-3.967-1.663-5.716-6.618 1.642.223 3.005.147 4.177.014a62.237 62.237 0 01-.686-2.683c-1.78-.926-3.525-1.89-4.808-3.57-2.832-3.708-.896-7.727.733-10.338.08 2.216 1.21 3.753 2.661 5.094a56.236 56.236 0 01-.22-4.401c-.073-7.778 1.235-14.666 3.692-20.71 1.107-2.725 2.552-5.305 4.236-7.753.847-1.231.73-1.99.77-3.354.147-5.135 2.767-7.025 5.34-8.675-.188 2.031-.299 3.696-.744 5.224.268-.303.538-.606.81-.906C89.731 8.4 110.521 2.262 136.694 2.808zm21.144 37.098c-.434-.807-1.09-1.476-2.014-1.98.278.845.107 1.75-.471 2.52.77-.01 1.653-.154 2.485-.54zm32.384 47.935c1.116 1.493.746 4.08-1.554 4.646 1.435-1.46 1.716-2.636 1.554-4.646zm-3.249.389c.782.614 1.152 1.362.898 2.31-.353.06-.773.102-1.529.056-.151-.765-.007-1.55.631-2.366zm-1.742 1.019c-.867 1.576-.163 2.944 1.828 3.633-1.021-.75-1.53-2.073-1.828-3.633zm4.079-1.895c-2.049-.788-3.137-.4-4.154.08 1.226-.27 2.556-.31 4.284.53l-.13-.61zm6.17-1.27c1.528.044 2.412-.818 2.505-2.793-.376 1.573-1.347 2.315-2.505 2.793zm-1.421-.046c-.964-.363-1.404-1.336-1.193-3.068a9.438 9.438 0 001.193 3.069zm1.106-.782a2.655 2.655 0 001.012-1.087c-.387-.327-.809-.393-1.247-.337a2.892 2.892 0 00.235 1.424zm-97.944-35.01c-.443.66-.962 1.146-1.511 1.458a3.115 3.115 0 01-1.659.422 3.076 3.076 0 01-1.613-.536 3.745 3.745 0 01-.602-.506l-.065.316c-.047.252-.182.485-.21.74-.035.325.013.655.023.98.005.136.083.288.019.405-.15.273-.515.401-.626.692-.1.262.188.578.178.859-.01.277-.22.534-.236.81-.015.282.081.575.007.848-.1.366-.19.82-.515 1.015-.233.14-.624-.016-.778-.239-.129-.187.195-.441.153-.664-.065-.338-.506-.556-.655-.867-.127-.265.046-.627-.014-.914-.055-.256-.174-.473-.128-.73.06-.336.253-.645.282-.986.025-.313-.122-.62-.12-.935.001-.37.026-.747.13-1.103.043-.144.26-.196.296-.343.052-.218-.167-.478-.052-.672.12-.205.497-.127.639-.319.085-.117-.16-.301-.09-.43a.326.326 0 01.133-.122 3.366 3.366 0 01-.484-.836c-.284 1.82-2.688 2.187-5.147 2.502-.497-.045-.546-.32-.712-.539-.255-.333-.59-.769-.59-1.242 0-.42.311-.866.434-1.354 2.468-.946 4.628-1.6 5.824-.1l-.005-.04a3.05 3.05 0 01.336-1.785h.004l.02-.04c-.143-.023-.282-.034-.364.002-.212.092-.505.19-.72.188-.214 0-.23-.212-.51-.193-.279.02-.882.206-1.093.3-.212.097.078.237-.099.24-.177.003-.56-.202-.773-.225-.214-.022-.394.079-.474.094-.079.015-.627.144-.788.165-.158.02-.547-.528-.706-.46-.158.07-.651.412-.95.413-.297.001-.41-.394-.633-.404-.223-.01-.215.39-.473.352l-.018-.004-.054.098c-2.182 3.817-6.407 5.075-8.54.782-.26 2.762.907 4.626 2.712 5.43l-.25.454-.14.025c-1.391.244-3.538.227-4.933-.077.785 1.09 2.26 2.693 3.656 3.405-1.178 3.853-.558 7.15 1.213 10.11-1.07-3.876-.055-6.674 1.202-9.46-1.766 9.931-.877 18.495 8.128 24.448 13.344 8.823 3.237 13.16 13.728 20.751 6.869 4.969 17.509 1.776 21.659 10.072-17.683-2.731-32.831-11.12-42.551-22.805 2.26-5.574.442-4.904-.044-9.69-.145.235-2.448 2.346-3.463 4.972l-.052-.079c.615-4.882.253-7.351-4.423-10.07a3.184 3.184 0 00-.8-.333l.114.314c.985-3.816-.268-6.098-2.131-7.935a45.512 45.512 0 01-.684-7.759c-.015-6.715.963-12.481 2.646-17.47 5.14-3.313 6.69-4.083 8.167-10.549-2.2 1.106-3.708 2.06-4.796 2.982C78.388 23.944 87.32 17.803 95.355 13.2c-2.985 3.773-1.935 7.567.342 9.451-15.05 9.472-10 14.64-12.442 21.67.122.043.231.077.306.072.215-.013-.197-.279.027-.295.226-.014.788.256 1.032.225s-.094-.364.178-.38c.27-.014.906.29 1.17.305.266.014-.249-.307-.136-.454.112-.146.393-.064.677-.133.283-.068.51.102.784.062.275-.04.454-.2.716-.222.261-.022.735.008.931-.054.196-.06-.054-.187.127-.274.18-.087.599-.237.88-.21.279.028.37.376.692.364.324-.012.757-.36 1.078-.428.321-.07.585.128.813.026.226-.103.179-.476.38-.566.2-.09.438.155.63.113.19-.042.184-.243.408-.343a2.37 2.37 0 01.184-.071 1.84 1.84 0 01.595-.543c-2.335-1.862-.142-2.953.375-3.114-1.342-.362-2.648-.782-4.1-.773 1.083-1.902 2.942-4.472 6.223-3.959 3.396.532 5.587 2.666 5.932 5.982.637-.194.747-1.818.434-2.438 1.205 1.677 2.05 2.15 4.128 2.31 2.403.187 3.849 1.328 3.972 3.37.068 1.141.344 1.883.928 2.467-1.496.154-3.055.323-3.961-.105-.82-.388-1.549-.634-2.241-.762a5.67 5.67 0 00-.279-.453c-.699-1.287-1.532-2.067-2.453-2.491a4.246 4.246 0 00-.884-.296c-.023-.477-.924-.396-2.077-.105.896-.609 1.713-1.25 1.468-1.676-.218-.375-.999.227-1.818.901.517-1.067.93-2.03.559-2.153-.468-.157-1.025.795-1.586 1.842-.198-1.241-.414-2.373-.762-2.26-.408.134-.325 1.176-.184 2.32-1.176-1.12-2.26-1.88-2.528-1.239-.112.269.059.613.566 1.06-1.228-.485-1.788-.425-1.725.031.095.677 1.075 1.264 2.305 1.741-1.357.284-2.285.578-2.179 1.207.035.214.36.083 1.457-.248-.643.356-.97.715-.693 1.036.214.248.676.22 1.455-.14-.31.534-.588 1.332-.293 1.33.574-.005 1.193-1.81 1.277-1.859-.502 1.706-.4 2.437.083 2.294.487-.146.844-.803 1.105-1.673.13.78.313 1.386.666 1.4.368.015.322-.976.222-2.087.78.845 1.543 1.634 1.942 1.374.346-.224-.47-1.185-1.303-2.15l.144-.006c1.664-.283 3.212.126 4.399 2.33.605.86 1.004 1.994.813 3.907-.361 1.726-1.016 2.392-1.66 3.101l-.434-.972c-.824 1.218-1.766 1.427-2.732 1.45-1.83.386-2.999-.313-3.7-1.78a3.369 3.369 0 01-.225-.201l-.137.214-.003.003zm6.237-13.523l-.114-.026c-.6-.796-1.259-1.588-2.114-2.265h-.003c-.99-.783-2.218-1.395-3.865-1.653a5.874 5.874 0 00-.33-.044 3.446 3.446 0 01-.142-2.084c.718-3.104 4.302-4.23 6.358-6.636-1.55 1.584-2.761 5.882.21 12.708zm27.45 2.427c1.863-1.838 4.617-3.026 7.995-3.727.131.325-.485.501-.568 1.135.901.884 1.91.716 2.664-.496-.08.857-.712 1.545-2.025 2.023.426.16.92.087 1.457-.143-.776.68-1.703.99-2.701 1.28.107.041.427.081.64.07a4.97 4.97 0 01-.712.167 3.227 3.227 0 01-.387 1.162c-.427-.239-.527-.66-.606-1.095-1.74-.029-3.176-.746-4.116-.063 1.02 1.083 2.478 2.132 5.16 1.358a.493.493 0 01-.037.42c-3.6 1.064-6.736-.806-8.604-2.25.548.12 1.686.265 1.84.159zm11.145 10.374c-.874.702-.736 1.417.185 1.801-.324-.618-.291-1.292-.185-1.8zm-12.762-14.679c3.747-1.863 6.204-2.592 10.118-.548.754.394.967-1.37.288-1.622-5.131-1.917-7.231-.655-10.406 2.17zm-16.866 5.131c-1.98-.452-4.353-.94-4.049-2.676.133-.757.606-1.182 1.266-1.396a4.4 4.4 0 01-.404-.549c-1.046.952-2.292 1.524-3.935 1.318-1.844-.987-2.605-2.967-2.132-6.09.371.012.745.086 1.113.036.436-.059.831-.322 1.268-.357.175-.015.31.174.479.215.433.102.9.058 1.319.208.262.095.425.38.672.505a4.29 4.29 0 01.251-1.622h.001c.401-1.079 1.212-1.809 2.257-2.394 1.277-.859 2.338-1.275 3.246-1.4.185-.025.365-.039.539-.04-.673-1.11-.758-2.85-.334-5.03.426.133.836.475 1.276.4.399-.067.53-.798.935-.777.483.026.742.625 1.149.887.247.159.532.245.8.368.533 1.845.345 4.01-.387 4.984a3.678 3.678 0 011.199.94 4.697 4.697 0 01.545-2.584c.448-.822 1.387-1.546 2.173-2.054.598-.387 1.219.051 1.783.27.444.172.55.74.821 1.131.412.593 1.023 1.103 1.214 1.8.166.602-.09 1.255-.026 1.878.048.467.441.9.36 1.362-.107.611-.619 1.078-.884 1.64-.173.368-.084.926-.427 1.146-.278.179-.652-.132-.958-.257-1.026-.42-2.19-.651-3.029-1.374a4.882 4.882 0 01-.499-.5 4.206 4.206 0 01.193 1.65c1.411.183 2.831.966 4.824 1.142a19.764 19.764 0 002.871-3.977 5.52 5.52 0 01-.935-.137c-.048-.162-.115-.315-.181-.468l-.002-.004c-.054-.124-.109-.25-.116-.315-.016-.165.011-.395.037-.622.051-.443.103-.886-.039-1.402-.163-.593-.485-1.024-.823-1.434l.067-.036c.503-.287.718-.59.749-.901 1.25-.405 2.692-.383 3.878.12a6.893 6.893 0 011.75-1.623 17.741 17.741 0 00-1.328 1.829c.438.243.827.563 1.143.962.356.449.781.57 1.387.831-.539.181-.817.643-1.102 1.136-.689 1.183-2.018 1.863-3.418 2.033a13.653 13.653 0 01-2.155 3.99 10.99 10.99 0 001.896-.378c-1.604 1.628-3.27 3.149-4.94 3.492-.578.497-1.169.979-1.761 1.462a7.492 7.492 0 00-.577-1.2l.486-.413a4.425 4.425 0 01-1.784-1.235 5.673 5.673 0 01-.575.834c1.132.905 1.899 2.478 2.153 4.718.204 1.786-1.655 2.868-2.59 6.121-2.018-2.068-2.052-3.93-2.711-5.685-.379-1.008-.684-1.96-.825-2.851l-.274.049a5.537 5.537 0 01-2.055-.058 7.325 7.325 0 01-1.459-.3l.003.011c.116.546 2.503.413 2.564 1.222.027.354-.565.594-1.934.647.218.362.159.595-.018.802h-.001zm-1.545-4.257c.723-.019 1.527.074 2.311.195.249.22.467.467.501.755.993.168 2.158.043 3.75-.805 1.497-1.013 1.872-1.893 2.294-2.778l-1.09-.033c.833-1.254.665-2.229.311-3.151-.347-1.88-1.465-2.717-3.13-2.809-1.057-.571-2.47-.64-4.772.917-1.256.695-2.092 1.593-2.043 3.17.117.007.217.043.287.14.206.282-.036.72-.1 1.088.04.156.086.317.138.484.217.104.381-.67.68-.807.16-.072.34.11.479.216.254.193.458.445.686.666-.39.584-.794 1.147-1.23 1.65.227.42.529.793.928 1.102zm4.33-1.3c-1.561.144-3.254-1.256-2.653-3.153.42 1.669 1.141 2.387 2.653 3.153zm.751-.44c1.464-1.121 1.664-2.071 1.765-3.01-.345.996-.899 1.965-2.261 2.835l.496.175zm.398-2.058c-.786.29-1.484.225-2.055-.372.113-.278.268-.597.633-1.12.615.229 1.115.677 1.422 1.492zm.031-1.697c-.749-1.31-2.04-1.408-3.409-.284.986-.404 2.16-.185 3.409.284zm6.014-8.432c.042-.179.087-.333.136-.452.262-.648.542.238.742.012.201-.226.045-.794.183-1.055.139-.262.443-.177.586-.394.143-.216.112-.561.213-.822.1-.258.175-.587.385-.723.209-.137.518.207.679.032.162-.176-.002-.594-.016-.753-.014-.157-.14-.013-.064-.19.074-.177.291-.614.491-.817.201-.205.553-.186.669-.364.116-.178-.127-.262-.104-.502.023-.242.099-.73.242-.906.144-.176.266.265.411.106.146-.158.142-.546.253-.826.11-.28.258-.638.408-.847.149-.209.38-.213.468-.377.088-.164-.184-.314.014-.518.197-.205.742-.28 1.04-.57.299-.292.413-.958.691-1.121.278-.164.306.269.344.511.038.244-.059.413-.13.852-.07.438-.164 1.376-.288 1.783-.124.41-.404.425-.438.613-.035.188.31-.01.275.283-.037.292-.383.933-.471 1.292-.088.359.037.575-.052.84-.089.266-.369.397-.467.695-.099.3.071.735-.105 1.047-.177.31-.71.427-.869.667-.16.24.103.391.002.635-.101.244-.443.44-.58.75-.138.309-.038.789-.222 1.06-.185.272-.537.247-.782.418-.245.172-.57.335-.678.604-.108.267.766.443.105.82a2.095 2.095 0 01-.19.095 5.5 5.5 0 01-.105-.206l.001-.001c-.223-.463-.45-.923-1.083-1.168-.051-.02-.169-.074-.286-.126-.441-.2-.899-.408-1.408-.377zm.031 7.934c-.133.018-.257-.082-.279-.227-.02-.144.054-.392.186-.412.132-.018.274.2.295.343.019.144-.071.277-.202.296zm-.801-.434c-.145.02-.287-.138-.318-.354-.03-.217.061-.409.205-.43.145-.02.288.138.319.355.03.216-.061.409-.206.43zm1.027-1.214c-.159.023-.312-.122-.341-.324-.029-.203.077-.385.236-.407.158-.023.31.122.339.324.029.202-.076.385-.234.407zm-1.137-.154c.162-.023.27-.206.241-.408-.029-.204-.184-.35-.346-.327-.163.024-.272.207-.242.41.029.203.185.348.347.325zm.837-1.19c-.159.023-.31-.11-.337-.298-.027-.188.08-.358.239-.38.159-.024.31.11.337.298.027.187-.081.358-.239.38zm-.972-.073c.101-.014.225-.202.194-.418-.032-.216-.206-.38-.306-.365-.101.013-.291.235-.26.45.031.216.271.347.372.333zm-.515 1.727c.115-.016.242-.247.223-.392-.02-.143-.166-.28-.281-.263-.116.016-.259.18-.239.324.02.144.181.349.297.331zm8.257 45.728c-.715.126-1.423.235-2.148.3-9.373.866-14.435-4.849-16.753-14.18 1.247 11.578 7.443 16.163 17.683 14.632 21.548-3.218 19.981 14.183 35.476 13.984-7.964-1.652-13.451-7.971-16.038-15.388 5.712.246 4.005-6.368 6.216-9.138-2.234-2.722-3.433-4.046-4.396-6.232-2.214-5.031-.303-11.688 2.15-17.09l.477-.024.297.255c.091-.03.183-.057.275-.086 2.841.377 5.163-.667 5.697-.423.428.194.637.127.641-.143-.782-2.451-2.456-4.543-4.715-4.727.277-.457.564-.9.862-1.33.883.256 1.765.525 2.647.738.884.211 2.072-.855.273-1.404-.684-.209-1.335-.412-1.967-.596 3.195-3.902 7.87-6.5 16.742-8.243 1.129 2.343 2.496 5.06 4.641 6.861.53 3.455 1.205 6.772 3.544 9.774-1.352 5.2-2.215 10.478-3.763 15.599a5.58 5.58 0 01-.303.776c0-.039.005-.077.015-.113-2.11 3.996-4.613 5.782-6.931 7.217-2.401 1.485-4.809 3.496-7.614 3.412-1.566-.045-2.715-.277-3.935-.914 1.104 1.149 3.245 4.189 8.884 1.681 2.836-1.26 2.863 8.18 3.905 11.105 1.431-1.787 4.729-3.803 11.744-4.035-.856.33-1.366.891-1.575 1.532-.858 2.644-2.963 1.478-3.927 2.317-.964.84-1.017 2.612-1.647 3.281-.629.67-2.712.857-3.285 1.43-.573.575.054 2.02-.459 2.749-.512.728-2.04.634-2.612 1.422-.572.789-.478 2.535-1.069 3.282-.524.664-1.651 1.093-3.256 1.332-2.33-1.762-4.853-3.975-9.467-4.98 5.549 2.549 7.646 6.626 11.515 8.087 7.674 2.896 10.148-2.376 16.438-2.745-.697-.772-.951-1.556-.992-2.325-.94-1.744-.786-3.395.907-4.918.717-.93 1.602-1.706 3.392-1.64a646.92 646.92 0 00-.644-1.126c1.162-.122 2.289-.288 4.247.598.307.18.587.363.841.544-1.136-2.307.011-4.277 2.673-4.595 1.179-.978 2.654-1.159 3.743-.42-1.207-1.711-3.171-2.9-6.041-3.302-.668-.093-2.755-.386-4.404-.599-4.273-.616-9.57-1.469-11.149-2.493-2.401-1.557-3.892-5.352-2.961-9.515.174-.775.914-1.678 1.97-2.718.397-.11.796-.221 1.194-.337-1.177 2.241.521 5.22 3.66 3.04.882-.611 2.427.044 1.316 1.45-1.76 2.231-1.131 4.022.257 5.04-.385-1.192-.608-2.758.846-4.492 1.753-2.091-.631-4.306-2.498-3.264-2.13 1.192-2.355-.619-1.511-1.229 3.262-2.361 5.724-.563 8.516-9.99 1.904-1.914 4.239-4.427 3.387-8.828-.913-4.714 1.824-6.156-2.579-12.469-2.116-3.034.31-6.14-3.74-9.831-6.995-6.376-10.863-11.825-15.412-9.742-3.55-2.531-7.025-2.936-13.805.354-8.576-4.244-18.817-5.614-28.111-5.056-10.532.633-20.993 2-30.38 6.629-.983 5.01 3.737 6.263 8.674 4.857 3.606-1.027 11.218-9.208 22.058-4.9l.033-.047c.068-.097.137-.172.205-.234-.007-.22.077-.468.363-.765l.002-.003c.221-.228.473-.332.746-.44l-.001-.002a1.81 1.81 0 00.314-.145c.022-.029.084-.165.143-.295v-.005c.166-.367.323-.719.722-.952.699-.409 1.156-.167 1.473.37.147.25.183.5.213.71l.011.075h.001c.049.322.004.515-.061.793v.004c-.027.111-.06.248-.073.328v.003l-.063.46c-.065.493-.146 1.096-.25 1.441v.004a1.978 1.978 0 01-.119.305c.007.082.009.174.002.276.628.397 1.266.836 1.913 1.322 9.221-2.048 17.805 9.63 12.446 19.307 1.376-8.972-3.183-14.983-9.002-13.992 3.674 2.876 5.051 6.067 5.998 10.1.935 3.985-.769 4.654.006 8.886.507 2.767 2.471 5.56 4.064 7.209 1.204 1.246.956 2.118.206 2.682-.648.488-1.495 1.003-2.556 1.487-.069 1.212.373 2.053.71 2.624.512.866-.274 2.026-1.965 2.25-1.037.07-1.986.03-2.663-.322.184 1.73 4.023.125 4.053 3.287-1.461.953-1.881 1.347-1.586 3.546.478 3.578-1.279 4.668-3.049 4.815-6.588.545-10.661-1.873-13.805 5.525-7.486-2.253-10.788-8.536-9.929-16.036 2.666-.534 5.35-2.576 6.38-4.47-3.896 2.76-8.059 2.102-10.528-1.139.435 10.262 3.916 21.67 15.678 22.323.757.042 1.497.024 2.252.017zm61.381 22.182l.116.09c3.343-2.48 7.156-5.874 8.428-9.653.024-.354.035-.704.035-1.048-.356.87-.989 1.598-1.921 1.771-1.433.882-2.702.93-3.831.264.088.188.161.378.226.568 1.315 2.75.606 4.565-.871 5.998-.764.97-1.486 1.618-2.182 2.01zM88.108 38.851c-.371-4.816 2.798-9.188 8.766-13.211-4.334 3.799-7.205 8.223-8.766 13.211zm7.97-20.35c2.225 3.699 6.586 3.165 12.475-.74-5.763 2.694-10.094 3.116-12.475.74zm16.812-2.826c4.571-1.267 8.777-1.381 12.518-.026l-.004.03-.006.079a1.425 1.425 0 00-.304.238 2.271 2.271 0 00-.207.248c-3.999-.896-7.998-.954-11.997-.57zm2.858 25.597c-4.23 5.591-1.237 12.843 5.568 11.1-3.422.236-6.468-4.256-4.851-8.749a18.87 18.87 0 01-.489-1.566 27.514 27.514 0 00-.228-.785zm51.338-1.377c.434-.805 1.091-1.475 2.013-1.98-.276.847-.28 1.72.297 2.489-.769-.01-1.479-.122-2.31-.51zm4.804-1.922c.621.287 1.228.82 1.602 1.526a4.96 4.96 0 01-2.173.905c.652-.669.896-1.462.571-2.431zm-5.674 2.6c1.02-2.459 2.419-4.09 4.689-4.262-.04.28.739.089.955-.153.006.15-.039.312-.095.436.181-.018.559-.203.712-.358.01.063-.158.447-.16.535.277-.111.666-.463.832-.61-.014.14-.206.499-.22.639.358-.106.701-.428.836-.532-.012.09-.201.397-.212.487.324-.038.706-.356.917-.498-.074.167-.325.552-.399.717.426-.055.753-.248.929-.324a3.03 3.03 0 01-.419.508c.225.054.452-.027.678-.075-.071.12-.141.236-.21.355.313.002.611-.055.869-.257-.054.207-.189.415-.354.624.376.04.672-.07.938-.236a2.225 2.225 0 01-.529.746 1.4 1.4 0 00.88-.201 2.26 2.26 0 01-.63.703c.249.038.472-.015.701-.081-.551.534-1.125 1.03-1.921 1.187.041.208.119.452.126.659-.16-.024-.378-.078-.539-.036l.049.197c-.354-.036-.645-.046-.813.001l.143.328c-.322-.105-.676-.145-.912-.103a.547.547 0 01-.177.264c-.193-.06-.284-.097-.482-.074-2.77.317-5.016-.682-5.542-.444-.427.193-.636.128-.64-.141zm4.473-2.055c.431.339.193 1.185-.394 1.03.022-.131.088-.468.11-.6-.121.105-.221.251-.391.39-.307-.155-.045-1.386.675-.82zm-3.456-4.607c-1.799.548-.694 1.614.19 1.4 2.242-.537 4.476-1.27 6.758-1.399.863-.05 2.013.527 2.784.843-.49-.764-2.13-1.89-3.276-1.932-2.166-.08-4.09.365-6.456 1.088zm-15.356 5.912c.279-.577.56-1.135.841-1.671.104-.064.21-.12.316-.17-.323.97-.254 1.794.399 2.463a3.706 3.706 0 01-1.556-.622zm2.36-1.296c-.432.34-.368 1.216.219 1.063-.023-.132-.087-.469-.111-.6.122.103.222.25.392.388.308-.153.219-1.416-.5-.85zm2.928 17.508c1.725.324 3.531.71 5.344.716 1.914.006 3.08-.374 4.88-.494-1.169.56-3.764 1.509-4.893 1.497-1.608-.016-3.834-.919-5.331-1.719zm-2.286-.564c1.418.122 3.3-.633 4.811-1.027.584-.152 1.884.68 2.617.726.734.046 1.704-.666 2.299-.51 1.637.428 3.05 1.357 5.01 1.102-1.939 1.7-3.332 4.54-7.236 4.536-3.96-.004-5.738-3.232-7.501-4.827zm8.382-4.257c.717-.246.919-.658 1.259-.807.575-.25.956.107 1.004.484-.14.156-.597.02-1.007.05-.411.029-.559.163-1.256.273zm-1.924-.065c-.682-.26-.837-.7-1.16-.855-.546-.26-.95.104-1.007.465.13.156.573.04.966.084.396.042.533.176 1.201.306zm-60.711-1.574c-1.464-.19-2.03-1.319-1.522-2.969.002 1.039.633 2.017 1.522 2.97zm1.521-.659c-.029-.814-.346-1.422-1.098-1.715-.21.206-.441.463-.777.988.433.47 1.025.753 1.875.727zm1.713-1.122c-.469 1.737-1.255 2.27-2.064 2.71.771-.68 1.441-1.542 1.722-3.091l.342.381zm.119-.84c-.45-1.463-2.344-2.47-3.835-1.223 1.665-.24 2.581.143 3.835 1.222zM96.42 49.71c-1.344 2-3.344 1.903-4.473-.083-1.627-.85-2.114-2.766-.397-4.113.306-1.063 3.292-1.928 4.316-.369 1.69 1.21 1.759 2.756.554 4.565zm-1.54-2.454a2.069 2.069 0 00-1.09-.4c-.118.377-.04.7.133 1a2.26 2.26 0 00.958-.6zm.901.562c.029.803-.541 1.414-1.856 1.786a7.413 7.413 0 001.856-1.786zm-.397-1.04c-.43-1.113-1.32-1.491-2.775-.96 1.25-.205 2.08.27 2.775.96zm3.035-4.752c-.186-2.047 1.596-1.082 1.564-.582-.104 1.619-1.49 1.4-1.564.582zm19.854 62.981c4.986 6.193 6.898 5.672 11.676 6.469a2.35 2.35 0 001.315.746c2.342 1.441 4.264.736 5.858-1.658.236-.358.419-.713.553-1.056 1.551 2.712 3.401 2.971 5.562 2.373 3.427-.622 4.631-1.921 5.076-3.359 1.409-1.541 1.676-3.269.336-5.257-.493-1.138-1.198-2.157-3.044-2.549l.948-.986c-1.155-.421-2.265-.88-4.494-.478-2.37.696-3.528 1.717-4.262 2.852-1.048 1.264-1.492 2.414-1.525 3.483a4.845 4.845 0 00-1.539-.431c-1.869-1.551-4.458-1.165-5.226 1.618-.537.432-.716 1.566-.502 2.693-3.315-3.299-4.815-4.382-10.732-4.46zm23.056-2.504c-1.525 1.24-1.81 3.978.393 5.148-1.089-1.862-1.075-3.136-.393-5.148zm3.22 1.231c-.957.428-1.526 1.098-1.512 2.132.346.151.763.301 1.549.448.351-.742.406-1.581-.037-2.58zm1.518 1.489c.481 1.833-.59 3.05-2.802 3.243 1.237-.504 2.096-1.725 2.802-3.243zm-3.679-2.984c2.294-.279 3.308.397 4.222 1.148-1.183-.589-2.531-.971-4.513-.558l.291-.59zm-9.376 8.562c-1.58.045-2.496-.847-2.591-2.891.389 1.627 1.393 2.395 2.591 2.891zm1.471-.047c.997-.377 1.452-1.384 1.234-3.176a9.786 9.786 0 01-1.234 3.176zm-1.144-.811a2.739 2.739 0 01-1.048-1.125c.401-.336.837-.405 1.291-.349a3.01 3.01 0 01-.243 1.474zm64.364-31.541c7.032-5.648 4.364-5.292 6.282-10.345-.207.127-2.524.798-4.496 2.229.541-2.274 2.916-5.528 8.797-8.01-3.962-2.38-7.452-2.653-8.948-.127-1.459 2.468-.134 5.375.022 8.233-2.172 1.629-3.85 4.202-1.657 8.02zm2.632-19.54c1.971-.696 4.029-1.556 5.33-4.233 1.451-2.985-.464-5.513-1.967-7.102-1.107 3.682-4.799 5.517-3.363 11.334zm-3.422 11.097c.113-5.494-2.025-5.508-5.717-8.213.727 4.527.317 5.604 5.717 8.213zm1.315-37.217c2.254 3.262.622 4.27 1.092 7.117.391 2.366 1.571 3.053 2.098 6.357.419-1.286 1.621-2.547 1.531-3.896-.098-1.462-1.39-2.61-1.783-4.022-.259-.934.07-2.093-.41-2.936-.641-1.127-1.542-1.773-2.528-2.62zM84.572 53.699c.092-.078.189-.022.216.126.027.147-.025.328-.117.406-.092.077-.189.02-.216-.126-.027-.147.025-.329.117-.406zm-3.715 1.46c-.835-.282-1.723-1.023-2.516-1.132-1.838-.251-2.602.537-5.174.246.872.58 1.592 1.524 2.617 1.736 1.111.23 2.233-.495 3.367-.495.603 0 1.227.336 1.827.373.162.62.468 1.215.88 1.688.327.373 1.048.186 1.45.441-.587 7.273 2.834 14.241 11.326 17.264-5.745-4.097-9.46-8.997-9.71-15.597.247.013.47-.005.664-.14.462-.316.926.633 1.481.563.485-.06.621-.764.835-1.203.274-.561.643-1.148.612-1.771-.026-.528-.187-1.12-.266-1.642-.08-.52-.012-1.399-.247-1.87-.441-.88-1.236-.94-2.061-1.479-.516-.337-1.166-.47-1.783-.498-.896-.042-1.956-.248-2.673.29-.445.335.165 1.122.059 1.67-.107.556-.714.997-.688 1.557zm4.475-1.167c.13-.052.308.09.397.315.09.224.056.45-.074.5-.13.051-.308-.09-.397-.315-.088-.225-.056-.45.074-.5zm.388 1.233c.08-.032.267.054.343.247.077.193.015.421-.066.453-.08.033-.29-.087-.366-.28-.076-.194.009-.389.09-.42zm.692.628c.113-.044.261.06.33.233.067.174.03.35-.084.395-.112.043-.26-.06-.329-.233-.068-.173-.032-.35.083-.395zm-.013-.781c-.12.046-.172.193-.12.326.053.133.192.203.311.157.118-.047.172-.192.118-.326-.052-.133-.19-.204-.31-.157zm-.361-.934c-.109.044-.137.23-.064.417.074.187.222.304.332.261.109-.044.137-.23.064-.416-.074-.187-.223-.306-.332-.261zm-1.17.724c.173-.068.36-.003.42.147s-.033.325-.205.393c-.173.069-.36.003-.42-.146-.058-.15.033-.326.206-.394zm-5.08 1.805c-3.387 9.66-.854 15.984 3.618 20.23 3.628 3.444 6.764 4.83 9.926 8.014-2.046-3.695-5.26-5.585-8.524-9.027-4.288-4.518-7.369-10.526-4.845-19.209l-.175-.008zm12.626 23.484c6.53 1.889 6.586 11.007 11.158 16.61-6.213-4.527-4.913-12.874-11.158-16.61zm15.553 7.633c3.215 13.43 14.724 17.457 28.297 11.707-12.14 3.699-23.499 1.078-28.297-11.707zm8.543 5.098c4.506 5.818 13.3 6.673 19.641 3.99-6.644 1.354-14.067-.033-19.641-3.99zm28.659-10.94c6.474 6.537 5.607 18.231 15.73 17.265-11.076-.623-6.112-10.73-15.73-17.266zm.119 12.945c7.072 2.843 4.693 8.096 9.232 10.103 4.25 1.88 9.06-2.863 14.389-.862-5.653-1.629-10.36 3.876-14.755 1.932-4.705-2.081-3.169-7.797-8.866-11.173zm10.481 7.456c6.404 1.992 5.04-1.626 15.087-.521-9.704-2.967-8.384 1.911-15.087.521zm-48.846-42.446c1.601 14.947 7.755 26.473 23.67 23.974 6.517-1.024 11.497-1.008 14.001 4.683-4.113-4.25-8.559-3.466-13.577-2.867-17.291 2.068-23.769-10.418-24.094-25.79zm61.81-39.26c1.37.336.457 2.302-.14 2.895-.458.455-1.175.527-1.599.16-.674-.582.39-3.386 1.739-3.055zm-12.318 4.15c-.102-.555.313-1.33.932-1.506.774-.218 1.274-.817 2.065-.145.428.364.402 1.027-.056 1.48-.615.611-2.667 1.663-2.941.17zm5.276-3.967c.512-.357 1.177-.296 1.487.133.547.757 1.03 1.634.07 2.342-.502.37-1.174.33-1.5-.09-.634-.81-1.009-1.722-.057-2.385zm4.048-3.01c.623-.11 1.151.264 1.178.838.038.83-1.034 1.463-1.661 1.544-.624.082-1.32-.487-1.315-1.064.009-1.132.936-1.166 1.798-1.318zm-11.264 7.113c-.159.425-.769.888-1.283.832-.579-.064-1.199-.142-1.466-.931-.144-.427.279-.983.782-1.106.678-.167 2.397.064 1.967 1.205zm-5.76-2.403c1.303-.36 2.349 1.823.523 2.205-1.187.248-2.165-1.752-.523-2.205zm21.363-4.986c-.672-.207-.948-1.483-.088-1.83.341-.138.96.022 1.084.426.169.543-.046 1.699-.996 1.404zm4.563 2.592c-.112.296-.537.619-.895.58-.403-.044-.835-.099-1.021-.65-.101-.297.194-.684.545-.77.472-.116 1.67.044 1.371.84zm.665-3.919c1.402-.433 2.471 1.615.569 2.107-.882.184-1.789-1.77-.569-2.107zm-15.522 2.14c-.13.345-.627.723-1.046.678-.472-.052-.978-.116-1.194-.76-.119-.348.681-.975 1.091-1.075.553-.136 1.499.226 1.149 1.157zm-4.543 1.65c1.203.58.48 2.872-1.125 1.968-1.045-.59-.391-2.7 1.125-1.968z" fill="#fff"/></svg>