<svg width="375" height="110" fill="none" xmlns="http://www.w3.org/2000/svg"><path fill-rule="evenodd" clip-rule="evenodd" d="M372.597 52.348a7.076 7.076 0 01-2.135 2.135c-1.808 1.154-3.558 1.077-5.25-.23-2.308-2.847-2.327-7.943-.058-15.29-4.77 11.27-8.731 16.79-11.885 16.559-2.488.346-4.047-.494-4.678-2.52-1.077 1.57-2.199 2.898-3.572 4.05-2.384 2.037-4.904 2.614-7.558 1.73-1.307-.577-2.403-3.692-3.288-9.346-.424-2.577-.788-4.346-1.096-5.308-.539-1.461-1.25-2.077-2.135-1.846-3.307.693-5.443 2.557-6.404 5.596-.268.846-.557 2.193-.865 4.039-.269 1.846-.538 3.173-.808 3.98a30.54 30.54 0 00-5.134-1.442c.241-1.529.463-2.976.667-4.345-2.003 2.718-4.023 4.628-6.365 5.527-5.577 2.192-9.789.442-12.635-5.25-1.077-2.154-1.673-4.366-1.789-6.635-4.231 8.808-6.711 16.712-7.442 23.712-.999.422-2.404.462-4.212.115a2597.991 2597.991 0 004.501-30.692c-1.654 2.538-3.155 4.692-4.501 6.462-1.307 4.961-3.539 8.692-6.692 11.191-3.308 2.578-6.288 2.616-8.942.116-1.231-1.192-1.942-2.807-2.135-4.846-.23-2.423 1.5-2.962 5.192-1.615-1.577 2.807-1.942 4.615-1.096 5.422.769.693 1.673.577 2.712-.345 1-.846 1.981-2.27 2.942-4.27 2.193-4.5 3.366-9.134 3.519-13.904.209-6.493-2.53-7.384-8.214-3.314-2.486 1.78-4.96 4.619-6.872 6.845-1.143 6.794-3.085 15.815-6.148 28.027 33.165 5.358 50.184 11.2 95.264-3.134.038.59.26 1.19.076 2.247-43.662 18.995-63.093 18.637-96.956 5.618-2.038 4.808-4.25 8.48-6.634 11.019-3.655 3.884-8.116 5.827-13.385 5.827-4.654 0-7.828-1.423-9.52-4.27-1.231-2.114-1.557-4.634-.98-7.557.615-3.039 2.481-5.539 5.596-7.5 4.616-2.847 11.308-3.827 20.077-2.942l3.289.345c1.153-4.268 1.788-9.037 1.903-14.307 0 .115-1.077.692-3.23 1.73-2.539 1.193-4.732 1.712-6.577 1.558-5.962-.423-7.545-7.748-4.5-21.922.928-4.324.119-5.736-2.011-4.605-1.538.817-2.896 1.92-5.293 3.817.059.438.107.892.141 1.364l.116 2.02c0 1.846-.251 4.116-.75 6.807-1.038 4.924-2.904 8.558-5.596 10.904-2.154 1.923-4.289 2.692-6.404 2.308-2.154-.385-3.135-2.077-2.943-5.077.193-2.654 1.026-5.156 2.597-7.442 2.002-2.914 3.64-4.39 7.652-8.403-.153-1.293-.396-2.204-.73-2.732-1.038-1.77-2.73-1.923-5.076-.462-2.539 1.539-4.289 4.231-5.25 8.078-4.808 19.191-6.289 34.692-4.443 46.5.154 1.115-2.038.826-6.577-.866l5.713-48.699c.441-3.762-.903-2.704-2.749-.394-1.129 1.412-2.763 3.855-4.128 6.377-.527 5.165-.915 11.678-1.33 21.024-.077 3.154-.693 6.404-1.847 9.75-2.268 6.73-5.98 10.616-11.134 11.653-5.731 1.308-9.962.058-12.693-3.75-1.346-1.884-2.115-3.903-2.307-6.057l.75-.23c1.461 7.345 5.73 9.422 12.808 6.23 4.191-1.885 7.076-7.827 8.653-17.827.538-3.5.866-7.115.981-10.846.116-3.193.077-4.789-.115-4.789-2.154 3.654-4.846 5.962-8.077 6.924-1.539.73-3.019.345-4.442-1.155-1.346-1.423-2.308-3.5-2.885-6.23-1.098-5.085-.59-9.65 1.524-13.693-2.18 1.737-4.491 2.836-6.717 3.539.5 1.77.212 4.038-.866 6.808-1.115 2.769-2.672 5.191-4.673 7.27-2.192 2.268-4.442 3.518-6.75 3.749-2.653.308-5.057-.866-7.211-3.52-.605-.802-1.097-1.77-1.476-2.906-5.901 6.198-14.693 19.282-12.957 4.855.443-3.678 1.107-8.919 1.994-15.723.98-7.697 2.355-19.03 3.094-25.157a70.77 70.77 0 00-6.578.537c-.979 3.826-2.296 9.682-2.821 12.494-1.273 6.9-2.546 12.975-3.815 18.221-1.775 6.823-3.228 11.566-4.361 14.233-1.43 3.339-3.383 6.107-5.86 8.304-3.636 2.917-8.373 3.464-14.211 1.642-2.674-.854-4.776-2.11-6.306-3.768-1.703-1.876-2.479-4.063-2.328-6.557.339-3.848 2.349-6.982 6.027-9.402 1.845-1.227 3.647-2.066 5.406-2.514l-.166 1.279c-2.966 1.195-4.909 2.795-5.833 4.801-2 4.246-1.664 7.746 1.012 10.496 2.551 2.63 6.054 3.547 10.508 2.748 3.397-.651 6.204-4.257 8.418-10.817 3.951-11.504 5.892-27.887 8.473-40.242-.162.03-.326.06-.49.092-7.576 1.077-11.827 1.615-12.75 1.615-5.23-.153-8.249-2.308-9.057-6.461-.885-4.731.769-7.693 4.961-8.884 3.539-1 6.789-.693 9.75.922-3.653-.346-6.327-.134-8.019.635-1.769.846-2.288 2.25-1.558 4.212.885 2.23 4.25 3.077 10.096 2.538 9.09-.824 34.679-8.634 39.924-1.615 2.231 2.653 2.193 5.269-.115 7.846-1.154 1.27-2.54 2.288-4.154 3.057.038-.538-.212-1.134-.75-1.788-1.039-1.346-2.924-2.288-5.654-2.827a30.556 30.556 0 00-4.345-.671c-.7 5.623-1.951 16.85-2.486 22.891a331.69 331.69 0 01-1.093 10.574c-.62 5.091 3.306 2.22 5.468.128-.219-1.236-.343-2.614-.371-4.133-.077-4.77 1.077-8.654 3.462-11.654 2.808-3.5 6.192-5.25 10.153-5.25 1.924 0 3.424.461 4.5 1.385 1.192 1.076 1.424 2.48.693 4.211-1.461-.654-3.097-.75-4.904-.289-3.654.885-6.385 4.078-8.192 9.578-1.039 3.23-1.347 5.961-.923 8.192.384 1.961 1.249 3.308 2.595 4.039 1.309.692 2.674.692 4.096 0 1.501-.77 2.654-2.116 3.463-4.04 1.499-3.538 1.903-6.826 1.211-9.865-.615-2.615-1.73-4.153-3.347-4.615l4.905-2.308c1.694 1.99 5.986 4.641 13.169-1.265.127-.156.256-.311.389-.465 4.076-4.731 7.635-6.154 10.673-4.27 1.538.962 2.654 2.385 3.346 4.27-3.231-.462-6.308.884-9.231 4.038-3.192 3.385-4.788 7.558-4.788 12.52 0 4.346 1.019 6.25 3.057 5.711 1.423-.384 3.077-1.808 4.962-4.27 1.422-1.807 2.885-6.769 4.385-14.884 3.191 0 5.288.48 6.288 1.442-.201.795-.395 1.823-.583 3.084a254.168 254.168 0 014.027-6.464c2.499-3.859 8.308-9.8 9.262-1.293.731-1.037 1.693-2.019 2.885-2.942 2.346-1.846 4.673-2.5 6.981-1.961 2.128.92 3.558 2.82 4.288 5.697 2.046-1.748 4.593-3.863 6.291-4.725 1.796-.912 3.588-1.056 5.698-.684 2.348.414 2.807 4.596 1.384 12.52-1.576 8.575-1.999 13.268-1.268 14.076.577.616 2.038.693 4.384.23 2.539-.5 4.365-1.403 5.481-2.711 1.116-10.077 1.673-17.654 1.673-22.73 0-.539 1.115-.75 3.346-.635 2.231.115 3.385.461 3.462 1.038.256 1.646.089 4.483-.499 8.509 1.494-1.867 4.034-4.393 5.78-5.964 1.458-1.313 2.969-2.354 4.53-3.122 4.732-2.269 7.77-.288 9.116 5.943a22.9 22.9 0 01.404 5.884c1.731-2.077 3.192-4.077 4.385-6 1.115-7.922 1.672-12.557 1.672-13.904 0-1.923-.557-2.846-1.672-2.769-.77.038-1.942.596-3.52 1.674l-.403-.405a15.488 15.488 0 012.942-3.404c2.269-1.96 4.6-2.538 5.942-.75 1.149 1.532.616 7.424-.346 16.962-.769 7.808-1.481 13.288-2.134 16.442.846-1.923 2.365-4.519 4.558-7.787 1.191-4.655 3.614-8.193 7.268-10.617 3.769-2.461 7.174-2.538 10.212-.23 1.308 1 1.711 2.231 1.211 3.692-.538 1.654-2.154 2.347-4.846 2.078 1.27-2.078 1.289-3.597.058-4.558-.769-.616-1.731-.404-2.885.634-1.076.962-2.134 2.48-3.173 4.557-2.385 4.731-3.461 9.116-3.231 13.154.193 3.462 1.981 5.52 5.366 6.174 3.405.68 7.599-2.289 10.583-5.575.748-5.24 1.195-9.163 1.422-11.892.226-2.718.23-4.222-.109-6.611.913-1.485 5.861-2.194 6.23-1.75.594.715.306 1.646.264 4.107-.006.383-.25 3.366-.751 8.943 2.885-6.693 4.828-10.866 5.828-12.52 3-4.808 8.048-9.256 11.74-9.294 2.692-.04 4.577.5 5.654 1.615.884.884 1.097 1.961.635 3.23-.424 1.193-1.193 1.943-2.308 2.25-1.231.347-2.308-.096-3.231-1.327 0-1.306-.307-2.288-.924-2.942-1.153-1.154-4.739 2.122-7.354 5.776-3.578 5-5.75 9.096-6.519 12.289 1.961-.462 3.615-.75 4.961-.866 1.769.039 3 .77 3.693 2.193.461.922.769 2.537.922 4.845.193 2.578.423 4.347.693 5.308 1.798 5.633 5.869 3.613 8.806-.47-.03-3.359.449-5.997.828-9.31 1.001-9.384 1.019-10.24.993-12.362.056-2.61 6.384-1.686 6.252-.77-.628 4.39-1.251 7.188-1.648 11.575-.385 3.5-.577 5.731-.577 6.692-.038 2.077.327 3.115 1.097 3.115 1.576.308 3.884-3.172 6.923-10.442.538-1.306 1.672-4.154 3.403-8.538 1.192-3.038 2.02-4.981 2.482-5.827 1.652 1.654 3.268 2.75 4.845 3.288-3.154 11.884-4.865 19.154-5.135 21.808-.192 1.924.174 2.981 1.096 3.173.616.115 1.712-.25 3.289-1.096l.347.462zM236.97 72.83c-2.692 2.577-3.615 5.366-2.769 8.365.808 2.923 2.674 4.347 5.596 4.27 2.693-.115 5.424-1.327 8.192-3.635 3.27-2.73 5.846-6.538 7.732-11.423-3.886-1.154-7.751-1.385-11.597-.692-3.269.615-5.653 1.654-7.154 3.115zm-11.431-25.961c-.846 2.461-.942 4.326-.289 5.596.693 1.385 2.001.692 3.923-2.077 1.232-1.808 2.099-4.09 2.597-6.842.349-1.924.75-4.572.658-6.615-3.423 3.286-6.081 7.592-6.889 9.937zM53.782.022c10.612.222 21.056 2.336 28.224 6.415 5.213 2.966 9.415 6.96 12.47 11.66 1.332 1.491 2.826 2.934 3.16 3.52.597 1.049-.158 1.531.804 3.127.335.555.667 1.107.714 1.812.034.498-.072.891-.201 1.58l.068.255c.971.96 2.377 3.282 2.355 5.186-.023 1.755-.719 2.29-1.124 3.51.005.199.009.399.011.6.002.257 0 .51-.002.765.845.364 1.752.911 2.681 1.587-1.607.74-2.718.93-2.978 3.002-2.855 22.731-25.732 32.545-48.361 32.766-19.309.188-36.718-7.092-43.821-21.762-.329-.399-.672-.819-1.088-1.226-1.251-1.22-2.665-1.118-3.84-4.45.967.131 1.788.109 2.505.04 1.078 2.639 2.337 2.616 3.46 3.711.395.386.722.788 1.036 1.167 6.77 13.984 23.362 20.921 41.766 20.742 14.913-.145 29.937-4.665 38.689-14.6.353-.749.369-1.659-.193-2.836a3.797 3.797 0 00-.145-.363c.723.427 1.537.395 2.454-.17.263-.048.49-.167.68-.332 2.374-3.695 3.986-7.991 4.606-12.927.248-1.974 1.307-2.156 2.839-2.862-.885-.644-1.751-1.166-2.556-1.514.002-.243.005-.483.003-.728-.003-.19-.005-.382-.011-.572.386-1.163 1.049-1.672 1.07-3.345.022-1.814-1.319-4.027-2.243-4.943l-.065-.244c.124-.656.223-1.03.192-1.504-.045-.672-.363-1.197-.682-1.727-.915-1.523-.197-1.982-.766-2.98-.317-.56-1.742-1.934-3.012-3.356-2.911-4.479-6.917-8.285-11.884-11.113-6.832-3.888-16.786-5.9-26.9-6.113-16.762-.35-30.075 3.584-38.318 12.71-.174.193-.346.385-.518.581.284-.98.357-2.048.477-3.35-.2.128-.4.26-.599.396C23.449 3.432 36.962-.33 53.781.022zm-48.246 47.9a45.75 45.75 0 01-.336-1.348c-1.196-.623-2.368-1.27-3.231-2.4-1.903-2.495-.601-5.198.492-6.953.04 1.114.475 1.973 1.1 2.712-.319 1.252-.25 2.63.754 3.947.821 1.076 1.938 1.694 3.079 2.287.134.582.282 1.155.44 1.72-.66.075-1.411.12-2.298.034zm-1.417-9.48l-.016-.755c-.049-5.231.83-9.864 2.48-13.928.744-1.834 1.716-3.569 2.846-5.215.57-.828.492-1.338.516-2.256.1-3.455 1.861-4.724 3.59-5.834-.11 1.189-.179 2.19-.394 3.108-.688.859-1.174 2.013-1.224 3.74-.025.875.05 1.36-.492 2.15-1.079 1.57-2.004 3.223-2.713 4.97-1.573 3.874-2.41 8.29-2.364 13.275.01.922.056 1.867.141 2.82-.93-.858-1.652-1.844-1.705-3.264a13.07 13.07 0 00-.665 1.189zm63.12-12.863c-.278-.517-.699-.946-1.291-1.27.177.543.07 1.122-.301 1.616a3.891 3.891 0 001.591-.346zm20.737 30.727c.715.956.478 2.614-.995 2.978.919-.937 1.1-1.69.995-2.978zm-2.08.249c.5.394.737.874.575 1.48-.226.04-.494.067-.98.036-.096-.49-.004-.993.405-1.516zm-1.115.653c-.555 1.01-.104 1.887 1.17 2.328-.654-.48-.98-1.327-1.17-2.328zm2.611-1.214c-1.311-.506-2.009-.258-2.66.05.785-.172 1.637-.197 2.743.34l-.083-.39zm3.952-.814c.978.027 1.544-.525 1.604-1.792-.24 1.009-.862 1.485-1.604 1.792zm-.91-.03c-.618-.233-.9-.857-.765-1.967.146.708.395 1.364.765 1.968zm.707-.502c.25-.15.475-.362.65-.696-.249-.21-.518-.251-.8-.217-.029.42.054.677.15.913zM28.42 32.208c-.284.423-.616.735-.968.933l.001.001a1.998 1.998 0 01-1.063.27 1.98 1.98 0 01-1.033-.343 2.42 2.42 0 01-.386-.325l-.04.203c-.032.16-.118.31-.136.474-.022.208.01.42.015.629.003.086.053.184.013.26-.098.174-.33.256-.401.442-.064.17.12.37.113.55-.005.178-.141.343-.15.521-.01.18.052.368.005.542-.066.235-.123.526-.33.651-.15.09-.4-.01-.499-.152-.083-.121.125-.283.097-.426-.041-.217-.323-.357-.419-.557-.082-.169.03-.4-.01-.585-.034-.164-.11-.303-.081-.468.039-.215.162-.413.18-.633.017-.2-.078-.396-.076-.598 0-.237.016-.48.083-.707.028-.093.166-.127.19-.22.033-.14-.107-.306-.033-.43.076-.133.317-.083.408-.205.055-.075-.102-.193-.057-.276a.202.202 0 01.086-.078 2.167 2.167 0 01-.311-.535c-.182 1.165-1.722 1.401-3.297 1.602-.317-.027-.348-.205-.455-.344-.163-.215-.377-.494-.379-.798 0-.267.2-.553.28-.867 1.58-.606 2.963-1.025 3.729-.064l-.005-.026c-.044-.379.021-.77.217-1.143h.002l.014-.027a.496.496 0 00-.233.002c-.136.06-.324.122-.461.12-.139 0-.148-.135-.328-.123-.178.013-.564.132-.7.193-.135.061.051.152-.063.153-.113.003-.359-.13-.495-.143-.137-.015-.253.05-.304.06-.05.01-.4.091-.504.105-.1.013-.35-.338-.452-.294-.101.044-.418.264-.608.264-.191 0-.263-.252-.406-.258-.143-.008-.138.25-.303.224l-.01-.002-.036.063c-1.397 2.446-4.102 3.252-5.47.5-.166 1.771.582 2.966 1.738 3.48l-.16.292-.09.017c-.89.157-2.265.146-3.16-.05.503.7 1.448 1.726 2.342 2.182-.754 2.47-.357 4.585.777 6.482-.684-2.486-.035-4.28.77-6.064-1.131 6.365-.562 11.855 5.204 15.67 8.546 5.657 2.073 8.436 8.792 13.302 4.4 3.184 11.214 1.138 13.871 6.456-11.324-1.75-21.025-7.128-27.25-14.618 1.447-3.572.283-3.144-.027-6.212-.093.152-1.568 1.505-2.22 3.189l-.032-.051c.394-3.13.162-4.712-2.832-6.455a1.401 1.401 0 00-.4-.18c.631-2.445-.211-3.741-1.404-4.92a29.063 29.063 0 01-.439-4.972c-.01-4.304.618-8 1.694-11.2 3.292-2.122 4.285-2.616 5.23-6.76-1.408.709-2.374 1.319-3.07 1.91 3.674-6.494 9.393-10.43 14.54-13.379-1.913 2.418-1.24 4.85.219 6.058-9.64 6.07-6.405 9.384-7.969 13.89.08.027.148.05.196.047.138-.008-.125-.18.018-.189.144-.01.505.164.66.143.157-.02-.06-.233.114-.243.173-.01.581.185.75.194.17.01-.159-.195-.087-.29.072-.092.251-.04.433-.086.182-.043.326.067.502.04.177-.026.292-.127.46-.141.166-.014.47.005.595-.035.126-.039-.035-.12.082-.176.115-.055.383-.151.562-.134.179.018.237.241.444.233.208-.008.485-.23.69-.275.206-.043.375.083.521.017.144-.066.115-.304.243-.363.129-.058.282.1.404.073.122-.027.118-.156.262-.22a1.18 1.18 0 01.118-.045 1.16 1.16 0 01.38-.349c-1.494-1.193-.09-1.892.24-1.996-.859-.232-1.695-.501-2.625-.496.694-1.218 1.884-2.866 3.985-2.536 2.175.34 3.578 1.708 3.799 3.834.408-.124.479-1.166.278-1.563.77 1.076 1.312 1.378 2.643 1.48 1.538.12 2.465.853 2.544 2.161.043.732.221 1.207.594 1.58-.959.1-1.956.209-2.536-.066a5.825 5.825 0 00-1.436-.489 3.82 3.82 0 00-.178-.29c-.448-.825-.98-1.325-1.572-1.596a2.686 2.686 0 00-.565-.19c-.015-.306-.592-.255-1.33-.069.574-.39 1.096-.8.94-1.073-.14-.24-.64.145-1.165.578.332-.684.595-1.302.36-1.38-.302-.1-.657.509-1.018 1.18-.126-.795-.265-1.52-.487-1.448-.262.086-.208.753-.118 1.486-.753-.718-1.447-1.205-1.619-.794-.072.172.038.393.362.68-.787-.31-1.145-.272-1.104.02.06.434.688.81 1.476 1.116-.869.182-1.464.37-1.396.773.024.138.23.053.934-.158-.412.228-.622.458-.444.663.137.16.433.142.931-.09-.198.343-.376.855-.187.854.367-.005.764-1.16.818-1.192-.322 1.093-.256 1.562.053 1.47.312-.094.54-.514.708-1.072.083.5.2.888.426.898.236.01.206-.626.143-1.338.5.541.988 1.046 1.243.88.222-.143-.301-.76-.834-1.378l.092-.005c1.065-.18 2.057.08 2.818 1.495.387.55.642 1.278.519 2.504-.23 1.106-.651 1.533-1.063 1.987l-.278-.623c-.527.78-1.13.915-1.75.93-1.17.247-1.92-.201-2.37-1.142a2.449 2.449 0 01-.142-.128l-.088.136-.002.003zm3.993-8.67l-.072-.015c-.384-.51-.806-1.018-1.354-1.453h-.003c-.632-.502-1.42-.893-2.474-1.058-.072-.013-.143-.021-.212-.03-.164-.412-.2-.86-.09-1.334.46-1.99 2.754-2.712 4.07-4.255-.991 1.016-1.767 3.77.136 8.145zm17.58 1.557c1.192-1.178 2.956-1.94 5.12-2.39.084.209-.31.323-.363.73.576.565 1.222.457 1.705-.32-.051.55-.456.99-1.297 1.298.273.102.59.055.934-.092-.497.436-1.09.635-1.73.82.069.026.273.053.409.046a3.377 3.377 0 01-.455.107 2.061 2.061 0 01-.249.743c-.273-.152-.337-.423-.387-.7-1.114-.02-2.034-.48-2.636-.042.653.695 1.587 1.367 3.304.871a.32.32 0 01-.023.27c-2.306.68-4.313-.517-5.51-1.444.35.078 1.08.171 1.177.103zm7.138 6.65c-.56.45-.472.908.118 1.154-.208-.396-.186-.829-.118-1.155zm-8.174-9.41c2.4-1.193 3.972-1.66 6.48-.35.483.252.619-.879.184-1.041-3.285-1.228-4.631-.42-6.664 1.391zm-10.8 3.29c-1.269-.291-2.788-.603-2.594-1.716.086-.484.389-.758.812-.895a2.719 2.719 0 01-.26-.351c-.67.609-1.468.977-2.52.845-1.18-.633-1.667-1.902-1.365-3.905.238.008.478.056.714.024.278-.038.53-.207.811-.229.113-.01.199.111.307.137.277.066.576.038.845.134.168.06.272.244.43.324-.011-.39.046-.732.161-1.04.257-.692.776-1.16 1.446-1.535.817-.55 1.497-.818 2.078-.897a2.7 2.7 0 01.346-.026c-.432-.712-.486-1.826-.214-3.225.272.086.534.305.816.258.257-.044.34-.513.6-.5.309.017.474.402.735.57.158.1.341.156.512.235.342 1.183.222 2.57-.247 3.196a2.306 2.306 0 01.767.602 3.017 3.017 0 01.35-1.657c.287-.527.888-.99 1.392-1.316.382-.249.78.033 1.141.173.285.11.353.475.526.726.264.379.655.706.777 1.153.106.386-.058.805-.016 1.203.03.3.281.577.23.874-.068.391-.395.69-.566 1.05-.111.238-.054.594-.273.736-.178.113-.418-.085-.614-.166-.657-.269-1.403-.417-1.94-.88a2.927 2.927 0 01-.319-.321 2.722 2.722 0 01.122 1.059c.905.116 1.814.619 3.09.73.69-.75 1.309-1.573 1.839-2.548a3.445 3.445 0 01-.598-.089c-.032-.102-.075-.201-.117-.3l-.001-.002a.945.945 0 01-.074-.201 2.057 2.057 0 01.022-.399c.033-.284.067-.569-.025-.899-.104-.38-.31-.656-.526-.918l.042-.024c.323-.184.46-.377.48-.577.8-.26 1.725-.246 2.484.076.3-.39.659-.74 1.12-1.04a11.49 11.49 0 00-.85 1.172c.28.157.53.36.733.617.228.288.5.366.888.533-.346.116-.523.412-.706.727-.442.76-1.292 1.195-2.19 1.305-.341 1-.818 1.83-1.379 2.557.373-.04.777-.117 1.214-.243-1.027 1.043-2.094 2.019-3.163 2.238-.37.32-.75.627-1.129.938a4.71 4.71 0 00-.369-.77l.311-.265a2.816 2.816 0 01-1.142-.79c-.1.174-.218.352-.369.533.726.58 1.217 1.59 1.38 3.025.13 1.145-1.06 1.839-1.659 3.924-1.293-1.326-1.314-2.52-1.737-3.645-.243-.645-.437-1.256-.527-1.827l-.176.032a3.551 3.551 0 01-1.316-.038 4.628 4.628 0 01-.935-.193l.002.008c.075.35 1.604.264 1.643.783.016.226-.362.38-1.24.415.14.232.103.381-.01.515zm-.99-2.73c.462-.012.978.048 1.48.126.159.14.299.3.321.484.636.107 1.382.028 2.402-.516.957-.65 1.199-1.214 1.468-1.782-.232-.005-.465-.014-.698-.02.534-.804.426-1.428.2-2.02-.224-1.205-.938-1.74-2.005-1.8-.677-.367-1.582-.411-3.056.586-.804.447-1.34 1.023-1.308 2.033.075.005.139.028.183.09.132.18-.023.461-.064.697.025.1.055.204.09.31.138.067.243-.428.435-.517.101-.046.216.07.307.139.162.123.292.285.438.427-.25.374-.508.734-.788 1.058.146.269.34.508.595.706zm2.773-.833c-1 .093-2.083-.805-1.699-2.02.27 1.07.73 1.529 1.698 2.02zm.48-.282c.939-.718 1.067-1.328 1.132-1.928-.22.638-.578 1.26-1.449 1.816l.318.112zm.255-1.32c-.502.187-.95.145-1.316-.236.073-.18.173-.384.406-.72.394.148.714.435.91.957zm.02-1.086c-.48-.84-1.306-.903-2.182-.183.631-.258 1.382-.118 2.183.183zm3.852-5.405c.027-.114.056-.214.087-.29.167-.415.346.152.475.008.128-.145.03-.51.117-.678.089-.167.284-.113.376-.252.092-.137.072-.36.136-.526.064-.166.112-.377.247-.463.133-.09.332.131.434.02.104-.113-.002-.381-.01-.482-.01-.102-.09-.01-.041-.124.047-.112.186-.393.315-.523s.354-.12.429-.233c.073-.114-.082-.168-.067-.322.014-.155.063-.468.154-.58.093-.114.17.17.264.068.093-.101.091-.351.162-.53.07-.18.165-.41.26-.543.097-.134.244-.137.3-.241.057-.105-.117-.201.009-.333.126-.13.476-.179.667-.365.19-.187.264-.615.443-.719.177-.104.194.172.219.328.025.157-.038.265-.083.546-.045.28-.104.882-.185 1.144-.079.262-.258.272-.28.393-.022.12.198-.008.176.18-.023.187-.246.598-.301.828-.057.23.024.37-.033.539-.059.17-.238.255-.3.446-.063.192.046.47-.067.67-.113.2-.455.274-.557.428-.102.154.066.251.002.408-.065.155-.284.281-.372.48-.088.198-.025.506-.142.68-.119.173-.343.158-.502.268-.155.11-.364.215-.432.387-.07.17.49.284.066.525-.036.02-.076.04-.122.062l-.066-.132v-.002c-.144-.297-.288-.592-.693-.75a2.85 2.85 0 01-.183-.08c-.284-.127-.578-.26-.902-.241zm.02 5.085c-.086.012-.165-.053-.18-.146-.012-.091.035-.251.12-.264.085-.01.176.128.189.221.012.092-.044.178-.13.189zm-.514-.278c-.093.013-.183-.088-.202-.227-.02-.139.039-.262.13-.275.093-.012.185.087.204.228.02.137-.039.26-.131.274zm.658-.778c-.101.014-.2-.078-.218-.208-.02-.13.049-.246.152-.261.1-.014.198.079.216.208.02.13-.049.247-.15.26zm-.727-.099c.103-.015.172-.131.154-.262-.02-.13-.118-.223-.222-.21-.104.016-.173.134-.154.264.018.13.118.224.222.208zm.536-.763c-.103.016-.2-.07-.217-.19-.016-.12.052-.23.154-.244.102-.015.197.07.215.19.017.12-.051.23-.152.244zm-.623-.047c.065-.008.144-.129.124-.268-.02-.138-.131-.243-.197-.234-.063.01-.185.151-.165.29.02.137.174.222.238.212zm-.33 1.107c.074-.01.155-.158.142-.25-.012-.092-.105-.18-.179-.17-.075.011-.166.115-.154.208.014.093.117.223.192.212zm5.289 29.312c-.46.08-.912.15-1.377.193-6.002.555-9.244-3.108-10.728-9.09.798 7.422 4.766 10.36 11.324 9.379 13.799-2.062 12.795 9.092 22.719 8.963-5.1-1.057-8.614-5.109-10.27-9.863 3.657.157 2.564-4.082 3.979-5.858-1.43-1.744-2.198-2.593-2.814-3.993-1.418-3.226-.194-7.493 1.377-10.955l.305-.016.19.163.176-.055c1.82.241 3.307-.427 3.648-.27.275.123.408.081.41-.092-.5-1.572-1.572-2.913-3.019-3.03.178-.293.361-.578.552-.853.567.164 1.131.338 1.696.474.566.134 1.327-.548.175-.9-.439-.134-.856-.264-1.26-.382 2.045-2.502 5.04-4.167 10.721-5.284.723 1.501 1.599 3.243 2.973 4.398.338 2.214.771 4.34 2.268 6.264-.864 3.334-1.418 6.717-2.409 10-.05.166-.116.333-.194.496a.25.25 0 01.01-.072c-1.352 2.562-2.954 3.706-4.439 4.626-1.537.952-3.08 2.241-4.876 2.188-1.003-.03-1.738-.179-2.52-.587.707.737 2.078 2.685 5.69 1.079 1.816-.808 1.834 5.242 2.5 7.118.917-1.146 3.029-2.438 7.522-2.587-.55.213-.876.57-1.009.983-.55 1.694-1.898.946-2.516 1.484-.617.539-.65 1.675-1.054 2.104-.403.429-1.736.548-2.104.917-.367.368.035 1.293-.294 1.76-.327.468-1.307.407-1.673.912-.365.507-.306 1.625-.684 2.104-.336.426-1.057.7-2.086.855-1.491-1.13-3.108-2.55-6.062-3.193 3.554 1.633 4.897 4.247 7.375 5.184 4.915 1.856 6.498-1.524 10.527-1.76-.447-.495-.609-.997-.637-1.49-.602-1.118-.502-2.177.582-3.152.459-.597 1.026-1.094 2.172-1.05l-.412-.724c.744-.077 1.466-.184 2.72.383a7.9 7.9 0 01.538.35c-.728-1.48.007-2.742 1.713-2.946.754-.627 1.698-.743 2.396-.269-.773-1.097-2.032-1.86-3.869-2.117-.427-.06-1.765-.247-2.82-.383-2.737-.396-6.13-.942-7.14-1.599-1.538-.997-2.493-3.431-1.896-6.1.11-.496.585-1.075 1.261-1.74.254-.071.51-.144.765-.217-.754 1.436.333 3.347 2.343 1.95.565-.393 1.554.027.844.93-1.128 1.428-.724 2.576.164 3.23-.246-.765-.389-1.768.542-2.881 1.123-1.34-.405-2.76-1.6-2.091-1.364.763-1.508-.397-.967-.788 2.088-1.514 3.665-.361 5.453-6.405 1.22-1.225 2.716-2.836 2.169-5.659-.584-3.02 1.168-3.944-1.651-7.992-1.356-1.944.198-3.935-2.395-6.3-4.48-4.088-6.957-7.58-9.871-6.246-2.273-1.622-4.498-1.881-8.84.228-5.492-2.721-12.05-3.6-18.002-3.242-6.745.406-13.444 1.282-19.454 4.25-.63 3.211 2.392 4.014 5.552 3.113 2.31-.658 7.185-5.903 14.127-3.142l.02-.029a.91.91 0 01.133-.15c-.005-.141.05-.3.233-.491h.001c.142-.147.303-.213.478-.284h-.002c.086-.035.18-.073.201-.093.015-.02.054-.107.092-.19v-.003c.106-.235.206-.46.463-.61.447-.262.74-.107.942.237.095.161.118.32.136.455h.002l.007.049c.032.207.003.33-.039.508v.002c-.017.071-.037.16-.045.21v.002l-.042.296c-.042.315-.093.702-.16.923v.002a1.26 1.26 0 01-.076.196c.004.053.005.111.002.178.402.254.811.535 1.225.846 5.905-1.313 11.403 6.173 7.971 12.375.88-5.75-2.038-9.603-5.765-8.967 2.352 1.842 3.234 3.888 3.84 6.473.6 2.554-.492 2.983.005 5.695.325 1.775 1.582 3.565 2.603 4.622.77.798.612 1.357.13 1.72a8.831 8.831 0 01-1.635.953c-.045.777.238 1.315.454 1.681.328.555-.175 1.3-1.259 1.442-.663.044-1.271.02-1.705-.207.118 1.11 2.576.08 2.596 2.108-.935.61-1.205.863-1.016 2.273.307 2.293-.818 2.993-1.952 3.087-4.22.35-6.828-1.202-8.841 3.541-4.794-1.444-6.909-5.471-6.358-10.279 1.707-.343 3.426-1.651 4.085-2.865-2.495 1.769-5.16 1.347-6.742-.73.279 6.578 2.508 13.89 10.04 14.308.486.028.959.016 1.443.011h-.001zM22.582 24.904c-.238-3.088 1.791-5.89 5.614-8.47-2.775 2.435-4.614 5.273-5.614 8.47zm5.104-13.045c1.425 2.37 4.217 2.029 7.989-.474-3.691 1.726-6.464 1.997-7.988.474zm10.766-1.812c2.928-.811 5.621-.885 8.018-.016l-.003.019-.005.05a.96.96 0 00-.194.153c-.046.047-.09.1-.133.16-2.56-.575-5.121-.613-7.683-.366zm1.83 16.408c-2.708 3.584-.792 8.232 3.567 7.115-2.191.151-4.142-2.728-3.107-5.608-.128-.342-.22-.676-.314-1.003-.047-.171-.095-.34-.145-.504zm32.877-.883c.279-.516.7-.944 1.29-1.27-.177.543-.18 1.104.19 1.596a3.386 3.386 0 01-1.48-.326zm3.077-1.232c.397.185.786.526 1.026.979a3.178 3.178 0 01-1.392.58c.418-.43.575-.937.366-1.559zm-3.634 1.668c.654-1.578 1.55-2.624 3.003-2.733-.025.18.473.056.612-.098a.636.636 0 01-.061.28c.116-.012.358-.131.456-.23.006.04-.101.286-.102.343.177-.072.426-.297.532-.391-.008.09-.131.32-.141.41.23-.069.45-.274.536-.342-.008.058-.128.255-.135.313.207-.024.45-.229.585-.319-.047.106-.206.353-.255.46.273-.037.483-.16.595-.209a1.946 1.946 0 01-.267.326c.144.034.288-.018.434-.048l-.135.227c.2.001.392-.034.557-.165a1.175 1.175 0 01-.226.401c.24.025.43-.045.599-.152-.085.193-.2.35-.339.478a.901.901 0 00.565-.129 1.466 1.466 0 01-.404.451c.16.025.303-.01.449-.051-.353.341-.72.66-1.231.76.028.134.076.29.082.422-.103-.015-.243-.048-.346-.022l.032.126c-.228-.023-.413-.029-.522 0l.092.211c-.205-.066-.433-.093-.584-.066a.348.348 0 01-.113.169c-.123-.039-.181-.063-.309-.047-1.773.202-3.212-.437-3.548-.285-.275.124-.408.082-.41-.09zm2.866-1.318c.276.216.123.759-.253.66.014-.084.056-.3.07-.384-.077.067-.142.161-.25.248-.197-.098-.03-.886.433-.524zm-2.214-2.954c-1.153.352-.445 1.035.121.898 1.436-.345 2.867-.814 4.328-.897.554-.032 1.289.339 1.783.541-.314-.49-1.364-1.212-2.098-1.239-1.386-.051-2.618.235-4.134.697zm-9.834 3.79c.179-.37.36-.728.538-1.07.067-.042.135-.078.203-.11-.207.623-.163 1.15.255 1.579a2.37 2.37 0 01-.996-.398zm1.51-.83c-.275.219-.235.78.14.68-.013-.084-.055-.299-.07-.384.08.067.143.161.251.249.197-.099.14-.908-.32-.546zm1.877 11.222c1.104.208 2.26.456 3.421.46 1.227.004 1.973-.24 3.126-.317-.749.358-2.411.967-3.134.959-1.03-.01-2.455-.589-3.413-1.102zm-1.464-.36c.907.077 2.112-.407 3.08-.66.373-.097 1.207.437 1.676.466.47.03 1.09-.427 1.472-.327 1.05.275 1.954.87 3.209.706-1.242 1.09-2.135 2.91-4.635 2.908-2.535-.002-3.674-2.071-4.802-3.094zm5.367-2.73c.46-.158.588-.422.806-.518.37-.16.613.07.644.311-.09.1-.383.013-.645.032-.264.018-.358.104-.805.175zm-1.232-.042c-.437-.166-.536-.45-.743-.548-.35-.166-.609.067-.645.298.083.1.368.025.619.055.254.026.341.112.769.195zm-38.879-1.009c-.938-.12-1.3-.845-.976-1.903.002.666.407 1.293.976 1.903zm.974-.423c-.02-.521-.222-.91-.703-1.099a3.323 3.323 0 00-.497.633c.276.301.656.483 1.2.466zm1.096-.718c-.3 1.114-.803 1.455-1.32 1.737.493-.436.922-.988 1.102-1.982l.218.245zm.077-.539c-.288-.938-1.5-1.583-2.456-.784 1.067-.154 1.652.092 2.456.784zm-4.84 1.768c-.862 1.282-2.142 1.22-2.865-.054-1.043-.544-1.355-1.772-.254-2.637.195-.68 2.107-1.234 2.764-.235 1.082.775 1.126 1.766.355 2.926zm-.987-1.573a1.327 1.327 0 00-.698-.257.76.76 0 00.085.64 1.44 1.44 0 00.613-.384zm.578.359c.018.516-.347.907-1.19 1.146a4.743 4.743 0 001.19-1.146zm-.256-.666c-.275-.713-.845-.956-1.776-.615.8-.132 1.33.174 1.776.615zm1.944-3.046c-.12-1.311 1.023-.694 1.002-.373-.067 1.038-.955.898-1.002.373zM41.9 67.31c3.193 3.97 4.417 3.636 7.477 4.148.221.24.502.415.843.477 1.499.924 2.73.472 3.75-1.063.152-.229.268-.456.354-.675.994 1.737 2.179 1.903 3.562 1.52 2.195-.398 2.967-1.232 3.251-2.153.902-.988 1.074-2.095.215-3.37-.315-.729-.767-1.382-1.95-1.633l.608-.632c-.74-.27-1.45-.565-2.877-.306-1.518.445-2.26 1.1-2.73 1.827-.671.81-.956 1.547-.976 2.232a3.11 3.11 0 00-.987-.276c-1.196-.993-2.854-.746-3.347 1.037-.342.277-.458 1.004-.32 1.727-2.123-2.116-3.083-2.81-6.873-2.86zm14.765-1.605c-.977.795-1.16 2.55.251 3.301-.698-1.193-.688-2.01-.25-3.3zm2.062.79c-.613.274-.977.703-.968 1.366.221.097.488.193.992.288.224-.476.26-1.015-.024-1.654zm.973.954c.308 1.176-.38 1.955-1.796 2.079.792-.323 1.343-1.106 1.796-2.079zm-2.358-1.912c1.47-.18 2.12.254 2.705.736-.758-.38-1.621-.623-2.89-.358.062-.125.124-.251.185-.378zm-6.003 5.488c-1.012.028-1.599-.543-1.66-1.854.25 1.044.892 1.536 1.66 1.854zm.942-.03c.638-.242.93-.887.79-2.036a6.288 6.288 0 01-.79 2.035zm-.733-.52a1.749 1.749 0 01-.67-.721c.255-.216.535-.26.825-.223.03.434-.055.699-.155.943zm41.218-20.217c4.504-3.622 2.796-3.393 4.024-6.631-.132.08-1.617.51-2.88 1.428.346-1.457 1.868-3.543 5.634-5.134-2.538-1.525-4.773-1.702-5.73-.082-.936 1.582-.086 3.445.014 5.278-1.39 1.043-2.466 2.693-1.062 5.14zm1.686-12.527c1.263-.445 2.58-.996 3.413-2.712.93-1.914-.297-3.535-1.26-4.553-.707 2.36-3.073 3.537-2.153 7.265zm-2.191 7.114c.072-3.522-1.297-3.53-3.662-5.264.466 2.901.204 3.592 3.662 5.264zm.842-23.856c1.443 2.091.398 2.738.7 4.562.25 1.517 1.005 1.957 1.343 4.076.267-.826 1.037-1.634.98-2.498-.063-.938-.89-1.673-1.141-2.578-.167-.6.044-1.342-.263-1.883-.41-.721-.987-1.136-1.619-1.679zM20.317 34.421c.06-.05.121-.014.14.08.016.095-.018.211-.076.261-.06.049-.12.013-.139-.082-.016-.093.017-.21.075-.26zm-2.378.937c-.535-.182-1.104-.657-1.612-.728-1.177-.16-1.665.346-3.312.158.557.372 1.018.977 1.675 1.113.711.147 1.43-.317 2.156-.317.387 0 .787.216 1.17.24.104.397.3.778.564 1.082.208.239.67.12.927.282-.375 4.662 1.816 9.128 7.254 11.067-3.678-2.627-6.056-5.768-6.217-9.999.158.01.3-.003.424-.089.296-.202.593.405.95.361.309-.039.397-.49.533-.771.177-.36.412-.736.393-1.136-.017-.338-.12-.717-.17-1.053-.052-.333-.009-.896-.159-1.197-.283-.565-.792-.604-1.32-.948-.331-.218-.747-.302-1.141-.32-.575-.027-1.253-.158-1.712.186-.286.215.105.72.037 1.07-.068.358-.457.64-.44.998zm2.865-.75c.084-.033.197.058.254.203.059.143.036.287-.047.32-.083.033-.197-.057-.254-.202-.057-.145-.036-.288.047-.32zm.249.791c.051-.02.17.035.22.158.049.124.008.27-.043.292-.051.02-.186-.057-.234-.18-.049-.126.005-.25.057-.27zm.442.402c.074-.027.168.04.211.15.045.111.021.225-.052.253-.073.028-.167-.039-.211-.149-.043-.11-.02-.224.052-.254zm-.008-.5c-.076.03-.11.123-.076.21.035.085.123.13.2.099.075-.03.11-.122.075-.208-.034-.086-.122-.13-.199-.102zm-.23-.598c-.07.027-.089.147-.042.267.047.12.143.195.214.167.07-.028.087-.147.04-.267-.047-.12-.143-.195-.212-.167zm-.75.463c.112-.043.231 0 .27.094.037.096-.022.21-.132.253-.11.044-.23 0-.268-.094-.037-.096.021-.209.13-.253zm-3.253 1.157c-2.169 6.193-.547 10.246 2.317 12.968 2.323 2.208 4.332 3.096 6.356 5.137-1.31-2.369-3.367-3.58-5.458-5.786-2.746-2.896-4.72-6.748-3.103-12.313l-.112-.006zm8.086 15.054c4.183 1.21 4.217 7.055 7.145 10.646-3.978-2.901-3.146-8.252-7.145-10.646zm9.96 4.892c2.06 8.608 9.43 11.19 18.121 7.504-7.774 2.373-15.049.692-18.12-7.504zm5.471 3.268c2.886 3.73 8.517 4.277 12.578 2.557-4.255.868-9.008-.021-12.578-2.557zm18.353-7.013c4.146 4.19 3.591 11.686 10.074 11.068-7.093-.4-3.915-6.879-10.074-11.068zm.076 8.299c4.53 1.822 3.006 5.19 5.913 6.476 2.72 1.204 5.801-1.836 9.214-.553-3.62-1.044-6.635 2.484-9.449 1.238-3.012-1.333-2.03-4.998-5.678-7.161zm6.712 4.779c4.101 1.276 3.229-1.042 9.663-.335-6.215-1.9-5.37 1.225-9.663.335zm-31.28-27.209c1.025 9.583 4.967 16.97 15.158 15.367 4.174-.656 7.363-.645 8.967 3.003-2.636-2.724-5.483-2.221-8.696-1.837-11.073 1.325-15.221-6.68-15.43-16.532zM74.214 13.23c.877.215.293 1.475-.09 1.855-.293.292-.752.337-1.024.103-.432-.373.25-2.17 1.114-1.958zm-7.888 2.659c-.065-.356.2-.852.597-.965.495-.14.815-.523 1.322-.093.273.233.257.658-.036.95-.394.39-1.708 1.065-1.883.108zm3.379-2.542c.327-.23.753-.19.951.086.35.484.66 1.047.045 1.5-.32.237-.752.212-.96-.057-.407-.52-.647-1.105-.037-1.53zm2.591-1.929c.4-.072.737.17.754.537.025.531-.662.938-1.063.99-.4.052-.845-.313-.842-.682.005-.727.6-.748 1.151-.845zm-7.213 4.56c-.102.271-.493.568-.822.532-.37-.041-.767-.091-.94-.597-.09-.274.18-.63.502-.709.434-.108 1.534.04 1.26.773zm-3.688-1.542c.833-.23 1.504 1.168.334 1.414-.76.158-1.386-1.123-.334-1.414zm13.68-3.196c-.43-.133-.607-.95-.056-1.172.218-.089.614.014.694.272.108.348-.03 1.09-.639.9zm2.921 1.663c-.07.188-.342.395-.571.37-.26-.028-.536-.062-.655-.416-.064-.19.125-.439.35-.493.302-.075 1.07.028.876.539zm.428-2.513c.898-.278 1.582 1.035.363 1.35-.564.118-1.144-1.134-.363-1.35zm-9.94 1.372c-.085.22-.403.464-.67.434-.303-.033-.628-.075-.767-.487-.075-.223.437-.625.7-.69.353-.087.96.146.736.743zm-2.91 1.057c.77.372.306 1.842-.722 1.262-.668-.378-.25-1.732.722-1.262z" fill="#57C2C9"/><path d="M.912 101.296c0-1.205.31-2.33.928-3.376a6.91 6.91 0 012.464-2.496 6.402 6.402 0 013.296-.912 7.14 7.14 0 012.272.368c.736.245 1.339.624 1.808 1.136l-.944 1.104c-.8-.779-1.835-1.168-3.104-1.168-1.408 0-2.608.528-3.6 1.584s-1.488 2.283-1.488 3.68c0 1.024.304 1.867.912 2.528.619.661 1.461.992 2.528.992 1.333 0 2.587-.485 3.76-1.456l.688 1.248c-.533.48-1.221.88-2.064 1.2-.843.309-1.664.464-2.464.464-1.525 0-2.741-.453-3.648-1.36-.896-.907-1.344-2.085-1.344-3.536zm10.85 1.456c0-1.376.448-2.56 1.344-3.552.896-.992 2.01-1.488 3.344-1.488 1.013 0 1.781.272 2.304.816.533.544.8 1.27.8 2.176 0 .352-.086.837-.256 1.456h-5.904a3.85 3.85 0 00-.064.56c0 .587.202 1.088.608 1.504.416.416.986.624 1.712.624.864 0 1.722-.315 2.576-.944l.432 1.216c-.342.277-.8.528-1.376.752a4.911 4.911 0 01-1.712.32c-1.163 0-2.091-.32-2.784-.96-.683-.64-1.024-1.467-1.024-2.48zm1.872-1.712h4.32c.032-.139.048-.293.048-.464 0-.533-.144-.944-.432-1.232-.288-.288-.667-.432-1.136-.432a2.79 2.79 0 00-1.68.56c-.502.373-.875.896-1.12 1.568zm8.59 4.96l1.312-6.768H20.72l.256-1.328h7.184l-.256 1.328h-2.816L23.776 106h-1.552zm5.892 0l1.568-8.096h1.552l-.576 2.928h1.584c.79 0 1.413.181 1.872.544.459.352.688.896.688 1.632 0 .885-.31 1.605-.928 2.16-.618.555-1.445.832-2.48.832h-3.28zm1.76-1.12h1.392c.555 0 1.014-.165 1.376-.496.373-.331.56-.757.56-1.28 0-.768-.448-1.152-1.344-1.152h-1.408l-.576 2.928zM39.913 106l1.568-8.096h1.552l-.64 3.264h1.136l2.752-3.264h1.856l-3.472 4.032v.032L46.889 106h-1.76l-1.808-3.504h-1.184L41.449 106h-1.536zm7.417.08l.256-1.392c1.258-.203 2.144-1.632 2.656-4.288l.48-2.496h5.423L54.578 106h-1.551l1.327-6.816h-2.4l-.224 1.216c-.383 1.888-.922 3.296-1.615 4.224-.683.928-1.611 1.413-2.784 1.456zm9.645-.08l1.569-8.096h1.472l-.944 4.752-.24 1.088h.032c.33-.427.64-.8.928-1.12l4.431-4.72h1.505L64.144 106h-1.457l.913-4.752.255-1.072h-.031c-.331.416-.64.784-.928 1.104L58.463 106h-1.489zm9.579 0l1.568-8.096h1.552l-.64 3.296h4.112l.624-3.296h1.568L73.754 106h-1.552l.672-3.472h-4.096L68.09 106h-1.536zm9.609 0l1.568-8.096h1.472l-.944 4.752-.24 1.088h.032c.33-.427.64-.8.928-1.12l4.432-4.72h1.504L83.331 106h-1.456l.912-4.752.256-1.072h-.032c-.33.416-.64.784-.928 1.104L77.651 106h-1.488zm9.578 0l1.568-8.096h1.552l-.64 3.264h1.136l2.752-3.264h1.856l-3.472 4.032v.032L92.717 106h-1.76l-1.808-3.504h-1.184L87.277 106h-1.536zm11.417.08l.256-1.392c1.258-.203 2.144-1.632 2.656-4.288l.48-2.496h5.424L104.406 106h-1.552l1.328-6.816h-2.4l-.224 1.216c-.384 1.888-.923 3.296-1.616 4.224-.683.928-1.611 1.413-2.784 1.456zm9.374-1.968c0-.491.117-.923.352-1.296.234-.384.533-.688.896-.912a4.677 4.677 0 011.28-.56c.49-.149.965-.251 1.424-.304.458-.053.928-.08 1.408-.08h.416c.042-.235.064-.464.064-.688 0-.832-.491-1.248-1.472-1.248-.811 0-1.616.256-2.416.768l-.416-1.232c.33-.224.778-.421 1.344-.592a5.999 5.999 0 011.712-.256c.832 0 1.509.192 2.032.576.522.384.784.981.784 1.792 0 .224-.027.512-.08.864l-.976 5.056h-1.456l.16-.816.16-.64h-.032c-.224.395-.587.768-1.088 1.12a2.908 2.908 0 01-1.712.528c-.672 0-1.238-.187-1.696-.56-.459-.373-.688-.88-.688-1.52zm1.536-.224c0 .309.106.565.32.768.224.203.554.304.992.304.608 0 1.168-.267 1.68-.8.512-.544.842-1.141.992-1.792l.048-.288h-.4c-2.422 0-3.632.603-3.632 1.808zm6.55 1.152l.784-1.008c.214.235.502.448.864.64.374.181.768.272 1.184.272a2.21 2.21 0 001.328-.416c.384-.288.576-.683.576-1.184 0-.64-.464-.96-1.392-.96h-1.024l.208-1.12h.896c.48 0 .896-.117 1.248-.352.352-.245.528-.597.528-1.056 0-.619-.437-.928-1.312-.928-.65 0-1.322.235-2.016.704l-.48-1.04c.8-.587 1.744-.88 2.832-.88.779 0 1.398.176 1.856.528.459.341.688.81.688 1.408 0 .501-.138.939-.416 1.312-.266.363-.64.635-1.12.816v.032c.726.288 1.088.832 1.088 1.632 0 .832-.33 1.499-.992 2-.661.501-1.45.752-2.368.752a4.37 4.37 0 01-1.664-.32c-.522-.224-.954-.501-1.296-.832zm7.941-2.288c0-1.376.448-2.56 1.344-3.552.896-.992 2.01-1.488 3.344-1.488 1.013 0 1.781.272 2.304.816.533.544.8 1.27.8 2.176 0 .352-.086.837-.256 1.456h-5.904a3.794 3.794 0 00-.064.56c0 .587.202 1.088.608 1.504.416.416.986.624 1.712.624.864 0 1.722-.315 2.576-.944l.432 1.216c-.342.277-.8.528-1.376.752a4.913 4.913 0 01-1.712.32c-1.163 0-2.091-.32-2.784-.96-.683-.64-1.024-1.467-1.024-2.48zm1.872-1.712h4.32c.032-.139.048-.293.048-.464 0-.533-.144-.944-.432-1.232-.288-.288-.667-.432-1.136-.432a2.79 2.79 0 00-1.68.56c-.502.373-.875.896-1.12 1.568zm8.427 4.496l-.72 3.664h-1.537l2.193-11.296h1.424l-.112.688-.176.64h.032a3.41 3.41 0 011.184-1.088 3.161 3.161 0 011.632-.432c.949 0 1.69.299 2.224.896.544.597.816 1.408.816 2.432 0 1.483-.443 2.715-1.328 3.696-.886.971-1.91 1.456-3.072 1.456a3.091 3.091 0 01-1.488-.352 2.213 2.213 0 01-.944-1.056h-.032a5.47 5.47 0 01-.096.752zm.576-2.768c0 .608.154 1.109.464 1.504.309.384.757.576 1.344.576.757 0 1.445-.341 2.064-1.024.618-.683.928-1.573.928-2.672 0-.651-.166-1.157-.496-1.52-.32-.373-.768-.56-1.344-.56-.811 0-1.51.379-2.096 1.136a4.079 4.079 0 00-.864 2.56zm7.401 3.232l1.568-8.096h1.552l-.64 3.296h4.112l.624-3.296h1.568L148.035 106h-1.552l.672-3.472h-4.096l-.688 3.472h-1.536zm9.801-3.376c0-1.355.507-2.512 1.52-3.472 1.014-.96 2.171-1.44 3.472-1.44 1.142 0 2.064.33 2.768.992.715.65 1.072 1.499 1.072 2.544 0 1.376-.512 2.544-1.536 3.504-1.013.96-2.165 1.44-3.456 1.44-1.141 0-2.069-.325-2.784-.976-.704-.661-1.056-1.525-1.056-2.592zm1.584-.064c0 .683.208 1.237.624 1.664.427.416.976.624 1.648.624.864 0 1.643-.341 2.336-1.024a3.346 3.346 0 001.056-2.496c0-.672-.213-1.216-.64-1.632-.426-.427-.97-.64-1.632-.64-.874 0-1.658.341-2.352 1.024a3.353 3.353 0 00-1.04 2.48zm13.823-5.584c-.619 0-1.131-.155-1.536-.464-.405-.32-.608-.725-.608-1.216 0-.17.032-.373.096-.608h1.232a1.916 1.916 0 00-.048.432c0 .267.085.475.256.624.171.15.395.224.672.224a1.4 1.4 0 00.896-.304c.256-.203.416-.528.48-.976h1.232c-.117.8-.427 1.381-.928 1.744-.491.363-1.072.544-1.744.544zM160.491 106l1.568-8.096h1.472l-.944 4.752-.24 1.088h.032a20 20 0 01.928-1.12l4.432-4.72h1.504L167.659 106h-1.456l.912-4.752.256-1.072h-.032c-.331.416-.64.784-.928 1.104l-4.432 4.72h-1.488zm15.658-3.488l.224-1.12h3.888v-.144c0-.736-.229-1.296-.688-1.68-.458-.395-1.024-.592-1.696-.592-.928 0-1.738.315-2.432.944l-.64-1.056c.384-.352.87-.63 1.456-.832a5.125 5.125 0 011.76-.32c1.131 0 2.032.33 2.704.992.672.661 1.008 1.515 1.008 2.56 0 1.312-.496 2.464-1.488 3.456-.992.981-2.202 1.472-3.632 1.472a4.9 4.9 0 01-1.696-.304c-.554-.213-.997-.523-1.328-.928l.688-1.056c.256.309.598.555 1.024.736.438.181.891.272 1.36.272.768 0 1.456-.224 2.064-.672a3.618 3.618 0 001.312-1.728h-3.888zm6.608 3.488l1.568-8.096h7.072L189.829 106h-1.568l1.328-6.768h-3.968L184.293 106h-1.536zm9.469 0l1.568-8.096h1.472l-.944 4.752-.24 1.088h.032c.33-.427.64-.8.928-1.12l4.432-4.72h1.503L199.394 106h-1.456l.912-4.752.256-1.072h-.032c-.331.416-.64.784-.928 1.104l-4.432 4.72h-1.488zm8.682.08l.256-1.392c1.258-.203 2.144-1.632 2.656-4.288l.48-2.496h5.424L208.156 106h-1.552l1.328-6.816h-2.4l-.224 1.216c-.384 1.888-.923 3.296-1.616 4.224-.683.928-1.611 1.413-2.784 1.456zm8.894-.08l2.336-2.72.448-.496v-.032a1.872 1.872 0 01-.928-.704c-.246-.352-.368-.779-.368-1.28 0-.843.293-1.53.88-2.064.597-.533 1.365-.8 2.304-.8h3.504L216.394 106h-1.552l.576-2.928h-1.376L211.594 106h-1.792zm3.072-5.248c0 .789.437 1.184 1.312 1.184h1.456l.576-2.96h-1.424c-.576 0-1.04.155-1.392.464-.352.31-.528.747-.528 1.312zm5.93 5.248l1.568-8.096h1.552l-1.312 6.752h3.872l1.312-6.752h1.552l-1.312 6.752h1.136l-.64 3.264h-1.424l.384-1.92h-6.688zm9.828 0l1.568-8.096h1.472l-.944 4.752-.24 1.088h.032c.33-.427.64-.8.928-1.12l4.432-4.72h1.504L235.8 106h-1.456l.912-4.752.256-1.072h-.032c-.331.416-.64.784-.928 1.104L230.12 106h-1.488zm9.578 0l1.568-8.096h1.472l-.944 4.752-.24 1.088h.032a20 20 0 01.928-1.12l4.432-4.72h1.504L245.378 106h-1.456l.912-4.752.256-1.072h-.032c-.331.416-.64.784-.928 1.104l-4.432 4.72h-1.488zm13.578 0l1.568-8.096h1.472l-.944 4.752-.24 1.088h.032a20 20 0 01.928-1.12l4.432-4.72h1.504L258.956 106H257.5l.912-4.752.256-1.072h-.032c-.331.416-.64.784-.928 1.104l-4.432 4.72h-1.488zm13.578 0l1.568-8.096h1.552l-.64 3.264h1.136l2.752-3.264h1.856l-3.472 4.032v.032l2.224 4.032h-1.76l-1.808-3.504h-1.184l-.688 3.504h-1.536zm8.192-3.376c0-1.355.507-2.512 1.52-3.472s2.171-1.44 3.472-1.44c1.141 0 2.064.33 2.768.992.715.65 1.072 1.499 1.072 2.544 0 1.376-.512 2.544-1.536 3.504-1.013.96-2.165 1.44-3.456 1.44-1.141 0-2.069-.325-2.784-.976-.704-.661-1.056-1.525-1.056-2.592zm1.584-.064c0 .683.208 1.237.624 1.664.427.416.976.624 1.648.624.864 0 1.643-.341 2.336-1.024a3.346 3.346 0 001.056-2.496c0-.672-.213-1.216-.64-1.632-.427-.427-.971-.64-1.632-.64-.875 0-1.659.341-2.352 1.024a3.353 3.353 0 00-1.04 2.48zm8.463.112c0-1.376.496-2.544 1.488-3.504.992-.97 2.16-1.456 3.504-1.456 1.323 0 2.341.39 3.056 1.168l-.864 1.008a2.553 2.553 0 00-.96-.608 3.159 3.159 0 00-1.152-.224c-.928 0-1.744.347-2.448 1.04-.693.683-1.04 1.504-1.04 2.464 0 .683.213 1.237.64 1.664.437.416 1.013.624 1.728.624.928 0 1.829-.363 2.704-1.088l.448 1.232c-.405.352-.907.64-1.504.864a5.073 5.073 0 01-1.792.336c-1.163 0-2.091-.325-2.784-.976-.683-.651-1.024-1.499-1.024-2.544zm8.206 3.328l2.272-8.096h1.68l1.216 4.576.224 1.104h.032c.214-.405.427-.773.64-1.104l3.008-4.576h1.728l-.88 8.096h-1.488l.592-4.816.256-1.392h-.032c-.192.373-.432.768-.72 1.184l-2.688 4.048h-1.328l-1.136-4.032-.272-1.2h-.032a16.987 16.987 0 01-.288 1.392l-1.28 4.816h-1.504zm12.201-3.248c0-1.376.448-2.56 1.344-3.552.896-.992 2.01-1.488 3.344-1.488 1.013 0 1.781.272 2.304.816.533.544.8 1.27.8 2.176 0 .352-.086.837-.256 1.456h-5.904a3.794 3.794 0 00-.064.56c0 .587.202 1.088.608 1.504.416.416.986.624 1.712.624.864 0 1.722-.315 2.576-.944l.432 1.216c-.342.277-.8.528-1.376.752a4.913 4.913 0 01-1.712.32c-1.163 0-2.091-.32-2.784-.96-.683-.64-1.024-1.467-1.024-2.48zm1.872-1.712h4.32c.032-.139.048-.293.048-.464 0-.533-.144-.944-.432-1.232-.288-.288-.667-.432-1.136-.432a2.79 2.79 0 00-1.68.56c-.502.373-.875.896-1.12 1.568zm8.59 4.96l1.312-6.768h-2.816l.256-1.328h7.184l-.256 1.328h-2.816L316.026 106h-1.552zm5.912-3.376c0-1.355.507-2.512 1.52-3.472 1.014-.96 2.171-1.44 3.472-1.44 1.142 0 2.064.33 2.768.992.715.65 1.072 1.499 1.072 2.544 0 1.376-.512 2.544-1.536 3.504-1.013.96-2.165 1.44-3.456 1.44-1.141 0-2.069-.325-2.784-.976-.704-.661-1.056-1.525-1.056-2.592zm1.584-.064c0 .683.208 1.237.624 1.664.427.416.976.624 1.648.624.864 0 1.643-.341 2.336-1.024a3.346 3.346 0 001.056-2.496c0-.672-.213-1.216-.64-1.632-.426-.427-.97-.64-1.632-.64-.874 0-1.658.341-2.352 1.024a3.353 3.353 0 00-1.04 2.48zm7.203 3.52l.256-1.392c1.259-.203 2.144-1.632 2.656-4.288l.48-2.496h5.424L336.421 106h-1.552l1.328-6.816h-2.4l-.224 1.216c-.384 1.888-.922 3.296-1.616 4.224-.682.928-1.61 1.413-2.784 1.456zm9.838-3.456c0-1.355.507-2.512 1.52-3.472 1.014-.96 2.171-1.44 3.472-1.44 1.142 0 2.064.33 2.768.992.715.65 1.072 1.499 1.072 2.544 0 1.376-.512 2.544-1.536 3.504-1.013.96-2.165 1.44-3.456 1.44-1.141 0-2.069-.325-2.784-.976-.704-.661-1.056-1.525-1.056-2.592zm1.584-.064c0 .683.208 1.237.624 1.664.427.416.976.624 1.648.624.864 0 1.643-.341 2.336-1.024a3.346 3.346 0 001.056-2.496c0-.672-.213-1.216-.64-1.632-.426-.427-.97-.64-1.632-.64-.874 0-1.658.341-2.352 1.024a3.353 3.353 0 00-1.04 2.48zm8.271 3.44l1.568-8.096h5.072l-.256 1.328h-3.52L350.402 106h-1.536zm6.641 0l1.568-8.096h1.472l-.944 4.752-.24 1.088h.032c.33-.427.64-.8.928-1.12l4.432-4.72h1.504L362.675 106h-1.456l.912-4.752.256-1.072h-.032c-.331.416-.64.784-.928 1.104l-4.432 4.72h-1.488zm9.578 0l1.568-8.096h1.472l-.944 4.752-.24 1.088h.032a20 20 0 01.928-1.12l4.432-4.72h1.504L372.253 106h-1.456l.912-4.752.256-1.072h-.032c-.331.416-.64.784-.928 1.104l-4.432 4.72h-1.488z" fill="#57C2C9"/></svg>