<svg width="209" height="50" fill="none" xmlns="http://www.w3.org/2000/svg"><path fill-rule="evenodd" clip-rule="evenodd" d="M208.774 29.41a3.974 3.974 0 01-1.2 1.2c-1.015.649-1.999.605-2.95-.13-1.296-1.598-1.307-4.462-.032-8.589-2.68 6.332-4.905 9.432-6.677 9.303-1.398.195-2.274-.278-2.629-1.416-.604.882-1.235 1.629-2.007 2.275-1.339 1.145-2.755 1.47-4.245.973-.735-.324-1.351-2.075-1.848-5.252-.238-1.447-.443-2.441-.616-2.981-.303-.822-.702-1.167-1.199-1.037-1.858.388-3.058 1.436-3.598 3.143-.151.476-.313 1.232-.486 2.27-.152 1.037-.303 1.782-.454 2.236a17.155 17.155 0 00-2.885-.81c.136-.86.261-1.672.375-2.441-1.125 1.527-2.26 2.6-3.576 3.105-3.133 1.231-5.5.248-7.098-2.95a9.332 9.332 0 01-1.006-3.728c-2.377 4.949-3.77 9.39-4.181 13.322-.561.238-1.351.26-2.366.065.951-6.245 1.793-11.993 2.528-17.244a62.014 62.014 0 01-2.528 3.63c-.735 2.788-1.988 4.884-3.76 6.288-1.858 1.449-3.533 1.47-5.024.065-.691-.67-1.091-1.577-1.199-2.722-.13-1.361.842-1.664 2.917-.908-.886 1.577-1.091 2.593-.616 3.047.432.389.94.324 1.523-.194.562-.476 1.113-1.276 1.653-2.4 1.232-2.527 1.891-5.13 1.978-7.81.117-3.649-1.422-4.15-4.615-1.863-1.397 1-2.787 2.595-3.861 3.846-.642 3.817-1.733 8.885-3.454 15.746 18.633 3.01 28.194 6.293 53.522-1.76.021.33.146.668.042 1.262-24.53 10.672-35.447 10.471-54.472 3.156-1.145 2.701-2.388 4.765-3.728 6.191-2.053 2.182-4.559 3.274-7.519 3.274-2.615 0-4.398-.8-5.349-2.399-.691-1.188-.875-2.604-.551-4.246.346-1.707 1.394-3.112 3.144-4.214 2.594-1.599 6.353-2.15 11.28-1.653l1.848.194c.648-2.397 1.005-5.077 1.069-8.037 0 .064-.605.388-1.814.972-1.427.67-2.659.96-3.696.875-3.349-.238-4.239-4.353-2.528-12.317.521-2.429.067-3.223-1.13-2.587-.864.459-1.627 1.078-2.974 2.144.034.246.061.502.08.767l.065 1.135c0 1.037-.141 2.312-.421 3.824-.584 2.766-1.632 4.808-3.144 6.127-1.211 1.08-2.41 1.512-3.598 1.296-1.211-.216-1.762-1.167-1.654-2.852a8.342 8.342 0 011.459-4.182c1.125-1.637 2.045-2.466 4.299-4.72-.085-.727-.222-1.239-.41-1.536-.583-.994-1.534-1.08-2.852-.259-1.426.864-2.41 2.377-2.949 4.538-2.702 10.783-3.534 19.491-2.496 26.125.086.627-1.145.465-3.696-.486l3.21-27.36c.248-2.114-.507-1.52-1.544-.222-.635.794-1.553 2.166-2.32 3.583-.295 2.901-.514 6.56-.747 11.812-.043 1.772-.389 3.597-1.038 5.477-1.274 3.782-3.36 5.965-6.255 6.548-3.22.735-5.597.032-7.131-2.107-.756-1.059-1.189-2.193-1.296-3.403l.421-.13c.821 4.127 3.22 5.294 7.196 3.5 2.355-1.058 3.976-4.397 4.862-10.015.302-1.967.486-3.998.551-6.094.065-1.793.043-2.69-.065-2.69-1.21 2.053-2.723 3.35-4.538 3.89-.864.41-1.696.194-2.496-.649-.756-.8-1.296-1.966-1.621-3.5-.616-2.857-.331-5.422.857-7.694a11.606 11.606 0 01-3.774 1.989c.281.994.119 2.269-.486 3.825a12.637 12.637 0 01-2.626 4.084c-1.231 1.274-2.496 1.977-3.792 2.106-1.49.174-2.841-.486-4.051-1.977-.34-.45-.617-.995-.83-1.633-3.315 3.482-8.255 10.833-7.28 2.728a978.6 978.6 0 011.12-8.834c.551-4.324 1.324-10.69 1.739-14.133-1.15.036-2.382.136-3.695.301-.55 2.15-1.29 5.44-1.585 7.02-.716 3.877-1.43 7.29-2.144 10.237-.997 3.833-1.813 6.498-2.45 7.996-.803 1.876-1.9 3.431-3.292 4.666-2.043 1.638-4.704 1.946-7.984.922-1.503-.48-2.684-1.186-3.544-2.117-.956-1.054-1.392-2.282-1.308-3.684.191-2.162 1.32-3.923 3.387-5.282 1.036-.69 2.05-1.16 3.037-1.412l-.093.718c-1.666.671-2.758 1.57-3.277 2.697-1.124 2.386-.935 4.352.568 5.898 1.434 1.477 3.401 1.992 5.904 1.543 1.909-.366 3.485-2.392 4.73-6.077 2.22-6.463 3.31-15.668 4.76-22.61l-.275.052c-4.257.605-6.645.908-7.164.908-2.938-.086-4.635-1.297-5.088-3.63-.497-2.658.432-4.322 2.787-4.991 1.988-.562 3.814-.39 5.478.518-2.053-.195-3.555-.076-4.506.356-.994.476-1.285 1.264-.875 2.367.497 1.253 2.388 1.728 5.672 1.426 5.108-.463 19.484-4.85 22.43-.908 1.254 1.491 1.233 2.96-.064 4.409a7.442 7.442 0 01-2.334 1.717c.022-.302-.119-.637-.421-1.004-.584-.757-1.643-1.286-3.177-1.589a17.149 17.149 0 00-2.441-.377c-.393 3.16-1.096 9.467-1.396 12.861a190.92 190.92 0 01-.614 5.94c-.349 2.861 1.857 1.248 3.072.073a14.877 14.877 0 01-.21-2.322c-.042-2.68.606-4.862 1.946-6.548 1.578-1.966 3.479-2.95 5.705-2.95 1.08 0 1.923.26 2.528.779.669.604.8 1.393.389 2.366-.82-.368-1.74-.422-2.755-.163-2.053.497-3.588 2.291-4.603 5.381-.583 1.815-.756 3.35-.519 4.603.216 1.102.702 1.858 1.459 2.269.735.389 1.502.389 2.301 0 .843-.433 1.491-1.189 1.945-2.27.843-1.987 1.07-3.835.68-5.542-.345-1.47-.971-2.334-1.88-2.593l2.756-1.296c.952 1.118 3.363 2.607 7.399-.711.071-.088.144-.175.218-.262 2.29-2.658 4.29-3.457 5.997-2.399.864.54 1.491 1.34 1.88 2.4-1.816-.26-3.544.496-5.187 2.268-1.793 1.902-2.69 4.246-2.69 7.034 0 2.442.573 3.511 1.718 3.209.799-.216 1.729-1.016 2.787-2.4.8-1.014 1.621-3.802 2.464-8.361 1.793 0 2.971.27 3.533.81a18.405 18.405 0 00-.328 1.732 144.567 144.567 0 012.263-3.631c1.404-2.168 4.668-5.506 5.204-.727.411-.583.951-1.134 1.62-1.652 1.319-1.038 2.626-1.406 3.922-1.103 1.196.518 1.999 1.585 2.41 3.201 1.149-.982 2.58-2.17 3.534-2.654 1.009-.513 2.016-.594 3.201-.385 1.319.233 1.578 2.582.778 7.034-.885 4.818-1.123 7.455-.712 7.909.324.346 1.145.389 2.463.129 1.426-.28 2.452-.788 3.079-1.523.627-5.662.94-9.918.94-12.77 0-.303.627-.422 1.88-.357 1.254.064 1.902.259 1.945.583.144.925.05 2.519-.28 4.78.839-1.049 2.266-2.468 3.247-3.35a11.22 11.22 0 012.545-1.754c2.658-1.275 4.365-.162 5.122 3.339a12.88 12.88 0 01.227 3.306 30.128 30.128 0 002.463-3.371c.627-4.452.94-7.056.94-7.812 0-1.08-.313-1.599-.94-1.556-.432.022-1.091.335-1.977.94l-.227-.227a8.727 8.727 0 011.653-1.912c1.275-1.102 2.585-1.426 3.339-.421.645.86.345 4.17-.195 9.53-.432 4.386-.832 7.465-1.199 9.237.475-1.08 1.329-2.54 2.561-4.376.669-2.614 2.031-4.603 4.084-5.964 2.117-1.383 4.03-1.426 5.737-.13.735.562.961 1.254.68 2.075-.302.93-1.21 1.318-2.722 1.167.713-1.167.724-2.02.032-2.56-.432-.347-.972-.228-1.621.355-.605.541-1.199 1.394-1.782 2.561-1.34 2.658-1.945 5.122-1.816 7.39.109 1.946 1.113 3.102 3.015 3.469 1.913.382 4.27-1.286 5.946-3.132.42-2.944.671-5.148.799-6.682.127-1.527.129-2.372-.061-3.714.513-.834 3.292-1.233 3.5-.983.334.402.172.925.148 2.307-.003.216-.14 1.892-.422 5.025 1.621-3.76 2.713-6.105 3.275-7.034 1.685-2.701 4.521-5.2 6.595-5.222 1.513-.022 2.572.28 3.177.907.497.497.616 1.102.356 1.816-.238.67-.669 1.09-1.296 1.264-.692.194-1.297-.054-1.815-.746 0-.734-.173-1.286-.519-1.653-.648-.648-2.663 1.192-4.132 3.245-2.01 2.81-3.231 5.11-3.663 6.904 1.102-.259 2.031-.421 2.788-.486.994.021 1.685.432 2.074 1.232.259.518.432 1.425.519 2.722.108 1.448.237 2.442.389 2.982 1.01 3.165 3.297 2.03 4.947-.264-.017-1.887.252-3.37.466-5.23.562-5.273.572-5.754.557-6.946.032-1.466 3.587-.947 3.513-.433-.353 2.467-.703 4.039-.926 6.504-.216 1.966-.324 3.22-.324 3.76-.022 1.166.183 1.75.616 1.75.886.173 2.182-1.783 3.89-5.867a489 489 0 001.912-4.797c.669-1.707 1.134-2.799 1.394-3.274.928.93 1.836 1.545 2.722 1.848-1.772 6.677-2.733 10.76-2.885 12.252-.108 1.08.098 1.675.616 1.782.346.065.962-.14 1.848-.615l.194.26.001-.001zm-76.199 11.508c-1.513 1.447-2.031 3.014-1.556 4.7.454 1.642 1.502 2.441 3.144 2.398 1.513-.065 3.047-.745 4.602-2.042 1.838-1.534 3.285-3.673 4.345-6.418-2.184-.648-4.355-.778-6.516-.389-1.837.346-3.176.93-4.019 1.75zm-6.423-14.586c-.475 1.383-.529 2.43-.162 3.144.39.778 1.124.389 2.204-1.167.692-1.016 1.18-2.297 1.459-3.844.196-1.081.422-2.569.37-3.717-1.923 1.846-3.417 4.266-3.871 5.584zM29.654.013c5.962.124 11.83 1.312 15.857 3.603 2.93 1.667 5.29 3.91 7.006 6.551.748.838 1.588 1.649 1.776 1.978.335.59-.089.86.451 1.757.189.312.375.622.402 1.018.018.28-.04.5-.113.887l.038.144c.546.54 1.335 1.844 1.323 2.914-.013.986-.404 1.286-.632 1.971.003.112.006.225.007.338.001.144 0 .286-.001.43.474.204.984.511 1.506.89-.903.417-1.528.524-1.673 1.688-1.605 12.77-14.457 18.284-27.17 18.408-10.85.106-20.63-3.984-24.62-12.226-.185-.224-.378-.46-.612-.689-.703-.686-1.497-.628-2.158-2.5a6.012 6.012 0 001.408.023c.606 1.482 1.313 1.47 1.944 2.084.222.217.406.443.582.656C8.778 37.795 18.1 41.692 28.44 41.592c8.379-.082 16.82-2.621 21.737-8.203.198-.42.207-.932-.109-1.593a2.134 2.134 0 00-.08-.204c.405.24.862.222 1.377-.096a.8.8 0 00.383-.187c1.333-2.076 2.24-4.49 2.588-7.262.14-1.11.734-1.211 1.595-1.608-.498-.362-.984-.655-1.436-.85 0-.137.003-.272.001-.41l-.006-.321c.217-.653.59-.94.6-1.88.013-1.019-.74-2.262-1.259-2.776l-.037-.138c.07-.368.126-.578.108-.845-.025-.377-.203-.672-.383-.97-.514-.855-.11-1.113-.43-1.675-.178-.314-.98-1.086-1.692-1.885-1.636-2.516-3.886-4.654-6.677-6.243-3.84-2.184-9.431-3.316-15.113-3.436C20.189.815 12.71 3.025 8.078 8.152c-.097.108-.194.217-.29.327.16-.55.2-1.151.268-1.882a10.29 10.29 0 00-.337.222C12.613 1.928 20.204-.185 29.654.013zM2.548 26.923a23.85 23.85 0 01-.188-.756c-.672-.35-1.33-.714-1.816-1.349-1.069-1.402-.337-2.92.277-3.906.023.626.267 1.108.617 1.524-.178.703-.14 1.477.424 2.217.462.605 1.09.952 1.73 1.285.076.327.158.649.247.966-.37.042-.792.068-1.29.02zm-.795-5.325l-.01-.424c-.027-2.94.466-5.542 1.394-7.826a15.47 15.47 0 011.599-2.93c.32-.465.276-.751.29-1.267.056-1.94 1.045-2.654 2.017-3.278-.062.668-.101 1.231-.222 1.746-.387.483-.66 1.132-.687 2.102-.014.491.028.764-.277 1.208a14.721 14.721 0 00-1.524 2.792c-.884 2.177-1.354 4.657-1.329 7.458.006.518.032 1.05.08 1.585-.522-.483-.929-1.036-.958-1.834a7.333 7.333 0 00-.373.668zm35.461-7.227a1.743 1.743 0 00-.724-.713c.1.305.038.63-.17.907.278-.003.595-.054.894-.194zm11.652 17.263c.401.538.268 1.47-.56 1.673.517-.526.618-.95.56-1.673zm-1.169.14c.28.221.414.491.323.832a2.205 2.205 0 01-.55.02c-.054-.275-.003-.558.227-.852zm-.627.367c-.312.568-.058 1.06.657 1.308-.367-.27-.55-.746-.657-1.308zm1.467-.682c-.736-.285-1.128-.145-1.494.028.441-.096.92-.11 1.541.191l-.047-.219zm2.22-.457c.55.015.868-.295.902-1.007-.135.567-.484.834-.901 1.006zm-.51-.017c-.348-.13-.506-.482-.43-1.105.082.397.222.766.43 1.105zm.397-.282a.956.956 0 00.365-.392.552.552 0 00-.45-.121c-.016.236.031.38.085.513zm-35.24-12.608a1.632 1.632 0 01-.543.525c-.192.11-.395.16-.597.152a1.113 1.113 0 01-.58-.193 1.376 1.376 0 01-.217-.183l-.023.114c-.018.09-.066.175-.076.267-.012.117.005.235.009.353.001.048.03.104.007.146-.055.098-.186.144-.226.249-.035.095.068.208.064.31-.003.099-.08.192-.085.291-.005.102.03.207.003.305-.036.132-.068.296-.185.366-.084.05-.225-.006-.28-.086-.047-.068.07-.159.054-.24-.023-.12-.181-.2-.235-.312-.046-.095.016-.225-.005-.329-.02-.092-.063-.17-.046-.262.021-.121.09-.233.1-.356.01-.112-.043-.223-.042-.336 0-.133.01-.27.047-.398.015-.052.093-.07.107-.123.018-.079-.06-.172-.02-.242.044-.074.18-.046.23-.115.031-.042-.057-.108-.032-.155a.115.115 0 01.049-.044 1.22 1.22 0 01-.175-.3c-.102.654-.968.787-1.852.9-.179-.016-.196-.115-.256-.193-.092-.121-.212-.278-.213-.449 0-.15.112-.31.157-.487.888-.34 1.665-.576 2.095-.036l-.002-.015a1.094 1.094 0 01.121-.642h.001l.008-.015a.278.278 0 00-.13.001.721.721 0 01-.26.068c-.077 0-.083-.076-.183-.07a1.709 1.709 0 00-.394.11c-.076.034.029.084-.035.085-.064.001-.202-.073-.279-.08-.077-.009-.141.028-.17.033-.028.006-.226.052-.283.06-.057.006-.197-.19-.254-.166-.057.025-.235.148-.342.148-.107 0-.148-.14-.228-.145-.08-.004-.078.14-.17.127l-.007-.002-.019.036c-.785 1.374-2.305 1.827-3.073.281-.093.995.327 1.666.976 1.955l-.09.164-.05.01c-.5.087-1.273.081-1.775-.029.282.393.813.97 1.315 1.226-.423 1.388-.2 2.576.436 3.642-.384-1.396-.02-2.404.433-3.407-.635 3.576-.316 6.66 2.924 8.804 4.801 3.178 1.165 4.74 4.94 7.473 2.471 1.79 6.3.64 7.793 3.627-6.362-.983-11.813-4.004-15.31-8.212.813-2.008.159-1.767-.016-3.49-.052.085-.88.845-1.246 1.791l-.019-.029c.221-1.758.091-2.647-1.591-3.626a.786.786 0 00-.224-.1c.354-1.375-.119-2.103-.79-2.765a16.328 16.328 0 01-.246-2.794c-.005-2.418.347-4.495.952-6.292 1.85-1.193 2.407-1.47 2.938-3.799-.791.399-1.334.742-1.725 1.074 2.064-3.648 5.278-5.86 8.17-7.517-1.075 1.358-.697 2.725.122 3.404-5.415 3.41-3.598 5.272-4.477 7.803a.339.339 0 00.11.027c.078-.005-.07-.1.01-.106.081-.006.284.092.371.08.088-.01-.033-.13.064-.136.098-.006.327.103.422.109.095.005-.09-.11-.05-.163.042-.052.142-.023.244-.049.102-.024.183.038.282.023.1-.015.164-.072.258-.08.094-.007.265.003.335-.019s-.02-.068.046-.099a.741.741 0 01.316-.075c.1.01.133.135.249.13.117-.003.273-.129.388-.154.116-.024.21.047.293.01.08-.037.064-.171.136-.204.072-.033.158.056.227.04.068-.014.066-.087.147-.123a.624.624 0 01.066-.025.65.65 0 01.214-.196c-.84-.67-.05-1.063.135-1.122-.483-.13-.953-.281-1.475-.278.39-.685 1.059-1.61 2.239-1.425 1.222.19 2.01.96 2.134 2.154.23-.07.27-.655.156-.878.434.604.738.774 1.485.832.865.067 1.386.479 1.43 1.214.024.41.124.678.334.887-.54.056-1.1.117-1.425-.037a3.268 3.268 0 00-.807-.274 2.161 2.161 0 00-.1-.164c-.252-.463-.551-.744-.883-.896a1.497 1.497 0 00-.318-.107c-.008-.172-.332-.143-.747-.039.323-.219.616-.45.527-.603-.077-.135-.359.082-.654.325.187-.384.335-.731.202-.775-.169-.057-.368.286-.571.663-.07-.447-.149-.855-.274-.814-.147.048-.117.423-.066.835-.423-.403-.813-.677-.91-.446-.04.097.021.22.204.382-.442-.175-.643-.153-.62.01.034.245.386.456.829.629-.488.102-.823.207-.785.434.014.077.13.03.525-.09-.231.129-.35.258-.25.373.078.09.244.08.524-.05-.112.192-.212.48-.105.48.206-.003.43-.652.46-.67-.181.614-.145.877.03.826.175-.053.302-.29.397-.603.046.28.112.5.239.505.133.005.116-.352.08-.752.28.304.555.588.699.495.124-.08-.17-.427-.469-.775l.052-.002c.598-.101 1.156.045 1.583.84.217.309.361.717.292 1.407-.13.62-.366.86-.598 1.116a91.074 91.074 0 00-.155-.35c-.297.438-.636.514-.983.522-.659.139-1.08-.113-1.332-.642a1.424 1.424 0 01-.08-.071l-.05.076v.002h-.001zm2.244-4.87l-.04-.01a4.321 4.321 0 00-.761-.815h-.002a2.886 2.886 0 00-1.39-.595 1.693 1.693 0 00-.119-.016 1.239 1.239 0 01-.05-.75c.258-1.118 1.547-1.524 2.287-2.39-.558.57-.993 2.118.075 4.576zm9.877.874c.67-.662 1.66-1.09 2.876-1.342.048.117-.174.18-.203.409.323.318.686.257.958-.18-.03.31-.257.557-.73.73.154.057.332.03.526-.052-.28.245-.613.357-.973.46a.78.78 0 00.23.027 1.882 1.882 0 01-.255.06 1.16 1.16 0 01-.14.417c-.153-.085-.19-.237-.217-.393-.626-.011-1.143-.27-1.482-.024.368.39.892.768 1.857.49a.18.18 0 01-.013.151c-1.296.383-2.424-.29-3.096-.81.197.043.607.095.662.057zm4.01 3.736c-.315.253-.265.51.067.648-.117-.222-.105-.465-.067-.648zm-4.592-5.286c1.349-.67 2.232-.933 3.64-.198.272.142.348-.493.104-.584-1.846-.69-2.602-.236-3.744.782zm-6.068 1.848c-.712-.164-1.566-.34-1.457-.964.048-.272.218-.426.456-.503a1.527 1.527 0 01-.146-.197c-.376.342-.825.548-1.415.474-.664-.355-.938-1.068-.767-2.193.133.004.268.03.4.013.157-.021.299-.116.456-.129.063-.005.112.063.172.078.156.036.324.02.475.074.095.035.153.137.242.183a1.525 1.525 0 01.09-.585c.145-.388.436-.651.813-.862.459-.31.84-.46 1.167-.504.067-.01.131-.014.194-.015-.242-.4-.272-1.026-.12-1.812.153.049.3.172.459.146.144-.025.19-.289.337-.281.173.01.266.225.413.32.089.056.192.088.287.132.193.664.125 1.444-.138 1.795a1.296 1.296 0 01.43.339 1.694 1.694 0 01.197-.931c.162-.296.5-.557.782-.74.215-.14.438.019.642.098.16.061.198.266.295.407.148.213.368.397.437.648.059.217-.033.452-.01.676.018.168.159.324.13.491-.039.22-.222.388-.318.59-.063.133-.03.334-.154.413-.1.064-.235-.047-.345-.092-.369-.152-.788-.235-1.09-.495a1.648 1.648 0 01-.179-.18 1.53 1.53 0 01.069.594c.508.066 1.019.348 1.736.411a7.116 7.116 0 001.033-1.432 1.929 1.929 0 01-.336-.05c-.018-.057-.042-.113-.065-.168l-.002-.002a.535.535 0 01-.04-.113 1.05 1.05 0 01.012-.223c.018-.16.037-.32-.014-.506-.059-.213-.174-.368-.296-.516l.024-.013c.181-.104.258-.212.27-.324.45-.146.968-.138 1.395.043.168-.22.37-.417.63-.585a6.23 6.23 0 00-.478.659c.157.088.298.202.411.347.128.16.281.205.5.299-.195.065-.295.231-.398.408-.247.427-.725.672-1.23.733a4.926 4.926 0 01-.774 1.437c.21-.023.436-.065.682-.136-.577.586-1.177 1.134-1.778 1.257-.208.18-.42.352-.634.527a2.634 2.634 0 00-.207-.433l.175-.149a1.583 1.583 0 01-.642-.444 2.059 2.059 0 01-.207.3c.407.326.683.893.775 1.7.073.643-.596 1.032-.932 2.204-.727-.745-.738-1.415-.976-2.048a5.365 5.365 0 01-.296-1.026l-.1.018a1.994 1.994 0 01-.738-.021 2.604 2.604 0 01-.526-.109l.001.005c.043.196.901.148.923.44.01.126-.203.213-.696.232.079.13.058.215-.006.29zm-.556-1.534c.26-.006.55.027.831.07.09.08.169.17.181.273.357.06.776.015 1.35-.29.537-.365.673-.682.824-1.001l-.392-.012c.3-.451.24-.802.112-1.135-.125-.677-.527-.977-1.126-1.011-.38-.206-.889-.23-1.717.33-.452.25-.753.574-.735 1.142.042.002.078.015.103.05.074.102-.013.26-.036.392.014.056.03.114.05.174.078.038.137-.24.245-.29.057-.026.122.04.172.078.091.069.165.16.246.24-.14.21-.285.412-.442.594.082.151.19.285.334.396zm1.558-.468c-.562.052-1.17-.452-.954-1.135.15.601.41.86.954 1.135zm.27-.158c.527-.404.599-.746.636-1.084-.124.359-.325.708-.814 1.02l.178.064zm.143-.742c-.282.105-.533.082-.74-.133.041-.1.098-.215.229-.404.22.083.401.244.51.537zm.012-.61c-.27-.472-.735-.507-1.227-.103.355-.145.777-.066 1.227.103zm2.164-3.037a.98.98 0 01.048-.163c.094-.233.195.086.267.005.072-.082.017-.287.066-.38.05-.095.16-.065.211-.143.052-.077.04-.202.076-.295.036-.094.064-.212.14-.26.074-.05.186.073.243.01.059-.063 0-.213-.005-.27-.006-.057-.05-.006-.024-.07.027-.063.105-.22.177-.293.073-.074.2-.068.241-.131.042-.064-.046-.095-.037-.181.008-.088.035-.263.086-.326.053-.064.096.095.148.038.053-.057.052-.197.092-.298.04-.1.092-.23.146-.305.054-.075.137-.077.169-.135.031-.06-.067-.113.004-.187.071-.074.268-.1.375-.205.107-.106.148-.346.249-.404.1-.059.109.097.123.184.014.088-.021.149-.047.307-.025.157-.058.495-.104.642-.044.148-.145.153-.157.221-.012.068.111-.004.099.101-.013.106-.138.336-.17.466-.031.13.014.207-.018.302-.033.096-.133.144-.168.251-.035.108.025.264-.038.377-.064.112-.255.153-.313.24-.057.086.037.14.002.229-.037.087-.16.158-.21.27-.05.111-.014.284-.08.382-.066.097-.192.089-.281.15-.087.062-.205.121-.243.218-.04.096.275.16.037.295a1.11 1.11 0 01-.069.034 4.336 4.336 0 01-.037-.074c-.08-.167-.162-.334-.39-.422l-.102-.045c-.16-.072-.324-.146-.507-.135zm.01 2.857c-.048.007-.092-.03-.1-.082-.007-.051.02-.141.067-.148.048-.006.099.072.106.124.007.051-.025.1-.072.106zm-.288-.156c-.052.007-.103-.05-.114-.128-.01-.078.022-.147.074-.154.052-.007.103.049.114.128.011.077-.022.146-.074.154zm.37-.437c-.057.008-.113-.044-.123-.117-.01-.073.027-.138.085-.147.057-.008.112.045.122.117.01.073-.027.139-.084.147zm-.409-.056c.058-.008.097-.074.087-.147-.011-.073-.067-.125-.125-.118-.059.009-.098.075-.087.149.01.073.067.125.125.116zm.301-.428c-.058.008-.112-.04-.122-.107-.009-.068.03-.13.087-.137.057-.009.11.04.12.106.01.068-.028.13-.085.138zM24.1 9.6c.037-.004.081-.072.07-.15-.012-.078-.074-.137-.11-.132-.036.005-.105.085-.093.163.01.077.097.125.133.12zm-.185.622c.042-.005.087-.089.08-.14-.007-.052-.06-.101-.1-.096-.043.006-.094.065-.087.117.007.052.065.126.107.12zm2.971 16.468a9.534 9.534 0 01-.773.109c-3.372.312-5.194-1.747-6.028-5.107.448 4.17 2.678 5.82 6.362 5.269 7.753-1.159 7.19 5.108 12.765 5.036-2.866-.594-4.84-2.87-5.77-5.541 2.054.088 1.44-2.294 2.235-3.292-.803-.98-1.235-1.456-1.58-2.243-.797-1.813-.11-4.21.773-6.155l.171-.01.107.093.099-.031c1.022.135 1.858-.24 2.05-.152.154.07.229.046.23-.052-.281-.883-.883-1.636-1.696-1.702.1-.165.202-.325.31-.479.318.092.635.19.953.266.318.076.745-.308.098-.506-.246-.075-.481-.148-.708-.214 1.15-1.406 2.831-2.341 6.024-2.969.406.844.898 1.822 1.67 2.471.19 1.244.433 2.439 1.274 3.52-.486 1.873-.797 3.773-1.353 5.617a2 2 0 01-.11.28c0-.015.002-.028.006-.041-.76 1.44-1.66 2.082-2.494 2.6-.863.534-1.73 1.258-2.74 1.228-.563-.017-.976-.1-1.415-.33.397.415 1.167 1.51 3.196.606 1.02-.453 1.03 2.945 1.405 4 .515-.644 1.702-1.37 4.226-1.454-.309.12-.492.32-.567.552-.31.952-1.066.532-1.413.835-.347.302-.366.94-.593 1.181-.226.241-.975.308-1.181.516-.207.206.02.726-.165.989-.184.262-.735.228-.94.512-.206.284-.172.913-.385 1.182-.189.24-.594.394-1.172.48-.838-.635-1.746-1.432-3.405-1.794 1.996.918 2.75 2.386 4.143 2.913 2.761 1.043 3.65-.856 5.914-.989a1.313 1.313 0 01-.358-.837c-.338-.628-.282-1.223.327-1.771.258-.335.577-.614 1.22-.59l-.23-.407c.417-.043.823-.103 1.527.216.11.065.21.13.303.196-.41-.83.004-1.54.962-1.655.424-.352.954-.418 1.346-.151-.434-.617-1.141-1.045-2.173-1.19-.24-.033-.992-.138-1.585-.215-1.537-.222-3.444-.53-4.012-.898-.863-.56-1.4-1.928-1.065-3.427.063-.279.33-.604.709-.978.143-.04.286-.08.43-.122-.424.807.186 1.88 1.316 1.095.317-.22.873.016.474.523-.634.803-.407 1.447.092 1.815-.138-.43-.218-.994.305-1.619.63-.753-.228-1.55-.899-1.175-.766.43-.847-.223-.543-.442 1.173-.85 2.059-.203 3.063-3.599.686-.688 1.526-1.593 1.219-3.179-.328-1.697.656-2.216-.928-4.49-.761-1.092.112-2.21-1.345-3.54-2.517-2.297-3.909-4.259-5.546-3.509-1.277-.911-2.527-1.057-4.967.128-3.085-1.529-6.77-2.022-10.114-1.82-3.789.227-7.553.72-10.93 2.386-.354 1.805 1.344 2.256 3.12 1.75 1.298-.37 4.037-3.317 7.937-1.766l.011-.016a.507.507 0 01.074-.084c-.002-.08.028-.17.131-.276h.001c.08-.082.17-.12.268-.16a.65.65 0 00.113-.052c.008-.01.03-.06.051-.107v-.001c.06-.133.116-.259.26-.343.251-.148.416-.06.53.133.053.09.066.18.076.256h.001l.004.027a.638.638 0 01-.022.285v.002c-.01.04-.02.09-.025.118v.001l-.024.166a4.024 4.024 0 01-.09.519v.001a.707.707 0 01-.042.11.665.665 0 010 .1c.227.142.457.3.689.475 3.318-.737 6.406 3.469 4.478 6.953.495-3.23-1.145-5.395-3.239-5.038 1.322 1.035 1.818 2.184 2.158 3.636.337 1.436-.276 1.676.003 3.2.182.998.889 2.003 1.462 2.597.433.448.344.763.073.966a4.965 4.965 0 01-.919.536c-.024.436.135.739.255.945.185.311-.098.73-.707.81-.372.024-.714.01-.958-.117.067.624 1.448.046 1.459 1.184-.526.343-.677.485-.57 1.277.171 1.289-.46 1.682-1.098 1.735-2.37.196-3.836-.675-4.967 1.99-2.693-.812-3.881-3.075-3.572-5.776.959-.192 1.925-.927 2.295-1.61-1.402.994-2.9.758-3.788-.41.157 3.696 1.41 7.804 5.641 8.04.273.015.539.008.81.006zm-14.76-12.7c-.134-1.734 1.006-3.309 3.153-4.758-1.559 1.368-2.592 2.962-3.154 4.759zm2.867-7.328c.8 1.331 2.37 1.14 4.488-.267-2.074.97-3.631 1.122-4.488.267zm6.049-1.018c1.645-.456 3.158-.498 4.504-.01l-.002.011-.002.028a.539.539 0 00-.11.086.891.891 0 00-.074.09c-1.438-.323-2.877-.344-4.316-.205zm1.028 9.218c-1.522 2.014-.445 4.625 2.003 3.998-1.23.085-2.326-1.533-1.745-3.151-.072-.192-.124-.38-.176-.564a11.038 11.038 0 00-.082-.283zm18.47-.496c.157-.29.394-.53.726-.713-.1.305-.102.62.107.896a1.903 1.903 0 01-.832-.183zm1.73-.692c.223.104.441.295.576.55a1.77 1.77 0 01-.782.325c.235-.24.323-.526.206-.875zm-2.042.937c.367-.886.871-1.474 1.687-1.536-.014.102.266.032.344-.054a.358.358 0 01-.034.156.574.574 0 00.256-.128c.003.022-.057.16-.058.192.1-.04.24-.167.3-.22-.005.051-.074.18-.08.23.13-.038.253-.153.301-.191-.004.033-.072.143-.076.176.117-.014.254-.129.33-.18-.027.06-.117.199-.144.259.154-.02.271-.09.334-.117a1.1 1.1 0 01-.15.183c.081.019.162-.01.244-.027l-.076.127a.48.48 0 00.313-.092.658.658 0 01-.127.225.508.508 0 00.337-.086.795.795 0 01-.19.27.51.51 0 00.317-.073.823.823 0 01-.227.253.57.57 0 00.252-.029c-.198.192-.405.371-.692.427.016.075.043.163.046.237-.057-.008-.136-.027-.194-.012l.018.07a.948.948 0 00-.293 0l.051.12a.743.743 0 00-.328-.038.195.195 0 01-.063.095c-.07-.022-.102-.035-.174-.027-.996.114-1.804-.245-1.993-.16-.154.07-.23.047-.23-.05zm1.61-.74c.155.121.07.426-.142.37l.04-.215c-.044.037-.08.09-.141.14-.11-.056-.017-.499.243-.296zm-1.243-1.66c-.648.198-.25.581.067.504.807-.193 1.611-.457 2.432-.503.31-.018.724.19 1.002.304-.177-.276-.767-.682-1.18-.697-.778-.028-1.47.132-2.321.392zm-5.526 2.13c.1-.209.202-.41.303-.602a1.07 1.07 0 01.113-.062c-.116.35-.09.646.144.887a1.332 1.332 0 01-.56-.223zm.85-.467c-.156.123-.133.438.078.382l-.04-.216c.044.038.08.09.141.14.11-.055.079-.51-.18-.306zm1.053 6.305c.62.117 1.27.256 1.922.258.69.002 1.109-.135 1.757-.178-.421.201-1.355.543-1.761.539-.579-.006-1.38-.33-1.918-.62zm-.822-.203c.51.044 1.186-.228 1.73-.37.21-.055.678.245.942.262.264.016.613-.24.827-.184.59.154 1.098.488 1.802.396-.697.613-1.199 1.635-2.603 1.634-1.425-.001-2.065-1.163-2.698-1.738zm3.015-1.533c.258-.09.33-.237.453-.291.207-.09.344.039.361.175-.05.056-.215.006-.362.017-.148.01-.201.059-.452.099zm-.692-.024c-.246-.093-.301-.252-.417-.308-.197-.093-.343.038-.363.168.047.056.207.014.348.03.142.015.192.063.432.11zm-21.843-.567c-.527-.067-.73-.474-.549-1.07.002.375.229.727.549 1.07zm.547-.237c-.011-.293-.125-.512-.395-.618a1.862 1.862 0 00-.28.356c.156.169.37.271.675.262zm.616-.404c-.169.626-.452.818-.742.976.277-.245.518-.555.62-1.113l.122.137zm.043-.302c-.162-.527-.843-.89-1.38-.441.6-.087.928.051 1.38.44zm-2.72.993c-.484.72-1.203.685-1.61-.03-.585-.306-.76-.996-.142-1.482.11-.383 1.184-.694 1.553-.132.608.435.633.992.2 1.644zm-.554-.884a.746.746 0 00-.392-.145.427.427 0 00.048.36.809.809 0 00.344-.215zm.325.202c.01.29-.196.51-.669.643.262-.178.486-.39.668-.643zm-.144-.375c-.154-.4-.475-.537-.998-.345.45-.074.748.097.998.345zm1.092-1.71c-.067-.737.575-.39.563-.21-.037.583-.536.504-.563.21zm7.144 22.68c1.794 2.23 2.481 2.043 4.2 2.33a.848.848 0 00.474.269c.842.519 1.534.265 2.107-.597a2.05 2.05 0 00.2-.38c.557.976 1.223 1.07 2 .854 1.233-.224 1.667-.692 1.827-1.21.507-.555.603-1.177.12-1.893-.176-.41-.43-.777-1.095-.918l.342-.354c-.416-.152-.816-.318-1.617-.173-.853.25-1.27.618-1.534 1.027-.377.455-.537.87-.548 1.254a1.746 1.746 0 00-.554-.155c-.672-.558-1.604-.42-1.88.583-.193.155-.258.564-.18.97-1.194-1.189-1.733-1.579-3.862-1.607zm8.295-.902c-.549.447-.652 1.433.141 1.855-.392-.67-.386-1.13-.14-1.855zm1.159.444c-.345.154-.55.395-.544.768.124.054.274.108.557.161.126-.267.146-.57-.013-.929zm.546.536c.173.66-.213 1.099-1.009 1.168.446-.181.755-.621 1.01-1.168zm-1.324-1.074c.825-.101 1.19.143 1.519.413-.426-.213-.91-.35-1.624-.2l.105-.213zm-3.373 3.083c-.569.016-.898-.305-.933-1.041.14.586.501.863.933 1.041zm.529-.017c.358-.136.522-.498.444-1.144a3.54 3.54 0 01-.444 1.144zm-.412-.292a.983.983 0 01-.376-.405.565.565 0 01.464-.125c.016.244-.032.393-.088.53zm23.158-11.358c2.53-2.035 1.57-1.906 2.26-3.726-.074.045-.908.287-1.617.802.194-.818 1.05-1.99 3.165-2.884-1.426-.857-2.682-.956-3.22-.046-.525.889-.048 1.936.008 2.965-.781.587-1.385 1.513-.596 2.889zm.947-7.038c.71-.25 1.45-.56 1.918-1.524.522-1.075-.167-1.986-.708-2.558-.398 1.326-1.727 1.987-1.21 4.082zm-1.231 3.997c.04-1.979-.729-1.984-2.057-2.958.262 1.63.114 2.018 2.057 2.958zm.473-13.403c.81 1.175.224 1.538.393 2.563.14.852.565 1.1.755 2.29.15-.464.583-.918.55-1.404-.035-.527-.5-.94-.64-1.448-.094-.337.024-.754-.148-1.058-.23-.405-.555-.638-.91-.943zm-40.893 7.547c.034-.028.068-.008.078.045.01.053-.01.118-.042.146-.034.028-.068.007-.078-.046-.01-.052.01-.117.042-.145zm-1.336.526c-.301-.102-.62-.369-.906-.409-.661-.09-.935.194-1.86.09.313.208.571.548.94.624.4.083.804-.178 1.212-.178.217 0 .442.121.658.135.057.223.167.437.316.608.117.134.377.067.52.158-.21 2.62 1.021 5.129 4.076 6.218-2.066-1.476-3.403-3.24-3.493-5.618.089.006.17-.001.239-.05.166-.113.333.228.533.203.174-.022.224-.275.3-.433.099-.202.232-.414.22-.638-.009-.19-.067-.403-.095-.592-.03-.187-.005-.503-.09-.672-.158-.318-.444-.34-.741-.533-.186-.122-.42-.17-.641-.18-.323-.015-.704-.089-.962.105-.16.12.06.404.021.6-.038.202-.256.36-.247.562zm1.61-.421c.046-.019.11.033.142.114.033.08.02.161-.026.18-.047.018-.11-.032-.143-.114-.032-.081-.02-.162.027-.18zm.14.444c.028-.012.095.02.123.09.027.068.005.151-.024.163-.029.012-.104-.032-.132-.102-.027-.07.003-.14.032-.15zm.248.226c.041-.015.094.022.118.084.025.063.012.127-.03.142-.04.016-.093-.021-.118-.083-.024-.062-.01-.126.03-.143zm-.005-.281c-.043.017-.061.07-.043.118.02.048.07.073.113.056.042-.017.061-.069.042-.117-.019-.049-.069-.074-.112-.057zm-.13-.336c-.038.015-.049.082-.023.15.027.067.08.11.12.094.04-.016.05-.083.023-.15-.026-.068-.08-.11-.12-.094zm-.42.26c.062-.024.13 0 .151.053.021.054-.012.118-.074.142-.062.025-.13 0-.15-.053-.021-.054.011-.117.073-.142zm-1.828.65c-1.218 3.48-.307 5.757 1.302 7.286 1.305 1.24 2.434 1.74 3.57 2.886-.735-1.33-1.891-2.011-3.066-3.25-1.543-1.628-2.651-3.792-1.743-6.919l-.063-.003zm4.543 8.458c2.35.68 2.37 3.964 4.014 5.981-2.235-1.63-1.767-4.636-4.014-5.981zm5.596 2.748c1.157 4.837 5.298 6.288 10.18 4.216-4.367 1.333-8.454.39-10.18-4.216zm3.074 1.836c1.621 2.096 4.785 2.404 7.066 1.437-2.39.488-5.06-.012-7.066-1.437zm10.31-3.94c2.33 2.355 2.018 6.566 5.66 6.219-3.985-.224-2.199-3.865-5.66-6.219zm.044 4.663c2.544 1.024 1.688 2.916 3.321 3.638 1.529.677 3.26-1.031 5.177-.31-2.034-.587-3.728 1.395-5.308.695-1.693-.749-1.14-2.808-3.19-4.023zm3.77 2.685c2.305.717 1.814-.586 5.43-.188-3.492-1.068-3.018.688-5.43.188zM18.895 21.57c.576 5.384 2.79 9.535 8.517 8.634 2.345-.369 4.136-.362 5.037 1.687-1.48-1.53-3.08-1.248-4.885-1.032-6.221.744-8.552-3.753-8.669-9.289zm22.24-14.138c.492.121.164.83-.051 1.043-.165.163-.423.19-.576.057-.242-.21.14-1.219.626-1.1zm-4.433 1.494c-.036-.2.113-.478.336-.542.278-.078.458-.294.743-.052.153.131.144.37-.02.533-.222.22-.96.599-1.059.061zm1.899-1.428c.184-.129.423-.107.534.048.197.272.37.589.025.843-.18.133-.422.12-.54-.032-.227-.291-.362-.62-.02-.859zm1.456-1.084c.224-.04.414.095.423.302.014.299-.372.527-.597.556-.225.03-.475-.176-.473-.383.003-.408.337-.42.647-.475zm-4.053 2.562c-.057.153-.277.32-.462.3-.208-.024-.43-.052-.527-.336-.052-.154.1-.354.281-.398.244-.061.862.022.708.434zm-2.072-.866c.468-.13.845.656.188.794-.427.09-.779-.63-.188-.794zm7.685-1.795c-.241-.075-.34-.534-.03-.66.122-.049.345.009.39.154.06.195-.017.612-.36.506zm1.642.933c-.04.106-.192.223-.32.209-.147-.016-.302-.035-.369-.234-.036-.107.07-.247.197-.277.17-.042.6.016.492.302zm.24-1.411c.505-.156.889.581.205.758-.318.066-.644-.637-.205-.758zm-5.584.77c-.048.125-.226.261-.377.245-.17-.019-.352-.042-.43-.274-.042-.125.245-.352.393-.387.199-.05.54.081.414.417zm-1.635.595c.432.209.172 1.034-.406.708-.375-.212-.14-.973.406-.708z" fill="#57C2C9"/></svg>