<svg width="180" height="43" fill="none" xmlns="http://www.w3.org/2000/svg"><path fill-rule="evenodd" clip-rule="evenodd" d="M179.805 25.33a3.423 3.423 0 01-1.033 1.032c-.875.559-1.722.521-2.54-.111-1.117-1.377-1.126-3.843-.029-7.398-2.307 5.453-4.224 8.123-5.75 8.012-1.204.168-1.958-.24-2.264-1.22-.521.76-1.064 1.403-1.728 1.96-1.154.986-2.373 1.265-3.657.838-.633-.28-1.163-1.787-1.591-4.523-.205-1.247-.382-2.103-.531-2.568-.26-.707-.604-1.005-1.033-.893-1.6.335-2.633 1.237-3.098 2.707-.13.41-.27 1.061-.419 1.954-.13.894-.26 1.536-.391 1.927a14.76 14.76 0 00-2.484-.698c.117-.74.224-1.44.323-2.102-.969 1.315-1.947 2.239-3.08 2.674-2.699 1.06-4.737.214-6.114-2.54a8.034 8.034 0 01-.865-3.211c-2.048 4.262-3.248 8.086-3.601 11.473-.484.205-1.164.224-2.039.056a1253 1253 0 002.178-14.85 52.91 52.91 0 01-2.178 3.126c-.632 2.4-1.712 4.205-3.237 5.415-1.601 1.247-3.043 1.266-4.327.056-.596-.577-.94-1.358-1.033-2.345-.112-1.172.725-1.433 2.512-.781-.763 1.358-.94 2.233-.53 2.623.372.335.809.28 1.312-.167.484-.41.958-1.098 1.423-2.066 1.061-2.177 1.629-4.42 1.703-6.727.101-3.142-1.224-3.574-3.974-1.604-1.203.861-2.401 2.235-3.326 3.312-.552 3.288-1.492 7.653-2.974 13.561 16.047 2.593 24.282 5.42 46.095-1.516.019.285.126.576.037 1.087-21.127 9.191-30.529 9.018-46.914 2.719-.986 2.326-2.057 4.103-3.21 5.331-1.769 1.88-3.927 2.82-6.477 2.82-2.252 0-3.787-.689-4.606-2.066-.596-1.023-.754-2.242-.475-3.657.298-1.47 1.201-2.68 2.708-3.629 2.234-1.377 5.472-1.851 9.715-1.423l1.591.167c.558-2.065.866-4.373.921-6.923 0 .055-.521.335-1.563.837-1.228.577-2.289.828-3.182.754-2.885-.205-3.651-3.75-2.178-10.608.449-2.092.058-2.775-.973-2.228-.744.396-1.401.929-2.561 1.847.029.212.052.432.069.66l.055.978c0 .893-.121 1.991-.362 3.293-.503 2.383-1.406 4.141-2.708 5.277-1.042.93-2.075 1.302-3.099 1.116-1.042-.186-1.517-1.005-1.424-2.456a7.183 7.183 0 011.257-3.602c.969-1.41 1.761-2.124 3.702-4.065-.073-.626-.191-1.067-.353-1.322-.502-.857-1.321-.93-2.456-.224-1.228.745-2.076 2.048-2.54 3.909-2.327 9.286-3.043 16.786-2.15 22.5.075.54-.986.4-3.183-.419l2.765-23.564c.213-1.82-.437-1.308-1.33-.191-.547.683-1.337 1.866-1.998 3.086-.255 2.499-.443 5.65-.643 10.173-.038 1.526-.335 3.098-.894 4.717-1.098 3.257-2.894 5.137-5.388 5.64-2.772.632-4.82.027-6.141-1.815-.651-.912-1.024-1.89-1.117-2.931l.363-.112c.707 3.555 2.773 4.56 6.198 3.015 2.028-.912 3.424-3.787 4.187-8.626.26-1.694.419-3.443.474-5.248.056-1.545.038-2.317-.055-2.317-1.043 1.768-2.345 2.884-3.909 3.35-.744.353-1.46.167-2.149-.559-.651-.689-1.117-1.693-1.396-3.015-.531-2.46-.285-4.669.738-6.625a9.999 9.999 0 01-3.25 1.712c.242.856.102 1.954-.42 3.294a10.873 10.873 0 01-2.26 3.518c-1.061 1.098-2.15 1.703-3.267 1.814-1.284.15-2.447-.419-3.489-1.703a4.882 4.882 0 01-.714-1.406c-2.856 2.999-7.11 9.33-6.27 2.35.215-1.78.536-4.317.965-7.609.474-3.724 1.14-9.207 1.497-12.172-.99.03-2.05.117-3.182.26-.474 1.85-1.111 4.684-1.365 6.045-.617 3.339-1.232 6.278-1.847 8.817-.858 3.3-1.561 5.596-2.11 6.886-.692 1.616-1.637 2.955-2.835 4.018-1.76 1.412-4.052 1.677-6.877.795-1.293-.413-2.31-1.021-3.051-1.824-.824-.907-1.2-1.965-1.126-3.172.164-1.862 1.136-3.379 2.916-4.55.893-.593 1.765-1 2.616-1.216l-.08.619c-1.436.578-2.376 1.352-2.823 2.323-.968 2.055-.805 3.748.49 5.079 1.234 1.273 2.929 1.716 5.084 1.33 1.644-.316 3.002-2.06 4.074-5.235 1.912-5.566 2.85-13.493 4.1-19.472a53.7 53.7 0 00-.238.045c-3.666.521-5.722.782-6.169.782-2.53-.075-3.992-1.117-4.383-3.127-.428-2.29.373-3.722 2.401-4.299 1.712-.484 3.285-.335 4.718.447-1.768-.168-3.062-.065-3.88.307-.857.41-1.108 1.088-.754 2.038.428 1.079 2.056 1.489 4.885 1.228 4.398-.399 16.78-4.178 19.318-.782 1.08 1.284 1.06 2.55-.056 3.797a6.409 6.409 0 01-2.01 1.48c.019-.261-.102-.55-.363-.866-.502-.651-1.414-1.107-2.736-1.368a14.767 14.767 0 00-2.102-.325c-.338 2.721-.944 8.153-1.203 11.077a161.65 161.65 0 01-.529 5.116c-.3 2.464 1.6 1.074 2.646.062a12.816 12.816 0 01-.18-2c-.037-2.308.522-4.187 1.676-5.639 1.358-1.693 2.996-2.54 4.913-2.54.93 0 1.656.223 2.177.67.577.52.689 1.2.335 2.038-.707-.317-1.498-.364-2.373-.14-1.768.428-3.09 1.973-3.964 4.634-.502 1.563-.651 2.885-.446 3.964.186.95.604 1.6 1.256 1.954.633.335 1.293.335 1.981 0 .727-.372 1.285-1.023 1.676-1.954.726-1.712.921-3.303.586-4.773-.298-1.266-.837-2.01-1.62-2.234l2.374-1.116c.82.963 2.896 2.245 6.372-.613.061-.075.124-.15.188-.225 1.972-2.289 3.694-2.977 5.164-2.066.745.466 1.285 1.154 1.62 2.066-1.564-.223-3.053.428-4.467 1.954-1.544 1.638-2.317 3.657-2.317 6.058 0 2.103.493 3.024 1.48 2.764.688-.186 1.488-.875 2.4-2.066.689-.875 1.396-3.276 2.122-7.202 1.544 0 2.559.232 3.043.698a15.81 15.81 0 00-.282 1.492 121.89 121.89 0 011.948-3.128c1.209-1.867 4.02-4.742 4.482-.626a6.712 6.712 0 011.396-1.423c1.135-.893 2.261-1.21 3.377-.95 1.03.446 1.722 1.365 2.076 2.758.989-.846 2.222-1.87 3.043-2.287.87-.441 1.737-.51 2.757-.331 1.137.2 1.359 2.224.67 6.058-.762 4.15-.967 6.42-.613 6.811.279.298.986.335 2.121.111 1.228-.241 2.112-.678 2.652-1.311.54-4.876.81-8.542.81-10.999 0-.26.539-.363 1.619-.307 1.079.056 1.637.223 1.675.502.124.797.043 2.17-.242 4.117.723-.903 1.952-2.125 2.797-2.885a9.68 9.68 0 012.192-1.51c2.29-1.099 3.76-.14 4.411 2.875a11.1 11.1 0 01.196 2.847 25.949 25.949 0 002.121-2.903c.54-3.834.809-6.076.809-6.728 0-.93-.269-1.377-.809-1.34-.372.019-.94.289-1.703.81l-.195-.196a7.493 7.493 0 011.424-1.647c1.097-.949 2.225-1.228 2.875-.362.555.74.298 3.591-.168 8.207-.372 3.778-.716 6.43-1.032 7.956.409-.93 1.144-2.187 2.205-3.769.577-2.252 1.749-3.964 3.517-5.137 1.824-1.19 3.471-1.228 4.941-.111.633.484.828 1.08.586 1.786-.26.8-1.042 1.136-2.344 1.006.614-1.006.623-1.74.027-2.206-.371-.298-.837-.195-1.396.307-.52.466-1.032 1.2-1.535 2.205-1.154 2.29-1.675 4.411-1.563 6.365.093 1.675.958 2.671 2.596 2.987 1.648.33 3.677-1.107 5.121-2.697.362-2.535.578-4.434.688-5.754.11-1.316.112-2.043-.053-3.2.442-.718 2.836-1.061 3.015-.846.287.346.148.796.128 1.987-.003.186-.121 1.63-.364 4.327 1.396-3.238 2.336-5.257 2.82-6.057 1.452-2.327 3.894-4.48 5.681-4.498 1.302-.019 2.215.242 2.736.782.428.428.53.949.307 1.563-.205.577-.577.94-1.117 1.089-.595.167-1.117-.047-1.563-.643 0-.632-.149-1.107-.447-1.423-.558-.559-2.293 1.026-3.559 2.795-1.731 2.419-2.782 4.401-3.154 5.946.949-.223 1.749-.363 2.4-.42.857.02 1.452.373 1.787 1.062.223.446.372 1.228.447 2.344.093 1.248.204 2.104.335 2.569.87 2.726 2.84 1.748 4.261-.228-.015-1.625.217-2.901.401-4.504.484-4.541.493-4.955.48-5.982.027-1.263 3.089-.816 3.025-.373-.304 2.124-.605 3.478-.798 5.601-.186 1.693-.279 2.773-.279 3.238-.018 1.005.159 1.507.531 1.507.763.15 1.879-1.534 3.35-5.052.26-.632.809-2.01 1.647-4.131.577-1.47.977-2.41 1.2-2.82.8.8 1.582 1.33 2.345 1.591-1.526 5.75-2.354 9.268-2.485 10.552-.093.931.084 1.443.531 1.536.298.055.828-.121 1.591-.53l.168.223zm-65.626 9.91c-1.302 1.246-1.749 2.596-1.34 4.047.391 1.415 1.294 2.103 2.708 2.066 1.303-.056 2.624-.642 3.964-1.759 1.582-1.32 2.829-3.163 3.741-5.527-1.88-.558-3.75-.67-5.611-.335-1.582.298-2.736.8-3.462 1.508zm-5.531-12.563c-.409 1.192-.456 2.094-.14 2.708.336.67.968.335 1.899-1.005.596-.875 1.015-1.978 1.256-3.31.169-.931.363-2.213.319-3.201-1.657 1.59-2.943 3.673-3.334 4.808zM25.54.01c5.134.108 10.188 1.13 13.656 3.105 2.523 1.435 4.556 3.367 6.034 5.641.645.722 1.368 1.42 1.53 1.704.288.507-.077.74.388 1.513.163.268.323.536.346.877.016.24-.035.43-.097.764l.032.123c.47.465 1.15 1.589 1.14 2.51-.011.85-.348 1.108-.544 1.698.003.097.005.193.005.29.002.125 0 .247 0 .37.408.177.847.442 1.297.769-.778.358-1.316.45-1.441 1.453-1.382 10.998-12.451 15.747-23.4 15.854-9.344.09-17.768-3.432-21.204-10.53-.16-.193-.325-.396-.527-.593-.605-.591-1.29-.541-1.858-2.153a5.2 5.2 0 001.212.02c.522 1.275 1.131 1.265 1.674 1.794.191.187.35.382.502.565C7.56 32.55 15.589 35.907 24.494 35.821c7.216-.07 14.486-2.258 18.72-7.065.172-.362.179-.803-.093-1.372a1.816 1.816 0 00-.07-.176c.35.207.743.191 1.187-.082a.69.69 0 00.33-.161c1.148-1.788 1.928-3.867 2.228-6.255.12-.955.633-1.043 1.374-1.385a6.674 6.674 0 00-1.237-.732c0-.118.003-.234.001-.353 0-.092-.002-.184-.005-.276.187-.563.508-.81.518-1.619.01-.877-.638-1.948-1.085-2.391l-.032-.119c.06-.317.108-.498.093-.727-.022-.325-.175-.58-.33-.836-.443-.737-.095-.959-.37-1.442-.154-.271-.844-.936-1.458-1.624-1.409-2.167-3.347-4.009-5.75-5.377C35.209 1.948 30.392.974 25.497.871 17.388.7 10.946 2.605 6.958 7.02c-.085.093-.168.186-.251.281.138-.474.172-.99.23-1.62a14.32 14.32 0 00-.29.19C10.864 1.66 17.402-.158 25.54.012zM2.195 23.189a21.101 21.101 0 01-.163-.652C1.454 22.234.886 21.92.47 21.374c-.92-1.207-.291-2.515.238-3.364.02.54.23.955.532 1.313-.154.605-.121 1.272.365 1.909.397.521.938.82 1.49 1.107.065.281.136.559.213.832a5.167 5.167 0 01-1.112.017zM1.509 18.6l-.008-.365c-.023-2.532.402-4.773 1.2-6.74.36-.887.83-1.727 1.378-2.523.275-.4.237-.648.25-1.092.048-1.671.9-2.286 1.736-2.823-.053.576-.086 1.06-.19 1.504-.333.416-.568.974-.592 1.81-.013.423.024.658-.239 1.04-.522.76-.97 1.56-1.312 2.405-.762 1.875-1.167 4.011-1.144 6.423.004.447.027.904.068 1.365-.45-.415-.8-.892-.825-1.58-.108.174-.22.368-.322.576zm30.542-6.224a1.5 1.5 0 00-.625-.614.844.844 0 01-.145.781c.239-.002.512-.047.77-.167zm10.034 14.868c.346.462.231 1.265-.481 1.44.444-.452.532-.817.481-1.44zm-1.006.12c.242.19.356.423.278.716-.11.02-.24.033-.474.018-.047-.237-.002-.48.196-.734zm-.54.316c-.269.49-.05.913.566 1.127-.316-.232-.474-.643-.566-1.127zm1.264-.587c-.635-.245-.973-.125-1.287.024.38-.083.792-.095 1.327.165l-.04-.19zm1.912-.394c.473.013.747-.254.776-.867-.116.488-.417.718-.776.867zm-.44-.014c-.3-.113-.436-.415-.37-.952.07.342.19.66.37.952zm.342-.243a.823.823 0 00.314-.337.474.474 0 00-.387-.105.9.9 0 00.073.442zm-30.35-10.859a1.411 1.411 0 01-.468.452.966.966 0 01-.514.131.958.958 0 01-.5-.166 1.195 1.195 0 01-.187-.157l-.02.098c-.014.078-.056.15-.065.23-.01.1.005.202.008.304 0 .041.025.089.006.125-.047.085-.16.124-.194.214-.031.082.058.18.055.267-.003.086-.069.166-.074.252-.004.087.026.178.003.262-.031.114-.06.255-.16.315-.072.044-.193-.005-.24-.074-.041-.058.06-.137.046-.206-.02-.105-.156-.172-.203-.27-.04-.081.014-.193-.004-.282-.017-.08-.054-.147-.04-.227.019-.104.079-.2.087-.306.008-.096-.037-.192-.037-.29 0-.114.008-.232.04-.342.014-.045.081-.06.093-.106.016-.067-.052-.148-.016-.208.037-.064.153-.04.197-.1.027-.035-.049-.092-.027-.133a.099.099 0 01.041-.037 1.051 1.051 0 01-.15-.26c-.088.564-.834.679-1.596.776-.153-.014-.168-.1-.22-.167-.079-.104-.182-.239-.183-.386 0-.13.097-.268.135-.42.765-.293 1.434-.495 1.805-.03l-.002-.013a.943.943 0 01.104-.553h.001l.007-.013c-.044-.006-.088-.01-.113.001a.621.621 0 01-.223.058c-.067 0-.072-.065-.158-.06a1.474 1.474 0 00-.34.094c-.064.03.026.073-.03.074-.055.001-.173-.063-.24-.07-.066-.007-.121.025-.146.03-.024.004-.194.044-.244.05-.049.007-.17-.163-.219-.142-.049.022-.202.128-.294.128-.093 0-.127-.122-.197-.125-.069-.003-.066.12-.146.109l-.005-.001-.017.03c-.676 1.184-1.985 1.574-2.647.242-.08.857.282 1.435.84 1.684l-.077.141-.043.008a4.603 4.603 0 01-1.529-.024c.243.339.7.835 1.133 1.056-.365 1.195-.173 2.219.376 3.136-.331-1.202-.017-2.07.372-2.934-.547 3.08-.272 5.737 2.519 7.583 4.135 2.737 1.003 4.081 4.254 6.436 2.129 1.54 5.426.55 6.711 3.124-5.479-.847-10.173-3.449-13.185-7.073.7-1.729.137-1.521-.013-3.006-.045.073-.759.728-1.074 1.543l-.016-.025c.19-1.515.079-2.28-1.37-3.123a.676.676 0 00-.194-.087c.306-1.183-.102-1.81-.679-2.38a14.063 14.063 0 01-.212-2.407c-.005-2.082.299-3.871.82-5.419 1.592-1.027 2.073-1.266 2.53-3.271-.681.343-1.149.638-1.486.924C7.431 7.426 10.2 5.521 12.69 4.095c-.925 1.17-.6 2.346.106 2.931-4.664 2.937-3.1 4.54-3.856 6.72a.29.29 0 00.095.023c.067-.004-.06-.086.008-.09.07-.006.245.078.32.068.076-.01-.029-.113.055-.117.084-.005.281.089.363.094.082.004-.077-.095-.042-.14.035-.046.121-.02.21-.042.087-.021.157.032.242.02.086-.013.142-.063.223-.07.08-.006.227.003.288-.016.06-.019-.017-.059.04-.085a.638.638 0 01.271-.065c.087.008.115.116.215.112.1-.003.235-.111.335-.133.099-.02.18.04.251.008.07-.031.056-.147.118-.175.062-.028.136.049.195.035.06-.013.057-.075.127-.106a.531.531 0 01.057-.022.562.562 0 01.184-.169c-.723-.577-.044-.915.116-.966-.415-.112-.82-.242-1.27-.24.336-.589.912-1.386 1.928-1.227 1.053.165 1.732.827 1.838 1.855.198-.06.232-.564.135-.756.373.52.635.667 1.279.717.744.057 1.193.412 1.231 1.045.02.354.107.584.287.765-.464.047-.946.1-1.227-.032a2.822 2.822 0 00-.695-.237 1.874 1.874 0 00-.086-.14c-.217-.4-.474-.641-.76-.773a1.29 1.29 0 00-.274-.092c-.007-.148-.286-.123-.644-.033.278-.188.53-.387.455-.52-.067-.116-.31.071-.563.28.16-.33.288-.63.174-.667-.146-.049-.318.246-.493.57-.06-.384-.128-.735-.235-.7-.127.042-.1.364-.057.719-.365-.347-.7-.583-.784-.384-.035.083.018.19.175.329-.38-.15-.553-.132-.534.01.03.21.333.392.714.54-.42.088-.708.178-.675.374.011.066.111.025.452-.077-.2.11-.301.222-.215.321.066.077.21.069.45-.043-.096.165-.181.413-.09.413.178-.003.37-.562.396-.577-.156.529-.124.756.025.712.151-.046.262-.25.343-.52.04.242.096.43.206.435.114.005.1-.303.07-.647.24.261.477.506.6.425.108-.069-.145-.367-.403-.666l.045-.003c.515-.087.995.04 1.363.723.187.267.31.619.251 1.212-.111.535-.315.742-.514.962l-.134-.302c-.256.378-.548.443-.847.45-.567.12-.93-.097-1.147-.552a1.217 1.217 0 01-.069-.062l-.042.066h-.002v.001zM15.2 11.39l-.035-.008a3.718 3.718 0 00-.656-.703 2.485 2.485 0 00-1.3-.526c-.08-.2-.097-.416-.044-.646.222-.963 1.332-1.312 1.97-2.059-.48.492-.856 1.825.065 3.941zm8.505.753c.578-.57 1.431-.939 2.478-1.156.04.1-.15.155-.175.352.278.274.591.222.825-.154-.025.266-.221.48-.628.627.132.05.285.027.452-.044-.24.211-.528.308-.837.397a.672.672 0 00.198.022c-.075.023-.149.04-.22.052a1.001 1.001 0 01-.12.36c-.133-.074-.164-.205-.188-.34-.54-.009-.984-.231-1.276-.02.317.337.768.662 1.599.422a.154.154 0 01-.01.13c-1.117.33-2.088-.25-2.668-.698.17.038.523.083.57.05zm3.455 3.217c-.272.218-.229.44.057.559a.833.833 0 01-.057-.559zm-3.956-4.553c1.162-.577 1.923-.803 3.136-.17.233.123.3-.424.09-.503-1.59-.594-2.242-.203-3.226.673zM17.979 12.4c-.613-.14-1.348-.292-1.254-.83.041-.235.188-.367.392-.433a1.321 1.321 0 01-.125-.17c-.325.295-.71.473-1.22.409-.57-.306-.807-.92-.66-1.89.115.004.23.027.345.012.135-.018.257-.1.393-.11.054-.006.096.053.148.066.134.031.279.018.409.064.081.03.132.118.208.157a1.312 1.312 0 01.078-.503c.124-.335.375-.561.7-.743.395-.266.724-.396 1.005-.434.057-.008.113-.012.168-.013-.21-.344-.236-.883-.104-1.56.132.042.259.148.395.125.124-.022.164-.249.29-.242.15.008.23.194.356.275.076.05.165.076.248.115.165.572.107 1.243-.12 1.546a1.115 1.115 0 01.371.291 1.458 1.458 0 01.17-.801c.139-.256.43-.48.673-.638.185-.12.377.016.552.084.138.053.171.23.255.351.128.184.317.342.376.558.05.187-.028.39-.008.582.015.145.136.28.111.423-.033.19-.191.335-.274.509-.053.114-.026.287-.132.356-.086.054-.202-.041-.297-.08-.318-.13-.678-.202-.938-.427a1.418 1.418 0 01-.155-.155 1.316 1.316 0 01.06.512c.437.057.877.3 1.495.354.333-.363.633-.761.89-1.233a1.662 1.662 0 01-.29-.043c-.016-.05-.037-.097-.057-.145v-.001a.462.462 0 01-.036-.098.996.996 0 01.01-.192 1.054 1.054 0 00-.011-.435 1.169 1.169 0 00-.255-.445l.02-.011c.157-.09.223-.183.233-.28a1.763 1.763 0 011.201.037 2.14 2.14 0 01.543-.503c-.157.191-.294.38-.412.567.136.076.257.175.355.299.11.139.242.176.43.258-.168.055-.254.2-.342.352-.214.367-.625.578-1.06.63a4.24 4.24 0 01-.667 1.238c.18-.02.376-.056.587-.117-.496.504-1.013.976-1.53 1.082-.18.155-.363.304-.546.454a2.28 2.28 0 00-.179-.372l.15-.129a1.363 1.363 0 01-.552-.382 1.79 1.79 0 01-.178.258c.35.28.588.769.667 1.464.063.554-.513.89-.802 1.898-.626-.641-.636-1.219-.841-1.763a4.628 4.628 0 01-.255-.884l-.085.015a1.717 1.717 0 01-.637-.018 2.24 2.24 0 01-.452-.093v.003c.037.17.776.128.795.38.008.109-.175.183-.6.2.069.112.05.184-.005.249zm-.478-1.32c.223-.006.473.022.715.06.078.068.145.145.156.234.308.052.669.014 1.162-.25.464-.314.58-.587.71-.861l-.337-.01c.258-.39.206-.691.097-.978-.108-.583-.454-.842-.97-.87-.328-.178-.766-.2-1.479.283-.39.216-.648.495-.633.984.036.002.067.013.089.043.063.088-.012.223-.031.337.012.049.026.1.043.15.067.033.118-.207.21-.25.05-.022.105.035.149.067.078.06.142.138.212.207-.12.18-.246.356-.381.512.07.13.164.246.288.342zm1.341-.404c-.483.045-1.008-.39-.822-.977.13.517.354.74.822.977zm.233-.136c.454-.348.516-.643.547-.933-.106.308-.279.61-.7.879l.153.054zm.123-.639c-.243.09-.46.07-.636-.114.034-.087.083-.186.195-.348.191.071.346.21.441.462zm.01-.525c-.232-.407-.632-.437-1.056-.089.305-.125.669-.057 1.056.089zm1.864-2.616a1.17 1.17 0 01.041-.14c.082-.201.168.073.23.004.063-.07.015-.247.057-.328.043-.081.138-.055.182-.122.044-.067.035-.174.066-.255.03-.08.054-.182.12-.224.064-.043.16.064.21.01.05-.055-.001-.185-.005-.234-.005-.049-.044-.004-.02-.06a.986.986 0 01.152-.252c.063-.064.171-.058.207-.113.036-.055-.039-.081-.032-.156.007-.075.03-.226.075-.28.045-.056.082.081.127.032s.045-.17.079-.256a1.38 1.38 0 01.126-.263c.047-.065.118-.066.145-.117.028-.05-.057-.097.004-.16.061-.064.23-.087.323-.177.092-.09.128-.298.214-.348.086-.05.094.083.106.158.012.076-.018.129-.04.265-.021.136-.05.426-.09.553-.038.127-.124.132-.135.19-.01.059.096-.003.085.087-.011.091-.118.29-.145.401-.028.112.011.179-.016.26-.029.083-.115.124-.145.217-.03.093.022.228-.033.324-.055.097-.22.132-.27.207-.049.075.033.122.002.197-.032.076-.138.137-.18.233-.043.096-.012.245-.07.329-.056.084-.165.076-.242.13-.075.052-.176.103-.21.187-.033.082.238.137.033.254a.945.945 0 01-.059.03l-.032-.064v-.001c-.07-.144-.14-.287-.335-.363a2.105 2.105 0 01-.09-.039c-.136-.061-.278-.126-.436-.116zm.01 2.46c-.042.007-.08-.025-.087-.07-.006-.044.016-.121.057-.128.041-.005.086.062.092.107.006.045-.022.086-.063.092zm-.25-.134c-.044.006-.088-.043-.097-.11-.01-.067.019-.127.063-.133.045-.006.09.043.099.11.009.067-.02.127-.064.133zm.32-.376c-.05.006-.098-.038-.106-.101-.01-.063.023-.119.073-.126.049-.007.096.038.105.1.009.063-.024.12-.073.127zm-.353-.048c.05-.007.084-.064.075-.127-.01-.063-.057-.108-.108-.101-.05.007-.084.064-.074.127.009.063.057.108.107.101zm.26-.37c-.05.008-.097-.034-.105-.091-.008-.059.024-.112.074-.118.05-.008.095.034.104.092.008.058-.025.111-.074.118zm-.302-.022c.032-.004.07-.063.06-.13-.01-.067-.063-.117-.095-.113-.03.005-.09.073-.08.14.01.067.084.108.115.103zm-.16.536c.036-.005.075-.077.07-.122-.007-.044-.052-.086-.087-.082-.037.006-.08.056-.075.1.007.046.057.109.093.104zm2.56 14.183a8.248 8.248 0 01-.666.093c-2.905.269-4.473-1.504-5.192-4.398.386 3.591 2.307 5.012 5.48 4.538 6.676-.998 6.191 4.4 10.993 4.337-2.468-.512-4.168-2.472-4.97-4.772 1.77.075 1.24-1.976 1.926-2.835-.692-.844-1.064-1.255-1.362-1.932-.686-1.561-.094-3.626.666-5.3l.148-.009.092.08c.028-.01.057-.019.085-.027.88.116 1.6-.207 1.765-.131.133.06.198.04.199-.045-.242-.76-.76-1.409-1.461-1.466.086-.142.174-.28.267-.412.274.079.547.163.82.229.274.065.643-.266.085-.436-.212-.065-.414-.128-.61-.185.99-1.21 2.439-2.016 5.188-2.556.35.726.774 1.569 1.438 2.128.164 1.07.374 2.1 1.098 3.03-.418 1.614-.686 3.25-1.165 4.84a1.71 1.71 0 01-.094.24.12.12 0 01.004-.035c-.654 1.24-1.429 1.793-2.147 2.238-.744.46-1.49 1.084-2.36 1.059-.485-.015-.84-.087-1.219-.284.342.357 1.005 1.3 2.753.522.879-.391.887 2.536 1.21 3.444.444-.555 1.465-1.18 3.64-1.252-.267.103-.424.276-.489.476-.266.82-.918.458-1.217.718-.299.26-.315.81-.51 1.018-.195.207-.84.265-1.018.444-.178.178.017.625-.142.852-.159.226-.633.196-.81.44-.177.246-.148.787-.331 1.019-.163.206-.512.339-1.01.413-.721-.546-1.503-1.233-2.933-1.545 1.72.79 2.37 2.055 3.569 2.509 2.378.898 3.144-.738 5.094-.852a1.13 1.13 0 01-.309-.72c-.29-.542-.242-1.054.282-1.526.222-.289.497-.53 1.051-.508l-.2-.35c.36-.038.71-.09 1.317.185.094.057.181.113.26.17-.352-.716.004-1.327.829-1.426.365-.303.822-.36 1.16-.13-.375-.531-.984-.9-1.873-1.025-.206-.029-.854-.12-1.365-.185-1.324-.191-2.965-.456-3.455-.773-.743-.483-1.205-1.66-.917-2.952.054-.24.284-.52.61-.843l.37-.104c-.364.695.162 1.62 1.135.943.273-.19.752.014.408.45-.546.691-.35 1.247.079 1.563-.119-.37-.188-.856.263-1.394.543-.648-.197-1.335-.775-1.012-.66.37-.73-.192-.468-.381 1.01-.732 1.774-.175 2.639-3.1.59-.592 1.314-1.372 1.05-2.737-.283-1.462.565-1.909-.8-3.867-.656-.94.096-1.904-1.158-3.049-2.168-1.978-3.367-3.668-4.777-3.022-1.1-.785-2.176-.91-4.277.11-2.657-1.316-5.831-1.741-8.71-1.568-3.264.196-6.506.62-9.414 2.056-.305 1.554 1.157 1.943 2.687 1.506 1.118-.318 3.476-2.856 6.835-1.52l.01-.014a.44.44 0 01.064-.072c-.002-.069.024-.146.113-.238a.617.617 0 01.232-.138h-.001a.56.56 0 00.097-.045.839.839 0 00.044-.092c.052-.115.1-.224.225-.296.216-.127.357-.052.455.115a.558.558 0 01.066.22h.001l.004.023c.015.1 0 .16-.02.246v.001a1.906 1.906 0 00-.021.102v.001l-.02.143c-.02.152-.046.34-.078.446v.002a.606.606 0 01-.037.094.62.62 0 01.001.086c.195.123.393.26.593.41 2.857-.635 5.517 2.987 3.857 5.988.426-2.782-.986-4.647-2.79-4.34 1.139.892 1.566 1.882 1.859 3.133.29 1.236-.238 1.443.002 2.756.157.859.765 1.725 1.26 2.236.372.386.296.657.063.832-.2.151-.463.311-.792.461a1.38 1.38 0 00.22.814c.159.269-.085.629-.61.698-.32.021-.614.009-.824-.1.057.537 1.246.039 1.256 1.02-.453.295-.583.417-.492 1.1.149 1.109-.396 1.447-.944 1.493-2.042.17-3.304-.582-4.278 1.713-2.32-.698-3.343-2.647-3.077-4.973.826-.166 1.658-.8 1.977-1.387-1.207.856-2.497.652-3.262-.353.135 3.183 1.213 6.72 4.858 6.924.235.013.464.007.698.005zM10.443 12.05c-.115-1.494.867-2.85 2.716-4.098-1.343 1.178-2.232 2.551-2.716 4.098zm2.47-6.312c.69 1.147 2.04.982 3.865-.23-1.786.836-3.127.967-3.865.23zm5.21-.876c1.416-.393 2.719-.429 3.878-.008v.009l-.003.024a.464.464 0 00-.094.074.767.767 0 00-.065.077c-1.238-.278-2.478-.296-3.717-.176zm.885 7.939c-1.31 1.734-.384 3.983 1.725 3.443-1.06.073-2.004-1.32-1.503-2.714-.062-.165-.107-.327-.152-.486a10.365 10.365 0 00-.07-.243zm15.908-.427a1.51 1.51 0 01.624-.615c-.086.263-.087.534.092.772a1.638 1.638 0 01-.716-.157zm1.489-.597c.192.09.38.255.496.474-.17.122-.37.229-.674.28.202-.207.278-.453.178-.754zm-1.759.808c.316-.764.75-1.27 1.453-1.323-.012.087.23.027.296-.047a.307.307 0 01-.03.135.495.495 0 00.222-.11c.002.018-.05.137-.05.165.086-.035.206-.144.258-.19-.004.044-.064.156-.069.199.112-.033.218-.133.26-.166-.004.029-.062.124-.066.152.1-.012.218-.11.284-.154-.023.05-.1.17-.124.222.132-.018.234-.077.288-.1a.938.938 0 01-.13.157c.07.016.14-.009.21-.023a9.612 9.612 0 00-.065.11c.097 0 .19-.017.27-.08a.565.565 0 01-.11.194.437.437 0 00.29-.074.683.683 0 01-.163.232.437.437 0 00.273-.063.71.71 0 01-.196.218.491.491 0 00.217-.024c-.17.165-.348.32-.595.367.013.065.037.14.04.204-.05-.007-.118-.023-.168-.01l.016.06a.813.813 0 00-.253 0l.044.103a.65.65 0 00-.282-.032.167.167 0 01-.055.082c-.06-.02-.087-.03-.15-.023-.857.098-1.553-.212-1.716-.138-.133.06-.197.04-.199-.043zm1.387-.638c.133.105.06.367-.123.32l.035-.187c-.038.033-.07.078-.122.12-.095-.047-.014-.428.21-.253zm-1.071-1.43c-.558.17-.216.501.058.435.695-.167 1.387-.394 2.094-.434.268-.015.624.164.863.262-.152-.237-.66-.587-1.015-.6-.67-.024-1.267.114-2 .337zm-4.759 1.835c.087-.18.174-.353.26-.519a.93.93 0 01.098-.053c-.1.302-.078.557.124.764a1.146 1.146 0 01-.482-.192zm.731-.403c-.133.107-.114.378.068.33l-.034-.186c.038.032.069.078.121.12.096-.047.068-.439-.155-.264zm.908 5.43c.534.101 1.094.221 1.656.223.593.002.954-.116 1.512-.153-.362.173-1.167.468-1.517.464-.498-.005-1.187-.285-1.651-.533zm-.708-.174c.439.038 1.021-.197 1.49-.319.18-.047.584.212.811.226.228.014.528-.207.712-.159.508.133.946.421 1.553.342-.601.528-1.033 1.408-2.243 1.407-1.226-.001-1.778-1.002-2.323-1.497zm2.596-1.32c.223-.077.285-.205.39-.251.18-.077.297.034.312.15-.044.049-.185.006-.312.016-.128.008-.173.05-.39.084zm-.596-.02c-.211-.081-.259-.218-.359-.266-.17-.08-.295.032-.312.144.04.049.178.012.3.027.122.012.165.054.371.094zm-18.812-.489c-.454-.058-.629-.409-.472-.921 0 .322.197.626.472.921zm.471-.205c-.009-.252-.107-.44-.34-.531a1.606 1.606 0 00-.24.306c.133.146.317.233.58.225zm.53-.347c-.144.539-.388.704-.638.84.239-.21.446-.478.533-.958l.106.118zm.038-.26c-.14-.455-.726-.767-1.189-.38.517-.075.8.044 1.189.38zm-2.342.854c-.417.62-1.037.59-1.386-.026-.505-.263-.656-.857-.123-1.275.094-.33 1.02-.598 1.337-.115.524.376.545.855.172 1.416zm-.477-.76a.642.642 0 00-.338-.125.368.368 0 00.04.31.697.697 0 00.298-.186zm.279.173c.009.25-.168.44-.576.555.226-.154.419-.337.576-.555zm-.124-.322c-.133-.345-.408-.463-.86-.298.388-.063.645.084.86.298zm.94-1.474c-.057-.634.496-.336.486-.18-.033.502-.462.434-.485.18zm6.154 19.534c1.544 1.92 2.136 1.76 3.617 2.007a.73.73 0 00.408.23c.725.448 1.32.23 1.815-.514.073-.11.13-.22.171-.326.48.84 1.054.92 1.724.735 1.062-.192 1.435-.596 1.573-1.042.436-.478.52-1.013.104-1.63-.153-.353-.372-.67-.944-.79l.294-.306c-.357-.131-.702-.273-1.392-.148-.735.215-1.094.532-1.32.884-.326.392-.463.748-.473 1.08a1.505 1.505 0 00-.478-.134c-.578-.48-1.38-.36-1.62.502-.165.134-.22.486-.154.836-1.027-1.024-1.492-1.36-3.325-1.384zm7.144-.777c-.473.385-.562 1.234.121 1.597-.338-.577-.333-.972-.121-1.597zm.997.382c-.296.133-.472.34-.468.662.107.047.236.093.48.139.109-.23.125-.491-.012-.8zm.471.462c.15.569-.183.946-.869 1.006.384-.157.65-.535.869-1.006zm-1.14-.925c.71-.087 1.025.123 1.308.356-.367-.183-.784-.302-1.399-.173l.09-.183zm-2.906 2.655c-.49.014-.773-.262-.803-.897.121.505.432.744.803.897zm.456-.014c.309-.117.45-.43.383-.985a3.043 3.043 0 01-.383.985zm-.354-.252a.846.846 0 01-.325-.349.487.487 0 01.4-.108.93.93 0 01-.075.457zm19.944-9.782c2.18-1.753 1.353-1.642 1.947-3.209-.064.04-.782.247-1.393.691.167-.705.903-1.714 2.725-2.484-1.227-.738-2.309-.823-2.772-.04-.453.766-.042 1.667.006 2.554-.672.505-1.193 1.303-.513 2.488zm.816-6.062c.61-.215 1.248-.482 1.651-1.312.45-.926-.143-1.71-.61-2.203-.342 1.142-1.487 1.712-1.041 3.515zm-1.06 3.443c.034-1.704-.628-1.708-1.772-2.548.225 1.404.098 1.739 1.771 2.548zm.407-11.544c.698 1.012.193 1.325.338 2.208.121.734.487.947.65 1.972.13-.4.502-.79.475-1.209-.031-.453-.431-.81-.553-1.247-.08-.29.022-.65-.127-.911-.198-.35-.477-.55-.783-.813zm-35.219 6.5c.029-.024.059-.007.067.04.008.045-.008.101-.036.125-.029.024-.058.006-.067-.04-.008-.044.008-.1.036-.125zm-1.15.453c-.26-.088-.535-.317-.78-.351-.57-.078-.806.167-1.603.076.27.18.492.473.81.539.344.07.692-.154 1.043-.154.188 0 .381.105.567.116.05.192.144.377.273.524.1.115.324.057.448.136-.181 2.256.879 4.417 3.51 5.355-1.78-1.271-2.93-2.791-3.008-4.838.076.005.145-.001.205-.043.143-.098.287.196.46.175.149-.02.192-.238.258-.374.085-.174.2-.356.19-.549-.008-.164-.059-.347-.083-.51-.025-.16-.004-.433-.076-.579-.137-.273-.384-.292-.64-.459a1.099 1.099 0 00-.551-.155c-.278-.012-.607-.076-.829.09-.138.105.051.349.018.518-.033.173-.22.31-.213.483zm1.386-.362c.04-.016.095.028.123.098.028.069.017.139-.023.155-.04.016-.096-.028-.123-.098-.028-.07-.018-.139.023-.155zm.12.383c.025-.01.083.016.107.076.023.06.004.131-.021.141-.025.01-.09-.027-.114-.087-.023-.06.003-.12.028-.13zm.214.194c.036-.013.081.019.102.073.022.053.01.109-.025.122-.035.013-.08-.019-.102-.072-.021-.054-.01-.109.025-.123zm-.004-.242c-.037.015-.053.06-.037.101.017.042.06.063.097.049.036-.015.053-.06.036-.101-.016-.042-.059-.063-.096-.05zm-.111-.29c-.034.014-.043.072-.02.13.022.058.069.094.103.08.034-.013.042-.07.02-.128-.023-.059-.07-.095-.103-.082zm-.363.225c.054-.021.112 0 .13.045.019.047-.01.102-.063.123-.054.021-.112 0-.13-.046-.018-.046.01-.1.063-.122zm-1.574.56c-1.05 2.996-.265 4.957 1.121 6.274 1.124 1.069 2.096 1.498 3.076 2.486-.634-1.146-1.63-1.732-2.642-2.8-1.328-1.4-2.283-3.265-1.5-5.958l-.055-.002zm3.913 7.284c2.023.586 2.04 3.414 3.457 5.151-1.925-1.404-1.522-3.993-3.457-5.151zm4.819 2.367c.996 4.165 4.563 5.415 8.768 3.63-3.762 1.149-7.282.336-8.768-3.63zm2.647 1.581c1.397 1.805 4.121 2.07 6.086 1.237-2.059.42-4.358-.01-6.086-1.237zm8.88-3.393c2.007 2.027 1.738 5.654 4.875 5.355-3.432-.193-1.894-3.328-4.875-5.355zm.038 4.015c2.19.882 1.454 2.511 2.86 3.134 1.317.583 2.807-.889 4.459-.267-1.752-.506-3.21 1.201-4.572.598-1.458-.645-.982-2.418-2.747-3.465zm3.247 2.313c1.985.617 1.562-.505 4.675-.162-3.007-.92-2.598.593-4.675.162zM16.273 18.577c.496 4.637 2.404 8.211 7.335 7.436 2.02-.318 3.563-.312 4.339 1.453-1.275-1.318-2.653-1.075-4.208-.889-5.358.641-7.365-3.232-7.466-8zM35.426 6.401c.425.104.142.714-.043.898-.142.14-.364.163-.496.05-.208-.181.121-1.05.54-.948zM31.61 7.688c-.032-.172.096-.413.288-.467.24-.068.395-.253.64-.045.133.113.124.318-.017.46-.19.189-.827.515-.911.052zm1.635-1.23c.158-.111.364-.092.46.041.17.235.319.507.022.726-.155.115-.364.103-.465-.028-.197-.25-.313-.534-.017-.74zm1.254-.934c.193-.035.356.082.364.26.012.257-.32.454-.514.479-.193.025-.409-.151-.408-.33.003-.352.29-.362.558-.409zm-3.49 2.207c-.05.131-.24.275-.398.257-.18-.02-.372-.044-.455-.288-.044-.133.087-.305.242-.343.21-.053.743.019.61.373zm-1.785-.746c.403-.112.727.565.161.684-.368.076-.67-.543-.161-.684zm6.619-1.547c-.208-.064-.294-.46-.027-.567.105-.043.297.007.336.132.052.168-.014.527-.31.435zm1.414.805c-.035.091-.166.191-.277.179-.125-.013-.259-.03-.317-.201-.03-.092.06-.213.17-.239.146-.036.517.014.424.26zm.207-1.216c.434-.134.765.5.175.653-.273.057-.553-.548-.175-.653zm-4.81.664c-.041.107-.195.224-.325.21-.146-.016-.303-.036-.37-.236-.036-.108.211-.302.338-.333.171-.043.465.07.357.359zm-1.408.511c.372.18.148.891-.35.61-.323-.182-.12-.837.35-.61z" fill="#57CCCC"/></svg>