<svg id="Таблица_копия" data-name="Таблица копия" xmlns="http://www.w3.org/2000/svg" width="577" height="450.56" viewBox="0 0 577 450.56">
  <defs>
    <style>
      .cls-1 {
        fill: #f3f5fa;
        opacity: 0.28;
      }

      .cls-2 {
        fill: #8bc3ea;
        opacity: 0.23;
      }

      .cls-2, .cls-3, .cls-4 {
        fill-rule: evenodd;
      }

      .cls-3 {
        fill: #203a5b;
      }

      .cls-4 {
        fill: #a6abcc;
      }
    </style>
  </defs>
  <rect id="Прямоугольник_3_копия_2" data-name="Прямоугольник 3 копия 2" class="cls-1" y="54.56" width="577" height="36"/>
  <rect id="Прямоугольник_3_копия_3" data-name="Прямоугольник 3 копия 3" class="cls-1" y="126.56" width="577" height="36"/>
  <rect id="Прямоугольник_3_копия_4" data-name="Прямоугольник 3 копия 4" class="cls-1" y="198.56" width="577" height="36"/>
  <rect id="Прямоугольник_3_копия_5" data-name="Прямоугольник 3 копия 5" class="cls-1" y="270.56" width="577" height="36"/>
  <rect id="Прямоугольник_3_копия_6" data-name="Прямоугольник 3 копия 6" class="cls-1" y="342.56" width="577" height="36"/>
  <rect id="Прямоугольник_3_копия_7" data-name="Прямоугольник 3 копия 7" class="cls-1" y="414.56" width="577" height="36"/>
  <path id="Фигура_1" data-name="Фигура 1" class="cls-2" d="M441,3469v-1H997v1H441Z" transform="translate(-431 -3414.44)"/>
  <path id="Фигура_1_копия" data-name="Фигура 1 копия" class="cls-2" d="M441,3506v-1H997v1H441Z" transform="translate(-431 -3414.44)"/>
  <path id="Фигура_1_копия_2" data-name="Фигура 1 копия 2" class="cls-2" d="M441,3541v-1H997v1H441Z" transform="translate(-431 -3414.44)"/>
  <path id="Фигура_1_копия_3" data-name="Фигура 1 копия 3" class="cls-2" d="M441,3578v-1H997v1H441Z" transform="translate(-431 -3414.44)"/>
  <path id="Фигура_1_копия_4" data-name="Фигура 1 копия 4" class="cls-2" d="M441,3613v-1H997v1H441Z" transform="translate(-431 -3414.44)"/>
  <path id="Фигура_1_копия_5" data-name="Фигура 1 копия 5" class="cls-2" d="M441,3650v-1H997v1H441Z" transform="translate(-431 -3414.44)"/>
  <path id="Фигура_1_копия_6" data-name="Фигура 1 копия 6" class="cls-2" d="M441,3685v-1H997v1H441Z" transform="translate(-431 -3414.44)"/>
  <path id="Фигура_1_копия_7" data-name="Фигура 1 копия 7" class="cls-2" d="M441,3722v-1H997v1H441Z" transform="translate(-431 -3414.44)"/>
  <path id="Фигура_1_копия_8" data-name="Фигура 1 копия 8" class="cls-2" d="M441,3757v-1H997v1H441Z" transform="translate(-431 -3414.44)"/>
  <path id="Фигура_1_копия_9" data-name="Фигура 1 копия 9" class="cls-2" d="M441,3794v-1H997v1H441Z" transform="translate(-431 -3414.44)"/>
  <path id="Фигура_1_копия_10" data-name="Фигура 1 копия 10" class="cls-2" d="M441,3829v-1H997v1H441Z" transform="translate(-431 -3414.44)"/>
  <path id="_1_линия_2_линия_3_линия_4_линия_5_линия_6_линия_7_линия_" data-name=" 1 линия  2 линия  3 линия  4 линия  5 линия  6 линия  7 линия " class="cls-3" d="M463.216,3444.77h-2.464l-3.728,2.73,1.392,1.91,2.112-1.63v8.32h2.688v-11.33Zm10.632,10.37a6.342,6.342,0,0,0,.76-3.57v-1.43h1.968v5.96h2.64v-7.97H472.08v2.96a5.675,5.675,0,0,1-.344,2.39,1.088,1.088,0,0,1-1,.65,1.392,1.392,0,0,1-.5-0.07l-0.16,2a5.317,5.317,0,0,0,1.44.13A2.683,2.683,0,0,0,473.848,3455.14Zm10.024,0.96,2.72-4.53h0.048v4.53h2.56v-7.97h-2.784l-2.768,4.64h-0.032v-4.64h-2.592v7.97h2.848Zm9.792,0v-3.14h2.592v3.14h2.64v-7.97h-2.64v2.81h-2.592v-2.81h-2.64v7.97h2.64Zm10.208,0,2.72-4.53h0.048v4.53h2.56v-7.97h-2.784l-2.768,4.64h-0.032v-4.64h-2.592v7.97h2.848Zm9.6,0,1.36-2.64h0.976v2.64h2.64v-7.97H514a3.866,3.866,0,0,0-2.336.67,2.576,2.576,0,0,0,.688,4.37l-1.872,2.93h2.992Zm-0.256-5.3a0.855,0.855,0,0,1,.368-0.75,1.651,1.651,0,0,1,.96-0.26h1.264v2.02h-1.264c-0.885,0-1.328-.34-1.328-1.01h0Zm-47.936,38.96h-4.624l2.624-2.34a8.35,8.35,0,0,0,1.48-1.63,3.3,3.3,0,0,0,.5-1.85,3.031,3.031,0,0,0-1.2-2.58,4.688,4.688,0,0,0-2.9-.9,4.467,4.467,0,0,0-2.912.99,3.819,3.819,0,0,0-1.408,2.66l2.576,0.35a2.12,2.12,0,0,1,.512-1.24,1.427,1.427,0,0,1,1.088-.47,1.405,1.405,0,0,1,1.024.38,1.314,1.314,0,0,1,.384.98,2.486,2.486,0,0,1-.928,1.75l-4.416,4v2.24h8.192v-2.34Zm8.568,1.38a6.342,6.342,0,0,0,.76-3.57v-1.43h1.968v5.96h2.64v-7.97H472.08v2.96a5.675,5.675,0,0,1-.344,2.39,1.088,1.088,0,0,1-1,.65,1.392,1.392,0,0,1-.5-0.07l-0.16,2a5.317,5.317,0,0,0,1.44.13A2.683,2.683,0,0,0,473.848,3491.14Zm10.024,0.96,2.72-4.53h0.048v4.53h2.56v-7.97h-2.784l-2.768,4.64h-0.032v-4.64h-2.592v7.97h2.848Zm9.792,0v-3.14h2.592v3.14h2.64v-7.97h-2.64v2.81h-2.592v-2.81h-2.64v7.97h2.64Zm10.208,0,2.72-4.53h0.048v4.53h2.56v-7.97h-2.784l-2.768,4.64h-0.032v-4.64h-2.592v7.97h2.848Zm9.6,0,1.36-2.64h0.976v2.64h2.64v-7.97H514a3.866,3.866,0,0,0-2.336.67,2.576,2.576,0,0,0,.688,4.37l-1.872,2.93h2.992Zm-0.256-5.3a0.855,0.855,0,0,1,.368-0.75,1.651,1.651,0,0,1,.96-0.26h1.264v2.02h-1.264c-0.885,0-1.328-.34-1.328-1.01h0Zm-48.5,36.33a2.793,2.793,0,0,0-1.568-.95v-0.05a2.559,2.559,0,0,0,1.376-.89,2.457,2.457,0,0,0,.528-1.58,2.713,2.713,0,0,0-1.176-2.36,5.068,5.068,0,0,0-5.464-.08,3.659,3.659,0,0,0-1.568,2.12l2.5,0.58a1.6,1.6,0,0,1,.552-0.92,1.532,1.532,0,0,1,1-.34,1.57,1.57,0,0,1,1.008.33,1.121,1.121,0,0,1,.416.91q0,1.35-1.984,1.35h-0.784v1.97h0.72a3.53,3.53,0,0,1,1.64.34,1.188,1.188,0,0,1,.664,1.14,1.242,1.242,0,0,1-.5,1.09,1.9,1.9,0,0,1-1.152.35,1.916,1.916,0,0,1-1.92-1.4l-2.5.65a3.749,3.749,0,0,0,1.664,2.26,5.847,5.847,0,0,0,4.912.38,3.634,3.634,0,0,0,1.592-1.21,3.2,3.2,0,0,0,.648-2.02A2.519,2.519,0,0,0,464.72,3523.13Zm9.128,4.01a6.342,6.342,0,0,0,.76-3.57v-1.43h1.968v5.96h2.64v-7.97H472.08v2.96a5.675,5.675,0,0,1-.344,2.39,1.088,1.088,0,0,1-1,.65,1.392,1.392,0,0,1-.5-0.07l-0.16,2a5.317,5.317,0,0,0,1.44.13A2.683,2.683,0,0,0,473.848,3527.14Zm10.024,0.96,2.72-4.53h0.048v4.53h2.56v-7.97h-2.784l-2.768,4.64h-0.032v-4.64h-2.592v7.97h2.848Zm9.792,0v-3.14h2.592v3.14h2.64v-7.97h-2.64v2.81h-2.592v-2.81h-2.64v7.97h2.64Zm10.208,0,2.72-4.53h0.048v4.53h2.56v-7.97h-2.784l-2.768,4.64h-0.032v-4.64h-2.592v7.97h2.848Zm9.6,0,1.36-2.64h0.976v2.64h2.64v-7.97H514a3.866,3.866,0,0,0-2.336.67,2.576,2.576,0,0,0,.688,4.37l-1.872,2.93h2.992Zm-0.256-5.3a0.855,0.855,0,0,1,.368-0.75,1.651,1.651,0,0,1,.96-0.26h1.264v2.02h-1.264c-0.885,0-1.328-.34-1.328-1.01h0Zm-47.424,36.91h-1.568v-6.94h-3.216l-4.608,6.86v2.26h5.328v2.21h2.512v-2.21h1.552v-2.18Zm-6.784,0,2.688-4.19h0.048v4.19h-2.736Zm14.84,3.43a6.342,6.342,0,0,0,.76-3.57v-1.43h1.968v5.96h2.64v-7.97H472.08v2.96a5.675,5.675,0,0,1-.344,2.39,1.088,1.088,0,0,1-1,.65,1.392,1.392,0,0,1-.5-0.07l-0.16,2a5.317,5.317,0,0,0,1.44.13A2.683,2.683,0,0,0,473.848,3563.14Zm10.024,0.96,2.72-4.53h0.048v4.53h2.56v-7.97h-2.784l-2.768,4.64h-0.032v-4.64h-2.592v7.97h2.848Zm9.792,0v-3.14h2.592v3.14h2.64v-7.97h-2.64v2.81h-2.592v-2.81h-2.64v7.97h2.64Zm10.208,0,2.72-4.53h0.048v4.53h2.56v-7.97h-2.784l-2.768,4.64h-0.032v-4.64h-2.592v7.97h2.848Zm9.6,0,1.36-2.64h0.976v2.64h2.64v-7.97H514a3.866,3.866,0,0,0-2.336.67,2.576,2.576,0,0,0,.688,4.37l-1.872,2.93h2.992Zm-0.256-5.3a0.855,0.855,0,0,1,.368-0.75,1.651,1.651,0,0,1,.96-0.26h1.264v2.02h-1.264c-0.885,0-1.328-.34-1.328-1.01h0Zm-49.056,34.89a4.487,4.487,0,0,0-2.944-.94,5.2,5.2,0,0,0-1.136.11l0.1-1.79h4.56v-2.3h-6.944l-0.272,6.48a8.132,8.132,0,0,1,2.768-.5,3.235,3.235,0,0,1,1.648.4,1.428,1.428,0,0,1,.672,1.33,1.555,1.555,0,0,1-.488,1.22,1.793,1.793,0,0,1-1.208.43,1.871,1.871,0,0,1-1.144-.38,1.836,1.836,0,0,1-.68-0.98l-2.448.75a3.706,3.706,0,0,0,1.568,2.1,4.81,4.81,0,0,0,2.736.78,4.712,4.712,0,0,0,3.088-1.05,3.66,3.66,0,0,0,1.28-3A3.225,3.225,0,0,0,464.16,3593.69Zm9.688,5.45a6.342,6.342,0,0,0,.76-3.57v-1.43h1.968v5.96h2.64v-7.97H472.08v2.96a5.675,5.675,0,0,1-.344,2.39,1.088,1.088,0,0,1-1,.65,1.392,1.392,0,0,1-.5-0.07l-0.16,2a5.317,5.317,0,0,0,1.44.13A2.683,2.683,0,0,0,473.848,3599.14Zm10.024,0.96,2.72-4.53h0.048v4.53h2.56v-7.97h-2.784l-2.768,4.64h-0.032v-4.64h-2.592v7.97h2.848Zm9.792,0v-3.14h2.592v3.14h2.64v-7.97h-2.64v2.81h-2.592v-2.81h-2.64v7.97h2.64Zm10.208,0,2.72-4.53h0.048v4.53h2.56v-7.97h-2.784l-2.768,4.64h-0.032v-4.64h-2.592v7.97h2.848Zm9.6,0,1.36-2.64h0.976v2.64h2.64v-7.97H514a3.866,3.866,0,0,0-2.336.67,2.576,2.576,0,0,0,.688,4.37l-1.872,2.93h2.992Zm-0.256-5.3a0.855,0.855,0,0,1,.368-0.75,1.651,1.651,0,0,1,.96-0.26h1.264v2.02h-1.264c-0.885,0-1.328-.34-1.328-1.01h0Zm-48.688,34.83a3.676,3.676,0,0,0-2.624-1.04,2.144,2.144,0,0,0-.8.13l0.048-.08,2.784-3.87h-3.248l-2.736,4.08a6.394,6.394,0,0,0-1.264,3.5,3.7,3.7,0,0,0,1.28,2.94,5.1,5.1,0,0,0,6.368-.01,3.776,3.776,0,0,0,1.28-2.99A3.53,3.53,0,0,0,464.528,3629.63Zm-2.1,4.03a1.738,1.738,0,0,1-1.28.5,1.678,1.678,0,0,1-1.28-.52,1.888,1.888,0,0,1,.008-2.56,1.725,1.725,0,0,1,1.288-.5,1.673,1.673,0,0,1,1.272.5,1.761,1.761,0,0,1,.488,1.27A1.789,1.789,0,0,1,462.432,3633.66Zm11.416,1.48a6.342,6.342,0,0,0,.76-3.57v-1.43h1.968v5.96h2.64v-7.97H472.08v2.96a5.675,5.675,0,0,1-.344,2.39,1.088,1.088,0,0,1-1,.65,1.392,1.392,0,0,1-.5-0.07l-0.16,2a5.317,5.317,0,0,0,1.44.13A2.683,2.683,0,0,0,473.848,3635.14Zm10.024,0.96,2.72-4.53h0.048v4.53h2.56v-7.97h-2.784l-2.768,4.64h-0.032v-4.64h-2.592v7.97h2.848Zm9.792,0v-3.14h2.592v3.14h2.64v-7.97h-2.64v2.81h-2.592v-2.81h-2.64v7.97h2.64Zm10.208,0,2.72-4.53h0.048v4.53h2.56v-7.97h-2.784l-2.768,4.64h-0.032v-4.64h-2.592v7.97h2.848Zm9.6,0,1.36-2.64h0.976v2.64h2.64v-7.97H514a3.866,3.866,0,0,0-2.336.67,2.576,2.576,0,0,0,.688,4.37l-1.872,2.93h2.992Zm-0.256-5.3a0.855,0.855,0,0,1,.368-0.75,1.651,1.651,0,0,1,.96-0.26h1.264v2.02h-1.264c-0.885,0-1.328-.34-1.328-1.01h0Zm-47.984,29.97h-8.224v2.3h5.36l-4.592,9.03h3.12l4.336-9.19v-2.14Zm8.616,10.37a6.342,6.342,0,0,0,.76-3.57v-1.43h1.968v5.96h2.64v-7.97H472.08v2.96a5.675,5.675,0,0,1-.344,2.39,1.088,1.088,0,0,1-1,.65,1.392,1.392,0,0,1-.5-0.07l-0.16,2a5.317,5.317,0,0,0,1.44.13A2.683,2.683,0,0,0,473.848,3671.14Zm10.024,0.96,2.72-4.53h0.048v4.53h2.56v-7.97h-2.784l-2.768,4.64h-0.032v-4.64h-2.592v7.97h2.848Zm9.792,0v-3.14h2.592v3.14h2.64v-7.97h-2.64v2.81h-2.592v-2.81h-2.64v7.97h2.64Zm10.208,0,2.72-4.53h0.048v4.53h2.56v-7.97h-2.784l-2.768,4.64h-0.032v-4.64h-2.592v7.97h2.848Zm9.6,0,1.36-2.64h0.976v2.64h2.64v-7.97H514a3.866,3.866,0,0,0-2.336.67,2.576,2.576,0,0,0,.688,4.37l-1.872,2.93h2.992Zm-0.256-5.3a0.855,0.855,0,0,1,.368-0.75,1.651,1.651,0,0,1,.96-0.26h1.264v2.02h-1.264c-0.885,0-1.328-.34-1.328-1.01h0Zm-48.368,36.35a2.708,2.708,0,0,0-1.456-.97v-0.05a2.473,2.473,0,0,0,1.256-.91,2.618,2.618,0,0,0,.472-1.57,2.756,2.756,0,0,0-1.144-2.35,4.616,4.616,0,0,0-2.808-.84,4.5,4.5,0,0,0-2.808.87,2.792,2.792,0,0,0-1.144,2.37,2.441,2.441,0,0,0,.48,1.52,2.667,2.667,0,0,0,1.248.92v0.04a2.921,2.921,0,0,0-1.456.99,2.654,2.654,0,0,0-.576,1.71,3.064,3.064,0,0,0,1.224,2.61,5.468,5.468,0,0,0,6.056-.01,3.076,3.076,0,0,0,1.232-2.62A2.693,2.693,0,0,0,464.848,3703.15Zm-3.68-1.97a1.279,1.279,0,0,1-.976-0.39,1.34,1.34,0,0,1-.368-0.95,1.26,1.26,0,0,1,.376-0.93,1.427,1.427,0,0,1,1.928.01,1.216,1.216,0,0,1,.4.92,1.352,1.352,0,0,1-1.36,1.34h0Zm1.136,4.68a1.555,1.555,0,0,1-1.136.41,1.624,1.624,0,0,1-1.144-.41,1.435,1.435,0,0,1-.44-1.09,1.488,1.488,0,0,1,.448-1.1,1.566,1.566,0,0,1,1.136-.44,1.548,1.548,0,0,1,1.12.44,1.488,1.488,0,0,1,.448,1.1A1.418,1.418,0,0,1,462.3,3705.86Zm11.544,1.28a6.342,6.342,0,0,0,.76-3.57v-1.43h1.968v5.96h2.64v-7.97H472.08v2.96a5.675,5.675,0,0,1-.344,2.39,1.088,1.088,0,0,1-1,.65,1.392,1.392,0,0,1-.5-0.07l-0.16,2a5.317,5.317,0,0,0,1.44.13A2.683,2.683,0,0,0,473.848,3707.14Zm10.024,0.96,2.72-4.53h0.048v4.53h2.56v-7.97h-2.784l-2.768,4.64h-0.032v-4.64h-2.592v7.97h2.848Zm9.792,0v-3.14h2.592v3.14h2.64v-7.97h-2.64v2.81h-2.592v-2.81h-2.64v7.97h2.64Zm10.208,0,2.72-4.53h0.048v4.53h2.56v-7.97h-2.784l-2.768,4.64h-0.032v-4.64h-2.592v7.97h2.848Zm9.6,0,1.36-2.64h0.976v2.64h2.64v-7.97H514a3.866,3.866,0,0,0-2.336.67,2.576,2.576,0,0,0,.688,4.37l-1.872,2.93h2.992Zm-0.256-5.3a0.855,0.855,0,0,1,.368-0.75,1.651,1.651,0,0,1,.96-0.26h1.264v2.02h-1.264c-0.885,0-1.328-.34-1.328-1.01h0Zm-48.864,30.78a4.645,4.645,0,0,0-3.184-1.12,4.694,4.694,0,0,0-3.184,1.12,3.794,3.794,0,0,0-1.28,3,3.493,3.493,0,0,0,1.1,2.65,3.661,3.661,0,0,0,2.632,1.04,2.224,2.224,0,0,0,.8-0.13l-0.032.05-2.816,3.91h3.248l2.736-4.08a6.423,6.423,0,0,0,1.264-3.51A3.694,3.694,0,0,0,464.352,3733.58Zm-1.9,4.2a1.752,1.752,0,0,1-1.3.49,1.71,1.71,0,0,1-1.272-.5,1.761,1.761,0,0,1-.488-1.27,1.828,1.828,0,0,1,.5-1.32,1.728,1.728,0,0,1,1.3-.51,1.659,1.659,0,0,1,1.272.53,1.818,1.818,0,0,1,.488,1.28A1.765,1.765,0,0,1,462.448,3737.78Zm11.4,5.36a6.342,6.342,0,0,0,.76-3.57v-1.43h1.968v5.96h2.64v-7.97H472.08v2.96a5.675,5.675,0,0,1-.344,2.39,1.088,1.088,0,0,1-1,.65,1.392,1.392,0,0,1-.5-0.07l-0.16,2a5.317,5.317,0,0,0,1.44.13A2.683,2.683,0,0,0,473.848,3743.14Zm10.024,0.96,2.72-4.53h0.048v4.53h2.56v-7.97h-2.784l-2.768,4.64h-0.032v-4.64h-2.592v7.97h2.848Zm9.792,0v-3.14h2.592v3.14h2.64v-7.97h-2.64v2.81h-2.592v-2.81h-2.64v7.97h2.64Zm10.208,0,2.72-4.53h0.048v4.53h2.56v-7.97h-2.784l-2.768,4.64h-0.032v-4.64h-2.592v7.97h2.848Zm9.6,0,1.36-2.64h0.976v2.64h2.64v-7.97H514a3.866,3.866,0,0,0-2.336.67,2.576,2.576,0,0,0,.688,4.37l-1.872,2.93h2.992Zm-0.256-5.3a0.855,0.855,0,0,1,.368-0.75,1.651,1.651,0,0,1,.96-0.26h1.264v2.02h-1.264c-0.885,0-1.328-.34-1.328-1.01h0Zm-54,29.97h-2.464l-3.728,2.73,1.392,1.91,2.112-1.63v8.32h2.688v-11.33Zm11.384,1.47a3.55,3.55,0,0,0-1.376-1.3,4.592,4.592,0,0,0-4.088,0,3.586,3.586,0,0,0-1.392,1.3,6.332,6.332,0,0,0-.76,1.87,9.954,9.954,0,0,0-.248,2.29,9.7,9.7,0,0,0,.424,3,4.509,4.509,0,0,0,1.456,2.15,3.887,3.887,0,0,0,2.568.85,4.168,4.168,0,0,0,2.04-.48,3.6,3.6,0,0,0,1.376-1.32,6.533,6.533,0,0,0,.752-1.9,10.743,10.743,0,0,0,0-4.59A6.457,6.457,0,0,0,470.6,3770.24Zm-1.816,5.37a7.443,7.443,0,0,1-.232,1.17,2.183,2.183,0,0,1-.52.96,1.145,1.145,0,0,1-.848.36,1.162,1.162,0,0,1-.864-0.36,2.183,2.183,0,0,1-.52-0.96,8.237,8.237,0,0,1-.24-1.18,9.58,9.58,0,0,1-.072-1.2,9.418,9.418,0,0,1,.072-1.19,7.722,7.722,0,0,1,.24-1.16,2.106,2.106,0,0,1,.528-0.95,1.169,1.169,0,0,1,.856-0.36,1.145,1.145,0,0,1,.848.36,2.145,2.145,0,0,1,.52.95,7.111,7.111,0,0,1,.232,1.16,10.74,10.74,0,0,1,.064,1.19A10.976,10.976,0,0,1,468.784,3775.61Zm11.064,3.53a6.342,6.342,0,0,0,.76-3.57v-1.43h1.968v5.96h2.64v-7.97H478.08v2.96a5.675,5.675,0,0,1-.344,2.39,1.088,1.088,0,0,1-1,.65,1.392,1.392,0,0,1-.5-0.07l-0.16,2a5.317,5.317,0,0,0,1.44.13A2.683,2.683,0,0,0,479.848,3779.14Zm10.024,0.96,2.72-4.53h0.048v4.53h2.56v-7.97h-2.784l-2.768,4.64h-0.032v-4.64h-2.592v7.97h2.848Zm9.792,0v-3.14h2.592v3.14h2.64v-7.97h-2.64v2.81h-2.592v-2.81h-2.64v7.97h2.64Zm10.208,0,2.72-4.53h0.048v4.53h2.56v-7.97h-2.784l-2.768,4.64h-0.032v-4.64h-2.592v7.97h2.848Zm9.6,0,1.36-2.64h0.976v2.64h2.64v-7.97H520a3.866,3.866,0,0,0-2.336.67,2.576,2.576,0,0,0,.688,4.37l-1.872,2.93h2.992Zm-0.256-5.3a0.855,0.855,0,0,1,.368-0.75,1.651,1.651,0,0,1,.96-0.26h1.264v2.02h-1.264c-0.885,0-1.328-.34-1.328-1.01h0Zm-60,29.97h-2.464l-3.728,2.73,1.392,1.91,2.112-1.63v8.32h2.688v-11.33Zm10,0h-2.464l-3.728,2.73,1.392,1.91,2.112-1.63v8.32h2.688v-11.33Zm10.632,10.37a6.342,6.342,0,0,0,.76-3.57v-1.43h1.968v5.96h2.64v-7.97H478.08v2.96a5.675,5.675,0,0,1-.344,2.39,1.088,1.088,0,0,1-1,.65,1.392,1.392,0,0,1-.5-0.07l-0.16,2a5.317,5.317,0,0,0,1.44.13A2.683,2.683,0,0,0,479.848,3815.14Zm10.024,0.96,2.72-4.53h0.048v4.53h2.56v-7.97h-2.784l-2.768,4.64h-0.032v-4.64h-2.592v7.97h2.848Zm9.792,0v-3.14h2.592v3.14h2.64v-7.97h-2.64v2.81h-2.592v-2.81h-2.64v7.97h2.64Zm10.208,0,2.72-4.53h0.048v4.53h2.56v-7.97h-2.784l-2.768,4.64h-0.032v-4.64h-2.592v7.97h2.848Zm9.6,0,1.36-2.64h0.976v2.64h2.64v-7.97H520a3.866,3.866,0,0,0-2.336.67,2.576,2.576,0,0,0,.688,4.37l-1.872,2.93h2.992Zm-0.256-5.3a0.855,0.855,0,0,1,.368-0.75,1.651,1.651,0,0,1,.96-0.26h1.264v2.02h-1.264c-0.885,0-1.328-.34-1.328-1.01h0Zm-60,29.97h-2.464l-3.728,2.73,1.392,1.91,2.112-1.63v8.32h2.688v-11.33Zm12.064,8.99h-4.624l2.624-2.34a8.35,8.35,0,0,0,1.48-1.63,3.3,3.3,0,0,0,.5-1.85,3.031,3.031,0,0,0-1.2-2.58,4.688,4.688,0,0,0-2.9-.9,4.465,4.465,0,0,0-2.912.99,3.819,3.819,0,0,0-1.408,2.66l2.576,0.35a2.12,2.12,0,0,1,.512-1.24,1.427,1.427,0,0,1,1.088-.47,1.405,1.405,0,0,1,1.024.38,1.314,1.314,0,0,1,.384.98,2.486,2.486,0,0,1-.928,1.75l-4.416,4v2.24h8.192v-2.34Zm8.568,1.38a6.342,6.342,0,0,0,.76-3.57v-1.43h1.968v5.96h2.64v-7.97H478.08v2.96a5.675,5.675,0,0,1-.344,2.39,1.088,1.088,0,0,1-1,.65,1.392,1.392,0,0,1-.5-0.07l-0.16,2a5.317,5.317,0,0,0,1.44.13A2.683,2.683,0,0,0,479.848,3851.14Zm10.024,0.96,2.72-4.53h0.048v4.53h2.56v-7.97h-2.784l-2.768,4.64h-0.032v-4.64h-2.592v7.97h2.848Zm9.792,0v-3.14h2.592v3.14h2.64v-7.97h-2.64v2.81h-2.592v-2.81h-2.64v7.97h2.64Zm10.208,0,2.72-4.53h0.048v4.53h2.56v-7.97h-2.784l-2.768,4.64h-0.032v-4.64h-2.592v7.97h2.848Zm9.6,0,1.36-2.64h0.976v2.64h2.64v-7.97H520a3.866,3.866,0,0,0-2.336.67,2.576,2.576,0,0,0,.688,4.37l-1.872,2.93h2.992Zm-0.256-5.3a0.855,0.855,0,0,1,.368-0.75,1.651,1.651,0,0,1,.96-0.26h1.264v2.02h-1.264c-0.885,0-1.328-.34-1.328-1.01h0Z" transform="translate(-431 -3414.44)"/>
  <path id="_10_15_20_30_50_100_150_200_500_1000" data-name="  10 15 20 30 50 100 150 200 500 1000" class="cls-3" d="M808.716,3516.77h-2.464l-3.728,2.73,1.392,1.91,2.112-1.63v8.32h2.688v-11.33Zm11.384,1.47a3.55,3.55,0,0,0-1.376-1.3,4.168,4.168,0,0,0-2.04-.48,4.21,4.21,0,0,0-2.048.48,3.586,3.586,0,0,0-1.392,1.3,6.305,6.305,0,0,0-.76,1.87,9.954,9.954,0,0,0-.248,2.29,9.7,9.7,0,0,0,.424,3,4.509,4.509,0,0,0,1.456,2.15,3.887,3.887,0,0,0,2.568.85,4.168,4.168,0,0,0,2.04-.48,3.6,3.6,0,0,0,1.376-1.32,6.561,6.561,0,0,0,.752-1.9,10.743,10.743,0,0,0,0-4.59A6.485,6.485,0,0,0,820.1,3518.24Zm-1.816,5.37a7.443,7.443,0,0,1-.232,1.17,2.183,2.183,0,0,1-.52.96,1.145,1.145,0,0,1-.848.36,1.161,1.161,0,0,1-.864-0.36,2.183,2.183,0,0,1-.52-0.96,8.237,8.237,0,0,1-.24-1.18,9.58,9.58,0,0,1-.072-1.2,9.418,9.418,0,0,1,.072-1.19,7.722,7.722,0,0,1,.24-1.16,2.106,2.106,0,0,1,.528-0.95,1.169,1.169,0,0,1,.856-0.36,1.145,1.145,0,0,1,.848.36,2.145,2.145,0,0,1,.52.95,7.111,7.111,0,0,1,.232,1.16,10.5,10.5,0,0,1,.064,1.19A10.736,10.736,0,0,1,818.284,3523.61Zm-9.568,29.16h-2.464l-3.728,2.73,1.392,1.91,2.112-1.63v8.32h2.688v-11.33Zm10.944,4.92a4.488,4.488,0,0,0-2.944-.94,5.2,5.2,0,0,0-1.136.11l0.1-1.79h4.56v-2.3h-6.944l-0.272,6.48a8.132,8.132,0,0,1,2.768-.5,3.235,3.235,0,0,1,1.648.4,1.428,1.428,0,0,1,.672,1.33,1.555,1.555,0,0,1-.488,1.22,1.8,1.8,0,0,1-1.208.43,1.871,1.871,0,0,1-1.144-.38,1.836,1.836,0,0,1-.68-0.98l-2.448.75a3.706,3.706,0,0,0,1.568,2.1,4.81,4.81,0,0,0,2.736.78,4.714,4.714,0,0,0,3.088-1.05,3.66,3.66,0,0,0,1.28-3A3.225,3.225,0,0,0,819.66,3557.69Zm-8.88,40.07h-4.624l2.624-2.34a8.35,8.35,0,0,0,1.48-1.63,3.3,3.3,0,0,0,.5-1.85,3.031,3.031,0,0,0-1.2-2.58,4.69,4.69,0,0,0-2.9-.9,4.465,4.465,0,0,0-2.912.99,3.819,3.819,0,0,0-1.408,2.66l2.576,0.35a2.12,2.12,0,0,1,.512-1.24,1.425,1.425,0,0,1,1.088-.47,1.405,1.405,0,0,1,1.024.38,1.314,1.314,0,0,1,.384.98,2.489,2.489,0,0,1-.928,1.75l-4.416,4v2.24h8.192v-2.34Zm9.32-7.52a3.55,3.55,0,0,0-1.376-1.3,4.168,4.168,0,0,0-2.04-.48,4.21,4.21,0,0,0-2.048.48,3.586,3.586,0,0,0-1.392,1.3,6.305,6.305,0,0,0-.76,1.87,9.954,9.954,0,0,0-.248,2.29,9.7,9.7,0,0,0,.424,3,4.509,4.509,0,0,0,1.456,2.15,3.887,3.887,0,0,0,2.568.85,4.168,4.168,0,0,0,2.04-.48,3.6,3.6,0,0,0,1.376-1.32,6.561,6.561,0,0,0,.752-1.9,10.743,10.743,0,0,0,0-4.59A6.485,6.485,0,0,0,820.1,3590.24Zm-1.816,5.37a7.443,7.443,0,0,1-.232,1.17,2.183,2.183,0,0,1-.52.96,1.145,1.145,0,0,1-.848.36,1.161,1.161,0,0,1-.864-0.36,2.183,2.183,0,0,1-.52-0.96,8.237,8.237,0,0,1-.24-1.18,9.58,9.58,0,0,1-.072-1.2,9.418,9.418,0,0,1,.072-1.19,7.722,7.722,0,0,1,.24-1.16,2.106,2.106,0,0,1,.528-0.95,1.169,1.169,0,0,1,.856-0.36,1.145,1.145,0,0,1,.848.36,2.145,2.145,0,0,1,.52.95,7.111,7.111,0,0,1,.232,1.16,10.5,10.5,0,0,1,.064,1.19A10.736,10.736,0,0,1,818.284,3595.61Zm-8.064,35.52a2.793,2.793,0,0,0-1.568-.95v-0.05a2.559,2.559,0,0,0,1.376-.89,2.457,2.457,0,0,0,.528-1.58,2.713,2.713,0,0,0-1.176-2.36,5.068,5.068,0,0,0-5.464-.08,3.659,3.659,0,0,0-1.568,2.12l2.5,0.58a1.6,1.6,0,0,1,.552-0.92,1.531,1.531,0,0,1,1-.34,1.574,1.574,0,0,1,1.008.33,1.121,1.121,0,0,1,.416.91q0,1.35-1.984,1.35h-0.784v1.97h0.72a3.533,3.533,0,0,1,1.64.34,1.188,1.188,0,0,1,.664,1.14,1.244,1.244,0,0,1-.5,1.09,1.9,1.9,0,0,1-1.152.35,1.916,1.916,0,0,1-1.92-1.4l-2.5.65a3.749,3.749,0,0,0,1.664,2.26,5.847,5.847,0,0,0,4.912.38,3.634,3.634,0,0,0,1.592-1.21,3.2,3.2,0,0,0,.648-2.02A2.519,2.519,0,0,0,810.22,3631.13Zm9.88-4.89a3.55,3.55,0,0,0-1.376-1.3,4.168,4.168,0,0,0-2.04-.48,4.21,4.21,0,0,0-2.048.48,3.586,3.586,0,0,0-1.392,1.3,6.305,6.305,0,0,0-.76,1.87,9.954,9.954,0,0,0-.248,2.29,9.7,9.7,0,0,0,.424,3,4.509,4.509,0,0,0,1.456,2.15,3.887,3.887,0,0,0,2.568.85,4.168,4.168,0,0,0,2.04-.48,3.6,3.6,0,0,0,1.376-1.32,6.561,6.561,0,0,0,.752-1.9,10.743,10.743,0,0,0,0-4.59A6.485,6.485,0,0,0,820.1,3626.24Zm-1.816,5.37a7.443,7.443,0,0,1-.232,1.17,2.183,2.183,0,0,1-.52.96,1.145,1.145,0,0,1-.848.36,1.161,1.161,0,0,1-.864-0.36,2.183,2.183,0,0,1-.52-0.96,8.237,8.237,0,0,1-.24-1.18,9.58,9.58,0,0,1-.072-1.2,9.418,9.418,0,0,1,.072-1.19,7.722,7.722,0,0,1,.24-1.16,2.106,2.106,0,0,1,.528-0.95,1.169,1.169,0,0,1,.856-0.36,1.145,1.145,0,0,1,.848.36,2.145,2.145,0,0,1,.52.95,7.111,7.111,0,0,1,.232,1.16,10.5,10.5,0,0,1,.064,1.19A10.736,10.736,0,0,1,818.284,3631.61Zm-8.624,34.08a4.488,4.488,0,0,0-2.944-.94,5.2,5.2,0,0,0-1.136.11l0.1-1.79h4.56v-2.3h-6.944l-0.272,6.48a8.132,8.132,0,0,1,2.768-.5,3.235,3.235,0,0,1,1.648.4,1.428,1.428,0,0,1,.672,1.33,1.555,1.555,0,0,1-.488,1.22,1.8,1.8,0,0,1-1.208.43,1.871,1.871,0,0,1-1.144-.38,1.836,1.836,0,0,1-.68-0.98l-2.448.75a3.706,3.706,0,0,0,1.568,2.1,4.81,4.81,0,0,0,2.736.78,4.714,4.714,0,0,0,3.088-1.05,3.66,3.66,0,0,0,1.28-3A3.225,3.225,0,0,0,809.66,3665.69Zm10.44-3.45a3.55,3.55,0,0,0-1.376-1.3,4.168,4.168,0,0,0-2.04-.48,4.21,4.21,0,0,0-2.048.48,3.586,3.586,0,0,0-1.392,1.3,6.305,6.305,0,0,0-.76,1.87,9.954,9.954,0,0,0-.248,2.29,9.7,9.7,0,0,0,.424,3,4.509,4.509,0,0,0,1.456,2.15,3.887,3.887,0,0,0,2.568.85,4.168,4.168,0,0,0,2.04-.48,3.6,3.6,0,0,0,1.376-1.32,6.561,6.561,0,0,0,.752-1.9,10.743,10.743,0,0,0,0-4.59A6.485,6.485,0,0,0,820.1,3662.24Zm-1.816,5.37a7.443,7.443,0,0,1-.232,1.17,2.183,2.183,0,0,1-.52.96,1.145,1.145,0,0,1-.848.36,1.161,1.161,0,0,1-.864-0.36,2.183,2.183,0,0,1-.52-0.96,8.237,8.237,0,0,1-.24-1.18,9.58,9.58,0,0,1-.072-1.2,9.418,9.418,0,0,1,.072-1.19,7.722,7.722,0,0,1,.24-1.16,2.106,2.106,0,0,1,.528-0.95,1.169,1.169,0,0,1,.856-0.36,1.145,1.145,0,0,1,.848.36,2.145,2.145,0,0,1,.52.95,7.111,7.111,0,0,1,.232,1.16,10.5,10.5,0,0,1,.064,1.19A10.736,10.736,0,0,1,818.284,3667.61Zm-14.568,29.16h-2.464l-3.728,2.73,1.392,1.91,2.112-1.63v8.32h2.688v-11.33Zm11.384,1.47a3.55,3.55,0,0,0-1.376-1.3,4.168,4.168,0,0,0-2.04-.48,4.21,4.21,0,0,0-2.048.48,3.586,3.586,0,0,0-1.392,1.3,6.305,6.305,0,0,0-.76,1.87,9.954,9.954,0,0,0-.248,2.29,9.7,9.7,0,0,0,.424,3,4.509,4.509,0,0,0,1.456,2.15,3.887,3.887,0,0,0,2.568.85,4.168,4.168,0,0,0,2.04-.48,3.6,3.6,0,0,0,1.376-1.32,6.561,6.561,0,0,0,.752-1.9,10.743,10.743,0,0,0,0-4.59A6.485,6.485,0,0,0,815.1,3698.24Zm-1.816,5.37a7.443,7.443,0,0,1-.232,1.17,2.183,2.183,0,0,1-.52.96,1.145,1.145,0,0,1-.848.36,1.161,1.161,0,0,1-.864-0.36,2.183,2.183,0,0,1-.52-0.96,8.237,8.237,0,0,1-.24-1.18,9.58,9.58,0,0,1-.072-1.2,9.418,9.418,0,0,1,.072-1.19,7.722,7.722,0,0,1,.24-1.16,2.106,2.106,0,0,1,.528-0.95,1.169,1.169,0,0,1,.856-0.36,1.145,1.145,0,0,1,.848.36,2.145,2.145,0,0,1,.52.95,7.111,7.111,0,0,1,.232,1.16,10.5,10.5,0,0,1,.064,1.19A10.736,10.736,0,0,1,813.284,3703.61Zm11.816-5.37a3.55,3.55,0,0,0-1.376-1.3,4.168,4.168,0,0,0-2.04-.48,4.21,4.21,0,0,0-2.048.48,3.586,3.586,0,0,0-1.392,1.3,6.305,6.305,0,0,0-.76,1.87,9.954,9.954,0,0,0-.248,2.29,9.7,9.7,0,0,0,.424,3,4.509,4.509,0,0,0,1.456,2.15,3.887,3.887,0,0,0,2.568.85,4.168,4.168,0,0,0,2.04-.48,3.6,3.6,0,0,0,1.376-1.32,6.561,6.561,0,0,0,.752-1.9,10.743,10.743,0,0,0,0-4.59A6.485,6.485,0,0,0,825.1,3698.24Zm-1.816,5.37a7.443,7.443,0,0,1-.232,1.17,2.183,2.183,0,0,1-.52.96,1.145,1.145,0,0,1-.848.36,1.161,1.161,0,0,1-.864-0.36,2.183,2.183,0,0,1-.52-0.96,8.237,8.237,0,0,1-.24-1.18,9.58,9.58,0,0,1-.072-1.2,9.418,9.418,0,0,1,.072-1.19,7.722,7.722,0,0,1,.24-1.16,2.106,2.106,0,0,1,.528-0.95,1.169,1.169,0,0,1,.856-0.36,1.145,1.145,0,0,1,.848.36,2.145,2.145,0,0,1,.52.95,7.111,7.111,0,0,1,.232,1.16,10.5,10.5,0,0,1,.064,1.19A10.736,10.736,0,0,1,823.284,3703.61Zm-19.568,29.16h-2.464l-3.728,2.73,1.392,1.91,2.112-1.63v8.32h2.688v-11.33Zm10.944,4.92a4.488,4.488,0,0,0-2.944-.94,5.2,5.2,0,0,0-1.136.11l0.1-1.79h4.56v-2.3h-6.944l-0.272,6.48a8.132,8.132,0,0,1,2.768-.5,3.235,3.235,0,0,1,1.648.4,1.428,1.428,0,0,1,.672,1.33,1.555,1.555,0,0,1-.488,1.22,1.8,1.8,0,0,1-1.208.43,1.871,1.871,0,0,1-1.144-.38,1.836,1.836,0,0,1-.68-0.98l-2.448.75a3.706,3.706,0,0,0,1.568,2.1,4.81,4.81,0,0,0,2.736.78,4.714,4.714,0,0,0,3.088-1.05,3.66,3.66,0,0,0,1.28-3A3.225,3.225,0,0,0,814.66,3737.69Zm10.44-3.45a3.55,3.55,0,0,0-1.376-1.3,4.168,4.168,0,0,0-2.04-.48,4.21,4.21,0,0,0-2.048.48,3.586,3.586,0,0,0-1.392,1.3,6.305,6.305,0,0,0-.76,1.87,9.954,9.954,0,0,0-.248,2.29,9.7,9.7,0,0,0,.424,3,4.509,4.509,0,0,0,1.456,2.15,3.887,3.887,0,0,0,2.568.85,4.168,4.168,0,0,0,2.04-.48,3.6,3.6,0,0,0,1.376-1.32,6.561,6.561,0,0,0,.752-1.9,10.743,10.743,0,0,0,0-4.59A6.485,6.485,0,0,0,825.1,3734.24Zm-1.816,5.37a7.443,7.443,0,0,1-.232,1.17,2.183,2.183,0,0,1-.52.96,1.145,1.145,0,0,1-.848.36,1.161,1.161,0,0,1-.864-0.36,2.183,2.183,0,0,1-.52-0.96,8.237,8.237,0,0,1-.24-1.18,9.58,9.58,0,0,1-.072-1.2,9.418,9.418,0,0,1,.072-1.19,7.722,7.722,0,0,1,.24-1.16,2.106,2.106,0,0,1,.528-0.95,1.169,1.169,0,0,1,.856-0.36,1.145,1.145,0,0,1,.848.36,2.145,2.145,0,0,1,.52.95,7.111,7.111,0,0,1,.232,1.16,10.5,10.5,0,0,1,.064,1.19A10.736,10.736,0,0,1,823.284,3739.61Zm-17.5,38.15h-4.624l2.624-2.34a8.35,8.35,0,0,0,1.48-1.63,3.3,3.3,0,0,0,.5-1.85,3.031,3.031,0,0,0-1.2-2.58,4.69,4.69,0,0,0-2.9-.9,4.465,4.465,0,0,0-2.912.99,3.819,3.819,0,0,0-1.408,2.66l2.576,0.35a2.12,2.12,0,0,1,.512-1.24,1.425,1.425,0,0,1,1.088-.47,1.405,1.405,0,0,1,1.024.38,1.314,1.314,0,0,1,.384.98,2.489,2.489,0,0,1-.928,1.75l-4.416,4v2.24h8.192v-2.34Zm9.32-7.52a3.55,3.55,0,0,0-1.376-1.3,4.168,4.168,0,0,0-2.04-.48,4.21,4.21,0,0,0-2.048.48,3.586,3.586,0,0,0-1.392,1.3,6.305,6.305,0,0,0-.76,1.87,9.954,9.954,0,0,0-.248,2.29,9.7,9.7,0,0,0,.424,3,4.509,4.509,0,0,0,1.456,2.15,3.887,3.887,0,0,0,2.568.85,4.168,4.168,0,0,0,2.04-.48,3.6,3.6,0,0,0,1.376-1.32,6.561,6.561,0,0,0,.752-1.9,10.743,10.743,0,0,0,0-4.59A6.485,6.485,0,0,0,815.1,3770.24Zm-1.816,5.37a7.443,7.443,0,0,1-.232,1.17,2.183,2.183,0,0,1-.52.96,1.145,1.145,0,0,1-.848.36,1.161,1.161,0,0,1-.864-0.36,2.183,2.183,0,0,1-.52-0.96,8.237,8.237,0,0,1-.24-1.18,9.58,9.58,0,0,1-.072-1.2,9.418,9.418,0,0,1,.072-1.19,7.722,7.722,0,0,1,.24-1.16,2.106,2.106,0,0,1,.528-0.95,1.169,1.169,0,0,1,.856-0.36,1.145,1.145,0,0,1,.848.36,2.145,2.145,0,0,1,.52.95,7.111,7.111,0,0,1,.232,1.16,10.5,10.5,0,0,1,.064,1.19A10.736,10.736,0,0,1,813.284,3775.61Zm11.816-5.37a3.55,3.55,0,0,0-1.376-1.3,4.168,4.168,0,0,0-2.04-.48,4.21,4.21,0,0,0-2.048.48,3.586,3.586,0,0,0-1.392,1.3,6.305,6.305,0,0,0-.76,1.87,9.954,9.954,0,0,0-.248,2.29,9.7,9.7,0,0,0,.424,3,4.509,4.509,0,0,0,1.456,2.15,3.887,3.887,0,0,0,2.568.85,4.168,4.168,0,0,0,2.04-.48,3.6,3.6,0,0,0,1.376-1.32,6.561,6.561,0,0,0,.752-1.9,10.743,10.743,0,0,0,0-4.59A6.485,6.485,0,0,0,825.1,3770.24Zm-1.816,5.37a7.443,7.443,0,0,1-.232,1.17,2.183,2.183,0,0,1-.52.96,1.145,1.145,0,0,1-.848.36,1.161,1.161,0,0,1-.864-0.36,2.183,2.183,0,0,1-.52-0.96,8.237,8.237,0,0,1-.24-1.18,9.58,9.58,0,0,1-.072-1.2,9.418,9.418,0,0,1,.072-1.19,7.722,7.722,0,0,1,.24-1.16,2.106,2.106,0,0,1,.528-0.95,1.169,1.169,0,0,1,.856-0.36,1.145,1.145,0,0,1,.848.36,2.145,2.145,0,0,1,.52.95,7.111,7.111,0,0,1,.232,1.16,10.5,10.5,0,0,1,.064,1.19A10.736,10.736,0,0,1,823.284,3775.61Zm-18.624,34.08a4.488,4.488,0,0,0-2.944-.94,5.2,5.2,0,0,0-1.136.11l0.1-1.79h4.56v-2.3h-6.944l-0.272,6.48a8.132,8.132,0,0,1,2.768-.5,3.235,3.235,0,0,1,1.648.4,1.428,1.428,0,0,1,.672,1.33,1.555,1.555,0,0,1-.488,1.22,1.8,1.8,0,0,1-1.208.43,1.871,1.871,0,0,1-1.144-.38,1.836,1.836,0,0,1-.68-0.98l-2.448.75a3.706,3.706,0,0,0,1.568,2.1,4.81,4.81,0,0,0,2.736.78,4.714,4.714,0,0,0,3.088-1.05,3.66,3.66,0,0,0,1.28-3A3.225,3.225,0,0,0,804.66,3809.69Zm10.44-3.45a3.55,3.55,0,0,0-1.376-1.3,4.168,4.168,0,0,0-2.04-.48,4.21,4.21,0,0,0-2.048.48,3.586,3.586,0,0,0-1.392,1.3,6.305,6.305,0,0,0-.76,1.87,9.954,9.954,0,0,0-.248,2.29,9.7,9.7,0,0,0,.424,3,4.509,4.509,0,0,0,1.456,2.15,3.887,3.887,0,0,0,2.568.85,4.168,4.168,0,0,0,2.04-.48,3.6,3.6,0,0,0,1.376-1.32,6.561,6.561,0,0,0,.752-1.9,10.743,10.743,0,0,0,0-4.59A6.485,6.485,0,0,0,815.1,3806.24Zm-1.816,5.37a7.443,7.443,0,0,1-.232,1.17,2.183,2.183,0,0,1-.52.96,1.145,1.145,0,0,1-.848.36,1.161,1.161,0,0,1-.864-0.36,2.183,2.183,0,0,1-.52-0.96,8.237,8.237,0,0,1-.24-1.18,9.58,9.58,0,0,1-.072-1.2,9.418,9.418,0,0,1,.072-1.19,7.722,7.722,0,0,1,.24-1.16,2.106,2.106,0,0,1,.528-0.95,1.169,1.169,0,0,1,.856-0.36,1.145,1.145,0,0,1,.848.36,2.145,2.145,0,0,1,.52.95,7.111,7.111,0,0,1,.232,1.16,10.5,10.5,0,0,1,.064,1.19A10.736,10.736,0,0,1,813.284,3811.61Zm11.816-5.37a3.55,3.55,0,0,0-1.376-1.3,4.168,4.168,0,0,0-2.04-.48,4.21,4.21,0,0,0-2.048.48,3.586,3.586,0,0,0-1.392,1.3,6.305,6.305,0,0,0-.76,1.87,9.954,9.954,0,0,0-.248,2.29,9.7,9.7,0,0,0,.424,3,4.509,4.509,0,0,0,1.456,2.15,3.887,3.887,0,0,0,2.568.85,4.168,4.168,0,0,0,2.04-.48,3.6,3.6,0,0,0,1.376-1.32,6.561,6.561,0,0,0,.752-1.9,10.743,10.743,0,0,0,0-4.59A6.485,6.485,0,0,0,825.1,3806.24Zm-1.816,5.37a7.443,7.443,0,0,1-.232,1.17,2.183,2.183,0,0,1-.52.96,1.145,1.145,0,0,1-.848.36,1.161,1.161,0,0,1-.864-0.36,2.183,2.183,0,0,1-.52-0.96,8.237,8.237,0,0,1-.24-1.18,9.58,9.58,0,0,1-.072-1.2,9.418,9.418,0,0,1,.072-1.19,7.722,7.722,0,0,1,.24-1.16,2.106,2.106,0,0,1,.528-0.95,1.169,1.169,0,0,1,.856-0.36,1.145,1.145,0,0,1,.848.36,2.145,2.145,0,0,1,.52.95,7.111,7.111,0,0,1,.232,1.16,10.5,10.5,0,0,1,.064,1.19A10.736,10.736,0,0,1,823.284,3811.61Zm-24.568,29.16h-2.464l-3.728,2.73,1.392,1.91,2.112-1.63v8.32h2.688v-11.33Zm11.384,1.47a3.55,3.55,0,0,0-1.376-1.3,4.168,4.168,0,0,0-2.04-.48,4.21,4.21,0,0,0-2.048.48,3.586,3.586,0,0,0-1.392,1.3,6.305,6.305,0,0,0-.76,1.87,9.954,9.954,0,0,0-.248,2.29,9.7,9.7,0,0,0,.424,3,4.509,4.509,0,0,0,1.456,2.15,3.887,3.887,0,0,0,2.568.85,4.168,4.168,0,0,0,2.04-.48,3.6,3.6,0,0,0,1.376-1.32,6.561,6.561,0,0,0,.752-1.9,10.743,10.743,0,0,0,0-4.59A6.485,6.485,0,0,0,810.1,3842.24Zm-1.816,5.37a7.443,7.443,0,0,1-.232,1.17,2.183,2.183,0,0,1-.52.96,1.145,1.145,0,0,1-.848.36,1.161,1.161,0,0,1-.864-0.36,2.183,2.183,0,0,1-.52-0.96,8.237,8.237,0,0,1-.24-1.18,9.58,9.58,0,0,1-.072-1.2,9.418,9.418,0,0,1,.072-1.19,7.722,7.722,0,0,1,.24-1.16,2.106,2.106,0,0,1,.528-0.95,1.169,1.169,0,0,1,.856-0.36,1.145,1.145,0,0,1,.848.36,2.145,2.145,0,0,1,.52.95,7.111,7.111,0,0,1,.232,1.16,10.5,10.5,0,0,1,.064,1.19A10.736,10.736,0,0,1,808.284,3847.61Zm11.816-5.37a3.55,3.55,0,0,0-1.376-1.3,4.168,4.168,0,0,0-2.04-.48,4.21,4.21,0,0,0-2.048.48,3.586,3.586,0,0,0-1.392,1.3,6.305,6.305,0,0,0-.76,1.87,9.954,9.954,0,0,0-.248,2.29,9.7,9.7,0,0,0,.424,3,4.509,4.509,0,0,0,1.456,2.15,3.887,3.887,0,0,0,2.568.85,4.168,4.168,0,0,0,2.04-.48,3.6,3.6,0,0,0,1.376-1.32,6.561,6.561,0,0,0,.752-1.9,10.743,10.743,0,0,0,0-4.59A6.485,6.485,0,0,0,820.1,3842.24Zm-1.816,5.37a7.443,7.443,0,0,1-.232,1.17,2.183,2.183,0,0,1-.52.96,1.145,1.145,0,0,1-.848.36,1.161,1.161,0,0,1-.864-0.36,2.183,2.183,0,0,1-.52-0.96,8.237,8.237,0,0,1-.24-1.18,9.58,9.58,0,0,1-.072-1.2,9.418,9.418,0,0,1,.072-1.19,7.722,7.722,0,0,1,.24-1.16,2.106,2.106,0,0,1,.528-0.95,1.169,1.169,0,0,1,.856-0.36,1.145,1.145,0,0,1,.848.36,2.145,2.145,0,0,1,.52.95,7.111,7.111,0,0,1,.232,1.16,10.5,10.5,0,0,1,.064,1.19A10.736,10.736,0,0,1,818.284,3847.61Zm11.816-5.37a3.55,3.55,0,0,0-1.376-1.3,4.168,4.168,0,0,0-2.04-.48,4.21,4.21,0,0,0-2.048.48,3.586,3.586,0,0,0-1.392,1.3,6.305,6.305,0,0,0-.76,1.87,9.954,9.954,0,0,0-.248,2.29,9.7,9.7,0,0,0,.424,3,4.509,4.509,0,0,0,1.456,2.15,3.887,3.887,0,0,0,2.568.85,4.168,4.168,0,0,0,2.04-.48,3.6,3.6,0,0,0,1.376-1.32,6.561,6.561,0,0,0,.752-1.9,10.743,10.743,0,0,0,0-4.59A6.485,6.485,0,0,0,830.1,3842.24Zm-1.816,5.37a7.443,7.443,0,0,1-.232,1.17,2.183,2.183,0,0,1-.52.96,1.145,1.145,0,0,1-.848.36,1.161,1.161,0,0,1-.864-0.36,2.183,2.183,0,0,1-.52-0.96,8.237,8.237,0,0,1-.24-1.18,9.58,9.58,0,0,1-.072-1.2,9.418,9.418,0,0,1,.072-1.19,7.722,7.722,0,0,1,.24-1.16,2.106,2.106,0,0,1,.528-0.95,1.169,1.169,0,0,1,.856-0.36,1.145,1.145,0,0,1,.848.36,2.145,2.145,0,0,1,.52.95,7.111,7.111,0,0,1,.232,1.16,10.5,10.5,0,0,1,.064,1.19A10.736,10.736,0,0,1,828.284,3847.61Z" transform="translate(-431 -3414.44)"/>
  <path id="_32_20_12_8_4_4_4_4_4_4_2_2_" data-name="32% 20% 12% 8% 4% 4% 4% 4% 4% 4% 2% 2%" class="cls-3" d="M673.22,3451.13a2.8,2.8,0,0,0-1.568-.95v-0.05a2.559,2.559,0,0,0,1.376-.89,2.457,2.457,0,0,0,.528-1.58,2.713,2.713,0,0,0-1.176-2.36,5.068,5.068,0,0,0-5.464-.08,3.659,3.659,0,0,0-1.568,2.12l2.5,0.58a1.6,1.6,0,0,1,.552-0.92,1.532,1.532,0,0,1,1-.34,1.572,1.572,0,0,1,1.008.33,1.121,1.121,0,0,1,.416.91q0,1.35-1.984,1.35h-0.784v1.97h0.72a3.53,3.53,0,0,1,1.64.34,1.188,1.188,0,0,1,.664,1.14,1.244,1.244,0,0,1-.5,1.09,1.9,1.9,0,0,1-1.152.35,1.916,1.916,0,0,1-1.92-1.4l-2.5.65a3.749,3.749,0,0,0,1.664,2.26,5.847,5.847,0,0,0,4.912.38,3.634,3.634,0,0,0,1.592-1.21,3.2,3.2,0,0,0,.648-2.02A2.519,2.519,0,0,0,673.22,3451.13Zm10.56,2.63h-4.624l2.624-2.34a8.35,8.35,0,0,0,1.48-1.63,3.3,3.3,0,0,0,.5-1.85,3.031,3.031,0,0,0-1.2-2.58,4.688,4.688,0,0,0-2.9-.9,4.467,4.467,0,0,0-2.912.99,3.819,3.819,0,0,0-1.408,2.66l2.576,0.35a2.12,2.12,0,0,1,.512-1.24,1.427,1.427,0,0,1,1.088-.47,1.405,1.405,0,0,1,1.024.38,1.314,1.314,0,0,1,.384.98,2.486,2.486,0,0,1-.928,1.75l-4.416,4v2.24h8.192v-2.34Zm11.9-3.52a3.028,3.028,0,0,0-2.152,5.17,3.071,3.071,0,0,0,4.3,0A3.025,3.025,0,0,0,695.684,3450.24Zm0,4.26a1.213,1.213,0,0,1-.88-0.36,1.18,1.18,0,0,1-.368-0.88,1.248,1.248,0,0,1,2.5,0,1.18,1.18,0,0,1-.368.88A1.214,1.214,0,0,1,695.684,3454.5Zm-5.528-9.04a3.071,3.071,0,0,0-4.3,0,2.889,2.889,0,0,0-.888,2.14,3.04,3.04,0,0,0,6.08,0A2.889,2.889,0,0,0,690.156,3445.46ZM688,3448.83a1.213,1.213,0,0,1-.88-0.36,1.174,1.174,0,0,1-.368-0.87,1.212,1.212,0,0,1,.368-0.88,1.231,1.231,0,0,1,1.76,0,1.212,1.212,0,0,1,.368.88,1.174,1.174,0,0,1-.368.87A1.214,1.214,0,0,1,688,3448.83Zm6.416-4.57-6.608,11.68,1.424,0.7,6.672-11.66Zm-20.64,45.5h-4.624l2.624-2.34a8.35,8.35,0,0,0,1.48-1.63,3.3,3.3,0,0,0,.5-1.85,3.031,3.031,0,0,0-1.2-2.58,4.688,4.688,0,0,0-2.9-.9,4.465,4.465,0,0,0-2.912.99,3.819,3.819,0,0,0-1.408,2.66l2.576,0.35a2.12,2.12,0,0,1,.512-1.24,1.427,1.427,0,0,1,1.088-.47,1.405,1.405,0,0,1,1.024.38,1.314,1.314,0,0,1,.384.98,2.486,2.486,0,0,1-.928,1.75l-4.416,4v2.24h8.192v-2.34Zm9.32-7.52a3.55,3.55,0,0,0-1.376-1.3,4.162,4.162,0,0,0-2.04-.48,4.208,4.208,0,0,0-2.048.48,3.586,3.586,0,0,0-1.392,1.3,6.332,6.332,0,0,0-.76,1.87,9.954,9.954,0,0,0-.248,2.29,9.7,9.7,0,0,0,.424,3,4.509,4.509,0,0,0,1.456,2.15,3.887,3.887,0,0,0,2.568.85,4.162,4.162,0,0,0,2.04-.48,3.6,3.6,0,0,0,1.376-1.32,6.533,6.533,0,0,0,.752-1.9,10.743,10.743,0,0,0,0-4.59A6.457,6.457,0,0,0,683.1,3482.24Zm-1.816,5.37a7.443,7.443,0,0,1-.232,1.17,2.183,2.183,0,0,1-.52.96,1.145,1.145,0,0,1-.848.36,1.161,1.161,0,0,1-.864-0.36,2.183,2.183,0,0,1-.52-0.96,8.237,8.237,0,0,1-.24-1.18,9.58,9.58,0,0,1-.072-1.2,9.418,9.418,0,0,1,.072-1.19,7.722,7.722,0,0,1,.24-1.16,2.106,2.106,0,0,1,.528-0.95,1.169,1.169,0,0,1,.856-0.36,1.145,1.145,0,0,1,.848.36,2.145,2.145,0,0,1,.52.95,7.111,7.111,0,0,1,.232,1.16,10.74,10.74,0,0,1,.064,1.19A10.976,10.976,0,0,1,681.284,3487.61Zm14.4-1.37a3.028,3.028,0,0,0-2.152,5.17,3.071,3.071,0,0,0,4.3,0A3.025,3.025,0,0,0,695.684,3486.24Zm0,4.26a1.213,1.213,0,0,1-.88-0.36,1.18,1.18,0,0,1-.368-0.88,1.248,1.248,0,0,1,2.5,0,1.18,1.18,0,0,1-.368.88A1.214,1.214,0,0,1,695.684,3490.5Zm-5.528-9.04a3.071,3.071,0,0,0-4.3,0,2.889,2.889,0,0,0-.888,2.14,3.04,3.04,0,0,0,6.08,0A2.889,2.889,0,0,0,690.156,3481.46ZM688,3484.83a1.213,1.213,0,0,1-.88-0.36,1.174,1.174,0,0,1-.368-0.87,1.212,1.212,0,0,1,.368-0.88,1.231,1.231,0,0,1,1.76,0,1.212,1.212,0,0,1,.368.88,1.174,1.174,0,0,1-.368.87A1.214,1.214,0,0,1,688,3484.83Zm6.416-4.57-6.608,11.68,1.424,0.7,6.672-11.66Zm-22.7,36.51h-2.464l-3.728,2.73,1.392,1.91,2.112-1.63v8.32h2.688v-11.33Zm12.064,8.99h-4.624l2.624-2.34a8.35,8.35,0,0,0,1.48-1.63,3.3,3.3,0,0,0,.5-1.85,3.031,3.031,0,0,0-1.2-2.58,4.688,4.688,0,0,0-2.9-.9,4.467,4.467,0,0,0-2.912.99,3.819,3.819,0,0,0-1.408,2.66l2.576,0.35a2.12,2.12,0,0,1,.512-1.24,1.427,1.427,0,0,1,1.088-.47,1.405,1.405,0,0,1,1.024.38,1.314,1.314,0,0,1,.384.98,2.486,2.486,0,0,1-.928,1.75l-4.416,4v2.24h8.192v-2.34Zm11.9-3.52a3.028,3.028,0,0,0-2.152,5.17,3.071,3.071,0,0,0,4.3,0A3.025,3.025,0,0,0,695.684,3522.24Zm0,4.26a1.213,1.213,0,0,1-.88-0.36,1.18,1.18,0,0,1-.368-0.88,1.248,1.248,0,0,1,2.5,0,1.18,1.18,0,0,1-.368.88A1.214,1.214,0,0,1,695.684,3526.5Zm-5.528-9.04a3.071,3.071,0,0,0-4.3,0,2.889,2.889,0,0,0-.888,2.14,3.04,3.04,0,0,0,6.08,0A2.889,2.889,0,0,0,690.156,3517.46ZM688,3520.83a1.213,1.213,0,0,1-.88-0.36,1.174,1.174,0,0,1-.368-0.87,1.212,1.212,0,0,1,.368-0.88,1.231,1.231,0,0,1,1.76,0,1.212,1.212,0,0,1,.368.88,1.174,1.174,0,0,1-.368.87A1.214,1.214,0,0,1,688,3520.83Zm6.416-4.57-6.608,11.68,1.424,0.7,6.672-11.66Zm-16.072,42.89a2.708,2.708,0,0,0-1.456-.97v-0.05a2.473,2.473,0,0,0,1.256-.91,2.618,2.618,0,0,0,.472-1.57,2.756,2.756,0,0,0-1.144-2.35,4.616,4.616,0,0,0-2.808-.84,4.5,4.5,0,0,0-2.808.87,2.792,2.792,0,0,0-1.144,2.37,2.441,2.441,0,0,0,.48,1.52,2.667,2.667,0,0,0,1.248.92v0.04a2.921,2.921,0,0,0-1.456.99,2.654,2.654,0,0,0-.576,1.71,3.064,3.064,0,0,0,1.224,2.61,5.468,5.468,0,0,0,6.056-.01,3.076,3.076,0,0,0,1.232-2.62A2.693,2.693,0,0,0,678.348,3559.15Zm-3.68-1.97a1.279,1.279,0,0,1-.976-0.39,1.336,1.336,0,0,1-.368-0.95,1.26,1.26,0,0,1,.376-0.93,1.427,1.427,0,0,1,1.928.01,1.216,1.216,0,0,1,.4.92,1.352,1.352,0,0,1-1.36,1.34h0Zm1.136,4.68a1.555,1.555,0,0,1-1.136.41,1.626,1.626,0,0,1-1.144-.41,1.432,1.432,0,0,1-.44-1.09,1.488,1.488,0,0,1,.448-1.1,1.568,1.568,0,0,1,1.136-.44,1.548,1.548,0,0,1,1.12.44,1.488,1.488,0,0,1,.448,1.1A1.418,1.418,0,0,1,675.8,3561.86Zm14.88-3.62a3.028,3.028,0,0,0-2.152,5.17,3.071,3.071,0,0,0,4.3,0A3.025,3.025,0,0,0,690.684,3558.24Zm0,4.26a1.213,1.213,0,0,1-.88-0.36,1.18,1.18,0,0,1-.368-0.88,1.248,1.248,0,0,1,2.5,0,1.18,1.18,0,0,1-.368.88A1.214,1.214,0,0,1,690.684,3562.5Zm-5.528-9.04a3.071,3.071,0,0,0-4.3,0,2.889,2.889,0,0,0-.888,2.14,3.04,3.04,0,0,0,6.08,0A2.889,2.889,0,0,0,685.156,3553.46ZM683,3556.83a1.213,1.213,0,0,1-.88-0.36,1.174,1.174,0,0,1-.368-0.87,1.212,1.212,0,0,1,.368-0.88,1.231,1.231,0,0,1,1.76,0,1.212,1.212,0,0,1,.368.88,1.174,1.174,0,0,1-.368.87A1.214,1.214,0,0,1,683,3556.83Zm6.416-4.57-6.608,11.68,1.424,0.7,6.672-11.66Zm-10.128,43.45h-1.568v-6.94h-3.216l-4.608,6.86v2.26h5.328v2.21h2.512v-2.21h1.552v-2.18Zm-6.784,0,2.688-4.19h0.048v4.19h-2.736Zm18.176-1.47a3.028,3.028,0,0,0-2.152,5.17,3.071,3.071,0,0,0,4.3,0A3.025,3.025,0,0,0,690.684,3594.24Zm0,4.26a1.213,1.213,0,0,1-.88-0.36,1.18,1.18,0,0,1-.368-0.88,1.248,1.248,0,0,1,2.5,0,1.18,1.18,0,0,1-.368.88A1.214,1.214,0,0,1,690.684,3598.5Zm-5.528-9.04a3.071,3.071,0,0,0-4.3,0,2.889,2.889,0,0,0-.888,2.14,3.04,3.04,0,0,0,6.08,0A2.889,2.889,0,0,0,685.156,3589.46ZM683,3592.83a1.213,1.213,0,0,1-.88-0.36,1.174,1.174,0,0,1-.368-0.87,1.212,1.212,0,0,1,.368-0.88,1.231,1.231,0,0,1,1.76,0,1.212,1.212,0,0,1,.368.88,1.174,1.174,0,0,1-.368.87A1.214,1.214,0,0,1,683,3592.83Zm6.416-4.57-6.608,11.68,1.424,0.7,6.672-11.66Zm-10.128,43.45h-1.568v-6.94h-3.216l-4.608,6.86v2.26h5.328v2.21h2.512v-2.21h1.552v-2.18Zm-6.784,0,2.688-4.19h0.048v4.19h-2.736Zm18.176-1.47a3.028,3.028,0,0,0-2.152,5.17,3.071,3.071,0,0,0,4.3,0A3.025,3.025,0,0,0,690.684,3630.24Zm0,4.26a1.213,1.213,0,0,1-.88-0.36,1.18,1.18,0,0,1-.368-0.88,1.248,1.248,0,0,1,2.5,0,1.18,1.18,0,0,1-.368.88A1.214,1.214,0,0,1,690.684,3634.5Zm-5.528-9.04a3.071,3.071,0,0,0-4.3,0,2.889,2.889,0,0,0-.888,2.14,3.04,3.04,0,0,0,6.08,0A2.889,2.889,0,0,0,685.156,3625.46ZM683,3628.83a1.213,1.213,0,0,1-.88-0.36,1.174,1.174,0,0,1-.368-0.87,1.212,1.212,0,0,1,.368-0.88,1.231,1.231,0,0,1,1.76,0,1.212,1.212,0,0,1,.368.88,1.174,1.174,0,0,1-.368.87A1.214,1.214,0,0,1,683,3628.83Zm6.416-4.57-6.608,11.68,1.424,0.7,6.672-11.66Zm-10.128,43.45h-1.568v-6.94h-3.216l-4.608,6.86v2.26h5.328v2.21h2.512v-2.21h1.552v-2.18Zm-6.784,0,2.688-4.19h0.048v4.19h-2.736Zm18.176-1.47a3.028,3.028,0,0,0-2.152,5.17,3.071,3.071,0,0,0,4.3,0A3.025,3.025,0,0,0,690.684,3666.24Zm0,4.26a1.213,1.213,0,0,1-.88-0.36,1.18,1.18,0,0,1-.368-0.88,1.248,1.248,0,0,1,2.5,0,1.18,1.18,0,0,1-.368.88A1.214,1.214,0,0,1,690.684,3670.5Zm-5.528-9.04a3.071,3.071,0,0,0-4.3,0,2.889,2.889,0,0,0-.888,2.14,3.04,3.04,0,0,0,6.08,0A2.889,2.889,0,0,0,685.156,3661.46ZM683,3664.83a1.213,1.213,0,0,1-.88-0.36,1.174,1.174,0,0,1-.368-0.87,1.212,1.212,0,0,1,.368-0.88,1.231,1.231,0,0,1,1.76,0,1.212,1.212,0,0,1,.368.88,1.174,1.174,0,0,1-.368.87A1.214,1.214,0,0,1,683,3664.83Zm6.416-4.57-6.608,11.68,1.424,0.7,6.672-11.66Zm-10.128,43.45h-1.568v-6.94h-3.216l-4.608,6.86v2.26h5.328v2.21h2.512v-2.21h1.552v-2.18Zm-6.784,0,2.688-4.19h0.048v4.19h-2.736Zm18.176-1.47a3.028,3.028,0,0,0-2.152,5.17,3.071,3.071,0,0,0,4.3,0A3.025,3.025,0,0,0,690.684,3702.24Zm0,4.26a1.213,1.213,0,0,1-.88-0.36,1.18,1.18,0,0,1-.368-0.88,1.248,1.248,0,0,1,2.5,0,1.18,1.18,0,0,1-.368.88A1.214,1.214,0,0,1,690.684,3706.5Zm-5.528-9.04a3.071,3.071,0,0,0-4.3,0,2.889,2.889,0,0,0-.888,2.14,3.04,3.04,0,0,0,6.08,0A2.889,2.889,0,0,0,685.156,3697.46ZM683,3700.83a1.213,1.213,0,0,1-.88-0.36,1.174,1.174,0,0,1-.368-0.87,1.212,1.212,0,0,1,.368-0.88,1.231,1.231,0,0,1,1.76,0,1.212,1.212,0,0,1,.368.88,1.174,1.174,0,0,1-.368.87A1.214,1.214,0,0,1,683,3700.83Zm6.416-4.57-6.608,11.68,1.424,0.7,6.672-11.66Zm-10.128,43.45h-1.568v-6.94h-3.216l-4.608,6.86v2.26h5.328v2.21h2.512v-2.21h1.552v-2.18Zm-6.784,0,2.688-4.19h0.048v4.19h-2.736Zm18.176-1.47a3.028,3.028,0,0,0-2.152,5.17,3.071,3.071,0,0,0,4.3,0A3.025,3.025,0,0,0,690.684,3738.24Zm0,4.26a1.213,1.213,0,0,1-.88-0.36,1.18,1.18,0,0,1-.368-0.88,1.248,1.248,0,0,1,2.5,0,1.18,1.18,0,0,1-.368.88A1.214,1.214,0,0,1,690.684,3742.5Zm-5.528-9.04a3.071,3.071,0,0,0-4.3,0,2.889,2.889,0,0,0-.888,2.14,3.04,3.04,0,0,0,6.08,0A2.889,2.889,0,0,0,685.156,3733.46ZM683,3736.83a1.213,1.213,0,0,1-.88-0.36,1.174,1.174,0,0,1-.368-0.87,1.212,1.212,0,0,1,.368-0.88,1.231,1.231,0,0,1,1.76,0,1.212,1.212,0,0,1,.368.88,1.174,1.174,0,0,1-.368.87A1.214,1.214,0,0,1,683,3736.83Zm6.416-4.57-6.608,11.68,1.424,0.7,6.672-11.66Zm-10.128,43.45h-1.568v-6.94h-3.216l-4.608,6.86v2.26h5.328v2.21h2.512v-2.21h1.552v-2.18Zm-6.784,0,2.688-4.19h0.048v4.19h-2.736Zm18.176-1.47a3.028,3.028,0,0,0-2.152,5.17,3.071,3.071,0,0,0,4.3,0A3.025,3.025,0,0,0,690.684,3774.24Zm0,4.26a1.213,1.213,0,0,1-.88-0.36,1.18,1.18,0,0,1-.368-0.88,1.248,1.248,0,0,1,2.5,0,1.18,1.18,0,0,1-.368.88A1.214,1.214,0,0,1,690.684,3778.5Zm-5.528-9.04a3.071,3.071,0,0,0-4.3,0,2.889,2.889,0,0,0-.888,2.14,3.04,3.04,0,0,0,6.08,0A2.889,2.889,0,0,0,685.156,3769.46ZM683,3772.83a1.213,1.213,0,0,1-.88-0.36,1.174,1.174,0,0,1-.368-0.87,1.212,1.212,0,0,1,.368-0.88,1.231,1.231,0,0,1,1.76,0,1.212,1.212,0,0,1,.368.88,1.174,1.174,0,0,1-.368.87A1.214,1.214,0,0,1,683,3772.83Zm6.416-4.57-6.608,11.68,1.424,0.7,6.672-11.66Zm-10.64,45.5h-4.624l2.624-2.34a8.35,8.35,0,0,0,1.48-1.63,3.3,3.3,0,0,0,.5-1.85,3.031,3.031,0,0,0-1.2-2.58,4.688,4.688,0,0,0-2.9-.9,4.467,4.467,0,0,0-2.912.99,3.819,3.819,0,0,0-1.408,2.66l2.576,0.35a2.12,2.12,0,0,1,.512-1.24,1.427,1.427,0,0,1,1.088-.47,1.405,1.405,0,0,1,1.024.38,1.314,1.314,0,0,1,.384.98,2.486,2.486,0,0,1-.928,1.75l-4.416,4v2.24h8.192v-2.34Zm11.9-3.52a3.028,3.028,0,0,0-2.152,5.17,3.071,3.071,0,0,0,4.3,0A3.025,3.025,0,0,0,690.684,3810.24Zm0,4.26a1.213,1.213,0,0,1-.88-0.36,1.18,1.18,0,0,1-.368-0.88,1.248,1.248,0,0,1,2.5,0,1.18,1.18,0,0,1-.368.88A1.214,1.214,0,0,1,690.684,3814.5Zm-5.528-9.04a3.071,3.071,0,0,0-4.3,0,2.889,2.889,0,0,0-.888,2.14,3.04,3.04,0,0,0,6.08,0A2.889,2.889,0,0,0,685.156,3805.46ZM683,3808.83a1.213,1.213,0,0,1-.88-0.36,1.174,1.174,0,0,1-.368-0.87,1.212,1.212,0,0,1,.368-0.88,1.231,1.231,0,0,1,1.76,0,1.212,1.212,0,0,1,.368.88,1.174,1.174,0,0,1-.368.87A1.214,1.214,0,0,1,683,3808.83Zm6.416-4.57-6.608,11.68,1.424,0.7,6.672-11.66Zm-10.64,45.5h-4.624l2.624-2.34a8.35,8.35,0,0,0,1.48-1.63,3.3,3.3,0,0,0,.5-1.85,3.031,3.031,0,0,0-1.2-2.58,4.688,4.688,0,0,0-2.9-.9,4.467,4.467,0,0,0-2.912.99,3.819,3.819,0,0,0-1.408,2.66l2.576,0.35a2.12,2.12,0,0,1,.512-1.24,1.427,1.427,0,0,1,1.088-.47,1.405,1.405,0,0,1,1.024.38,1.314,1.314,0,0,1,.384.98,2.486,2.486,0,0,1-.928,1.75l-4.416,4v2.24h8.192v-2.34Zm11.9-3.52a3.028,3.028,0,0,0-2.152,5.17,3.071,3.071,0,0,0,4.3,0A3.025,3.025,0,0,0,690.684,3846.24Zm0,4.26a1.213,1.213,0,0,1-.88-0.36,1.18,1.18,0,0,1-.368-0.88,1.248,1.248,0,0,1,2.5,0,1.18,1.18,0,0,1-.368.88A1.214,1.214,0,0,1,690.684,3850.5Zm-5.528-9.04a3.071,3.071,0,0,0-4.3,0,2.889,2.889,0,0,0-.888,2.14,3.04,3.04,0,0,0,6.08,0A2.889,2.889,0,0,0,685.156,3841.46ZM683,3844.83a1.213,1.213,0,0,1-.88-0.36,1.174,1.174,0,0,1-.368-0.87,1.212,1.212,0,0,1,.368-0.88,1.231,1.231,0,0,1,1.76,0,1.212,1.212,0,0,1,.368.88,1.174,1.174,0,0,1-.368.87A1.214,1.214,0,0,1,683,3844.83Zm6.416-4.57-6.608,11.68,1.424,0.7,6.672-11.66Z" transform="translate(-431 -3414.44)"/>
  <path id="_LV_1_LV_2_LV_3_LV_4_LV_5_LV_6_LV_7_LV_8_LV_9_LV_10" data-name="  LV 1 LV 2 LV 3 LV 4 LV 5 LV 6 LV 7 LV 8 LV 9 LV 10" class="cls-3" d="M580.3,3525.71H575.92v-8.94h-2.752v11.33H580.3v-2.39Zm7.824-8.94-2.608,8.03h-0.064l-2.624-8.03H579.76l4.288,11.33h2.736l4.368-11.33h-3.024Zm14.088,0h-2.464l-3.728,2.73,1.392,1.91,2.112-1.63v8.32h2.688v-11.33ZM580.3,3561.71H575.92v-8.94h-2.752v11.33H580.3v-2.39Zm7.824-8.94-2.608,8.03h-0.064l-2.624-8.03H579.76l4.288,11.33h2.736l4.368-11.33h-3.024Zm16.152,8.99h-4.624l2.624-2.34a8.35,8.35,0,0,0,1.48-1.63,3.3,3.3,0,0,0,.5-1.85,3.031,3.031,0,0,0-1.2-2.58,4.688,4.688,0,0,0-2.9-.9,4.465,4.465,0,0,0-2.912.99,3.819,3.819,0,0,0-1.408,2.66l2.576,0.35a2.12,2.12,0,0,1,.512-1.24,1.427,1.427,0,0,1,1.088-.47,1.405,1.405,0,0,1,1.024.38,1.314,1.314,0,0,1,.384.98,2.486,2.486,0,0,1-.928,1.75l-4.416,4v2.24h8.192v-2.34ZM580.3,3597.71H575.92v-8.94h-2.752v11.33H580.3v-2.39Zm7.824-8.94-2.608,8.03h-0.064l-2.624-8.03H579.76l4.288,11.33h2.736l4.368-11.33h-3.024Zm15.592,6.36a2.793,2.793,0,0,0-1.568-.95v-0.05a2.559,2.559,0,0,0,1.376-.89,2.457,2.457,0,0,0,.528-1.58,2.713,2.713,0,0,0-1.176-2.36,5.068,5.068,0,0,0-5.464-.08,3.659,3.659,0,0,0-1.568,2.12l2.5,0.58a1.6,1.6,0,0,1,.552-0.92,1.532,1.532,0,0,1,1-.34,1.572,1.572,0,0,1,1.008.33,1.121,1.121,0,0,1,.416.91q0,1.35-1.984,1.35h-0.784v1.97h0.72a3.53,3.53,0,0,1,1.64.34,1.188,1.188,0,0,1,.664,1.14,1.244,1.244,0,0,1-.5,1.09,1.9,1.9,0,0,1-1.152.35,1.916,1.916,0,0,1-1.92-1.4l-2.5.65a3.749,3.749,0,0,0,1.664,2.26,5.847,5.847,0,0,0,4.912.38,3.634,3.634,0,0,0,1.592-1.21,3.2,3.2,0,0,0,.648-2.02A2.519,2.519,0,0,0,603.72,3595.13ZM580.3,3633.71H575.92v-8.94h-2.752v11.33H580.3v-2.39Zm7.824-8.94-2.608,8.03h-0.064l-2.624-8.03H579.76l4.288,11.33h2.736l4.368-11.33h-3.024Zm16.664,6.94h-1.568v-6.94h-3.216l-4.608,6.86v2.26h5.328v2.21h2.512v-2.21h1.552v-2.18Zm-6.784,0,2.688-4.19h0.048v4.19h-2.736Zm-17.7,38H575.92v-8.94h-2.752v11.33H580.3v-2.39Zm7.824-8.94-2.608,8.03h-0.064l-2.624-8.03H579.76l4.288,11.33h2.736l4.368-11.33h-3.024Zm15.032,4.92a4.488,4.488,0,0,0-2.944-.94,5.2,5.2,0,0,0-1.136.11l0.1-1.79h4.56v-2.3h-6.944l-0.272,6.48a8.132,8.132,0,0,1,2.768-.5,3.237,3.237,0,0,1,1.648.4,1.428,1.428,0,0,1,.672,1.33,1.555,1.555,0,0,1-.488,1.22,1.793,1.793,0,0,1-1.208.43,1.871,1.871,0,0,1-1.144-.38,1.836,1.836,0,0,1-.68-0.98l-2.448.75a3.706,3.706,0,0,0,1.568,2.1,4.81,4.81,0,0,0,2.736.78,4.712,4.712,0,0,0,3.088-1.05,3.66,3.66,0,0,0,1.28-3A3.225,3.225,0,0,0,603.16,3665.69ZM580.3,3705.71H575.92v-8.94h-2.752v11.33H580.3v-2.39Zm7.824-8.94-2.608,8.03h-0.064l-2.624-8.03H579.76l4.288,11.33h2.736l4.368-11.33h-3.024Zm15.4,4.86a3.676,3.676,0,0,0-2.624-1.04,2.144,2.144,0,0,0-.8.13l0.048-.08,2.784-3.87h-3.248l-2.736,4.08a6.394,6.394,0,0,0-1.264,3.5,3.7,3.7,0,0,0,1.28,2.94,5.1,5.1,0,0,0,6.368-.01,3.776,3.776,0,0,0,1.28-2.99A3.53,3.53,0,0,0,603.528,3701.63Zm-2.1,4.03a1.739,1.739,0,0,1-1.28.5,1.677,1.677,0,0,1-1.28-.52,1.888,1.888,0,0,1,.008-2.56,1.725,1.725,0,0,1,1.288-.5,1.673,1.673,0,0,1,1.272.5,1.761,1.761,0,0,1,.488,1.27A1.789,1.789,0,0,1,601.432,3705.66ZM580.3,3741.71H575.92v-8.94h-2.752v11.33H580.3v-2.39Zm7.824-8.94-2.608,8.03h-0.064l-2.624-8.03H579.76l4.288,11.33h2.736l4.368-11.33h-3.024Zm16.1,0h-8.224v2.3h5.36l-4.592,9.03h3.12l4.336-9.19v-2.14ZM580.3,3777.71H575.92v-8.94h-2.752v11.33H580.3v-2.39Zm7.824-8.94-2.608,8.03h-0.064l-2.624-8.03H579.76l4.288,11.33h2.736l4.368-11.33h-3.024Zm15.72,6.38a2.708,2.708,0,0,0-1.456-.97v-0.05a2.473,2.473,0,0,0,1.256-.91,2.618,2.618,0,0,0,.472-1.57,2.756,2.756,0,0,0-1.144-2.35,4.616,4.616,0,0,0-2.808-.84,4.5,4.5,0,0,0-2.808.87,2.792,2.792,0,0,0-1.144,2.37,2.441,2.441,0,0,0,.48,1.52,2.667,2.667,0,0,0,1.248.92v0.04a2.921,2.921,0,0,0-1.456.99,2.654,2.654,0,0,0-.576,1.71,3.064,3.064,0,0,0,1.224,2.61,5.468,5.468,0,0,0,6.056-.01,3.076,3.076,0,0,0,1.232-2.62A2.693,2.693,0,0,0,603.848,3775.15Zm-3.68-1.97a1.279,1.279,0,0,1-.976-0.39,1.34,1.34,0,0,1-.368-0.95,1.26,1.26,0,0,1,.376-0.93,1.427,1.427,0,0,1,1.928.01,1.216,1.216,0,0,1,.4.92,1.352,1.352,0,0,1-1.36,1.34h0Zm1.136,4.68a1.555,1.555,0,0,1-1.136.41,1.624,1.624,0,0,1-1.144-.41,1.432,1.432,0,0,1-.44-1.09,1.488,1.488,0,0,1,.448-1.1,1.566,1.566,0,0,1,1.136-.44,1.548,1.548,0,0,1,1.12.44,1.488,1.488,0,0,1,.448,1.1A1.418,1.418,0,0,1,601.3,3777.86Zm-21,35.85H575.92v-8.94h-2.752v11.33H580.3v-2.39Zm7.824-8.94-2.608,8.03h-0.064l-2.624-8.03H579.76l4.288,11.33h2.736l4.368-11.33h-3.024Zm15.224,0.81a4.645,4.645,0,0,0-3.184-1.12,4.694,4.694,0,0,0-3.184,1.12,3.8,3.8,0,0,0-1.28,3,3.493,3.493,0,0,0,1.1,2.65,3.661,3.661,0,0,0,2.632,1.04,2.227,2.227,0,0,0,.8-0.13l-0.032.05-2.816,3.91h3.248l2.736-4.08a6.423,6.423,0,0,0,1.264-3.51A3.694,3.694,0,0,0,603.352,3805.58Zm-1.9,4.2a1.752,1.752,0,0,1-1.3.49,1.71,1.71,0,0,1-1.272-.5,1.761,1.761,0,0,1-.488-1.27,1.828,1.828,0,0,1,.5-1.32,1.728,1.728,0,0,1,1.3-.51,1.659,1.659,0,0,1,1.272.53,1.818,1.818,0,0,1,.488,1.28A1.769,1.769,0,0,1,601.448,3809.78ZM580.3,3849.71H575.92v-8.94h-2.752v11.33H580.3v-2.39Zm7.824-8.94-2.608,8.03h-0.064l-2.624-8.03H579.76l4.288,11.33h2.736l4.368-11.33h-3.024Zm14.088,0h-2.464l-3.728,2.73,1.392,1.91,2.112-1.63v8.32h2.688v-11.33Zm11.384,1.47a3.55,3.55,0,0,0-1.376-1.3,4.162,4.162,0,0,0-2.04-.48,4.208,4.208,0,0,0-2.048.48,3.586,3.586,0,0,0-1.392,1.3,6.332,6.332,0,0,0-.76,1.87,9.954,9.954,0,0,0-.248,2.29,9.7,9.7,0,0,0,.424,3,4.509,4.509,0,0,0,1.456,2.15,3.887,3.887,0,0,0,2.568.85,4.162,4.162,0,0,0,2.04-.48,3.6,3.6,0,0,0,1.376-1.32,6.533,6.533,0,0,0,.752-1.9,10.743,10.743,0,0,0,0-4.59A6.457,6.457,0,0,0,613.6,3842.24Zm-1.816,5.37a7.443,7.443,0,0,1-.232,1.17,2.183,2.183,0,0,1-.52.96,1.145,1.145,0,0,1-.848.36,1.161,1.161,0,0,1-.864-0.36,2.183,2.183,0,0,1-.52-0.96,8.237,8.237,0,0,1-.24-1.18,9.58,9.58,0,0,1-.072-1.2,9.418,9.418,0,0,1,.072-1.19,7.722,7.722,0,0,1,.24-1.16,2.106,2.106,0,0,1,.528-0.95,1.169,1.169,0,0,1,.856-0.36,1.145,1.145,0,0,1,.848.36,2.145,2.145,0,0,1,.52.95,7.111,7.111,0,0,1,.232,1.16,10.74,10.74,0,0,1,.064,1.19A10.976,10.976,0,0,1,611.784,3847.61Z" transform="translate(-431 -3414.44)"/>
  <path id="_20_40_80_150_300_750_1500_3000_10_000_25_000" data-name="  20 40 80 150 300 750 1500 3000 10 000 25 000" class="cls-3" d="M936.78,3525.76h-4.624l2.624-2.34a8.35,8.35,0,0,0,1.48-1.63,3.3,3.3,0,0,0,.5-1.85,3.031,3.031,0,0,0-1.2-2.58,4.69,4.69,0,0,0-2.9-.9,4.465,4.465,0,0,0-2.912.99,3.819,3.819,0,0,0-1.408,2.66l2.576,0.35a2.12,2.12,0,0,1,.512-1.24,1.425,1.425,0,0,1,1.088-.47,1.405,1.405,0,0,1,1.024.38,1.314,1.314,0,0,1,.384.98,2.489,2.489,0,0,1-.928,1.75l-4.416,4v2.24h8.192v-2.34Zm9.32-7.52a3.55,3.55,0,0,0-1.376-1.3,4.168,4.168,0,0,0-2.04-.48,4.21,4.21,0,0,0-2.048.48,3.586,3.586,0,0,0-1.392,1.3,6.305,6.305,0,0,0-.76,1.87,9.954,9.954,0,0,0-.248,2.29,9.7,9.7,0,0,0,.424,3,4.509,4.509,0,0,0,1.456,2.15,3.887,3.887,0,0,0,2.568.85,4.168,4.168,0,0,0,2.04-.48,3.6,3.6,0,0,0,1.376-1.32,6.561,6.561,0,0,0,.752-1.9,10.743,10.743,0,0,0,0-4.59A6.485,6.485,0,0,0,946.1,3518.24Zm-1.816,5.37a7.443,7.443,0,0,1-.232,1.17,2.183,2.183,0,0,1-.52.96,1.145,1.145,0,0,1-.848.36,1.161,1.161,0,0,1-.864-0.36,2.183,2.183,0,0,1-.52-0.96,8.237,8.237,0,0,1-.24-1.18,9.58,9.58,0,0,1-.072-1.2,9.418,9.418,0,0,1,.072-1.19,7.722,7.722,0,0,1,.24-1.16,2.106,2.106,0,0,1,.528-0.95,1.169,1.169,0,0,1,.856-0.36,1.145,1.145,0,0,1,.848.36,2.145,2.145,0,0,1,.52.95,7.111,7.111,0,0,1,.232,1.16,10.5,10.5,0,0,1,.064,1.19A10.736,10.736,0,0,1,944.284,3523.61Zm-6.992,36.1h-1.568v-6.94h-3.216l-4.608,6.86v2.26h5.328v2.21h2.512v-2.21h1.552v-2.18Zm-6.784,0,2.688-4.19h0.048v4.19h-2.736Zm15.592-5.47a3.55,3.55,0,0,0-1.376-1.3,4.168,4.168,0,0,0-2.04-.48,4.21,4.21,0,0,0-2.048.48,3.586,3.586,0,0,0-1.392,1.3,6.305,6.305,0,0,0-.76,1.87,9.954,9.954,0,0,0-.248,2.29,9.7,9.7,0,0,0,.424,3,4.509,4.509,0,0,0,1.456,2.15,3.887,3.887,0,0,0,2.568.85,4.168,4.168,0,0,0,2.04-.48,3.6,3.6,0,0,0,1.376-1.32,6.561,6.561,0,0,0,.752-1.9,10.743,10.743,0,0,0,0-4.59A6.485,6.485,0,0,0,946.1,3554.24Zm-1.816,5.37a7.443,7.443,0,0,1-.232,1.17,2.183,2.183,0,0,1-.52.96,1.145,1.145,0,0,1-.848.36,1.161,1.161,0,0,1-.864-0.36,2.183,2.183,0,0,1-.52-0.96,8.237,8.237,0,0,1-.24-1.18,9.58,9.58,0,0,1-.072-1.2,9.418,9.418,0,0,1,.072-1.19,7.722,7.722,0,0,1,.24-1.16,2.106,2.106,0,0,1,.528-0.95,1.169,1.169,0,0,1,.856-0.36,1.145,1.145,0,0,1,.848.36,2.145,2.145,0,0,1,.52.95,7.111,7.111,0,0,1,.232,1.16,10.5,10.5,0,0,1,.064,1.19A10.736,10.736,0,0,1,944.284,3559.61Zm-7.936,35.54a2.708,2.708,0,0,0-1.456-.97v-0.05a2.477,2.477,0,0,0,1.256-.91,2.625,2.625,0,0,0,.472-1.57,2.758,2.758,0,0,0-1.144-2.35,4.616,4.616,0,0,0-2.808-.84,4.5,4.5,0,0,0-2.808.87,2.792,2.792,0,0,0-1.144,2.37,2.441,2.441,0,0,0,.48,1.52,2.667,2.667,0,0,0,1.248.92v0.04a2.921,2.921,0,0,0-1.456.99,2.654,2.654,0,0,0-.576,1.71,3.064,3.064,0,0,0,1.224,2.61,5.468,5.468,0,0,0,6.056-.01,3.076,3.076,0,0,0,1.232-2.62A2.693,2.693,0,0,0,936.348,3595.15Zm-3.68-1.97a1.279,1.279,0,0,1-.976-0.39,1.34,1.34,0,0,1-.368-0.95,1.26,1.26,0,0,1,.376-0.93,1.427,1.427,0,0,1,1.928.01,1.216,1.216,0,0,1,.4.92,1.352,1.352,0,0,1-1.36,1.34h0Zm1.136,4.68a1.555,1.555,0,0,1-1.136.41,1.624,1.624,0,0,1-1.144-.41,1.432,1.432,0,0,1-.44-1.09,1.488,1.488,0,0,1,.448-1.1,1.568,1.568,0,0,1,1.136-.44,1.548,1.548,0,0,1,1.12.44,1.492,1.492,0,0,1,.448,1.1A1.418,1.418,0,0,1,933.8,3597.86Zm12.3-7.62a3.55,3.55,0,0,0-1.376-1.3,4.168,4.168,0,0,0-2.04-.48,4.21,4.21,0,0,0-2.048.48,3.586,3.586,0,0,0-1.392,1.3,6.305,6.305,0,0,0-.76,1.87,9.954,9.954,0,0,0-.248,2.29,9.7,9.7,0,0,0,.424,3,4.509,4.509,0,0,0,1.456,2.15,3.887,3.887,0,0,0,2.568.85,4.168,4.168,0,0,0,2.04-.48,3.6,3.6,0,0,0,1.376-1.32,6.561,6.561,0,0,0,.752-1.9,10.743,10.743,0,0,0,0-4.59A6.485,6.485,0,0,0,946.1,3590.24Zm-1.816,5.37a7.443,7.443,0,0,1-.232,1.17,2.183,2.183,0,0,1-.52.96,1.145,1.145,0,0,1-.848.36,1.161,1.161,0,0,1-.864-0.36,2.183,2.183,0,0,1-.52-0.96,8.237,8.237,0,0,1-.24-1.18,9.58,9.58,0,0,1-.072-1.2,9.418,9.418,0,0,1,.072-1.19,7.722,7.722,0,0,1,.24-1.16,2.106,2.106,0,0,1,.528-0.95,1.169,1.169,0,0,1,.856-0.36,1.145,1.145,0,0,1,.848.36,2.145,2.145,0,0,1,.52.95,7.111,7.111,0,0,1,.232,1.16,10.5,10.5,0,0,1,.064,1.19A10.736,10.736,0,0,1,944.284,3595.61Zm-14.568,29.16h-2.464l-3.728,2.73,1.392,1.91,2.112-1.63v8.32h2.688v-11.33Zm10.944,4.92a4.488,4.488,0,0,0-2.944-.94,5.2,5.2,0,0,0-1.136.11l0.1-1.79h4.56v-2.3h-6.944l-0.272,6.48a8.132,8.132,0,0,1,2.768-.5,3.235,3.235,0,0,1,1.648.4,1.428,1.428,0,0,1,.672,1.33,1.555,1.555,0,0,1-.488,1.22,1.8,1.8,0,0,1-1.208.43,1.871,1.871,0,0,1-1.144-.38,1.836,1.836,0,0,1-.68-0.98l-2.448.75a3.706,3.706,0,0,0,1.568,2.1,4.81,4.81,0,0,0,2.736.78,4.714,4.714,0,0,0,3.088-1.05,3.66,3.66,0,0,0,1.28-3A3.225,3.225,0,0,0,940.66,3629.69Zm10.44-3.45a3.55,3.55,0,0,0-1.376-1.3,4.168,4.168,0,0,0-2.04-.48,4.21,4.21,0,0,0-2.048.48,3.586,3.586,0,0,0-1.392,1.3,6.305,6.305,0,0,0-.76,1.87,9.954,9.954,0,0,0-.248,2.29,9.7,9.7,0,0,0,.424,3,4.509,4.509,0,0,0,1.456,2.15,3.887,3.887,0,0,0,2.568.85,4.168,4.168,0,0,0,2.04-.48,3.6,3.6,0,0,0,1.376-1.32,6.561,6.561,0,0,0,.752-1.9,10.743,10.743,0,0,0,0-4.59A6.485,6.485,0,0,0,951.1,3626.24Zm-1.816,5.37a7.443,7.443,0,0,1-.232,1.17,2.183,2.183,0,0,1-.52.96,1.145,1.145,0,0,1-.848.36,1.161,1.161,0,0,1-.864-0.36,2.183,2.183,0,0,1-.52-0.96,8.237,8.237,0,0,1-.24-1.18,9.58,9.58,0,0,1-.072-1.2,9.418,9.418,0,0,1,.072-1.19,7.722,7.722,0,0,1,.24-1.16,2.106,2.106,0,0,1,.528-0.95,1.169,1.169,0,0,1,.856-0.36,1.145,1.145,0,0,1,.848.36,2.145,2.145,0,0,1,.52.95,7.111,7.111,0,0,1,.232,1.16,10.5,10.5,0,0,1,.064,1.19A10.736,10.736,0,0,1,949.284,3631.61Zm-18.064,35.52a2.793,2.793,0,0,0-1.568-.95v-0.05a2.559,2.559,0,0,0,1.376-.89,2.457,2.457,0,0,0,.528-1.58,2.713,2.713,0,0,0-1.176-2.36,5.068,5.068,0,0,0-5.464-.08,3.659,3.659,0,0,0-1.568,2.12l2.5,0.58a1.6,1.6,0,0,1,.552-0.92,1.531,1.531,0,0,1,1-.34,1.574,1.574,0,0,1,1.008.33,1.121,1.121,0,0,1,.416.91q0,1.35-1.984,1.35h-0.784v1.97h0.72a3.533,3.533,0,0,1,1.64.34,1.188,1.188,0,0,1,.664,1.14,1.244,1.244,0,0,1-.5,1.09,1.9,1.9,0,0,1-1.152.35,1.916,1.916,0,0,1-1.92-1.4l-2.5.65a3.749,3.749,0,0,0,1.664,2.26,5.847,5.847,0,0,0,4.912.38,3.634,3.634,0,0,0,1.592-1.21,3.2,3.2,0,0,0,.648-2.02A2.519,2.519,0,0,0,931.22,3667.13Zm9.88-4.89a3.55,3.55,0,0,0-1.376-1.3,4.168,4.168,0,0,0-2.04-.48,4.21,4.21,0,0,0-2.048.48,3.586,3.586,0,0,0-1.392,1.3,6.305,6.305,0,0,0-.76,1.87,9.954,9.954,0,0,0-.248,2.29,9.7,9.7,0,0,0,.424,3,4.509,4.509,0,0,0,1.456,2.15,3.887,3.887,0,0,0,2.568.85,4.168,4.168,0,0,0,2.04-.48,3.6,3.6,0,0,0,1.376-1.32,6.561,6.561,0,0,0,.752-1.9,10.743,10.743,0,0,0,0-4.59A6.485,6.485,0,0,0,941.1,3662.24Zm-1.816,5.37a7.443,7.443,0,0,1-.232,1.17,2.183,2.183,0,0,1-.52.96,1.145,1.145,0,0,1-.848.36,1.161,1.161,0,0,1-.864-0.36,2.183,2.183,0,0,1-.52-0.96,8.237,8.237,0,0,1-.24-1.18,9.58,9.58,0,0,1-.072-1.2,9.418,9.418,0,0,1,.072-1.19,7.722,7.722,0,0,1,.24-1.16,2.106,2.106,0,0,1,.528-0.95,1.169,1.169,0,0,1,.856-0.36,1.145,1.145,0,0,1,.848.36,2.145,2.145,0,0,1,.52.95,7.111,7.111,0,0,1,.232,1.16,10.5,10.5,0,0,1,.064,1.19A10.736,10.736,0,0,1,939.284,3667.61Zm11.816-5.37a3.55,3.55,0,0,0-1.376-1.3,4.168,4.168,0,0,0-2.04-.48,4.21,4.21,0,0,0-2.048.48,3.586,3.586,0,0,0-1.392,1.3,6.305,6.305,0,0,0-.76,1.87,9.954,9.954,0,0,0-.248,2.29,9.7,9.7,0,0,0,.424,3,4.509,4.509,0,0,0,1.456,2.15,3.887,3.887,0,0,0,2.568.85,4.168,4.168,0,0,0,2.04-.48,3.6,3.6,0,0,0,1.376-1.32,6.561,6.561,0,0,0,.752-1.9,10.743,10.743,0,0,0,0-4.59A6.485,6.485,0,0,0,951.1,3662.24Zm-1.816,5.37a7.443,7.443,0,0,1-.232,1.17,2.183,2.183,0,0,1-.52.96,1.145,1.145,0,0,1-.848.36,1.161,1.161,0,0,1-.864-0.36,2.183,2.183,0,0,1-.52-0.96,8.237,8.237,0,0,1-.24-1.18,9.58,9.58,0,0,1-.072-1.2,9.418,9.418,0,0,1,.072-1.19,7.722,7.722,0,0,1,.24-1.16,2.106,2.106,0,0,1,.528-0.95,1.169,1.169,0,0,1,.856-0.36,1.145,1.145,0,0,1,.848.36,2.145,2.145,0,0,1,.52.95,7.111,7.111,0,0,1,.232,1.16,10.5,10.5,0,0,1,.064,1.19A10.736,10.736,0,0,1,949.284,3667.61Zm-17.552,29.16h-8.224v2.3h5.36l-4.592,9.03h3.12l4.336-9.19v-2.14Zm8.928,4.92a4.488,4.488,0,0,0-2.944-.94,5.2,5.2,0,0,0-1.136.11l0.1-1.79h4.56v-2.3h-6.944l-0.272,6.48a8.132,8.132,0,0,1,2.768-.5,3.235,3.235,0,0,1,1.648.4,1.428,1.428,0,0,1,.672,1.33,1.555,1.555,0,0,1-.488,1.22,1.8,1.8,0,0,1-1.208.43,1.871,1.871,0,0,1-1.144-.38,1.836,1.836,0,0,1-.68-0.98l-2.448.75a3.706,3.706,0,0,0,1.568,2.1,4.81,4.81,0,0,0,2.736.78,4.714,4.714,0,0,0,3.088-1.05,3.66,3.66,0,0,0,1.28-3A3.225,3.225,0,0,0,940.66,3701.69Zm10.44-3.45a3.55,3.55,0,0,0-1.376-1.3,4.168,4.168,0,0,0-2.04-.48,4.21,4.21,0,0,0-2.048.48,3.586,3.586,0,0,0-1.392,1.3,6.305,6.305,0,0,0-.76,1.87,9.954,9.954,0,0,0-.248,2.29,9.7,9.7,0,0,0,.424,3,4.509,4.509,0,0,0,1.456,2.15,3.887,3.887,0,0,0,2.568.85,4.168,4.168,0,0,0,2.04-.48,3.6,3.6,0,0,0,1.376-1.32,6.561,6.561,0,0,0,.752-1.9,10.743,10.743,0,0,0,0-4.59A6.485,6.485,0,0,0,951.1,3698.24Zm-1.816,5.37a7.443,7.443,0,0,1-.232,1.17,2.183,2.183,0,0,1-.52.96,1.145,1.145,0,0,1-.848.36,1.161,1.161,0,0,1-.864-0.36,2.183,2.183,0,0,1-.52-0.96,8.237,8.237,0,0,1-.24-1.18,9.58,9.58,0,0,1-.072-1.2,9.418,9.418,0,0,1,.072-1.19,7.722,7.722,0,0,1,.24-1.16,2.106,2.106,0,0,1,.528-0.95,1.169,1.169,0,0,1,.856-0.36,1.145,1.145,0,0,1,.848.36,2.145,2.145,0,0,1,.52.95,7.111,7.111,0,0,1,.232,1.16,10.5,10.5,0,0,1,.064,1.19A10.736,10.736,0,0,1,949.284,3703.61Zm-24.568,29.16h-2.464l-3.728,2.73,1.392,1.91,2.112-1.63v8.32h2.688v-11.33Zm10.944,4.92a4.488,4.488,0,0,0-2.944-.94,5.2,5.2,0,0,0-1.136.11l0.1-1.79h4.56v-2.3h-6.944l-0.272,6.48a8.132,8.132,0,0,1,2.768-.5,3.235,3.235,0,0,1,1.648.4,1.428,1.428,0,0,1,.672,1.33,1.555,1.555,0,0,1-.488,1.22,1.8,1.8,0,0,1-1.208.43,1.871,1.871,0,0,1-1.144-.38,1.836,1.836,0,0,1-.68-0.98l-2.448.75a3.706,3.706,0,0,0,1.568,2.1,4.81,4.81,0,0,0,2.736.78,4.714,4.714,0,0,0,3.088-1.05,3.66,3.66,0,0,0,1.28-3A3.225,3.225,0,0,0,935.66,3737.69Zm10.44-3.45a3.55,3.55,0,0,0-1.376-1.3,4.168,4.168,0,0,0-2.04-.48,4.21,4.21,0,0,0-2.048.48,3.586,3.586,0,0,0-1.392,1.3,6.305,6.305,0,0,0-.76,1.87,9.954,9.954,0,0,0-.248,2.29,9.7,9.7,0,0,0,.424,3,4.509,4.509,0,0,0,1.456,2.15,3.887,3.887,0,0,0,2.568.85,4.168,4.168,0,0,0,2.04-.48,3.6,3.6,0,0,0,1.376-1.32,6.561,6.561,0,0,0,.752-1.9,10.743,10.743,0,0,0,0-4.59A6.485,6.485,0,0,0,946.1,3734.24Zm-1.816,5.37a7.443,7.443,0,0,1-.232,1.17,2.183,2.183,0,0,1-.52.96,1.145,1.145,0,0,1-.848.36,1.161,1.161,0,0,1-.864-0.36,2.183,2.183,0,0,1-.52-0.96,8.237,8.237,0,0,1-.24-1.18,9.58,9.58,0,0,1-.072-1.2,9.418,9.418,0,0,1,.072-1.19,7.722,7.722,0,0,1,.24-1.16,2.106,2.106,0,0,1,.528-0.95,1.169,1.169,0,0,1,.856-0.36,1.145,1.145,0,0,1,.848.36,2.145,2.145,0,0,1,.52.95,7.111,7.111,0,0,1,.232,1.16,10.5,10.5,0,0,1,.064,1.19A10.736,10.736,0,0,1,944.284,3739.61Zm11.816-5.37a3.55,3.55,0,0,0-1.376-1.3,4.168,4.168,0,0,0-2.04-.48,4.21,4.21,0,0,0-2.048.48,3.586,3.586,0,0,0-1.392,1.3,6.305,6.305,0,0,0-.76,1.87,9.954,9.954,0,0,0-.248,2.29,9.7,9.7,0,0,0,.424,3,4.509,4.509,0,0,0,1.456,2.15,3.887,3.887,0,0,0,2.568.85,4.168,4.168,0,0,0,2.04-.48,3.6,3.6,0,0,0,1.376-1.32,6.561,6.561,0,0,0,.752-1.9,10.743,10.743,0,0,0,0-4.59A6.485,6.485,0,0,0,956.1,3734.24Zm-1.816,5.37a7.443,7.443,0,0,1-.232,1.17,2.183,2.183,0,0,1-.52.96,1.145,1.145,0,0,1-.848.36,1.161,1.161,0,0,1-.864-0.36,2.183,2.183,0,0,1-.52-0.96,8.237,8.237,0,0,1-.24-1.18,9.58,9.58,0,0,1-.072-1.2,9.418,9.418,0,0,1,.072-1.19,7.722,7.722,0,0,1,.24-1.16,2.106,2.106,0,0,1,.528-0.95,1.169,1.169,0,0,1,.856-0.36,1.145,1.145,0,0,1,.848.36,2.145,2.145,0,0,1,.52.95,7.111,7.111,0,0,1,.232,1.16,10.5,10.5,0,0,1,.064,1.19A10.736,10.736,0,0,1,954.284,3739.61Zm-28.064,35.52a2.793,2.793,0,0,0-1.568-.95v-0.05a2.559,2.559,0,0,0,1.376-.89,2.457,2.457,0,0,0,.528-1.58,2.713,2.713,0,0,0-1.176-2.36,5.068,5.068,0,0,0-5.464-.08,3.659,3.659,0,0,0-1.568,2.12l2.5,0.58a1.6,1.6,0,0,1,.552-0.92,1.531,1.531,0,0,1,1-.34,1.574,1.574,0,0,1,1.008.33,1.121,1.121,0,0,1,.416.91q0,1.35-1.984,1.35h-0.784v1.97h0.72a3.533,3.533,0,0,1,1.64.34,1.188,1.188,0,0,1,.664,1.14,1.244,1.244,0,0,1-.5,1.09,1.9,1.9,0,0,1-1.152.35,1.916,1.916,0,0,1-1.92-1.4l-2.5.65a3.749,3.749,0,0,0,1.664,2.26,5.847,5.847,0,0,0,4.912.38,3.634,3.634,0,0,0,1.592-1.21,3.2,3.2,0,0,0,.648-2.02A2.519,2.519,0,0,0,926.22,3775.13Zm9.88-4.89a3.55,3.55,0,0,0-1.376-1.3,4.168,4.168,0,0,0-2.04-.48,4.21,4.21,0,0,0-2.048.48,3.586,3.586,0,0,0-1.392,1.3,6.305,6.305,0,0,0-.76,1.87,9.954,9.954,0,0,0-.248,2.29,9.7,9.7,0,0,0,.424,3,4.509,4.509,0,0,0,1.456,2.15,3.887,3.887,0,0,0,2.568.85,4.168,4.168,0,0,0,2.04-.48,3.6,3.6,0,0,0,1.376-1.32,6.561,6.561,0,0,0,.752-1.9,10.743,10.743,0,0,0,0-4.59A6.485,6.485,0,0,0,936.1,3770.24Zm-1.816,5.37a7.443,7.443,0,0,1-.232,1.17,2.183,2.183,0,0,1-.52.96,1.145,1.145,0,0,1-.848.36,1.161,1.161,0,0,1-.864-0.36,2.183,2.183,0,0,1-.52-0.96,8.237,8.237,0,0,1-.24-1.18,9.58,9.58,0,0,1-.072-1.2,9.418,9.418,0,0,1,.072-1.19,7.722,7.722,0,0,1,.24-1.16,2.106,2.106,0,0,1,.528-0.95,1.169,1.169,0,0,1,.856-0.36,1.145,1.145,0,0,1,.848.36,2.145,2.145,0,0,1,.52.95,7.111,7.111,0,0,1,.232,1.16,10.5,10.5,0,0,1,.064,1.19A10.736,10.736,0,0,1,934.284,3775.61Zm11.816-5.37a3.55,3.55,0,0,0-1.376-1.3,4.168,4.168,0,0,0-2.04-.48,4.21,4.21,0,0,0-2.048.48,3.586,3.586,0,0,0-1.392,1.3,6.305,6.305,0,0,0-.76,1.87,9.954,9.954,0,0,0-.248,2.29,9.7,9.7,0,0,0,.424,3,4.509,4.509,0,0,0,1.456,2.15,3.887,3.887,0,0,0,2.568.85,4.168,4.168,0,0,0,2.04-.48,3.6,3.6,0,0,0,1.376-1.32,6.561,6.561,0,0,0,.752-1.9,10.743,10.743,0,0,0,0-4.59A6.485,6.485,0,0,0,946.1,3770.24Zm-1.816,5.37a7.443,7.443,0,0,1-.232,1.17,2.183,2.183,0,0,1-.52.96,1.145,1.145,0,0,1-.848.36,1.161,1.161,0,0,1-.864-0.36,2.183,2.183,0,0,1-.52-0.96,8.237,8.237,0,0,1-.24-1.18,9.58,9.58,0,0,1-.072-1.2,9.418,9.418,0,0,1,.072-1.19,7.722,7.722,0,0,1,.24-1.16,2.106,2.106,0,0,1,.528-0.95,1.169,1.169,0,0,1,.856-0.36,1.145,1.145,0,0,1,.848.36,2.145,2.145,0,0,1,.52.95,7.111,7.111,0,0,1,.232,1.16,10.5,10.5,0,0,1,.064,1.19A10.736,10.736,0,0,1,944.284,3775.61Zm11.816-5.37a3.55,3.55,0,0,0-1.376-1.3,4.168,4.168,0,0,0-2.04-.48,4.21,4.21,0,0,0-2.048.48,3.586,3.586,0,0,0-1.392,1.3,6.305,6.305,0,0,0-.76,1.87,9.954,9.954,0,0,0-.248,2.29,9.7,9.7,0,0,0,.424,3,4.509,4.509,0,0,0,1.456,2.15,3.887,3.887,0,0,0,2.568.85,4.168,4.168,0,0,0,2.04-.48,3.6,3.6,0,0,0,1.376-1.32,6.561,6.561,0,0,0,.752-1.9,10.743,10.743,0,0,0,0-4.59A6.485,6.485,0,0,0,956.1,3770.24Zm-1.816,5.37a7.443,7.443,0,0,1-.232,1.17,2.183,2.183,0,0,1-.52.96,1.145,1.145,0,0,1-.848.36,1.161,1.161,0,0,1-.864-0.36,2.183,2.183,0,0,1-.52-0.96,8.237,8.237,0,0,1-.24-1.18,9.58,9.58,0,0,1-.072-1.2,9.418,9.418,0,0,1,.072-1.19,7.722,7.722,0,0,1,.24-1.16,2.106,2.106,0,0,1,.528-0.95,1.169,1.169,0,0,1,.856-0.36,1.145,1.145,0,0,1,.848.36,2.145,2.145,0,0,1,.52.95,7.111,7.111,0,0,1,.232,1.16,10.5,10.5,0,0,1,.064,1.19A10.736,10.736,0,0,1,954.284,3775.61Zm-36.568,29.16h-2.464l-3.728,2.73,1.392,1.91,2.112-1.63v8.32h2.688v-11.33Zm11.384,1.47a3.55,3.55,0,0,0-1.376-1.3,4.168,4.168,0,0,0-2.04-.48,4.21,4.21,0,0,0-2.048.48,3.586,3.586,0,0,0-1.392,1.3,6.305,6.305,0,0,0-.76,1.87,9.954,9.954,0,0,0-.248,2.29,9.7,9.7,0,0,0,.424,3,4.509,4.509,0,0,0,1.456,2.15,3.887,3.887,0,0,0,2.568.85,4.168,4.168,0,0,0,2.04-.48,3.6,3.6,0,0,0,1.376-1.32,6.561,6.561,0,0,0,.752-1.9,10.743,10.743,0,0,0,0-4.59A6.485,6.485,0,0,0,929.1,3806.24Zm-1.816,5.37a7.443,7.443,0,0,1-.232,1.17,2.183,2.183,0,0,1-.52.96,1.145,1.145,0,0,1-.848.36,1.161,1.161,0,0,1-.864-0.36,2.183,2.183,0,0,1-.52-0.96,8.237,8.237,0,0,1-.24-1.18,9.58,9.58,0,0,1-.072-1.2,9.418,9.418,0,0,1,.072-1.19,7.722,7.722,0,0,1,.24-1.16,2.106,2.106,0,0,1,.528-0.95,1.169,1.169,0,0,1,.856-0.36,1.145,1.145,0,0,1,.848.36,2.145,2.145,0,0,1,.52.95,7.111,7.111,0,0,1,.232,1.16,10.5,10.5,0,0,1,.064,1.19A10.736,10.736,0,0,1,927.284,3811.61Zm15.816-5.37a3.55,3.55,0,0,0-1.376-1.3,4.168,4.168,0,0,0-2.04-.48,4.21,4.21,0,0,0-2.048.48,3.586,3.586,0,0,0-1.392,1.3,6.305,6.305,0,0,0-.76,1.87,9.954,9.954,0,0,0-.248,2.29,9.7,9.7,0,0,0,.424,3,4.509,4.509,0,0,0,1.456,2.15,3.887,3.887,0,0,0,2.568.85,4.168,4.168,0,0,0,2.04-.48,3.6,3.6,0,0,0,1.376-1.32,6.561,6.561,0,0,0,.752-1.9,10.743,10.743,0,0,0,0-4.59A6.485,6.485,0,0,0,943.1,3806.24Zm-1.816,5.37a7.443,7.443,0,0,1-.232,1.17,2.183,2.183,0,0,1-.52.96,1.145,1.145,0,0,1-.848.36,1.161,1.161,0,0,1-.864-0.36,2.183,2.183,0,0,1-.52-0.96,8.237,8.237,0,0,1-.24-1.18,9.58,9.58,0,0,1-.072-1.2,9.418,9.418,0,0,1,.072-1.19,7.722,7.722,0,0,1,.24-1.16,2.106,2.106,0,0,1,.528-0.95,1.169,1.169,0,0,1,.856-0.36,1.145,1.145,0,0,1,.848.36,2.145,2.145,0,0,1,.52.95,7.111,7.111,0,0,1,.232,1.16,10.5,10.5,0,0,1,.064,1.19A10.736,10.736,0,0,1,941.284,3811.61Zm11.816-5.37a3.55,3.55,0,0,0-1.376-1.3,4.168,4.168,0,0,0-2.04-.48,4.21,4.21,0,0,0-2.048.48,3.586,3.586,0,0,0-1.392,1.3,6.305,6.305,0,0,0-.76,1.87,9.954,9.954,0,0,0-.248,2.29,9.7,9.7,0,0,0,.424,3,4.509,4.509,0,0,0,1.456,2.15,3.887,3.887,0,0,0,2.568.85,4.168,4.168,0,0,0,2.04-.48,3.6,3.6,0,0,0,1.376-1.32,6.561,6.561,0,0,0,.752-1.9,10.743,10.743,0,0,0,0-4.59A6.485,6.485,0,0,0,953.1,3806.24Zm-1.816,5.37a7.443,7.443,0,0,1-.232,1.17,2.183,2.183,0,0,1-.52.96,1.145,1.145,0,0,1-.848.36,1.161,1.161,0,0,1-.864-0.36,2.183,2.183,0,0,1-.52-0.96,8.237,8.237,0,0,1-.24-1.18,9.58,9.58,0,0,1-.072-1.2,9.418,9.418,0,0,1,.072-1.19,7.722,7.722,0,0,1,.24-1.16,2.106,2.106,0,0,1,.528-0.95,1.169,1.169,0,0,1,.856-0.36,1.145,1.145,0,0,1,.848.36,2.145,2.145,0,0,1,.52.95,7.111,7.111,0,0,1,.232,1.16,10.5,10.5,0,0,1,.064,1.19A10.736,10.736,0,0,1,951.284,3811.61Zm11.816-5.37a3.55,3.55,0,0,0-1.376-1.3,4.168,4.168,0,0,0-2.04-.48,4.21,4.21,0,0,0-2.048.48,3.586,3.586,0,0,0-1.392,1.3,6.305,6.305,0,0,0-.76,1.87,9.954,9.954,0,0,0-.248,2.29,9.7,9.7,0,0,0,.424,3,4.509,4.509,0,0,0,1.456,2.15,3.887,3.887,0,0,0,2.568.85,4.168,4.168,0,0,0,2.04-.48,3.6,3.6,0,0,0,1.376-1.32,6.561,6.561,0,0,0,.752-1.9,10.743,10.743,0,0,0,0-4.59A6.485,6.485,0,0,0,963.1,3806.24Zm-1.816,5.37a7.443,7.443,0,0,1-.232,1.17,2.183,2.183,0,0,1-.52.96,1.145,1.145,0,0,1-.848.36,1.161,1.161,0,0,1-.864-0.36,2.183,2.183,0,0,1-.52-0.96,8.237,8.237,0,0,1-.24-1.18,9.58,9.58,0,0,1-.072-1.2,9.418,9.418,0,0,1,.072-1.19,7.722,7.722,0,0,1,.24-1.16,2.106,2.106,0,0,1,.528-0.95,1.169,1.169,0,0,1,.856-0.36,1.145,1.145,0,0,1,.848.36,2.145,2.145,0,0,1,.52.95,7.111,7.111,0,0,1,.232,1.16,10.5,10.5,0,0,1,.064,1.19A10.736,10.736,0,0,1,961.284,3811.61Zm-41.5,38.15h-4.624l2.624-2.34a8.35,8.35,0,0,0,1.48-1.63,3.3,3.3,0,0,0,.5-1.85,3.031,3.031,0,0,0-1.2-2.58,4.69,4.69,0,0,0-2.9-.9,4.465,4.465,0,0,0-2.912.99,3.819,3.819,0,0,0-1.408,2.66l2.576,0.35a2.12,2.12,0,0,1,.512-1.24,1.425,1.425,0,0,1,1.088-.47,1.405,1.405,0,0,1,1.024.38,1.314,1.314,0,0,1,.384.98,2.489,2.489,0,0,1-.928,1.75l-4.416,4v2.24h8.192v-2.34Zm8.88-4.07a4.488,4.488,0,0,0-2.944-.94,5.2,5.2,0,0,0-1.136.11l0.1-1.79h4.56v-2.3h-6.944l-0.272,6.48a8.132,8.132,0,0,1,2.768-.5,3.235,3.235,0,0,1,1.648.4,1.428,1.428,0,0,1,.672,1.33,1.555,1.555,0,0,1-.488,1.22,1.8,1.8,0,0,1-1.208.43,1.871,1.871,0,0,1-1.144-.38,1.836,1.836,0,0,1-.68-0.98l-2.448.75a3.706,3.706,0,0,0,1.568,2.1,4.81,4.81,0,0,0,2.736.78,4.714,4.714,0,0,0,3.088-1.05,3.66,3.66,0,0,0,1.28-3A3.225,3.225,0,0,0,928.66,3845.69Zm14.44-3.45a3.55,3.55,0,0,0-1.376-1.3,4.168,4.168,0,0,0-2.04-.48,4.21,4.21,0,0,0-2.048.48,3.586,3.586,0,0,0-1.392,1.3,6.305,6.305,0,0,0-.76,1.87,9.954,9.954,0,0,0-.248,2.29,9.7,9.7,0,0,0,.424,3,4.509,4.509,0,0,0,1.456,2.15,3.887,3.887,0,0,0,2.568.85,4.168,4.168,0,0,0,2.04-.48,3.6,3.6,0,0,0,1.376-1.32,6.561,6.561,0,0,0,.752-1.9,10.743,10.743,0,0,0,0-4.59A6.485,6.485,0,0,0,943.1,3842.24Zm-1.816,5.37a7.443,7.443,0,0,1-.232,1.17,2.183,2.183,0,0,1-.52.96,1.145,1.145,0,0,1-.848.36,1.161,1.161,0,0,1-.864-0.36,2.183,2.183,0,0,1-.52-0.96,8.237,8.237,0,0,1-.24-1.18,9.58,9.58,0,0,1-.072-1.2,9.418,9.418,0,0,1,.072-1.19,7.722,7.722,0,0,1,.24-1.16,2.106,2.106,0,0,1,.528-0.95,1.169,1.169,0,0,1,.856-0.36,1.145,1.145,0,0,1,.848.36,2.145,2.145,0,0,1,.52.95,7.111,7.111,0,0,1,.232,1.16,10.5,10.5,0,0,1,.064,1.19A10.736,10.736,0,0,1,941.284,3847.61Zm11.816-5.37a3.55,3.55,0,0,0-1.376-1.3,4.168,4.168,0,0,0-2.04-.48,4.21,4.21,0,0,0-2.048.48,3.586,3.586,0,0,0-1.392,1.3,6.305,6.305,0,0,0-.76,1.87,9.954,9.954,0,0,0-.248,2.29,9.7,9.7,0,0,0,.424,3,4.509,4.509,0,0,0,1.456,2.15,3.887,3.887,0,0,0,2.568.85,4.168,4.168,0,0,0,2.04-.48,3.6,3.6,0,0,0,1.376-1.32,6.561,6.561,0,0,0,.752-1.9,10.743,10.743,0,0,0,0-4.59A6.485,6.485,0,0,0,953.1,3842.24Zm-1.816,5.37a7.443,7.443,0,0,1-.232,1.17,2.183,2.183,0,0,1-.52.96,1.145,1.145,0,0,1-.848.36,1.161,1.161,0,0,1-.864-0.36,2.183,2.183,0,0,1-.52-0.96,8.237,8.237,0,0,1-.24-1.18,9.58,9.58,0,0,1-.072-1.2,9.418,9.418,0,0,1,.072-1.19,7.722,7.722,0,0,1,.24-1.16,2.106,2.106,0,0,1,.528-0.95,1.169,1.169,0,0,1,.856-0.36,1.145,1.145,0,0,1,.848.36,2.145,2.145,0,0,1,.52.95,7.111,7.111,0,0,1,.232,1.16,10.5,10.5,0,0,1,.064,1.19A10.736,10.736,0,0,1,951.284,3847.61Zm11.816-5.37a3.55,3.55,0,0,0-1.376-1.3,4.168,4.168,0,0,0-2.04-.48,4.21,4.21,0,0,0-2.048.48,3.586,3.586,0,0,0-1.392,1.3,6.305,6.305,0,0,0-.76,1.87,9.954,9.954,0,0,0-.248,2.29,9.7,9.7,0,0,0,.424,3,4.509,4.509,0,0,0,1.456,2.15,3.887,3.887,0,0,0,2.568.85,4.168,4.168,0,0,0,2.04-.48,3.6,3.6,0,0,0,1.376-1.32,6.561,6.561,0,0,0,.752-1.9,10.743,10.743,0,0,0,0-4.59A6.485,6.485,0,0,0,963.1,3842.24Zm-1.816,5.37a7.443,7.443,0,0,1-.232,1.17,2.183,2.183,0,0,1-.52.96,1.145,1.145,0,0,1-.848.36,1.161,1.161,0,0,1-.864-0.36,2.183,2.183,0,0,1-.52-0.96,8.237,8.237,0,0,1-.24-1.18,9.58,9.58,0,0,1-.072-1.2,9.418,9.418,0,0,1,.072-1.19,7.722,7.722,0,0,1,.24-1.16,2.106,2.106,0,0,1,.528-0.95,1.169,1.169,0,0,1,.856-0.36,1.145,1.145,0,0,1,.848.36,2.145,2.145,0,0,1,.52.95,7.111,7.111,0,0,1,.232,1.16,10.5,10.5,0,0,1,.064,1.19A10.736,10.736,0,0,1,961.284,3847.61Z" transform="translate(-431 -3414.44)"/>
  <path id="Личный_оборот_ETH_Общий_оборот_ETH" data-name="Личный оборот, ETH        Общий оборот, ETH" class="cls-4" d="M760.42,3422.35a11.661,11.661,0,0,0,.5-3.98v-1.26h2.82v6.45h0.72v-7.08h-4.24v1.53a20.161,20.161,0,0,1-.165,2.92,3.611,3.611,0,0,1-.52,1.56,1.137,1.137,0,0,1-.965.48,1.655,1.655,0,0,1-.43-0.08l-0.13.65a2.5,2.5,0,0,0,.68.09A1.767,1.767,0,0,0,760.42,3422.35Zm6.33,1.21,3.9-6.02h0.02v6.02h0.72v-7.08h-0.81l-3.9,5.96h-0.02v-5.96h-0.72v7.08h0.81Zm10.71,0v-7.08h-0.72v3.49a4.639,4.639,0,0,1-1.67.22,1.282,1.282,0,0,1-1.54-1.34v-2.37h-0.72v2.44a1.766,1.766,0,0,0,.56,1.44,2.673,2.673,0,0,0,1.73.47,5.819,5.819,0,0,0,1.64-.22v2.95h0.72Zm2.2,0v-3.35h3.86v3.35h0.72v-7.08h-0.72v3.07h-3.86v-3.07h-0.72v7.08h0.72Zm8.26,0a3.012,3.012,0,0,0,1.855-.51,1.979,1.979,0,0,0-.015-2.99,3.062,3.062,0,0,0-1.86-.51h-1.24v-3.07h-0.72v7.08h1.98Zm-1.26-3.39h1.18a2.31,2.31,0,0,1,1.395.36,1.221,1.221,0,0,1,.485,1.04c0,0.91-.627,1.37-1.88,1.37h-1.18v-2.77Zm5.58,3.39v-7.08h-0.72v7.08h0.72Zm2.51,0,3.9-6.02h0.02v6.02h0.72v-7.08h-0.81l-3.9,5.96h-0.02v-5.96h-0.72v7.08h0.81Zm3.37-9.04-0.46-.09a0.983,0.983,0,0,1-.345.6,1.048,1.048,0,0,1-1.31,0,0.983,0.983,0,0,1-.345-0.6l-0.46.09a1.37,1.37,0,0,0,.455.93,1.618,1.618,0,0,0,2.01,0,1.37,1.37,0,0,0,.455-0.93h0Zm12.82,5.5a3.649,3.649,0,0,0-1.05-2.67,3.844,3.844,0,0,0-5.28,0,3.649,3.649,0,0,0-1.05,2.67,3.61,3.61,0,0,0,1.05,2.66,3.818,3.818,0,0,0,5.28,0A3.61,3.61,0,0,0,810.94,3420.02Zm-6.62,0a3.167,3.167,0,0,1,.8-2.19,2.959,2.959,0,0,1,4.25,0,3.167,3.167,0,0,1,.8,2.19,3.125,3.125,0,0,1-.8,2.18,2.959,2.959,0,0,1-4.25,0A3.125,3.125,0,0,1,804.32,3420.02Zm9.77,3.54a3.012,3.012,0,0,0,1.855-.51,1.979,1.979,0,0,0-.015-2.99,3.062,3.062,0,0,0-1.86-.51h-1.41v-2.43h3.49v-0.64h-4.21v7.08h2.15Zm-1.43-3.39h1.35a2.31,2.31,0,0,1,1.395.36,1.221,1.221,0,0,1,.485,1.04c0,0.91-.627,1.37-1.88,1.37h-1.35v-2.77Zm12.28-.15a3.649,3.649,0,0,0-1.05-2.67,3.844,3.844,0,0,0-5.28,0,3.649,3.649,0,0,0-1.05,2.67,3.61,3.61,0,0,0,1.05,2.66,3.818,3.818,0,0,0,5.28,0A3.61,3.61,0,0,0,824.94,3420.02Zm-6.62,0a3.167,3.167,0,0,1,.8-2.19,2.959,2.959,0,0,1,4.25,0,3.167,3.167,0,0,1,.8,2.19,3.125,3.125,0,0,1-.8,2.18,2.959,2.959,0,0,1-4.25,0A3.125,3.125,0,0,1,818.32,3420.02Zm8.34,3.54v-3.29h1.26a2.836,2.836,0,0,0,1.76-.49,1.864,1.864,0,0,0,.01-2.82,2.856,2.856,0,0,0-1.75-.48h-2v7.08h0.72Zm0-6.46h1.22c1.153,0,1.73.42,1.73,1.27a1.12,1.12,0,0,1-.445.96,2.133,2.133,0,0,1-1.285.33h-1.22v-2.56Zm12.28,2.92a3.649,3.649,0,0,0-1.05-2.67,3.844,3.844,0,0,0-5.28,0,3.649,3.649,0,0,0-1.05,2.67,3.61,3.61,0,0,0,1.05,2.66,3.818,3.818,0,0,0,5.28,0A3.61,3.61,0,0,0,838.94,3420.02Zm-6.62,0a3.167,3.167,0,0,1,.8-2.19,2.959,2.959,0,0,1,4.25,0,3.167,3.167,0,0,1,.8,2.19,3.125,3.125,0,0,1-.8,2.18,2.959,2.959,0,0,1-4.25,0A3.125,3.125,0,0,1,832.32,3420.02Zm9.89,3.54v-6.44h2.37v-0.64h-5.46v0.64h2.37v6.44h0.72Zm2.91-.95-0.67,2.35h0.57l0.81-2.35h-0.71Zm8.97-2.42v-0.63h-3.43v-2.44h3.67v-0.64h-4.39v7.08h4.51v-0.64h-3.79v-2.73h3.43Zm6.49-3.07v-0.64h-5.46v0.64h2.37v6.44h0.72v-6.44h2.37Zm2.08,6.44v-3.35h3.86v3.35h0.72v-7.08h-0.72v3.07h-3.86v-3.07h-0.72v7.08h0.72Zm37.28-3.54a3.649,3.649,0,0,0-1.05-2.67,3.844,3.844,0,0,0-5.28,0,3.649,3.649,0,0,0-1.05,2.67,3.61,3.61,0,0,0,1.05,2.66,3.818,3.818,0,0,0,5.28,0A3.61,3.61,0,0,0,899.94,3420.02Zm-6.62,0a3.167,3.167,0,0,1,.8-2.19,2.959,2.959,0,0,1,4.25,0,3.167,3.167,0,0,1,.8,2.19,3.125,3.125,0,0,1-.8,2.18,2.959,2.959,0,0,1-4.25,0A3.125,3.125,0,0,1,893.32,3420.02Zm9.77,3.54a3.012,3.012,0,0,0,1.855-.51,1.979,1.979,0,0,0-.015-2.99,3.062,3.062,0,0,0-1.86-.51h-1.41v-2.43h3.49v-0.64h-4.21v7.08h2.15Zm-1.43-3.39h1.35a2.31,2.31,0,0,1,1.395.36,1.221,1.221,0,0,1,.485,1.04c0,0.91-.627,1.37-1.88,1.37h-1.35v-2.77Zm14.7,5.13v-2.38h-0.8v-6.44h-0.72v6.44h-3.23v-6.44h-0.72v6.44h-3.23v-6.44h-0.72v7.08h8.74v1.74h0.68Zm2.39-1.74,3.9-6.02h0.02v6.02h0.72v-7.08h-0.81l-3.9,5.96h-0.02v-5.96h-0.72v7.08h0.81Zm7,0,3.9-6.02h0.02v6.02h0.72v-7.08h-0.81l-3.9,5.96h-0.02v-5.96h-0.72v7.08h0.81Zm3.37-9.04-0.46-.09a0.983,0.983,0,0,1-.345.6,1.048,1.048,0,0,1-1.31,0,0.983,0.983,0,0,1-.345-0.6l-0.46.09a1.37,1.37,0,0,0,.455.93,1.618,1.618,0,0,0,2.01,0,1.37,1.37,0,0,0,.455-0.93h0Zm12.82,5.5a3.649,3.649,0,0,0-1.05-2.67,3.844,3.844,0,0,0-5.28,0,3.649,3.649,0,0,0-1.05,2.67,3.61,3.61,0,0,0,1.05,2.66,3.818,3.818,0,0,0,5.28,0A3.61,3.61,0,0,0,941.94,3420.02Zm-6.62,0a3.167,3.167,0,0,1,.8-2.19,2.959,2.959,0,0,1,4.25,0,3.167,3.167,0,0,1,.8,2.19,3.125,3.125,0,0,1-.8,2.18,2.959,2.959,0,0,1-4.25,0A3.125,3.125,0,0,1,935.32,3420.02Zm9.77,3.54a3.012,3.012,0,0,0,1.855-.51,1.979,1.979,0,0,0-.015-2.99,3.062,3.062,0,0,0-1.86-.51h-1.41v-2.43h3.49v-0.64h-4.21v7.08h2.15Zm-1.43-3.39h1.35a2.31,2.31,0,0,1,1.395.36,1.221,1.221,0,0,1,.485,1.04c0,0.91-.627,1.37-1.88,1.37h-1.35v-2.77Zm12.28-.15a3.649,3.649,0,0,0-1.05-2.67,3.844,3.844,0,0,0-5.28,0,3.649,3.649,0,0,0-1.05,2.67,3.61,3.61,0,0,0,1.05,2.66,3.818,3.818,0,0,0,5.28,0A3.61,3.61,0,0,0,955.94,3420.02Zm-6.62,0a3.167,3.167,0,0,1,.8-2.19,2.959,2.959,0,0,1,4.25,0,3.167,3.167,0,0,1,.8,2.19,3.125,3.125,0,0,1-.8,2.18,2.959,2.959,0,0,1-4.25,0A3.125,3.125,0,0,1,949.32,3420.02Zm8.34,3.54v-3.29h1.26a2.836,2.836,0,0,0,1.76-.49,1.864,1.864,0,0,0,.01-2.82,2.856,2.856,0,0,0-1.75-.48h-2v7.08h0.72Zm0-6.46h1.22c1.153,0,1.73.42,1.73,1.27a1.12,1.12,0,0,1-.445.96,2.133,2.133,0,0,1-1.285.33h-1.22v-2.56Zm12.28,2.92a3.649,3.649,0,0,0-1.05-2.67,3.844,3.844,0,0,0-5.28,0,3.649,3.649,0,0,0-1.05,2.67,3.61,3.61,0,0,0,1.05,2.66,3.818,3.818,0,0,0,5.28,0A3.61,3.61,0,0,0,969.94,3420.02Zm-6.62,0a3.167,3.167,0,0,1,.8-2.19,2.959,2.959,0,0,1,4.25,0,3.167,3.167,0,0,1,.8,2.19,3.125,3.125,0,0,1-.8,2.18,2.959,2.959,0,0,1-4.25,0A3.125,3.125,0,0,1,963.32,3420.02Zm9.89,3.54v-6.44h2.37v-0.64h-5.46v0.64h2.37v6.44h0.72Zm2.91-.95-0.67,2.35h0.57l0.81-2.35h-0.71Zm8.97-2.42v-0.63h-3.43v-2.44h3.67v-0.64h-4.39v7.08h4.51v-0.64h-3.79v-2.73h3.43Zm6.49-3.07v-0.64h-5.46v0.64h2.37v6.44h0.72v-6.44h2.37Zm2.08,6.44v-3.35h3.86v3.35h0.72v-7.08h-0.72v3.07h-3.86v-3.07h-0.72v7.08h0.72Z" transform="translate(-431 -3414.44)"/>
</svg>
