<svg id="Таблица_копия" data-name="Таблица копия" xmlns="http://www.w3.org/2000/svg" width="577" height="473.56" viewBox="0 0 577 473.56">
  <defs>
    <style>
      .cls-1 {
        fill: #f3f5fa;
        opacity: 0.28;
      }

      .cls-2 {
        fill: #8bc3ea;
        opacity: 0.23;
      }

      .cls-2, .cls-5 {
        fill-rule: evenodd;
      }

      .cls-3, .cls-4 {
        font-size: 16px;
        fill: #203a5b;
        font-family: "Avenir Next Cyr";
        font-weight: 700;
      }

      .cls-4 {
        text-anchor: middle;
      }

      .cls-5 {
        fill: #a6abcc;
      }
    </style>
  </defs>
  <rect id="Прямоугольник_3_копия_2" data-name="Прямоугольник 3 копия 2" class="cls-1" y="77.56" width="577" height="36"/>
  <rect id="Прямоугольник_3_копия_3" data-name="Прямоугольник 3 копия 3" class="cls-1" y="149.56" width="577" height="36"/>
  <rect id="Прямоугольник_3_копия_4" data-name="Прямоугольник 3 копия 4" class="cls-1" y="221.56" width="577" height="36"/>
  <rect id="Прямоугольник_3_копия_5" data-name="Прямоугольник 3 копия 5" class="cls-1" y="293.56" width="577" height="36"/>
  <rect id="Прямоугольник_3_копия_6" data-name="Прямоугольник 3 копия 6" class="cls-1" y="365.56" width="577" height="36"/>
  <rect id="Прямоугольник_3_копия_7" data-name="Прямоугольник 3 копия 7" class="cls-1" y="437.56" width="577" height="36"/>
  <path id="Фигура_1" data-name="Фигура 1" class="cls-2" d="M441,3469v-1H997v1H441Z" transform="translate(-431 -3391.44)"/>
  <path id="Фигура_1_копия" data-name="Фигура 1 копия" class="cls-2" d="M441,3506v-1H997v1H441Z" transform="translate(-431 -3391.44)"/>
  <path id="Фигура_1_копия_2" data-name="Фигура 1 копия 2" class="cls-2" d="M441,3541v-1H997v1H441Z" transform="translate(-431 -3391.44)"/>
  <path id="Фигура_1_копия_3" data-name="Фигура 1 копия 3" class="cls-2" d="M441,3578v-1H997v1H441Z" transform="translate(-431 -3391.44)"/>
  <path id="Фигура_1_копия_4" data-name="Фигура 1 копия 4" class="cls-2" d="M441,3613v-1H997v1H441Z" transform="translate(-431 -3391.44)"/>
  <path id="Фигура_1_копия_5" data-name="Фигура 1 копия 5" class="cls-2" d="M441,3650v-1H997v1H441Z" transform="translate(-431 -3391.44)"/>
  <path id="Фигура_1_копия_6" data-name="Фигура 1 копия 6" class="cls-2" d="M441,3685v-1H997v1H441Z" transform="translate(-431 -3391.44)"/>
  <path id="Фигура_1_копия_7" data-name="Фигура 1 копия 7" class="cls-2" d="M441,3722v-1H997v1H441Z" transform="translate(-431 -3391.44)"/>
  <path id="Фигура_1_копия_8" data-name="Фигура 1 копия 8" class="cls-2" d="M441,3757v-1H997v1H441Z" transform="translate(-431 -3391.44)"/>
  <path id="Фигура_1_копия_9" data-name="Фигура 1 копия 9" class="cls-2" d="M441,3794v-1H997v1H441Z" transform="translate(-431 -3391.44)"/>
  <path id="Фигура_1_копия_10" data-name="Фигура 1 копия 10" class="cls-2" d="M441,3829v-1H997v1H441Z" transform="translate(-431 -3391.44)"/>
  <text id="_1_линия_2_линия_3_линия_4_линия_5_линия_6_линия_7_линия_" data-name=" 1 линия  2 линия  3 линия  4 линия  5 линия  6 линия  7 линия " class="cls-3" x="21.001" y="64.658"> 1 линия<tspan x="21.001" dy="36"> 2 линия</tspan><tspan x="21.001" dy="36"> 3 линия</tspan><tspan x="21.001" dy="36"> 4 линия</tspan><tspan x="21.001" dy="36"> 5 линия</tspan><tspan x="21.001" dy="36"> 6 линия</tspan><tspan x="21.001" dy="36"> 7 линия</tspan><tspan x="21.001" dy="36"> 8 линия</tspan><tspan x="21.001" dy="36"> 9 линия</tspan><tspan x="21.001" dy="36">10 линия</tspan><tspan x="21.001" dy="36">11 линия</tspan><tspan x="21.001" dy="36">12 линия</tspan></text>
  <text id="_10_15_20_30_50_100_150_200_500_1000" data-name="  10 15 20 30 50 100 150 200 500 1000" class="cls-4" x="380.5" y="64.658"><tspan dy="72">10</tspan><tspan x="380.5" dy="36">15</tspan><tspan x="380.5" dy="36">20</tspan><tspan x="380.5" dy="36">30</tspan><tspan x="380.5" dy="36">50</tspan><tspan x="380.5" dy="36">100</tspan><tspan x="380.5" dy="36">150</tspan><tspan x="380.5" dy="36">200</tspan><tspan x="380.5" dy="36">500</tspan><tspan x="380.5" dy="36">1000</tspan></text>
  <text id="_32_20_12_8_4_4_4_4_4_4_2_2_" data-name="32% 20% 12% 8% 4% 4% 4% 4% 4% 4% 2% 2%" class="cls-4" x="250.999" y="64.658">32%<tspan x="250.999" dy="36">20%</tspan><tspan x="250.999" dy="36">12%</tspan><tspan x="250.999" dy="36">8%</tspan><tspan x="250.999" dy="36">4%</tspan><tspan x="250.999" dy="36">4%</tspan><tspan x="250.999" dy="36">4%</tspan><tspan x="250.999" dy="36">4%</tspan><tspan x="250.999" dy="36">4%</tspan><tspan x="250.999" dy="36">4%</tspan><tspan x="250.999" dy="36">2%</tspan><tspan x="250.999" dy="36">2%</tspan></text>
  <text id="_LV_1_LV_2_LV_3_LV_4_LV_5_LV_6_LV_7_LV_8_LV_9_LV_10" data-name="  LV 1 LV 2 LV 3 LV 4 LV 5 LV 6 LV 7 LV 8 LV 9 LV 10" class="cls-3" x="141.001" y="64.658"><tspan dy="72">LV 1</tspan><tspan x="141.001" dy="36">LV 2</tspan><tspan x="141.001" dy="36">LV 3</tspan><tspan x="141.001" dy="36">LV 4</tspan><tspan x="141.001" dy="36">LV 5</tspan><tspan x="141.001" dy="36">LV 6</tspan><tspan x="141.001" dy="36">LV 7</tspan><tspan x="141.001" dy="36">LV 8</tspan><tspan x="141.001" dy="36">LV 9</tspan><tspan x="141.001" dy="36">LV 10</tspan></text>
  <text id="_20_40_80_150_300_750_1500_3000_10_000_25_000" data-name="  20 40 80 150 300 750 1500 3000 10 000 25 000" class="cls-4" x="506.5" y="64.658"><tspan dy="72">20</tspan><tspan x="506.5" dy="36">40</tspan><tspan x="506.5" dy="36">80</tspan><tspan x="506.5" dy="36">150</tspan><tspan x="506.5" dy="36">300</tspan><tspan x="506.5" dy="36">750</tspan><tspan x="506.5" dy="36">1500</tspan><tspan x="506.5" dy="36">3000</tspan><tspan x="506.5" dy="36">10 000</tspan><tspan x="506.5" dy="36">25 000</tspan></text>
  <path id="Личный_Общий_оборот_ETH_оборот" data-name="Личный                     Общий оборот, ETH             оборот" class="cls-5" d="M803.42,3399.35a11.661,11.661,0,0,0,.5-3.98v-1.26h2.82v6.45h0.72v-7.08h-4.24v1.53a20.161,20.161,0,0,1-.165,2.92,3.611,3.611,0,0,1-.52,1.56,1.137,1.137,0,0,1-.965.48,1.655,1.655,0,0,1-.43-0.08l-0.13.65a2.5,2.5,0,0,0,.68.09A1.767,1.767,0,0,0,803.42,3399.35Zm6.33,1.21,3.9-6.02h0.02v6.02h0.72v-7.08h-0.81l-3.9,5.96h-0.02v-5.96h-0.72v7.08h0.81Zm10.71,0v-7.08h-0.72v3.49a4.639,4.639,0,0,1-1.67.22,1.282,1.282,0,0,1-1.54-1.34v-2.37h-0.72v2.44a1.766,1.766,0,0,0,.56,1.44,2.673,2.673,0,0,0,1.73.47,5.819,5.819,0,0,0,1.64-.22v2.95h0.72Zm2.2,0v-3.35h3.86v3.35h0.72v-7.08h-0.72v3.07h-3.86v-3.07h-0.72v7.08h0.72Zm8.26,0a3.012,3.012,0,0,0,1.855-.51,1.979,1.979,0,0,0-.015-2.99,3.062,3.062,0,0,0-1.86-.51h-1.24v-3.07h-0.72v7.08h1.98Zm-1.26-3.39h1.18a2.31,2.31,0,0,1,1.395.36,1.221,1.221,0,0,1,.485,1.04c0,0.91-.627,1.37-1.88,1.37h-1.18v-2.77Zm5.58,3.39v-7.08h-0.72v7.08h0.72Zm2.51,0,3.9-6.02h0.02v6.02h0.72v-7.08h-0.81l-3.9,5.96h-0.02v-5.96h-0.72v7.08h0.81Zm3.37-9.04-0.46-.09a0.983,0.983,0,0,1-.345.6,1.048,1.048,0,0,1-1.31,0,0.983,0.983,0,0,1-.345-0.6l-0.46.09a1.37,1.37,0,0,0,.455.93,1.618,1.618,0,0,0,2.01,0,1.37,1.37,0,0,0,.455-0.93h0Zm72.82,5.5a3.649,3.649,0,0,0-1.05-2.67,3.844,3.844,0,0,0-5.28,0,3.649,3.649,0,0,0-1.05,2.67,3.61,3.61,0,0,0,1.05,2.66,3.818,3.818,0,0,0,5.28,0A3.61,3.61,0,0,0,913.94,3397.02Zm-6.62,0a3.167,3.167,0,0,1,.8-2.19,2.959,2.959,0,0,1,4.25,0,3.167,3.167,0,0,1,.8,2.19,3.125,3.125,0,0,1-.8,2.18,2.959,2.959,0,0,1-4.25,0A3.125,3.125,0,0,1,907.32,3397.02Zm9.77,3.54a3.012,3.012,0,0,0,1.855-.51,1.979,1.979,0,0,0-.015-2.99,3.062,3.062,0,0,0-1.86-.51h-1.41v-2.43h3.49v-0.64h-4.21v7.08h2.15Zm-1.43-3.39h1.35a2.31,2.31,0,0,1,1.395.36,1.221,1.221,0,0,1,.485,1.04c0,0.91-.627,1.37-1.88,1.37h-1.35v-2.77Zm14.7,5.13v-2.38h-0.8v-6.44h-0.72v6.44h-3.23v-6.44h-0.72v6.44h-3.23v-6.44h-0.72v7.08h8.74v1.74h0.68Zm2.39-1.74,3.9-6.02h0.02v6.02h0.72v-7.08h-0.81l-3.9,5.96h-0.02v-5.96h-0.72v7.08h0.81Zm7,0,3.9-6.02h0.02v6.02h0.72v-7.08h-0.81l-3.9,5.96h-0.02v-5.96h-0.72v7.08h0.81Zm3.37-9.04-0.46-.09a0.983,0.983,0,0,1-.345.6,1.048,1.048,0,0,1-1.31,0,0.983,0.983,0,0,1-.345-0.6l-0.46.09a1.37,1.37,0,0,0,.455.93,1.618,1.618,0,0,0,2.01,0,1.37,1.37,0,0,0,.455-0.93h0Zm-134.18,21.5a3.649,3.649,0,0,0-1.05-2.67,3.844,3.844,0,0,0-5.28,0,3.649,3.649,0,0,0-1.05,2.67,3.61,3.61,0,0,0,1.05,2.66,3.818,3.818,0,0,0,5.28,0A3.61,3.61,0,0,0,808.94,3413.02Zm-6.62,0a3.167,3.167,0,0,1,.8-2.19,2.959,2.959,0,0,1,4.25,0,3.167,3.167,0,0,1,.8,2.19,3.125,3.125,0,0,1-.8,2.18,2.959,2.959,0,0,1-4.25,0A3.125,3.125,0,0,1,802.32,3413.02Zm9.77,3.54a3.012,3.012,0,0,0,1.855-.51,1.979,1.979,0,0,0-.015-2.99,3.062,3.062,0,0,0-1.86-.51h-1.41v-2.43h3.49v-0.64h-4.21v7.08h2.15Zm-1.43-3.39h1.35a2.31,2.31,0,0,1,1.395.36,1.221,1.221,0,0,1,.485,1.04c0,0.91-.627,1.37-1.88,1.37h-1.35v-2.77Zm12.28-.15a3.649,3.649,0,0,0-1.05-2.67,3.844,3.844,0,0,0-5.28,0,3.649,3.649,0,0,0-1.05,2.67,3.61,3.61,0,0,0,1.05,2.66,3.818,3.818,0,0,0,5.28,0A3.61,3.61,0,0,0,822.94,3413.02Zm-6.62,0a3.167,3.167,0,0,1,.8-2.19,2.959,2.959,0,0,1,4.25,0,3.167,3.167,0,0,1,.8,2.19,3.125,3.125,0,0,1-.8,2.18,2.959,2.959,0,0,1-4.25,0A3.125,3.125,0,0,1,816.32,3413.02Zm8.34,3.54v-3.29h1.26a2.836,2.836,0,0,0,1.76-.49,1.864,1.864,0,0,0,.01-2.82,2.856,2.856,0,0,0-1.75-.48h-2v7.08h0.72Zm0-6.46h1.22c1.153,0,1.73.42,1.73,1.27a1.12,1.12,0,0,1-.445.96,2.133,2.133,0,0,1-1.285.33h-1.22v-2.56Zm12.28,2.92a3.649,3.649,0,0,0-1.05-2.67,3.844,3.844,0,0,0-5.28,0,3.649,3.649,0,0,0-1.05,2.67,3.61,3.61,0,0,0,1.05,2.66,3.818,3.818,0,0,0,5.28,0A3.61,3.61,0,0,0,836.94,3413.02Zm-6.62,0a3.167,3.167,0,0,1,.8-2.19,2.959,2.959,0,0,1,4.25,0,3.167,3.167,0,0,1,.8,2.19,3.125,3.125,0,0,1-.8,2.18,2.959,2.959,0,0,1-4.25,0A3.125,3.125,0,0,1,830.32,3413.02Zm9.89,3.54v-6.44h2.37v-0.64h-5.46v0.64h2.37v6.44h0.72Zm2.91-.95-0.67,2.35h0.57l0.81-2.35h-0.71Zm8.97-2.42v-0.63h-3.43v-2.44h3.67v-0.64h-4.39v7.08h4.51v-0.64h-3.79v-2.73h3.43Zm6.49-3.07v-0.64h-5.46v0.64h2.37v6.44h0.72v-6.44h2.37Zm2.08,6.44v-3.35h3.86v3.35h0.72v-7.08h-0.72v3.07h-3.86v-3.07h-0.72v7.08h0.72Zm52.28-3.54a3.649,3.649,0,0,0-1.05-2.67,3.844,3.844,0,0,0-5.28,0,3.649,3.649,0,0,0-1.05,2.67,3.61,3.61,0,0,0,1.05,2.66,3.818,3.818,0,0,0,5.28,0A3.61,3.61,0,0,0,912.94,3413.02Zm-6.62,0a3.167,3.167,0,0,1,.8-2.19,2.959,2.959,0,0,1,4.25,0,3.167,3.167,0,0,1,.8,2.19,3.125,3.125,0,0,1-.8,2.18,2.959,2.959,0,0,1-4.25,0A3.125,3.125,0,0,1,906.32,3413.02Zm9.77,3.54a3.012,3.012,0,0,0,1.855-.51,1.979,1.979,0,0,0-.015-2.99,3.062,3.062,0,0,0-1.86-.51h-1.41v-2.43h3.49v-0.64h-4.21v7.08h2.15Zm-1.43-3.39h1.35a2.31,2.31,0,0,1,1.395.36,1.221,1.221,0,0,1,.485,1.04c0,0.91-.627,1.37-1.88,1.37h-1.35v-2.77Zm12.28-.15a3.649,3.649,0,0,0-1.05-2.67,3.844,3.844,0,0,0-5.28,0,3.649,3.649,0,0,0-1.05,2.67,3.61,3.61,0,0,0,1.05,2.66,3.818,3.818,0,0,0,5.28,0A3.61,3.61,0,0,0,926.94,3413.02Zm-6.62,0a3.167,3.167,0,0,1,.8-2.19,2.959,2.959,0,0,1,4.25,0,3.167,3.167,0,0,1,.8,2.19,3.125,3.125,0,0,1-.8,2.18,2.959,2.959,0,0,1-4.25,0A3.125,3.125,0,0,1,920.32,3413.02Zm8.34,3.54v-3.29h1.26a2.836,2.836,0,0,0,1.76-.49,1.864,1.864,0,0,0,.01-2.82,2.856,2.856,0,0,0-1.75-.48h-2v7.08h0.72Zm0-6.46h1.22c1.153,0,1.73.42,1.73,1.27a1.12,1.12,0,0,1-.445.96,2.133,2.133,0,0,1-1.285.33h-1.22v-2.56Zm12.28,2.92a3.649,3.649,0,0,0-1.05-2.67,3.844,3.844,0,0,0-5.28,0,3.649,3.649,0,0,0-1.05,2.67,3.61,3.61,0,0,0,1.05,2.66,3.818,3.818,0,0,0,5.28,0A3.61,3.61,0,0,0,940.94,3413.02Zm-6.62,0a3.167,3.167,0,0,1,.8-2.19,2.959,2.959,0,0,1,4.25,0,3.167,3.167,0,0,1,.8,2.19,3.125,3.125,0,0,1-.8,2.18,2.959,2.959,0,0,1-4.25,0A3.125,3.125,0,0,1,934.32,3413.02Zm9.89,3.54v-6.44h2.37v-0.64h-5.46v0.64h2.37v6.44h0.72Zm2.91-.95-0.67,2.35h0.57l0.81-2.35h-0.71Zm8.97-2.42v-0.63h-3.43v-2.44h3.67v-0.64h-4.39v7.08h4.51v-0.64h-3.79v-2.73h3.43Zm6.49-3.07v-0.64h-5.46v0.64h2.37v6.44h0.72v-6.44h2.37Zm2.08,6.44v-3.35h3.86v3.35h0.72v-7.08h-0.72v3.07h-3.86v-3.07h-0.72v7.08h0.72Z" transform="translate(-431 -3391.44)"/>
</svg>
