<svg width="80" height="80" fill="none" xmlns="http://www.w3.org/2000/svg"><circle cx="40" cy="40" r="40" fill="#fff"/><path d="M41 0h35a4 4 0 014 4v38H41V0z" fill="#fff"/><path d="M54.833 40.264l4.585-4.584a1.99 1.99 0 00-2.812-2.813l-4.585 4.586-4.585-4.586a1.988 1.988 0 10-2.812 2.813l4.585 4.585-4.584 4.583a1.988 1.988 0 102.812 2.812l4.584-4.584 4.584 4.584c.388.389.898.583 1.407.583a1.988 1.988 0 001.406-3.395l-4.585-4.584zM38.267 24.145a1.983 1.983 0 00-2.176.468l-7.184 7.48h-4.955A3.957 3.957 0 0020 36.047v8.434a3.957 3.957 0 003.952 3.952h4.955l7.184 7.481a1.985 1.985 0 002.176.468 1.987 1.987 0 001.247-1.844V25.99a1.99 1.99 0 00-1.247-1.845z" fill="#57C2C9"/></svg>