<svg width="65" height="65" fill="none" xmlns="http://www.w3.org/2000/svg"><circle cx="32.778" cy="32.222" r="32.222" fill="#57C2C9"/><path d="M33.583 0H61a4 4 0 014 4v29.833H33.583V0z" fill="#57C2C9"/><path d="M31.43 19.45a1.603 1.603 0 00-1.758.379l-5.806 6.046H19.86a3.198 3.198 0 00-3.194 3.195v6.816a3.198 3.198 0 003.194 3.194h4.005l5.806 6.047a1.605 1.605 0 001.759.378 1.606 1.606 0 001.008-1.49V20.941c0-.656-.4-1.247-1.008-1.491zm6.232 24.05a1.49 1.49 0 01-1.256-2.29c3.313-5.215 3.313-11.955 0-17.17a1.49 1.49 0 112.516-1.599c3.93 6.187 3.93 14.18 0 20.367a1.49 1.49 0 01-1.26.692zm7.593-4.557a1.49 1.49 0 01-1.367-2.082c1.111-2.573 1.111-5.899 0-8.471a1.49 1.49 0 112.736-1.183c1.444 3.342 1.444 7.494 0 10.836a1.49 1.49 0 01-1.369.9z" fill="#fff"/></svg>