<svg width="80" height="80" fill="none" xmlns="http://www.w3.org/2000/svg"><path fill-rule="evenodd" clip-rule="evenodd" d="M0 74.407V5.593A5.584 5.584 0 015.593 0h68.814A5.584 5.584 0 0180 5.593v68.814A5.584 5.584 0 0174.407 80H5.593A5.584 5.584 0 010 74.407zm22.572-14.781V20.373c0-1.598 1.298-2.996 2.996-2.996h7.191c1.598 0 2.896 1.398 2.896 2.997v39.25c0 1.599-1.298 2.997-2.896 2.997h-7.191c-1.698 0-2.996-1.398-2.996-2.996zm21.673 0V20.373c0-1.598 1.398-2.996 2.996-2.996h7.191c1.698 0 2.996 1.398 2.996 2.997v39.25c0 1.599-1.298 2.997-2.996 2.997h-7.191c-1.598 0-2.996-1.398-2.996-2.996z" fill="#fff"/></svg>